<svg width="2260" height="1592" viewBox="0 0 2260 1592" fill="none" xmlns="http://www.w3.org/2000/svg">
<g clip-path="url(#clip0_254_829)">
<path d="M2166.11 794.757C2054.49 856.769 1870.11 1057.93 1769.14 1164.88C1755.13 1179.68 1742.73 1192.69 1732.33 1203.26C1726.52 1209.19 1721.3 1214.37 1716.82 1218.68C1687.19 1247 1651.99 1268.18 1614.32 1285.46C1602.25 1291.02 1589.98 1296.16 1577.51 1301.05C1501.32 1330.73 1419.66 1349.55 1356.2 1381.96C1249.96 1436.27 1207.1 1551.46 1112.76 1575.5C1109.77 1576.25 1106.79 1576.99 1103.84 1577.7C1065.96 1586.86 1031.51 1591.5 1000.3 1591.96C967.388 1592.5 938.082 1588.48 911.926 1580.31C879.097 1570.07 851.283 1553.33 827.78 1531.02C793.293 1498.32 768.007 1453.63 749.769 1399.79C747.945 1394.44 745.831 1389.14 743.468 1383.87C737.126 1369.9 728.753 1356.18 718.805 1342.71C704.794 1323.77 687.592 1305.36 668.152 1287.7C633.167 1255.78 591.052 1226.23 547.777 1200.16C515.694 1180.76 482.989 1163.31 452.067 1148.18C449.828 1147.06 447.59 1145.98 445.393 1144.9C427.03 1136.07 409.372 1128.03 392.957 1120.98C379.652 1115.22 367.175 1110.12 355.776 1105.69C340.066 1099.55 326.387 1094.7 315.568 1091.26C142.592 1037.42 -14.6733 928.398 1.07813 728.31C16.8296 528.221 195.733 539.04 262.884 441.255C340.066 333.481 400.999 42.2398 642.576 113.496C806.93 161.58 1057.71 195.57 1179.2 268.484C1287.72 332.734 1363.08 378.787 1449.05 408.343C1450.46 408.84 1451.91 409.337 1453.36 409.793C1476.78 417.669 1501.03 424.302 1527.02 429.773C1527.64 429.898 1528.26 430.022 1528.93 430.188H1528.97C1586.75 442.167 1652.99 448.385 1737.34 449.173C1964.58 450.831 2217.55 488.967 2256.15 638.939C2271.86 696.972 2238.98 755.005 2166.11 794.757Z" fill="#91A9ED"/>
<path d="M848.215 302.392L844.07 313.998V302.392H848.215Z" fill="#98B8FF"/>
<path d="M425.828 665.592C455.589 665.592 479.714 641.466 479.714 611.705C479.714 581.944 455.589 557.817 425.828 557.817C396.067 557.817 371.941 581.944 371.941 611.705C371.941 641.466 396.067 665.592 425.828 665.592Z" fill="#C2D8F9"/>
<path d="M1353.59 1212.18C1376.48 1212.18 1395.04 1193.62 1395.04 1170.73C1395.04 1147.83 1376.48 1129.27 1353.59 1129.27C1330.7 1129.27 1312.14 1147.83 1312.14 1170.73C1312.14 1193.62 1330.7 1212.18 1353.59 1212.18Z" fill="#C2D8F9"/>
<path d="M1690.09 385.585C1701.53 385.585 1710.81 376.305 1710.81 364.859C1710.81 353.412 1701.53 344.133 1690.09 344.133C1678.64 344.133 1669.36 353.412 1669.36 364.859C1669.36 376.305 1678.64 385.585 1690.09 385.585Z" fill="#C2D8F9"/>
<path d="M527.01 354.538C538.456 354.538 547.735 345.258 547.735 333.812C547.735 322.365 538.456 313.086 527.01 313.086C515.563 313.086 506.284 322.365 506.284 333.812C506.284 345.258 515.563 354.538 527.01 354.538Z" fill="#C2D8F9"/>
<path d="M1760.55 542.066C1776.58 542.066 1789.57 529.075 1789.57 513.05C1789.57 497.024 1776.58 484.033 1760.55 484.033C1744.53 484.033 1731.54 497.024 1731.54 513.05C1731.54 529.075 1744.53 542.066 1760.55 542.066Z" fill="#C2D8F9"/>
<path d="M1057.34 964.211C1091.57 936.148 1112.71 895.733 1117.07 852.374L1118.52 836.001L1162.58 828.332L1261.32 836.001L1262.77 852.374C1266.79 896.106 1288.26 936.521 1322.5 964.211L1323.95 965.289H1056.22L1057.29 964.211H1057.34Z" fill="#FFFFFB"/>
<path opacity="0.8" d="M1264.63 852.416C1266.08 867.712 1269.73 882.635 1275.58 896.853H1104.01C1109.86 882.635 1113.46 867.712 1114.95 852.416L1116.4 836.043L1161.59 828.374L1262.85 836.043L1264.68 852.416H1264.63Z" fill="#CCCBCA"/>
<path d="M887.967 409.793H1498.13C1515.25 409.793 1529.09 423.638 1529.09 440.758V838.198C1529.09 855.318 1515.25 869.162 1498.13 869.162H887.967C870.848 869.162 857.003 855.318 857.003 838.198V440.758C857.003 423.638 870.848 409.793 887.967 409.793Z" fill="#00325B"/>
<path d="M1529.42 800.684V838.198C1529.42 855.317 1515.58 869.162 1498.46 869.162H887.967C870.848 869.162 857.003 855.317 857.003 838.198V800.684H1529.47H1529.42Z" fill="#FFFFFB"/>
<path opacity="0.8" d="M1189.94 848.769C1180.49 848.769 1172.82 841.1 1172.82 831.649C1172.82 822.198 1180.49 814.529 1189.94 814.529C1199.39 814.529 1207.06 822.198 1207.06 831.649C1207.06 841.1 1199.39 848.769 1189.94 848.769Z" fill="#CCCBCA"/>
<path d="M877.77 430.187H1502.15V773.325H877.77V430.187Z" fill="white"/>
<path d="M1191.93 738.962C1267.7 738.962 1329.13 677.53 1329.13 601.756C1329.13 525.982 1267.7 464.551 1191.93 464.551C1116.16 464.551 1054.72 525.982 1054.72 601.756C1054.72 677.53 1116.16 738.962 1191.93 738.962Z" fill="#BDCDFF"/>
<path d="M1193.3 721.76C1258.71 721.76 1311.76 668.702 1311.76 603.249C1311.76 537.797 1258.71 484.738 1193.3 484.738C1127.89 484.738 1074.83 537.797 1074.83 603.249C1074.83 668.702 1127.89 721.76 1193.3 721.76Z" fill="#4D648D"/>
<path d="M1311.76 603.208C1311.76 668.66 1258.71 721.718 1193.3 721.718V484.655C1258.75 484.655 1311.76 537.755 1311.76 603.166V603.208Z" fill="#243F6D"/>
<path d="M1150.73 582.73C1153.3 576.015 1160.88 572.699 1167.56 575.269C1174.27 577.839 1177.59 585.383 1175.02 592.098L1157.73 636.701C1155.16 643.416 1147.58 646.732 1140.9 644.162C1134.19 641.592 1130.87 634.048 1133.44 627.332L1150.73 582.73Z" fill="white"/>
<path d="M1188.74 575.186C1191.31 568.471 1198.89 565.155 1205.57 567.725C1212.28 570.295 1215.6 577.839 1213.03 584.554L1192.55 637.447C1189.98 644.162 1182.39 647.478 1175.72 644.908C1169.01 642.338 1165.69 634.794 1168.26 628.079L1188.74 575.186Z" fill="white"/>
<path d="M1226.79 569.259C1229.36 562.543 1236.94 559.227 1243.62 561.797C1250.33 564.367 1253.65 571.911 1251.08 578.627L1227.82 638.69C1225.25 645.406 1217.67 648.722 1211 646.152C1204.28 643.582 1200.96 636.037 1203.53 629.322L1226.79 569.259Z" fill="white"/>
<g opacity="0.1">
<path d="M854.06 421.441C859.531 413.44 869.355 408.342 880.671 408.342H1498.46C1515.95 408.342 1529.8 421.109 1529.8 436.736V767.854L854.06 421.441Z" fill="#00325B"/>
</g>
<path d="M1821.2 965.33H260.313V1020.34H1821.2V965.33Z" fill="#8E98AE"/>
<path d="M1577.51 1020.29V1301.05C1589.98 1296.16 1602.25 1291.02 1614.32 1285.46V1193.36H1732.33V1203.26C1742.73 1192.69 1755.12 1179.68 1769.14 1164.88V1020.29H1577.51ZM1732.33 1148.17H1614.32V1065.48H1732.33V1148.17Z" fill="#8E98AE"/>
<path d="M355.734 1020.29V1105.69C367.133 1110.12 379.61 1115.22 392.916 1120.98V1065.48H511.301V1148.17H452.025C482.948 1163.3 515.653 1180.76 547.736 1200.15V1020.29H355.734Z" fill="#8E98AE"/>
<mask id="mask0_254_829" style="mask-type:luminance" maskUnits="userSpaceOnUse" x="1573" y="575" width="242" height="392">
<path d="M1814.32 575.186H1573.53V966.781H1814.32V575.186Z" fill="white"/>
</mask>
<g mask="url(#mask0_254_829)">
<path d="M1684.62 816.353C1690.46 817.099 1699.54 817.804 1709.4 817.804H1709.78C1713.05 817.804 1716.7 817.804 1720.35 817.431C1724.7 817.058 1729.09 816.685 1733.45 816.353C1750.56 814.156 1767.68 808.684 1777.51 796.663C1780.78 792.643 1782.98 788.663 1784.43 785.015C1785.18 783.192 1785.51 781.741 1785.88 779.917C1788.45 766.445 1780.41 755.875 1777.51 744.227C1775.31 735.48 1776.06 726.361 1786.96 715.459C1827.75 675.748 1820.12 613.115 1776.02 624.763C1717.36 640.058 1778.21 684.868 1695.89 711.811C1694.81 712.185 1693.69 712.558 1692.24 712.889C1689.34 713.967 1686.77 715.086 1684.24 716.164L1684.62 816.353Z" fill="#6183BA"/>
<path d="M1773.86 679.354C1773.86 679.354 1727.97 742.03 1692.62 794.839C1689.71 798.86 1687.14 803.213 1684.62 807.234V797.036C1687.19 793.015 1689.71 789.036 1692.62 785.015C1720.68 742.776 1756 693.199 1773.86 679.354Z" fill="#4D648D"/>
<path d="M1648.18 589.031C1607.39 640.017 1686.44 640.763 1637.98 714.34C1636.91 715.791 1635.79 717.615 1634.71 719.438C1633.63 720.889 1632.51 722.34 1631.43 724.164L1679.52 822.529C1680.6 822.902 1681.34 823.275 1682.09 823.275C1684.28 824.022 1685.36 824.022 1685.36 824.022C1685.36 824.022 1686.44 823.648 1688.26 822.571H1688.64C1689.01 822.198 1689.72 821.825 1690.09 821.825C1706.83 812.374 1760.76 779.212 1762.59 741.325C1764.04 715.459 1748.74 708.164 1735.64 699.79C1724.37 692.495 1714.17 684.495 1717.78 662.649C1727.97 599.974 1679.52 549.735 1648.18 589.072V589.031Z" fill="#8ED2DD"/>
<path d="M1683.17 662.608C1683.17 662.608 1683.54 684.454 1683.54 715.045C1683.54 741.657 1683.17 774.777 1682.46 806.115V809.389C1682.46 814.115 1682.09 818.84 1682.09 823.234V827.255L1687.93 838.903C1688.31 833.431 1688.31 827.96 1688.68 822.157V817.431C1689.76 782.446 1690.5 742.03 1689.05 709.988C1687.97 689.594 1686.15 672.101 1683.21 662.65L1683.17 662.608Z" fill="#6183BA"/>
<path d="M1680.6 828.706C1652.53 844.375 1623.77 823.234 1617.22 815.234C1615.02 812.332 1613.57 809.762 1612.49 807.234C1612.12 806.156 1611.75 805.037 1611.41 803.586C1609.59 794.467 1615.06 787.213 1617.26 779.171C1618.71 772.995 1618.34 766.777 1610.71 759.481C1582.65 732.164 1588.12 689.552 1618.38 697.552C1658.46 708.122 1636.57 741.615 1673.01 756.911C1709.07 772.58 1708.7 812.996 1680.68 828.664L1680.6 828.706Z" fill="#9BDDB9"/>
<path d="M1619.41 740.579C1619.41 740.579 1650.75 783.192 1674.79 819.255C1676.62 822.156 1681.34 829.079 1683.17 831.649L1686.07 828.747C1684.24 826.177 1676.95 814.902 1675.12 812.374C1655.43 783.979 1631.77 750.072 1619.37 740.621L1619.41 740.579Z" fill="#6183BA"/>
<path d="M1686.81 831.98H1774.61V956.212C1774.61 962.056 1769.88 966.782 1764.04 966.782H1609.59C1603.74 966.782 1599.02 962.056 1599.02 956.212V831.98H1686.81Z" fill="#BDCDFF"/>
<path d="M1686.81 801.389H1790.98C1797.16 801.389 1801.55 807.565 1799.35 813.783L1788.78 842.177C1787.33 845.825 1784.06 848.022 1780.04 848.022H1592.43C1588.41 848.022 1585.13 845.452 1583.68 842.177L1573.11 813.783C1570.92 807.938 1575.31 801.389 1581.86 801.389H1686.77H1686.81Z" fill="#4D648D"/>
</g>
<path d="M761.168 1342.71V1383.87H743.427C737.085 1369.9 728.712 1356.18 718.764 1342.71H761.168Z" fill="#8E98AE"/>
<path d="M911.926 1580.31C879.097 1570.07 851.283 1553.33 827.78 1531.02C840.381 1466.28 868.154 1311.74 884.983 1301.05C920.548 1278.54 989.274 1277.26 1000.22 1301.05C1005.23 1311.91 935.802 1473.61 911.926 1580.31Z" fill="#243F6D"/>
<path d="M959.719 1287.7V1342.71H718.764C704.753 1323.76 687.551 1305.36 668.11 1287.7H959.719Z" fill="#556074"/>
<path d="M652.648 1208.28C620.234 1299.35 1120.38 1351.45 1136.76 1261.46C1147.7 1200.28 1093.4 1194.43 1093.4 1194.43C1080.63 1186.43 857.003 1158 857.003 1158C857.003 1158 674.493 1147.8 652.648 1208.28Z" fill="#243F6D"/>
<path d="M1138.21 1272.53C1131.45 1318.04 1117.48 1447.62 1103.84 1577.7C1065.96 1586.86 1031.51 1591.5 1000.3 1591.96C999.927 1553.61 1000.76 1512.83 1005.23 1467.35C1011.08 1407.08 1019.82 1362.69 1028.9 1330.94C1031.6 1321.32 1034.29 1312.82 1036.94 1305.36C1050.54 1266.85 1062.81 1254.75 1062.81 1254.75C1095.6 1179.72 1126.52 1242.77 1135.72 1265.28C1136.43 1267.02 1137.01 1268.55 1137.46 1269.71C1138.21 1271.58 1138.21 1272.53 1138.21 1272.53Z" fill="#243F6D"/>
<path d="M626.41 1135.82L565.228 865.514C561.208 856.063 561.208 844.373 565.228 834.176L653.395 668.079C661.395 648.389 682.162 638.192 699.655 645.487C717.147 652.783 724.774 674.628 716.774 694.318L623.882 855.69L696.007 1083.72C704.007 1102.29 681.789 1119.03 664.297 1129.23C648.628 1137.98 627.488 1137.6 626.41 1135.78V1135.82Z" fill="#DADADA"/>
<path d="M780.857 615.601L683.612 637.819L654.099 802.839C661.395 1013.04 669.022 1037.79 639.177 1230.5C639.177 1230.5 616.959 1253.09 750.266 1253.09C883.573 1253.09 951.718 1197.34 980.112 1178.06C987.035 1173.34 936.755 1158.74 935.677 1125.62C933.107 1051.67 943.677 803.958 943.677 803.958C943.677 803.958 926.931 684.121 927.304 641.84L835.862 615.228L780.857 615.601Z" fill="#EAEAEA"/>
<path d="M841.335 531.122L830.765 624.762H753.541L764.111 531.122H841.335Z" fill="#F7ACAC"/>
<path d="M788.484 863.897V1287.74H668.11C633.125 1255.82 591.011 1226.27 547.736 1200.2C515.653 1180.8 482.948 1163.35 452.025 1148.22H445.352V863.524C445.352 824.559 478.139 792.849 518.223 792.849H715.655C756.069 792.849 788.484 824.559 788.484 863.897Z" fill="#556074"/>
<path d="M1238.02 982.823C1238.02 982.823 1285.03 999.942 1306.5 988.999C1327.97 978.056 1344.39 970.802 1335.27 952.936C1326.15 935.443 1272.26 930.718 1272.26 930.718C1272.26 930.718 1234 946.014 1235.12 952.19C1236.2 958.366 1238.02 982.781 1238.02 982.781V982.823Z" fill="#F7ACAC"/>
<path d="M1156.07 986.802L1046.43 956.211C1036.61 952.563 888.713 798.86 888.713 798.86C879.967 779.543 873.791 723.832 881.045 693.945C885.397 676.079 932.403 629.819 941.149 649.136L1091.24 903.774L1242.42 920.894C1260.99 927.816 1258.46 955.506 1253.69 974.823C1249.67 992.315 1208.18 993.02 1156.07 986.844V986.802Z" fill="#DADADA"/>
<g opacity="0.3">
<path d="M1008.88 810.135L937.833 648.017C954.206 664.39 1043.49 826.508 1090.83 904.852C1136.34 908.5 1177.88 912.852 1247.47 923.05L1256.59 937.641L1272.97 930.345C1295.18 933.247 1307.95 934.698 1322.13 943.112L1256.55 957.703C1256.55 957.703 1110.85 941.33 1078.06 923.091C1045.27 904.894 1008.84 810.176 1008.84 810.176L1008.88 810.135Z" fill="white"/>
</g>
<path d="M1401.55 820.083C1437.97 820.083 1467.5 790.557 1467.5 754.133C1467.5 717.71 1437.97 688.184 1401.55 688.184C1365.12 688.184 1335.6 717.71 1335.6 754.133C1335.6 790.557 1365.12 820.083 1401.55 820.083Z" fill="#F7F7F7"/>
<path d="M1401.55 694.774C1434.29 694.774 1460.9 721.387 1460.9 754.134C1460.9 786.88 1434.29 813.493 1401.55 813.493C1368.8 813.493 1342.19 786.88 1342.19 754.134C1342.19 721.387 1368.8 694.774 1401.55 694.774ZM1401.55 681.593C1361.5 681.593 1329.01 714.091 1329.01 754.134C1329.01 794.176 1361.5 826.674 1401.55 826.674C1441.59 826.674 1474.09 794.217 1474.09 754.134C1474.09 714.05 1441.63 681.593 1401.55 681.593Z" fill="#C2D8F9"/>
<path d="M1401.55 813.493C1434.67 813.493 1460.9 786.922 1460.9 754.133C1460.9 721.345 1434.67 694.774 1401.55 694.774V701.904C1430.65 701.904 1454.31 725.366 1454.31 754.133C1454.31 782.901 1430.65 806.363 1401.55 806.363V813.493Z" fill="#7093FF"/>
<path d="M1401.55 806.363C1372.45 806.363 1348.78 782.901 1348.78 754.133C1348.78 725.366 1372.45 701.904 1401.55 701.904V694.774C1368.43 694.774 1342.19 721.345 1342.19 754.133C1342.19 786.922 1368.43 813.493 1401.55 813.493V806.363Z" fill="#70D4FF"/>
<path d="M1403.41 778.382C1401.67 776.641 1399.56 775.605 1397.32 775.108L1417.59 755.086L1415.89 742.983L1432.26 726.858L1431.64 719.687L1410 741.034L1411.7 753.138L1385.71 778.797C1381.19 783.564 1381.28 791.025 1385.96 795.585C1390.73 800.269 1398.52 800.269 1403.33 795.461C1408.1 790.776 1408.14 783.108 1403.37 778.382H1403.41ZM1389.9 791.73C1387.33 789.16 1387.37 784.973 1390.02 782.362C1392.68 779.75 1396.95 779.709 1399.52 782.237C1402.09 784.807 1402.04 788.994 1399.39 791.606C1396.74 794.258 1392.47 794.258 1389.9 791.73Z" fill="#70D4FF"/>
<path d="M1365.73 758.445C1360.92 763.212 1360.84 770.922 1365.61 775.606C1370.25 780.165 1377.79 780.29 1382.64 775.854L1408.63 750.196L1420.9 751.854L1442.54 730.506L1435.25 729.926L1418.87 746.051L1406.6 744.393L1386.33 764.414C1385.84 762.217 1384.76 760.061 1383.02 758.403C1378.33 753.719 1370.5 753.719 1365.69 758.445H1365.73ZM1369.71 762.341C1372.36 759.73 1376.63 759.688 1379.2 762.217C1381.77 764.787 1381.73 768.973 1379.08 771.585C1376.43 774.196 1372.16 774.238 1369.59 771.709C1367.02 769.181 1367.06 764.953 1369.71 762.341Z" fill="#7093FF"/>
<path d="M1211.12 885.619C1241.7 885.619 1266.5 860.824 1266.5 830.239C1266.5 799.654 1241.7 774.859 1211.12 774.859C1180.54 774.859 1155.74 799.654 1155.74 830.239C1155.74 860.824 1180.54 885.619 1211.12 885.619Z" fill="#F7F7F7"/>
<path d="M1211.12 781.616C1237.94 781.616 1259.74 803.42 1259.74 830.239C1259.74 857.059 1237.94 878.862 1211.12 878.862C1184.3 878.862 1162.5 857.059 1162.5 830.239C1162.5 803.42 1184.3 781.616 1211.12 781.616ZM1211.12 768.062C1176.8 768.062 1148.94 795.917 1148.94 830.239C1148.94 864.561 1176.8 892.417 1211.12 892.417C1245.44 892.417 1273.3 864.561 1273.3 830.239C1273.3 795.917 1245.44 768.062 1211.12 768.062Z" fill="#C2D8F9"/>
<path d="M1195.82 821.991C1196.82 821.991 1197.65 821.203 1197.65 820.25C1197.65 819.296 1196.82 818.509 1195.82 818.509C1194.83 818.509 1194 819.296 1194 820.25C1194 821.203 1194.83 821.991 1195.82 821.991Z" fill="#7093FF"/>
<path d="M1208.51 821.991C1209.5 821.991 1210.33 821.203 1210.33 820.25C1210.33 819.296 1209.5 818.509 1208.51 818.509C1207.51 818.509 1206.68 819.296 1206.68 820.25C1206.68 821.203 1207.51 821.991 1208.51 821.991Z" fill="#7093FF"/>
<path d="M1221.44 821.991C1222.44 821.991 1223.26 821.203 1223.26 820.25C1223.26 819.296 1222.44 818.509 1221.44 818.509C1220.45 818.509 1219.62 819.296 1219.62 820.25C1219.62 821.203 1220.45 821.991 1221.44 821.991Z" fill="#7093FF"/>
<path d="M1195.82 830.944C1196.82 830.944 1197.65 830.156 1197.65 829.203C1197.65 828.249 1196.82 827.462 1195.82 827.462C1194.83 827.462 1194 828.249 1194 829.203C1194 830.156 1194.83 830.944 1195.82 830.944Z" fill="#7093FF"/>
<path d="M1195.82 840.354C1196.82 840.354 1197.65 839.566 1197.65 838.613C1197.65 837.66 1196.82 836.872 1195.82 836.872C1194.83 836.872 1194 837.66 1194 838.613C1194 839.566 1194.83 840.354 1195.82 840.354Z" fill="#7093FF"/>
<path fill-rule="evenodd" clip-rule="evenodd" d="M1221.36 812.747C1220.49 812.747 1219.78 812.084 1219.7 811.213H1190.85C1188.9 811.213 1187.29 812.83 1187.29 814.778V843.96C1187.29 845.908 1188.9 847.525 1190.85 847.525H1207.93C1208.43 848.727 1209.05 849.805 1209.79 850.841H1190.85C1187.08 850.841 1183.97 847.774 1183.97 843.96V814.778C1183.97 811.006 1187.08 807.938 1190.85 807.938H1219.7V806.446C1219.7 805.534 1220.45 804.788 1221.36 804.788C1222.27 804.788 1223.02 805.534 1223.02 806.446V807.938H1226.58C1230.35 807.938 1233.46 811.006 1233.46 814.778V834.26C1232.55 832.892 1231.43 831.69 1230.15 830.695V814.778C1230.15 812.83 1228.53 811.213 1226.58 811.213H1223.02C1222.93 812.042 1222.23 812.747 1221.36 812.747Z" fill="#7093FF"/>
<path d="M1228.78 845.535H1221.36C1220.61 845.535 1219.99 844.913 1219.99 844.167V832.892C1219.99 832.146 1220.61 831.524 1221.36 831.524C1222.1 831.524 1222.73 832.146 1222.73 832.892V842.799H1228.78C1229.52 842.799 1230.15 843.421 1230.15 844.167C1230.15 844.913 1229.52 845.535 1228.78 845.535Z" fill="#7093FF"/>
<path fill-rule="evenodd" clip-rule="evenodd" d="M1208.59 812.912C1209.5 812.912 1210.25 812.166 1210.25 811.254V806.57C1210.25 805.658 1209.5 804.912 1208.59 804.912C1207.68 804.912 1206.93 805.658 1206.93 806.57V807.938H1197.4V806.695C1197.4 805.783 1196.65 805.037 1195.74 805.037C1194.83 805.037 1194.08 805.783 1194.08 806.695V807.938H1190.85C1187.08 807.938 1183.97 811.006 1183.97 814.819V844.001C1183.97 847.773 1187.08 850.841 1190.85 850.841H1205.86C1208.88 856.271 1214.68 859.919 1221.36 859.919C1231.18 859.919 1239.1 851.96 1239.1 842.177C1239.1 837.037 1236.9 832.436 1233.42 829.203C1232.43 828.291 1231.31 827.462 1230.1 826.757C1227.49 825.265 1224.51 824.436 1221.32 824.436C1211.49 824.436 1203.58 832.395 1203.58 842.177C1203.58 844.043 1203.87 845.867 1204.41 847.525H1190.85C1188.9 847.525 1187.29 845.908 1187.29 843.96V814.778C1187.29 812.829 1188.9 811.213 1190.85 811.213H1194.08V811.337C1194.08 812.249 1194.83 812.995 1195.74 812.995C1196.65 812.995 1197.4 812.249 1197.4 811.337V811.213H1206.93C1206.93 812.125 1207.68 812.871 1208.59 812.871V812.912ZM1221.36 856.644C1216.63 856.644 1212.45 854.364 1209.79 850.882C1209.05 849.887 1208.43 848.768 1207.93 847.566C1207.27 845.908 1206.89 844.084 1206.89 842.219C1206.89 834.26 1213.36 827.794 1221.36 827.794C1224.67 827.794 1227.7 828.913 1230.15 830.778C1231.43 831.773 1232.55 832.975 1233.46 834.343C1234.95 836.623 1235.83 839.317 1235.83 842.26C1235.83 850.219 1229.36 856.685 1221.36 856.685V856.644Z" fill="#70CCFF"/>
<path d="M1210.87 881.101C1239.39 881.101 1262.02 858.344 1262.02 830.239C1262.02 802.135 1239.43 779.378 1210.87 779.378V785.471C1235.95 785.471 1256.3 805.575 1256.3 830.239C1256.3 854.903 1235.91 875.007 1210.87 875.007V881.101Z" fill="#7093FF"/>
<path d="M1211.37 875.007C1186.29 875.007 1165.94 854.903 1165.94 830.239C1165.94 805.575 1186.33 785.471 1211.37 785.471V779.378C1182.85 779.378 1160.22 802.135 1160.22 830.239C1160.22 858.344 1182.81 881.101 1211.37 881.101V875.007Z" fill="#70CCFF"/>
<path d="M1517.11 671.686C1557.91 671.686 1590.98 638.614 1590.98 597.818C1590.98 557.023 1557.91 523.951 1517.11 523.951C1476.32 523.951 1443.25 557.023 1443.25 597.818C1443.25 638.614 1476.32 671.686 1517.11 671.686Z" fill="#F7F7F7"/>
<path d="M1517.11 533.029C1552.84 533.029 1581.94 562.087 1581.94 597.86C1581.94 633.633 1552.88 662.69 1517.11 662.69C1481.34 662.69 1452.28 633.633 1452.28 597.86C1452.28 562.087 1481.34 533.029 1517.11 533.029ZM1517.11 514.956C1471.31 514.956 1434.21 552.055 1434.21 597.86C1434.21 643.664 1471.31 680.763 1517.11 680.763C1562.92 680.763 1600.01 643.664 1600.01 597.86C1600.01 552.055 1562.92 514.956 1517.11 514.956Z" fill="#C2D8F9"/>
<path d="M1516.78 665.674C1554.79 665.674 1584.97 635.29 1584.97 597.859C1584.97 560.428 1554.79 530.044 1516.78 530.044V538.169C1550.19 538.169 1577.38 564.946 1577.38 597.859C1577.38 630.772 1550.19 657.55 1516.78 657.55V665.674Z" fill="#7093FF"/>
<path d="M1517.48 657.509C1484.08 657.509 1456.88 630.731 1456.88 597.818C1456.88 564.905 1484.08 538.128 1517.48 538.128V530.003C1479.47 530.003 1449.3 560.387 1449.3 597.818C1449.3 635.249 1479.47 665.633 1517.48 665.633V657.509Z" fill="#70D4FF"/>
<path d="M1517.48 614.399V627.415H1478.77C1475.12 627.415 1472.18 624.513 1472.18 620.907V599.477H1500.28L1508.95 614.399H1517.48Z" fill="#7093FF"/>
<path d="M1562.63 599.891V620.907C1562.63 624.513 1559.68 627.415 1556.04 627.415H1517.49V614.399H1526.02L1534.69 599.477H1562.71C1562.71 599.477 1562.63 599.767 1562.63 599.891Z" fill="#70D4FF"/>
<path d="M1539.16 570.087L1551.27 592.678H1530.67L1528.68 596.077L1522 607.56H1512.84L1506.17 596.077L1504.18 592.678H1483.58L1495.68 570.087H1539.12H1539.16ZM1543.31 563.289H1491.58L1474.62 594.917L1472.22 599.311L1472.14 599.518H1500.24L1508.9 614.441H1525.98L1534.65 599.518H1562.75L1562.67 599.311L1560.26 594.917L1543.27 563.289H1543.31Z" fill="#70D4FF"/>
<path d="M1539.16 570.087L1551.27 592.678H1530.67L1528.68 596.077L1522 607.56H1517.44C1517.44 607.56 1516.74 613.404 1517.44 614.358H1525.98L1534.65 599.435H1562.75L1562.67 599.228L1560.26 594.834L1543.31 563.289H1517.4V570.087H1539.08" fill="#7093FF"/>
<path d="M1509.78 563.164L1501.11 571.703C1498.09 574.688 1498.09 579.579 1501.11 582.564C1504.14 585.548 1509.11 585.548 1512.14 582.564L1520.8 574.066L1509.78 563.164Z" fill="#70D4FF"/>
<path d="M1527.06 587.373C1530.83 587.373 1533.86 584.347 1533.86 580.658C1533.86 576.968 1530.79 573.942 1527.06 573.942C1523.33 573.942 1520.26 576.968 1520.26 580.658C1520.26 584.347 1523.33 587.373 1527.06 587.373Z" fill="#7093FF"/>
<path d="M1522.17 576.056C1519.64 578.709 1519.64 582.854 1522.25 585.424C1524.86 587.994 1529.13 587.994 1531.74 585.507L1522.17 576.097V576.056Z" fill="#70D4FF"/>
<path d="M1509.78 563.164L1520.8 574.025L1529.75 565.196C1532.78 562.211 1532.78 557.32 1529.75 554.335C1526.73 551.351 1521.75 551.351 1518.73 554.335" fill="#7093FF"/>
<path d="M1498.87 577.963C1498.87 577.673 1498.79 577.424 1498.79 577.134C1498.79 577.424 1498.79 577.673 1498.87 577.963Z" fill="#7093FF"/>
<path d="M1499.37 580.077C1499.25 579.786 1499.16 579.455 1499.08 579.206C1499.16 579.496 1499.29 579.745 1499.37 580.077Z" fill="#7093FF"/>
<path d="M1504.59 584.554C1504.3 584.471 1503.97 584.347 1503.68 584.264C1503.97 584.388 1504.22 584.471 1504.59 584.554Z" fill="#7093FF"/>
<path d="M1193.05 307.034C1249.13 307.034 1294.6 261.565 1294.6 205.477C1294.6 149.389 1249.13 103.92 1193.05 103.92C1136.96 103.92 1091.49 149.389 1091.49 205.477C1091.49 261.565 1136.96 307.034 1193.05 307.034Z" fill="#F7F7F7"/>
<path d="M1193.05 116.355C1242.21 116.355 1282.17 156.315 1282.17 205.477C1282.17 254.639 1242.21 294.598 1193.05 294.598C1143.89 294.598 1103.93 254.639 1103.93 205.477C1103.93 156.315 1143.89 116.355 1193.05 116.355ZM1193.05 91.4844C1130.08 91.4844 1079.06 142.512 1079.06 205.477C1079.06 268.442 1130.08 319.47 1193.05 319.47C1256.01 319.47 1307.04 268.442 1307.04 205.477C1307.04 142.512 1256.01 91.4844 1193.05 91.4844Z" fill="#C2D8F9"/>
<path d="M1202.17 193.539C1200.67 192.046 1198.48 190.844 1195.45 189.808C1195 189.601 1194.33 189.435 1193.88 189.352C1192.51 188.772 1191.76 188.233 1191.1 187.569C1190.35 186.823 1190.1 185.994 1190.1 184.751C1190.1 183.466 1190.48 182.429 1191.1 181.766C1191.76 181.103 1192.59 180.73 1193.88 180.73C1195.16 180.73 1196.53 181.186 1197.28 182.139C1198.02 183.051 1198.39 184.378 1198.39 186.036V186.782H1204.11V185.953C1204.11 183.051 1203.37 180.647 1202 178.865C1200.72 177.289 1198.97 176.17 1196.74 175.797V170.947H1191.93V175.797C1189.73 176.17 1187.95 177.082 1186.66 178.616C1185.17 180.191 1184.47 182.347 1184.47 184.875C1184.47 187.404 1185.3 189.642 1186.87 191.217C1188.45 192.709 1190.27 193.829 1193.21 194.741C1193.38 194.824 1193.88 195.031 1194.04 195.114C1195.62 195.653 1197.07 196.399 1197.73 197.186C1198.48 197.932 1198.85 198.761 1198.85 199.881C1198.85 201.166 1198.48 202.202 1197.57 202.865C1196.74 203.528 1195.45 203.901 1193.96 203.984C1192.59 203.984 1191.31 203.611 1190.27 202.782C1189.36 202.036 1188.9 200.627 1188.9 198.679V197.85H1183.56L1183.39 198.305V198.388L1183.31 198.471V198.637C1183.22 201.829 1184.05 204.233 1185.79 205.933C1187.29 207.425 1189.19 208.378 1191.51 208.71V212.897H1196.41V208.71C1198.81 208.337 1200.76 207.425 1202.13 206.016C1203.7 204.44 1204.53 202.285 1204.53 199.59C1204.61 197.186 1203.78 195.031 1202.21 193.539H1202.17Z" fill="#7093FF"/>
<path d="M1193.96 228.234V246.141H1142.15C1137.25 246.141 1133.27 242.12 1133.27 237.187V207.715H1170.87L1182.48 228.234H1193.92H1193.96Z" fill="#7093FF"/>
<path d="M1254.44 208.254V237.187C1254.44 242.12 1250.46 246.141 1245.57 246.141H1193.92V228.234H1205.36L1216.96 207.715H1254.48C1254.4 208.005 1254.4 208.088 1254.4 208.254H1254.44Z" fill="#70D4FF"/>
<path d="M1222.97 167.299L1239.18 198.347H1211.62L1208.92 202.989L1199.97 218.741H1187.7L1178.75 202.989L1176.05 198.347H1148.49L1164.69 167.299H1222.85H1222.97ZM1228.49 157.973H1159.26L1136.59 201.456L1133.36 207.508L1133.27 207.798H1170.87L1182.48 228.316H1205.36L1216.96 207.798H1254.56L1254.48 207.508L1251.24 201.456L1228.49 157.973Z" fill="#70D4FF"/>
<path d="M1222.98 167.299L1239.18 198.347H1211.62L1208.96 203.031L1200.01 218.782H1193.92C1193.92 218.782 1193.01 226.783 1193.92 228.109H1205.36L1216.96 207.59H1254.56L1254.48 207.3L1251.24 201.248L1228.57 157.89H1193.92V167.216H1222.98" fill="#7093FF"/>
<path d="M1192.55 298.743C1244.82 298.743 1286.27 256.96 1286.27 205.477C1286.27 153.993 1244.78 112.21 1192.55 112.21V123.402C1238.48 123.402 1275.87 160.253 1275.87 205.477C1275.87 250.701 1238.48 287.551 1192.55 287.551V298.743Z" fill="#7093FF"/>
<path d="M1193.5 287.551C1147.58 287.551 1110.19 250.701 1110.19 205.477C1110.19 160.253 1147.58 123.402 1193.5 123.402V112.21C1141.23 112.21 1099.78 153.993 1099.78 205.477C1099.78 256.96 1141.27 298.743 1193.5 298.743V287.551Z" fill="#70D4FF"/>
<path d="M891.697 254.722C957.972 254.722 1011.7 200.995 1011.7 134.719C1011.7 68.4431 957.972 14.7158 891.697 14.7158C825.423 14.7158 771.696 68.4431 771.696 134.719C771.696 200.995 825.423 254.722 891.697 254.722Z" fill="#F7F7F7"/>
<path d="M891.698 29.3894C949.771 29.3894 997.025 76.6445 997.025 134.719C997.025 192.793 949.771 240.048 891.698 240.048C833.625 240.048 786.37 192.793 786.37 134.719C786.37 76.6445 833.625 29.3894 891.698 29.3894ZM891.698 0C817.293 0 756.981 60.3125 756.981 134.719C756.981 209.125 817.293 269.437 891.698 269.437C966.103 269.437 1026.41 209.125 1026.41 134.719C1026.41 60.3125 966.103 0 891.698 0Z" fill="#C2D8F9"/>
<path d="M947.822 77.225C948.03 76.2716 947.408 75.7327 946.455 76.0229L929.625 81.7018C928.672 82.0334 928.548 82.821 929.294 83.4428L932.278 86.0542C933.024 86.7175 933.149 87.8781 932.527 88.6242L905.625 122.408C905.003 123.195 903.843 123.319 903.055 122.739L872.671 100.148C871.884 99.5675 870.475 98.8629 869.521 98.6142C868.568 98.3654 865.956 99.9406 865.252 100.604L831.759 132.688C831.055 133.392 830.143 134.677 829.77 135.589C829.77 135.589 828.982 137.579 830.35 138.988C831.055 139.734 832.008 140.066 832.961 140.066C833.915 140.066 833.956 140.025 833.956 140.025C834.785 139.486 836.07 138.491 836.775 137.828L868.07 107.858C868.775 107.153 870.019 107.112 870.806 107.692L901.563 130.532C902.351 131.112 903.801 131.776 904.755 132.024L906.413 131.817C907.283 131.361 908.485 130.366 909.107 129.579L937.957 93.3498C938.579 92.5622 939.698 92.4793 940.444 93.101L942.682 95.0493C943.429 95.7125 944.216 95.4224 944.382 94.469L947.864 77.225H947.822Z" fill="#7093FF"/>
<path fill-rule="evenodd" clip-rule="evenodd" d="M948.527 192.834C948.527 195.197 946.579 197.145 944.216 197.145H834.992C833.251 197.145 831.718 196.399 830.64 195.156C829.769 194.368 829.23 193.207 829.23 191.964V171.238C829.23 168.875 831.179 166.927 833.541 166.927H842.163C844.526 166.927 846.474 168.875 846.474 171.238V191.342H862.557V131.195C862.557 128.833 864.505 126.884 866.868 126.884H875.448C877.811 126.884 879.759 128.833 879.759 131.195V191.342H896.962V149.103C896.962 146.74 898.91 144.792 901.273 144.792H909.853C912.216 144.792 914.164 146.74 914.164 149.103V191.342H931.325V114.905C931.325 112.542 933.273 110.594 935.636 110.594H944.299C946.662 110.594 948.61 112.542 948.61 114.905V192.876L948.527 192.834Z" fill="#70D4FF"/>
<path d="M891.117 244.939C952.921 244.939 1001.92 195.611 1001.92 134.719C1001.92 73.8258 952.921 24.498 891.117 24.498V37.7212C945.418 37.7212 989.605 81.2456 989.605 134.719C989.605 188.191 945.418 231.716 891.117 231.716V244.939Z" fill="#7093FF"/>
<path d="M892.236 231.716C837.935 231.716 793.748 188.191 793.748 134.719C793.748 81.2456 837.935 37.7212 892.236 37.7212V24.498C830.433 24.498 781.438 73.8258 781.438 134.719C781.438 195.611 830.433 244.939 892.236 244.939V231.716Z" fill="#70CCFF"/>
<path d="M1423.85 445.732C1469.75 445.732 1506.96 408.522 1506.96 362.621C1506.96 316.72 1469.75 279.51 1423.85 279.51C1377.95 279.51 1340.74 316.72 1340.74 362.621C1340.74 408.522 1377.95 445.732 1423.85 445.732Z" fill="#F7F7F7"/>
<path d="M1423.85 289.707C1464.05 289.707 1496.76 322.413 1496.76 362.621C1496.76 402.829 1464.05 435.535 1423.85 435.535C1383.64 435.535 1350.93 402.829 1350.93 362.621C1350.93 322.413 1383.64 289.707 1423.85 289.707ZM1423.85 269.354C1372.32 269.354 1330.58 311.097 1330.58 362.621C1330.58 414.146 1372.32 455.888 1423.85 455.888C1475.37 455.888 1517.11 414.146 1517.11 362.621C1517.11 311.097 1475.37 269.354 1423.85 269.354Z" fill="#C2D8F9"/>
<path d="M1423.85 438.934C1466.42 438.934 1500.16 404.737 1500.16 362.621C1500.16 320.506 1466.42 286.309 1423.85 286.309V295.469C1461.24 295.469 1491.7 325.605 1491.7 362.621C1491.7 399.638 1461.24 429.773 1423.85 429.773V438.934Z" fill="#7093FF"/>
<path d="M1423.85 429.773C1386.46 429.773 1355.99 399.638 1355.99 362.621C1355.99 325.605 1386.46 295.469 1423.85 295.469V286.309C1381.28 286.309 1347.54 320.506 1347.54 362.621C1347.54 404.737 1381.28 438.934 1423.85 438.934V429.773Z" fill="#70D4FF"/>
<path d="M1438.35 345.088C1438.64 345.088 1438.89 345.005 1439.18 344.922L1459.04 339.119C1461.19 338.497 1462.4 336.3 1461.77 334.145C1461.15 331.989 1458.96 330.787 1456.8 331.409L1436.95 337.212C1434.79 337.834 1433.59 340.031 1434.21 342.186C1434.75 344.01 1436.49 345.254 1438.31 345.088H1438.35Z" fill="#7093FF"/>
<path d="M1391.72 367.43H1423.85V347.657H1376.68C1374.48 347.657 1372.7 349.398 1372.7 351.637C1372.7 353.875 1374.52 355.616 1376.68 355.616H1385.67V381.565C1385.67 381.855 1385.75 382.104 1385.84 382.394C1382.31 383.596 1379.83 386.912 1379.83 390.85C1379.83 395.824 1383.81 399.762 1388.74 399.762C1393.67 399.762 1397.65 395.783 1397.65 390.85C1397.65 386.954 1395.12 383.596 1391.64 382.394C1391.72 382.145 1391.81 381.855 1391.81 381.565V367.43H1391.72ZM1392.43 390.85C1392.43 392.84 1390.81 394.498 1388.78 394.498C1386.75 394.498 1385.13 392.881 1385.13 390.85C1385.13 388.819 1386.75 387.202 1388.78 387.202C1390.81 387.202 1392.43 388.86 1392.43 390.85Z" fill="#7093FF"/>
<path d="M1473.55 332.445C1471.89 331.077 1469.36 331.284 1467.91 332.984L1455.68 347.699H1423.85V367.472H1444.9V382.519C1441.38 383.721 1438.89 387.037 1438.89 390.975C1438.89 395.949 1442.87 399.887 1447.81 399.887C1452.74 399.887 1456.72 395.908 1456.72 390.975C1456.72 387.161 1454.27 383.886 1450.83 382.56V355.699H1459.37L1473.96 338.082C1475.41 336.383 1475.16 333.896 1473.51 332.445H1473.55ZM1451.78 390.892C1451.78 392.882 1450.17 394.54 1448.14 394.54C1446.11 394.54 1444.49 392.923 1444.49 390.892C1444.49 388.861 1446.11 387.244 1448.14 387.244C1450.17 387.244 1451.78 388.944 1451.78 390.892Z" fill="#70D4FF"/>
<path d="M724.276 393.171C714.369 386.87 708.193 377.668 706.079 365.315C706.079 365.315 732.359 360.258 736.38 367.844C732.318 352.631 732.318 334.889 736.38 317.189C736.38 317.189 758.598 324.775 758.598 362.786C758.598 362.786 772.733 408.384 724.235 393.171H724.276Z" fill="#243F6D"/>
<path d="M778.619 569.673C819.572 595.58 832.339 602.42 895.055 599.725C928.008 587.331 940.485 526.812 925.397 466.375C922.288 368.631 907.946 359.968 831.635 363.201C755.323 366.434 741.934 412.114 745.002 509.858L778.66 569.673H778.619Z" fill="#F9BEB6"/>
<path d="M765.603 363.076C774.515 390.144 801.21 388.196 828.982 443.037C828.982 443.037 799.345 489.09 792.837 509.443C784.008 537.008 778.661 553.796 778.661 569.714C748.691 541.651 694.556 446.187 722.204 411.409L765.645 363.118L765.603 363.076Z" fill="#243F6D"/>
<path d="M756.027 380.404C762.908 396.985 776.131 428.612 815.303 435.41C826.826 430.353 838.888 440.592 864.92 445.234C870.93 446.271 877.687 447.058 885.396 447.266C890.163 447.39 895.262 447.307 900.775 446.934C963.656 442.789 966.226 380.072 950.806 353.709C947.656 348.362 937.542 346.289 929.708 344.589C895.842 337.335 788.235 299.448 759.841 377.544L756.027 380.362V380.404Z" fill="#243F6D"/>
<path d="M811.862 455.348C787.075 445.317 789.313 463.887 791.012 477.774C792.712 491.701 811.033 512.137 823.22 512.303C823.22 512.303 828.65 472.882 811.862 455.348Z" fill="#F9BEB6"/>
<path d="M826.371 516.697C836.278 510.355 846.102 508.241 843.78 452.115C830.267 407.388 812.733 446.726 812.733 446.726L826.371 516.697Z" fill="#243F6D"/>
<path d="M734.183 598.357L716.234 630.4C716.234 630.4 734.97 647.561 783.924 644.535C832.878 641.509 857.003 621.446 857.003 621.446L854.101 601.839C854.101 601.839 791.593 615.601 734.183 598.399V598.357Z" fill="#DADADA"/>
</g>
<defs>
<clipPath id="clip0_254_829">
<rect width="2260" height="1592" fill="white"/>
</clipPath>
</defs>
</svg>
