<svg width="535" height="481" viewBox="0 0 535 481" fill="none" xmlns="http://www.w3.org/2000/svg">
<g filter="url(#filter0_d_623_776)">
<path d="M431 14.5801V393C431 400.73 424.73 407 417 407H35.4301C33.0101 407 30.7201 406.38 28.7301 405.29C24.5501 403.01 21.6501 398.66 21.4401 393.58L16.2701 269.18L15.6501 254.12L8.51009 82.3101C8.22009 75.2701 13.2001 69.1101 20.1501 67.9301L414.65 0.780081C423.2 -0.669919 431 5.91008 431 14.5801Z" fill="url(#paint0_linear_623_776)"/>
</g>
<mask id="mask0_623_776" style="mask-type:alpha" maskUnits="userSpaceOnUse" x="14" y="254" width="521" height="227">
<path d="M258 259.501L432.86 254L534.86 458.497C530.86 490.497 505.36 477.497 432.86 479.192L145.86 479.611C145.86 479.611 29 486 22.0002 405C15.0005 324 14.5004 254 14.5004 254L258 259.501Z" fill="#BDCDFF"/>
</mask>
<g mask="url(#mask0_623_776)">
<g filter="url(#filter1_d_623_776)">
<path d="M431 14.5801V393C431 400.73 424.73 407 417 407H35.4301C33.0101 407 30.7201 406.38 28.7301 405.29C24.5501 403.01 21.6501 398.66 21.4401 393.58L16.2701 269.18L15.6501 254.12L8.51009 82.3101C8.22009 75.2701 13.2001 69.1101 20.1501 67.9301L414.65 0.780081C423.2 -0.669919 431 5.91008 431 14.5801Z" fill="#BDCDFF"/>
</g>
</g>
<path d="M221.31 253.829C230.67 246.129 236.55 235.069 237.66 223.089L238.07 218.559L250.18 216.449L277.28 218.559L277.69 223.089C278.8 235.069 284.68 246.139 294.04 253.829L294.39 254.109H220.95L221.3 253.829H221.32H221.31Z" fill="#FFFFFB"/>
<path opacity="0.8" d="M278.22 223.089C278.62 227.309 279.63 231.409 281.2 235.289H234.12C235.68 231.409 236.7 227.309 237.1 223.089L237.52 218.559L249.96 216.449L277.79 218.559L278.21 223.089H278.23H278.22Z" fill="#CCCBCA"/>
<path d="M174.84 101.579H342.36C347.07 101.579 350.87 105.389 350.87 110.119V219.219C350.87 223.939 347.06 227.759 342.36 227.759H174.84C170.13 227.759 166.33 223.949 166.33 219.219V110.119C166.33 105.399 170.14 101.579 174.84 101.579Z" fill="#00325B"/>
<path d="M171.98 107.229H343.35V201.39H171.98V107.229Z" fill="white"/>
<path d="M350.88 208.92V219.25C350.88 223.95 347.07 227.75 342.37 227.75H174.84C170.13 227.75 166.33 223.95 166.33 219.25V208.92H350.88Z" fill="#FFFFFB"/>
<path opacity="0.8" d="M257.66 222.1C255.06 222.1 252.95 220 252.95 217.39C252.95 214.78 255.05 212.68 257.66 212.68C260.27 212.68 262.37 214.78 262.37 217.39C262.37 220 260.27 222.1 257.66 222.1Z" fill="#CCCBCA"/>
<path d="M200.42 120.69L201.08 121.33C201.08 121.33 201.2 121.37 201.24 121.33L201.34 121.23C201.34 121.23 201.38 121.11 201.34 121.06L200.89 120.61L201.34 120.16C201.34 120.16 201.38 120.04 201.34 119.99L201.24 119.89C201.24 119.89 201.12 119.85 201.08 119.89L200.42 120.53C200.42 120.53 200.38 120.65 200.42 120.69Z" fill="black"/>
<path d="M202.11 119.39V121.82H199.66V119.39H202.11Z" fill="white"/>
<path d="M176.391 110.22H340.041C340.331 110.22 340.581 110.45 340.581 110.74V198.92C340.581 199.21 340.351 199.44 340.041 199.44H176.391C176.101 199.44 175.851 199.21 175.851 198.92V110.74C175.851 110.45 176.081 110.22 176.391 110.22Z" fill="white"/>
<path d="M340.63 110.519C340.61 110.469 340.59 110.419 340.55 110.379C340.51 110.319 340.46 110.259 340.39 110.219C340.29 110.149 340.17 110.109 340.04 110.109H176.39C176.25 110.109 176.13 110.149 176.02 110.219L176 110.239C175.94 110.279 175.89 110.339 175.85 110.399C175.79 110.489 175.75 110.609 175.75 110.729V198.919C175.75 199.249 176.04 199.529 176.39 199.529H340.04C340.39 199.529 340.67 199.269 340.67 198.919V110.729C340.67 110.659 340.66 110.589 340.63 110.519ZM340.43 198.919C340.43 199.139 340.24 199.329 340.02 199.329H176.36C176.14 199.329 175.95 199.139 175.95 198.919V110.729C175.95 110.549 176.06 110.409 176.21 110.349C176.26 110.329 176.3 110.319 176.35 110.319H340.01C340.23 110.319 340.42 110.499 340.42 110.729V198.919H340.43Z" fill="#B8CDEB"/>
<g opacity="0.05">
<path d="M334.28 160.449H182.73V187.869H334.28V160.449Z" fill="#7093FF"/>
</g>
<path d="M274.03 160.449H182.73V164.539L182.8 164.559V160.509H274.15L274.03 160.449ZM274.03 160.449H182.73V164.539L182.8 164.559V160.509H274.15L274.03 160.449ZM274.03 160.449H182.73V164.539L182.8 164.559V160.509H274.15L274.03 160.449ZM182.69 160.409V187.929H334.35V160.409H182.69ZM334.24 187.829H182.8V160.509H334.24V187.829ZM274.03 160.449H182.73V164.539L182.8 164.559V160.509H274.15L274.03 160.449ZM274.03 160.449H182.73V164.539L182.8 164.559V160.509H274.15L274.03 160.449ZM274.03 160.449H182.73V164.539L182.8 164.559V160.509H274.15L274.03 160.449Z" fill="#B8CDEB"/>
<g opacity="0.05">
<path d="M334.28 129.609H182.73V157.029H334.28V129.609Z" fill="#7093FF"/>
</g>
<path d="M182.69 129.569V157.089H334.35V129.569H182.69ZM334.24 156.989H182.8V129.669H334.24V156.989Z" fill="#B8CDEB"/>
<path d="M176.901 110.22L175.851 113V110.22H176.901Z" fill="#98B8FF"/>
<path d="M178.49 110.22L176.29 116.09H175.86V113L176.91 110.22H178.5H178.49Z" fill="#97B7FF"/>
<path d="M180.1 110.22L177.87 116.09H176.28L178.48 110.22H180.09H180.1Z" fill="#96B6FF"/>
<path d="M181.68 110.22L179.45 116.09H177.86L180.09 110.22H181.68Z" fill="#95B5FF"/>
<path d="M183.27 110.22L181.04 116.09H179.45L181.68 110.22H183.27Z" fill="#94B4FF"/>
<path d="M184.861 110.22L182.651 116.09H181.041L183.271 110.22H184.861Z" fill="#93B3FF"/>
<path d="M186.461 110.22L184.231 116.09H182.641L184.851 110.22H186.461Z" fill="#92B2FF"/>
<path d="M188.05 110.22L185.82 116.09H184.23L186.46 110.22H188.05Z" fill="#91B1FF"/>
<path d="M189.64 110.22L187.41 116.09H185.82L188.05 110.22H189.64Z" fill="#90B0FF"/>
<path d="M191.231 110.22L189.031 116.09H187.421L189.651 110.22H191.241H191.231Z" fill="#8FAFFF"/>
<path d="M192.84 110.22L190.611 116.09H189.021L191.221 110.22H192.83H192.84Z" fill="#8EAEFF"/>
<path d="M194.421 110.22L192.191 116.09H190.601L192.831 110.22H194.421Z" fill="#8DADFF"/>
<path d="M196.01 110.22L193.78 116.09H192.19L194.42 110.22H196.01Z" fill="#8CACFF"/>
<path d="M197.601 110.22L195.401 116.09H193.791L196.021 110.22H197.611H197.601Z" fill="#8BABFF"/>
<path d="M199.201 110.22L196.971 116.09H195.381L197.581 110.22H199.191H199.201Z" fill="#8AAAFF"/>
<path d="M200.791 110.22L198.561 116.09H196.971L199.201 110.22H200.791Z" fill="#89AAFF"/>
<path d="M202.381 110.22L200.151 116.09H198.561L200.791 110.22H202.381Z" fill="#87A9FF"/>
<path d="M203.97 110.22L201.77 116.09H200.16L202.39 110.22H203.98H203.97Z" fill="#86A8FF"/>
<path d="M205.571 110.22L203.341 116.09H201.751L203.961 110.22H205.571Z" fill="#85A7FF"/>
<path d="M207.161 110.22L204.931 116.09H203.341L205.571 110.22H207.161Z" fill="#84A6FF"/>
<path d="M208.751 110.22L206.521 116.09H204.931L207.161 110.22H208.751Z" fill="#83A5FF"/>
<path d="M210.34 110.22L208.14 116.09H206.53L208.76 110.22H210.35H210.34Z" fill="#82A4FF"/>
<path d="M211.94 110.22L209.71 116.09H208.12L210.33 110.22H211.94Z" fill="#81A3FF"/>
<path d="M213.531 110.22L211.301 116.09H209.711L211.941 110.22H213.531Z" fill="#80A2FF"/>
<path d="M215.121 110.22L212.891 116.09H211.301L213.531 110.22H215.121Z" fill="#7FA1FF"/>
<path d="M216.711 110.22L214.501 116.09H212.891L215.121 110.22H216.711Z" fill="#7EA0FF"/>
<path d="M218.31 110.22L216.08 116.09H214.49L216.7 110.22H218.31Z" fill="#7D9FFF"/>
<path d="M219.9 110.22L217.67 116.09H216.08L218.31 110.22H219.9Z" fill="#7C9EFF"/>
<path d="M221.491 110.22L219.261 116.09H217.671L219.901 110.22H221.491Z" fill="#7B9DFF"/>
<path d="M223.071 110.22L220.871 116.09H219.261L221.491 110.22H223.081H223.071Z" fill="#7A9CFF"/>
<path d="M224.68 110.22L222.45 116.09H220.86L223.06 110.22H224.67H224.68Z" fill="#799BFF"/>
<path d="M226.27 110.22L224.04 116.09H222.45L224.68 110.22H226.27Z" fill="#789BFF"/>
<path d="M227.861 110.22L225.631 116.09H224.041L226.271 110.22H227.861Z" fill="#779AFF"/>
<path d="M229.44 110.22L227.23 116.09H225.62L227.85 110.22H229.44Z" fill="#7699FF"/>
<path d="M231.05 110.22L228.82 116.09H227.23L229.44 110.22H231.05Z" fill="#7598FF"/>
<path d="M232.64 110.22L230.41 116.09H228.82L231.05 110.22H232.64Z" fill="#7497FF"/>
<path d="M234.23 110.22L232 116.09H230.41L232.64 110.22H234.23Z" fill="#7396FF"/>
<path d="M235.83 110.22L233.6 116.09H231.99L234.22 110.22H235.83Z" fill="#7295FF"/>
<path d="M237.421 110.22L235.191 116.09H233.601L235.831 110.22H237.421Z" fill="#7194FF"/>
<path d="M239.01 110.22L236.78 116.09H235.19L237.42 110.22H239.01Z" fill="#7093FF"/>
<path d="M236.78 116.09L239.01 110.22H340.55V116.09H236.78Z" fill="#7093FF"/>
<path d="M340.41 110.109H175.97C175.97 110.109 175.88 110.129 175.85 110.159C175.79 110.219 175.75 110.299 175.75 110.299V116.189H340.63V110.299C340.63 110.219 340.55 110.109 340.41 110.109ZM340.45 115.989H175.95V110.319H340.45V115.989Z" fill="#7091F5"/>
<path d="M179.6 113.27H179.95V113.6C179.95 113.6 179.91 113.64 179.89 113.64C179.87 113.66 179.83 113.68 179.79 113.68H179.62C179.54 113.68 179.5 113.66 179.44 113.64C179.37 113.62 179.33 113.58 179.29 113.54C179.27 113.51 179.24 113.48 179.23 113.44C179.22 113.42 179.21 113.39 179.21 113.37C179.19 113.31 179.19 113.14 179.19 113.14V113.02C179.19 112.94 179.21 112.86 179.21 112.79C179.23 112.73 179.25 112.67 179.29 112.63H179.3C179.3 112.63 179.37 112.55 179.42 112.53C179.46 112.48 179.52 112.48 179.58 112.48C179.66 112.48 179.72 112.5 179.77 112.53C179.81 112.55 179.85 112.59 179.87 112.63C179.91 112.67 179.93 112.77 179.93 112.77H180.2C180.2 112.67 180.16 112.59 180.12 112.5C180.08 112.42 179.99 112.36 179.91 112.32C179.83 112.28 179.72 112.26 179.58 112.26C179.49 112.26 179.39 112.28 179.32 112.31C179.31 112.31 179.3 112.31 179.3 112.32H179.29C179.21 112.34 179.15 112.4 179.09 112.46C179.02 112.53 178.98 112.61 178.94 112.71C178.9 112.81 178.9 112.92 178.9 113.04V113.14C178.9 113.21 178.9 113.28 178.9 113.34C178.9 113.34 178.91 113.43 178.93 113.47C178.97 113.58 179.01 113.66 179.08 113.72C179.11 113.75 179.15 113.78 179.19 113.81C179.23 113.83 179.26 113.85 179.3 113.87C179.38 113.91 179.49 113.91 179.59 113.91C179.71 113.91 179.82 113.89 179.9 113.87C179.96 113.84 180.04 113.82 180.09 113.78L180.19 113.68V113.06H179.59V113.27H179.6ZM181.54 113.41V113.29C181.54 113.2 181.52 113.12 181.5 113.06V113.04C181.48 112.98 181.44 112.92 181.4 112.86C181.36 112.8 181.3 112.76 181.25 112.74C181.25 112.74 181.244 112.736 181.23 112.73C181.17 112.69 181.09 112.69 181 112.69C180.94 112.69 180.88 112.7 180.83 112.71C180.81 112.71 180.8 112.71 180.78 112.73C180.76 112.73 180.74 112.74 180.72 112.76C180.66 112.77 180.62 112.81 180.59 112.86C180.53 112.9 180.49 112.96 180.47 113.04C180.43 113.1 180.43 113.29 180.43 113.29V113.33C180.43 113.33 180.44 113.42 180.45 113.47C180.45 113.47 180.46 113.53 180.47 113.56L180.59 113.74C180.63 113.8 180.69 113.84 180.78 113.87C180.86 113.91 181.02 113.91 181.02 113.91L181.04 113.95H181.05C181.14 113.95 181.19 113.93 181.25 113.91C181.31 113.89 181.37 113.87 181.41 113.82C181.46 113.8 181.52 113.72 181.52 113.72L181.37 113.58C181.37 113.58 181.29 113.66 181.25 113.68C181.21 113.72 181.16 113.72 181.1 113.72C181.03 113.72 180.99 113.7 180.95 113.7C180.91 113.68 180.87 113.66 180.85 113.62C180.83 113.58 180.79 113.54 180.79 113.49C180.78 113.47 180.78 113.44 180.78 113.41H181.55H181.54ZM180.76 113.23V113.14L180.82 113.02C180.82 113.02 180.86 112.94 180.9 112.94C180.94 112.92 180.98 112.92 181.02 112.92C181.09 112.92 181.13 112.94 181.17 112.96C181.18 112.96 181.2 112.98 181.21 112.99C181.23 113.01 181.25 113.03 181.25 113.06C181.27 113.1 181.27 113.23 181.27 113.23H180.76ZM182.65 113.41C182.61 113.35 182.55 113.31 182.49 113.29C182.41 113.25 182.34 113.21 182.24 113.21C182.21 113.2 182.18 113.17 182.15 113.17C182.14 113.16 182.13 113.16 182.12 113.16C182.07 113.14 182.03 113.12 182.03 113.12L181.99 113.08V113.02C181.99 113.02 182.01 112.96 182.01 112.94C182.01 112.92 182.05 112.88 182.07 112.88C182.12 112.86 182.16 112.86 182.2 112.86C182.22 112.86 182.24 112.86 182.26 112.87C182.28 112.88 182.3 112.88 182.32 112.88C182.36 112.9 182.41 112.92 182.41 112.94C182.42 112.96 182.42 113.02 182.42 113.02H182.69C182.69 112.96 182.67 112.9 182.63 112.83C182.59 112.77 182.55 112.73 182.47 112.69C182.42 112.67 182.38 112.66 182.34 112.66C182.3 112.66 182.25 112.66 182.2 112.66C182.12 112.66 182.05 112.68 181.99 112.68C181.93 112.7 181.89 112.72 181.85 112.76C181.81 112.8 181.77 112.84 181.74 112.89C181.7 112.93 181.7 112.99 181.7 113.03C181.7 113.07 181.73 113.11 181.74 113.15C181.75 113.17 181.76 113.18 181.77 113.2C181.77 113.2 181.8 113.25 181.83 113.26C181.87 113.3 181.91 113.34 181.97 113.34C182.01 113.35 182.05 113.36 182.08 113.37H182.1C182.1 113.37 182.14 113.38 182.16 113.38C182.22 113.38 182.28 113.42 182.32 113.42C182.36 113.44 182.41 113.46 182.41 113.48V113.57L182.45 113.63C182.45 113.63 182.42 113.69 182.42 113.71C182.41 113.73 182.38 113.77 182.34 113.77H182.1C182.1 113.77 182.01 113.73 181.99 113.71C181.98 113.7 181.97 113.69 181.97 113.67V113.65L181.95 113.59H181.68C181.68 113.65 181.7 113.71 181.74 113.77C181.77 113.82 181.81 113.86 181.88 113.9C181.89 113.91 181.9 113.91 181.91 113.92C181.99 113.98 182.1 113.98 182.2 113.98C182.28 113.98 182.34 113.96 182.41 113.96C182.47 113.94 182.53 113.92 182.57 113.88C182.61 113.83 182.65 113.79 182.67 113.75C182.69 113.73 182.7 113.71 182.7 113.68C182.71 113.66 182.71 113.64 182.71 113.61C182.71 113.52 182.69 113.46 182.65 113.42V113.41ZM182.8 112.67V112.86H183.48V112.67H182.8ZM183.35 113.68H183.29L183.25 113.64V112.38H182.98L182.96 112.34V113.51C182.96 113.6 182.98 113.68 183 113.72C183.02 113.76 183.06 113.8 183.11 113.82C183.15 113.87 183.21 113.87 183.27 113.87H183.46V113.68H183.35ZM183.7 112.67V113.87H183.97V112.67H183.7ZM183.97 112.26C183.97 112.26 183.91 112.22 183.85 112.22C183.79 112.22 183.75 112.24 183.72 112.26C183.68 112.28 183.68 112.36 183.68 112.36C183.68 112.4 183.7 112.44 183.72 112.46C183.76 112.5 183.79 112.5 183.85 112.5C183.91 112.5 183.95 112.48 183.97 112.46C184.01 112.44 184.01 112.4 184.01 112.36C184.01 112.32 183.99 112.28 183.97 112.26ZM185.36 113.13C185.36 113.13 185.34 113.06 185.33 113.02C185.31 112.96 185.27 112.9 185.23 112.83C185.17 112.79 185.11 112.73 185.04 112.71C184.96 112.67 184.9 112.67 184.8 112.67C184.69 112.67 184.61 112.67 184.55 112.71C184.47 112.73 184.4 112.77 184.36 112.83C184.32 112.88 184.28 112.94 184.26 113.02C184.22 113.1 184.22 113.19 184.22 113.29C184.22 113.39 184.24 113.45 184.26 113.54C184.28 113.6 184.32 113.66 184.36 113.72C184.43 113.76 184.49 113.8 184.55 113.84C184.63 113.89 184.69 113.89 184.8 113.89C184.9 113.89 184.98 113.87 185.04 113.84C185.06 113.84 185.08 113.83 185.1 113.82C185.16 113.8 185.2 113.77 185.23 113.72C185.27 113.68 185.31 113.62 185.33 113.54C185.37 113.45 185.37 113.37 185.37 113.27C185.37 113.22 185.36 113.17 185.36 113.13ZM185.04 113.31V113.45C185.04 113.45 185 113.54 184.98 113.58C184.96 113.62 184.94 113.64 184.9 113.66C184.88 113.7 184.84 113.7 184.77 113.7C184.71 113.7 184.67 113.68 184.63 113.66C184.61 113.64 184.57 113.62 184.55 113.58C184.51 113.54 184.49 113.49 184.49 113.45V113.27H184.51V113.12L184.57 113C184.57 113 184.61 112.94 184.65 112.92C184.67 112.88 184.73 112.88 184.77 112.88C184.82 112.88 184.86 112.9 184.9 112.92C184.92 112.94 184.96 112.96 184.98 113C185.02 113.04 185.04 113.08 185.04 113.12V113.31ZM184.86 112.18L184.63 112.5H184.86L185.17 112.18H184.86ZM185.83 112.94V112.69H185.58V113.89H185.85V112.94H185.83ZM186.59 112.92C186.57 112.86 186.55 112.81 186.51 112.77C186.46 112.73 186.42 112.69 186.38 112.69C186.32 112.67 186.28 112.67 186.22 112.67C186.14 112.67 186.07 112.69 186.01 112.71C185.97 112.75 185.91 112.79 185.87 112.83C185.86 112.85 185.84 112.88 185.83 112.9C185.8 112.94 185.78 112.98 185.77 113.02C185.72 113.08 185.72 113.25 185.72 113.25H185.83V113.1C185.83 113.1 185.84 113.06 185.85 113.05C185.86 113.02 185.88 113.01 185.89 112.98C185.93 112.94 185.95 112.9 185.99 112.9C186.03 112.88 186.05 112.88 186.12 112.88C186.18 112.88 186.2 112.9 186.24 112.9C186.28 112.92 186.32 112.94 186.32 112.98C186.34 113.02 186.34 113.12 186.34 113.12V113.91H186.61V113.12C186.61 113.04 186.59 112.98 186.59 112.92ZM188.2 112.18V113.64H188.22V113.89H188.47V112.18H188.2ZM188.3 113.04C188.26 112.98 188.24 112.92 188.2 112.86C188.16 112.79 188.11 112.75 188.05 112.73C188.01 112.69 187.95 112.69 187.87 112.69C187.79 112.69 187.72 112.71 187.66 112.73C187.6 112.75 187.56 112.79 187.52 112.86C187.48 112.9 187.43 112.96 187.41 113.04C187.37 113.1 187.37 113.19 187.37 113.31V113.35C187.37 113.43 187.39 113.51 187.41 113.6C187.43 113.66 187.48 113.72 187.52 113.78C187.56 113.82 187.6 113.89 187.66 113.91C187.72 113.95 187.81 113.95 187.87 113.95C187.93 113.95 187.99 113.93 188.05 113.91C188.11 113.87 188.16 113.84 188.2 113.78C188.21 113.77 188.21 113.76 188.22 113.75C188.25 113.7 188.28 113.65 188.3 113.6C188.32 113.54 188.34 113.37 188.34 113.37V113.29C188.34 113.19 188.32 113.1 188.3 113.04ZM188.18 113.41C188.18 113.41 188.16 113.51 188.14 113.56C188.09 113.6 188.07 113.64 188.03 113.66C187.99 113.7 187.95 113.7 187.89 113.7C187.85 113.7 187.81 113.68 187.76 113.68C187.72 113.66 187.7 113.64 187.68 113.6C187.66 113.56 187.64 113.51 187.64 113.47V113.14C187.64 113.14 187.66 113.06 187.68 113.02C187.7 112.98 187.72 112.96 187.76 112.94C187.81 112.9 187.85 112.9 187.89 112.9C187.93 112.9 187.97 112.92 188.01 112.92C188.03 112.94 188.07 112.96 188.09 112.98C188.11 113.02 188.16 113.04 188.16 113.08C188.18 113.12 188.18 113.21 188.18 113.21V113.41ZM189.78 113.31C189.78 113.21 189.76 113.12 189.74 113.06C189.72 113 189.68 112.94 189.64 112.88C189.6 112.81 189.54 112.77 189.48 112.75C189.41 112.71 189.33 112.71 189.25 112.71C189.17 112.71 189.08 112.73 189.02 112.75C188.94 112.77 188.88 112.81 188.84 112.88C188.77 112.92 188.73 112.98 188.71 113.06C188.67 113.12 188.67 113.31 188.67 113.31V113.35C188.67 113.43 188.69 113.51 188.71 113.58C188.75 113.64 188.8 113.7 188.84 113.76C188.88 113.82 188.94 113.87 189.02 113.89C189.1 113.93 189.27 113.93 189.27 113.93L189.29 113.97C189.37 113.97 189.43 113.95 189.5 113.93C189.56 113.91 189.62 113.89 189.66 113.84C189.7 113.82 189.76 113.74 189.76 113.74L189.62 113.6C189.62 113.6 189.54 113.68 189.5 113.7C189.45 113.74 189.39 113.74 189.33 113.74C189.27 113.74 189.23 113.72 189.19 113.72C189.15 113.7 189.1 113.68 189.08 113.64C189.06 113.6 189.02 113.56 189.02 113.51C189.01 113.49 189.01 113.46 189.01 113.43H189.78V113.31ZM189 113.25V113.16L189.06 113.04C189.06 113.04 189.1 112.96 189.15 112.96C189.19 112.94 189.23 112.94 189.27 112.94C189.33 112.94 189.37 112.96 189.41 112.98C189.45 113 189.5 113.04 189.5 113.08C189.52 113.12 189.52 113.25 189.52 113.25H189ZM191.54 113.37H191.59C191.59 113.37 191.59 113.34 191.59 113.33L191.53 113.37H191.54ZM191.54 113.37H191.59C191.59 113.37 191.59 113.34 191.59 113.33L191.53 113.37H191.54ZM191.54 113.37H191.59C191.59 113.37 191.59 113.34 191.59 113.33L191.53 113.37H191.54ZM191.78 112.5C191.74 112.4 191.66 112.34 191.58 112.3C191.5 112.26 191.37 112.24 191.25 112.24C191.14 112.24 191.04 112.26 190.96 112.3C190.88 112.32 190.82 112.38 190.75 112.44C190.69 112.53 190.65 112.59 190.61 112.69C190.57 112.77 190.57 112.88 190.57 113V113.14C190.57 113.25 190.59 113.35 190.61 113.45C190.63 113.56 190.67 113.64 190.73 113.7C190.79 113.76 190.86 113.8 190.94 113.84C191.02 113.91 191.1 113.91 191.21 113.91C191.29 113.91 191.38 113.91 191.45 113.87C191.48 113.87 191.51 113.86 191.54 113.84C191.62 113.8 191.7 113.74 191.74 113.66C191.78 113.58 191.83 113.47 191.83 113.37H191.59C191.57 113.43 191.56 113.48 191.54 113.51C191.5 113.56 191.45 113.6 191.41 113.62C191.37 113.66 191.31 113.66 191.23 113.66C191.17 113.66 191.1 113.64 191.06 113.62C191 113.6 190.96 113.56 190.94 113.51C190.92 113.47 190.88 113.41 190.88 113.35C190.86 113.29 190.86 113.12 190.86 113.12V112.98C190.86 112.9 190.88 112.81 190.88 112.75C190.9 112.69 190.92 112.63 190.96 112.59C191 112.55 191.04 112.53 191.08 112.48C191.12 112.44 191.19 112.44 191.25 112.44C191.33 112.44 191.39 112.46 191.43 112.48C191.47 112.53 191.52 112.57 191.54 112.61C191.56 112.67 191.58 112.79 191.58 112.79H191.87C191.87 112.68 191.83 112.59 191.78 112.5ZM191.54 113.37H191.59C191.59 113.37 191.59 113.34 191.59 113.33L191.53 113.37H191.54ZM191.54 113.37H191.59C191.59 113.37 191.59 113.34 191.59 113.33L191.53 113.37H191.54ZM191.54 113.37H191.59C191.59 113.37 191.59 113.34 191.59 113.33L191.53 113.37H191.54ZM193 113.76V113.08C193 113 192.98 112.92 192.94 112.86C192.9 112.79 192.84 112.73 192.77 112.71C192.69 112.67 192.61 112.67 192.53 112.67C192.44 112.67 192.38 112.69 192.32 112.69C192.26 112.71 192.2 112.73 192.15 112.77C192.11 112.81 192.07 112.86 192.05 112.9C192.01 112.94 192.01 113.04 192.01 113.04H192.28C192.28 113.04 192.3 112.98 192.3 112.96C192.32 112.94 192.34 112.9 192.38 112.9C192.42 112.88 192.46 112.88 192.51 112.88C192.57 112.88 192.59 112.9 192.63 112.9C192.67 112.92 192.71 112.94 192.71 112.98C192.73 113 192.73 113.08 192.73 113.08V113.78L192.75 113.87H193.04C193.04 113.87 193 113.8 193 113.76ZM192.77 113.45C192.77 113.45 192.75 113.51 192.73 113.56C192.71 113.6 192.67 113.62 192.63 113.64C192.59 113.68 192.55 113.68 192.48 113.68C192.44 113.68 192.4 113.66 192.38 113.66C192.36 113.64 192.32 113.62 192.32 113.6C192.3 113.58 192.3 113.54 192.3 113.51V113.43C192.3 113.43 192.34 113.37 192.36 113.37C192.4 113.35 192.42 113.33 192.46 113.33H192.77V113.16L192.81 113.14H192.61C192.51 113.14 192.42 113.16 192.36 113.16C192.28 113.19 192.22 113.21 192.18 113.25C192.13 113.29 192.09 113.33 192.07 113.37C192.03 113.41 192.03 113.47 192.03 113.54C192.03 113.6 192.05 113.66 192.09 113.72C192.13 113.76 192.18 113.8 192.24 113.84C192.3 113.89 192.36 113.89 192.44 113.89C192.51 113.89 192.57 113.87 192.61 113.87C192.65 113.84 192.69 113.82 192.73 113.78C192.77 113.74 192.79 113.72 192.81 113.68C192.84 113.64 192.86 113.58 192.86 113.58L192.77 113.45ZM193.54 112.94V112.69H193.29V113.89H193.56V112.94H193.54ZM194.28 112.9C194.28 112.9 194.27 112.88 194.26 112.87C194.25 112.84 194.23 112.8 194.2 112.77C194.15 112.73 194.11 112.69 194.07 112.69C194.03 112.67 193.99 112.67 193.93 112.67C193.85 112.67 193.78 112.69 193.72 112.71C193.66 112.73 193.62 112.77 193.58 112.83C193.57 112.86 193.56 112.9 193.54 112.93C193.54 112.93 193.5 112.99 193.49 113.02C193.45 113.08 193.45 113.25 193.45 113.25H193.56V113.1C193.56 113.04 193.58 113.02 193.6 112.98C193.62 112.94 193.64 112.9 193.68 112.9C193.7 112.88 193.76 112.88 193.8 112.88C193.87 112.88 193.89 112.9 193.93 112.9C193.97 112.9 194.01 112.92 194.01 112.96C194.03 113 194.03 113.1 194.03 113.1V113.89H194.3V113.08C194.3 113.02 194.28 112.96 194.28 112.9ZM195 112.92C195 112.92 195 112.91 194.99 112.9C194.97 112.85 194.96 112.8 194.92 112.77C194.88 112.73 194.83 112.69 194.79 112.69C194.75 112.67 194.69 112.67 194.63 112.67C194.55 112.67 194.48 112.69 194.42 112.71C194.36 112.75 194.32 112.79 194.28 112.83C194.28 112.84 194.27 112.86 194.26 112.87C194.24 112.91 194.22 112.96 194.2 113C194.17 113.06 194.17 113.19 194.17 113.19H194.3V113.08C194.3 113.08 194.32 113.02 194.34 113C194.36 112.98 194.38 112.94 194.42 112.94C194.44 112.92 194.48 112.92 194.53 112.92H194.65C194.65 112.92 194.73 112.94 194.73 112.98C194.75 113.02 194.75 113.12 194.75 113.12V113.91H195.02V113.12C195.02 113.04 195 112.98 195 112.92ZM196.28 113.76V113.08C196.28 113 196.26 112.92 196.22 112.86C196.17 112.79 196.11 112.73 196.05 112.71C195.97 112.67 195.89 112.67 195.8 112.67C195.72 112.67 195.66 112.69 195.6 112.69C195.54 112.71 195.47 112.73 195.43 112.77C195.39 112.81 195.35 112.86 195.33 112.9C195.29 112.94 195.29 113.04 195.29 113.04H195.56C195.56 113.04 195.58 112.98 195.58 112.96C195.6 112.94 195.62 112.92 195.66 112.9C195.7 112.88 195.74 112.88 195.78 112.88C195.84 112.88 195.87 112.9 195.91 112.9C195.95 112.92 195.99 112.94 195.99 112.98C196.01 113 196.01 113.08 196.01 113.08V113.78L196.03 113.87H196.32C196.32 113.87 196.28 113.8 196.28 113.76ZM196.05 113.45C196.05 113.45 196.03 113.51 196.01 113.56C195.99 113.6 195.95 113.62 195.91 113.64C195.87 113.68 195.82 113.68 195.76 113.68C195.72 113.68 195.68 113.66 195.66 113.66C195.64 113.64 195.6 113.62 195.6 113.6C195.58 113.58 195.58 113.54 195.58 113.51V113.43C195.58 113.43 195.62 113.37 195.64 113.37C195.68 113.35 195.7 113.33 195.74 113.33H196.05V113.16L196.09 113.14H195.89C195.78 113.14 195.7 113.16 195.64 113.16C195.56 113.19 195.49 113.21 195.45 113.25C195.41 113.29 195.37 113.33 195.35 113.37C195.31 113.41 195.31 113.47 195.31 113.54C195.31 113.6 195.33 113.66 195.37 113.72C195.41 113.76 195.45 113.8 195.51 113.84C195.58 113.89 195.64 113.89 195.72 113.89C195.78 113.89 195.84 113.87 195.89 113.87C195.93 113.84 195.97 113.82 196.01 113.78C196.05 113.74 196.07 113.72 196.09 113.68C196.11 113.64 196.13 113.58 196.13 113.58L196.05 113.45ZM197.49 113.43C197.45 113.37 197.39 113.33 197.33 113.31C197.25 113.27 197.18 113.23 197.08 113.23C197.04 113.21 197 113.19 196.96 113.19C196.92 113.16 196.88 113.14 196.88 113.14C196.85 113.12 196.83 113.1 196.83 113.1V113.04C196.83 113.04 196.85 112.98 196.85 112.96C196.85 112.94 196.9 112.9 196.92 112.9C196.96 112.88 197 112.88 197.04 112.88C197.08 112.88 197.12 112.9 197.16 112.9C197.21 112.92 197.25 112.94 197.25 112.96C197.27 112.98 197.27 113.04 197.27 113.04H197.53C197.53 112.98 197.51 112.92 197.47 112.86C197.43 112.79 197.39 112.75 197.31 112.71C197.23 112.67 197.14 112.67 197.04 112.67C196.96 112.67 196.9 112.69 196.83 112.69C196.77 112.71 196.73 112.73 196.69 112.77C196.65 112.81 196.61 112.86 196.59 112.9C196.56 112.93 196.56 112.96 196.56 112.99C196.55 113.01 196.55 113.03 196.55 113.04C196.55 113.08 196.57 113.12 196.59 113.16C196.61 113.21 196.63 113.25 196.67 113.27C196.71 113.31 196.75 113.35 196.81 113.35C196.88 113.37 196.94 113.39 197 113.39C197.06 113.39 197.12 113.43 197.16 113.43C197.21 113.45 197.25 113.47 197.25 113.49V113.58L197.29 113.64C197.29 113.64 197.27 113.7 197.27 113.72C197.25 113.74 197.23 113.78 197.18 113.78H196.94C196.94 113.78 196.85 113.74 196.83 113.72C196.79 113.68 196.79 113.6 196.79 113.6H196.52C196.52 113.66 196.55 113.72 196.59 113.78C196.61 113.84 196.67 113.89 196.75 113.93C196.83 113.99 196.94 113.99 197.04 113.99C197.12 113.99 197.18 113.97 197.25 113.97C197.31 113.95 197.37 113.93 197.41 113.89C197.45 113.84 197.49 113.8 197.51 113.76C197.56 113.72 197.56 113.68 197.56 113.62C197.56 113.54 197.53 113.47 197.49 113.43Z" fill="white"/>
<path d="M283.99 113.62L284.49 113.13C284.49 113.13 284.53 113.05 284.49 113.01L284.41 112.93C284.41 112.93 284.33 112.89 284.29 112.93L283.94 113.28L283.59 112.93C283.59 112.93 283.51 112.89 283.47 112.93L283.39 113.01C283.39 113.01 283.35 113.09 283.39 113.13L283.88 113.62C283.88 113.62 283.96 113.66 284 113.62H283.99Z" fill="black"/>
<path d="M283 112.359H284.84V114.189H283V112.359Z" fill="white"/>
<path d="M310.74 113.62L311.23 113.13C311.23 113.13 311.27 113.05 311.23 113.01L311.15 112.93C311.15 112.93 311.07 112.89 311.03 112.93L310.68 113.28L310.33 112.93C310.33 112.93 310.25 112.89 310.21 112.93L310.13 113.01C310.13 113.01 310.09 113.09 310.13 113.13L310.63 113.62C310.63 113.62 310.71 113.66 310.75 113.62H310.74Z" fill="black"/>
<path d="M309.771 112.359H311.611V114.189H309.771V112.359Z" fill="white"/>
<path d="M187.79 138.289H200.3V144.189H187.79V138.289Z" fill="#4D648D"/>
<path d="M187.74 138.25V144.25H200.36V138.25H187.74ZM200.26 144.15H187.85V138.35H200.26V144.15Z" fill="#B8CDEB"/>
<path d="M187.78 169.75H200.29V175.65H187.78V169.75Z" fill="#6BBF59"/>
<path d="M187.74 169.71V175.7H200.36V169.71H187.74ZM200.26 175.6H187.85V169.81H200.26V175.6Z" fill="#B8CDEB"/>
<path d="M230.7 138.289H243.21V144.189H230.7V138.289Z" fill="#4D648D"/>
<path d="M230.66 138.25V144.25H243.28V138.25H230.66ZM243.17 144.15H230.76V138.35H243.17V144.15Z" fill="#B8CDEB"/>
<path d="M230.7 169.75H243.21V175.65H230.7V169.75Z" fill="#4D648D"/>
<path d="M230.66 169.71V175.7H243.28V169.71H230.66ZM243.17 175.6H230.76V169.81H243.17V175.6Z" fill="#B8CDEB"/>
<path d="M259.311 138.289H271.821V144.189H259.311V138.289Z" fill="#4D648D"/>
<path d="M259.25 138.25V144.25H271.87V138.25H259.25ZM271.76 144.15H259.35V138.35H271.76V144.15Z" fill="#B8CDEB"/>
<path d="M259.311 169.75H271.821V175.65H259.311V169.75Z" fill="#4D648D"/>
<path d="M259.25 169.71V175.7H271.87V169.71H259.25ZM271.76 175.6H259.35V169.81H271.76V175.6Z" fill="#B8CDEB"/>
<path d="M316.521 169.77H329.031V175.67H316.521V169.77Z" fill="#4D648D"/>
<path d="M316.471 169.729V175.729H329.091V169.729H316.471ZM328.991 175.619H316.581V169.829H328.991V175.619Z" fill="#B8CDEB"/>
<path d="M202.09 145.96H214.6V151.86H202.09V145.96Z" fill="#4D648D"/>
<path d="M202.05 145.899V151.899H214.66V145.899H202.05ZM214.56 151.789H202.15V145.999H214.56V151.789Z" fill="#B8CDEB"/>
<path d="M202.09 177.439H214.6V183.339H202.09V177.439Z" fill="#4D648D"/>
<path d="M202.05 177.369V183.369H214.66V177.369H202.05ZM214.56 183.269H202.15V177.479H214.56V183.269Z" fill="#B8CDEB"/>
<path d="M302.21 169.56H314.72V175.46H302.21V169.56Z" fill="#6BBF59"/>
<path d="M302.17 169.52V175.52H314.78V169.52H302.17ZM314.68 175.41H302.27V169.62H314.68V175.41Z" fill="#B8CDEB"/>
<path d="M326.14 111.51H322.99V114.62H326.14V111.51Z" fill="#4D648D"/>
<path d="M321.501 111.51H318.351V114.62H321.501V111.51Z" fill="#B1C5FF"/>
<path d="M202.09 138.289H214.6V144.189H202.09V138.289Z" fill="#6BBF59"/>
<path d="M202.05 138.25V144.25H214.66V138.25H202.05ZM214.56 144.15H202.15V138.35H214.56V144.15Z" fill="#6BBF59"/>
<path d="M202.09 169.75H214.6V175.65H202.09V169.75Z" fill="#4F6693"/>
<path d="M202.05 169.71V175.7H214.66V169.71H202.05ZM214.56 175.6H202.15V169.81H214.56V175.6Z" fill="#6BBF59"/>
<path d="M245.01 138.289H257.52V144.189H245.01V138.289Z" fill="#6BBF59"/>
<path d="M244.95 138.25V144.25H257.56V138.25H244.95ZM257.46 144.15H245.05V138.35H257.46V144.15Z" fill="#6BBF59"/>
<path d="M245.01 169.75H257.52V175.65H245.01V169.75Z" fill="#4D648D"/>
<path d="M244.95 169.71V175.7H257.56V169.71H244.95ZM257.46 175.6H245.05V169.81H257.46V175.6Z" fill="#6BBF59"/>
<path d="M273.601 138.289H286.111V144.189H273.601V138.289Z" fill="#6BBF59"/>
<path d="M273.561 138.25V144.25H286.171V138.25H273.561ZM286.071 144.15H273.661V138.35H286.071V144.15Z" fill="#6BBF59"/>
<path d="M273.601 169.75H286.111V175.65H273.601V169.75Z" fill="#6BBF59"/>
<path d="M273.561 169.71V175.7H286.171V169.71H273.561ZM286.071 175.6H273.661V169.81H286.071V175.6Z" fill="#6BBF59"/>
<path d="M287.9 138.289H300.41V144.189H287.9V138.289Z" fill="#4D648D"/>
<path d="M287.86 138.25V144.25H300.48V138.25H287.86ZM300.38 144.15H287.97V138.35H300.38V144.15Z" fill="#6BBF59"/>
<path d="M287.9 169.75H300.41V175.65H287.9V169.75Z" fill="#6BBF59"/>
<path d="M287.86 169.71V175.7H300.48V169.71H287.86ZM300.38 175.6H287.97V169.81H300.38V175.6Z" fill="#6BBF59"/>
<path d="M216.4 138.289H228.91V144.189H216.4V138.289Z" fill="#6BBF59"/>
<path d="M216.351 138.25V144.25H228.971V138.25H216.351ZM228.871 144.15H216.461V138.35H228.871V144.15Z" fill="#6BBF59"/>
<path d="M216.4 169.75H228.91V175.65H216.4V169.75Z" fill="#6BBF59"/>
<path d="M216.351 169.71V175.7H228.971V169.71H216.351ZM228.871 175.6H216.461V169.81H228.871V175.6Z" fill="#6BBF59"/>
<path d="M187.78 145.96H200.29V151.86H187.78V145.96Z" fill="#4D648D"/>
<path d="M187.74 145.899V151.899H200.36V145.899H187.74ZM200.26 151.789H187.85V145.999H200.26V151.789Z" fill="#6BBF59"/>
<path d="M187.79 177.409H200.3V183.309H187.79V177.409Z" fill="#6BBF59"/>
<path d="M187.74 177.369V183.369H200.36V177.369H187.74ZM200.26 183.269H187.85V177.479H200.26V183.269Z" fill="#6BBF59"/>
<path d="M216.4 145.96H228.91V151.86H216.4V145.96Z" fill="#4D648D"/>
<path d="M216.351 145.899V151.899H228.971V145.899H216.351ZM228.871 151.789H216.461V145.999H228.871V151.789Z" fill="#6BBF59"/>
<path d="M302.21 138.31H314.72V144.21H302.21V138.31Z" fill="#4D648D"/>
<path d="M302.17 138.27V144.27H314.78V138.27H302.17ZM314.68 144.17H302.27V138.37H314.68V144.17Z" fill="#6BBF59"/>
<path d="M230.7 145.96H243.21V151.86H230.7V145.96Z" fill="#6BBF59"/>
<path d="M230.66 145.899V151.899H243.28V145.899H230.66ZM243.17 151.789H230.76V145.999H243.17V151.789Z" fill="#6BBF59"/>
<path d="M316.521 138.31H329.031V144.21H316.521V138.31Z" fill="#6BBF59"/>
<path d="M316.471 138.27V144.27H329.091V138.27H316.471ZM328.991 144.17H316.581V138.37H328.991V144.17Z" fill="#6BBF59"/>
<path d="M278.81 119.939H292.27C292.43 119.939 292.58 120.079 292.58 120.249V123.549C292.58 123.719 292.44 123.859 292.27 123.859H278.81C278.65 123.859 278.5 123.719 278.5 123.549V120.249C278.5 120.089 278.64 119.939 278.81 119.939Z" fill="#EEF2F8"/>
<path d="M292.66 120.09L292.6 120C292.52 119.9 292.4 119.84 292.27 119.84H278.81C278.59 119.84 278.4 120.03 278.4 120.25V123.57C278.4 123.8 278.59 123.98 278.81 123.98H292.27C292.41 123.98 292.53 123.92 292.6 123.82C292.63 123.79 292.65 123.76 292.66 123.72C292.66 123.72 292.69 123.63 292.69 123.58V120.26C292.69 120.26 292.68 120.15 292.66 120.1V120.09ZM278.61 123.57V120.25C278.61 120.15 278.69 120.05 278.81 120.05H292.27C292.38 120.05 292.48 120.13 292.48 120.25V123.57C292.48 123.68 292.4 123.78 292.27 123.78H278.81C278.71 123.78 278.61 123.7 278.61 123.57Z" fill="#C1D3ED"/>
<path d="M292.911 119.939H306.171C306.331 119.939 306.481 120.079 306.481 120.249V123.549C306.481 123.719 306.341 123.859 306.171 123.859H292.911C292.751 123.859 292.601 123.719 292.601 123.549V120.249C292.601 120.089 292.741 119.939 292.911 119.939Z" fill="#EEF2F8"/>
<path d="M306.55 120.09C306.55 120.09 306.5 120.01 306.48 119.98C306.4 119.9 306.29 119.84 306.17 119.84H292.91C292.78 119.84 292.67 119.9 292.6 120C292.57 120.03 292.55 120.06 292.53 120.09C292.51 120.14 292.5 120.2 292.5 120.25V123.57C292.5 123.57 292.51 123.67 292.53 123.71C292.53 123.71 292.56 123.79 292.6 123.82C292.66 123.92 292.78 123.98 292.91 123.98H306.17C306.29 123.98 306.4 123.93 306.48 123.84C306.5 123.82 306.52 123.79 306.54 123.75C306.56 123.7 306.58 123.64 306.58 123.57V120.25C306.58 120.25 306.57 120.14 306.55 120.09ZM306.17 123.78H292.91C292.81 123.78 292.71 123.7 292.71 123.57V120.25C292.71 120.15 292.79 120.05 292.91 120.05H306.17C306.27 120.05 306.37 120.13 306.37 120.25V123.57C306.37 123.68 306.29 123.78 306.17 123.78Z" fill="#C1D3ED"/>
<path d="M306.79 119.939H320.04C320.21 119.939 320.35 120.079 320.35 120.249V123.569C320.35 123.729 320.21 123.879 320.04 123.879H306.79C306.62 123.879 306.48 123.739 306.48 123.569V120.269C306.48 120.109 306.62 119.959 306.79 119.959V119.939Z" fill="#4D648D"/>
<path d="M320.42 120.09C320.42 120.09 320.38 120.02 320.35 119.99C320.28 119.9 320.17 119.84 320.04 119.84H306.79C306.67 119.84 306.55 119.9 306.48 119.98C306.45 120.01 306.43 120.04 306.41 120.08C306.38 120.13 306.37 120.19 306.37 120.25V123.57C306.37 123.63 306.38 123.68 306.4 123.73C306.43 123.78 306.45 123.81 306.48 123.84C306.55 123.93 306.67 123.98 306.79 123.98H320.04C320.17 123.98 320.28 123.92 320.35 123.83C320.38 123.8 320.41 123.76 320.42 123.72C320.42 123.72 320.45 123.62 320.45 123.57V120.25C320.45 120.25 320.44 120.14 320.42 120.09ZM320.25 123.57C320.25 123.68 320.16 123.78 320.04 123.78H306.79C306.68 123.78 306.58 123.7 306.58 123.57V120.25C306.58 120.15 306.66 120.05 306.79 120.05H320.04C320.14 120.05 320.25 120.13 320.25 120.25V123.57Z" fill="#C1D3ED"/>
<path d="M320.68 119.939H333.94C334.1 119.939 334.25 120.079 334.25 120.249V123.549C334.25 123.719 334.11 123.859 333.94 123.859H320.68C320.52 123.859 320.37 123.719 320.37 123.549V120.249C320.37 120.089 320.51 119.939 320.68 119.939Z" fill="#EEF2F8"/>
<path d="M333.91 119.84H320.66C320.53 119.84 320.42 119.9 320.35 119.99C320.32 120.02 320.3 120.05 320.29 120.08C320.26 120.13 320.25 120.19 320.25 120.25V123.57C320.25 123.64 320.26 123.7 320.29 123.75C320.31 123.78 320.32 123.81 320.35 123.83C320.42 123.92 320.53 123.98 320.66 123.98H333.91C334.14 123.98 334.32 123.8 334.32 123.57V120.25C334.32 120.03 334.14 119.84 333.91 119.84ZM334.12 123.57C334.12 123.68 334.04 123.78 333.91 123.78H320.66C320.56 123.78 320.45 123.7 320.45 123.57V120.25C320.45 120.15 320.54 120.05 320.66 120.05H333.91C334.02 120.05 334.12 120.13 334.12 120.25V123.57Z" fill="#C1D3ED"/>
<path d="M328.04 111.409H338.35C338.51 111.409 338.66 111.549 338.66 111.719V114.399C338.66 114.559 338.52 114.709 338.35 114.709H328.04C327.88 114.709 327.73 114.569 327.73 114.399V111.719C327.73 111.549 327.87 111.409 328.04 111.409Z" fill="#EEF2F8"/>
<path d="M338.35 111.289H328.04C327.81 111.289 327.63 111.469 327.63 111.699V114.399C327.63 114.629 327.81 114.809 328.04 114.809H338.35C338.57 114.809 338.76 114.629 338.76 114.399V111.699C338.76 111.469 338.57 111.289 338.35 111.289ZM338.55 114.399C338.55 114.499 338.47 114.609 338.35 114.609H328.04C327.94 114.609 327.83 114.519 327.83 114.399V111.699C327.83 111.599 327.91 111.489 328.04 111.489H338.35C338.45 111.489 338.55 111.579 338.55 111.699V114.399Z" fill="#C1D3ED"/>
<path d="M285.29 111.14H261.58C261.35 111.14 261.17 111.33 261.17 111.56V114.83C261.17 115.06 261.35 115.25 261.58 115.25H285.29C285.51 115.25 285.7 115.06 285.7 114.83V111.56C285.7 111.33 285.51 111.14 285.29 111.14ZM285.49 114.83C285.49 114.94 285.41 115.04 285.29 115.04H261.58C261.48 115.04 261.37 114.96 261.37 114.83V111.56C261.37 111.45 261.46 111.35 261.58 111.35H285.29C285.39 111.35 285.49 111.43 285.49 111.56V114.83Z" fill="white"/>
<path d="M312.04 111.14H288.34C288.11 111.14 287.92 111.33 287.92 111.56V114.83C287.92 115.06 288.11 115.25 288.34 115.25H312.04C312.27 115.25 312.46 115.06 312.46 114.83V111.56C312.46 111.33 312.27 111.14 312.04 111.14ZM312.25 114.83C312.25 114.94 312.17 115.04 312.04 115.04H288.34C288.23 115.04 288.13 114.96 288.13 114.83V111.56C288.13 111.45 288.21 111.35 288.34 111.35H312.04C312.14 111.35 312.25 111.43 312.25 111.56V114.83Z" fill="white"/>
<path d="M263.72 112.09H278.67C279.29 112.09 279.78 112.58 279.78 113.18C279.78 113.78 279.28 114.27 278.67 114.27H263.72C263.1 114.27 262.61 113.78 262.61 113.18C262.61 112.58 263.11 112.09 263.72 112.09Z" fill="#B1C5FF"/>
<path d="M289.95 112.09H304.26C304.88 112.09 305.37 112.58 305.37 113.18C305.37 113.78 304.87 114.27 304.26 114.27H289.95C289.33 114.27 288.84 113.78 288.84 113.18C288.84 112.58 289.34 112.09 289.95 112.09Z" fill="#B1C5FF"/>
<path d="M185.97 164.39C185.97 164.39 185.87 164.33 185.81 164.28C185.72 164.26 185.64 164.22 185.56 164.2C185.5 164.18 185.44 164.14 185.39 164.14C185.35 164.12 185.31 164.1 185.29 164.08C185.27 164.06 185.23 164.04 185.23 164.02C185.21 164 185.21 163.95 185.21 163.93C185.21 163.89 185.23 163.85 185.25 163.81C185.27 163.77 185.31 163.73 185.35 163.73C185.39 163.71 185.45 163.71 185.52 163.71C185.58 163.71 185.64 163.73 185.68 163.75C185.72 163.77 185.77 163.81 185.79 163.85C185.83 163.89 185.83 164 185.83 164H186.12C186.12 163.91 186.07 163.83 186.03 163.75C185.99 163.67 185.91 163.6 185.83 163.56C185.74 163.52 185.64 163.5 185.52 163.5C185.41 163.5 185.33 163.52 185.27 163.54C185.21 163.56 185.15 163.58 185.08 163.62C185.02 163.67 184.98 163.71 184.96 163.77C184.92 163.83 184.92 163.87 184.92 163.95C184.92 164.04 184.94 164.1 184.96 164.14C185 164.2 185.04 164.24 185.08 164.28C185.13 164.33 185.19 164.37 185.25 164.39C185.33 164.43 185.39 164.45 185.48 164.47C185.56 164.49 185.62 164.51 185.66 164.53C185.7 164.55 185.74 164.57 185.77 164.59C185.81 164.61 185.83 164.63 185.83 164.66V164.73C185.83 164.73 185.82 164.75 185.81 164.76C185.79 164.8 185.74 164.84 185.7 164.84C185.66 164.86 185.6 164.86 185.54 164.86H185.39C185.33 164.86 185.31 164.84 185.27 164.82C185.23 164.8 185.19 164.78 185.19 164.74C185.17 164.7 185.17 164.59 185.17 164.59H184.88C184.88 164.68 184.9 164.76 184.94 164.82C184.98 164.88 185.02 164.94 185.08 164.99C185.15 165.03 185.21 165.07 185.29 165.09C185.35 165.13 185.44 165.13 185.52 165.13C185.62 165.13 185.7 165.11 185.77 165.11C185.85 165.09 185.91 165.07 185.95 165.03C186.01 164.99 186.05 164.94 186.07 164.88C186.12 164.82 186.12 164.76 186.12 164.7C186.12 164.63 186.09 164.57 186.07 164.53C186.05 164.47 186.01 164.43 185.97 164.39ZM187.29 165.03V164.35C187.29 164.26 187.27 164.18 187.23 164.12C187.19 164.06 187.13 164 187.06 163.98C186.98 163.93 186.9 163.93 186.82 163.93C186.73 163.93 186.67 163.95 186.61 163.95C186.55 163.98 186.49 164 186.45 164.04C186.4 164.08 186.36 164.12 186.34 164.16C186.3 164.2 186.3 164.31 186.3 164.31H186.57C186.57 164.31 186.59 164.24 186.59 164.22C186.61 164.2 186.63 164.16 186.67 164.16C186.71 164.14 186.75 164.14 186.8 164.14C186.86 164.14 186.88 164.16 186.92 164.16C186.96 164.18 187 164.2 187 164.24C187.02 164.26 187.02 164.35 187.02 164.35V165.05L187.04 165.13H187.33C187.33 165.13 187.29 165.07 187.29 165.03ZM187.06 164.72C187.06 164.72 187.04 164.78 187.02 164.82C187 164.86 186.96 164.88 186.92 164.9C186.88 164.94 186.84 164.94 186.78 164.94C186.73 164.94 186.69 164.92 186.67 164.92C186.65 164.9 186.61 164.88 186.61 164.86C186.59 164.84 186.59 164.8 186.59 164.78V164.7C186.59 164.7 186.63 164.63 186.65 164.63C186.69 164.61 186.71 164.59 186.75 164.59H187.06V164.43L187.1 164.41H186.9C186.8 164.41 186.71 164.43 186.65 164.43C186.57 164.45 186.51 164.47 186.46 164.51C186.42 164.55 186.38 164.59 186.36 164.63C186.32 164.68 186.32 164.74 186.32 164.8C186.32 164.86 186.34 164.92 186.38 164.99C186.42 165.03 186.46 165.07 186.53 165.11C186.59 165.15 186.65 165.15 186.73 165.15C186.8 165.15 186.86 165.13 186.9 165.13C186.94 165.11 186.98 165.09 187.02 165.05C187.06 165.01 187.08 164.99 187.1 164.94C187.13 164.9 187.15 164.84 187.15 164.84L187.06 164.72ZM187.6 163.46V165.17H187.87V163.46H187.6ZM189.12 165.03V164.35C189.12 164.26 189.1 164.18 189.06 164.12C189.02 164.06 188.96 164 188.9 163.98C188.82 163.93 188.73 163.93 188.65 163.93C188.57 163.93 188.51 163.95 188.44 163.95C188.38 163.98 188.32 164 188.28 164.04C188.24 164.08 188.2 164.12 188.18 164.16C188.14 164.2 188.14 164.31 188.14 164.31H188.4C188.4 164.31 188.42 164.24 188.42 164.22C188.44 164.2 188.47 164.16 188.51 164.16C188.55 164.14 188.59 164.14 188.63 164.14C188.69 164.14 188.71 164.16 188.75 164.16C188.8 164.18 188.84 164.2 188.84 164.24C188.86 164.26 188.86 164.35 188.86 164.35V165.05L188.88 165.13H189.17C189.17 165.13 189.12 165.07 189.12 165.03ZM188.9 164.72C188.9 164.72 188.88 164.78 188.86 164.82C188.84 164.86 188.8 164.88 188.75 164.9C188.71 164.94 188.67 164.94 188.61 164.94C188.57 164.94 188.53 164.92 188.51 164.92C188.49 164.9 188.44 164.88 188.44 164.86C188.42 164.84 188.42 164.8 188.42 164.78V164.7C188.42 164.7 188.47 164.63 188.49 164.63C188.53 164.61 188.55 164.59 188.59 164.59H188.9V164.43L188.94 164.41H188.73C188.63 164.41 188.55 164.43 188.49 164.43C188.4 164.45 188.34 164.47 188.3 164.51C188.26 164.55 188.22 164.59 188.2 164.63C188.16 164.68 188.16 164.74 188.16 164.8C188.16 164.86 188.18 164.92 188.22 164.99C188.26 165.03 188.3 165.07 188.36 165.11C188.42 165.15 188.49 165.15 188.57 165.15C188.63 165.15 188.69 165.13 188.73 165.13C188.77 165.11 188.82 165.09 188.86 165.05C188.9 165.01 188.92 164.99 188.94 164.94C188.96 164.9 188.98 164.84 188.98 164.84L188.9 164.72ZM190.34 164.92L190.69 164.53C190.75 164.49 190.79 164.43 190.84 164.39C190.88 164.35 190.92 164.28 190.94 164.24C190.96 164.2 191 164.14 191 164.1C191.02 164.06 191.02 164 191.02 163.95C191.02 163.87 191 163.79 190.96 163.73C190.94 163.67 190.88 163.62 190.79 163.58C190.71 163.52 190.61 163.52 190.51 163.52C190.38 163.52 190.28 163.54 190.2 163.58C190.11 163.62 190.05 163.69 190.01 163.77C189.97 163.85 189.95 164.04 189.95 164.04H190.22C190.22 163.98 190.24 163.91 190.26 163.87C190.28 163.83 190.32 163.79 190.36 163.77C190.4 163.73 190.44 163.73 190.51 163.73C190.57 163.73 190.61 163.75 190.65 163.77C190.69 163.79 190.73 163.81 190.73 163.85C190.75 163.89 190.75 163.95 190.75 164C190.75 164.02 190.73 164.06 190.73 164.1C190.73 164.14 190.71 164.18 190.67 164.22C190.63 164.26 190.53 164.39 190.53 164.39L189.99 164.96V165.15H191.08V164.94L191.1 164.92H190.34Z" fill="#4D648D"/>
<path d="M185.97 133.549C185.97 133.549 185.87 133.489 185.81 133.449C185.72 133.429 185.64 133.389 185.56 133.359C185.5 133.339 185.44 133.299 185.39 133.299C185.35 133.279 185.31 133.259 185.29 133.239C185.27 133.219 185.23 133.199 185.23 133.179C185.21 133.159 185.21 133.119 185.21 133.099C185.21 133.059 185.23 133.009 185.25 132.969C185.27 132.929 185.31 132.889 185.35 132.889C185.39 132.869 185.45 132.869 185.52 132.869C185.58 132.869 185.64 132.889 185.68 132.909C185.72 132.929 185.77 132.969 185.79 133.009C185.83 133.059 185.83 133.159 185.83 133.159H186.12C186.12 133.079 186.07 132.989 186.03 132.909C185.99 132.829 185.91 132.769 185.83 132.729C185.74 132.679 185.64 132.659 185.52 132.659C185.41 132.659 185.33 132.679 185.27 132.709C185.21 132.729 185.15 132.749 185.08 132.789C185.02 132.829 184.98 132.869 184.96 132.929C184.92 132.989 184.92 133.029 184.92 133.119C184.92 133.199 184.94 133.259 184.96 133.299C185 133.359 185.04 133.409 185.08 133.449C185.13 133.489 185.19 133.529 185.25 133.549C185.33 133.589 185.39 133.609 185.48 133.629C185.56 133.649 185.62 133.669 185.66 133.689C185.7 133.719 185.74 133.739 185.77 133.759C185.81 133.779 185.83 133.799 185.83 133.819V133.889C185.83 133.889 185.82 133.909 185.81 133.919C185.79 133.959 185.74 133.999 185.7 133.999C185.66 134.019 185.6 134.019 185.54 134.019H185.39C185.33 134.019 185.31 133.999 185.27 133.979C185.23 133.959 185.19 133.939 185.19 133.899C185.17 133.859 185.17 133.759 185.17 133.759H184.88C184.88 133.839 184.9 133.919 184.94 133.979C184.98 134.049 185.02 134.109 185.08 134.149C185.15 134.189 185.21 134.229 185.29 134.249C185.35 134.289 185.44 134.289 185.52 134.289C185.62 134.289 185.7 134.269 185.77 134.269C185.85 134.249 185.91 134.229 185.95 134.189C186.01 134.149 186.05 134.109 186.07 134.049C186.12 133.979 186.12 133.919 186.12 133.859C186.12 133.799 186.09 133.739 186.07 133.689C186.05 133.629 186.01 133.589 185.97 133.549ZM187.29 134.189V133.509C187.29 133.429 187.27 133.339 187.23 133.279C187.19 133.219 187.13 133.159 187.06 133.139C186.98 133.099 186.9 133.099 186.82 133.099C186.73 133.099 186.67 133.119 186.61 133.119C186.55 133.139 186.49 133.159 186.45 133.199C186.4 133.239 186.36 133.279 186.34 133.319C186.3 133.359 186.3 133.469 186.3 133.469H186.57C186.57 133.469 186.59 133.409 186.59 133.389C186.61 133.359 186.63 133.339 186.67 133.319C186.71 133.299 186.75 133.299 186.8 133.299C186.86 133.299 186.88 133.319 186.92 133.319C186.96 133.339 187 133.359 187 133.409C187.02 133.429 187.02 133.509 187.02 133.509V134.209L187.04 134.289H187.33C187.33 134.289 187.29 134.229 187.29 134.189ZM187.06 133.879C187.06 133.879 187.04 133.939 187.02 133.979C187 134.019 186.96 134.049 186.92 134.069C186.88 134.109 186.84 134.109 186.78 134.109C186.73 134.109 186.69 134.089 186.67 134.089C186.65 134.069 186.61 134.049 186.61 134.019C186.59 133.999 186.59 133.959 186.59 133.939V133.859C186.59 133.859 186.63 133.799 186.65 133.799C186.69 133.779 186.71 133.759 186.75 133.759H187.06V133.589L187.1 133.569H186.9C186.8 133.569 186.71 133.589 186.65 133.589C186.57 133.609 186.51 133.629 186.46 133.669C186.42 133.719 186.38 133.759 186.36 133.799C186.32 133.839 186.32 133.899 186.32 133.959C186.32 134.019 186.34 134.089 186.38 134.149C186.42 134.189 186.46 134.229 186.53 134.269C186.59 134.309 186.65 134.309 186.73 134.309C186.8 134.309 186.86 134.289 186.9 134.289C186.94 134.269 186.98 134.249 187.02 134.209C187.06 134.169 187.08 134.149 187.1 134.109C187.13 134.069 187.15 133.999 187.15 133.999L187.06 133.879ZM187.6 132.619V134.329H187.87V132.619H187.6ZM189.12 134.189V133.509C189.12 133.429 189.1 133.339 189.06 133.279C189.02 133.219 188.96 133.159 188.9 133.139C188.82 133.099 188.73 133.099 188.65 133.099C188.57 133.099 188.51 133.119 188.44 133.119C188.38 133.139 188.32 133.159 188.28 133.199C188.24 133.239 188.2 133.279 188.18 133.319C188.14 133.359 188.14 133.469 188.14 133.469H188.4C188.4 133.469 188.42 133.409 188.42 133.389C188.44 133.359 188.47 133.339 188.51 133.319C188.55 133.299 188.59 133.299 188.63 133.299C188.69 133.299 188.71 133.319 188.75 133.319C188.8 133.339 188.84 133.359 188.84 133.409C188.86 133.429 188.86 133.509 188.86 133.509V134.209L188.88 134.289H189.17C189.17 134.289 189.12 134.229 189.12 134.189ZM188.9 133.879C188.9 133.879 188.88 133.939 188.86 133.979C188.84 134.019 188.8 134.049 188.75 134.069C188.71 134.109 188.67 134.109 188.61 134.109C188.57 134.109 188.53 134.089 188.51 134.089C188.49 134.069 188.44 134.049 188.44 134.019C188.42 133.999 188.42 133.959 188.42 133.939V133.859C188.42 133.859 188.47 133.799 188.49 133.799C188.53 133.779 188.55 133.759 188.59 133.759H188.9V133.589L188.94 133.569H188.73C188.63 133.569 188.55 133.589 188.49 133.589C188.4 133.609 188.34 133.629 188.3 133.669C188.26 133.719 188.22 133.759 188.2 133.799C188.16 133.839 188.16 133.899 188.16 133.959C188.16 134.019 188.18 134.089 188.22 134.149C188.26 134.189 188.3 134.229 188.36 134.269C188.42 134.309 188.49 134.309 188.57 134.309C188.63 134.309 188.69 134.289 188.73 134.289C188.77 134.269 188.82 134.249 188.86 134.209C188.9 134.169 188.92 134.149 188.94 134.109C188.96 134.069 188.98 133.999 188.98 133.999L188.9 133.879ZM190.67 132.729L190.03 132.949V133.179L190.44 133.029V134.329H190.71V132.729H190.67Z" fill="#4D648D"/>
<g opacity="0.1">
<path d="M165.46 104.839C166.98 102.679 169.66 101.229 172.74 101.229H342.37C347.13 101.229 350.99 104.709 350.99 108.999V199.859L165.47 104.829L165.46 104.839Z" fill="#00325B"/>
</g>
<path d="M431 254.119H296.21H294.38H273.77H268.61H226.75H220.94H186.75H147.49H112.19H111.89H92.4002H53.3302H15.6502H2.49023V269.179H16.2702H28.7302H53.3302H81.4602H95.8102H112.32H116.66H147.49H187.51H364.06H416.79H431V254.119Z" fill="#8E98AE"/>
<path d="M364.061 269.18V407H374.201V316.7H406.651V407H416.791V269.18H364.061ZM406.651 304.31H374.201V281.58H406.651V304.31Z" fill="#8E98AE"/>
<path d="M28.7305 269.18V405.29C30.7205 406.38 33.0105 407 35.4305 407H38.8705V316.7H71.3205V407H81.4605V269.18H28.7305ZM38.8705 304.31V281.58H71.3205V304.31H38.8705ZM71.3205 357.69V407H81.4605V357.69H71.3205Z" fill="#8E98AE"/>
<path d="M200.22 347.069C199.98 347.419 199.73 347.819 199.47 348.279C194.7 356.589 186.81 382.149 179.77 406.999H154.8C158.88 385.139 164.48 368.679 169.06 357.689C170.91 353.229 172.6 349.669 173.95 347.019C174.94 345.069 175.75 343.599 176.32 342.629C176.88 341.659 177.19 341.169 177.19 341.169C192 324.649 200.22 347.069 200.22 347.069Z" fill="#2F7569"/>
<path d="M53.3301 342.63H194.57V357.69H53.3301V342.63Z" fill="#556074"/>
<path d="M83.46 357.689H139.96V368.989H83.46V357.689Z" fill="#8E98AE"/>
<path d="M115.48 368.989H107.95V406.999H115.48V368.989Z" fill="#8E98AE"/>
<path d="M110.241 320.84C101.331 345.87 238.661 360.12 243.131 335.45C246.151 318.66 231.281 317.01 231.281 317.01C227.781 314.81 166.421 307.03 166.421 307.03C166.421 307.03 116.171 304.18 110.251 320.84H110.241Z" fill="#3B8B7F"/>
<path d="M243.54 335.199C241.56 345.659 237.25 377.049 233.27 406.999H205.72C205.48 397.819 205.64 387.989 207.03 376.879C208.65 363.959 211.07 354.519 213.53 347.699C218.08 335.049 222.79 331.439 222.79 331.439C232.52 314.129 241.59 331.139 243.26 334.609C243.45 334.979 243.54 335.199 243.54 335.199Z" fill="#3B8B7F"/>
<path d="M103 300.879L86.1799 226.699C85.0499 224.059 85.0699 220.939 86.2199 218.109L110.42 172.469C112.62 167.059 118.28 164.269 123.09 166.229C127.89 168.209 129.99 174.199 127.79 179.609L102.33 223.929L122.15 286.499C124.31 291.559 118.23 296.229 113.41 299.009C109.15 301.469 103.26 301.449 103.01 300.869L103 300.879Z" fill="#DADADA"/>
<path d="M145.35 158.139L118.66 164.279L110.52 209.599C112.55 267.289 114.65 274.079 106.45 327.029C106.45 327.029 100.35 333.209 136.97 333.209C173.59 333.209 192.25 317.939 200.04 312.609C201.99 311.269 188.16 307.339 187.83 298.189C187.1 277.919 188.64 273.259 185.8 242.559C189.03 238.729 189.99 209.839 189.99 209.839C189.99 209.839 185.37 176.919 185.51 165.339L160.4 158.069L145.36 158.109L145.34 158.129L145.35 158.139Z" fill="#EAEAEA"/>
<path d="M162.02 134.949L159.09 160.679H137.9L140.79 134.949H162.02Z" fill="#C6A595"/>
<path d="M178.84 116.889C180.05 128.679 173.06 141.449 166 143.009C150.44 141.809 140.13 130.279 139.96 110.399C142.32 91.8592 146.42 83.5392 161.98 84.7392C177.54 85.9392 181.2 98.3392 178.86 116.899L178.84 116.879V116.889Z" fill="#FFD4BB"/>
<path d="M181.391 110.11V109.95C181.361 109.52 181.321 109.15 181.241 108.81L180.881 107.76C180.781 107.57 180.691 107.39 180.581 107.23C180.241 106.66 179.871 106.26 179.491 105.98C178.381 105.16 177.161 105.36 176.151 105.39C173.331 105.48 171.201 106.06 169.831 107.08C168.841 107.8 168.251 108.75 168.101 109.92C168.101 109.92 167.381 109.83 166.341 109.7C165.521 109.61 164.501 109.49 163.481 109.37C161.211 109.12 158.951 108.91 158.881 109.03C158.741 109.29 158.781 109.65 158.941 109.86L162.791 110.52L166.331 111.12L168.131 111.43C168.441 113.83 169.931 116.81 171.981 118.66C173.111 119.69 174.401 120.36 175.751 120.4C175.781 120.4 175.821 120.4 175.851 120.4H176.051C177.241 120.36 178.201 119.78 178.961 118.9C179.591 118.17 180.081 117.22 180.451 116.18C180.461 116.14 180.471 116.11 180.481 116.08C180.501 116.04 180.511 116.01 180.521 115.98C180.741 115.32 180.921 114.63 181.051 113.94C181.071 113.86 181.081 113.79 181.091 113.71C181.101 113.61 181.121 113.5 181.141 113.4L181.171 113.22L181.201 112.98C181.201 112.98 181.201 112.92 181.201 112.9C181.211 112.84 181.221 112.79 181.231 112.73C181.301 112.14 181.351 111.55 181.361 111C181.371 110.76 181.381 110.53 181.381 110.31V110.21C181.381 110.21 181.371 110.13 181.371 110.1L181.391 110.11ZM180.471 112.53C180.421 113.01 180.341 113.52 180.241 114.02V114.04C180.101 114.71 179.921 115.37 179.681 115.99C179.661 116.03 179.651 116.06 179.641 116.09C179.631 116.13 179.611 116.16 179.601 116.19C179.401 116.68 179.171 117.13 178.891 117.53C178.211 118.53 177.271 119.22 176.011 119.27H175.971L175.991 119.25H175.851C175.851 119.25 175.781 119.25 175.751 119.24C174.351 119.21 173.061 118.43 171.981 117.32C170.131 115.4 168.911 112.5 168.861 110.68C168.811 109.39 169.551 108.35 170.931 107.64C172.181 106.99 173.961 106.61 176.171 106.53C177.841 106.48 178.861 106.59 179.501 106.91C179.691 107 179.841 107.11 179.971 107.23C180.511 107.78 180.551 108.67 180.591 109.97V110.11C180.591 110.11 180.591 110.18 180.591 110.22V110.32C180.591 110.96 180.561 111.72 180.461 112.53H180.471Z" fill="#DD2450"/>
<path d="M118.69 89.2495C122.81 74.8095 135.23 60.8295 149.58 64.4995C163.93 68.1695 173.76 69.1395 170.17 87.1795C167.97 98.2095 166.48 108.15 157.77 116.73C158.06 117.58 158.35 118.46 158.59 119.41C161.56 131.04 157.33 146.11 157.33 146.11C156.31 154.68 170.85 160.68 155.57 164.7C155.57 174.35 152.35 178.37 148.33 195.26C143.51 201.69 138.37 204.12 129.83 207.32C120.01 211.01 109.73 196.94 108.92 196.06C110.99 178.36 118.24 167.03 118.66 151.03C119.16 132.35 112.99 109.11 118.66 89.2395L118.69 89.2495Z" fill="#292225"/>
<path d="M143.75 73.7093C151.47 68.7293 158.85 69.6393 158.85 69.6393C183.14 67.9293 185.16 97.7093 185.16 97.7093C171.43 98.9193 161.14 89.8593 153.07 86.3793L143.73 73.7093H143.75Z" fill="#292225"/>
<path d="M127.51 216.449H73.2999C62.2699 216.449 53.3398 225.159 53.3398 235.859V342.619H147.5V235.859C147.5 225.139 138.55 216.449 127.54 216.449H127.52H127.51Z" fill="#556074"/>
<g clip-path="url(#clip0_623_776)">
<path d="M393.51 213.2C395.16 213.39 397.59 213.59 400.33 213.6C400.37 213.6 400.41 213.6 400.46 213.6C401.39 213.6 402.36 213.58 403.35 213.53C404.53 213.47 405.74 213.37 406.94 213.21C411.66 212.58 416.31 211.06 419.01 207.81C419.94 206.69 420.55 205.65 420.94 204.65C421.13 204.17 421.26 203.7 421.35 203.25C422.06 199.59 419.87 196.6 419.08 193.46C418.46 191.03 418.67 188.52 421.71 185.56C432.95 174.62 430.77 157.48 418.68 160.63C402.61 164.83 419.3 177.12 396.66 184.54C396.34 184.65 396.02 184.76 395.71 184.87C394.92 185.16 394.18 185.46 393.5 185.78V213.2H393.51Z" fill="#91A9ED"/>
<path d="M418 175.56C418 175.56 405.37 192.72 395.72 207.27C394.96 208.41 394.22 209.54 393.51 210.64V207.83C394.22 206.75 394.96 205.64 395.72 204.5C403.44 193 413.12 179.35 418 175.56Z" fill="#6183BA"/>
<path d="M383.46 150.81C372.22 164.84 393.93 165.03 380.64 185.21C380.35 185.65 380.04 186.11 379.71 186.57C379.41 187 379.12 187.42 378.86 187.84L392.05 214.83C392.31 214.92 392.55 214.99 392.76 215.05C393.33 215.22 393.66 215.3 393.66 215.3C393.66 215.3 393.95 215.15 394.46 214.87C394.49 214.86 394.52 214.84 394.55 214.82C394.69 214.75 394.83 214.66 394.99 214.57C399.57 211.99 414.35 202.86 414.91 192.46C415.29 185.32 411.13 183.36 407.51 181.08C404.38 179.12 401.65 176.91 402.61 170.93C405.36 153.81 392.09 140.03 383.46 150.81Z" fill="#8ED2DD"/>
<path d="M393.14 170.97C393.14 170.97 393.22 176.94 393.22 185.34C393.22 192.62 393.15 201.72 392.91 210.32C392.91 210.62 392.89 210.92 392.88 211.22C392.84 212.51 392.8 213.79 392.75 215.05C392.73 215.43 392.72 215.81 392.71 216.19L394.29 219.43C394.35 217.97 394.41 216.45 394.46 214.87C394.46 214.8 394.46 214.74 394.46 214.67C394.48 214.3 394.49 213.94 394.5 213.58C394.82 204.02 395.01 192.86 394.64 184.04C394.41 178.36 393.94 173.65 393.13 170.96L393.14 170.97Z" fill="#6183BA"/>
<path d="M392.43 216.56C384.77 220.85 376.87 215.1 375.03 212.88C374.4 212.12 373.98 211.4 373.71 210.72C373.58 210.39 373.49 210.07 373.43 209.76C372.95 207.26 374.44 205.22 374.98 203.08C375.41 201.42 375.26 199.71 373.18 197.69C365.51 190.23 367 178.53 375.24 180.69C386.2 183.55 380.28 192.8 390.26 197C400.24 201.2 400.08 212.26 392.42 216.55L392.43 216.56Z" fill="#9BDDB9"/>
<path d="M375.61 192.39C375.61 192.39 384.23 204.09 390.81 214.02C391.33 214.8 392.59 216.7 393.08 217.45L393.84 216.66C393.35 215.92 391.34 212.9 390.82 212.12C385.55 204.27 378.95 194.96 375.62 192.38L375.61 192.39Z" fill="#6183BA"/>
<path d="M394.12 217.45H418.2V251.57C418.2 253.17 416.91 254.46 415.31 254.46H372.93C371.33 254.46 370.04 253.17 370.04 251.57V217.45H394.12Z" fill="#BDCDFF"/>
<path d="M394.12 209.14H422.73C424.47 209.14 425.68 210.87 425.08 212.5L422.2 220.34C421.84 221.32 420.9 221.98 419.85 221.98H368.39C367.34 221.98 366.4 221.33 366.04 220.34L363.16 212.51C362.56 210.88 363.77 209.15 365.51 209.15H394.12V209.14Z" fill="#4D648D"/>
</g>
<g style="mix-blend-mode:lighten" opacity="0.2">
<path d="M187 289L345 201V107H202C202 107 187 84.0004 177 85.0004C167 86.0004 151.5 103 151.5 127C151.5 151 159 168.5 159 168.5C159 168.5 167 160.5 182 175.5C197 190.5 184.5 200.501 177 228.5C169.5 256.5 187 289 187 289Z" fill="white"/>
</g>
<path d="M270.891 258.946C270.891 258.946 283.801 263.656 289.741 260.616C295.671 257.576 300.121 255.576 297.621 250.756C295.121 245.936 280.291 244.686 280.291 244.686C280.291 244.686 269.821 248.886 270.091 250.556C270.371 252.226 270.901 258.936 270.901 258.936L270.891 258.946Z" fill="#FFD4BB"/>
<path d="M248.37 259.976L218.23 251.606C215.57 250.596 174.98 208.406 174.98 208.406C172.57 203.116 170.86 187.836 172.92 179.606C174.16 174.666 186.99 161.976 189.4 167.266L230.59 237.216L272.12 241.936C277.23 243.866 276.48 251.416 275.21 256.746C274.1 261.456 262.69 261.686 248.37 259.986V259.976Z" fill="#DADADA"/>
<g style="mix-blend-mode:lighten" opacity="0.3">
<path d="M208 211.5L188.5 167C193 171.5 217.5 216 230.5 237.5C243 238.5 254.351 239.664 273.5 242.5L276 246.5L280.5 244.5C286.587 245.319 290.121 245.694 294 248L276 252C276 252 236 247.5 227 242.5C218 237.5 208 211.5 208 211.5Z" fill="white"/>
</g>
<circle cx="52" cy="175" r="13" fill="#BDCDFF" fill-opacity="0.3"/>
<circle cx="260" cy="60" r="10" fill="#BDCDFF" fill-opacity="0.3"/>
<circle cx="385" cy="33" r="5" fill="#BDCDFF" fill-opacity="0.3"/>
<circle cx="70" cy="105" r="5" fill="#BDCDFF" fill-opacity="0.3"/>
<circle cx="397" cy="114" r="7" fill="#BDCDFF" fill-opacity="0.3"/>
<defs>
<filter id="filter0_d_623_776" x="0.498047" y="0.579102" width="430.502" height="414.421" filterUnits="userSpaceOnUse" color-interpolation-filters="sRGB">
<feFlood flood-opacity="0" result="BackgroundImageFix"/>
<feColorMatrix in="SourceAlpha" type="matrix" values="0 0 0 0 0 0 0 0 0 0 0 0 0 0 0 0 0 0 127 0" result="hardAlpha"/>
<feOffset dx="-4" dy="4"/>
<feGaussianBlur stdDeviation="2"/>
<feComposite in2="hardAlpha" operator="out"/>
<feColorMatrix type="matrix" values="0 0 0 0 0 0 0 0 0 0 0 0 0 0 0 0 0 0 0.15 0"/>
<feBlend mode="normal" in2="BackgroundImageFix" result="effect1_dropShadow_623_776"/>
<feBlend mode="normal" in="SourceGraphic" in2="effect1_dropShadow_623_776" result="shape"/>
</filter>
<filter id="filter1_d_623_776" x="0.498047" y="0.579102" width="430.502" height="414.421" filterUnits="userSpaceOnUse" color-interpolation-filters="sRGB">
<feFlood flood-opacity="0" result="BackgroundImageFix"/>
<feColorMatrix in="SourceAlpha" type="matrix" values="0 0 0 0 0 0 0 0 0 0 0 0 0 0 0 0 0 0 127 0" result="hardAlpha"/>
<feOffset dx="-4" dy="4"/>
<feGaussianBlur stdDeviation="2"/>
<feComposite in2="hardAlpha" operator="out"/>
<feColorMatrix type="matrix" values="0 0 0 0 0 0 0 0 0 0 0 0 0 0 0 0 0 0 0.15 0"/>
<feBlend mode="normal" in2="BackgroundImageFix" result="effect1_dropShadow_623_776"/>
<feBlend mode="normal" in="SourceGraphic" in2="effect1_dropShadow_623_776" result="shape"/>
</filter>
<linearGradient id="paint0_linear_623_776" x1="29.5001" y1="407" x2="481" y2="-36" gradientUnits="userSpaceOnUse">
<stop stop-color="#D9E2FF"/>
<stop offset="1" stop-color="#FDFDFD"/>
</linearGradient>
<clipPath id="clip0_623_776">
<rect width="66.05" height="107.47" fill="white" transform="translate(363 147)"/>
</clipPath>
</defs>
</svg>
