<svg width="600" height="544" viewBox="0 0 600 544" fill="none" xmlns="http://www.w3.org/2000/svg">
<mask id="mask0_103_1923" style="mask-type:luminance" maskUnits="userSpaceOnUse" x="0" y="0" width="216" height="397">
<path d="M215.01 0H0V397H215.01V0Z" fill="white"/>
</mask>
<g mask="url(#mask0_103_1923)">
<path d="M1.35 2.7C2.09 2.7 2.7 2.1 2.7 1.35C2.7 0.6 2.09 0 1.35 0C0.61 0 0 0.6 0 1.35C0 2.1 0.6 2.7 1.35 2.7Z" fill="#71869D"/>
<path d="M31.6801 2.7C32.4201 2.7 33.0301 2.1 33.0301 1.35C33.0301 0.6 32.4301 0 31.6801 0C30.9301 0 30.3301 0.6 30.3301 1.35C30.3301 2.1 30.9301 2.7 31.6801 2.7Z" fill="#71869D"/>
<path d="M62.0099 2.7C62.7499 2.7 63.3599 2.1 63.3599 1.35C63.3599 0.6 62.7599 0 62.0099 0C61.2599 0 60.6599 0.6 60.6599 1.35C60.6599 2.1 61.2599 2.7 62.0099 2.7Z" fill="#71869D"/>
<path d="M92.34 2.7C93.08 2.7 93.69 2.1 93.69 1.35C93.69 0.6 93.09 0 92.34 0C91.59 0 90.99 0.6 90.99 1.35C90.99 2.1 91.59 2.7 92.34 2.7Z" fill="#71869D"/>
<path d="M122.67 2.7C123.42 2.7 124.02 2.1 124.02 1.35C124.02 0.6 123.42 0 122.67 0C121.92 0 121.32 0.6 121.32 1.35C121.32 2.1 121.92 2.7 122.67 2.7Z" fill="#71869D"/>
<path d="M153 2.7C153.74 2.7 154.35 2.1 154.35 1.35C154.35 0.6 153.75 0 153 0C152.25 0 151.65 0.6 151.65 1.35C151.65 2.1 152.25 2.7 153 2.7Z" fill="#71869D"/>
<path d="M1.35 33.0301C2.09 33.0301 2.7 32.4301 2.7 31.6801C2.7 30.9301 2.1 30.3301 1.35 30.3301C0.6 30.3301 0 30.9301 0 31.6801C0 32.4301 0.6 33.0301 1.35 33.0301Z" fill="#71869D"/>
<path d="M31.6801 33.0301C32.4201 33.0301 33.0301 32.4301 33.0301 31.6801C33.0301 30.9301 32.4301 30.3301 31.6801 30.3301C30.9301 30.3301 30.3301 30.9301 30.3301 31.6801C30.3301 32.4301 30.9301 33.0301 31.6801 33.0301Z" fill="#71869D"/>
<path d="M62.0099 33.0301C62.7499 33.0301 63.3599 32.4301 63.3599 31.6801C63.3599 30.9301 62.7599 30.3301 62.0099 30.3301C61.2599 30.3301 60.6599 30.9301 60.6599 31.6801C60.6599 32.4301 61.2599 33.0301 62.0099 33.0301Z" fill="#71869D"/>
<path d="M92.34 33.0301C93.08 33.0301 93.69 32.4301 93.69 31.6801C93.69 30.9301 93.09 30.3301 92.34 30.3301C91.59 30.3301 90.99 30.9301 90.99 31.6801C90.99 32.4301 91.59 33.0301 92.34 33.0301Z" fill="#71869D"/>
<path d="M122.67 33.0301C123.42 33.0301 124.02 32.4301 124.02 31.6801C124.02 30.9301 123.42 30.3301 122.67 30.3301C121.92 30.3301 121.32 30.9301 121.32 31.6801C121.32 32.4301 121.92 33.0301 122.67 33.0301Z" fill="#71869D"/>
<path d="M153 33.0301C153.74 33.0301 154.35 32.4301 154.35 31.6801C154.35 30.9301 153.75 30.3301 153 30.3301C152.25 30.3301 151.65 30.9301 151.65 31.6801C151.65 32.4301 152.25 33.0301 153 33.0301Z" fill="#71869D"/>
<path d="M1.35 63.3602C2.09 63.3602 2.7 62.7602 2.7 62.0102C2.7 61.2602 2.1 60.6602 1.35 60.6602C0.6 60.6602 0 61.2602 0 62.0102C0 62.7602 0.6 63.3602 1.35 63.3602Z" fill="#71869D"/>
<path d="M31.6801 63.3602C32.4201 63.3602 33.0301 62.7602 33.0301 62.0102C33.0301 61.2602 32.4301 60.6602 31.6801 60.6602C30.9301 60.6602 30.3301 61.2602 30.3301 62.0102C30.3301 62.7602 30.9301 63.3602 31.6801 63.3602Z" fill="#71869D"/>
<path d="M62.0099 63.3602C62.7499 63.3602 63.3599 62.7602 63.3599 62.0102C63.3599 61.2602 62.7599 60.6602 62.0099 60.6602C61.2599 60.6602 60.6599 61.2602 60.6599 62.0102C60.6599 62.7602 61.2599 63.3602 62.0099 63.3602Z" fill="#71869D"/>
<path d="M92.34 63.3602C93.08 63.3602 93.69 62.7602 93.69 62.0102C93.69 61.2602 93.09 60.6602 92.34 60.6602C91.59 60.6602 90.99 61.2602 90.99 62.0102C90.99 62.7602 91.59 63.3602 92.34 63.3602Z" fill="#71869D"/>
<path d="M122.67 63.3602C123.42 63.3602 124.02 62.7602 124.02 62.0102C124.02 61.2602 123.42 60.6602 122.67 60.6602C121.92 60.6602 121.32 61.2602 121.32 62.0102C121.32 62.7602 121.92 63.3602 122.67 63.3602Z" fill="#71869D"/>
<path d="M153 63.3602C153.74 63.3602 154.35 62.7602 154.35 62.0102C154.35 61.2602 153.75 60.6602 153 60.6602C152.25 60.6602 151.65 61.2602 151.65 62.0102C151.65 62.7602 152.25 63.3602 153 63.3602Z" fill="#71869D"/>
<path d="M1.35 93.6902C2.09 93.6902 2.7 93.0902 2.7 92.3402C2.7 91.5902 2.1 90.9902 1.35 90.9902C0.6 90.9902 0 91.5902 0 92.3402C0 93.0902 0.6 93.6902 1.35 93.6902Z" fill="#71869D"/>
<path d="M31.6801 93.6902C32.4201 93.6902 33.0301 93.0902 33.0301 92.3402C33.0301 91.5902 32.4301 90.9902 31.6801 90.9902C30.9301 90.9902 30.3301 91.5902 30.3301 92.3402C30.3301 93.0902 30.9301 93.6902 31.6801 93.6902Z" fill="#71869D"/>
<path d="M62.0099 93.6902C62.7499 93.6902 63.3599 93.0902 63.3599 92.3402C63.3599 91.5902 62.7599 90.9902 62.0099 90.9902C61.2599 90.9902 60.6599 91.5902 60.6599 92.3402C60.6599 93.0902 61.2599 93.6902 62.0099 93.6902Z" fill="#71869D"/>
<path d="M92.34 93.6902C93.08 93.6902 93.69 93.0902 93.69 92.3402C93.69 91.5902 93.09 90.9902 92.34 90.9902C91.59 90.9902 90.99 91.5902 90.99 92.3402C90.99 93.0902 91.59 93.6902 92.34 93.6902Z" fill="#71869D"/>
<path d="M122.67 93.6902C123.42 93.6902 124.02 93.0902 124.02 92.3402C124.02 91.5902 123.42 90.9902 122.67 90.9902C121.92 90.9902 121.32 91.5902 121.32 92.3402C121.32 93.0902 121.92 93.6902 122.67 93.6902Z" fill="#71869D"/>
<path d="M153 93.6902C153.74 93.6902 154.35 93.0902 154.35 92.3402C154.35 91.5902 153.75 90.9902 153 90.9902C152.25 90.9902 151.65 91.5902 151.65 92.3402C151.65 93.0902 152.25 93.6902 153 93.6902Z" fill="#71869D"/>
<path d="M1.35 124.02C2.09 124.02 2.7 123.42 2.7 122.67C2.7 121.92 2.1 121.32 1.35 121.32C0.6 121.32 0 121.92 0 122.67C0 123.42 0.6 124.02 1.35 124.02Z" fill="#71869D"/>
<path d="M31.6801 124.02C32.4201 124.02 33.0301 123.42 33.0301 122.67C33.0301 121.92 32.4301 121.32 31.6801 121.32C30.9301 121.32 30.3301 121.92 30.3301 122.67C30.3301 123.42 30.9301 124.02 31.6801 124.02Z" fill="#71869D"/>
<path d="M62.0099 124.02C62.7499 124.02 63.3599 123.42 63.3599 122.67C63.3599 121.92 62.7599 121.32 62.0099 121.32C61.2599 121.32 60.6599 121.92 60.6599 122.67C60.6599 123.42 61.2599 124.02 62.0099 124.02Z" fill="#71869D"/>
<path d="M92.34 124.02C93.08 124.02 93.69 123.42 93.69 122.67C93.69 121.92 93.09 121.32 92.34 121.32C91.59 121.32 90.99 121.92 90.99 122.67C90.99 123.42 91.59 124.02 92.34 124.02Z" fill="#71869D"/>
<path d="M122.67 124.02C123.42 124.02 124.02 123.42 124.02 122.67C124.02 121.92 123.42 121.32 122.67 121.32C121.92 121.32 121.32 121.92 121.32 122.67C121.32 123.42 121.92 124.02 122.67 124.02Z" fill="#71869D"/>
<path d="M153 124.02C153.74 124.02 154.35 123.42 154.35 122.67C154.35 121.92 153.75 121.32 153 121.32C152.25 121.32 151.65 121.92 151.65 122.67C151.65 123.42 152.25 124.02 153 124.02Z" fill="#71869D"/>
<path d="M1.35 154.35C2.09 154.35 2.7 153.75 2.7 153C2.7 152.25 2.1 151.65 1.35 151.65C0.6 151.65 0 152.25 0 153C0 153.75 0.6 154.35 1.35 154.35Z" fill="#71869D"/>
<path d="M31.6801 154.35C32.4201 154.35 33.0301 153.75 33.0301 153C33.0301 152.25 32.4301 151.65 31.6801 151.65C30.9301 151.65 30.3301 152.25 30.3301 153C30.3301 153.75 30.9301 154.35 31.6801 154.35Z" fill="#71869D"/>
<path d="M62.0099 154.35C62.7499 154.35 63.3599 153.75 63.3599 153C63.3599 152.25 62.7599 151.65 62.0099 151.65C61.2599 151.65 60.6599 152.25 60.6599 153C60.6599 153.75 61.2599 154.35 62.0099 154.35Z" fill="#71869D"/>
<path d="M92.34 154.35C93.08 154.35 93.69 153.75 93.69 153C93.69 152.25 93.09 151.65 92.34 151.65C91.59 151.65 90.99 152.25 90.99 153C90.99 153.75 91.59 154.35 92.34 154.35Z" fill="#71869D"/>
<path d="M122.67 154.35C123.42 154.35 124.02 153.75 124.02 153C124.02 152.25 123.42 151.65 122.67 151.65C121.92 151.65 121.32 152.25 121.32 153C121.32 153.75 121.92 154.35 122.67 154.35Z" fill="#71869D"/>
<path d="M153 154.35C153.74 154.35 154.35 153.75 154.35 153C154.35 152.25 153.75 151.65 153 151.65C152.25 151.65 151.65 152.25 151.65 153C151.65 153.75 152.25 154.35 153 154.35Z" fill="#71869D"/>
<path d="M1.35 184.68C2.09 184.68 2.7 184.08 2.7 183.33C2.7 182.58 2.1 181.98 1.35 181.98C0.6 181.98 0 182.58 0 183.33C0 184.08 0.6 184.68 1.35 184.68Z" fill="#71869D"/>
<path d="M31.6801 184.68C32.4201 184.68 33.0301 184.08 33.0301 183.33C33.0301 182.58 32.4301 181.98 31.6801 181.98C30.9301 181.98 30.3301 182.58 30.3301 183.33C30.3301 184.08 30.9301 184.68 31.6801 184.68Z" fill="#71869D"/>
<path d="M62.0099 184.68C62.7499 184.68 63.3599 184.08 63.3599 183.33C63.3599 182.58 62.7599 181.98 62.0099 181.98C61.2599 181.98 60.6599 182.58 60.6599 183.33C60.6599 184.08 61.2599 184.68 62.0099 184.68Z" fill="#71869D"/>
<path d="M92.34 184.68C93.08 184.68 93.69 184.08 93.69 183.33C93.69 182.58 93.09 181.98 92.34 181.98C91.59 181.98 90.99 182.58 90.99 183.33C90.99 184.08 91.59 184.68 92.34 184.68Z" fill="#71869D"/>
<path d="M122.67 184.68C123.42 184.68 124.02 184.08 124.02 183.33C124.02 182.58 123.42 181.98 122.67 181.98C121.92 181.98 121.32 182.58 121.32 183.33C121.32 184.08 121.92 184.68 122.67 184.68Z" fill="#71869D"/>
<path d="M153 184.68C153.74 184.68 154.35 184.08 154.35 183.33C154.35 182.58 153.75 181.98 153 181.98C152.25 181.98 151.65 182.58 151.65 183.33C151.65 184.08 152.25 184.68 153 184.68Z" fill="#71869D"/>
<path d="M1.35 215.01C2.09 215.01 2.7 214.41 2.7 213.66C2.7 212.91 2.1 212.31 1.35 212.31C0.6 212.31 0 212.91 0 213.66C0 214.41 0.6 215.01 1.35 215.01Z" fill="#71869D"/>
<path d="M31.6801 215.01C32.4201 215.01 33.0301 214.41 33.0301 213.66C33.0301 212.91 32.4301 212.31 31.6801 212.31C30.9301 212.31 30.3301 212.91 30.3301 213.66C30.3301 214.41 30.9301 215.01 31.6801 215.01Z" fill="#71869D"/>
<path d="M62.0099 215.01C62.7499 215.01 63.3599 214.41 63.3599 213.66C63.3599 212.91 62.7599 212.31 62.0099 212.31C61.2599 212.31 60.6599 212.91 60.6599 213.66C60.6599 214.41 61.2599 215.01 62.0099 215.01Z" fill="#71869D"/>
<path d="M92.34 215.01C93.08 215.01 93.69 214.41 93.69 213.66C93.69 212.91 93.09 212.31 92.34 212.31C91.59 212.31 90.99 212.91 90.99 213.66C90.99 214.41 91.59 215.01 92.34 215.01Z" fill="#71869D"/>
<path d="M122.67 215.01C123.42 215.01 124.02 214.41 124.02 213.66C124.02 212.91 123.42 212.31 122.67 212.31C121.92 212.31 121.32 212.91 121.32 213.66C121.32 214.41 121.92 215.01 122.67 215.01Z" fill="#71869D"/>
<path d="M153 215.01C153.74 215.01 154.35 214.41 154.35 213.66C154.35 212.91 153.75 212.31 153 212.31C152.25 212.31 151.65 212.91 151.65 213.66C151.65 214.41 152.25 215.01 153 215.01Z" fill="#71869D"/>
<path d="M1.35 245.35C2.09 245.35 2.7 244.75 2.7 244C2.7 243.25 2.1 242.65 1.35 242.65C0.6 242.65 0 243.25 0 244C0 244.75 0.6 245.35 1.35 245.35Z" fill="#71869D"/>
<path d="M31.6801 245.35C32.4201 245.35 33.0301 244.75 33.0301 244C33.0301 243.25 32.4301 242.65 31.6801 242.65C30.9301 242.65 30.3301 243.25 30.3301 244C30.3301 244.75 30.9301 245.35 31.6801 245.35Z" fill="#71869D"/>
<path d="M62.0099 245.35C62.7499 245.35 63.3599 244.75 63.3599 244C63.3599 243.25 62.7599 242.65 62.0099 242.65C61.2599 242.65 60.6599 243.25 60.6599 244C60.6599 244.75 61.2599 245.35 62.0099 245.35Z" fill="#71869D"/>
<path d="M92.34 245.35C93.08 245.35 93.69 244.75 93.69 244C93.69 243.25 93.09 242.65 92.34 242.65C91.59 242.65 90.99 243.25 90.99 244C90.99 244.75 91.59 245.35 92.34 245.35Z" fill="#71869D"/>
<path d="M122.67 245.35C123.42 245.35 124.02 244.75 124.02 244C124.02 243.25 123.42 242.65 122.67 242.65C121.92 242.65 121.32 243.25 121.32 244C121.32 244.75 121.92 245.35 122.67 245.35Z" fill="#71869D"/>
<path d="M153 245.35C153.74 245.35 154.35 244.75 154.35 244C154.35 243.25 153.75 242.65 153 242.65C152.25 242.65 151.65 243.25 151.65 244C151.65 244.75 152.25 245.35 153 245.35Z" fill="#71869D"/>
<path d="M1.35 275.68C2.09 275.68 2.7 275.08 2.7 274.33C2.7 273.58 2.1 272.98 1.35 272.98C0.6 272.98 0 273.58 0 274.33C0 275.08 0.6 275.68 1.35 275.68Z" fill="#71869D"/>
<path d="M31.6801 275.68C32.4201 275.68 33.0301 275.08 33.0301 274.33C33.0301 273.58 32.4301 272.98 31.6801 272.98C30.9301 272.98 30.3301 273.58 30.3301 274.33C30.3301 275.08 30.9301 275.68 31.6801 275.68Z" fill="#71869D"/>
<path d="M62.0099 275.68C62.7499 275.68 63.3599 275.08 63.3599 274.33C63.3599 273.58 62.7599 272.98 62.0099 272.98C61.2599 272.98 60.6599 273.58 60.6599 274.33C60.6599 275.08 61.2599 275.68 62.0099 275.68Z" fill="#71869D"/>
<path d="M92.34 275.68C93.08 275.68 93.69 275.08 93.69 274.33C93.69 273.58 93.09 272.98 92.34 272.98C91.59 272.98 90.99 273.58 90.99 274.33C90.99 275.08 91.59 275.68 92.34 275.68Z" fill="#71869D"/>
<path d="M122.67 275.68C123.42 275.68 124.02 275.08 124.02 274.33C124.02 273.58 123.42 272.98 122.67 272.98C121.92 272.98 121.32 273.58 121.32 274.33C121.32 275.08 121.92 275.68 122.67 275.68Z" fill="#71869D"/>
<path d="M153 275.68C153.74 275.68 154.35 275.08 154.35 274.33C154.35 273.58 153.75 272.98 153 272.98C152.25 272.98 151.65 273.58 151.65 274.33C151.65 275.08 152.25 275.68 153 275.68Z" fill="#71869D"/>
<path d="M1.35 306.01C2.09 306.01 2.7 305.41 2.7 304.66C2.7 303.91 2.1 303.31 1.35 303.31C0.6 303.31 0 303.91 0 304.66C0 305.41 0.6 306.01 1.35 306.01Z" fill="#71869D"/>
<path d="M31.6801 306.01C32.4201 306.01 33.0301 305.41 33.0301 304.66C33.0301 303.91 32.4301 303.31 31.6801 303.31C30.9301 303.31 30.3301 303.91 30.3301 304.66C30.3301 305.41 30.9301 306.01 31.6801 306.01Z" fill="#71869D"/>
<path d="M62.0099 306.01C62.7499 306.01 63.3599 305.41 63.3599 304.66C63.3599 303.91 62.7599 303.31 62.0099 303.31C61.2599 303.31 60.6599 303.91 60.6599 304.66C60.6599 305.41 61.2599 306.01 62.0099 306.01Z" fill="#71869D"/>
<path d="M92.34 306.01C93.08 306.01 93.69 305.41 93.69 304.66C93.69 303.91 93.09 303.31 92.34 303.31C91.59 303.31 90.99 303.91 90.99 304.66C90.99 305.41 91.59 306.01 92.34 306.01Z" fill="#71869D"/>
<path d="M122.67 306.01C123.42 306.01 124.02 305.41 124.02 304.66C124.02 303.91 123.42 303.31 122.67 303.31C121.92 303.31 121.32 303.91 121.32 304.66C121.32 305.41 121.92 306.01 122.67 306.01Z" fill="#71869D"/>
<path d="M153 306.01C153.74 306.01 154.35 305.41 154.35 304.66C154.35 303.91 153.75 303.31 153 303.31C152.25 303.31 151.65 303.91 151.65 304.66C151.65 305.41 152.25 306.01 153 306.01Z" fill="#71869D"/>
<path d="M183.33 2.7C184.07 2.7 184.68 2.1 184.68 1.35C184.68 0.6 184.08 0 183.33 0C182.58 0 181.98 0.6 181.98 1.35C181.98 2.1 182.58 2.7 183.33 2.7Z" fill="#71869D"/>
<path d="M213.67 2.7C214.41 2.7 215.02 2.1 215.02 1.35C215.02 0.6 214.42 0 213.67 0C212.92 0 212.32 0.6 212.32 1.35C212.32 2.1 212.92 2.7 213.67 2.7Z" fill="#71869D"/>
<path d="M183.33 33.0301C184.07 33.0301 184.68 32.4301 184.68 31.6801C184.68 30.9301 184.08 30.3301 183.33 30.3301C182.58 30.3301 181.98 30.9301 181.98 31.6801C181.98 32.4301 182.58 33.0301 183.33 33.0301Z" fill="#71869D"/>
<path d="M213.67 33.0301C214.41 33.0301 215.02 32.4301 215.02 31.6801C215.02 30.9301 214.42 30.3301 213.67 30.3301C212.92 30.3301 212.32 30.9301 212.32 31.6801C212.32 32.4301 212.92 33.0301 213.67 33.0301Z" fill="#71869D"/>
<path d="M183.33 63.3602C184.07 63.3602 184.68 62.7602 184.68 62.0102C184.68 61.2602 184.08 60.6602 183.33 60.6602C182.58 60.6602 181.98 61.2602 181.98 62.0102C181.98 62.7602 182.58 63.3602 183.33 63.3602Z" fill="#71869D"/>
<path d="M213.67 63.3602C214.41 63.3602 215.02 62.7602 215.02 62.0102C215.02 61.2602 214.42 60.6602 213.67 60.6602C212.92 60.6602 212.32 61.2602 212.32 62.0102C212.32 62.7602 212.92 63.3602 213.67 63.3602Z" fill="#71869D"/>
<path d="M183.33 93.6902C184.07 93.6902 184.68 93.0902 184.68 92.3402C184.68 91.5902 184.08 90.9902 183.33 90.9902C182.58 90.9902 181.98 91.5902 181.98 92.3402C181.98 93.0902 182.58 93.6902 183.33 93.6902Z" fill="#71869D"/>
<path d="M213.67 93.6902C214.41 93.6902 215.02 93.0902 215.02 92.3402C215.02 91.5902 214.42 90.9902 213.67 90.9902C212.92 90.9902 212.32 91.5902 212.32 92.3402C212.32 93.0902 212.92 93.6902 213.67 93.6902Z" fill="#71869D"/>
<path d="M183.33 124.02C184.07 124.02 184.68 123.42 184.68 122.67C184.68 121.92 184.08 121.32 183.33 121.32C182.58 121.32 181.98 121.92 181.98 122.67C181.98 123.42 182.58 124.02 183.33 124.02Z" fill="#71869D"/>
<path d="M213.67 124.02C214.41 124.02 215.02 123.42 215.02 122.67C215.02 121.92 214.42 121.32 213.67 121.32C212.92 121.32 212.32 121.92 212.32 122.67C212.32 123.42 212.92 124.02 213.67 124.02Z" fill="#71869D"/>
<path d="M183.33 154.35C184.07 154.35 184.68 153.75 184.68 153C184.68 152.25 184.08 151.65 183.33 151.65C182.58 151.65 181.98 152.25 181.98 153C181.98 153.75 182.58 154.35 183.33 154.35Z" fill="#71869D"/>
<path d="M213.67 154.35C214.41 154.35 215.02 153.75 215.02 153C215.02 152.25 214.42 151.65 213.67 151.65C212.92 151.65 212.32 152.25 212.32 153C212.32 153.75 212.92 154.35 213.67 154.35Z" fill="#71869D"/>
<path d="M183.33 184.68C184.07 184.68 184.68 184.08 184.68 183.33C184.68 182.58 184.08 181.98 183.33 181.98C182.58 181.98 181.98 182.58 181.98 183.33C181.98 184.08 182.58 184.68 183.33 184.68Z" fill="#71869D"/>
<path d="M213.67 184.68C214.41 184.68 215.02 184.08 215.02 183.33C215.02 182.58 214.42 181.98 213.67 181.98C212.92 181.98 212.32 182.58 212.32 183.33C212.32 184.08 212.92 184.68 213.67 184.68Z" fill="#71869D"/>
<path d="M183.33 215.01C184.07 215.01 184.68 214.41 184.68 213.66C184.68 212.91 184.08 212.31 183.33 212.31C182.58 212.31 181.98 212.91 181.98 213.66C181.98 214.41 182.58 215.01 183.33 215.01Z" fill="#71869D"/>
<path d="M213.67 215.01C214.41 215.01 215.02 214.41 215.02 213.66C215.02 212.91 214.42 212.31 213.67 212.31C212.92 212.31 212.32 212.91 212.32 213.66C212.32 214.41 212.92 215.01 213.67 215.01Z" fill="#71869D"/>
<path d="M183.33 245.35C184.07 245.35 184.68 244.75 184.68 244C184.68 243.25 184.08 242.65 183.33 242.65C182.58 242.65 181.98 243.25 181.98 244C181.98 244.75 182.58 245.35 183.33 245.35Z" fill="#71869D"/>
<path d="M213.67 245.35C214.41 245.35 215.02 244.75 215.02 244C215.02 243.25 214.42 242.65 213.67 242.65C212.92 242.65 212.32 243.25 212.32 244C212.32 244.75 212.92 245.35 213.67 245.35Z" fill="#71869D"/>
<path d="M183.33 275.68C184.07 275.68 184.68 275.08 184.68 274.33C184.68 273.58 184.08 272.98 183.33 272.98C182.58 272.98 181.98 273.58 181.98 274.33C181.98 275.08 182.58 275.68 183.33 275.68Z" fill="#71869D"/>
<path d="M213.67 275.68C214.41 275.68 215.02 275.08 215.02 274.33C215.02 273.58 214.42 272.98 213.67 272.98C212.92 272.98 212.32 273.58 212.32 274.33C212.32 275.08 212.92 275.68 213.67 275.68Z" fill="#71869D"/>
<path d="M183.33 306.01C184.07 306.01 184.68 305.41 184.68 304.66C184.68 303.91 184.08 303.31 183.33 303.31C182.58 303.31 181.98 303.91 181.98 304.66C181.98 305.41 182.58 306.01 183.33 306.01Z" fill="#71869D"/>
<path d="M213.67 306.01C214.41 306.01 215.02 305.41 215.02 304.66C215.02 303.91 214.42 303.31 213.67 303.31C212.92 303.31 212.32 303.91 212.32 304.66C212.32 305.41 212.92 306.01 213.67 306.01Z" fill="#71869D"/>
<path d="M1.35 336.34C2.09 336.34 2.7 335.74 2.7 334.99C2.7 334.24 2.1 333.64 1.35 333.64C0.6 333.64 0 334.24 0 334.99C0 335.74 0.6 336.34 1.35 336.34Z" fill="#71869D"/>
<path d="M31.6801 336.34C32.4201 336.34 33.0301 335.74 33.0301 334.99C33.0301 334.24 32.4301 333.64 31.6801 333.64C30.9301 333.64 30.3301 334.24 30.3301 334.99C30.3301 335.74 30.9301 336.34 31.6801 336.34Z" fill="#71869D"/>
<path d="M62.0099 336.34C62.7499 336.34 63.3599 335.74 63.3599 334.99C63.3599 334.24 62.7599 333.64 62.0099 333.64C61.2599 333.64 60.6599 334.24 60.6599 334.99C60.6599 335.74 61.2599 336.34 62.0099 336.34Z" fill="#71869D"/>
<path d="M92.34 336.34C93.08 336.34 93.69 335.74 93.69 334.99C93.69 334.24 93.09 333.64 92.34 333.64C91.59 333.64 90.99 334.24 90.99 334.99C90.99 335.74 91.59 336.34 92.34 336.34Z" fill="#71869D"/>
<path d="M122.67 336.34C123.42 336.34 124.02 335.74 124.02 334.99C124.02 334.24 123.42 333.64 122.67 333.64C121.92 333.64 121.32 334.24 121.32 334.99C121.32 335.74 121.92 336.34 122.67 336.34Z" fill="#71869D"/>
<path d="M153 336.34C153.74 336.34 154.35 335.74 154.35 334.99C154.35 334.24 153.75 333.64 153 333.64C152.25 333.64 151.65 334.24 151.65 334.99C151.65 335.74 152.25 336.34 153 336.34Z" fill="#71869D"/>
<path d="M1.35 366.67C2.09 366.67 2.7 366.07 2.7 365.32C2.7 364.57 2.1 363.97 1.35 363.97C0.6 363.97 0 364.57 0 365.32C0 366.07 0.6 366.67 1.35 366.67Z" fill="#71869D"/>
<path d="M31.6801 366.67C32.4201 366.67 33.0301 366.07 33.0301 365.32C33.0301 364.57 32.4301 363.97 31.6801 363.97C30.9301 363.97 30.3301 364.57 30.3301 365.32C30.3301 366.07 30.9301 366.67 31.6801 366.67Z" fill="#71869D"/>
<path d="M62.0099 366.67C62.7499 366.67 63.3599 366.07 63.3599 365.32C63.3599 364.57 62.7599 363.97 62.0099 363.97C61.2599 363.97 60.6599 364.57 60.6599 365.32C60.6599 366.07 61.2599 366.67 62.0099 366.67Z" fill="#71869D"/>
<path d="M92.34 366.67C93.08 366.67 93.69 366.07 93.69 365.32C93.69 364.57 93.09 363.97 92.34 363.97C91.59 363.97 90.99 364.57 90.99 365.32C90.99 366.07 91.59 366.67 92.34 366.67Z" fill="#71869D"/>
<path d="M122.67 366.67C123.42 366.67 124.02 366.07 124.02 365.32C124.02 364.57 123.42 363.97 122.67 363.97C121.92 363.97 121.32 364.57 121.32 365.32C121.32 366.07 121.92 366.67 122.67 366.67Z" fill="#71869D"/>
<path d="M153 366.67C153.74 366.67 154.35 366.07 154.35 365.32C154.35 364.57 153.75 363.97 153 363.97C152.25 363.97 151.65 364.57 151.65 365.32C151.65 366.07 152.25 366.67 153 366.67Z" fill="#71869D"/>
<path d="M1.35 397C2.09 397 2.7 396.4 2.7 395.65C2.7 394.9 2.1 394.3 1.35 394.3C0.6 394.3 0 394.9 0 395.65C0 396.4 0.6 397 1.35 397Z" fill="#71869D"/>
<path d="M31.6801 397C32.4201 397 33.0301 396.4 33.0301 395.65C33.0301 394.9 32.4301 394.3 31.6801 394.3C30.9301 394.3 30.3301 394.9 30.3301 395.65C30.3301 396.4 30.9301 397 31.6801 397Z" fill="#71869D"/>
<path d="M62.0099 397C62.7499 397 63.3599 396.4 63.3599 395.65C63.3599 394.9 62.7599 394.3 62.0099 394.3C61.2599 394.3 60.6599 394.9 60.6599 395.65C60.6599 396.4 61.2599 397 62.0099 397Z" fill="#71869D"/>
<path d="M92.34 397C93.08 397 93.69 396.4 93.69 395.65C93.69 394.9 93.09 394.3 92.34 394.3C91.59 394.3 90.99 394.9 90.99 395.65C90.99 396.4 91.59 397 92.34 397Z" fill="#71869D"/>
<path d="M122.67 397C123.42 397 124.02 396.4 124.02 395.65C124.02 394.9 123.42 394.3 122.67 394.3C121.92 394.3 121.32 394.9 121.32 395.65C121.32 396.4 121.92 397 122.67 397Z" fill="#71869D"/>
<path d="M153 397C153.74 397 154.35 396.4 154.35 395.65C154.35 394.9 153.75 394.3 153 394.3C152.25 394.3 151.65 394.9 151.65 395.65C151.65 396.4 152.25 397 153 397Z" fill="#71869D"/>
<path d="M183.33 336.34C184.07 336.34 184.68 335.74 184.68 334.99C184.68 334.24 184.08 333.64 183.33 333.64C182.58 333.64 181.98 334.24 181.98 334.99C181.98 335.74 182.58 336.34 183.33 336.34Z" fill="#71869D"/>
<path d="M213.67 336.34C214.41 336.34 215.02 335.74 215.02 334.99C215.02 334.24 214.42 333.64 213.67 333.64C212.92 333.64 212.32 334.24 212.32 334.99C212.32 335.74 212.92 336.34 213.67 336.34Z" fill="#71869D"/>
<path d="M183.33 366.67C184.07 366.67 184.68 366.07 184.68 365.32C184.68 364.57 184.08 363.97 183.33 363.97C182.58 363.97 181.98 364.57 181.98 365.32C181.98 366.07 182.58 366.67 183.33 366.67Z" fill="#71869D"/>
<path d="M213.67 366.67C214.41 366.67 215.02 366.07 215.02 365.32C215.02 364.57 214.42 363.97 213.67 363.97C212.92 363.97 212.32 364.57 212.32 365.32C212.32 366.07 212.92 366.67 213.67 366.67Z" fill="#71869D"/>
<path d="M183.33 397C184.07 397 184.68 396.4 184.68 395.65C184.68 394.9 184.08 394.3 183.33 394.3C182.58 394.3 181.98 394.9 181.98 395.65C181.98 396.4 182.58 397 183.33 397Z" fill="#71869D"/>
<path d="M213.67 397C214.41 397 215.02 396.4 215.02 395.65C215.02 394.9 214.42 394.3 213.67 394.3C212.92 394.3 212.32 394.9 212.32 395.65C212.32 396.4 212.92 397 213.67 397Z" fill="#71869D"/>
</g>
<g filter="url(#filter0_d_103_1923)">
<path d="M496 77.5801V456C496 463.73 489.73 470 482 470H100.43C98.0101 470 95.7201 469.38 93.7301 468.29C89.5501 466.01 86.6501 461.66 86.4401 456.58L81.2701 332.18L80.6501 317.12L73.5101 145.31C73.2201 138.27 78.2001 132.11 85.1501 130.93L479.65 63.7801C488.2 62.3301 496 68.9101 496 77.5801Z" fill="url(#paint0_linear_103_1923)"/>
</g>
<mask id="mask1_103_1923" style="mask-type:alpha" maskUnits="userSpaceOnUse" x="79" y="317" width="521" height="227">
<path d="M323 322.501L497.86 317L599.86 521.497C595.86 553.497 570.36 540.497 497.86 542.192L210.86 542.611C210.86 542.611 93.9996 549 86.9999 468C80.0001 387 79.5 317 79.5 317L323 322.501Z" fill="#BDCDFF"/>
</mask>
<g mask="url(#mask1_103_1923)">
<g filter="url(#filter1_d_103_1923)">
<path d="M496 77.5801V456C496 463.73 489.73 470 482 470H100.43C98.0101 470 95.7201 469.38 93.7301 468.29C89.5501 466.01 86.6501 461.66 86.4401 456.58L81.2701 332.18L80.6501 317.12L73.5101 145.31C73.2201 138.27 78.2001 132.11 85.1501 130.93L479.65 63.7801C488.2 62.3301 496 68.9101 496 77.5801Z" fill="#BDCDFF"/>
</g>
</g>
<path d="M286.31 316.829C295.67 309.129 301.55 298.069 302.66 286.089L303.07 281.559L315.18 279.449L342.28 281.559L342.69 286.089C343.8 298.069 349.68 309.139 359.04 316.829L359.39 317.109H285.95L286.3 316.829H286.32H286.31Z" fill="#FFFFFB"/>
<path opacity="0.8" d="M343.22 286.089C343.62 290.309 344.63 294.409 346.2 298.289H299.12C300.68 294.409 301.7 290.309 302.1 286.089L302.52 281.559L314.96 279.449L342.79 281.559L343.21 286.089H343.23H343.22Z" fill="#CCCBCA"/>
<path d="M239.84 164.579H407.36C412.07 164.579 415.87 168.389 415.87 173.119V282.219C415.87 286.939 412.06 290.759 407.36 290.759H239.84C235.13 290.759 231.33 286.949 231.33 282.219V173.119C231.33 168.399 235.14 164.579 239.84 164.579Z" fill="#00325B"/>
<path d="M236.98 170.229H408.35V264.39H236.98V170.229Z" fill="white"/>
<path d="M415.88 271.92V282.25C415.88 286.95 412.07 290.75 407.37 290.75H239.84C235.13 290.75 231.33 286.95 231.33 282.25V271.92H415.88Z" fill="#FFFFFB"/>
<path opacity="0.8" d="M322.66 285.1C320.06 285.1 317.95 283 317.95 280.39C317.95 277.78 320.05 275.68 322.66 275.68C325.27 275.68 327.37 277.78 327.37 280.39C327.37 283 325.27 285.1 322.66 285.1Z" fill="#CCCBCA"/>
<path d="M265.42 183.69L266.08 184.33C266.08 184.33 266.2 184.37 266.24 184.33L266.34 184.23C266.34 184.23 266.38 184.11 266.34 184.06L265.89 183.61L266.34 183.16C266.34 183.16 266.38 183.04 266.34 182.99L266.24 182.89C266.24 182.89 266.12 182.85 266.08 182.89L265.42 183.53C265.42 183.53 265.38 183.65 265.42 183.69Z" fill="black"/>
<path d="M267.11 182.39V184.82H264.66V182.39H267.11Z" fill="white"/>
<path d="M241.39 173.22H405.04C405.33 173.22 405.58 173.45 405.58 173.74V261.92C405.58 262.21 405.35 262.44 405.04 262.44H241.39C241.1 262.44 240.85 262.21 240.85 261.92V173.74C240.85 173.45 241.08 173.22 241.39 173.22Z" fill="white"/>
<path d="M405.63 173.519C405.61 173.469 405.59 173.419 405.55 173.379C405.51 173.319 405.46 173.259 405.39 173.219C405.29 173.149 405.17 173.109 405.04 173.109H241.39C241.25 173.109 241.13 173.149 241.02 173.219L241 173.239C240.94 173.279 240.89 173.339 240.85 173.399C240.79 173.489 240.75 173.609 240.75 173.729V261.919C240.75 262.249 241.04 262.529 241.39 262.529H405.04C405.39 262.529 405.67 262.269 405.67 261.919V173.729C405.67 173.659 405.66 173.589 405.63 173.519ZM405.43 261.919C405.43 262.139 405.24 262.329 405.02 262.329H241.36C241.14 262.329 240.95 262.139 240.95 261.919V173.729C240.95 173.549 241.06 173.409 241.21 173.349C241.26 173.329 241.3 173.319 241.35 173.319H405.01C405.23 173.319 405.42 173.499 405.42 173.729V261.919H405.43Z" fill="#B8CDEB"/>
<g opacity="0.05">
<path d="M399.28 223.449H247.73V250.869H399.28V223.449Z" fill="#7093FF"/>
</g>
<path d="M339.03 223.449H247.73V227.539L247.8 227.559V223.509H339.15L339.03 223.449ZM339.03 223.449H247.73V227.539L247.8 227.559V223.509H339.15L339.03 223.449ZM339.03 223.449H247.73V227.539L247.8 227.559V223.509H339.15L339.03 223.449ZM247.69 223.409V250.929H399.35V223.409H247.69ZM399.24 250.829H247.8V223.509H399.24V250.829ZM339.03 223.449H247.73V227.539L247.8 227.559V223.509H339.15L339.03 223.449ZM339.03 223.449H247.73V227.539L247.8 227.559V223.509H339.15L339.03 223.449ZM339.03 223.449H247.73V227.539L247.8 227.559V223.509H339.15L339.03 223.449Z" fill="#B8CDEB"/>
<g opacity="0.05">
<path d="M399.28 192.609H247.73V220.029H399.28V192.609Z" fill="#7093FF"/>
</g>
<path d="M247.69 192.569V220.089H399.35V192.569H247.69ZM399.24 219.989H247.8V192.669H399.24V219.989Z" fill="#B8CDEB"/>
<path d="M241.9 173.22L240.85 176V173.22H241.9Z" fill="#98B8FF"/>
<path d="M243.49 173.22L241.29 179.09H240.86V176L241.91 173.22H243.5H243.49Z" fill="#97B7FF"/>
<path d="M245.1 173.22L242.87 179.09H241.28L243.48 173.22H245.09H245.1Z" fill="#96B6FF"/>
<path d="M246.68 173.22L244.45 179.09H242.86L245.09 173.22H246.68Z" fill="#95B5FF"/>
<path d="M248.27 173.22L246.04 179.09H244.45L246.68 173.22H248.27Z" fill="#94B4FF"/>
<path d="M249.86 173.22L247.65 179.09H246.04L248.27 173.22H249.86Z" fill="#93B3FF"/>
<path d="M251.46 173.22L249.23 179.09H247.64L249.85 173.22H251.46Z" fill="#92B2FF"/>
<path d="M253.05 173.22L250.82 179.09H249.23L251.46 173.22H253.05Z" fill="#91B1FF"/>
<path d="M254.64 173.22L252.41 179.09H250.82L253.05 173.22H254.64Z" fill="#90B0FF"/>
<path d="M256.23 173.22L254.03 179.09H252.42L254.65 173.22H256.24H256.23Z" fill="#8FAFFF"/>
<path d="M257.84 173.22L255.61 179.09H254.02L256.22 173.22H257.83H257.84Z" fill="#8EAEFF"/>
<path d="M259.42 173.22L257.19 179.09H255.6L257.83 173.22H259.42Z" fill="#8DADFF"/>
<path d="M261.01 173.22L258.78 179.09H257.19L259.42 173.22H261.01Z" fill="#8CACFF"/>
<path d="M262.6 173.22L260.4 179.09H258.79L261.02 173.22H262.61H262.6Z" fill="#8BABFF"/>
<path d="M264.2 173.22L261.97 179.09H260.38L262.58 173.22H264.19H264.2Z" fill="#8AAAFF"/>
<path d="M265.79 173.22L263.56 179.09H261.97L264.2 173.22H265.79Z" fill="#89AAFF"/>
<path d="M267.38 173.22L265.15 179.09H263.56L265.79 173.22H267.38Z" fill="#87A9FF"/>
<path d="M268.97 173.22L266.77 179.09H265.16L267.39 173.22H268.98H268.97Z" fill="#86A8FF"/>
<path d="M270.57 173.22L268.34 179.09H266.75L268.96 173.22H270.57Z" fill="#85A7FF"/>
<path d="M272.16 173.22L269.93 179.09H268.34L270.57 173.22H272.16Z" fill="#84A6FF"/>
<path d="M273.75 173.22L271.52 179.09H269.93L272.16 173.22H273.75Z" fill="#83A5FF"/>
<path d="M275.34 173.22L273.14 179.09H271.53L273.76 173.22H275.35H275.34Z" fill="#82A4FF"/>
<path d="M276.94 173.22L274.71 179.09H273.12L275.33 173.22H276.94Z" fill="#81A3FF"/>
<path d="M278.53 173.22L276.3 179.09H274.71L276.94 173.22H278.53Z" fill="#80A2FF"/>
<path d="M280.12 173.22L277.89 179.09H276.3L278.53 173.22H280.12Z" fill="#7FA1FF"/>
<path d="M281.71 173.22L279.5 179.09H277.89L280.12 173.22H281.71Z" fill="#7EA0FF"/>
<path d="M283.31 173.22L281.08 179.09H279.49L281.7 173.22H283.31Z" fill="#7D9FFF"/>
<path d="M284.9 173.22L282.67 179.09H281.08L283.31 173.22H284.9Z" fill="#7C9EFF"/>
<path d="M286.49 173.22L284.26 179.09H282.67L284.9 173.22H286.49Z" fill="#7B9DFF"/>
<path d="M288.07 173.22L285.87 179.09H284.26L286.49 173.22H288.08H288.07Z" fill="#7A9CFF"/>
<path d="M289.68 173.22L287.45 179.09H285.86L288.06 173.22H289.67H289.68Z" fill="#799BFF"/>
<path d="M291.27 173.22L289.04 179.09H287.45L289.68 173.22H291.27Z" fill="#789BFF"/>
<path d="M292.86 173.22L290.63 179.09H289.04L291.27 173.22H292.86Z" fill="#779AFF"/>
<path d="M294.44 173.22L292.23 179.09H290.62L292.85 173.22H294.44Z" fill="#7699FF"/>
<path d="M296.05 173.22L293.82 179.09H292.23L294.44 173.22H296.05Z" fill="#7598FF"/>
<path d="M297.64 173.22L295.41 179.09H293.82L296.05 173.22H297.64Z" fill="#7497FF"/>
<path d="M299.23 173.22L297 179.09H295.41L297.64 173.22H299.23Z" fill="#7396FF"/>
<path d="M300.83 173.22L298.6 179.09H296.99L299.22 173.22H300.83Z" fill="#7295FF"/>
<path d="M302.42 173.22L300.19 179.09H298.6L300.83 173.22H302.42Z" fill="#7194FF"/>
<path d="M304.01 173.22L301.78 179.09H300.19L302.42 173.22H304.01Z" fill="#7093FF"/>
<path d="M301.78 179.09L304.01 173.22H405.55V179.09H301.78Z" fill="#7093FF"/>
<path d="M405.41 173.109H240.97C240.97 173.109 240.88 173.129 240.85 173.159C240.79 173.219 240.75 173.299 240.75 173.299V179.189H405.63V173.299C405.63 173.219 405.55 173.109 405.41 173.109ZM405.45 178.989H240.95V173.319H405.45V178.989Z" fill="#7091F5"/>
<path d="M244.6 176.27H244.95V176.6C244.95 176.6 244.91 176.64 244.89 176.64C244.87 176.66 244.83 176.68 244.79 176.68H244.62C244.54 176.68 244.5 176.66 244.44 176.64C244.37 176.62 244.33 176.58 244.29 176.54C244.27 176.51 244.24 176.48 244.23 176.44C244.22 176.42 244.21 176.39 244.21 176.37C244.19 176.31 244.19 176.14 244.19 176.14V176.02C244.19 175.94 244.21 175.86 244.21 175.79C244.23 175.73 244.25 175.67 244.29 175.63H244.3C244.3 175.63 244.37 175.55 244.42 175.53C244.46 175.48 244.52 175.48 244.58 175.48C244.66 175.48 244.72 175.5 244.77 175.53C244.81 175.55 244.85 175.59 244.87 175.63C244.91 175.67 244.93 175.77 244.93 175.77H245.2C245.2 175.67 245.16 175.59 245.12 175.5C245.08 175.42 244.99 175.36 244.91 175.32C244.83 175.28 244.72 175.26 244.58 175.26C244.49 175.26 244.39 175.28 244.32 175.31C244.31 175.31 244.3 175.31 244.3 175.32H244.29C244.21 175.34 244.15 175.4 244.09 175.46C244.02 175.53 243.98 175.61 243.94 175.71C243.9 175.81 243.9 175.92 243.9 176.04V176.14C243.9 176.21 243.9 176.28 243.9 176.34C243.9 176.34 243.91 176.43 243.93 176.47C243.97 176.58 244.01 176.66 244.08 176.72C244.11 176.75 244.15 176.78 244.19 176.81C244.23 176.83 244.26 176.85 244.3 176.87C244.38 176.91 244.49 176.91 244.59 176.91C244.71 176.91 244.82 176.89 244.9 176.87C244.96 176.84 245.04 176.82 245.09 176.78L245.19 176.68V176.06H244.59V176.27H244.6ZM246.54 176.41V176.29C246.54 176.2 246.52 176.12 246.5 176.06V176.04C246.48 175.98 246.44 175.92 246.4 175.86C246.36 175.8 246.3 175.76 246.25 175.74C246.25 175.74 246.243 175.736 246.23 175.73C246.17 175.69 246.09 175.69 246 175.69C245.94 175.69 245.88 175.7 245.83 175.71C245.81 175.71 245.8 175.71 245.78 175.73C245.76 175.73 245.74 175.74 245.72 175.76C245.66 175.77 245.62 175.81 245.59 175.86C245.53 175.9 245.49 175.96 245.47 176.04C245.43 176.1 245.43 176.29 245.43 176.29V176.33C245.43 176.33 245.44 176.42 245.45 176.47C245.45 176.47 245.46 176.53 245.47 176.56L245.59 176.74C245.63 176.8 245.69 176.84 245.78 176.87C245.86 176.91 246.02 176.91 246.02 176.91L246.04 176.95H246.05C246.14 176.95 246.19 176.93 246.25 176.91C246.31 176.89 246.37 176.87 246.41 176.82C246.46 176.8 246.52 176.72 246.52 176.72L246.37 176.58C246.37 176.58 246.29 176.66 246.25 176.68C246.21 176.72 246.16 176.72 246.1 176.72C246.03 176.72 245.99 176.7 245.95 176.7C245.91 176.68 245.87 176.66 245.85 176.62C245.83 176.58 245.79 176.54 245.79 176.49C245.78 176.47 245.78 176.44 245.78 176.41H246.55H246.54ZM245.76 176.23V176.14L245.82 176.02C245.82 176.02 245.86 175.94 245.9 175.94C245.94 175.92 245.98 175.92 246.02 175.92C246.09 175.92 246.13 175.94 246.17 175.96C246.18 175.96 246.2 175.98 246.21 175.99C246.23 176.01 246.25 176.03 246.25 176.06C246.27 176.1 246.27 176.23 246.27 176.23H245.76ZM247.65 176.41C247.61 176.35 247.55 176.31 247.49 176.29C247.41 176.25 247.34 176.21 247.24 176.21C247.21 176.2 247.18 176.17 247.15 176.17C247.14 176.16 247.13 176.16 247.12 176.16C247.07 176.14 247.03 176.12 247.03 176.12L246.99 176.08V176.02C246.99 176.02 247.01 175.96 247.01 175.94C247.01 175.92 247.05 175.88 247.07 175.88C247.12 175.86 247.16 175.86 247.2 175.86C247.22 175.86 247.24 175.86 247.26 175.87C247.28 175.88 247.3 175.88 247.32 175.88C247.36 175.9 247.41 175.92 247.41 175.94C247.42 175.96 247.42 176.02 247.42 176.02H247.69C247.69 175.96 247.67 175.9 247.63 175.83C247.59 175.77 247.55 175.73 247.47 175.69C247.42 175.67 247.38 175.66 247.34 175.66C247.3 175.66 247.25 175.66 247.2 175.66C247.12 175.66 247.05 175.68 246.99 175.68C246.93 175.7 246.89 175.72 246.85 175.76C246.81 175.8 246.77 175.84 246.74 175.89C246.7 175.93 246.7 175.99 246.7 176.03C246.7 176.07 246.73 176.11 246.74 176.15C246.75 176.17 246.76 176.18 246.77 176.2C246.77 176.2 246.8 176.25 246.83 176.26C246.87 176.3 246.91 176.34 246.97 176.34C247.01 176.35 247.05 176.36 247.08 176.37H247.1C247.1 176.37 247.14 176.38 247.16 176.38C247.22 176.38 247.28 176.42 247.32 176.42C247.36 176.44 247.41 176.46 247.41 176.48V176.57L247.45 176.63C247.45 176.63 247.42 176.69 247.42 176.71C247.41 176.73 247.38 176.77 247.34 176.77H247.1C247.1 176.77 247.01 176.73 246.99 176.71C246.98 176.7 246.97 176.69 246.97 176.67V176.65L246.95 176.59H246.68C246.68 176.65 246.7 176.71 246.74 176.77C246.77 176.82 246.81 176.86 246.88 176.9C246.89 176.91 246.9 176.91 246.91 176.92C246.99 176.98 247.1 176.98 247.2 176.98C247.28 176.98 247.34 176.96 247.41 176.96C247.47 176.94 247.53 176.92 247.57 176.88C247.61 176.83 247.65 176.79 247.67 176.75C247.69 176.73 247.7 176.71 247.7 176.68C247.71 176.66 247.71 176.64 247.71 176.61C247.71 176.52 247.69 176.46 247.65 176.42V176.41ZM247.8 175.67V175.86H248.48V175.67H247.8ZM248.35 176.68H248.29L248.25 176.64V175.38H247.98L247.96 175.34V176.51C247.96 176.6 247.98 176.68 248 176.72C248.02 176.76 248.06 176.8 248.11 176.82C248.15 176.87 248.21 176.87 248.27 176.87H248.46V176.68H248.35ZM248.7 175.67V176.87H248.97V175.67H248.7ZM248.97 175.26C248.97 175.26 248.91 175.22 248.85 175.22C248.79 175.22 248.75 175.24 248.72 175.26C248.68 175.28 248.68 175.36 248.68 175.36C248.68 175.4 248.7 175.44 248.72 175.46C248.76 175.5 248.79 175.5 248.85 175.5C248.91 175.5 248.95 175.48 248.97 175.46C249.01 175.44 249.01 175.4 249.01 175.36C249.01 175.32 248.99 175.28 248.97 175.26ZM250.36 176.13C250.36 176.13 250.34 176.06 250.33 176.02C250.31 175.96 250.27 175.9 250.23 175.83C250.17 175.79 250.11 175.73 250.04 175.71C249.96 175.67 249.9 175.67 249.8 175.67C249.69 175.67 249.61 175.67 249.55 175.71C249.47 175.73 249.4 175.77 249.36 175.83C249.32 175.88 249.28 175.94 249.26 176.02C249.22 176.1 249.22 176.19 249.22 176.29C249.22 176.39 249.24 176.45 249.26 176.54C249.28 176.6 249.32 176.66 249.36 176.72C249.43 176.76 249.49 176.8 249.55 176.84C249.63 176.89 249.69 176.89 249.8 176.89C249.9 176.89 249.98 176.87 250.04 176.84C250.06 176.84 250.08 176.83 250.1 176.82C250.16 176.8 250.2 176.77 250.23 176.72C250.27 176.68 250.31 176.62 250.33 176.54C250.37 176.45 250.37 176.37 250.37 176.27C250.37 176.22 250.36 176.17 250.36 176.13ZM250.04 176.31V176.45C250.04 176.45 250 176.54 249.98 176.58C249.96 176.62 249.94 176.64 249.9 176.66C249.88 176.7 249.84 176.7 249.77 176.7C249.71 176.7 249.67 176.68 249.63 176.66C249.61 176.64 249.57 176.62 249.55 176.58C249.51 176.54 249.49 176.49 249.49 176.45V176.27H249.51V176.12L249.57 176C249.57 176 249.61 175.94 249.65 175.92C249.67 175.88 249.73 175.88 249.77 175.88C249.82 175.88 249.86 175.9 249.9 175.92C249.92 175.94 249.96 175.96 249.98 176C250.02 176.04 250.04 176.08 250.04 176.12V176.31ZM249.86 175.18L249.63 175.5H249.86L250.17 175.18H249.86ZM250.83 175.94V175.69H250.58V176.89H250.85V175.94H250.83ZM251.59 175.92C251.57 175.86 251.55 175.81 251.51 175.77C251.46 175.73 251.42 175.69 251.38 175.69C251.32 175.67 251.28 175.67 251.22 175.67C251.14 175.67 251.07 175.69 251.01 175.71C250.97 175.75 250.91 175.79 250.87 175.83C250.86 175.85 250.84 175.88 250.83 175.9C250.8 175.94 250.78 175.98 250.77 176.02C250.72 176.08 250.72 176.25 250.72 176.25H250.83V176.1C250.83 176.1 250.84 176.06 250.85 176.05C250.86 176.02 250.88 176.01 250.89 175.98C250.93 175.94 250.95 175.9 250.99 175.9C251.03 175.88 251.05 175.88 251.12 175.88C251.18 175.88 251.2 175.9 251.24 175.9C251.28 175.92 251.32 175.94 251.32 175.98C251.34 176.02 251.34 176.12 251.34 176.12V176.91H251.61V176.12C251.61 176.04 251.59 175.98 251.59 175.92ZM253.2 175.18V176.64H253.22V176.89H253.47V175.18H253.2ZM253.3 176.04C253.26 175.98 253.24 175.92 253.2 175.86C253.16 175.79 253.11 175.75 253.05 175.73C253.01 175.69 252.95 175.69 252.87 175.69C252.79 175.69 252.72 175.71 252.66 175.73C252.6 175.75 252.56 175.79 252.52 175.86C252.48 175.9 252.43 175.96 252.41 176.04C252.37 176.1 252.37 176.19 252.37 176.31V176.35C252.37 176.43 252.39 176.51 252.41 176.6C252.43 176.66 252.48 176.72 252.52 176.78C252.56 176.82 252.6 176.89 252.66 176.91C252.72 176.95 252.81 176.95 252.87 176.95C252.93 176.95 252.99 176.93 253.05 176.91C253.11 176.87 253.16 176.84 253.2 176.78C253.21 176.77 253.21 176.76 253.22 176.75C253.25 176.7 253.28 176.65 253.3 176.6C253.32 176.54 253.34 176.37 253.34 176.37V176.29C253.34 176.19 253.32 176.1 253.3 176.04ZM253.18 176.41C253.18 176.41 253.16 176.51 253.14 176.56C253.09 176.6 253.07 176.64 253.03 176.66C252.99 176.7 252.95 176.7 252.89 176.7C252.85 176.7 252.81 176.68 252.76 176.68C252.72 176.66 252.7 176.64 252.68 176.6C252.66 176.56 252.64 176.51 252.64 176.47V176.14C252.64 176.14 252.66 176.06 252.68 176.02C252.7 175.98 252.72 175.96 252.76 175.94C252.81 175.9 252.85 175.9 252.89 175.9C252.93 175.9 252.97 175.92 253.01 175.92C253.03 175.94 253.07 175.96 253.09 175.98C253.11 176.02 253.16 176.04 253.16 176.08C253.18 176.12 253.18 176.21 253.18 176.21V176.41ZM254.78 176.31C254.78 176.21 254.76 176.12 254.74 176.06C254.72 176 254.68 175.94 254.64 175.88C254.6 175.81 254.54 175.77 254.48 175.75C254.41 175.71 254.33 175.71 254.25 175.71C254.17 175.71 254.08 175.73 254.02 175.75C253.94 175.77 253.88 175.81 253.84 175.88C253.77 175.92 253.73 175.98 253.71 176.06C253.67 176.12 253.67 176.31 253.67 176.31V176.35C253.67 176.43 253.69 176.51 253.71 176.58C253.75 176.64 253.8 176.7 253.84 176.76C253.88 176.82 253.94 176.87 254.02 176.89C254.1 176.93 254.27 176.93 254.27 176.93L254.29 176.97C254.37 176.97 254.43 176.95 254.5 176.93C254.56 176.91 254.62 176.89 254.66 176.84C254.7 176.82 254.76 176.74 254.76 176.74L254.62 176.6C254.62 176.6 254.54 176.68 254.5 176.7C254.45 176.74 254.39 176.74 254.33 176.74C254.27 176.74 254.23 176.72 254.19 176.72C254.15 176.7 254.1 176.68 254.08 176.64C254.06 176.6 254.02 176.56 254.02 176.51C254.01 176.49 254.01 176.46 254.01 176.43H254.78V176.31ZM254 176.25V176.16L254.06 176.04C254.06 176.04 254.1 175.96 254.15 175.96C254.19 175.94 254.23 175.94 254.27 175.94C254.33 175.94 254.37 175.96 254.41 175.98C254.45 176 254.5 176.04 254.5 176.08C254.52 176.12 254.52 176.25 254.52 176.25H254ZM256.54 176.37H256.59C256.59 176.37 256.59 176.34 256.59 176.33L256.53 176.37H256.54ZM256.54 176.37H256.59C256.59 176.37 256.59 176.34 256.59 176.33L256.53 176.37H256.54ZM256.54 176.37H256.59C256.59 176.37 256.59 176.34 256.59 176.33L256.53 176.37H256.54ZM256.78 175.5C256.74 175.4 256.66 175.34 256.58 175.3C256.5 175.26 256.37 175.24 256.25 175.24C256.14 175.24 256.04 175.26 255.96 175.3C255.88 175.32 255.82 175.38 255.75 175.44C255.69 175.53 255.65 175.59 255.61 175.69C255.57 175.77 255.57 175.88 255.57 176V176.14C255.57 176.25 255.59 176.35 255.61 176.45C255.63 176.56 255.67 176.64 255.73 176.7C255.79 176.76 255.86 176.8 255.94 176.84C256.02 176.91 256.1 176.91 256.21 176.91C256.29 176.91 256.38 176.91 256.45 176.87C256.48 176.87 256.51 176.86 256.54 176.84C256.62 176.8 256.7 176.74 256.74 176.66C256.78 176.58 256.83 176.47 256.83 176.37H256.59C256.57 176.43 256.56 176.48 256.54 176.51C256.5 176.56 256.45 176.6 256.41 176.62C256.37 176.66 256.31 176.66 256.23 176.66C256.17 176.66 256.1 176.64 256.06 176.62C256 176.6 255.96 176.56 255.94 176.51C255.92 176.47 255.88 176.41 255.88 176.35C255.86 176.29 255.86 176.12 255.86 176.12V175.98C255.86 175.9 255.88 175.81 255.88 175.75C255.9 175.69 255.92 175.63 255.96 175.59C256 175.55 256.04 175.53 256.08 175.48C256.12 175.44 256.19 175.44 256.25 175.44C256.33 175.44 256.39 175.46 256.43 175.48C256.47 175.53 256.52 175.57 256.54 175.61C256.56 175.67 256.58 175.79 256.58 175.79H256.87C256.87 175.68 256.83 175.59 256.78 175.5ZM256.54 176.37H256.59C256.59 176.37 256.59 176.34 256.59 176.33L256.53 176.37H256.54ZM256.54 176.37H256.59C256.59 176.37 256.59 176.34 256.59 176.33L256.53 176.37H256.54ZM256.54 176.37H256.59C256.59 176.37 256.59 176.34 256.59 176.33L256.53 176.37H256.54ZM258 176.76V176.08C258 176 257.98 175.92 257.94 175.86C257.9 175.79 257.84 175.73 257.77 175.71C257.69 175.67 257.61 175.67 257.53 175.67C257.44 175.67 257.38 175.69 257.32 175.69C257.26 175.71 257.2 175.73 257.15 175.77C257.11 175.81 257.07 175.86 257.05 175.9C257.01 175.94 257.01 176.04 257.01 176.04H257.28C257.28 176.04 257.3 175.98 257.3 175.96C257.32 175.94 257.34 175.9 257.38 175.9C257.42 175.88 257.46 175.88 257.51 175.88C257.57 175.88 257.59 175.9 257.63 175.9C257.67 175.92 257.71 175.94 257.71 175.98C257.73 176 257.73 176.08 257.73 176.08V176.78L257.75 176.87H258.04C258.04 176.87 258 176.8 258 176.76ZM257.77 176.45C257.77 176.45 257.75 176.51 257.73 176.56C257.71 176.6 257.67 176.62 257.63 176.64C257.59 176.68 257.55 176.68 257.48 176.68C257.44 176.68 257.4 176.66 257.38 176.66C257.36 176.64 257.32 176.62 257.32 176.6C257.3 176.58 257.3 176.54 257.3 176.51V176.43C257.3 176.43 257.34 176.37 257.36 176.37C257.4 176.35 257.42 176.33 257.46 176.33H257.77V176.16L257.81 176.14H257.61C257.51 176.14 257.42 176.16 257.36 176.16C257.28 176.19 257.22 176.21 257.18 176.25C257.13 176.29 257.09 176.33 257.07 176.37C257.03 176.41 257.03 176.47 257.03 176.54C257.03 176.6 257.05 176.66 257.09 176.72C257.13 176.76 257.18 176.8 257.24 176.84C257.3 176.89 257.36 176.89 257.44 176.89C257.51 176.89 257.57 176.87 257.61 176.87C257.65 176.84 257.69 176.82 257.73 176.78C257.77 176.74 257.79 176.72 257.81 176.68C257.84 176.64 257.86 176.58 257.86 176.58L257.77 176.45ZM258.54 175.94V175.69H258.29V176.89H258.56V175.94H258.54ZM259.28 175.9C259.28 175.9 259.27 175.88 259.26 175.87C259.25 175.84 259.23 175.8 259.2 175.77C259.15 175.73 259.11 175.69 259.07 175.69C259.03 175.67 258.99 175.67 258.93 175.67C258.85 175.67 258.78 175.69 258.72 175.71C258.66 175.73 258.62 175.77 258.58 175.83C258.57 175.86 258.56 175.9 258.54 175.93C258.54 175.93 258.5 175.99 258.49 176.02C258.45 176.08 258.45 176.25 258.45 176.25H258.56V176.1C258.56 176.04 258.58 176.02 258.6 175.98C258.62 175.94 258.64 175.9 258.68 175.9C258.7 175.88 258.76 175.88 258.8 175.88C258.87 175.88 258.89 175.9 258.93 175.9C258.97 175.9 259.01 175.92 259.01 175.96C259.03 176 259.03 176.1 259.03 176.1V176.89H259.3V176.08C259.3 176.02 259.28 175.96 259.28 175.9ZM260 175.92C260 175.92 260 175.91 259.99 175.9C259.97 175.85 259.96 175.8 259.92 175.77C259.88 175.73 259.83 175.69 259.79 175.69C259.75 175.67 259.69 175.67 259.63 175.67C259.55 175.67 259.48 175.69 259.42 175.71C259.36 175.75 259.32 175.79 259.28 175.83C259.28 175.84 259.27 175.86 259.26 175.87C259.24 175.91 259.22 175.96 259.2 176C259.17 176.06 259.17 176.19 259.17 176.19H259.3V176.08C259.3 176.08 259.32 176.02 259.34 176C259.36 175.98 259.38 175.94 259.42 175.94C259.44 175.92 259.48 175.92 259.53 175.92H259.65C259.65 175.92 259.73 175.94 259.73 175.98C259.75 176.02 259.75 176.12 259.75 176.12V176.91H260.02V176.12C260.02 176.04 260 175.98 260 175.92ZM261.28 176.76V176.08C261.28 176 261.26 175.92 261.22 175.86C261.17 175.79 261.11 175.73 261.05 175.71C260.97 175.67 260.89 175.67 260.8 175.67C260.72 175.67 260.66 175.69 260.6 175.69C260.54 175.71 260.47 175.73 260.43 175.77C260.39 175.81 260.35 175.86 260.33 175.9C260.29 175.94 260.29 176.04 260.29 176.04H260.56C260.56 176.04 260.58 175.98 260.58 175.96C260.6 175.94 260.62 175.92 260.66 175.9C260.7 175.88 260.74 175.88 260.78 175.88C260.84 175.88 260.87 175.9 260.91 175.9C260.95 175.92 260.99 175.94 260.99 175.98C261.01 176 261.01 176.08 261.01 176.08V176.78L261.03 176.87H261.32C261.32 176.87 261.28 176.8 261.28 176.76ZM261.05 176.45C261.05 176.45 261.03 176.51 261.01 176.56C260.99 176.6 260.95 176.62 260.91 176.64C260.87 176.68 260.82 176.68 260.76 176.68C260.72 176.68 260.68 176.66 260.66 176.66C260.64 176.64 260.6 176.62 260.6 176.6C260.58 176.58 260.58 176.54 260.58 176.51V176.43C260.58 176.43 260.62 176.37 260.64 176.37C260.68 176.35 260.7 176.33 260.74 176.33H261.05V176.16L261.09 176.14H260.89C260.78 176.14 260.7 176.16 260.64 176.16C260.56 176.19 260.49 176.21 260.45 176.25C260.41 176.29 260.37 176.33 260.35 176.37C260.31 176.41 260.31 176.47 260.31 176.54C260.31 176.6 260.33 176.66 260.37 176.72C260.41 176.76 260.45 176.8 260.51 176.84C260.58 176.89 260.64 176.89 260.72 176.89C260.78 176.89 260.84 176.87 260.89 176.87C260.93 176.84 260.97 176.82 261.01 176.78C261.05 176.74 261.07 176.72 261.09 176.68C261.11 176.64 261.13 176.58 261.13 176.58L261.05 176.45ZM262.49 176.43C262.45 176.37 262.39 176.33 262.33 176.31C262.25 176.27 262.18 176.23 262.08 176.23C262.04 176.21 262 176.19 261.96 176.19C261.92 176.16 261.88 176.14 261.88 176.14C261.85 176.12 261.83 176.1 261.83 176.1V176.04C261.83 176.04 261.85 175.98 261.85 175.96C261.85 175.94 261.9 175.9 261.92 175.9C261.96 175.88 262 175.88 262.04 175.88C262.08 175.88 262.12 175.9 262.16 175.9C262.21 175.92 262.25 175.94 262.25 175.96C262.27 175.98 262.27 176.04 262.27 176.04H262.53C262.53 175.98 262.51 175.92 262.47 175.86C262.43 175.79 262.39 175.75 262.31 175.71C262.23 175.67 262.14 175.67 262.04 175.67C261.96 175.67 261.9 175.69 261.83 175.69C261.77 175.71 261.73 175.73 261.69 175.77C261.65 175.81 261.61 175.86 261.59 175.9C261.56 175.93 261.56 175.96 261.56 175.99C261.55 176.01 261.55 176.03 261.55 176.04C261.55 176.08 261.57 176.12 261.59 176.16C261.61 176.21 261.63 176.25 261.67 176.27C261.71 176.31 261.75 176.35 261.81 176.35C261.88 176.37 261.94 176.39 262 176.39C262.06 176.39 262.12 176.43 262.16 176.43C262.21 176.45 262.25 176.47 262.25 176.49V176.58L262.29 176.64C262.29 176.64 262.27 176.7 262.27 176.72C262.25 176.74 262.23 176.78 262.18 176.78H261.94C261.94 176.78 261.85 176.74 261.83 176.72C261.79 176.68 261.79 176.6 261.79 176.6H261.52C261.52 176.66 261.55 176.72 261.59 176.78C261.61 176.84 261.67 176.89 261.75 176.93C261.83 176.99 261.94 176.99 262.04 176.99C262.12 176.99 262.18 176.97 262.25 176.97C262.31 176.95 262.37 176.93 262.41 176.89C262.45 176.84 262.49 176.8 262.51 176.76C262.56 176.72 262.56 176.68 262.56 176.62C262.56 176.54 262.53 176.47 262.49 176.43Z" fill="white"/>
<path d="M348.99 176.62L349.49 176.13C349.49 176.13 349.53 176.05 349.49 176.01L349.41 175.93C349.41 175.93 349.33 175.89 349.29 175.93L348.94 176.28L348.59 175.93C348.59 175.93 348.51 175.89 348.47 175.93L348.39 176.01C348.39 176.01 348.35 176.09 348.39 176.13L348.88 176.62C348.88 176.62 348.96 176.66 349 176.62H348.99Z" fill="black"/>
<path d="M348 175.359H349.84V177.189H348V175.359Z" fill="white"/>
<path d="M375.74 176.62L376.23 176.13C376.23 176.13 376.27 176.05 376.23 176.01L376.15 175.93C376.15 175.93 376.07 175.89 376.03 175.93L375.68 176.28L375.33 175.93C375.33 175.93 375.25 175.89 375.21 175.93L375.13 176.01C375.13 176.01 375.09 176.09 375.13 176.13L375.63 176.62C375.63 176.62 375.71 176.66 375.75 176.62H375.74Z" fill="black"/>
<path d="M374.77 175.359H376.61V177.189H374.77V175.359Z" fill="white"/>
<path d="M252.79 201.289H265.3V207.189H252.79V201.289Z" fill="#4D648D"/>
<path d="M252.74 201.25V207.25H265.36V201.25H252.74ZM265.26 207.15H252.85V201.35H265.26V207.15Z" fill="#B8CDEB"/>
<path d="M252.78 232.75H265.29V238.65H252.78V232.75Z" fill="#6BBF59"/>
<path d="M252.74 232.71V238.7H265.36V232.71H252.74ZM265.26 238.6H252.85V232.81H265.26V238.6Z" fill="#B8CDEB"/>
<path d="M295.7 201.289H308.21V207.189H295.7V201.289Z" fill="#4D648D"/>
<path d="M295.66 201.25V207.25H308.28V201.25H295.66ZM308.17 207.15H295.76V201.35H308.17V207.15Z" fill="#B8CDEB"/>
<path d="M295.7 232.75H308.21V238.65H295.7V232.75Z" fill="#4D648D"/>
<path d="M295.66 232.71V238.7H308.28V232.71H295.66ZM308.17 238.6H295.76V232.81H308.17V238.6Z" fill="#B8CDEB"/>
<path d="M324.31 201.289H336.82V207.189H324.31V201.289Z" fill="#4D648D"/>
<path d="M324.25 201.25V207.25H336.87V201.25H324.25ZM336.76 207.15H324.35V201.35H336.76V207.15Z" fill="#B8CDEB"/>
<path d="M324.31 232.75H336.82V238.65H324.31V232.75Z" fill="#4D648D"/>
<path d="M324.25 232.71V238.7H336.87V232.71H324.25ZM336.76 238.6H324.35V232.81H336.76V238.6Z" fill="#B8CDEB"/>
<path d="M381.52 232.77H394.03V238.67H381.52V232.77Z" fill="#4D648D"/>
<path d="M381.47 232.729V238.729H394.09V232.729H381.47ZM393.99 238.619H381.58V232.829H393.99V238.619Z" fill="#B8CDEB"/>
<path d="M267.09 208.96H279.6V214.86H267.09V208.96Z" fill="#4D648D"/>
<path d="M267.05 208.899V214.899H279.66V208.899H267.05ZM279.56 214.789H267.15V208.999H279.56V214.789Z" fill="#B8CDEB"/>
<path d="M267.09 240.439H279.6V246.339H267.09V240.439Z" fill="#4D648D"/>
<path d="M267.05 240.369V246.369H279.66V240.369H267.05ZM279.56 246.269H267.15V240.479H279.56V246.269Z" fill="#B8CDEB"/>
<path d="M367.21 232.56H379.72V238.46H367.21V232.56Z" fill="#6BBF59"/>
<path d="M367.17 232.52V238.52H379.78V232.52H367.17ZM379.68 238.41H367.27V232.62H379.68V238.41Z" fill="#B8CDEB"/>
<path d="M391.14 174.51H387.99V177.62H391.14V174.51Z" fill="#4D648D"/>
<path d="M386.5 174.51H383.35V177.62H386.5V174.51Z" fill="#B1C5FF"/>
<path d="M267.09 201.289H279.6V207.189H267.09V201.289Z" fill="#6BBF59"/>
<path d="M267.05 201.25V207.25H279.66V201.25H267.05ZM279.56 207.15H267.15V201.35H279.56V207.15Z" fill="#6BBF59"/>
<path d="M267.09 232.75H279.6V238.65H267.09V232.75Z" fill="#4F6693"/>
<path d="M267.05 232.71V238.7H279.66V232.71H267.05ZM279.56 238.6H267.15V232.81H279.56V238.6Z" fill="#6BBF59"/>
<path d="M310.01 201.289H322.52V207.189H310.01V201.289Z" fill="#6BBF59"/>
<path d="M309.95 201.25V207.25H322.56V201.25H309.95ZM322.46 207.15H310.05V201.35H322.46V207.15Z" fill="#6BBF59"/>
<path d="M310.01 232.75H322.52V238.65H310.01V232.75Z" fill="#4D648D"/>
<path d="M309.95 232.71V238.7H322.56V232.71H309.95ZM322.46 238.6H310.05V232.81H322.46V238.6Z" fill="#6BBF59"/>
<path d="M338.6 201.289H351.11V207.189H338.6V201.289Z" fill="#6BBF59"/>
<path d="M338.56 201.25V207.25H351.17V201.25H338.56ZM351.07 207.15H338.66V201.35H351.07V207.15Z" fill="#6BBF59"/>
<path d="M338.6 232.75H351.11V238.65H338.6V232.75Z" fill="#6BBF59"/>
<path d="M338.56 232.71V238.7H351.17V232.71H338.56ZM351.07 238.6H338.66V232.81H351.07V238.6Z" fill="#6BBF59"/>
<path d="M352.9 201.289H365.41V207.189H352.9V201.289Z" fill="#4D648D"/>
<path d="M352.86 201.25V207.25H365.48V201.25H352.86ZM365.38 207.15H352.97V201.35H365.38V207.15Z" fill="#6BBF59"/>
<path d="M352.9 232.75H365.41V238.65H352.9V232.75Z" fill="#6BBF59"/>
<path d="M352.86 232.71V238.7H365.48V232.71H352.86ZM365.38 238.6H352.97V232.81H365.38V238.6Z" fill="#6BBF59"/>
<path d="M281.4 201.289H293.91V207.189H281.4V201.289Z" fill="#6BBF59"/>
<path d="M281.35 201.25V207.25H293.97V201.25H281.35ZM293.87 207.15H281.46V201.35H293.87V207.15Z" fill="#6BBF59"/>
<path d="M281.4 232.75H293.91V238.65H281.4V232.75Z" fill="#6BBF59"/>
<path d="M281.35 232.71V238.7H293.97V232.71H281.35ZM293.87 238.6H281.46V232.81H293.87V238.6Z" fill="#6BBF59"/>
<path d="M252.78 208.96H265.29V214.86H252.78V208.96Z" fill="#4D648D"/>
<path d="M252.74 208.899V214.899H265.36V208.899H252.74ZM265.26 214.789H252.85V208.999H265.26V214.789Z" fill="#6BBF59"/>
<path d="M252.79 240.409H265.3V246.309H252.79V240.409Z" fill="#6BBF59"/>
<path d="M252.74 240.369V246.369H265.36V240.369H252.74ZM265.26 246.269H252.85V240.479H265.26V246.269Z" fill="#6BBF59"/>
<path d="M281.4 208.96H293.91V214.86H281.4V208.96Z" fill="#4D648D"/>
<path d="M281.35 208.899V214.899H293.97V208.899H281.35ZM293.87 214.789H281.46V208.999H293.87V214.789Z" fill="#6BBF59"/>
<path d="M367.21 201.31H379.72V207.21H367.21V201.31Z" fill="#4D648D"/>
<path d="M367.17 201.27V207.27H379.78V201.27H367.17ZM379.68 207.17H367.27V201.37H379.68V207.17Z" fill="#6BBF59"/>
<path d="M295.7 208.96H308.21V214.86H295.7V208.96Z" fill="#6BBF59"/>
<path d="M295.66 208.899V214.899H308.28V208.899H295.66ZM308.17 214.789H295.76V208.999H308.17V214.789Z" fill="#6BBF59"/>
<path d="M381.52 201.31H394.03V207.21H381.52V201.31Z" fill="#6BBF59"/>
<path d="M381.47 201.27V207.27H394.09V201.27H381.47ZM393.99 207.17H381.58V201.37H393.99V207.17Z" fill="#6BBF59"/>
<path d="M343.81 182.939H357.27C357.43 182.939 357.58 183.079 357.58 183.249V186.549C357.58 186.719 357.44 186.859 357.27 186.859H343.81C343.65 186.859 343.5 186.719 343.5 186.549V183.249C343.5 183.089 343.64 182.939 343.81 182.939Z" fill="#EEF2F8"/>
<path d="M357.66 183.09L357.6 183C357.52 182.9 357.4 182.84 357.27 182.84H343.81C343.59 182.84 343.4 183.03 343.4 183.25V186.57C343.4 186.8 343.59 186.98 343.81 186.98H357.27C357.41 186.98 357.53 186.92 357.6 186.82C357.63 186.79 357.65 186.76 357.66 186.72C357.66 186.72 357.69 186.63 357.69 186.58V183.26C357.69 183.26 357.68 183.15 357.66 183.1V183.09ZM343.61 186.57V183.25C343.61 183.15 343.69 183.05 343.81 183.05H357.27C357.38 183.05 357.48 183.13 357.48 183.25V186.57C357.48 186.68 357.4 186.78 357.27 186.78H343.81C343.71 186.78 343.61 186.7 343.61 186.57Z" fill="#C1D3ED"/>
<path d="M357.91 182.939H371.17C371.33 182.939 371.48 183.079 371.48 183.249V186.549C371.48 186.719 371.34 186.859 371.17 186.859H357.91C357.75 186.859 357.6 186.719 357.6 186.549V183.249C357.6 183.089 357.74 182.939 357.91 182.939Z" fill="#EEF2F8"/>
<path d="M371.55 183.09C371.55 183.09 371.5 183.01 371.48 182.98C371.4 182.9 371.29 182.84 371.17 182.84H357.91C357.78 182.84 357.67 182.9 357.6 183C357.57 183.03 357.55 183.06 357.53 183.09C357.51 183.14 357.5 183.2 357.5 183.25V186.57C357.5 186.57 357.51 186.67 357.53 186.71C357.53 186.71 357.56 186.79 357.6 186.82C357.66 186.92 357.78 186.98 357.91 186.98H371.17C371.29 186.98 371.4 186.93 371.48 186.84C371.5 186.82 371.52 186.79 371.54 186.75C371.56 186.7 371.58 186.64 371.58 186.57V183.25C371.58 183.25 371.57 183.14 371.55 183.09ZM371.17 186.78H357.91C357.81 186.78 357.71 186.7 357.71 186.57V183.25C357.71 183.15 357.79 183.05 357.91 183.05H371.17C371.27 183.05 371.37 183.13 371.37 183.25V186.57C371.37 186.68 371.29 186.78 371.17 186.78Z" fill="#C1D3ED"/>
<path d="M371.79 182.939H385.04C385.21 182.939 385.35 183.079 385.35 183.249V186.569C385.35 186.729 385.21 186.879 385.04 186.879H371.79C371.62 186.879 371.48 186.739 371.48 186.569V183.269C371.48 183.109 371.62 182.959 371.79 182.959V182.939Z" fill="#4D648D"/>
<path d="M385.42 183.09C385.42 183.09 385.38 183.02 385.35 182.99C385.28 182.9 385.17 182.84 385.04 182.84H371.79C371.67 182.84 371.55 182.9 371.48 182.98C371.45 183.01 371.43 183.04 371.41 183.08C371.38 183.13 371.37 183.19 371.37 183.25V186.57C371.37 186.63 371.38 186.68 371.4 186.73C371.43 186.78 371.45 186.81 371.48 186.84C371.55 186.93 371.67 186.98 371.79 186.98H385.04C385.17 186.98 385.28 186.92 385.35 186.83C385.38 186.8 385.41 186.76 385.42 186.72C385.42 186.72 385.45 186.62 385.45 186.57V183.25C385.45 183.25 385.44 183.14 385.42 183.09ZM385.25 186.57C385.25 186.68 385.16 186.78 385.04 186.78H371.79C371.68 186.78 371.58 186.7 371.58 186.57V183.25C371.58 183.15 371.66 183.05 371.79 183.05H385.04C385.14 183.05 385.25 183.13 385.25 183.25V186.57Z" fill="#C1D3ED"/>
<path d="M385.68 182.939H398.94C399.1 182.939 399.25 183.079 399.25 183.249V186.549C399.25 186.719 399.11 186.859 398.94 186.859H385.68C385.52 186.859 385.37 186.719 385.37 186.549V183.249C385.37 183.089 385.51 182.939 385.68 182.939Z" fill="#EEF2F8"/>
<path d="M398.91 182.84H385.66C385.53 182.84 385.42 182.9 385.35 182.99C385.32 183.02 385.3 183.05 385.29 183.08C385.26 183.13 385.25 183.19 385.25 183.25V186.57C385.25 186.64 385.26 186.7 385.29 186.75C385.31 186.78 385.32 186.81 385.35 186.83C385.42 186.92 385.53 186.98 385.66 186.98H398.91C399.14 186.98 399.32 186.8 399.32 186.57V183.25C399.32 183.03 399.14 182.84 398.91 182.84ZM399.12 186.57C399.12 186.68 399.04 186.78 398.91 186.78H385.66C385.56 186.78 385.45 186.7 385.45 186.57V183.25C385.45 183.15 385.54 183.05 385.66 183.05H398.91C399.02 183.05 399.12 183.13 399.12 183.25V186.57Z" fill="#C1D3ED"/>
<path d="M393.04 174.409H403.35C403.51 174.409 403.66 174.549 403.66 174.719V177.399C403.66 177.559 403.52 177.709 403.35 177.709H393.04C392.88 177.709 392.73 177.569 392.73 177.399V174.719C392.73 174.549 392.87 174.409 393.04 174.409Z" fill="#EEF2F8"/>
<path d="M403.35 174.289H393.04C392.81 174.289 392.63 174.469 392.63 174.699V177.399C392.63 177.629 392.81 177.809 393.04 177.809H403.35C403.57 177.809 403.76 177.629 403.76 177.399V174.699C403.76 174.469 403.57 174.289 403.35 174.289ZM403.55 177.399C403.55 177.499 403.47 177.609 403.35 177.609H393.04C392.94 177.609 392.83 177.519 392.83 177.399V174.699C392.83 174.599 392.91 174.489 393.04 174.489H403.35C403.45 174.489 403.55 174.579 403.55 174.699V177.399Z" fill="#C1D3ED"/>
<path d="M350.29 174.14H326.58C326.35 174.14 326.17 174.33 326.17 174.56V177.83C326.17 178.06 326.35 178.25 326.58 178.25H350.29C350.51 178.25 350.7 178.06 350.7 177.83V174.56C350.7 174.33 350.51 174.14 350.29 174.14ZM350.49 177.83C350.49 177.94 350.41 178.04 350.29 178.04H326.58C326.48 178.04 326.37 177.96 326.37 177.83V174.56C326.37 174.45 326.46 174.35 326.58 174.35H350.29C350.39 174.35 350.49 174.43 350.49 174.56V177.83Z" fill="white"/>
<path d="M377.04 174.14H353.34C353.11 174.14 352.92 174.33 352.92 174.56V177.83C352.92 178.06 353.11 178.25 353.34 178.25H377.04C377.27 178.25 377.46 178.06 377.46 177.83V174.56C377.46 174.33 377.27 174.14 377.04 174.14ZM377.25 177.83C377.25 177.94 377.17 178.04 377.04 178.04H353.34C353.23 178.04 353.13 177.96 353.13 177.83V174.56C353.13 174.45 353.21 174.35 353.34 174.35H377.04C377.14 174.35 377.25 174.43 377.25 174.56V177.83Z" fill="white"/>
<path d="M328.72 175.09H343.67C344.29 175.09 344.78 175.58 344.78 176.18C344.78 176.78 344.28 177.27 343.67 177.27H328.72C328.1 177.27 327.61 176.78 327.61 176.18C327.61 175.58 328.11 175.09 328.72 175.09Z" fill="#B1C5FF"/>
<path d="M354.95 175.09H369.26C369.88 175.09 370.37 175.58 370.37 176.18C370.37 176.78 369.87 177.27 369.26 177.27H354.95C354.33 177.27 353.84 176.78 353.84 176.18C353.84 175.58 354.34 175.09 354.95 175.09Z" fill="#B1C5FF"/>
<path d="M250.97 227.39C250.97 227.39 250.87 227.33 250.81 227.28C250.72 227.26 250.64 227.22 250.56 227.2C250.5 227.18 250.44 227.14 250.39 227.14C250.35 227.12 250.31 227.1 250.29 227.08C250.27 227.06 250.23 227.04 250.23 227.02C250.21 227 250.21 226.95 250.21 226.93C250.21 226.89 250.23 226.85 250.25 226.81C250.27 226.77 250.31 226.73 250.35 226.73C250.39 226.71 250.45 226.71 250.52 226.71C250.58 226.71 250.64 226.73 250.68 226.75C250.72 226.77 250.77 226.81 250.79 226.85C250.83 226.89 250.83 227 250.83 227H251.12C251.12 226.91 251.07 226.83 251.03 226.75C250.99 226.67 250.91 226.6 250.83 226.56C250.74 226.52 250.64 226.5 250.52 226.5C250.41 226.5 250.33 226.52 250.27 226.54C250.21 226.56 250.15 226.58 250.08 226.62C250.02 226.67 249.98 226.71 249.96 226.77C249.92 226.83 249.92 226.87 249.92 226.95C249.92 227.04 249.94 227.1 249.96 227.14C250 227.2 250.04 227.24 250.08 227.28C250.13 227.33 250.19 227.37 250.25 227.39C250.33 227.43 250.39 227.45 250.48 227.47C250.56 227.49 250.62 227.51 250.66 227.53C250.7 227.55 250.74 227.57 250.77 227.59C250.81 227.61 250.83 227.63 250.83 227.66V227.73C250.83 227.73 250.82 227.75 250.81 227.76C250.79 227.8 250.74 227.84 250.7 227.84C250.66 227.86 250.6 227.86 250.54 227.86H250.39C250.33 227.86 250.31 227.84 250.27 227.82C250.23 227.8 250.19 227.78 250.19 227.74C250.17 227.7 250.17 227.59 250.17 227.59H249.88C249.88 227.68 249.9 227.76 249.94 227.82C249.98 227.88 250.02 227.94 250.08 227.99C250.15 228.03 250.21 228.07 250.29 228.09C250.35 228.13 250.44 228.13 250.52 228.13C250.62 228.13 250.7 228.11 250.77 228.11C250.85 228.09 250.91 228.07 250.95 228.03C251.01 227.99 251.05 227.94 251.07 227.88C251.12 227.82 251.12 227.76 251.12 227.7C251.12 227.63 251.09 227.57 251.07 227.53C251.05 227.47 251.01 227.43 250.97 227.39ZM252.29 228.03V227.35C252.29 227.26 252.27 227.18 252.23 227.12C252.19 227.06 252.13 227 252.06 226.98C251.98 226.93 251.9 226.93 251.82 226.93C251.73 226.93 251.67 226.95 251.61 226.95C251.55 226.98 251.49 227 251.45 227.04C251.4 227.08 251.36 227.12 251.34 227.16C251.3 227.2 251.3 227.31 251.3 227.31H251.57C251.57 227.31 251.59 227.24 251.59 227.22C251.61 227.2 251.63 227.16 251.67 227.16C251.71 227.14 251.75 227.14 251.8 227.14C251.86 227.14 251.88 227.16 251.92 227.16C251.96 227.18 252 227.2 252 227.24C252.02 227.26 252.02 227.35 252.02 227.35V228.05L252.04 228.13H252.33C252.33 228.13 252.29 228.07 252.29 228.03ZM252.06 227.72C252.06 227.72 252.04 227.78 252.02 227.82C252 227.86 251.96 227.88 251.92 227.9C251.88 227.94 251.84 227.94 251.78 227.94C251.73 227.94 251.69 227.92 251.67 227.92C251.65 227.9 251.61 227.88 251.61 227.86C251.59 227.84 251.59 227.8 251.59 227.78V227.7C251.59 227.7 251.63 227.63 251.65 227.63C251.69 227.61 251.71 227.59 251.75 227.59H252.06V227.43L252.1 227.41H251.9C251.8 227.41 251.71 227.43 251.65 227.43C251.57 227.45 251.51 227.47 251.46 227.51C251.42 227.55 251.38 227.59 251.36 227.63C251.32 227.68 251.32 227.74 251.32 227.8C251.32 227.86 251.34 227.92 251.38 227.99C251.42 228.03 251.46 228.07 251.53 228.11C251.59 228.15 251.65 228.15 251.73 228.15C251.8 228.15 251.86 228.13 251.9 228.13C251.94 228.11 251.98 228.09 252.02 228.05C252.06 228.01 252.08 227.99 252.1 227.94C252.13 227.9 252.15 227.84 252.15 227.84L252.06 227.72ZM252.6 226.46V228.17H252.87V226.46H252.6ZM254.12 228.03V227.35C254.12 227.26 254.1 227.18 254.06 227.12C254.02 227.06 253.96 227 253.9 226.98C253.82 226.93 253.73 226.93 253.65 226.93C253.57 226.93 253.51 226.95 253.44 226.95C253.38 226.98 253.32 227 253.28 227.04C253.24 227.08 253.2 227.12 253.18 227.16C253.14 227.2 253.14 227.31 253.14 227.31H253.4C253.4 227.31 253.42 227.24 253.42 227.22C253.44 227.2 253.47 227.16 253.51 227.16C253.55 227.14 253.59 227.14 253.63 227.14C253.69 227.14 253.71 227.16 253.75 227.16C253.8 227.18 253.84 227.2 253.84 227.24C253.86 227.26 253.86 227.35 253.86 227.35V228.05L253.88 228.13H254.17C254.17 228.13 254.12 228.07 254.12 228.03ZM253.9 227.72C253.9 227.72 253.88 227.78 253.86 227.82C253.84 227.86 253.8 227.88 253.75 227.9C253.71 227.94 253.67 227.94 253.61 227.94C253.57 227.94 253.53 227.92 253.51 227.92C253.49 227.9 253.44 227.88 253.44 227.86C253.42 227.84 253.42 227.8 253.42 227.78V227.7C253.42 227.7 253.47 227.63 253.49 227.63C253.53 227.61 253.55 227.59 253.59 227.59H253.9V227.43L253.94 227.41H253.73C253.63 227.41 253.55 227.43 253.49 227.43C253.4 227.45 253.34 227.47 253.3 227.51C253.26 227.55 253.22 227.59 253.2 227.63C253.16 227.68 253.16 227.74 253.16 227.8C253.16 227.86 253.18 227.92 253.22 227.99C253.26 228.03 253.3 228.07 253.36 228.11C253.42 228.15 253.49 228.15 253.57 228.15C253.63 228.15 253.69 228.13 253.73 228.13C253.77 228.11 253.82 228.09 253.86 228.05C253.9 228.01 253.92 227.99 253.94 227.94C253.96 227.9 253.98 227.84 253.98 227.84L253.9 227.72ZM255.34 227.92L255.69 227.53C255.75 227.49 255.79 227.43 255.84 227.39C255.88 227.35 255.92 227.28 255.94 227.24C255.96 227.2 256 227.14 256 227.1C256.02 227.06 256.02 227 256.02 226.95C256.02 226.87 256 226.79 255.96 226.73C255.94 226.67 255.88 226.62 255.79 226.58C255.71 226.52 255.61 226.52 255.51 226.52C255.38 226.52 255.28 226.54 255.2 226.58C255.11 226.62 255.05 226.69 255.01 226.77C254.97 226.85 254.95 227.04 254.95 227.04H255.22C255.22 226.98 255.24 226.91 255.26 226.87C255.28 226.83 255.32 226.79 255.36 226.77C255.4 226.73 255.44 226.73 255.51 226.73C255.57 226.73 255.61 226.75 255.65 226.77C255.69 226.79 255.73 226.81 255.73 226.85C255.75 226.89 255.75 226.95 255.75 227C255.75 227.02 255.73 227.06 255.73 227.1C255.73 227.14 255.71 227.18 255.67 227.22C255.63 227.26 255.53 227.39 255.53 227.39L254.99 227.96V228.15H256.08V227.94L256.1 227.92H255.34Z" fill="#4D648D"/>
<path d="M250.97 196.549C250.97 196.549 250.87 196.489 250.81 196.449C250.72 196.429 250.64 196.389 250.56 196.359C250.5 196.339 250.44 196.299 250.39 196.299C250.35 196.279 250.31 196.259 250.29 196.239C250.27 196.219 250.23 196.199 250.23 196.179C250.21 196.159 250.21 196.119 250.21 196.099C250.21 196.059 250.23 196.009 250.25 195.969C250.27 195.929 250.31 195.889 250.35 195.889C250.39 195.869 250.45 195.869 250.52 195.869C250.58 195.869 250.64 195.889 250.68 195.909C250.72 195.929 250.77 195.969 250.79 196.009C250.83 196.059 250.83 196.159 250.83 196.159H251.12C251.12 196.079 251.07 195.989 251.03 195.909C250.99 195.829 250.91 195.769 250.83 195.729C250.74 195.679 250.64 195.659 250.52 195.659C250.41 195.659 250.33 195.679 250.27 195.709C250.21 195.729 250.15 195.749 250.08 195.789C250.02 195.829 249.98 195.869 249.96 195.929C249.92 195.989 249.92 196.029 249.92 196.119C249.92 196.199 249.94 196.259 249.96 196.299C250 196.359 250.04 196.409 250.08 196.449C250.13 196.489 250.19 196.529 250.25 196.549C250.33 196.589 250.39 196.609 250.48 196.629C250.56 196.649 250.62 196.669 250.66 196.689C250.7 196.719 250.74 196.739 250.77 196.759C250.81 196.779 250.83 196.799 250.83 196.819V196.889C250.83 196.889 250.82 196.909 250.81 196.919C250.79 196.959 250.74 196.999 250.7 196.999C250.66 197.019 250.6 197.019 250.54 197.019H250.39C250.33 197.019 250.31 196.999 250.27 196.979C250.23 196.959 250.19 196.939 250.19 196.899C250.17 196.859 250.17 196.759 250.17 196.759H249.88C249.88 196.839 249.9 196.919 249.94 196.979C249.98 197.049 250.02 197.109 250.08 197.149C250.15 197.189 250.21 197.229 250.29 197.249C250.35 197.289 250.44 197.289 250.52 197.289C250.62 197.289 250.7 197.269 250.77 197.269C250.85 197.249 250.91 197.229 250.95 197.189C251.01 197.149 251.05 197.109 251.07 197.049C251.12 196.979 251.12 196.919 251.12 196.859C251.12 196.799 251.09 196.739 251.07 196.689C251.05 196.629 251.01 196.589 250.97 196.549ZM252.29 197.189V196.509C252.29 196.429 252.27 196.339 252.23 196.279C252.19 196.219 252.13 196.159 252.06 196.139C251.98 196.099 251.9 196.099 251.82 196.099C251.73 196.099 251.67 196.119 251.61 196.119C251.55 196.139 251.49 196.159 251.45 196.199C251.4 196.239 251.36 196.279 251.34 196.319C251.3 196.359 251.3 196.469 251.3 196.469H251.57C251.57 196.469 251.59 196.409 251.59 196.389C251.61 196.359 251.63 196.339 251.67 196.319C251.71 196.299 251.75 196.299 251.8 196.299C251.86 196.299 251.88 196.319 251.92 196.319C251.96 196.339 252 196.359 252 196.409C252.02 196.429 252.02 196.509 252.02 196.509V197.209L252.04 197.289H252.33C252.33 197.289 252.29 197.229 252.29 197.189ZM252.06 196.879C252.06 196.879 252.04 196.939 252.02 196.979C252 197.019 251.96 197.049 251.92 197.069C251.88 197.109 251.84 197.109 251.78 197.109C251.73 197.109 251.69 197.089 251.67 197.089C251.65 197.069 251.61 197.049 251.61 197.019C251.59 196.999 251.59 196.959 251.59 196.939V196.859C251.59 196.859 251.63 196.799 251.65 196.799C251.69 196.779 251.71 196.759 251.75 196.759H252.06V196.589L252.1 196.569H251.9C251.8 196.569 251.71 196.589 251.65 196.589C251.57 196.609 251.51 196.629 251.46 196.669C251.42 196.719 251.38 196.759 251.36 196.799C251.32 196.839 251.32 196.899 251.32 196.959C251.32 197.019 251.34 197.089 251.38 197.149C251.42 197.189 251.46 197.229 251.53 197.269C251.59 197.309 251.65 197.309 251.73 197.309C251.8 197.309 251.86 197.289 251.9 197.289C251.94 197.269 251.98 197.249 252.02 197.209C252.06 197.169 252.08 197.149 252.1 197.109C252.13 197.069 252.15 196.999 252.15 196.999L252.06 196.879ZM252.6 195.619V197.329H252.87V195.619H252.6ZM254.12 197.189V196.509C254.12 196.429 254.1 196.339 254.06 196.279C254.02 196.219 253.96 196.159 253.9 196.139C253.82 196.099 253.73 196.099 253.65 196.099C253.57 196.099 253.51 196.119 253.44 196.119C253.38 196.139 253.32 196.159 253.28 196.199C253.24 196.239 253.2 196.279 253.18 196.319C253.14 196.359 253.14 196.469 253.14 196.469H253.4C253.4 196.469 253.42 196.409 253.42 196.389C253.44 196.359 253.47 196.339 253.51 196.319C253.55 196.299 253.59 196.299 253.63 196.299C253.69 196.299 253.71 196.319 253.75 196.319C253.8 196.339 253.84 196.359 253.84 196.409C253.86 196.429 253.86 196.509 253.86 196.509V197.209L253.88 197.289H254.17C254.17 197.289 254.12 197.229 254.12 197.189ZM253.9 196.879C253.9 196.879 253.88 196.939 253.86 196.979C253.84 197.019 253.8 197.049 253.75 197.069C253.71 197.109 253.67 197.109 253.61 197.109C253.57 197.109 253.53 197.089 253.51 197.089C253.49 197.069 253.44 197.049 253.44 197.019C253.42 196.999 253.42 196.959 253.42 196.939V196.859C253.42 196.859 253.47 196.799 253.49 196.799C253.53 196.779 253.55 196.759 253.59 196.759H253.9V196.589L253.94 196.569H253.73C253.63 196.569 253.55 196.589 253.49 196.589C253.4 196.609 253.34 196.629 253.3 196.669C253.26 196.719 253.22 196.759 253.2 196.799C253.16 196.839 253.16 196.899 253.16 196.959C253.16 197.019 253.18 197.089 253.22 197.149C253.26 197.189 253.3 197.229 253.36 197.269C253.42 197.309 253.49 197.309 253.57 197.309C253.63 197.309 253.69 197.289 253.73 197.289C253.77 197.269 253.82 197.249 253.86 197.209C253.9 197.169 253.92 197.149 253.94 197.109C253.96 197.069 253.98 196.999 253.98 196.999L253.9 196.879ZM255.67 195.729L255.03 195.949V196.179L255.44 196.029V197.329H255.71V195.729H255.67Z" fill="#4D648D"/>
<g opacity="0.1">
<path d="M230.46 167.839C231.98 165.679 234.66 164.229 237.74 164.229H407.37C412.13 164.229 415.99 167.709 415.99 171.999V262.859L230.47 167.829L230.46 167.839Z" fill="#00325B"/>
</g>
<path d="M496 317.119H361.21H359.38H338.77H333.61H291.75H285.94H251.75H212.49H177.19H176.89H157.4H118.33H80.65H67.49V332.179H81.27H93.73H118.33H146.46H160.81H177.32H181.66H212.49H252.51H429.06H481.79H496V317.119Z" fill="#8E98AE"/>
<path d="M429.06 332.18V470H439.2V379.7H471.65V470H481.79V332.18H429.06ZM471.65 367.31H439.2V344.58H471.65V367.31Z" fill="#8E98AE"/>
<path d="M93.73 332.18V468.29C95.72 469.38 98.01 470 100.43 470H103.87V379.7H136.32V470H146.46V332.18H93.73ZM103.87 367.31V344.58H136.32V367.31H103.87ZM136.32 420.69V470H146.46V420.69H136.32Z" fill="#8E98AE"/>
<path d="M265.22 410.069C264.98 410.419 264.73 410.819 264.47 411.279C259.7 419.589 251.81 445.149 244.77 469.999H219.8C223.88 448.139 229.48 431.679 234.06 420.689C235.91 416.229 237.6 412.669 238.95 410.019C239.94 408.069 240.75 406.599 241.32 405.629C241.88 404.659 242.19 404.169 242.19 404.169C257 387.649 265.22 410.069 265.22 410.069Z" fill="#2F7569"/>
<path d="M118.33 405.63H259.57V420.69H118.33V405.63Z" fill="#556074"/>
<path d="M148.46 420.689H204.96V431.989H148.46V420.689Z" fill="#8E98AE"/>
<path d="M180.48 431.989H172.95V469.999H180.48V431.989Z" fill="#8E98AE"/>
<path d="M175.24 383.84C166.33 408.87 303.66 423.12 308.13 398.45C311.15 381.66 296.28 380.01 296.28 380.01C292.78 377.81 231.42 370.03 231.42 370.03C231.42 370.03 181.17 367.18 175.25 383.84H175.24Z" fill="#3B8B7F"/>
<path d="M308.54 398.199C306.56 408.659 302.25 440.049 298.27 469.999H270.72C270.48 460.819 270.64 450.989 272.03 439.879C273.65 426.959 276.07 417.519 278.53 410.699C283.08 398.049 287.79 394.439 287.79 394.439C297.52 377.129 306.59 394.139 308.26 397.609C308.45 397.979 308.54 398.199 308.54 398.199Z" fill="#3B8B7F"/>
<path d="M168 363.879L151.18 289.699C150.05 287.059 150.07 283.939 151.22 281.109L175.42 235.469C177.62 230.059 183.28 227.269 188.09 229.229C192.89 231.209 194.99 237.199 192.79 242.609L167.33 286.929L187.15 349.499C189.31 354.559 183.23 359.229 178.41 362.009C174.15 364.469 168.26 364.449 168.01 363.869L168 363.879Z" fill="#DADADA"/>
<path d="M210.35 221.139L183.66 227.279L175.52 272.599C177.55 330.289 179.65 337.079 171.45 390.029C171.45 390.029 165.35 396.209 201.97 396.209C238.59 396.209 257.25 380.939 265.04 375.609C266.99 374.269 253.16 370.339 252.83 361.189C252.1 340.919 253.64 336.259 250.8 305.559C254.03 301.729 254.99 272.839 254.99 272.839C254.99 272.839 250.37 239.919 250.51 228.339L225.4 221.069L210.36 221.109L210.34 221.129L210.35 221.139Z" fill="#EAEAEA"/>
<path d="M227.02 197.949L224.09 223.679H202.9L205.79 197.949H227.02Z" fill="#C6A595"/>
<path d="M243.84 179.889C245.05 191.679 238.06 204.449 231 206.009C215.44 204.809 205.13 193.279 204.96 173.399C207.32 154.859 211.42 146.539 226.98 147.739C242.54 148.939 246.2 161.339 243.86 179.899L243.84 179.879V179.889Z" fill="#FFD4BB"/>
<path d="M246.39 173.11V172.95C246.36 172.52 246.32 172.15 246.24 171.81L245.88 170.76C245.78 170.57 245.69 170.39 245.58 170.23C245.24 169.66 244.87 169.26 244.49 168.98C243.38 168.16 242.16 168.36 241.15 168.39C238.33 168.48 236.2 169.06 234.83 170.08C233.84 170.8 233.25 171.75 233.1 172.92C233.1 172.92 232.38 172.83 231.34 172.7C230.52 172.61 229.5 172.49 228.48 172.37C226.21 172.12 223.95 171.91 223.88 172.03C223.74 172.29 223.78 172.65 223.94 172.86L227.79 173.52L231.33 174.12L233.13 174.43C233.44 176.83 234.93 179.81 236.98 181.66C238.11 182.69 239.4 183.36 240.75 183.4C240.78 183.4 240.82 183.4 240.85 183.4H241.05C242.24 183.36 243.2 182.78 243.96 181.9C244.59 181.17 245.08 180.22 245.45 179.18C245.46 179.14 245.47 179.11 245.48 179.08C245.5 179.04 245.51 179.01 245.52 178.98C245.74 178.32 245.92 177.63 246.05 176.94C246.07 176.86 246.08 176.79 246.09 176.71C246.1 176.61 246.12 176.5 246.14 176.4L246.17 176.22L246.2 175.98C246.2 175.98 246.2 175.92 246.2 175.9C246.21 175.84 246.22 175.79 246.23 175.73C246.3 175.14 246.35 174.55 246.36 174C246.37 173.76 246.38 173.53 246.38 173.31V173.21C246.38 173.21 246.37 173.13 246.37 173.1L246.39 173.11ZM245.47 175.53C245.42 176.01 245.34 176.52 245.24 177.02V177.04C245.1 177.71 244.92 178.37 244.68 178.99C244.66 179.03 244.65 179.06 244.64 179.09C244.63 179.13 244.61 179.16 244.6 179.19C244.4 179.68 244.17 180.13 243.89 180.53C243.21 181.53 242.27 182.22 241.01 182.27H240.97L240.99 182.25H240.85C240.85 182.25 240.78 182.25 240.75 182.24C239.35 182.21 238.06 181.43 236.98 180.32C235.13 178.4 233.91 175.5 233.86 173.68C233.81 172.39 234.55 171.35 235.93 170.64C237.18 169.99 238.96 169.61 241.17 169.53C242.84 169.48 243.86 169.59 244.5 169.91C244.69 170 244.84 170.11 244.97 170.23C245.51 170.78 245.55 171.67 245.59 172.97V173.11C245.59 173.11 245.59 173.18 245.59 173.22V173.32C245.59 173.96 245.56 174.72 245.46 175.53H245.47Z" fill="#DD2450"/>
<path d="M183.69 152.25C187.81 137.81 200.23 123.83 214.58 127.5C228.93 131.17 238.76 132.14 235.17 150.18C232.97 161.21 231.48 171.15 222.77 179.73C223.06 180.58 223.35 181.46 223.59 182.41C226.56 194.04 222.33 209.11 222.33 209.11C221.31 217.68 235.85 223.68 220.57 227.7C220.57 237.35 217.35 241.37 213.33 258.26C208.51 264.69 203.37 267.12 194.83 270.32C185.01 274.01 174.73 259.94 173.92 259.06C175.99 241.36 183.24 230.03 183.66 214.03C184.16 195.35 177.99 172.11 183.66 152.24L183.69 152.25Z" fill="#292225"/>
<path d="M208.75 136.709C216.47 131.729 223.85 132.639 223.85 132.639C248.14 130.929 250.16 160.709 250.16 160.709C236.43 161.919 226.14 152.859 218.07 149.379L208.73 136.709H208.75Z" fill="#292225"/>
<path d="M192.51 279.449H138.3C127.27 279.449 118.34 288.159 118.34 298.859V405.619H212.5V298.859C212.5 288.139 203.55 279.449 192.54 279.449H192.52H192.51Z" fill="#556074"/>
<g clip-path="url(#clip0_103_1923)">
<path d="M458.51 276.2C460.16 276.39 462.59 276.59 465.33 276.6C465.37 276.6 465.41 276.6 465.46 276.6C466.39 276.6 467.36 276.58 468.35 276.53C469.53 276.47 470.74 276.37 471.94 276.21C476.66 275.58 481.31 274.06 484.01 270.81C484.94 269.69 485.55 268.65 485.94 267.65C486.13 267.17 486.26 266.7 486.35 266.25C487.06 262.59 484.87 259.6 484.08 256.46C483.46 254.03 483.67 251.52 486.71 248.56C497.95 237.62 495.77 220.48 483.68 223.63C467.61 227.83 484.3 240.12 461.66 247.54C461.34 247.65 461.02 247.76 460.71 247.87C459.92 248.16 459.18 248.46 458.5 248.78V276.2H458.51Z" fill="#91A9ED"/>
<path d="M483 238.56C483 238.56 470.37 255.72 460.72 270.27C459.96 271.41 459.22 272.54 458.51 273.64V270.83C459.22 269.75 459.96 268.64 460.72 267.5C468.44 256 478.12 242.35 483 238.56Z" fill="#6183BA"/>
<path d="M448.46 213.81C437.22 227.84 458.93 228.03 445.64 248.21C445.35 248.65 445.04 249.11 444.71 249.57C444.41 250 444.12 250.42 443.86 250.84L457.05 277.83C457.31 277.92 457.55 277.99 457.76 278.05C458.33 278.22 458.66 278.3 458.66 278.3C458.66 278.3 458.95 278.15 459.46 277.87C459.49 277.86 459.52 277.84 459.55 277.82C459.69 277.75 459.83 277.66 459.99 277.57C464.57 274.99 479.35 265.86 479.91 255.46C480.29 248.32 476.13 246.36 472.51 244.08C469.38 242.12 466.65 239.91 467.61 233.93C470.36 216.81 457.09 203.03 448.46 213.81Z" fill="#8ED2DD"/>
<path d="M458.14 233.97C458.14 233.97 458.22 239.94 458.22 248.34C458.22 255.62 458.15 264.72 457.91 273.32C457.91 273.62 457.89 273.92 457.88 274.22C457.84 275.51 457.8 276.79 457.75 278.05C457.73 278.43 457.72 278.81 457.71 279.19L459.29 282.43C459.35 280.97 459.41 279.45 459.46 277.87C459.46 277.8 459.46 277.74 459.46 277.67C459.48 277.3 459.49 276.94 459.5 276.58C459.82 267.02 460.01 255.86 459.64 247.04C459.41 241.36 458.94 236.65 458.13 233.96L458.14 233.97Z" fill="#6183BA"/>
<path d="M457.43 279.56C449.77 283.85 441.87 278.1 440.03 275.88C439.4 275.12 438.98 274.4 438.71 273.72C438.58 273.39 438.49 273.07 438.43 272.76C437.95 270.26 439.44 268.22 439.98 266.08C440.41 264.42 440.26 262.71 438.18 260.69C430.51 253.23 432 241.53 440.24 243.69C451.2 246.55 445.28 255.8 455.26 260C465.24 264.2 465.08 275.26 457.42 279.55L457.43 279.56Z" fill="#9BDDB9"/>
<path d="M440.61 255.39C440.61 255.39 449.23 267.09 455.81 277.02C456.33 277.8 457.59 279.7 458.08 280.45L458.84 279.66C458.35 278.92 456.34 275.9 455.82 275.12C450.55 267.27 443.95 257.96 440.62 255.38L440.61 255.39Z" fill="#6183BA"/>
<path d="M459.12 280.45H483.2V314.57C483.2 316.17 481.91 317.46 480.31 317.46H437.93C436.33 317.46 435.04 316.17 435.04 314.57V280.45H459.12Z" fill="#BDCDFF"/>
<path d="M459.12 272.14H487.73C489.47 272.14 490.68 273.87 490.08 275.5L487.2 283.34C486.84 284.32 485.9 284.98 484.85 284.98H433.39C432.34 284.98 431.4 284.33 431.04 283.34L428.16 275.51C427.56 273.88 428.77 272.15 430.51 272.15H459.12V272.14Z" fill="#4D648D"/>
</g>
<g style="mix-blend-mode:lighten" opacity="0.2">
<path d="M252 352L410 264V170H267C267 170 252 147 242 148C232 149 216.5 166 216.5 190C216.5 214 224 231.5 224 231.5C224 231.5 232 223.5 247 238.5C262 253.5 249.5 263.501 242 291.5C234.5 319.5 252 352 252 352Z" fill="white"/>
</g>
<path d="M335.89 321.946C335.89 321.946 348.8 326.656 354.74 323.616C360.67 320.576 365.12 318.576 362.62 313.756C360.12 308.936 345.29 307.686 345.29 307.686C345.29 307.686 334.82 311.886 335.09 313.556C335.37 315.226 335.9 321.936 335.9 321.936L335.89 321.946Z" fill="#FFD4BB"/>
<path d="M313.37 322.976L283.23 314.606C280.57 313.596 239.98 271.406 239.98 271.406C237.57 266.116 235.86 250.836 237.92 242.606C239.16 237.666 251.99 224.976 254.4 230.266L295.59 300.216L337.12 304.936C342.23 306.866 341.48 314.416 340.21 319.746C339.1 324.456 327.69 324.686 313.37 322.986V322.976Z" fill="#DADADA"/>
<g style="mix-blend-mode:lighten" opacity="0.3">
<path d="M273 274.5L253.5 230C258 234.5 282.5 279 295.5 300.5C308 301.5 319.351 302.664 338.5 305.5L341 309.5L345.5 307.5C351.587 308.319 355.121 308.694 359 311L341 315C341 315 301 310.5 292 305.5C283 300.5 273 274.5 273 274.5Z" fill="white"/>
</g>
<circle cx="117" cy="238" r="13" fill="#BDCDFF" fill-opacity="0.3"/>
<circle cx="325" cy="123" r="10" fill="#BDCDFF" fill-opacity="0.3"/>
<circle cx="450" cy="96" r="5" fill="#BDCDFF" fill-opacity="0.3"/>
<circle cx="135" cy="168" r="5" fill="#BDCDFF" fill-opacity="0.3"/>
<circle cx="462" cy="177" r="7" fill="#BDCDFF" fill-opacity="0.3"/>
<defs>
<filter id="filter0_d_103_1923" x="65.498" y="63.5791" width="430.502" height="414.421" filterUnits="userSpaceOnUse" color-interpolation-filters="sRGB">
<feFlood flood-opacity="0" result="BackgroundImageFix"/>
<feColorMatrix in="SourceAlpha" type="matrix" values="0 0 0 0 0 0 0 0 0 0 0 0 0 0 0 0 0 0 127 0" result="hardAlpha"/>
<feOffset dx="-4" dy="4"/>
<feGaussianBlur stdDeviation="2"/>
<feComposite in2="hardAlpha" operator="out"/>
<feColorMatrix type="matrix" values="0 0 0 0 0 0 0 0 0 0 0 0 0 0 0 0 0 0 0.15 0"/>
<feBlend mode="normal" in2="BackgroundImageFix" result="effect1_dropShadow_103_1923"/>
<feBlend mode="normal" in="SourceGraphic" in2="effect1_dropShadow_103_1923" result="shape"/>
</filter>
<filter id="filter1_d_103_1923" x="65.498" y="63.5791" width="430.502" height="414.421" filterUnits="userSpaceOnUse" color-interpolation-filters="sRGB">
<feFlood flood-opacity="0" result="BackgroundImageFix"/>
<feColorMatrix in="SourceAlpha" type="matrix" values="0 0 0 0 0 0 0 0 0 0 0 0 0 0 0 0 0 0 127 0" result="hardAlpha"/>
<feOffset dx="-4" dy="4"/>
<feGaussianBlur stdDeviation="2"/>
<feComposite in2="hardAlpha" operator="out"/>
<feColorMatrix type="matrix" values="0 0 0 0 0 0 0 0 0 0 0 0 0 0 0 0 0 0 0.15 0"/>
<feBlend mode="normal" in2="BackgroundImageFix" result="effect1_dropShadow_103_1923"/>
<feBlend mode="normal" in="SourceGraphic" in2="effect1_dropShadow_103_1923" result="shape"/>
</filter>
<linearGradient id="paint0_linear_103_1923" x1="94.5001" y1="470" x2="546" y2="27" gradientUnits="userSpaceOnUse">
<stop stop-color="#D9E2FF"/>
<stop offset="1" stop-color="#FDFDFD"/>
</linearGradient>
<clipPath id="clip0_103_1923">
<rect width="66.05" height="107.47" fill="white" transform="translate(428 210)"/>
</clipPath>
</defs>
</svg>
