<svg width="400" height="394" viewBox="0 0 400 394" fill="none" xmlns="http://www.w3.org/2000/svg">
<g clip-path="url(#clip0_145_518)">
<mask id="mask0_145_518" style="mask-type:luminance" maskUnits="userSpaceOnUse" x="0" y="0" width="400" height="394">
<path d="M400 0H0V393.75H400V0Z" fill="white"/>
</mask>
<g mask="url(#mask0_145_518)">
<path opacity="0.3" d="M235.313 211.875L103.75 157.188C94.3749 153.438 89.9999 142.5 93.7499 133.125L148.437 1.87515C152.187 -7.49984 163.125 -11.8748 172.5 -8.12484L304.063 46.2501C313.438 50.0001 317.812 60.9376 314.062 70.3126L259.375 201.875C255.625 211.25 244.688 215.625 235.313 211.875Z" fill="#BDC5D1"/>
<path d="M229.375 198.125L97.8124 143.438C88.4374 139.688 84.0624 128.75 87.8124 119.375L142.5 -11.8751C146.25 -21.2501 157.187 -25.6251 166.562 -21.8751L298.125 32.5C307.5 36.25 311.875 47.1875 308.125 56.5625L253.437 188.125C249.687 197.5 238.75 201.875 229.375 198.125Z" fill="white"/>
<path opacity="0.3" d="M150.625 420.938L19.0624 366.563C9.68744 362.813 5.31244 351.875 9.06244 342.5L63.4374 210.938C67.1874 201.563 78.1249 197.188 87.4999 200.938L219.375 255.625C228.75 259.375 233.125 270.313 229.375 279.688L175 411.25C170.625 420.313 160 425 150.625 420.938Z" fill="#BDC5D1"/>
<path d="M143.75 404.688L12.1874 350.313C2.81244 346.563 -1.56256 335.625 2.18744 326.25L56.5624 194.688C60.3124 185.313 71.2499 180.938 80.6249 184.688L212.5 239.375C221.875 243.125 226.25 254.063 222.5 263.438L168.125 395C163.75 404.063 153.125 408.75 143.75 404.688Z" fill="white"/>
<path d="M123.125 283.438L115.625 291.875C115.625 291.875 113.437 289.063 109.687 287.5C104.375 285.313 102.812 288.438 102.5 289.375C100.625 293.75 111.562 300.313 107.187 310.938C103.75 319.063 96.25 322.5 89.375 319.375C80.9375 315.938 78.75 308.75 78.75 308.75L84.0625 302.188C84.0625 302.188 86.875 307.813 90.625 309.375C93.125 310.313 95 308.75 95.3125 307.5C97.8125 301.563 88.125 297.188 92.1875 287.5C95.625 279.375 104.687 274.063 116.25 278.75C121.562 281.25 123.125 283.438 123.125 283.438Z" fill="white"/>
<path opacity="0.3" d="M388.75 430.625L257.188 376.25C247.813 372.5 243.437 361.563 247.187 352.188L301.562 220.625C305.312 211.25 316.25 206.875 325.625 210.625L457.188 265C466.563 268.75 470.938 279.688 467.188 289.063L412.813 420.625C408.75 430 398.125 434.375 388.75 430.625Z" fill="#BDC5D1"/>
<path d="M382.813 418.75L251.25 364.375C241.875 360.625 237.5 349.688 241.25 340.313L295.625 208.75C299.375 199.375 310.313 195 319.688 198.75L451.25 253.125C460.625 256.875 465 267.813 461.25 277.188L406.875 408.75C402.812 418.125 392.188 422.5 382.813 418.75Z" fill="white"/>
<path opacity="0.3" d="M475.313 225.625L343.75 171.25C334.375 167.5 330 156.563 333.75 147.188L388.125 15.6249C391.875 6.24993 402.812 1.87494 412.187 5.62493L543.75 60C553.125 63.75 557.5 74.6875 553.75 84.0625L499.375 215.625C495.313 225 484.688 229.375 475.313 225.625Z" fill="#BDC5D1"/>
<path d="M468.437 211.875L336.875 157.5C327.5 153.75 323.125 142.813 326.875 133.438L381.25 1.87515C385 -7.49984 395.937 -11.8748 405.312 -8.12484L536.875 46.2501C546.25 50.0001 550.625 60.9376 546.875 70.3126L492.5 201.875C488.438 211.25 477.812 215.625 468.437 211.875Z" fill="white"/>
</g>
<path d="M163.321 113.16L163.32 113.16C161.302 117.983 155.203 120.419 149.746 118.699L149.745 118.699C144.255 116.951 141.371 111.654 143.399 106.809L163.321 113.16ZM163.321 113.16L179.601 74.1912C181.629 69.3458 178.745 64.0487 173.255 62.3015L173.254 62.3013C167.797 60.5812 161.698 63.0173 159.68 67.8403L159.679 67.8404L143.399 106.809L163.321 113.16Z" fill="url(#paint0_linear_145_518)" stroke="white" stroke-width="0.5"/>
<path d="M197.818 112.993L197.818 112.993C195.749 117.95 189.519 120.467 183.904 118.669C178.278 116.892 175.339 111.433 177.417 106.455L197.182 59.0071L197.182 59.007C199.252 54.0498 205.481 51.5326 211.096 53.3306C216.722 55.1081 219.661 60.5664 217.583 65.5449L197.818 112.993ZM197.818 112.993L217.583 65.5451L197.818 112.993Z" fill="url(#paint1_linear_145_518)" stroke="white" stroke-width="0.5"/>
<path d="M254.65 60.2802L254.65 60.2797C256.53 55.4208 253.845 50.0592 248.682 48.3095C243.527 46.5622 237.819 49.0425 235.919 53.8918L235.919 53.8923L215.35 106.72L215.35 106.72C213.47 111.579 216.155 116.941 221.318 118.69C226.473 120.438 232.182 117.958 234.081 113.108L234.081 113.108L254.65 60.2802Z" fill="url(#paint2_linear_145_518)" stroke="white" stroke-width="0.5"/>
<path d="M75.3205 320.16L75.3204 320.16C73.3018 324.983 67.2029 327.419 61.7461 325.699L61.7454 325.699C56.2551 323.951 53.3707 318.654 55.3986 313.809L75.3205 320.16ZM75.3205 320.16L91.6014 281.191C93.6294 276.346 90.745 271.049 85.2545 269.301L85.2539 269.301C79.7971 267.581 73.6982 270.017 71.6796 274.84L71.6795 274.84L55.3986 313.809L75.3205 320.16Z" fill="url(#paint3_linear_145_518)" stroke="white" stroke-width="0.5"/>
<path d="M109.818 319.993L109.818 319.993C107.749 324.95 101.519 327.467 95.9037 325.669C90.2778 323.892 87.3387 318.433 89.4167 313.455L109.182 266.007L109.182 266.007C111.252 261.05 117.481 258.533 123.096 260.331C128.722 262.108 131.661 267.566 129.583 272.545L109.818 319.993ZM109.818 319.993L129.583 272.545L109.818 319.993Z" fill="url(#paint4_linear_145_518)" stroke="white" stroke-width="0.5"/>
<path d="M166.65 267.28L166.65 267.28C168.53 262.421 165.845 257.059 160.682 255.31C155.527 253.562 149.819 256.042 147.919 260.892L147.919 260.892L127.35 313.72L127.35 313.72C125.47 318.579 128.155 323.941 133.318 325.69C138.473 327.438 144.182 324.958 146.081 320.108L146.081 320.108L166.65 267.28Z" fill="url(#paint5_linear_145_518)" stroke="white" stroke-width="0.5"/>
<path d="M319.321 334.16L319.32 334.16C317.302 338.983 311.203 341.419 305.746 339.699L305.745 339.699C300.255 337.951 297.371 332.654 299.399 327.809L319.321 334.16ZM319.321 334.16L335.601 295.191C337.629 290.346 334.745 285.049 329.255 283.301L329.254 283.301C323.797 281.581 317.698 284.017 315.68 288.84L315.679 288.84L299.399 327.809L319.321 334.16Z" fill="url(#paint6_linear_145_518)" stroke="white" stroke-width="0.5"/>
<path d="M353.818 333.993L353.818 333.993C351.749 338.95 345.519 341.467 339.904 339.669C334.278 337.892 331.339 332.433 333.417 327.455L353.182 280.007L353.182 280.007C355.252 275.05 361.481 272.533 367.096 274.331C372.722 276.108 375.661 281.566 373.583 286.545L353.818 333.993ZM353.818 333.993L373.583 286.545L353.818 333.993Z" fill="url(#paint7_linear_145_518)" stroke="white" stroke-width="0.5"/>
<path d="M410.65 281.28L410.65 281.28C412.53 276.421 409.845 271.059 404.682 269.31C399.527 267.562 393.819 270.042 391.919 274.892L391.919 274.892L371.35 327.72L371.35 327.72C369.47 332.579 372.155 337.941 377.318 339.69C382.473 341.438 388.182 338.958 390.081 334.108L390.081 334.108L410.65 281.28Z" fill="url(#paint8_linear_145_518)" stroke="white" stroke-width="0.5"/>
</g>
<defs>
<linearGradient id="paint0_linear_145_518" x1="145.805" y1="53.386" x2="156.297" y2="78.4396" gradientUnits="userSpaceOnUse">
<stop stop-color="#7093FF"/>
<stop offset="1" stop-color="#243F6D"/>
</linearGradient>
<linearGradient id="paint1_linear_145_518" x1="177.672" y1="44.1461" x2="190.191" y2="72.7457" gradientUnits="userSpaceOnUse">
<stop stop-color="#7093FF"/>
<stop offset="1" stop-color="#243F6D"/>
</linearGradient>
<linearGradient id="paint2_linear_145_518" x1="215.515" y1="38.5149" x2="229.853" y2="68.2698" gradientUnits="userSpaceOnUse">
<stop stop-color="#7093FF"/>
<stop offset="1" stop-color="#243F6D"/>
</linearGradient>
<linearGradient id="paint3_linear_145_518" x1="57.8048" y1="260.386" x2="68.2969" y2="285.44" gradientUnits="userSpaceOnUse">
<stop stop-color="#7093FF"/>
<stop offset="1" stop-color="#243F6D"/>
</linearGradient>
<linearGradient id="paint4_linear_145_518" x1="89.6723" y1="251.146" x2="102.191" y2="279.746" gradientUnits="userSpaceOnUse">
<stop stop-color="#7093FF"/>
<stop offset="1" stop-color="#243F6D"/>
</linearGradient>
<linearGradient id="paint5_linear_145_518" x1="127.515" y1="245.515" x2="141.853" y2="275.27" gradientUnits="userSpaceOnUse">
<stop stop-color="#7093FF"/>
<stop offset="1" stop-color="#243F6D"/>
</linearGradient>
<linearGradient id="paint6_linear_145_518" x1="301.805" y1="274.386" x2="312.297" y2="299.44" gradientUnits="userSpaceOnUse">
<stop stop-color="#7093FF"/>
<stop offset="1" stop-color="#243F6D"/>
</linearGradient>
<linearGradient id="paint7_linear_145_518" x1="333.672" y1="265.146" x2="346.191" y2="293.746" gradientUnits="userSpaceOnUse">
<stop stop-color="#7093FF"/>
<stop offset="1" stop-color="#243F6D"/>
</linearGradient>
<linearGradient id="paint8_linear_145_518" x1="371.515" y1="259.515" x2="385.853" y2="289.27" gradientUnits="userSpaceOnUse">
<stop stop-color="#7093FF"/>
<stop offset="1" stop-color="#243F6D"/>
</linearGradient>
<clipPath id="clip0_145_518">
<rect width="400" height="394" fill="white"/>
</clipPath>
</defs>
</svg>
