<svg width="592" height="576" viewBox="0 0 592 576" fill="none" xmlns="http://www.w3.org/2000/svg">
<mask id="mask0_103_2080" style="mask-type:luminance" maskUnits="userSpaceOnUse" x="0" y="0" width="592" height="478">
<path d="M591.97 0H0V477.01H591.97V0Z" fill="white"/>
</mask>
<g mask="url(#mask0_103_2080)">
<path d="M283.64 2.7C282.9 2.7 282.29 2.1 282.29 1.35C282.29 0.6 282.89 0 283.64 0C284.39 0 284.99 0.6 284.99 1.35C284.99 2.1 284.39 2.7 283.64 2.7Z" fill="#71869D"/>
<path d="M253.31 2.7C252.57 2.7 251.96 2.1 251.96 1.35C251.96 0.6 252.56 0 253.31 0C254.06 0 254.66 0.6 254.66 1.35C254.66 2.1 254.06 2.7 253.31 2.7Z" fill="#71869D"/>
<path d="M222.97 2.7C222.23 2.7 221.62 2.1 221.62 1.35C221.62 0.6 222.23 0 222.97 0C223.71 0 224.32 0.6 224.32 1.35C224.32 2.1 223.72 2.7 222.97 2.7Z" fill="#71869D"/>
<path d="M192.64 2.7C191.9 2.7 191.29 2.1 191.29 1.35C191.29 0.6 191.9 0 192.64 0C193.38 0 193.99 0.6 193.99 1.35C193.99 2.1 193.39 2.7 192.64 2.7Z" fill="#71869D"/>
<path d="M162.31 2.7C161.57 2.7 160.96 2.1 160.96 1.35C160.96 0.6 161.57 0 162.31 0C163.05 0 163.66 0.6 163.66 1.35C163.66 2.1 163.06 2.7 162.31 2.7Z" fill="#71869D"/>
<path d="M131.98 2.7C131.24 2.7 130.63 2.1 130.63 1.35C130.63 0.6 131.24 0 131.98 0C132.72 0 133.33 0.6 133.33 1.35C133.33 2.1 132.73 2.7 131.98 2.7Z" fill="#71869D"/>
<path d="M283.64 33.0301C282.9 33.0301 282.29 32.4301 282.29 31.6801C282.29 30.9301 282.89 30.3301 283.64 30.3301C284.39 30.3301 284.99 30.9301 284.99 31.6801C284.99 32.4301 284.39 33.0301 283.64 33.0301Z" fill="#71869D"/>
<path d="M253.31 33.0301C252.57 33.0301 251.96 32.4301 251.96 31.6801C251.96 30.9301 252.56 30.3301 253.31 30.3301C254.06 30.3301 254.66 30.9301 254.66 31.6801C254.66 32.4301 254.06 33.0301 253.31 33.0301Z" fill="#71869D"/>
<path d="M222.97 33.0301C222.23 33.0301 221.62 32.4301 221.62 31.6801C221.62 30.9301 222.22 30.3301 222.97 30.3301C223.72 30.3301 224.32 30.9301 224.32 31.6801C224.32 32.4301 223.72 33.0301 222.97 33.0301Z" fill="#71869D"/>
<path d="M192.64 33.0301C191.9 33.0301 191.29 32.4301 191.29 31.6801C191.29 30.9301 191.89 30.3301 192.64 30.3301C193.39 30.3301 193.99 30.9301 193.99 31.6801C193.99 32.4301 193.39 33.0301 192.64 33.0301Z" fill="#71869D"/>
<path d="M162.31 33.0301C161.57 33.0301 160.96 32.4301 160.96 31.6801C160.96 30.9301 161.56 30.3301 162.31 30.3301C163.06 30.3301 163.66 30.9301 163.66 31.6801C163.66 32.4301 163.06 33.0301 162.31 33.0301Z" fill="#71869D"/>
<path d="M131.98 33.0301C131.24 33.0301 130.63 32.4301 130.63 31.6801C130.63 30.9301 131.23 30.3301 131.98 30.3301C132.73 30.3301 133.33 30.9301 133.33 31.6801C133.33 32.4301 132.73 33.0301 131.98 33.0301Z" fill="#71869D"/>
<path d="M283.64 63.3602C282.9 63.3602 282.29 62.7602 282.29 62.0102C282.29 61.2602 282.89 60.6602 283.64 60.6602C284.39 60.6602 284.99 61.2602 284.99 62.0102C284.99 62.7602 284.39 63.3602 283.64 63.3602Z" fill="#71869D"/>
<path d="M253.31 63.3602C252.57 63.3602 251.96 62.7602 251.96 62.0102C251.96 61.2602 252.56 60.6602 253.31 60.6602C254.06 60.6602 254.66 61.2602 254.66 62.0102C254.66 62.7602 254.06 63.3602 253.31 63.3602Z" fill="#71869D"/>
<path d="M222.97 63.3602C222.23 63.3602 221.62 62.7602 221.62 62.0102C221.62 61.2602 222.22 60.6602 222.97 60.6602C223.72 60.6602 224.32 61.2602 224.32 62.0102C224.32 62.7602 223.72 63.3602 222.97 63.3602Z" fill="#71869D"/>
<path d="M192.64 63.3602C191.9 63.3602 191.29 62.7602 191.29 62.0102C191.29 61.2602 191.89 60.6602 192.64 60.6602C193.39 60.6602 193.99 61.2602 193.99 62.0102C193.99 62.7602 193.39 63.3602 192.64 63.3602Z" fill="#71869D"/>
<path d="M162.31 63.3602C161.57 63.3602 160.96 62.7602 160.96 62.0102C160.96 61.2602 161.56 60.6602 162.31 60.6602C163.06 60.6602 163.66 61.2602 163.66 62.0102C163.66 62.7602 163.06 63.3602 162.31 63.3602Z" fill="#71869D"/>
<path d="M131.98 63.3602C131.24 63.3602 130.63 62.7602 130.63 62.0102C130.63 61.2602 131.23 60.6602 131.98 60.6602C132.73 60.6602 133.33 61.2602 133.33 62.0102C133.33 62.7602 132.73 63.3602 131.98 63.3602Z" fill="#71869D"/>
<path d="M283.64 93.6902C282.9 93.6902 282.29 93.0902 282.29 92.3402C282.29 91.5902 282.89 90.9902 283.64 90.9902C284.39 90.9902 284.99 91.5902 284.99 92.3402C284.99 93.0902 284.39 93.6902 283.64 93.6902Z" fill="#71869D"/>
<path d="M253.31 93.6902C252.57 93.6902 251.96 93.0902 251.96 92.3402C251.96 91.5902 252.56 90.9902 253.31 90.9902C254.06 90.9902 254.66 91.5902 254.66 92.3402C254.66 93.0902 254.06 93.6902 253.31 93.6902Z" fill="#71869D"/>
<path d="M222.97 93.6902C222.23 93.6902 221.62 93.0902 221.62 92.3402C221.62 91.5902 222.22 90.9902 222.97 90.9902C223.72 90.9902 224.32 91.5902 224.32 92.3402C224.32 93.0902 223.72 93.6902 222.97 93.6902Z" fill="#71869D"/>
<path d="M192.64 93.6902C191.9 93.6902 191.29 93.0902 191.29 92.3402C191.29 91.5902 191.89 90.9902 192.64 90.9902C193.39 90.9902 193.99 91.5902 193.99 92.3402C193.99 93.0902 193.39 93.6902 192.64 93.6902Z" fill="#71869D"/>
<path d="M162.31 93.6902C161.57 93.6902 160.96 93.0902 160.96 92.3402C160.96 91.5902 161.56 90.9902 162.31 90.9902C163.06 90.9902 163.66 91.5902 163.66 92.3402C163.66 93.0902 163.06 93.6902 162.31 93.6902Z" fill="#71869D"/>
<path d="M131.98 93.6902C131.24 93.6902 130.63 93.0902 130.63 92.3402C130.63 91.5902 131.23 90.9902 131.98 90.9902C132.73 90.9902 133.33 91.5902 133.33 92.3402C133.33 93.0902 132.73 93.6902 131.98 93.6902Z" fill="#71869D"/>
<path d="M283.64 124.02C282.9 124.02 282.29 123.42 282.29 122.67C282.29 121.92 282.89 121.32 283.64 121.32C284.39 121.32 284.99 121.92 284.99 122.67C284.99 123.42 284.39 124.02 283.64 124.02Z" fill="#71869D"/>
<path d="M253.31 124.02C252.57 124.02 251.96 123.42 251.96 122.67C251.96 121.92 252.56 121.32 253.31 121.32C254.06 121.32 254.66 121.92 254.66 122.67C254.66 123.42 254.06 124.02 253.31 124.02Z" fill="#71869D"/>
<path d="M222.97 124.02C222.23 124.02 221.62 123.42 221.62 122.67C221.62 121.92 222.22 121.32 222.97 121.32C223.72 121.32 224.32 121.92 224.32 122.67C224.32 123.42 223.72 124.02 222.97 124.02Z" fill="#71869D"/>
<path d="M192.64 124.02C191.9 124.02 191.29 123.42 191.29 122.67C191.29 121.92 191.89 121.32 192.64 121.32C193.39 121.32 193.99 121.92 193.99 122.67C193.99 123.42 193.39 124.02 192.64 124.02Z" fill="#71869D"/>
<path d="M162.31 124.02C161.57 124.02 160.96 123.42 160.96 122.67C160.96 121.92 161.56 121.32 162.31 121.32C163.06 121.32 163.66 121.92 163.66 122.67C163.66 123.42 163.06 124.02 162.31 124.02Z" fill="#71869D"/>
<path d="M131.98 124.02C131.24 124.02 130.63 123.42 130.63 122.67C130.63 121.92 131.23 121.32 131.98 121.32C132.73 121.32 133.33 121.92 133.33 122.67C133.33 123.42 132.73 124.02 131.98 124.02Z" fill="#71869D"/>
<path d="M283.64 154.35C282.9 154.35 282.29 153.75 282.29 153C282.29 152.25 282.89 151.65 283.64 151.65C284.39 151.65 284.99 152.25 284.99 153C284.99 153.75 284.39 154.35 283.64 154.35Z" fill="#71869D"/>
<path d="M253.31 154.35C252.57 154.35 251.96 153.75 251.96 153C251.96 152.25 252.56 151.65 253.31 151.65C254.06 151.65 254.66 152.25 254.66 153C254.66 153.75 254.06 154.35 253.31 154.35Z" fill="#71869D"/>
<path d="M222.97 154.35C222.23 154.35 221.62 153.75 221.62 153C221.62 152.25 222.22 151.65 222.97 151.65C223.72 151.65 224.32 152.25 224.32 153C224.32 153.75 223.72 154.35 222.97 154.35Z" fill="#71869D"/>
<path d="M192.64 154.35C191.9 154.35 191.29 153.75 191.29 153C191.29 152.25 191.89 151.65 192.64 151.65C193.39 151.65 193.99 152.25 193.99 153C193.99 153.75 193.39 154.35 192.64 154.35Z" fill="#71869D"/>
<path d="M162.31 154.35C161.57 154.35 160.96 153.75 160.96 153C160.96 152.25 161.56 151.65 162.31 151.65C163.06 151.65 163.66 152.25 163.66 153C163.66 153.75 163.06 154.35 162.31 154.35Z" fill="#71869D"/>
<path d="M131.98 154.35C131.24 154.35 130.63 153.75 130.63 153C130.63 152.25 131.23 151.65 131.98 151.65C132.73 151.65 133.33 152.25 133.33 153C133.33 153.75 132.73 154.35 131.98 154.35Z" fill="#71869D"/>
<path d="M283.64 184.68C282.9 184.68 282.29 184.08 282.29 183.33C282.29 182.58 282.89 181.98 283.64 181.98C284.39 181.98 284.99 182.58 284.99 183.33C284.99 184.08 284.39 184.68 283.64 184.68Z" fill="#71869D"/>
<path d="M253.31 184.68C252.57 184.68 251.96 184.08 251.96 183.33C251.96 182.58 252.56 181.98 253.31 181.98C254.06 181.98 254.66 182.58 254.66 183.33C254.66 184.08 254.06 184.68 253.31 184.68Z" fill="#71869D"/>
<path d="M222.97 184.68C222.23 184.68 221.62 184.08 221.62 183.33C221.62 182.58 222.22 181.98 222.97 181.98C223.72 181.98 224.32 182.58 224.32 183.33C224.32 184.08 223.72 184.68 222.97 184.68Z" fill="#71869D"/>
<path d="M192.64 184.68C191.9 184.68 191.29 184.08 191.29 183.33C191.29 182.58 191.89 181.98 192.64 181.98C193.39 181.98 193.99 182.58 193.99 183.33C193.99 184.08 193.39 184.68 192.64 184.68Z" fill="#71869D"/>
<path d="M162.31 184.68C161.57 184.68 160.96 184.08 160.96 183.33C160.96 182.58 161.56 181.98 162.31 181.98C163.06 181.98 163.66 182.58 163.66 183.33C163.66 184.08 163.06 184.68 162.31 184.68Z" fill="#71869D"/>
<path d="M131.98 184.68C131.24 184.68 130.63 184.08 130.63 183.33C130.63 182.58 131.23 181.98 131.98 181.98C132.73 181.98 133.33 182.58 133.33 183.33C133.33 184.08 132.73 184.68 131.98 184.68Z" fill="#71869D"/>
<path d="M283.64 215.01C282.9 215.01 282.29 214.41 282.29 213.66C282.29 212.91 282.89 212.31 283.64 212.31C284.39 212.31 284.99 212.91 284.99 213.66C284.99 214.41 284.39 215.01 283.64 215.01Z" fill="#71869D"/>
<path d="M253.31 215.01C252.57 215.01 251.96 214.41 251.96 213.66C251.96 212.91 252.56 212.31 253.31 212.31C254.06 212.31 254.66 212.91 254.66 213.66C254.66 214.41 254.06 215.01 253.31 215.01Z" fill="#71869D"/>
<path d="M222.97 215.01C222.23 215.01 221.62 214.41 221.62 213.66C221.62 212.91 222.22 212.31 222.97 212.31C223.72 212.31 224.32 212.91 224.32 213.66C224.32 214.41 223.72 215.01 222.97 215.01Z" fill="#71869D"/>
<path d="M192.64 215.01C191.9 215.01 191.29 214.41 191.29 213.66C191.29 212.91 191.89 212.31 192.64 212.31C193.39 212.31 193.99 212.91 193.99 213.66C193.99 214.41 193.39 215.01 192.64 215.01Z" fill="#71869D"/>
<path d="M162.31 215.01C161.57 215.01 160.96 214.41 160.96 213.66C160.96 212.91 161.56 212.31 162.31 212.31C163.06 212.31 163.66 212.91 163.66 213.66C163.66 214.41 163.06 215.01 162.31 215.01Z" fill="#71869D"/>
<path d="M131.98 215.01C131.24 215.01 130.63 214.41 130.63 213.66C130.63 212.91 131.23 212.31 131.98 212.31C132.73 212.31 133.33 212.91 133.33 213.66C133.33 214.41 132.73 215.01 131.98 215.01Z" fill="#71869D"/>
<path d="M283.64 245.35C282.9 245.35 282.29 244.75 282.29 244C282.29 243.25 282.89 242.65 283.64 242.65C284.39 242.65 284.99 243.25 284.99 244C284.99 244.75 284.39 245.35 283.64 245.35Z" fill="#71869D"/>
<path d="M253.31 245.35C252.57 245.35 251.96 244.75 251.96 244C251.96 243.25 252.56 242.65 253.31 242.65C254.06 242.65 254.66 243.25 254.66 244C254.66 244.75 254.06 245.35 253.31 245.35Z" fill="#71869D"/>
<path d="M222.97 245.35C222.23 245.35 221.62 244.75 221.62 244C221.62 243.25 222.22 242.65 222.97 242.65C223.72 242.65 224.32 243.25 224.32 244C224.32 244.75 223.72 245.35 222.97 245.35Z" fill="#71869D"/>
<path d="M192.64 245.35C191.9 245.35 191.29 244.75 191.29 244C191.29 243.25 191.89 242.65 192.64 242.65C193.39 242.65 193.99 243.25 193.99 244C193.99 244.75 193.39 245.35 192.64 245.35Z" fill="#71869D"/>
<path d="M162.31 245.35C161.57 245.35 160.96 244.75 160.96 244C160.96 243.25 161.56 242.65 162.31 242.65C163.06 242.65 163.66 243.25 163.66 244C163.66 244.75 163.06 245.35 162.31 245.35Z" fill="#71869D"/>
<path d="M131.98 245.35C131.24 245.35 130.63 244.75 130.63 244C130.63 243.25 131.23 242.65 131.98 242.65C132.73 242.65 133.33 243.25 133.33 244C133.33 244.75 132.73 245.35 131.98 245.35Z" fill="#71869D"/>
<path d="M283.64 275.68C282.9 275.68 282.29 275.08 282.29 274.33C282.29 273.58 282.89 272.98 283.64 272.98C284.39 272.98 284.99 273.58 284.99 274.33C284.99 275.08 284.39 275.68 283.64 275.68Z" fill="#71869D"/>
<path d="M253.31 275.68C252.57 275.68 251.96 275.08 251.96 274.33C251.96 273.58 252.56 272.98 253.31 272.98C254.06 272.98 254.66 273.58 254.66 274.33C254.66 275.08 254.06 275.68 253.31 275.68Z" fill="#71869D"/>
<path d="M222.97 275.68C222.23 275.68 221.62 275.08 221.62 274.33C221.62 273.58 222.22 272.98 222.97 272.98C223.72 272.98 224.32 273.58 224.32 274.33C224.32 275.08 223.72 275.68 222.97 275.68Z" fill="#71869D"/>
<path d="M192.64 275.68C191.9 275.68 191.29 275.08 191.29 274.33C191.29 273.58 191.89 272.98 192.64 272.98C193.39 272.98 193.99 273.58 193.99 274.33C193.99 275.08 193.39 275.68 192.64 275.68Z" fill="#71869D"/>
<path d="M162.31 275.68C161.57 275.68 160.96 275.08 160.96 274.33C160.96 273.58 161.56 272.98 162.31 272.98C163.06 272.98 163.66 273.58 163.66 274.33C163.66 275.08 163.06 275.68 162.31 275.68Z" fill="#71869D"/>
<path d="M131.98 275.68C131.24 275.68 130.63 275.08 130.63 274.33C130.63 273.58 131.23 272.98 131.98 272.98C132.73 272.98 133.33 273.58 133.33 274.33C133.33 275.08 132.73 275.68 131.98 275.68Z" fill="#71869D"/>
<path d="M283.64 306.01C282.9 306.01 282.29 305.41 282.29 304.66C282.29 303.91 282.89 303.31 283.64 303.31C284.39 303.31 284.99 303.91 284.99 304.66C284.99 305.41 284.39 306.01 283.64 306.01Z" fill="#71869D"/>
<path d="M253.31 306.01C252.57 306.01 251.96 305.41 251.96 304.66C251.96 303.91 252.56 303.31 253.31 303.31C254.06 303.31 254.66 303.91 254.66 304.66C254.66 305.41 254.06 306.01 253.31 306.01Z" fill="#71869D"/>
<path d="M222.97 306.01C222.23 306.01 221.62 305.41 221.62 304.66C221.62 303.91 222.22 303.31 222.97 303.31C223.72 303.31 224.32 303.91 224.32 304.66C224.32 305.41 223.72 306.01 222.97 306.01Z" fill="#71869D"/>
<path d="M192.64 306.01C191.9 306.01 191.29 305.41 191.29 304.66C191.29 303.91 191.89 303.31 192.64 303.31C193.39 303.31 193.99 303.91 193.99 304.66C193.99 305.41 193.39 306.01 192.64 306.01Z" fill="#71869D"/>
<path d="M162.31 306.01C161.57 306.01 160.96 305.41 160.96 304.66C160.96 303.91 161.56 303.31 162.31 303.31C163.06 303.31 163.66 303.91 163.66 304.66C163.66 305.41 163.06 306.01 162.31 306.01Z" fill="#71869D"/>
<path d="M131.98 306.01C131.24 306.01 130.63 305.41 130.63 304.66C130.63 303.91 131.23 303.31 131.98 303.31C132.73 303.31 133.33 303.91 133.33 304.66C133.33 305.41 132.73 306.01 131.98 306.01Z" fill="#71869D"/>
<path d="M101.65 2.7C100.91 2.7 100.3 2.1 100.3 1.35C100.3 0.6 100.91 0 101.65 0C102.39 0 103 0.6 103 1.35C103 2.1 102.4 2.7 101.65 2.7Z" fill="#71869D"/>
<path d="M71.32 2.7C70.58 2.7 69.97 2.1 69.97 1.35C69.97 0.6 70.58 0 71.32 0C72.06 0 72.67 0.6 72.67 1.35C72.67 2.1 72.07 2.7 71.32 2.7Z" fill="#71869D"/>
<path d="M101.65 33.0301C100.91 33.0301 100.3 32.4301 100.3 31.6801C100.3 30.9301 100.9 30.3301 101.65 30.3301C102.4 30.3301 103 30.9301 103 31.6801C103 32.4301 102.4 33.0301 101.65 33.0301Z" fill="#71869D"/>
<path d="M71.32 33.0301C70.58 33.0301 69.97 32.4301 69.97 31.6801C69.97 30.9301 70.57 30.3301 71.32 30.3301C72.07 30.3301 72.67 30.9301 72.67 31.6801C72.67 32.4301 72.07 33.0301 71.32 33.0301Z" fill="#71869D"/>
<path d="M101.65 63.3602C100.91 63.3602 100.3 62.7602 100.3 62.0102C100.3 61.2602 100.9 60.6602 101.65 60.6602C102.4 60.6602 103 61.2602 103 62.0102C103 62.7602 102.4 63.3602 101.65 63.3602Z" fill="#71869D"/>
<path d="M71.32 63.3602C70.58 63.3602 69.97 62.7602 69.97 62.0102C69.97 61.2602 70.57 60.6602 71.32 60.6602C72.07 60.6602 72.67 61.2602 72.67 62.0102C72.67 62.7602 72.07 63.3602 71.32 63.3602Z" fill="#71869D"/>
<path d="M101.65 93.6902C100.91 93.6902 100.3 93.0902 100.3 92.3402C100.3 91.5902 100.9 90.9902 101.65 90.9902C102.4 90.9902 103 91.5902 103 92.3402C103 93.0902 102.4 93.6902 101.65 93.6902Z" fill="#71869D"/>
<path d="M71.32 93.6902C70.58 93.6902 69.97 93.0902 69.97 92.3402C69.97 91.5902 70.57 90.9902 71.32 90.9902C72.07 90.9902 72.67 91.5902 72.67 92.3402C72.67 93.0902 72.07 93.6902 71.32 93.6902Z" fill="#71869D"/>
<path d="M101.65 124.02C100.91 124.02 100.3 123.42 100.3 122.67C100.3 121.92 100.9 121.32 101.65 121.32C102.4 121.32 103 121.92 103 122.67C103 123.42 102.4 124.02 101.65 124.02Z" fill="#71869D"/>
<path d="M71.32 124.02C70.58 124.02 69.97 123.42 69.97 122.67C69.97 121.92 70.57 121.32 71.32 121.32C72.07 121.32 72.67 121.92 72.67 122.67C72.67 123.42 72.07 124.02 71.32 124.02Z" fill="#71869D"/>
<path d="M101.65 154.35C100.91 154.35 100.3 153.75 100.3 153C100.3 152.25 100.9 151.65 101.65 151.65C102.4 151.65 103 152.25 103 153C103 153.75 102.4 154.35 101.65 154.35Z" fill="#71869D"/>
<path d="M71.32 154.35C70.58 154.35 69.97 153.75 69.97 153C69.97 152.25 70.57 151.65 71.32 151.65C72.07 151.65 72.67 152.25 72.67 153C72.67 153.75 72.07 154.35 71.32 154.35Z" fill="#71869D"/>
<path d="M101.65 184.68C100.91 184.68 100.3 184.08 100.3 183.33C100.3 182.58 100.9 181.98 101.65 181.98C102.4 181.98 103 182.58 103 183.33C103 184.08 102.4 184.68 101.65 184.68Z" fill="#71869D"/>
<path d="M71.32 184.68C70.58 184.68 69.97 184.08 69.97 183.33C69.97 182.58 70.57 181.98 71.32 181.98C72.07 181.98 72.67 182.58 72.67 183.33C72.67 184.08 72.07 184.68 71.32 184.68Z" fill="#71869D"/>
<path d="M101.65 215.01C100.91 215.01 100.3 214.41 100.3 213.66C100.3 212.91 100.9 212.31 101.65 212.31C102.4 212.31 103 212.91 103 213.66C103 214.41 102.4 215.01 101.65 215.01Z" fill="#71869D"/>
<path d="M71.32 215.01C70.58 215.01 69.97 214.41 69.97 213.66C69.97 212.91 70.57 212.31 71.32 212.31C72.07 212.31 72.67 212.91 72.67 213.66C72.67 214.41 72.07 215.01 71.32 215.01Z" fill="#71869D"/>
<path d="M101.65 245.35C100.91 245.35 100.3 244.75 100.3 244C100.3 243.25 100.9 242.65 101.65 242.65C102.4 242.65 103 243.25 103 244C103 244.75 102.4 245.35 101.65 245.35Z" fill="#71869D"/>
<path d="M71.32 245.35C70.58 245.35 69.97 244.75 69.97 244C69.97 243.25 70.57 242.65 71.32 242.65C72.07 242.65 72.67 243.25 72.67 244C72.67 244.75 72.07 245.35 71.32 245.35Z" fill="#71869D"/>
<path d="M101.65 275.68C100.91 275.68 100.3 275.08 100.3 274.33C100.3 273.58 100.9 272.98 101.65 272.98C102.4 272.98 103 273.58 103 274.33C103 275.08 102.4 275.68 101.65 275.68Z" fill="#71869D"/>
<path d="M71.32 275.68C70.58 275.68 69.97 275.08 69.97 274.33C69.97 273.58 70.57 272.98 71.32 272.98C72.07 272.98 72.67 273.58 72.67 274.33C72.67 275.08 72.07 275.68 71.32 275.68Z" fill="#71869D"/>
<path d="M101.65 306.01C100.91 306.01 100.3 305.41 100.3 304.66C100.3 303.91 100.9 303.31 101.65 303.31C102.4 303.31 103 303.91 103 304.66C103 305.41 102.4 306.01 101.65 306.01Z" fill="#71869D"/>
<path d="M71.32 306.01C70.58 306.01 69.97 305.41 69.97 304.66C69.97 303.91 70.57 303.31 71.32 303.31C72.07 303.31 72.67 303.91 72.67 304.66C72.67 305.41 72.07 306.01 71.32 306.01Z" fill="#71869D"/>
<path d="M283.64 336.34C282.9 336.34 282.29 335.74 282.29 334.99C282.29 334.24 282.89 333.64 283.64 333.64C284.39 333.64 284.99 334.24 284.99 334.99C284.99 335.74 284.39 336.34 283.64 336.34Z" fill="#71869D"/>
<path d="M253.31 336.34C252.57 336.34 251.96 335.74 251.96 334.99C251.96 334.24 252.56 333.64 253.31 333.64C254.06 333.64 254.66 334.24 254.66 334.99C254.66 335.74 254.06 336.34 253.31 336.34Z" fill="#71869D"/>
<path d="M222.97 336.34C222.23 336.34 221.62 335.74 221.62 334.99C221.62 334.24 222.22 333.64 222.97 333.64C223.72 333.64 224.32 334.24 224.32 334.99C224.32 335.74 223.72 336.34 222.97 336.34Z" fill="#71869D"/>
<path d="M192.64 336.34C191.9 336.34 191.29 335.74 191.29 334.99C191.29 334.24 191.89 333.64 192.64 333.64C193.39 333.64 193.99 334.24 193.99 334.99C193.99 335.74 193.39 336.34 192.64 336.34Z" fill="#71869D"/>
<path d="M162.31 336.34C161.57 336.34 160.96 335.74 160.96 334.99C160.96 334.24 161.56 333.64 162.31 333.64C163.06 333.64 163.66 334.24 163.66 334.99C163.66 335.74 163.06 336.34 162.31 336.34Z" fill="#71869D"/>
<path d="M131.98 336.34C131.24 336.34 130.63 335.74 130.63 334.99C130.63 334.24 131.23 333.64 131.98 333.64C132.73 333.64 133.33 334.24 133.33 334.99C133.33 335.74 132.73 336.34 131.98 336.34Z" fill="#71869D"/>
<path d="M283.64 366.67C282.9 366.67 282.29 366.07 282.29 365.32C282.29 364.57 282.89 363.97 283.64 363.97C284.39 363.97 284.99 364.57 284.99 365.32C284.99 366.07 284.39 366.67 283.64 366.67Z" fill="#71869D"/>
<path d="M253.31 366.67C252.57 366.67 251.96 366.07 251.96 365.32C251.96 364.57 252.56 363.97 253.31 363.97C254.06 363.97 254.66 364.57 254.66 365.32C254.66 366.07 254.06 366.67 253.31 366.67Z" fill="#71869D"/>
<path d="M222.97 366.67C222.23 366.67 221.62 366.07 221.62 365.32C221.62 364.57 222.22 363.97 222.97 363.97C223.72 363.97 224.32 364.57 224.32 365.32C224.32 366.07 223.72 366.67 222.97 366.67Z" fill="#71869D"/>
<path d="M192.64 366.67C191.9 366.67 191.29 366.07 191.29 365.32C191.29 364.57 191.89 363.97 192.64 363.97C193.39 363.97 193.99 364.57 193.99 365.32C193.99 366.07 193.39 366.67 192.64 366.67Z" fill="#71869D"/>
<path d="M162.31 366.67C161.57 366.67 160.96 366.07 160.96 365.32C160.96 364.57 161.56 363.97 162.31 363.97C163.06 363.97 163.66 364.57 163.66 365.32C163.66 366.07 163.06 366.67 162.31 366.67Z" fill="#71869D"/>
<path d="M131.98 366.67C131.24 366.67 130.63 366.07 130.63 365.32C130.63 364.57 131.23 363.97 131.98 363.97C132.73 363.97 133.33 364.57 133.33 365.32C133.33 366.07 132.73 366.67 131.98 366.67Z" fill="#71869D"/>
<path d="M283.64 397C282.9 397 282.29 396.4 282.29 395.65C282.29 394.9 282.89 394.3 283.64 394.3C284.39 394.3 284.99 394.9 284.99 395.65C284.99 396.4 284.39 397 283.64 397Z" fill="#71869D"/>
<path d="M253.31 397C252.57 397 251.96 396.4 251.96 395.65C251.96 394.9 252.56 394.3 253.31 394.3C254.06 394.3 254.66 394.9 254.66 395.65C254.66 396.4 254.06 397 253.31 397Z" fill="#71869D"/>
<path d="M222.97 397C222.23 397 221.62 396.4 221.62 395.65C221.62 394.9 222.22 394.3 222.97 394.3C223.72 394.3 224.32 394.9 224.32 395.65C224.32 396.4 223.72 397 222.97 397Z" fill="#71869D"/>
<path d="M192.64 397C191.9 397 191.29 396.4 191.29 395.65C191.29 394.9 191.89 394.3 192.64 394.3C193.39 394.3 193.99 394.9 193.99 395.65C193.99 396.4 193.39 397 192.64 397Z" fill="#71869D"/>
<path d="M162.31 397C161.57 397 160.96 396.4 160.96 395.65C160.96 394.9 161.56 394.3 162.31 394.3C163.06 394.3 163.66 394.9 163.66 395.65C163.66 396.4 163.06 397 162.31 397Z" fill="#71869D"/>
<path d="M131.98 397C131.24 397 130.63 396.4 130.63 395.65C130.63 394.9 131.23 394.3 131.98 394.3C132.73 394.3 133.33 394.9 133.33 395.65C133.33 396.4 132.73 397 131.98 397Z" fill="#71869D"/>
<path d="M101.65 336.34C100.91 336.34 100.3 335.74 100.3 334.99C100.3 334.24 100.9 333.64 101.65 333.64C102.4 333.64 103 334.24 103 334.99C103 335.74 102.4 336.34 101.65 336.34Z" fill="#71869D"/>
<path d="M71.32 336.34C70.58 336.34 69.97 335.74 69.97 334.99C69.97 334.24 70.57 333.64 71.32 333.64C72.07 333.64 72.67 334.24 72.67 334.99C72.67 335.74 72.07 336.34 71.32 336.34Z" fill="#71869D"/>
<path d="M101.65 366.67C100.91 366.67 100.3 366.07 100.3 365.32C100.3 364.57 100.9 363.97 101.65 363.97C102.4 363.97 103 364.57 103 365.32C103 366.07 102.4 366.67 101.65 366.67Z" fill="#71869D"/>
<path d="M71.32 366.67C70.58 366.67 69.97 366.07 69.97 365.32C69.97 364.57 70.57 363.97 71.32 363.97C72.07 363.97 72.67 364.57 72.67 365.32C72.67 366.07 72.07 366.67 71.32 366.67Z" fill="#71869D"/>
<path d="M101.65 397C100.91 397 100.3 396.4 100.3 395.65C100.3 394.9 100.9 394.3 101.65 394.3C102.4 394.3 103 394.9 103 395.65C103 396.4 102.4 397 101.65 397Z" fill="#71869D"/>
<path d="M71.32 397C70.58 397 69.97 396.4 69.97 395.65C69.97 394.9 70.57 394.3 71.32 394.3C72.07 394.3 72.67 394.9 72.67 395.65C72.67 396.4 72.07 397 71.32 397Z" fill="#71869D"/>
<path d="M589.28 475.67C589.28 474.93 589.88 474.32 590.63 474.32C591.38 474.32 591.98 474.92 591.98 475.67C591.98 476.42 591.38 477.02 590.63 477.02C589.88 477.02 589.28 476.42 589.28 475.67Z" fill="#71869D"/>
<path d="M589.28 445.34C589.28 444.6 589.88 443.99 590.63 443.99C591.38 443.99 591.98 444.59 591.98 445.34C591.98 446.09 591.38 446.69 590.63 446.69C589.88 446.69 589.28 446.09 589.28 445.34Z" fill="#71869D"/>
<path d="M589.28 415C589.28 414.26 589.88 413.65 590.63 413.65C591.38 413.65 591.98 414.25 591.98 415C591.98 415.75 591.38 416.35 590.63 416.35C589.88 416.35 589.28 415.75 589.28 415Z" fill="#71869D"/>
<path d="M589.28 384.67C589.28 383.93 589.88 383.32 590.63 383.32C591.38 383.32 591.98 383.92 591.98 384.67C591.98 385.42 591.38 386.02 590.63 386.02C589.88 386.02 589.28 385.42 589.28 384.67Z" fill="#71869D"/>
<path d="M589.28 354.34C589.28 353.6 589.88 352.99 590.63 352.99C591.38 352.99 591.98 353.59 591.98 354.34C591.98 355.09 591.38 355.69 590.63 355.69C589.88 355.69 589.28 355.09 589.28 354.34Z" fill="#71869D"/>
<path d="M589.28 324.01C589.28 323.27 589.88 322.66 590.63 322.66C591.38 322.66 591.98 323.26 591.98 324.01C591.98 324.76 591.38 325.36 590.63 325.36C589.88 325.36 589.28 324.76 589.28 324.01Z" fill="#71869D"/>
<path d="M558.95 475.67C558.95 474.93 559.55 474.32 560.3 474.32C561.05 474.32 561.65 474.92 561.65 475.67C561.65 476.42 561.05 477.02 560.3 477.02C559.55 477.02 558.95 476.42 558.95 475.67Z" fill="#71869D"/>
<path d="M558.95 445.34C558.95 444.6 559.55 443.99 560.3 443.99C561.05 443.99 561.65 444.59 561.65 445.34C561.65 446.09 561.05 446.69 560.3 446.69C559.55 446.69 558.95 446.09 558.95 445.34Z" fill="#71869D"/>
<path d="M558.95 415C558.95 414.26 559.55 413.65 560.3 413.65C561.05 413.65 561.65 414.25 561.65 415C561.65 415.75 561.05 416.35 560.3 416.35C559.55 416.35 558.95 415.75 558.95 415Z" fill="#71869D"/>
<path d="M558.95 384.67C558.95 383.93 559.55 383.32 560.3 383.32C561.05 383.32 561.65 383.92 561.65 384.67C561.65 385.42 561.05 386.02 560.3 386.02C559.55 386.02 558.95 385.42 558.95 384.67Z" fill="#71869D"/>
<path d="M558.95 354.34C558.95 353.6 559.55 352.99 560.3 352.99C561.05 352.99 561.65 353.59 561.65 354.34C561.65 355.09 561.05 355.69 560.3 355.69C559.55 355.69 558.95 355.09 558.95 354.34Z" fill="#71869D"/>
<path d="M558.95 324.01C558.95 323.27 559.55 322.66 560.3 322.66C561.05 322.66 561.65 323.26 561.65 324.01C561.65 324.76 561.05 325.36 560.3 325.36C559.55 325.36 558.95 324.76 558.95 324.01Z" fill="#71869D"/>
<path d="M528.61 475.67C528.61 474.93 529.21 474.32 529.96 474.32C530.71 474.32 531.31 474.92 531.31 475.67C531.31 476.42 530.71 477.02 529.96 477.02C529.21 477.02 528.61 476.42 528.61 475.67Z" fill="#71869D"/>
<path d="M528.61 445.34C528.61 444.6 529.21 443.99 529.96 443.99C530.71 443.99 531.31 444.59 531.31 445.34C531.31 446.09 530.71 446.69 529.96 446.69C529.21 446.69 528.61 446.09 528.61 445.34Z" fill="#71869D"/>
<path d="M528.61 415C528.61 414.26 529.21 413.65 529.96 413.65C530.71 413.65 531.31 414.25 531.31 415C531.31 415.75 530.71 416.35 529.96 416.35C529.21 416.35 528.61 415.75 528.61 415Z" fill="#71869D"/>
<path d="M528.61 384.67C528.61 383.93 529.21 383.32 529.96 383.32C530.71 383.32 531.31 383.92 531.31 384.67C531.31 385.42 530.71 386.02 529.96 386.02C529.21 386.02 528.61 385.42 528.61 384.67Z" fill="#71869D"/>
<path d="M528.61 354.34C528.61 353.6 529.21 352.99 529.96 352.99C530.71 352.99 531.31 353.59 531.31 354.34C531.31 355.09 530.71 355.69 529.96 355.69C529.21 355.69 528.61 355.09 528.61 354.34Z" fill="#71869D"/>
<path d="M528.61 324.01C528.61 323.27 529.21 322.66 529.96 322.66C530.71 322.66 531.31 323.26 531.31 324.01C531.31 324.76 530.71 325.36 529.96 325.36C529.21 325.36 528.61 324.76 528.61 324.01Z" fill="#71869D"/>
<path d="M498.28 475.67C498.28 474.93 498.88 474.32 499.63 474.32C500.38 474.32 500.98 474.92 500.98 475.67C500.98 476.42 500.38 477.02 499.63 477.02C498.88 477.02 498.28 476.42 498.28 475.67Z" fill="#71869D"/>
<path d="M498.28 445.34C498.28 444.6 498.88 443.99 499.63 443.99C500.38 443.99 500.98 444.59 500.98 445.34C500.98 446.09 500.38 446.69 499.63 446.69C498.88 446.69 498.28 446.09 498.28 445.34Z" fill="#71869D"/>
<path d="M498.28 415C498.28 414.26 498.88 413.65 499.63 413.65C500.38 413.65 500.98 414.25 500.98 415C500.98 415.75 500.38 416.35 499.63 416.35C498.88 416.35 498.28 415.75 498.28 415Z" fill="#71869D"/>
<path d="M498.28 384.67C498.28 383.93 498.88 383.32 499.63 383.32C500.38 383.32 500.98 383.92 500.98 384.67C500.98 385.42 500.38 386.02 499.63 386.02C498.88 386.02 498.28 385.42 498.28 384.67Z" fill="#71869D"/>
<path d="M498.28 354.34C498.28 353.6 498.88 352.99 499.63 352.99C500.38 352.99 500.98 353.59 500.98 354.34C500.98 355.09 500.38 355.69 499.63 355.69C498.88 355.69 498.28 355.09 498.28 354.34Z" fill="#71869D"/>
<path d="M498.28 324.01C498.28 323.27 498.88 322.66 499.63 322.66C500.38 322.66 500.98 323.26 500.98 324.01C500.98 324.76 500.38 325.36 499.63 325.36C498.88 325.36 498.28 324.76 498.28 324.01Z" fill="#71869D"/>
<path d="M467.95 475.67C467.95 474.93 468.55 474.32 469.3 474.32C470.05 474.32 470.65 474.92 470.65 475.67C470.65 476.42 470.05 477.02 469.3 477.02C468.55 477.02 467.95 476.42 467.95 475.67Z" fill="#71869D"/>
<path d="M467.95 445.34C467.95 444.6 468.55 443.99 469.3 443.99C470.05 443.99 470.65 444.59 470.65 445.34C470.65 446.09 470.05 446.69 469.3 446.69C468.55 446.69 467.95 446.09 467.95 445.34Z" fill="#71869D"/>
<path d="M467.95 415C467.95 414.26 468.55 413.65 469.3 413.65C470.05 413.65 470.65 414.25 470.65 415C470.65 415.75 470.05 416.35 469.3 416.35C468.55 416.35 467.95 415.75 467.95 415Z" fill="#71869D"/>
<path d="M467.95 384.67C467.95 383.93 468.55 383.32 469.3 383.32C470.05 383.32 470.65 383.92 470.65 384.67C470.65 385.42 470.05 386.02 469.3 386.02C468.55 386.02 467.95 385.42 467.95 384.67Z" fill="#71869D"/>
<path d="M467.95 354.34C467.95 353.6 468.55 352.99 469.3 352.99C470.05 352.99 470.65 353.59 470.65 354.34C470.65 355.09 470.05 355.69 469.3 355.69C468.55 355.69 467.95 355.09 467.95 354.34Z" fill="#71869D"/>
<path d="M467.95 324.01C467.95 323.27 468.55 322.66 469.3 322.66C470.05 322.66 470.65 323.26 470.65 324.01C470.65 324.76 470.05 325.36 469.3 325.36C468.55 325.36 467.95 324.76 467.95 324.01Z" fill="#71869D"/>
<path d="M437.62 475.67C437.62 474.93 438.22 474.32 438.97 474.32C439.72 474.32 440.32 474.92 440.32 475.67C440.32 476.42 439.72 477.02 438.97 477.02C438.22 477.02 437.62 476.42 437.62 475.67Z" fill="#71869D"/>
<path d="M437.62 445.34C437.62 444.6 438.22 443.99 438.97 443.99C439.72 443.99 440.32 444.59 440.32 445.34C440.32 446.09 439.72 446.69 438.97 446.69C438.22 446.69 437.62 446.09 437.62 445.34Z" fill="#71869D"/>
<path d="M437.62 415C437.62 414.26 438.22 413.65 438.97 413.65C439.72 413.65 440.32 414.25 440.32 415C440.32 415.75 439.72 416.35 438.97 416.35C438.22 416.35 437.62 415.75 437.62 415Z" fill="#71869D"/>
<path d="M437.62 384.67C437.62 383.93 438.22 383.32 438.97 383.32C439.72 383.32 440.32 383.92 440.32 384.67C440.32 385.42 439.72 386.02 438.97 386.02C438.22 386.02 437.62 385.42 437.62 384.67Z" fill="#71869D"/>
<path d="M437.62 354.34C437.62 353.6 438.22 352.99 438.97 352.99C439.72 352.99 440.32 353.59 440.32 354.34C440.32 355.09 439.72 355.69 438.97 355.69C438.22 355.69 437.62 355.09 437.62 354.34Z" fill="#71869D"/>
<path d="M437.62 324.01C437.62 323.27 438.22 322.66 438.97 322.66C439.72 322.66 440.32 323.26 440.32 324.01C440.32 324.76 439.72 325.36 438.97 325.36C438.22 325.36 437.62 324.76 437.62 324.01Z" fill="#71869D"/>
<path d="M407.29 475.67C407.29 474.93 407.89 474.32 408.64 474.32C409.39 474.32 409.99 474.92 409.99 475.67C409.99 476.42 409.39 477.02 408.64 477.02C407.89 477.02 407.29 476.42 407.29 475.67Z" fill="#71869D"/>
<path d="M407.29 445.34C407.29 444.6 407.89 443.99 408.64 443.99C409.39 443.99 409.99 444.59 409.99 445.34C409.99 446.09 409.39 446.69 408.64 446.69C407.89 446.69 407.29 446.09 407.29 445.34Z" fill="#71869D"/>
<path d="M407.29 415C407.29 414.26 407.89 413.65 408.64 413.65C409.39 413.65 409.99 414.25 409.99 415C409.99 415.75 409.39 416.35 408.64 416.35C407.89 416.35 407.29 415.75 407.29 415Z" fill="#71869D"/>
<path d="M407.29 384.67C407.29 383.93 407.89 383.32 408.64 383.32C409.39 383.32 409.99 383.92 409.99 384.67C409.99 385.42 409.39 386.02 408.64 386.02C407.89 386.02 407.29 385.42 407.29 384.67Z" fill="#71869D"/>
<path d="M407.29 354.34C407.29 353.6 407.89 352.99 408.64 352.99C409.39 352.99 409.99 353.59 409.99 354.34C409.99 355.09 409.39 355.69 408.64 355.69C407.89 355.69 407.29 355.09 407.29 354.34Z" fill="#71869D"/>
<path d="M407.29 324.01C407.29 323.27 407.89 322.66 408.64 322.66C409.39 322.66 409.99 323.26 409.99 324.01C409.99 324.76 409.39 325.36 408.64 325.36C407.89 325.36 407.29 324.76 407.29 324.01Z" fill="#71869D"/>
<path d="M376.96 475.67C376.96 474.93 377.56 474.32 378.31 474.32C379.06 474.32 379.66 474.92 379.66 475.67C379.66 476.42 379.06 477.02 378.31 477.02C377.56 477.02 376.96 476.42 376.96 475.67Z" fill="#71869D"/>
<path d="M376.96 445.34C376.96 444.6 377.56 443.99 378.31 443.99C379.06 443.99 379.66 444.59 379.66 445.34C379.66 446.09 379.06 446.69 378.31 446.69C377.56 446.69 376.96 446.09 376.96 445.34Z" fill="#71869D"/>
<path d="M376.96 415C376.96 414.26 377.56 413.65 378.31 413.65C379.06 413.65 379.66 414.25 379.66 415C379.66 415.75 379.06 416.35 378.31 416.35C377.56 416.35 376.96 415.75 376.96 415Z" fill="#71869D"/>
<path d="M376.96 384.67C376.96 383.93 377.56 383.32 378.31 383.32C379.06 383.32 379.66 383.92 379.66 384.67C379.66 385.42 379.06 386.02 378.31 386.02C377.56 386.02 376.96 385.42 376.96 384.67Z" fill="#71869D"/>
<path d="M376.96 354.34C376.96 353.6 377.56 352.99 378.31 352.99C379.06 352.99 379.66 353.59 379.66 354.34C379.66 355.09 379.06 355.69 378.31 355.69C377.56 355.69 376.96 355.09 376.96 354.34Z" fill="#71869D"/>
<path d="M376.96 324.01C376.96 323.27 377.56 322.66 378.31 322.66C379.06 322.66 379.66 323.26 379.66 324.01C379.66 324.76 379.06 325.36 378.31 325.36C377.56 325.36 376.96 324.76 376.96 324.01Z" fill="#71869D"/>
<path d="M346.63 475.67C346.63 474.93 347.23 474.32 347.98 474.32C348.73 474.32 349.33 474.92 349.33 475.67C349.33 476.42 348.73 477.02 347.98 477.02C347.23 477.02 346.63 476.42 346.63 475.67Z" fill="#71869D"/>
<path d="M346.63 445.34C346.63 444.6 347.23 443.99 347.98 443.99C348.73 443.99 349.33 444.59 349.33 445.34C349.33 446.09 348.73 446.69 347.98 446.69C347.23 446.69 346.63 446.09 346.63 445.34Z" fill="#71869D"/>
<path d="M346.63 415C346.63 414.26 347.23 413.65 347.98 413.65C348.73 413.65 349.33 414.25 349.33 415C349.33 415.75 348.73 416.35 347.98 416.35C347.23 416.35 346.63 415.75 346.63 415Z" fill="#71869D"/>
<path d="M346.63 384.67C346.63 383.93 347.23 383.32 347.98 383.32C348.73 383.32 349.33 383.92 349.33 384.67C349.33 385.42 348.73 386.02 347.98 386.02C347.23 386.02 346.63 385.42 346.63 384.67Z" fill="#71869D"/>
<path d="M346.63 354.34C346.63 353.6 347.23 352.99 347.98 352.99C348.73 352.99 349.33 353.59 349.33 354.34C349.33 355.09 348.73 355.69 347.98 355.69C347.23 355.69 346.63 355.09 346.63 354.34Z" fill="#71869D"/>
<path d="M346.63 324.01C346.63 323.27 347.23 322.66 347.98 322.66C348.73 322.66 349.33 323.26 349.33 324.01C349.33 324.76 348.73 325.36 347.98 325.36C347.23 325.36 346.63 324.76 346.63 324.01Z" fill="#71869D"/>
<path d="M316.3 475.67C316.3 474.93 316.9 474.32 317.65 474.32C318.4 474.32 319 474.92 319 475.67C319 476.42 318.4 477.02 317.65 477.02C316.9 477.02 316.3 476.42 316.3 475.67Z" fill="#71869D"/>
<path d="M316.3 445.34C316.3 444.6 316.9 443.99 317.65 443.99C318.4 443.99 319 444.59 319 445.34C319 446.09 318.4 446.69 317.65 446.69C316.9 446.69 316.3 446.09 316.3 445.34Z" fill="#71869D"/>
<path d="M316.3 415C316.3 414.26 316.9 413.65 317.65 413.65C318.4 413.65 319 414.25 319 415C319 415.75 318.4 416.35 317.65 416.35C316.9 416.35 316.3 415.75 316.3 415Z" fill="#71869D"/>
<path d="M316.3 384.67C316.3 383.93 316.9 383.32 317.65 383.32C318.4 383.32 319 383.92 319 384.67C319 385.42 318.4 386.02 317.65 386.02C316.9 386.02 316.3 385.42 316.3 384.67Z" fill="#71869D"/>
<path d="M316.3 354.34C316.3 353.6 316.9 352.99 317.65 352.99C318.4 352.99 319 353.59 319 354.34C319 355.09 318.4 355.69 317.65 355.69C316.9 355.69 316.3 355.09 316.3 354.34Z" fill="#71869D"/>
<path d="M316.3 324.01C316.3 323.27 316.9 322.66 317.65 322.66C318.4 322.66 319 323.26 319 324.01C319 324.76 318.4 325.36 317.65 325.36C316.9 325.36 316.3 324.76 316.3 324.01Z" fill="#71869D"/>
<path d="M285.97 475.67C285.97 474.93 286.57 474.32 287.32 474.32C288.07 474.32 288.67 474.92 288.67 475.67C288.67 476.42 288.07 477.02 287.32 477.02C286.57 477.02 285.97 476.42 285.97 475.67Z" fill="#71869D"/>
<path d="M285.97 445.34C285.97 444.6 286.57 443.99 287.32 443.99C288.07 443.99 288.67 444.59 288.67 445.34C288.67 446.09 288.07 446.69 287.32 446.69C286.57 446.69 285.97 446.09 285.97 445.34Z" fill="#71869D"/>
<path d="M285.97 415C285.97 414.26 286.57 413.65 287.32 413.65C288.07 413.65 288.67 414.25 288.67 415C288.67 415.75 288.07 416.35 287.32 416.35C286.57 416.35 285.97 415.75 285.97 415Z" fill="#71869D"/>
<path d="M285.97 384.67C285.97 383.93 286.57 383.32 287.32 383.32C288.07 383.32 288.67 383.92 288.67 384.67C288.67 385.42 288.07 386.02 287.32 386.02C286.57 386.02 285.97 385.42 285.97 384.67Z" fill="#71869D"/>
<path d="M285.97 354.34C285.97 353.6 286.57 352.99 287.32 352.99C288.07 352.99 288.67 353.59 288.67 354.34C288.67 355.09 288.07 355.69 287.32 355.69C286.57 355.69 285.97 355.09 285.97 354.34Z" fill="#71869D"/>
<path d="M285.97 324.01C285.97 323.27 286.57 322.66 287.32 322.66C288.07 322.66 288.67 323.26 288.67 324.01C288.67 324.76 288.07 325.36 287.32 325.36C286.57 325.36 285.97 324.76 285.97 324.01Z" fill="#71869D"/>
<path d="M589.28 293.68C589.28 292.94 589.88 292.33 590.63 292.33C591.38 292.33 591.98 292.93 591.98 293.68C591.98 294.43 591.38 295.03 590.63 295.03C589.88 295.03 589.28 294.43 589.28 293.68Z" fill="#71869D"/>
<path d="M589.28 263.35C589.28 262.61 589.88 262 590.63 262C591.38 262 591.98 262.6 591.98 263.35C591.98 264.1 591.38 264.7 590.63 264.7C589.88 264.7 589.28 264.1 589.28 263.35Z" fill="#71869D"/>
<path d="M558.95 293.68C558.95 292.94 559.55 292.33 560.3 292.33C561.05 292.33 561.65 292.93 561.65 293.68C561.65 294.43 561.05 295.03 560.3 295.03C559.55 295.03 558.95 294.43 558.95 293.68Z" fill="#71869D"/>
<path d="M558.95 263.35C558.95 262.61 559.55 262 560.3 262C561.05 262 561.65 262.6 561.65 263.35C561.65 264.1 561.05 264.7 560.3 264.7C559.55 264.7 558.95 264.1 558.95 263.35Z" fill="#71869D"/>
<path d="M528.61 293.68C528.61 292.94 529.21 292.33 529.96 292.33C530.71 292.33 531.31 292.93 531.31 293.68C531.31 294.43 530.71 295.03 529.96 295.03C529.21 295.03 528.61 294.43 528.61 293.68Z" fill="#71869D"/>
<path d="M528.61 263.35C528.61 262.61 529.21 262 529.96 262C530.71 262 531.31 262.6 531.31 263.35C531.31 264.1 530.71 264.7 529.96 264.7C529.21 264.7 528.61 264.1 528.61 263.35Z" fill="#71869D"/>
<path d="M498.28 293.68C498.28 292.94 498.88 292.33 499.63 292.33C500.38 292.33 500.98 292.93 500.98 293.68C500.98 294.43 500.38 295.03 499.63 295.03C498.88 295.03 498.28 294.43 498.28 293.68Z" fill="#71869D"/>
<path d="M498.28 263.35C498.28 262.61 498.88 262 499.63 262C500.38 262 500.98 262.6 500.98 263.35C500.98 264.1 500.38 264.7 499.63 264.7C498.88 264.7 498.28 264.1 498.28 263.35Z" fill="#71869D"/>
<path d="M467.95 293.68C467.95 292.94 468.55 292.33 469.3 292.33C470.05 292.33 470.65 292.93 470.65 293.68C470.65 294.43 470.05 295.03 469.3 295.03C468.55 295.03 467.95 294.43 467.95 293.68Z" fill="#71869D"/>
<path d="M467.95 263.35C467.95 262.61 468.55 262 469.3 262C470.05 262 470.65 262.6 470.65 263.35C470.65 264.1 470.05 264.7 469.3 264.7C468.55 264.7 467.95 264.1 467.95 263.35Z" fill="#71869D"/>
<path d="M437.62 293.68C437.62 292.94 438.22 292.33 438.97 292.33C439.72 292.33 440.32 292.93 440.32 293.68C440.32 294.43 439.72 295.03 438.97 295.03C438.22 295.03 437.62 294.43 437.62 293.68Z" fill="#71869D"/>
<path d="M437.62 263.35C437.62 262.61 438.22 262 438.97 262C439.72 262 440.32 262.6 440.32 263.35C440.32 264.1 439.72 264.7 438.97 264.7C438.22 264.7 437.62 264.1 437.62 263.35Z" fill="#71869D"/>
<path d="M407.29 293.68C407.29 292.94 407.89 292.33 408.64 292.33C409.39 292.33 409.99 292.93 409.99 293.68C409.99 294.43 409.39 295.03 408.64 295.03C407.89 295.03 407.29 294.43 407.29 293.68Z" fill="#71869D"/>
<path d="M407.29 263.35C407.29 262.61 407.89 262 408.64 262C409.39 262 409.99 262.6 409.99 263.35C409.99 264.1 409.39 264.7 408.64 264.7C407.89 264.7 407.29 264.1 407.29 263.35Z" fill="#71869D"/>
<path d="M376.96 293.68C376.96 292.94 377.56 292.33 378.31 292.33C379.06 292.33 379.66 292.93 379.66 293.68C379.66 294.43 379.06 295.03 378.31 295.03C377.56 295.03 376.96 294.43 376.96 293.68Z" fill="#71869D"/>
<path d="M376.96 263.35C376.96 262.61 377.56 262 378.31 262C379.06 262 379.66 262.6 379.66 263.35C379.66 264.1 379.06 264.7 378.31 264.7C377.56 264.7 376.96 264.1 376.96 263.35Z" fill="#71869D"/>
<path d="M346.63 293.68C346.63 292.94 347.23 292.33 347.98 292.33C348.73 292.33 349.33 292.93 349.33 293.68C349.33 294.43 348.73 295.03 347.98 295.03C347.23 295.03 346.63 294.43 346.63 293.68Z" fill="#71869D"/>
<path d="M346.63 263.35C346.63 262.61 347.23 262 347.98 262C348.73 262 349.33 262.6 349.33 263.35C349.33 264.1 348.73 264.7 347.98 264.7C347.23 264.7 346.63 264.1 346.63 263.35Z" fill="#71869D"/>
<path d="M316.3 293.68C316.3 292.94 316.9 292.33 317.65 292.33C318.4 292.33 319 292.93 319 293.68C319 294.43 318.4 295.03 317.65 295.03C316.9 295.03 316.3 294.43 316.3 293.68Z" fill="#71869D"/>
<path d="M316.3 263.35C316.3 262.61 316.9 262 317.65 262C318.4 262 319 262.6 319 263.35C319 264.1 318.4 264.7 317.65 264.7C316.9 264.7 316.3 264.1 316.3 263.35Z" fill="#71869D"/>
<path d="M285.97 293.68C285.97 292.94 286.57 292.33 287.32 292.33C288.07 292.33 288.67 292.93 288.67 293.68C288.67 294.43 288.07 295.03 287.32 295.03C286.57 295.03 285.97 294.43 285.97 293.68Z" fill="#71869D"/>
<path d="M285.97 263.35C285.97 262.61 286.57 262 287.32 262C288.07 262 288.67 262.6 288.67 263.35C288.67 264.1 288.07 264.7 287.32 264.7C286.57 264.7 285.97 264.1 285.97 263.35Z" fill="#71869D"/>
<path d="M255.63 475.67C255.63 474.93 256.23 474.32 256.98 474.32C257.73 474.32 258.33 474.92 258.33 475.67C258.33 476.42 257.73 477.02 256.98 477.02C256.23 477.02 255.63 476.42 255.63 475.67Z" fill="#71869D"/>
<path d="M255.63 445.34C255.63 444.6 256.23 443.99 256.98 443.99C257.73 443.99 258.33 444.59 258.33 445.34C258.33 446.09 257.73 446.69 256.98 446.69C256.23 446.69 255.63 446.09 255.63 445.34Z" fill="#71869D"/>
<path d="M255.63 415C255.63 414.26 256.23 413.65 256.98 413.65C257.73 413.65 258.33 414.25 258.33 415C258.33 415.75 257.73 416.35 256.98 416.35C256.23 416.35 255.63 415.75 255.63 415Z" fill="#71869D"/>
<path d="M255.63 384.67C255.63 383.93 256.23 383.32 256.98 383.32C257.73 383.32 258.33 383.92 258.33 384.67C258.33 385.42 257.73 386.02 256.98 386.02C256.23 386.02 255.63 385.42 255.63 384.67Z" fill="#71869D"/>
<path d="M255.63 354.34C255.63 353.6 256.23 352.99 256.98 352.99C257.73 352.99 258.33 353.59 258.33 354.34C258.33 355.09 257.73 355.69 256.98 355.69C256.23 355.69 255.63 355.09 255.63 354.34Z" fill="#71869D"/>
<path d="M255.63 324.01C255.63 323.27 256.23 322.66 256.98 322.66C257.73 322.66 258.33 323.26 258.33 324.01C258.33 324.76 257.73 325.36 256.98 325.36C256.23 325.36 255.63 324.76 255.63 324.01Z" fill="#71869D"/>
<path d="M225.3 475.67C225.3 474.93 225.9 474.32 226.65 474.32C227.4 474.32 228 474.92 228 475.67C228 476.42 227.4 477.02 226.65 477.02C225.9 477.02 225.3 476.42 225.3 475.67Z" fill="#71869D"/>
<path d="M225.3 445.34C225.3 444.6 225.9 443.99 226.65 443.99C227.4 443.99 228 444.59 228 445.34C228 446.09 227.4 446.69 226.65 446.69C225.9 446.69 225.3 446.09 225.3 445.34Z" fill="#71869D"/>
<path d="M225.3 415C225.3 414.26 225.9 413.65 226.65 413.65C227.4 413.65 228 414.25 228 415C228 415.75 227.4 416.35 226.65 416.35C225.9 416.35 225.3 415.75 225.3 415Z" fill="#71869D"/>
<path d="M225.3 384.67C225.3 383.93 225.9 383.32 226.65 383.32C227.4 383.32 228 383.92 228 384.67C228 385.42 227.4 386.02 226.65 386.02C225.9 386.02 225.3 385.42 225.3 384.67Z" fill="#71869D"/>
<path d="M225.3 354.34C225.3 353.6 225.9 352.99 226.65 352.99C227.4 352.99 228 353.59 228 354.34C228 355.09 227.4 355.69 226.65 355.69C225.9 355.69 225.3 355.09 225.3 354.34Z" fill="#71869D"/>
<path d="M225.3 324.01C225.3 323.27 225.9 322.66 226.65 322.66C227.4 322.66 228 323.26 228 324.01C228 324.76 227.4 325.36 226.65 325.36C225.9 325.36 225.3 324.76 225.3 324.01Z" fill="#71869D"/>
<path d="M194.97 475.67C194.97 474.93 195.57 474.32 196.32 474.32C197.07 474.32 197.67 474.92 197.67 475.67C197.67 476.42 197.07 477.02 196.32 477.02C195.57 477.02 194.97 476.42 194.97 475.67Z" fill="#71869D"/>
<path d="M194.97 445.34C194.97 444.6 195.57 443.99 196.32 443.99C197.07 443.99 197.67 444.59 197.67 445.34C197.67 446.09 197.07 446.69 196.32 446.69C195.57 446.69 194.97 446.09 194.97 445.34Z" fill="#71869D"/>
<path d="M194.97 415C194.97 414.26 195.57 413.65 196.32 413.65C197.07 413.65 197.67 414.25 197.67 415C197.67 415.75 197.07 416.35 196.32 416.35C195.57 416.35 194.97 415.75 194.97 415Z" fill="#71869D"/>
<path d="M194.97 384.67C194.97 383.93 195.57 383.32 196.32 383.32C197.07 383.32 197.67 383.92 197.67 384.67C197.67 385.42 197.07 386.02 196.32 386.02C195.57 386.02 194.97 385.42 194.97 384.67Z" fill="#71869D"/>
<path d="M194.97 354.34C194.97 353.6 195.57 352.99 196.32 352.99C197.07 352.99 197.67 353.59 197.67 354.34C197.67 355.09 197.07 355.69 196.32 355.69C195.57 355.69 194.97 355.09 194.97 354.34Z" fill="#71869D"/>
<path d="M194.97 324.01C194.97 323.27 195.57 322.66 196.32 322.66C197.07 322.66 197.67 323.26 197.67 324.01C197.67 324.76 197.07 325.36 196.32 325.36C195.57 325.36 194.97 324.76 194.97 324.01Z" fill="#71869D"/>
<path d="M255.63 293.68C255.63 292.94 256.23 292.33 256.98 292.33C257.73 292.33 258.33 292.93 258.33 293.68C258.33 294.43 257.73 295.03 256.98 295.03C256.23 295.03 255.63 294.43 255.63 293.68Z" fill="#71869D"/>
<path d="M255.63 263.35C255.63 262.61 256.23 262 256.98 262C257.73 262 258.33 262.6 258.33 263.35C258.33 264.1 257.73 264.7 256.98 264.7C256.23 264.7 255.63 264.1 255.63 263.35Z" fill="#71869D"/>
<path d="M225.3 293.68C225.3 292.94 225.9 292.33 226.65 292.33C227.4 292.33 228 292.93 228 293.68C228 294.43 227.4 295.03 226.65 295.03C225.9 295.03 225.3 294.43 225.3 293.68Z" fill="#71869D"/>
<path d="M225.3 263.35C225.3 262.61 225.9 262 226.65 262C227.4 262 228 262.6 228 263.35C228 264.1 227.4 264.7 226.65 264.7C225.9 264.7 225.3 264.1 225.3 263.35Z" fill="#71869D"/>
<path d="M194.97 293.68C194.97 292.94 195.57 292.33 196.32 292.33C197.07 292.33 197.67 292.93 197.67 293.68C197.67 294.43 197.07 295.03 196.32 295.03C195.57 295.03 194.97 294.43 194.97 293.68Z" fill="#71869D"/>
<path d="M194.97 263.35C194.97 262.61 195.57 262 196.32 262C197.07 262 197.67 262.6 197.67 263.35C197.67 264.1 197.07 264.7 196.32 264.7C195.57 264.7 194.97 264.1 194.97 263.35Z" fill="#71869D"/>
<g filter="url(#filter0_d_103_2080)">
<path d="M537.63 150.31C539.65 136.99 529.35 125 515.88 125H51.5299C38.0699 125 27.7699 136.97 29.7799 150.28L76.1599 458.28C77.7799 469.04 87.0299 477 97.9099 477H469.06C479.93 477 489.18 469.06 490.81 458.31L537.62 150.31H537.63Z" fill="url(#paint0_linear_103_2080)"/>
</g>
</g>
<g opacity="0.6">
<path d="M134 309C145.598 309 155 299.598 155 288C155 276.402 145.598 267 134 267C122.402 267 113 276.402 113 288C113 299.598 122.402 309 134 309Z" fill="#BDCDFF"/>
<path d="M477.644 423.32C495.766 389.135 497.677 344.681 475.272 313.13C460.681 292.583 437.416 279.342 413.045 272.846C362.302 259.323 305.583 274.21 266.027 308.702C253.71 319.441 242.32 332.307 226.819 337.509C214.983 341.482 202.152 340.472 189.669 340.764C173.233 341.15 156.638 343.958 141.816 351.064C126.995 358.169 114.03 369.844 107.306 384.826C97.3532 407.005 102.306 433.664 114.665 454.602C119.548 462.875 125.548 470.481 132.41 477.209H430.426C449.662 462.423 466.336 444.647 477.642 423.318L477.644 423.32Z" fill="#BDCDFF"/>
<path d="M261.5 213C268.956 213 275 206.956 275 199.5C275 192.044 268.956 186 261.5 186C254.044 186 248 192.044 248 199.5C248 206.956 254.044 213 261.5 213Z" fill="#BDCDFF"/>
<path d="M92.5 258C96.0899 258 99 255.09 99 251.5C99 247.91 96.0899 245 92.5 245C88.9101 245 86 247.91 86 251.5C86 255.09 88.9101 258 92.5 258Z" fill="#BDCDFF"/>
<path d="M475.5 245C481.299 245 486 240.299 486 234.5C486 228.701 481.299 224 475.5 224C469.701 224 465 228.701 465 234.5C465 240.299 469.701 245 475.5 245Z" fill="#BDCDFF"/>
<path d="M496 165C500.418 165 504 161.418 504 157C504 152.582 500.418 149 496 149C491.582 149 488 152.582 488 157C488 161.418 491.582 165 496 165Z" fill="#BDCDFF"/>
<path d="M92 169C97.5228 169 102 164.523 102 159C102 153.477 97.5228 149 92 149C86.4772 149 82 153.477 82 159C82 164.523 86.4772 169 92 169Z" fill="#BDCDFF"/>
</g>
<g filter="url(#filter1_d_103_2080)">
<path d="M465.406 186V347.028H419.083C420.552 343.952 421.362 340.601 421.362 337.073C421.362 322.462 407.431 310.614 390.263 310.614C373.095 310.614 359.164 322.462 359.164 337.073C359.164 340.601 359.974 343.949 361.443 347.028H303.112V294.151C306.64 296.14 310.593 297.257 314.777 297.257C329.504 297.257 341.445 283.449 341.445 266.401C341.445 249.352 329.504 235.544 314.777 235.544C310.59 235.544 306.637 236.661 303.112 238.651V186.006H465.409L465.406 186Z" fill="#E54435"/>
</g>
<path d="M425.284 233.461C421.847 233.461 418.409 233.44 414.972 233.477C414.26 233.485 414.1 233.271 414.102 232.59C414.126 225.7 414.133 218.81 414.098 211.92C414.092 210.987 414.492 210.917 415.212 211.054C416.372 211.277 417.365 211.8 418.199 212.631C423.688 218.12 429.184 223.605 434.663 229.105C435.591 230.037 436.299 231.111 436.535 232.449C436.662 233.164 436.554 233.492 435.689 233.481C432.221 233.433 428.752 233.461 425.284 233.461Z" fill="white"/>
<path d="M435.68 238.912C427.057 238.942 418.431 238.921 409.808 238.955C409.047 238.958 408.856 238.788 408.859 238.011C408.889 229.334 408.867 220.654 408.891 211.977C408.892 211.219 408.717 210.998 407.94 211C397.168 211.028 386.394 211.02 375.623 211.022C372.365 211.024 370.001 213.407 370.001 216.694C370.001 228.768 370.001 240.844 370.001 252.92C370.001 265.057 369.999 277.194 370.001 289.331C370.001 292.405 372.437 294.87 375.479 294.87C394.015 294.873 412.554 294.873 431.09 294.87C434.077 294.87 436.563 292.396 436.563 289.411C436.568 272.889 436.561 256.367 436.579 239.845C436.579 239.133 436.417 238.912 435.676 238.914L435.68 238.912ZM381.897 222.234C385.361 222.26 388.827 222.247 392.292 222.247C395.666 222.247 399.038 222.262 402.412 222.234C403.027 222.229 403.276 222.357 403.25 223.035C403.199 224.391 403.214 225.751 403.25 227.107C403.265 227.643 403.086 227.774 402.572 227.772C395.674 227.756 388.773 227.752 381.874 227.776C381.233 227.778 381.117 227.543 381.132 226.973C381.165 225.648 381.176 224.318 381.126 222.994C381.102 222.368 381.312 222.229 381.9 222.232L381.897 222.234ZM382.252 238.964C381.285 238.984 381.066 238.688 381.123 237.785C381.2 236.555 381.16 235.315 381.13 234.082C381.119 233.613 381.241 233.435 381.74 233.435C388.703 233.448 395.668 233.448 402.631 233.435C403.131 233.435 403.252 233.617 403.245 234.082C403.223 235.439 403.201 236.8 403.254 238.156C403.282 238.845 403.013 238.953 402.406 238.949C399.001 238.923 395.596 238.936 392.191 238.936C388.878 238.936 385.563 238.894 382.252 238.964ZM414.267 267.786C413.998 270.753 412.456 272.824 409.777 274.057C408.797 274.508 407.761 274.784 406.702 274.947C406.187 275.025 406.035 275.231 405.974 275.77C405.887 276.525 406.532 277.569 405.614 277.979C404.947 278.275 404.045 278.036 403.247 278.036V278.04C403.215 278.04 403.186 278.04 403.155 278.04C402.333 278.003 401.299 278.366 400.746 277.893C400.212 277.437 400.558 276.378 400.584 275.592C400.603 274.975 400.273 274.904 399.827 274.801C397.564 274.268 395.591 273.223 394.008 271.471C393.568 270.983 393.451 270.688 394.124 270.284C395.279 269.589 396.376 268.793 397.496 268.039C397.723 267.885 397.903 267.699 398.203 267.983C400.125 269.802 402.497 269.88 404.925 269.691C405.81 269.622 406.687 269.507 407.51 269.121C408.292 268.756 408.791 268.215 408.879 267.315C408.977 266.329 408.553 265.643 407.737 265.178C406.372 264.399 404.857 264.189 403.324 264.078C401.05 263.913 398.817 263.57 396.742 262.558C393.698 261.073 392.071 258.393 392.27 255.23C392.484 251.826 394.301 249.44 397.571 248.296C398.32 248.034 399.082 247.81 399.878 247.728C400.378 247.678 400.588 247.448 400.59 246.887C400.59 246.139 400.208 245.134 400.783 244.71C401.264 244.354 402.202 244.621 402.937 244.612C403.061 244.612 403.182 244.608 403.306 244.612C404.161 244.63 405.227 244.345 405.81 244.756C406.388 245.164 405.974 246.304 405.996 247.12C406.009 247.597 406.193 247.717 406.62 247.819C408.903 248.361 410.934 249.371 412.543 251.149C413.003 251.659 413.088 251.986 412.395 252.397C411.262 253.072 410.19 253.849 409.099 254.592C408.833 254.774 408.629 254.954 408.317 254.628C407.335 253.595 406.047 253.178 404.695 253.005C403.013 252.79 401.325 252.848 399.676 253.293C398.436 253.628 397.769 254.342 397.699 255.325C397.616 256.495 398.1 257.21 399.394 257.763C400.591 258.275 401.863 258.466 403.151 258.562C405.92 258.768 408.638 259.18 411.008 260.796C413.466 262.472 414.536 264.827 414.267 267.786Z" fill="white"/>
<g filter="url(#filter2_d_103_2080)">
<path d="M249.4 248.925C245.771 250.987 242.899 253.907 240.828 257.383L214.7 211.378L74 291.288L153.916 432L206.19 402.312C205.911 406.862 206.86 411.388 209.18 415.47C216.431 428.239 234.378 431.739 249.277 423.277C264.165 414.822 270.363 397.611 263.111 384.843C260.794 380.761 257.39 377.627 253.341 375.535L294.621 352.09L268.379 305.884C272.425 305.884 276.405 304.915 280.034 302.853C292.802 295.601 296.302 277.655 287.841 262.759C279.385 247.871 262.175 241.673 249.406 248.925H249.4Z" fill="#7093FF"/>
</g>
<path d="M150.081 325.874C148.953 320.144 152.706 314.578 158.436 313.45C164.167 312.322 169.723 316.06 170.866 321.78L178.339 359.955C179.467 365.685 175.714 371.251 169.983 372.379C164.253 373.507 158.697 369.769 157.553 364.049L150.081 325.874Z" fill="white"/>
<path d="M172.941 304.195C171.813 298.465 175.566 292.899 181.296 291.771C187.026 290.643 192.583 294.381 193.726 300.101L202.582 345.336C203.71 351.067 199.957 356.633 194.227 357.761C188.496 358.889 182.94 355.151 181.797 349.43L172.941 304.195Z" fill="white"/>
<path d="M196.553 283.64C195.426 277.91 199.179 272.344 204.909 271.216C210.639 270.088 216.195 273.826 217.339 279.546L227.388 330.924C228.516 336.655 224.763 342.221 219.033 343.349C213.302 344.476 207.746 340.739 206.603 335.018L196.553 283.64Z" fill="white"/>
<defs>
<filter id="filter0_d_103_2080" x="21.5286" y="125" width="516.355" height="360" filterUnits="userSpaceOnUse" color-interpolation-filters="sRGB">
<feFlood flood-opacity="0" result="BackgroundImageFix"/>
<feColorMatrix in="SourceAlpha" type="matrix" values="0 0 0 0 0 0 0 0 0 0 0 0 0 0 0 0 0 0 127 0" result="hardAlpha"/>
<feOffset dx="-4" dy="4"/>
<feGaussianBlur stdDeviation="2"/>
<feComposite in2="hardAlpha" operator="out"/>
<feColorMatrix type="matrix" values="0 0 0 0 0 0 0 0 0 0 0 0 0 0 0 0 0 0 0.15 0"/>
<feBlend mode="normal" in2="BackgroundImageFix" result="effect1_dropShadow_103_2080"/>
<feBlend mode="normal" in="SourceGraphic" in2="effect1_dropShadow_103_2080" result="shape"/>
</filter>
<filter id="filter1_d_103_2080" x="295.112" y="186" width="170.296" height="169.028" filterUnits="userSpaceOnUse" color-interpolation-filters="sRGB">
<feFlood flood-opacity="0" result="BackgroundImageFix"/>
<feColorMatrix in="SourceAlpha" type="matrix" values="0 0 0 0 0 0 0 0 0 0 0 0 0 0 0 0 0 0 127 0" result="hardAlpha"/>
<feOffset dx="-4" dy="4"/>
<feGaussianBlur stdDeviation="2"/>
<feComposite in2="hardAlpha" operator="out"/>
<feColorMatrix type="matrix" values="0 0 0 0 0 0 0 0 0 0 0 0 0 0 0 0 0 0 0.25 0"/>
<feBlend mode="normal" in2="BackgroundImageFix" result="effect1_dropShadow_103_2080"/>
<feBlend mode="normal" in="SourceGraphic" in2="effect1_dropShadow_103_2080" result="shape"/>
</filter>
<filter id="filter2_d_103_2080" x="66" y="211.378" width="228.621" height="228.621" filterUnits="userSpaceOnUse" color-interpolation-filters="sRGB">
<feFlood flood-opacity="0" result="BackgroundImageFix"/>
<feColorMatrix in="SourceAlpha" type="matrix" values="0 0 0 0 0 0 0 0 0 0 0 0 0 0 0 0 0 0 127 0" result="hardAlpha"/>
<feOffset dx="-4" dy="4"/>
<feGaussianBlur stdDeviation="2"/>
<feComposite in2="hardAlpha" operator="out"/>
<feColorMatrix type="matrix" values="0 0 0 0 0 0 0 0 0 0 0 0 0 0 0 0 0 0 0.25 0"/>
<feBlend mode="normal" in2="BackgroundImageFix" result="effect1_dropShadow_103_2080"/>
<feBlend mode="normal" in="SourceGraphic" in2="effect1_dropShadow_103_2080" result="shape"/>
</filter>
<linearGradient id="paint0_linear_103_2080" x1="283.71" y1="477" x2="283.71" y2="125" gradientUnits="userSpaceOnUse">
<stop stop-color="#DDE5FF"/>
<stop offset="1" stop-color="white"/>
</linearGradient>
</defs>
</svg>
