<svg width="258" height="49" viewBox="0 0 258 49" fill="none" xmlns="http://www.w3.org/2000/svg">
<path fill-rule="evenodd" clip-rule="evenodd" d="M21.9574 17.3814L12.1284 44.3865C10.9475 47.631 7.35988 49.304 4.1153 48.123C0.870722 46.9421 -0.802194 43.3545 0.378734 40.1099L10.2078 13.1049C11.3887 9.86033 14.9763 8.18741 18.2208 9.36834C21.4654 10.5493 23.1383 14.1369 21.9574 17.3814Z" fill="white"/>
<path fill-rule="evenodd" clip-rule="evenodd" d="M44.6576 12.3871L33.0132 44.3798C31.8322 47.6244 28.2446 49.2973 25.0001 48.1164C21.7555 46.9355 20.0826 43.3479 21.2635 40.1033L32.9079 8.11057C34.0888 4.86599 37.6764 3.19307 40.921 4.374C44.1656 5.55493 45.8385 9.14251 44.6576 12.3871Z" fill="white"/>
<path fill-rule="evenodd" clip-rule="evenodd" d="M67.3938 8.39182L54.1675 44.731C52.9865 47.9756 49.3989 49.6485 46.1544 48.4676C42.9098 47.2867 41.2369 43.6991 42.4178 40.4545L55.6442 4.1153C56.8251 0.870723 60.4127 -0.802195 63.6573 0.378735C66.9019 1.55966 68.5748 5.14725 67.3938 8.39182Z" fill="white"/>
<path d="M101.051 36.7577V14.5682H98.6821L91.6388 30.3065L84.4086 14.5682H82.04V36.7577H84.4086V19.8975L90.5792 33.2672H92.605L98.6821 19.8975V36.7577H101.051Z" fill="white"/>
<path d="M129.049 36.7577V34.6385H117.643V26.6291H127.367V24.5099H117.643V16.6875H129.049V14.5682H115.275V36.7577H129.049Z" fill="white"/>
<path d="M157.148 25.663C157.148 22.266 157.148 19.0248 155.185 16.9056C153.689 15.285 151.85 14.5682 149.357 14.5682H141.753V36.7577H149.357C151.85 36.7577 153.689 36.0409 155.185 34.4203C157.148 32.3011 157.148 29.0599 157.148 25.663ZM154.78 25.663C154.78 28.7483 154.748 31.4908 153.315 33.0179C152.193 34.2645 150.635 34.6385 148.952 34.6385H144.121V16.6875H148.952C150.635 16.6875 152.193 17.0614 153.315 18.308C154.748 19.8351 154.78 22.5776 154.78 25.663Z" fill="white"/>
<path d="M172.882 36.7577V14.5682H170.513V36.7577H172.882Z" fill="white"/>
<path d="M203.493 36.7577V14.5682H201.124V32.3011L189.344 14.5682H187.1V36.7577H189.469V18.9625L201.249 36.7577H203.493Z" fill="white"/>
<path d="M231.492 36.7577V34.6385H220.086V26.6291H229.809V24.5099H220.086V16.6875H231.492V14.5682H217.717V36.7577H231.492Z" fill="white"/>
<path d="M257.129 16.6875V14.5682H241.92V16.6875H248.34V36.7577H250.709V16.6875H257.129Z" fill="white"/>
</svg>
