<svg width="928" height="176" viewBox="0 0 928 176" fill="none" xmlns="http://www.w3.org/2000/svg">
<path fill-rule="evenodd" clip-rule="evenodd" d="M79.2463 62.6281L43.7725 159.931C39.5104 171.622 26.5625 177.649 14.8526 173.394C3.14263 169.139 -2.89506 156.213 1.36701 144.522L36.8408 47.2192C41.1029 35.5285 54.0507 29.5008 65.7607 33.7559C77.4706 38.0109 83.5083 50.9375 79.2463 62.6281Z" fill="#4D648D"/>
<path fill-rule="evenodd" clip-rule="evenodd" d="M79.2463 62.6281L43.7725 159.931C39.5104 171.622 26.5625 177.649 14.8526 173.394C3.14263 169.139 -2.89506 156.213 1.36701 144.522L36.8408 47.2192C41.1029 35.5285 54.0507 29.5008 65.7607 33.7559C77.4706 38.0109 83.5083 50.9375 79.2463 62.6281Z" fill="url(#paint0_linear_10_10)"/>
<path fill-rule="evenodd" clip-rule="evenodd" d="M161.173 44.633L119.147 159.907C114.885 171.598 101.937 177.626 90.2271 173.371C78.5172 169.116 72.4795 156.189 76.7416 144.498L118.767 29.2241C123.029 17.5335 135.977 11.5057 147.687 15.7607C159.397 20.0158 165.435 32.9423 161.173 44.633Z" fill="#4D648D"/>
<path fill-rule="evenodd" clip-rule="evenodd" d="M161.173 44.633L119.147 159.907C114.885 171.598 101.937 177.626 90.2271 173.371C78.5172 169.116 72.4795 156.189 76.7416 144.498L118.767 29.2241C123.029 17.5335 135.977 11.5057 147.687 15.7607C159.397 20.0158 165.435 32.9423 161.173 44.633Z" fill="url(#paint1_linear_10_10)"/>
<path fill-rule="evenodd" clip-rule="evenodd" d="M243.228 30.2374L195.493 161.173C191.231 172.863 178.283 178.891 166.573 174.636C154.863 170.381 148.826 157.454 153.088 145.764L200.823 14.8285C205.085 3.13782 218.033 -2.88993 229.743 1.36512C241.453 5.62017 247.491 18.5467 243.228 30.2374Z" fill="#4D648D"/>
<path fill-rule="evenodd" clip-rule="evenodd" d="M243.228 30.2374L195.493 161.173C191.231 172.863 178.283 178.891 166.573 174.636C154.863 170.381 148.826 157.454 153.088 145.764L200.823 14.8285C205.085 3.13782 218.033 -2.88993 229.743 1.36512C241.453 5.62017 247.491 18.5467 243.228 30.2374Z" fill="url(#paint2_linear_10_10)"/>
<path d="M364.702 132.443V52.4913H356.153L330.734 109.199L304.639 52.4913H296.091V132.443H304.639V71.6932L326.909 119.866H334.22L356.153 71.6932V132.443H364.702Z" fill="#243F6D"/>
<path d="M465.752 132.443V124.807H424.585V95.9482H459.678V88.3123H424.585V60.1272H465.752V52.4913H416.037V132.443H465.752Z" fill="#243F6D"/>
<path d="M567.162 92.4671C567.162 80.2273 567.162 68.549 560.076 60.9132C554.677 55.074 548.041 52.4913 539.043 52.4913H511.598V132.443H539.043C548.041 132.443 554.677 129.86 560.076 124.021C567.162 116.385 567.162 104.707 567.162 92.4671ZM558.614 92.4671C558.614 103.584 558.501 113.466 553.327 118.968C549.278 123.46 543.654 124.807 537.58 124.807H520.146V60.1272H537.58C543.654 60.1272 549.278 61.4747 553.327 65.9663C558.501 71.4686 558.614 81.3503 558.614 92.4671Z" fill="#243F6D"/>
<path d="M623.946 132.443V52.4913H615.398V132.443H623.946Z" fill="#243F6D"/>
<path d="M734.424 132.443V52.4913H725.876V116.385L683.359 52.4913H675.261V132.443H683.809V68.3244L726.325 132.443H734.424Z" fill="#243F6D"/>
<path d="M835.475 132.443V124.807H794.309V95.9482H829.402V88.3123H794.309V60.1272H835.475V52.4913H785.761V132.443H835.475Z" fill="#243F6D"/>
<path d="M928 60.1272V52.4913H873.111V60.1272H896.282V132.443H904.83V60.1272H928Z" fill="#243F6D"/>
<defs>
<linearGradient id="paint0_linear_10_10" x1="27.207" y1="0.874741" x2="55.8709" y2="60.6377" gradientUnits="userSpaceOnUse">
<stop stop-color="#7093FF"/>
<stop offset="1" stop-color="#243F6D"/>
</linearGradient>
<linearGradient id="paint1_linear_10_10" x1="104.793" y1="-21.0988" x2="137.892" y2="45.1564" gradientUnits="userSpaceOnUse">
<stop stop-color="#7093FF"/>
<stop offset="1" stop-color="#243F6D"/>
</linearGradient>
<linearGradient id="paint2_linear_10_10" x1="183.066" y1="-38.9613" x2="220.042" y2="32.8856" gradientUnits="userSpaceOnUse">
<stop stop-color="#7093FF"/>
<stop offset="1" stop-color="#243F6D"/>
</linearGradient>
</defs>
</svg>
