<svg width="1920" height="330" viewBox="0 0 1920 330" fill="none" xmlns="http://www.w3.org/2000/svg">
<g clip-path="url(#clip0_4057_814)">
<path opacity="0.5" d="M82 56L200.5 174.5" stroke="#377DFF" stroke-width="3" stroke-miterlimit="10" stroke-linecap="round" stroke-linejoin="round"/>
<path opacity="0.5" d="M73 56L191.5 174.5" stroke="#377DFF" stroke-width="3" stroke-miterlimit="10" stroke-linecap="round" stroke-linejoin="round"/>
<path opacity="0.5" d="M73 65L191.5 183.5" stroke="#377DFF" stroke-width="3" stroke-miterlimit="10" stroke-linecap="round" stroke-linejoin="round"/>
<path opacity="0.5" d="M64 65L182.5 183.5" stroke="#377DFF" stroke-width="3" stroke-miterlimit="10" stroke-linecap="round" stroke-linejoin="round"/>
<path opacity="0.5" d="M64 74L182.5 192.5" stroke="#377DFF" stroke-width="3" stroke-miterlimit="10" stroke-linecap="round" stroke-linejoin="round"/>
<path opacity="0.5" d="M55 74L173.5 192.5" stroke="#377DFF" stroke-width="3" stroke-miterlimit="10" stroke-linecap="round" stroke-linejoin="round"/>
<path opacity="0.5" d="M55 83L173.5 201.5" stroke="#377DFF" stroke-width="3" stroke-miterlimit="10" stroke-linecap="round" stroke-linejoin="round"/>
<path opacity="0.5" d="M46 83L164.5 201.5" stroke="#377DFF" stroke-width="3" stroke-miterlimit="10" stroke-linecap="round" stroke-linejoin="round"/>
<path opacity="0.5" d="M46 92L164.5 210.5" stroke="#377DFF" stroke-width="3" stroke-miterlimit="10" stroke-linecap="round" stroke-linejoin="round"/>
<path opacity="0.5" d="M37 92L155.5 210.5" stroke="#377DFF" stroke-width="3" stroke-miterlimit="10" stroke-linecap="round" stroke-linejoin="round"/>
<path opacity="0.5" d="M37 101L155.5 219.5" stroke="#377DFF" stroke-width="3" stroke-miterlimit="10" stroke-linecap="round" stroke-linejoin="round"/>
<path opacity="0.5" d="M28 101L146.5 219.5" stroke="#377DFF" stroke-width="3" stroke-miterlimit="10" stroke-linecap="round" stroke-linejoin="round"/>
<path opacity="0.5" d="M28 110L146.5 228.5" stroke="#377DFF" stroke-width="3" stroke-miterlimit="10" stroke-linecap="round" stroke-linejoin="round"/>
<path opacity="0.5" d="M28 119L146.5 237.5" stroke="#377DFF" stroke-width="3" stroke-miterlimit="10" stroke-linecap="round" stroke-linejoin="round"/>
<path opacity="0.5" d="M19 119L137.5 237.5" stroke="#377DFF" stroke-width="3" stroke-miterlimit="10" stroke-linecap="round" stroke-linejoin="round"/>
<path opacity="0.5" d="M19 128L137.5 246.5" stroke="#377DFF" stroke-width="3" stroke-miterlimit="10" stroke-linecap="round" stroke-linejoin="round"/>
<path opacity="0.5" d="M10 128L128.5 246.5" stroke="#377DFF" stroke-width="3" stroke-miterlimit="10" stroke-linecap="round" stroke-linejoin="round"/>
<path opacity="0.5" d="M1 128L119.5 246.5" stroke="#377DFF" stroke-width="3" stroke-miterlimit="10" stroke-linecap="round" stroke-linejoin="round"/>
<path d="M1831.9 39.4001C1831.8 51.8001 1831.7 63.8001 1838.5 75.0001C1843.4 83.1001 1851.1 89.1001 1860 92.3001C1871.7 96.3001 1886.5 94.6001 1896 103.7C1901.1 108.5 1903.4 115.5 1902.3 122.5C1899.6 140.6 1881.9 145.2 1866 145.4C1847.4 145.7 1827.7 142.1 1813.3 156.8C1804.8 165.6 1800.9 180.1 1789.4 185.9C1772.5 194.5 1759.9 173.9 1754.5 160.9C1749.8 149.1 1745.4 137.3 1743 124.7C1741.7 118.2 1741.2 111.3 1743.4 105C1748.6 89.5001 1765.2 91.8001 1777.3 85.3001C1783.7 81.8001 1788.4 76.3001 1791.1 69.6001C1796 57.4001 1796 43.7001 1796.9 30.7001C1797.8 18.4001 1807.8 3.10011 1822.3 9.50011C1828.9 12.4001 1831.5 19.4001 1831.9 26.3001C1832 30.7001 1832 35.1001 1831.9 39.4001Z" fill="#70D4FF"/>
<path d="M1770.3 80.9001C1770.3 80.9001 1756.7 98.2001 1781.8 129.9C1806.9 161.6 1784.6 196.2 1784.6 196.2" stroke="white" stroke-width="3" stroke-miterlimit="10"/>
<path d="M1786 70.4001C1786 70.4001 1772.4 87.7001 1797.5 119.4C1822.6 151.1 1800.3 185.7 1800.3 185.7" stroke="white" stroke-width="3" stroke-miterlimit="10"/>
<path d="M1797 22.3C1797 22.3 1780.4 43.6001 1811.6 82.8001C1842.8 122.2 1815.8 164.5 1815.8 164.5" stroke="white" stroke-width="3" stroke-miterlimit="10"/>
<path d="M1830.8 13.4001C1830.8 13.4001 1814.2 34.7001 1845.4 73.9001C1876.6 113.2 1849.6 155.6 1849.6 155.6" stroke="white" stroke-width="3" stroke-miterlimit="10"/>
<path d="M313.5 99C325.374 99 335 89.3741 335 77.5C335 65.6259 325.374 56 313.5 56C301.626 56 292 65.6259 292 77.5C292 89.3741 301.626 99 313.5 99Z" stroke="#7093FF" stroke-width="4" stroke-miterlimit="10"/>
<path d="M372.2 172.5C377.999 172.5 382.7 167.799 382.7 162C382.7 156.201 377.999 151.5 372.2 151.5C366.401 151.5 361.7 156.201 361.7 162C361.7 167.799 366.401 172.5 372.2 172.5Z" stroke="#7093FF" stroke-width="3" stroke-miterlimit="10"/>
<path d="M1630 260.1C1658 260.1 1680.7 237.401 1680.7 209.4C1680.7 181.399 1658 158.7 1630 158.7C1602 158.7 1579.3 181.399 1579.3 209.4C1579.3 237.401 1602 260.1 1630 260.1Z" fill="#7093FF"/>
<path d="M1577 239.4L1624.3 186" stroke="white" stroke-width="5" stroke-miterlimit="10" stroke-linecap="round" stroke-linejoin="round"/>
<path d="M1577 266.4L1624.3 213" stroke="white" stroke-width="5" stroke-miterlimit="10" stroke-linecap="round" stroke-linejoin="round"/>
<path d="M1577 293.4L1624.3 240" stroke="white" stroke-width="5" stroke-miterlimit="10" stroke-linecap="round" stroke-linejoin="round"/>
</g>
<defs>
<clipPath id="clip0_4057_814">
<rect width="1920" height="330" fill="white"/>
</clipPath>
</defs>
</svg>
