<svg width="547" height="490" viewBox="0 0 547 490" fill="none" xmlns="http://www.w3.org/2000/svg">
<g clip-path="url(#clip0_103_1924)">
<path d="M1.34805 2.69609C2.09255 2.69609 2.6961 2.09255 2.6961 1.34805C2.6961 0.603541 2.09255 0 1.34805 0C0.603541 0 0 0.603541 0 1.34805C0 2.09255 0.603541 2.69609 1.34805 2.69609Z" fill="#71869D"/>
<path d="M31.6791 2.69609C32.4236 2.69609 33.0271 2.09255 33.0271 1.34805C33.0271 0.603541 32.4236 0 31.6791 0C30.9346 0 30.3311 0.603541 30.3311 1.34805C30.3311 2.09255 30.9346 2.69609 31.6791 2.69609Z" fill="#71869D"/>
<path d="M62.0102 2.69609C62.7546 2.69609 63.3582 2.09255 63.3582 1.34805C63.3582 0.603541 62.7546 0 62.0102 0C61.2657 0 60.6621 0.603541 60.6621 1.34805C60.6621 2.09255 61.2657 2.69609 62.0102 2.69609Z" fill="#71869D"/>
<path d="M92.3412 2.69609C93.0857 2.69609 93.6893 2.09255 93.6893 1.34805C93.6893 0.603541 93.0857 0 92.3412 0C91.5968 0 90.9932 0.603541 90.9932 1.34805C90.9932 2.09255 91.5968 2.69609 92.3412 2.69609Z" fill="#71869D"/>
<path d="M122.672 2.69609C123.417 2.69609 124.02 2.09255 124.02 1.34805C124.02 0.603541 123.417 0 122.672 0C121.928 0 121.324 0.603541 121.324 1.34805C121.324 2.09255 121.928 2.69609 122.672 2.69609Z" fill="#71869D"/>
<path d="M153.003 2.69609C153.748 2.69609 154.351 2.09255 154.351 1.34805C154.351 0.603541 153.748 0 153.003 0C152.259 0 151.655 0.603541 151.655 1.34805C151.655 2.09255 152.259 2.69609 153.003 2.69609Z" fill="#71869D"/>
<path d="M1.34805 33.0271C2.09255 33.0271 2.6961 32.4236 2.6961 31.6791C2.6961 30.9346 2.09255 30.3311 1.34805 30.3311C0.603541 30.3311 0 30.9346 0 31.6791C0 32.4236 0.603541 33.0271 1.34805 33.0271Z" fill="#71869D"/>
<path d="M31.6791 33.0271C32.4236 33.0271 33.0271 32.4236 33.0271 31.6791C33.0271 30.9346 32.4236 30.3311 31.6791 30.3311C30.9346 30.3311 30.3311 30.9346 30.3311 31.6791C30.3311 32.4236 30.9346 33.0271 31.6791 33.0271Z" fill="#71869D"/>
<path d="M62.0102 33.0271C62.7546 33.0271 63.3582 32.4236 63.3582 31.6791C63.3582 30.9346 62.7546 30.3311 62.0102 30.3311C61.2657 30.3311 60.6621 30.9346 60.6621 31.6791C60.6621 32.4236 61.2657 33.0271 62.0102 33.0271Z" fill="#71869D"/>
<path d="M92.3412 33.0271C93.0857 33.0271 93.6893 32.4236 93.6893 31.6791C93.6893 30.9346 93.0857 30.3311 92.3412 30.3311C91.5968 30.3311 90.9932 30.9346 90.9932 31.6791C90.9932 32.4236 91.5968 33.0271 92.3412 33.0271Z" fill="#71869D"/>
<path d="M122.672 33.0271C123.417 33.0271 124.02 32.4236 124.02 31.6791C124.02 30.9346 123.417 30.3311 122.672 30.3311C121.928 30.3311 121.324 30.9346 121.324 31.6791C121.324 32.4236 121.928 33.0271 122.672 33.0271Z" fill="#71869D"/>
<path d="M153.003 33.0271C153.748 33.0271 154.351 32.4236 154.351 31.6791C154.351 30.9346 153.748 30.3311 153.003 30.3311C152.259 30.3311 151.655 30.9346 151.655 31.6791C151.655 32.4236 152.259 33.0271 153.003 33.0271Z" fill="#71869D"/>
<path d="M1.34805 63.3582C2.09255 63.3582 2.6961 62.7546 2.6961 62.0102C2.6961 61.2657 2.09255 60.6621 1.34805 60.6621C0.603541 60.6621 0 61.2657 0 62.0102C0 62.7546 0.603541 63.3582 1.34805 63.3582Z" fill="#71869D"/>
<path d="M31.6791 63.3582C32.4236 63.3582 33.0271 62.7546 33.0271 62.0102C33.0271 61.2657 32.4236 60.6621 31.6791 60.6621C30.9346 60.6621 30.3311 61.2657 30.3311 62.0102C30.3311 62.7546 30.9346 63.3582 31.6791 63.3582Z" fill="#71869D"/>
<path d="M62.0102 63.3582C62.7546 63.3582 63.3582 62.7546 63.3582 62.0102C63.3582 61.2657 62.7546 60.6621 62.0102 60.6621C61.2657 60.6621 60.6621 61.2657 60.6621 62.0102C60.6621 62.7546 61.2657 63.3582 62.0102 63.3582Z" fill="#71869D"/>
<path d="M92.3412 63.3582C93.0857 63.3582 93.6893 62.7546 93.6893 62.0102C93.6893 61.2657 93.0857 60.6621 92.3412 60.6621C91.5968 60.6621 90.9932 61.2657 90.9932 62.0102C90.9932 62.7546 91.5968 63.3582 92.3412 63.3582Z" fill="#71869D"/>
<path d="M122.672 63.3582C123.417 63.3582 124.02 62.7546 124.02 62.0102C124.02 61.2657 123.417 60.6621 122.672 60.6621C121.928 60.6621 121.324 61.2657 121.324 62.0102C121.324 62.7546 121.928 63.3582 122.672 63.3582Z" fill="#71869D"/>
<path d="M153.003 63.3582C153.748 63.3582 154.351 62.7546 154.351 62.0102C154.351 61.2657 153.748 60.6621 153.003 60.6621C152.259 60.6621 151.655 61.2657 151.655 62.0102C151.655 62.7546 152.259 63.3582 153.003 63.3582Z" fill="#71869D"/>
<path d="M1.34805 93.6893C2.09255 93.6893 2.6961 93.0857 2.6961 92.3413C2.6961 91.5968 2.09255 90.9932 1.34805 90.9932C0.603541 90.9932 0 91.5968 0 92.3413C0 93.0857 0.603541 93.6893 1.34805 93.6893Z" fill="#71869D"/>
<path d="M31.6791 93.6893C32.4236 93.6893 33.0271 93.0857 33.0271 92.3413C33.0271 91.5968 32.4236 90.9932 31.6791 90.9932C30.9346 90.9932 30.3311 91.5968 30.3311 92.3413C30.3311 93.0857 30.9346 93.6893 31.6791 93.6893Z" fill="#71869D"/>
<path d="M62.0102 93.6893C62.7546 93.6893 63.3582 93.0857 63.3582 92.3413C63.3582 91.5968 62.7546 90.9932 62.0102 90.9932C61.2657 90.9932 60.6621 91.5968 60.6621 92.3413C60.6621 93.0857 61.2657 93.6893 62.0102 93.6893Z" fill="#71869D"/>
<path d="M92.3412 93.6893C93.0857 93.6893 93.6893 93.0857 93.6893 92.3413C93.6893 91.5968 93.0857 90.9932 92.3412 90.9932C91.5968 90.9932 90.9932 91.5968 90.9932 92.3413C90.9932 93.0857 91.5968 93.6893 92.3412 93.6893Z" fill="#71869D"/>
<path d="M122.672 93.6893C123.417 93.6893 124.02 93.0857 124.02 92.3413C124.02 91.5968 123.417 90.9932 122.672 90.9932C121.928 90.9932 121.324 91.5968 121.324 92.3413C121.324 93.0857 121.928 93.6893 122.672 93.6893Z" fill="#71869D"/>
<path d="M153.003 93.6893C153.748 93.6893 154.351 93.0857 154.351 92.3413C154.351 91.5968 153.748 90.9932 153.003 90.9932C152.259 90.9932 151.655 91.5968 151.655 92.3413C151.655 93.0857 152.259 93.6893 153.003 93.6893Z" fill="#71869D"/>
<path d="M1.34805 124.02C2.09255 124.02 2.6961 123.417 2.6961 122.672C2.6961 121.928 2.09255 121.324 1.34805 121.324C0.603541 121.324 0 121.928 0 122.672C0 123.417 0.603541 124.02 1.34805 124.02Z" fill="#71869D"/>
<path d="M31.6791 124.02C32.4236 124.02 33.0271 123.417 33.0271 122.672C33.0271 121.928 32.4236 121.324 31.6791 121.324C30.9346 121.324 30.3311 121.928 30.3311 122.672C30.3311 123.417 30.9346 124.02 31.6791 124.02Z" fill="#71869D"/>
<path d="M62.0102 124.02C62.7546 124.02 63.3582 123.417 63.3582 122.672C63.3582 121.928 62.7546 121.324 62.0102 121.324C61.2657 121.324 60.6621 121.928 60.6621 122.672C60.6621 123.417 61.2657 124.02 62.0102 124.02Z" fill="#71869D"/>
<path d="M92.3412 124.02C93.0857 124.02 93.6893 123.417 93.6893 122.672C93.6893 121.928 93.0857 121.324 92.3412 121.324C91.5968 121.324 90.9932 121.928 90.9932 122.672C90.9932 123.417 91.5968 124.02 92.3412 124.02Z" fill="#71869D"/>
<path d="M122.672 124.02C123.417 124.02 124.02 123.417 124.02 122.672C124.02 121.928 123.417 121.324 122.672 121.324C121.928 121.324 121.324 121.928 121.324 122.672C121.324 123.417 121.928 124.02 122.672 124.02Z" fill="#71869D"/>
<path d="M153.003 124.02C153.748 124.02 154.351 123.417 154.351 122.672C154.351 121.928 153.748 121.324 153.003 121.324C152.259 121.324 151.655 121.928 151.655 122.672C151.655 123.417 152.259 124.02 153.003 124.02Z" fill="#71869D"/>
<path d="M1.34805 154.351C2.09255 154.351 2.6961 153.748 2.6961 153.003C2.6961 152.259 2.09255 151.655 1.34805 151.655C0.603541 151.655 0 152.259 0 153.003C0 153.748 0.603541 154.351 1.34805 154.351Z" fill="#71869D"/>
<path d="M31.6791 154.351C32.4236 154.351 33.0271 153.748 33.0271 153.003C33.0271 152.259 32.4236 151.655 31.6791 151.655C30.9346 151.655 30.3311 152.259 30.3311 153.003C30.3311 153.748 30.9346 154.351 31.6791 154.351Z" fill="#71869D"/>
<path d="M62.0102 154.351C62.7546 154.351 63.3582 153.748 63.3582 153.003C63.3582 152.259 62.7546 151.655 62.0102 151.655C61.2657 151.655 60.6621 152.259 60.6621 153.003C60.6621 153.748 61.2657 154.351 62.0102 154.351Z" fill="#71869D"/>
<path d="M92.3412 154.351C93.0857 154.351 93.6893 153.748 93.6893 153.003C93.6893 152.259 93.0857 151.655 92.3412 151.655C91.5968 151.655 90.9932 152.259 90.9932 153.003C90.9932 153.748 91.5968 154.351 92.3412 154.351Z" fill="#71869D"/>
<path d="M122.672 154.351C123.417 154.351 124.02 153.748 124.02 153.003C124.02 152.259 123.417 151.655 122.672 151.655C121.928 151.655 121.324 152.259 121.324 153.003C121.324 153.748 121.928 154.351 122.672 154.351Z" fill="#71869D"/>
<path d="M153.003 154.351C153.748 154.351 154.351 153.748 154.351 153.003C154.351 152.259 153.748 151.655 153.003 151.655C152.259 151.655 151.655 152.259 151.655 153.003C151.655 153.748 152.259 154.351 153.003 154.351Z" fill="#71869D"/>
<path d="M1.34805 184.683C2.09255 184.683 2.6961 184.079 2.6961 183.334C2.6961 182.59 2.09255 181.986 1.34805 181.986C0.603541 181.986 0 182.59 0 183.334C0 184.079 0.603541 184.683 1.34805 184.683Z" fill="#71869D"/>
<path d="M31.6791 184.683C32.4236 184.683 33.0271 184.079 33.0271 183.334C33.0271 182.59 32.4236 181.986 31.6791 181.986C30.9346 181.986 30.3311 182.59 30.3311 183.334C30.3311 184.079 30.9346 184.683 31.6791 184.683Z" fill="#71869D"/>
<path d="M62.0102 184.683C62.7546 184.683 63.3582 184.079 63.3582 183.334C63.3582 182.59 62.7546 181.986 62.0102 181.986C61.2657 181.986 60.6621 182.59 60.6621 183.334C60.6621 184.079 61.2657 184.683 62.0102 184.683Z" fill="#71869D"/>
<path d="M92.3412 184.683C93.0857 184.683 93.6893 184.079 93.6893 183.334C93.6893 182.59 93.0857 181.986 92.3412 181.986C91.5968 181.986 90.9932 182.59 90.9932 183.334C90.9932 184.079 91.5968 184.683 92.3412 184.683Z" fill="#71869D"/>
<path d="M122.672 184.683C123.417 184.683 124.02 184.079 124.02 183.334C124.02 182.59 123.417 181.986 122.672 181.986C121.928 181.986 121.324 182.59 121.324 183.334C121.324 184.079 121.928 184.683 122.672 184.683Z" fill="#71869D"/>
<path d="M153.003 184.683C153.748 184.683 154.351 184.079 154.351 183.334C154.351 182.59 153.748 181.986 153.003 181.986C152.259 181.986 151.655 182.59 151.655 183.334C151.655 184.079 152.259 184.683 153.003 184.683Z" fill="#71869D"/>
<path d="M1.34805 215.014C2.09255 215.014 2.6961 214.41 2.6961 213.666C2.6961 212.921 2.09255 212.318 1.34805 212.318C0.603541 212.318 0 212.921 0 213.666C0 214.41 0.603541 215.014 1.34805 215.014Z" fill="#71869D"/>
<path d="M31.6791 215.014C32.4236 215.014 33.0271 214.41 33.0271 213.666C33.0271 212.921 32.4236 212.318 31.6791 212.318C30.9346 212.318 30.3311 212.921 30.3311 213.666C30.3311 214.41 30.9346 215.014 31.6791 215.014Z" fill="#71869D"/>
<path d="M62.0102 215.014C62.7546 215.014 63.3582 214.41 63.3582 213.666C63.3582 212.921 62.7546 212.318 62.0102 212.318C61.2657 212.318 60.6621 212.921 60.6621 213.666C60.6621 214.41 61.2657 215.014 62.0102 215.014Z" fill="#71869D"/>
<path d="M92.3412 215.014C93.0857 215.014 93.6893 214.41 93.6893 213.666C93.6893 212.921 93.0857 212.318 92.3412 212.318C91.5968 212.318 90.9932 212.921 90.9932 213.666C90.9932 214.41 91.5968 215.014 92.3412 215.014Z" fill="#71869D"/>
<path d="M122.672 215.014C123.417 215.014 124.02 214.41 124.02 213.666C124.02 212.921 123.417 212.318 122.672 212.318C121.928 212.318 121.324 212.921 121.324 213.666C121.324 214.41 121.928 215.014 122.672 215.014Z" fill="#71869D"/>
<path d="M153.003 215.014C153.748 215.014 154.351 214.41 154.351 213.666C154.351 212.921 153.748 212.318 153.003 212.318C152.259 212.318 151.655 212.921 151.655 213.666C151.655 214.41 152.259 215.014 153.003 215.014Z" fill="#71869D"/>
<path d="M1.34805 245.345C2.09255 245.345 2.6961 244.741 2.6961 243.997C2.6961 243.252 2.09255 242.649 1.34805 242.649C0.603541 242.649 0 243.252 0 243.997C0 244.741 0.603541 245.345 1.34805 245.345Z" fill="#71869D"/>
<path d="M31.6791 245.345C32.4236 245.345 33.0271 244.741 33.0271 243.997C33.0271 243.252 32.4236 242.649 31.6791 242.649C30.9346 242.649 30.3311 243.252 30.3311 243.997C30.3311 244.741 30.9346 245.345 31.6791 245.345Z" fill="#71869D"/>
<path d="M62.0102 245.345C62.7546 245.345 63.3582 244.741 63.3582 243.997C63.3582 243.252 62.7546 242.649 62.0102 242.649C61.2657 242.649 60.6621 243.252 60.6621 243.997C60.6621 244.741 61.2657 245.345 62.0102 245.345Z" fill="#71869D"/>
<path d="M92.3412 245.345C93.0857 245.345 93.6893 244.741 93.6893 243.997C93.6893 243.252 93.0857 242.649 92.3412 242.649C91.5968 242.649 90.9932 243.252 90.9932 243.997C90.9932 244.741 91.5968 245.345 92.3412 245.345Z" fill="#71869D"/>
<path d="M122.672 245.345C123.417 245.345 124.02 244.741 124.02 243.997C124.02 243.252 123.417 242.649 122.672 242.649C121.928 242.649 121.324 243.252 121.324 243.997C121.324 244.741 121.928 245.345 122.672 245.345Z" fill="#71869D"/>
<path d="M153.003 245.345C153.748 245.345 154.351 244.741 154.351 243.997C154.351 243.252 153.748 242.649 153.003 242.649C152.259 242.649 151.655 243.252 151.655 243.997C151.655 244.741 152.259 245.345 153.003 245.345Z" fill="#71869D"/>
<path d="M1.34805 275.676C2.09255 275.676 2.6961 275.072 2.6961 274.328C2.6961 273.583 2.09255 272.98 1.34805 272.98C0.603541 272.98 0 273.583 0 274.328C0 275.072 0.603541 275.676 1.34805 275.676Z" fill="#71869D"/>
<path d="M31.6791 275.676C32.4236 275.676 33.0271 275.072 33.0271 274.328C33.0271 273.583 32.4236 272.98 31.6791 272.98C30.9346 272.98 30.3311 273.583 30.3311 274.328C30.3311 275.072 30.9346 275.676 31.6791 275.676Z" fill="#71869D"/>
<path d="M62.0102 275.676C62.7546 275.676 63.3582 275.072 63.3582 274.328C63.3582 273.583 62.7546 272.98 62.0102 272.98C61.2657 272.98 60.6621 273.583 60.6621 274.328C60.6621 275.072 61.2657 275.676 62.0102 275.676Z" fill="#71869D"/>
<path d="M92.3412 275.676C93.0857 275.676 93.6893 275.072 93.6893 274.328C93.6893 273.583 93.0857 272.98 92.3412 272.98C91.5968 272.98 90.9932 273.583 90.9932 274.328C90.9932 275.072 91.5968 275.676 92.3412 275.676Z" fill="#71869D"/>
<path d="M122.672 275.676C123.417 275.676 124.02 275.072 124.02 274.328C124.02 273.583 123.417 272.98 122.672 272.98C121.928 272.98 121.324 273.583 121.324 274.328C121.324 275.072 121.928 275.676 122.672 275.676Z" fill="#71869D"/>
<path d="M153.003 275.676C153.748 275.676 154.351 275.072 154.351 274.328C154.351 273.583 153.748 272.98 153.003 272.98C152.259 272.98 151.655 273.583 151.655 274.328C151.655 275.072 152.259 275.676 153.003 275.676Z" fill="#71869D"/>
<path d="M1.34805 306.007C2.09255 306.007 2.6961 305.403 2.6961 304.659C2.6961 303.914 2.09255 303.311 1.34805 303.311C0.603541 303.311 0 303.914 0 304.659C0 305.403 0.603541 306.007 1.34805 306.007Z" fill="#71869D"/>
<path d="M31.6791 306.007C32.4236 306.007 33.0271 305.403 33.0271 304.659C33.0271 303.914 32.4236 303.311 31.6791 303.311C30.9346 303.311 30.3311 303.914 30.3311 304.659C30.3311 305.403 30.9346 306.007 31.6791 306.007Z" fill="#71869D"/>
<path d="M62.0102 306.007C62.7546 306.007 63.3582 305.403 63.3582 304.659C63.3582 303.914 62.7546 303.311 62.0102 303.311C61.2657 303.311 60.6621 303.914 60.6621 304.659C60.6621 305.403 61.2657 306.007 62.0102 306.007Z" fill="#71869D"/>
<path d="M92.3412 306.007C93.0857 306.007 93.6893 305.403 93.6893 304.659C93.6893 303.914 93.0857 303.311 92.3412 303.311C91.5968 303.311 90.9932 303.914 90.9932 304.659C90.9932 305.403 91.5968 306.007 92.3412 306.007Z" fill="#71869D"/>
<path d="M122.672 306.007C123.417 306.007 124.02 305.403 124.02 304.659C124.02 303.914 123.417 303.311 122.672 303.311C121.928 303.311 121.324 303.914 121.324 304.659C121.324 305.403 121.928 306.007 122.672 306.007Z" fill="#71869D"/>
<path d="M153.003 306.007C153.748 306.007 154.351 305.403 154.351 304.659C154.351 303.914 153.748 303.311 153.003 303.311C152.259 303.311 151.655 303.914 151.655 304.659C151.655 305.403 152.259 306.007 153.003 306.007Z" fill="#71869D"/>
<path d="M183.334 2.69609C184.079 2.69609 184.683 2.09255 184.683 1.34805C184.683 0.603541 184.079 0 183.334 0C182.59 0 181.986 0.603541 181.986 1.34805C181.986 2.09255 182.59 2.69609 183.334 2.69609Z" fill="#71869D"/>
<path d="M213.666 2.69609C214.41 2.69609 215.014 2.09255 215.014 1.34805C215.014 0.603541 214.41 0 213.666 0C212.921 0 212.318 0.603541 212.318 1.34805C212.318 2.09255 212.921 2.69609 213.666 2.69609Z" fill="#71869D"/>
<path d="M183.334 33.0271C184.079 33.0271 184.683 32.4236 184.683 31.6791C184.683 30.9346 184.079 30.3311 183.334 30.3311C182.59 30.3311 181.986 30.9346 181.986 31.6791C181.986 32.4236 182.59 33.0271 183.334 33.0271Z" fill="#71869D"/>
<path d="M213.666 33.0271C214.41 33.0271 215.014 32.4236 215.014 31.6791C215.014 30.9346 214.41 30.3311 213.666 30.3311C212.921 30.3311 212.318 30.9346 212.318 31.6791C212.318 32.4236 212.921 33.0271 213.666 33.0271Z" fill="#71869D"/>
<path d="M183.334 63.3582C184.079 63.3582 184.683 62.7546 184.683 62.0102C184.683 61.2657 184.079 60.6621 183.334 60.6621C182.59 60.6621 181.986 61.2657 181.986 62.0102C181.986 62.7546 182.59 63.3582 183.334 63.3582Z" fill="#71869D"/>
<path d="M213.666 63.3582C214.41 63.3582 215.014 62.7546 215.014 62.0102C215.014 61.2657 214.41 60.6621 213.666 60.6621C212.921 60.6621 212.318 61.2657 212.318 62.0102C212.318 62.7546 212.921 63.3582 213.666 63.3582Z" fill="#71869D"/>
<path d="M183.334 93.6893C184.079 93.6893 184.683 93.0857 184.683 92.3413C184.683 91.5968 184.079 90.9932 183.334 90.9932C182.59 90.9932 181.986 91.5968 181.986 92.3413C181.986 93.0857 182.59 93.6893 183.334 93.6893Z" fill="#71869D"/>
<path d="M213.666 93.6893C214.41 93.6893 215.014 93.0857 215.014 92.3413C215.014 91.5968 214.41 90.9932 213.666 90.9932C212.921 90.9932 212.318 91.5968 212.318 92.3413C212.318 93.0857 212.921 93.6893 213.666 93.6893Z" fill="#71869D"/>
<path d="M183.334 124.02C184.079 124.02 184.683 123.417 184.683 122.672C184.683 121.928 184.079 121.324 183.334 121.324C182.59 121.324 181.986 121.928 181.986 122.672C181.986 123.417 182.59 124.02 183.334 124.02Z" fill="#71869D"/>
<path d="M213.666 124.02C214.41 124.02 215.014 123.417 215.014 122.672C215.014 121.928 214.41 121.324 213.666 121.324C212.921 121.324 212.318 121.928 212.318 122.672C212.318 123.417 212.921 124.02 213.666 124.02Z" fill="#71869D"/>
<path d="M183.334 154.351C184.079 154.351 184.683 153.748 184.683 153.003C184.683 152.259 184.079 151.655 183.334 151.655C182.59 151.655 181.986 152.259 181.986 153.003C181.986 153.748 182.59 154.351 183.334 154.351Z" fill="#71869D"/>
<path d="M213.666 154.351C214.41 154.351 215.014 153.748 215.014 153.003C215.014 152.259 214.41 151.655 213.666 151.655C212.921 151.655 212.318 152.259 212.318 153.003C212.318 153.748 212.921 154.351 213.666 154.351Z" fill="#71869D"/>
<path d="M183.334 184.683C184.079 184.683 184.683 184.079 184.683 183.334C184.683 182.59 184.079 181.986 183.334 181.986C182.59 181.986 181.986 182.59 181.986 183.334C181.986 184.079 182.59 184.683 183.334 184.683Z" fill="#71869D"/>
<path d="M213.666 184.683C214.41 184.683 215.014 184.079 215.014 183.334C215.014 182.59 214.41 181.986 213.666 181.986C212.921 181.986 212.318 182.59 212.318 183.334C212.318 184.079 212.921 184.683 213.666 184.683Z" fill="#71869D"/>
<path d="M183.334 215.014C184.079 215.014 184.683 214.41 184.683 213.666C184.683 212.921 184.079 212.318 183.334 212.318C182.59 212.318 181.986 212.921 181.986 213.666C181.986 214.41 182.59 215.014 183.334 215.014Z" fill="#71869D"/>
<path d="M213.666 215.014C214.41 215.014 215.014 214.41 215.014 213.666C215.014 212.921 214.41 212.318 213.666 212.318C212.921 212.318 212.318 212.921 212.318 213.666C212.318 214.41 212.921 215.014 213.666 215.014Z" fill="#71869D"/>
<path d="M183.334 245.345C184.079 245.345 184.683 244.741 184.683 243.997C184.683 243.252 184.079 242.649 183.334 242.649C182.59 242.649 181.986 243.252 181.986 243.997C181.986 244.741 182.59 245.345 183.334 245.345Z" fill="#71869D"/>
<path d="M213.666 245.345C214.41 245.345 215.014 244.741 215.014 243.997C215.014 243.252 214.41 242.649 213.666 242.649C212.921 242.649 212.318 243.252 212.318 243.997C212.318 244.741 212.921 245.345 213.666 245.345Z" fill="#71869D"/>
<path d="M183.334 275.676C184.079 275.676 184.683 275.072 184.683 274.328C184.683 273.583 184.079 272.98 183.334 272.98C182.59 272.98 181.986 273.583 181.986 274.328C181.986 275.072 182.59 275.676 183.334 275.676Z" fill="#71869D"/>
<path d="M213.666 275.676C214.41 275.676 215.014 275.072 215.014 274.328C215.014 273.583 214.41 272.98 213.666 272.98C212.921 272.98 212.318 273.583 212.318 274.328C212.318 275.072 212.921 275.676 213.666 275.676Z" fill="#71869D"/>
<path d="M183.334 306.007C184.079 306.007 184.683 305.403 184.683 304.659C184.683 303.914 184.079 303.311 183.334 303.311C182.59 303.311 181.986 303.914 181.986 304.659C181.986 305.403 182.59 306.007 183.334 306.007Z" fill="#71869D"/>
<path d="M213.666 306.007C214.41 306.007 215.014 305.403 215.014 304.659C215.014 303.914 214.41 303.311 213.666 303.311C212.921 303.311 212.318 303.914 212.318 304.659C212.318 305.403 212.921 306.007 213.666 306.007Z" fill="#71869D"/>
<path d="M1.34805 336.338C2.09255 336.338 2.6961 335.734 2.6961 334.99C2.6961 334.245 2.09255 333.642 1.34805 333.642C0.603541 333.642 0 334.245 0 334.99C0 335.734 0.603541 336.338 1.34805 336.338Z" fill="#71869D"/>
<path d="M31.6791 336.338C32.4236 336.338 33.0271 335.734 33.0271 334.99C33.0271 334.245 32.4236 333.642 31.6791 333.642C30.9346 333.642 30.3311 334.245 30.3311 334.99C30.3311 335.734 30.9346 336.338 31.6791 336.338Z" fill="#71869D"/>
<path d="M62.0102 336.338C62.7546 336.338 63.3582 335.734 63.3582 334.99C63.3582 334.245 62.7546 333.642 62.0102 333.642C61.2657 333.642 60.6621 334.245 60.6621 334.99C60.6621 335.734 61.2657 336.338 62.0102 336.338Z" fill="#71869D"/>
<path d="M92.3412 336.338C93.0857 336.338 93.6893 335.734 93.6893 334.99C93.6893 334.245 93.0857 333.642 92.3412 333.642C91.5968 333.642 90.9932 334.245 90.9932 334.99C90.9932 335.734 91.5968 336.338 92.3412 336.338Z" fill="#71869D"/>
<path d="M122.672 336.338C123.417 336.338 124.02 335.734 124.02 334.99C124.02 334.245 123.417 333.642 122.672 333.642C121.928 333.642 121.324 334.245 121.324 334.99C121.324 335.734 121.928 336.338 122.672 336.338Z" fill="#71869D"/>
<path d="M153.003 336.338C153.748 336.338 154.351 335.734 154.351 334.99C154.351 334.245 153.748 333.642 153.003 333.642C152.259 333.642 151.655 334.245 151.655 334.99C151.655 335.734 152.259 336.338 153.003 336.338Z" fill="#71869D"/>
<path d="M1.34805 366.669C2.09255 366.669 2.6961 366.066 2.6961 365.321C2.6961 364.576 2.09255 363.973 1.34805 363.973C0.603541 363.973 0 364.576 0 365.321C0 366.066 0.603541 366.669 1.34805 366.669Z" fill="#71869D"/>
<path d="M31.6791 366.669C32.4236 366.669 33.0271 366.066 33.0271 365.321C33.0271 364.576 32.4236 363.973 31.6791 363.973C30.9346 363.973 30.3311 364.576 30.3311 365.321C30.3311 366.066 30.9346 366.669 31.6791 366.669Z" fill="#71869D"/>
<path d="M62.0102 366.669C62.7546 366.669 63.3582 366.066 63.3582 365.321C63.3582 364.576 62.7546 363.973 62.0102 363.973C61.2657 363.973 60.6621 364.576 60.6621 365.321C60.6621 366.066 61.2657 366.669 62.0102 366.669Z" fill="#71869D"/>
<path d="M92.3412 366.669C93.0857 366.669 93.6893 366.066 93.6893 365.321C93.6893 364.576 93.0857 363.973 92.3412 363.973C91.5968 363.973 90.9932 364.576 90.9932 365.321C90.9932 366.066 91.5968 366.669 92.3412 366.669Z" fill="#71869D"/>
<path d="M122.672 366.669C123.417 366.669 124.02 366.066 124.02 365.321C124.02 364.576 123.417 363.973 122.672 363.973C121.928 363.973 121.324 364.576 121.324 365.321C121.324 366.066 121.928 366.669 122.672 366.669Z" fill="#71869D"/>
<path d="M153.003 366.669C153.748 366.669 154.351 366.066 154.351 365.321C154.351 364.576 153.748 363.973 153.003 363.973C152.259 363.973 151.655 364.576 151.655 365.321C151.655 366.066 152.259 366.669 153.003 366.669Z" fill="#71869D"/>
<path d="M1.34805 397C2.09255 397 2.6961 396.397 2.6961 395.652C2.6961 394.907 2.09255 394.304 1.34805 394.304C0.603541 394.304 0 394.907 0 395.652C0 396.397 0.603541 397 1.34805 397Z" fill="#71869D"/>
<path d="M31.6791 397C32.4236 397 33.0271 396.397 33.0271 395.652C33.0271 394.907 32.4236 394.304 31.6791 394.304C30.9346 394.304 30.3311 394.907 30.3311 395.652C30.3311 396.397 30.9346 397 31.6791 397Z" fill="#71869D"/>
<path d="M62.0102 397C62.7546 397 63.3582 396.397 63.3582 395.652C63.3582 394.907 62.7546 394.304 62.0102 394.304C61.2657 394.304 60.6621 394.907 60.6621 395.652C60.6621 396.397 61.2657 397 62.0102 397Z" fill="#71869D"/>
<path d="M92.3412 397C93.0857 397 93.6893 396.397 93.6893 395.652C93.6893 394.907 93.0857 394.304 92.3412 394.304C91.5968 394.304 90.9932 394.907 90.9932 395.652C90.9932 396.397 91.5968 397 92.3412 397Z" fill="#71869D"/>
<path d="M122.672 397C123.417 397 124.02 396.397 124.02 395.652C124.02 394.907 123.417 394.304 122.672 394.304C121.928 394.304 121.324 394.907 121.324 395.652C121.324 396.397 121.928 397 122.672 397Z" fill="#71869D"/>
<path d="M153.003 397C153.748 397 154.351 396.397 154.351 395.652C154.351 394.907 153.748 394.304 153.003 394.304C152.259 394.304 151.655 394.907 151.655 395.652C151.655 396.397 152.259 397 153.003 397Z" fill="#71869D"/>
<path d="M183.334 336.338C184.079 336.338 184.683 335.734 184.683 334.99C184.683 334.245 184.079 333.642 183.334 333.642C182.59 333.642 181.986 334.245 181.986 334.99C181.986 335.734 182.59 336.338 183.334 336.338Z" fill="#71869D"/>
<path d="M213.666 336.338C214.41 336.338 215.014 335.734 215.014 334.99C215.014 334.245 214.41 333.642 213.666 333.642C212.921 333.642 212.318 334.245 212.318 334.99C212.318 335.734 212.921 336.338 213.666 336.338Z" fill="#71869D"/>
<path d="M183.334 366.669C184.079 366.669 184.683 366.066 184.683 365.321C184.683 364.576 184.079 363.973 183.334 363.973C182.59 363.973 181.986 364.576 181.986 365.321C181.986 366.066 182.59 366.669 183.334 366.669Z" fill="#71869D"/>
<path d="M213.666 366.669C214.41 366.669 215.014 366.066 215.014 365.321C215.014 364.576 214.41 363.973 213.666 363.973C212.921 363.973 212.318 364.576 212.318 365.321C212.318 366.066 212.921 366.669 213.666 366.669Z" fill="#71869D"/>
<path d="M183.334 397C184.079 397 184.683 396.397 184.683 395.652C184.683 394.907 184.079 394.304 183.334 394.304C182.59 394.304 181.986 394.907 181.986 395.652C181.986 396.397 182.59 397 183.334 397Z" fill="#71869D"/>
<path d="M213.666 397C214.41 397 215.014 396.397 215.014 395.652C215.014 394.907 214.41 394.304 213.666 394.304C212.921 394.304 212.318 394.907 212.318 395.652C212.318 396.397 212.921 397 213.666 397Z" fill="#71869D"/>
</g>
<g filter="url(#filter0_d_103_1924)">
<path d="M73.5116 145.314C73.2191 138.274 78.2042 132.114 85.1503 130.932L479.651 63.7828C488.199 62.3279 496 68.9136 496 77.5843V456C496 463.732 489.732 470 482 470H100.43C92.9245 470 86.7541 464.081 86.4425 456.581L73.5116 145.314Z" fill="url(#paint0_linear_103_1924)"/>
</g>
<circle cx="320" cy="176" r="15" fill="#ACC1FF" fill-opacity="0.3"/>
<circle cx="116.5" cy="252.5" r="14.5" fill="#ACC1FF" fill-opacity="0.3"/>
<circle cx="259" cy="151" r="7" fill="#ACC1FF" fill-opacity="0.3"/>
<circle cx="369" cy="115" r="7" fill="#ACC1FF" fill-opacity="0.3"/>
<circle cx="203.5" cy="196.5" r="9.5" fill="#ACC1FF" fill-opacity="0.3"/>
<g filter="url(#filter1_d_103_1924)">
<rect x="445" y="92" width="100" height="100" rx="15" fill="white"/>
</g>
<path d="M476.555 130.285C477.732 130.285 478.655 129.387 478.655 128.266C478.655 127.144 477.701 126.246 476.555 126.246C475.378 126.246 474.456 127.144 474.456 128.266C474.456 129.387 475.378 130.285 476.555 130.285Z" fill="#7093FF"/>
<path d="M491.19 130.285C492.367 130.285 493.29 129.387 493.29 128.266C493.29 127.144 492.335 126.246 491.19 126.246C490.013 126.246 489.09 127.144 489.09 128.266C489.058 129.387 490.013 130.285 491.19 130.285Z" fill="#7093FF"/>
<path d="M506.111 130.285C507.288 130.285 508.211 129.387 508.211 128.266C508.211 127.144 507.256 126.246 506.111 126.246C504.934 126.246 504.011 127.144 504.011 128.266C504.011 129.387 504.934 130.285 506.111 130.285Z" fill="#7093FF"/>
<path d="M476.555 140.701C477.732 140.701 478.655 139.804 478.655 138.682C478.655 137.56 477.701 136.663 476.555 136.663C475.378 136.663 474.456 137.56 474.456 138.682C474.456 139.804 475.378 140.701 476.555 140.701Z" fill="#7093FF"/>
<path d="M476.555 151.63C477.732 151.63 478.655 150.733 478.655 149.611C478.655 148.489 477.701 147.592 476.555 147.592C475.378 147.592 474.456 148.489 474.456 149.611C474.456 150.733 475.378 151.63 476.555 151.63Z" fill="#7093FF"/>
<path d="M512.06 113.971H470.829C466.47 113.971 462.907 117.561 462.907 121.952V155.861C462.907 160.252 466.47 163.841 470.829 163.841H492.685C491.826 162.655 491.095 161.373 490.522 159.995H470.829C468.57 159.995 466.725 158.136 466.725 155.861V121.952C466.725 119.676 468.57 117.817 470.829 117.817H512.06C514.319 117.817 516.164 119.676 516.164 121.952V140.445C517.66 141.598 518.932 142.977 519.982 144.579V121.952C519.982 117.561 516.419 113.971 512.06 113.971Z" fill="#7093FF"/>
<path d="M491.444 113.971H470.829C466.47 113.971 462.907 117.561 462.907 121.952V155.861C462.907 160.252 466.47 163.841 470.829 163.841H492.685C491.826 162.655 491.095 161.373 490.522 159.995H470.829C468.57 159.995 466.725 158.136 466.725 155.861V121.952C466.725 119.676 468.57 117.817 470.829 117.817H491.444V113.971Z" fill="#70D4FF"/>
<path d="M491.285 119.708C492.335 119.708 493.194 118.843 493.194 117.785V112.337C493.194 111.279 492.335 110.414 491.285 110.414C490.235 110.414 489.376 111.279 489.376 112.337V117.785C489.376 118.843 490.235 119.708 491.285 119.708Z" fill="#70D4FF"/>
<path d="M476.492 119.868C475.442 119.868 474.583 119.003 474.583 117.945V112.529C474.583 111.471 475.442 110.606 476.492 110.606C477.541 110.606 478.4 111.471 478.4 112.529V117.978C478.4 119.003 477.541 119.868 476.492 119.868Z" fill="#70D4FF"/>
<path d="M506.047 119.548C507.097 119.548 507.956 118.683 507.956 117.625V112.209C507.956 111.151 507.097 110.285 506.047 110.285C504.997 110.285 504.138 111.151 504.138 112.209V117.657C504.138 118.683 504.997 119.548 506.047 119.548Z" fill="#70D4FF"/>
<path d="M514.605 156.63H506.015C505.125 156.63 504.425 155.925 504.425 155.028V141.951C504.425 141.054 505.125 140.349 506.015 140.349C506.906 140.349 507.606 141.054 507.606 141.951V153.457H514.605C515.496 153.457 516.196 154.162 516.196 155.06C516.196 155.925 515.496 156.63 514.605 156.63Z" fill="#7093FF"/>
<path d="M519.982 138.65C518.837 137.56 517.532 136.631 516.164 135.829C513.174 134.099 509.706 133.137 506.016 133.137C494.69 133.137 485.527 142.368 485.527 153.746C485.527 155.925 485.845 158.008 486.481 159.995C486.895 161.341 487.468 162.623 488.136 163.841C491.635 170.123 498.348 174.386 506.016 174.386C517.341 174.386 526.504 165.155 526.504 153.778C526.536 147.784 524.023 142.432 519.982 138.65ZM506.047 170.54C500.607 170.54 495.739 167.912 492.717 163.841C491.858 162.655 491.126 161.373 490.554 159.995C489.79 158.072 489.345 155.957 489.345 153.746C489.345 144.483 496.821 136.951 506.016 136.951C509.833 136.951 513.333 138.233 516.164 140.413C517.66 141.566 518.932 142.945 519.982 144.547C521.7 147.175 522.718 150.348 522.718 153.746C522.718 163.008 515.242 170.54 506.047 170.54Z" fill="#70D4FF"/>
<g filter="url(#filter2_d_103_1924)">
<rect x="445" y="213" width="100" height="100" rx="15" fill="white"/>
</g>
<path d="M494.709 298.206C514.192 298.206 529.624 282.564 529.624 263.291C529.624 244.018 514.192 228.376 494.709 228.376V232.566C511.817 232.566 525.748 246.357 525.748 263.291C525.748 280.225 511.817 294.016 494.709 294.016V298.206Z" fill="#7093FF"/>
<path d="M494.709 294.016C477.601 294.016 463.67 280.225 463.67 263.291C463.67 246.357 477.601 232.566 494.709 232.566V228.376C475.227 228.376 459.794 244.018 459.794 263.291C459.794 282.564 475.227 298.206 494.709 298.206V294.016Z" fill="#70D4FF"/>
<path d="M501.343 255.261C501.483 255.261 501.587 255.226 501.727 255.191L510.805 252.537C511.783 252.258 512.341 251.245 512.062 250.268C511.783 249.29 510.77 248.731 509.792 249.011L500.714 251.664C499.737 251.944 499.178 252.956 499.458 253.934C499.702 254.772 500.505 255.33 501.343 255.261Z" fill="#7093FF"/>
<path d="M480.01 265.491H494.709V256.448H473.132C472.119 256.448 471.316 257.251 471.316 258.263C471.316 259.276 472.154 260.079 473.132 260.079H477.251V271.95C477.251 272.09 477.286 272.194 477.321 272.334C475.715 272.893 474.563 274.394 474.563 276.21C474.563 278.479 476.379 280.295 478.648 280.295C480.918 280.295 482.733 278.479 482.733 276.21C482.733 274.429 481.581 272.893 479.975 272.334C480.01 272.229 480.045 272.09 480.045 271.95V265.491H480.01ZM480.324 276.21C480.324 277.117 479.591 277.885 478.648 277.885C477.74 277.885 476.972 277.152 476.972 276.21C476.972 275.267 477.705 274.534 478.648 274.534C479.591 274.534 480.324 275.302 480.324 276.21Z" fill="#7093FF"/>
<path d="M517.439 249.465C516.671 248.836 515.518 248.941 514.855 249.709L509.269 256.448H494.709V260.114V265.491H504.346V272.369C502.74 272.928 501.587 274.429 501.587 276.244C501.587 278.514 503.403 280.33 505.672 280.33C507.942 280.33 509.757 278.514 509.757 276.244C509.757 274.499 508.64 272.997 507.069 272.404C507.069 272.404 507.069 272.404 507.069 272.369V260.114H510.98L517.648 252.048C518.312 251.28 518.207 250.128 517.439 249.465ZM507.488 276.21C507.488 277.117 506.755 277.885 505.812 277.885C504.869 277.885 504.136 277.152 504.136 276.21C504.136 275.267 504.869 274.534 505.812 274.534C506.755 274.534 507.488 275.302 507.488 276.21Z" fill="#70D4FF"/>
<g filter="url(#filter3_d_103_1924)">
<rect x="445" y="338" width="100" height="100" rx="15" fill="white"/>
</g>
<path d="M494.745 423.206C514.085 423.206 529.404 407.564 529.404 388.291C529.404 369.018 514.085 353.376 494.745 353.376V357.566C511.728 357.566 525.557 371.357 525.557 388.291C525.557 405.225 511.728 419.016 494.745 419.016V423.206Z" fill="#7093FF"/>
<path d="M494.745 419.016C477.763 419.016 463.934 405.225 463.934 388.291C463.934 371.357 477.763 357.566 494.745 357.566V353.376C475.406 353.376 460.087 369.018 460.087 388.291C460.087 407.564 475.406 423.206 494.745 423.206V419.016Z" fill="#70D4FF"/>
<path d="M495.369 402.571C494.364 401.559 493.151 400.93 491.869 400.651L503.549 388.885L502.578 381.762L512.005 372.265L511.659 368.04L499.182 380.61L500.152 387.732L485.18 402.816C482.58 405.609 482.615 410.008 485.318 412.697C488.056 415.455 492.562 415.455 495.335 412.627C498.073 409.868 498.107 405.364 495.369 402.571ZM487.571 410.427C486.081 408.926 486.115 406.447 487.64 404.911C489.165 403.374 491.626 403.339 493.116 404.841C494.607 406.342 494.572 408.821 493.047 410.357C491.522 411.928 489.061 411.928 487.571 410.427Z" fill="#70D4FF"/>
<path d="M473.638 390.84C470.866 393.633 470.831 398.172 473.569 400.93C476.238 403.619 480.605 403.689 483.377 401.07L498.35 385.987L505.42 386.964L517.897 374.395L513.703 374.046L504.276 383.543L497.206 382.565L485.526 394.331C485.249 393.039 484.625 391.782 483.62 390.805C480.917 388.047 476.411 388.047 473.638 390.84ZM475.926 393.144C477.451 391.608 479.912 391.573 481.402 393.074C482.892 394.576 482.858 397.055 481.333 398.591C479.808 400.127 477.347 400.162 475.857 398.661C474.366 397.159 474.401 394.68 475.926 393.144Z" fill="#7093FF"/>
<g filter="url(#filter4_d_103_1924)">
<path fill-rule="evenodd" clip-rule="evenodd" d="M95 49C64.6243 49 40 73.9157 40 104.291C40 134.667 64.6243 159.583 95 159.583H106C107.038 159.583 108.069 159.554 109.093 159.496C120.71 167.463 136.542 174.007 156.192 174.007C146.974 164.789 141.998 158.116 139.456 148.132C152.555 137.996 161 122.08 161 104.291C161 73.9157 136.376 49 106 49H95Z" fill="white"/>
</g>
<g clip-path="url(#clip1_103_1924)">
<path d="M100.046 129.717H82.5713C78.8112 129.717 75.7292 127.109 75.7292 123.918V88.0818C75.7292 84.8909 78.8112 82.283 82.5713 82.283H100.046V79H82.5713C76.7463 79 72 83.0807 72 88.0818V123.949C72 128.919 76.7463 133 82.5713 133H100.046V129.717Z" fill="#70D4FF"/>
<path d="M110.525 79H99.9539V82.283H110.525C111.049 82.283 111.45 81.8841 111.45 81.3625V79.9205C111.45 79.3989 111.049 79 110.525 79Z" fill="#7093FF"/>
<path d="M125.195 94.3409C124.702 94.3409 124.271 94.7398 124.271 95.2614V123.949C124.271 127.14 121.189 129.748 117.429 129.748H99.9539V133H117.429C123.254 133 128 128.919 128 123.918V95.2614C128 94.7705 127.599 94.3409 127.075 94.3409H125.195Z" fill="#7093FF"/>
<path d="M97.6516 121.927L81.2585 110.013C79.8839 109.013 79.5819 107.095 80.5866 105.727C81.5913 104.359 83.5176 104.058 84.8922 105.058L96.3572 113.391L117.743 84.8357C118.76 83.4765 120.693 83.1973 122.058 84.2098C123.423 85.2223 123.704 87.146 122.687 88.5022L97.6547 121.927H97.6516Z" fill="#7093FF"/>
</g>
<ellipse cx="264.802" cy="380.602" rx="157.137" ry="70.5814" transform="rotate(-14.9715 264.802 380.602)" fill="#E5ECFE"/>
<path d="M353.693 215.906C353.904 215.906 354.074 215.606 354.074 215.238C354.074 214.869 353.904 214.57 353.693 214.57C353.483 214.57 353.312 214.869 353.312 215.238C353.312 215.606 353.483 215.906 353.693 215.906Z" fill="#C4C4C4"/>
<path d="M219.264 359.201C218.981 359.386 218.448 360.542 217.857 361.2C216.919 362.326 216.665 363.609 216.665 363.609C216.665 363.609 213.817 366.607 219.484 368.607C222.268 369.606 223.524 367.544 223.866 365.169C223.68 362.668 223.68 359.923 223.68 359.923C222.459 358.952 219.264 359.206 219.264 359.206V359.201Z" fill="#BBBCBE"/>
<path d="M216.758 363.516C216.133 363.36 213.69 367.578 214.252 370.923C214.252 370.923 210.403 384.887 225.146 384.794C226.65 384.638 230.123 383.419 230.216 381.576C230.402 378.514 224.364 365.081 223.861 365.174C223.392 365.267 221.765 370.05 216.753 363.516H216.758Z" fill="#011625"/>
<path d="M243.508 345.656C243.538 346.314 241.882 348.811 241.442 349.937C242.004 351.156 242.194 353.438 242.287 353.843C242.976 357.28 257.533 360.279 257.562 358.124L251.27 349.186L251.085 345.749C249.834 346.465 243.508 345.656 243.508 345.656Z" fill="#BBBCBE"/>
<path d="M241.413 350C241.413 350 239.439 358.782 241.193 360.376C242.912 361.936 246.39 361.658 252.086 363.75C257.504 365.749 263.043 368.031 266.17 365.125C264.23 360.127 259.125 357.095 252.116 349.942C250.518 350.941 251.114 356.315 241.408 350.005L241.413 350Z" fill="#011625"/>
<path d="M238.013 278.126L237.983 293.997V296.405L240.831 297.936C241.271 298.185 241.74 298.278 242.272 298.219C243.933 298 245.311 296.001 245.311 293.846L245.34 277.599C245.213 277.629 245.091 277.663 244.964 277.663L239.83 278.379" fill="#777777"/>
<path d="M203.237 316.304H193.252V324.675H203.237V316.304Z" fill="#777777"/>
<path d="M199.544 354.984C202.431 354.984 204.77 352.648 204.77 349.766C204.77 346.885 202.431 344.549 199.544 344.549C196.657 344.549 194.317 346.885 194.317 349.766C194.317 352.648 196.657 354.984 199.544 354.984Z" fill="#2E3641"/>
<path d="M201.766 340.956H197.228V345.705H201.766V340.956Z" fill="#2E3641"/>
<path d="M205.65 349.766C205.65 346.392 202.895 343.642 199.514 343.642C196.134 343.642 193.379 346.392 193.379 349.766H205.65Z" fill="#2E3641"/>
<path d="M161.416 346.173C164.303 346.173 166.643 343.837 166.643 340.956C166.643 338.074 164.303 335.739 161.416 335.739C158.529 335.739 156.19 338.074 156.19 340.956C156.19 343.837 158.529 346.173 161.416 346.173Z" fill="#2E3641"/>
<path d="M167.552 340.956C167.552 337.582 164.797 334.832 161.417 334.832C158.036 334.832 155.281 337.582 155.281 340.956H167.552Z" fill="#2E3641"/>
<path d="M164.362 332.55H158.476V337.986H164.362V332.55Z" fill="#2E3641"/>
<path d="M233.538 346.173C236.425 346.173 238.765 343.837 238.765 340.956C238.765 338.074 236.425 335.739 233.538 335.739C230.651 335.739 228.311 338.074 228.311 340.956C228.311 343.837 230.651 346.173 233.538 346.173Z" fill="#2E3641"/>
<path d="M239.673 340.956C239.673 337.582 236.918 334.832 233.538 334.832C230.158 334.832 227.402 337.582 227.402 340.956H239.673Z" fill="#2E3641"/>
<path d="M236.479 332.55H230.592V337.986H236.479V332.55Z" fill="#2E3641"/>
<path d="M192.627 331.116L164.362 335.271H158.007C158.007 335.271 157.318 330.96 158.696 330.053C160.044 329.147 164.895 329.395 164.895 329.395L191.879 325.738L192.631 331.111L192.627 331.116Z" fill="#777777"/>
<path d="M202.299 331.116L230.563 335.271H236.918C236.918 335.271 237.607 330.96 236.23 330.053C234.881 329.147 230.031 329.395 230.031 329.395L203.046 325.738L202.294 331.111L202.299 331.116Z" fill="#777777"/>
<path d="M204.302 323.052H190.687V331.424H204.302V323.052Z" fill="#1A1A1A"/>
<path d="M202.484 342.735H196.598L193.843 325.772C196.285 325.431 198.694 325.431 201.107 325.772L202.484 342.735Z" fill="#777777"/>
<path d="M207.995 303.402H188.494V315.397H207.995V303.402Z" fill="#1A1A1A"/>
<path d="M205.054 311.335H191.439V319.707H205.054V311.335Z" fill="#1A1A1A"/>
<path d="M219.982 282.563L214.819 279.75L212.596 247.633L217.76 250.446L219.982 282.563Z" fill="#111419"/>
<path d="M217.76 250.441L212.596 247.628L209.436 237.881L214.599 240.694L217.76 250.441Z" fill="#11141A"/>
<path d="M214.599 240.694L209.436 237.881L209.465 228.758L214.628 231.537L214.599 240.694Z" fill="#11141A"/>
<path d="M214.633 231.542L209.47 228.763V219.606L214.633 222.42V231.542Z" fill="#11141A"/>
<path d="M214.633 222.415L209.47 219.601L209.499 210.479L214.663 213.292L214.633 222.415Z" fill="#11141A"/>
<path d="M220.329 194.891L215.131 192.077L218.605 191.575L223.768 194.389L220.324 194.891H220.329Z" fill="#171C23"/>
<path d="M214.663 213.292L209.499 210.479V201.356L214.697 204.135L214.667 213.292H214.663Z" fill="#11141A"/>
<path d="M165.486 291.061L160.322 288.248L214.819 279.75L219.982 282.563L165.486 291.061Z" fill="#171C23"/>
<path d="M214.692 204.14L209.494 201.361L209.524 192.204L214.687 195.018V204.14H214.692Z" fill="#11141A"/>
<path d="M174.156 256.565L165.828 251.943L212.591 247.633L217.755 250.446L174.152 256.57L174.156 256.565Z" fill="#21262E"/>
<path d="M165.486 291.061L163.483 290.062L168.993 253.757L174.156 256.57L165.486 291.061Z" fill="#181D22"/>
<path d="M170.996 246.818L165.833 244.005L209.436 237.881L214.599 240.694L170.996 246.818Z" fill="#1D212A"/>
<path d="M174.156 256.565L165.828 251.943V244.005L170.991 246.818L174.152 256.565H174.156Z" fill="#15181E"/>
<path d="M165.486 291.061L160.322 288.248L161.729 254.756L166.893 257.569L165.486 291.061Z" fill="#2B588D"/>
<path d="M171.025 237.661L165.862 234.848L209.465 228.753L214.628 231.533L171.025 237.657V237.661Z" fill="#171C23"/>
<path d="M170.996 246.818L165.833 244.005L165.862 234.848L171.025 237.661L170.996 246.818Z" fill="#11141A"/>
<path d="M171.059 228.539L165.862 225.725L209.465 219.601L214.628 222.415L171.055 228.539H171.059Z" fill="#1D212A"/>
<path d="M171.025 237.666L165.862 234.853V225.73L171.059 228.544L171.03 237.666H171.025Z" fill="#15181E"/>
<path d="M214.633 222.415V231.537L171.03 237.661L171.059 228.539L214.633 222.415Z" fill="#4487D4"/>
<path d="M171.059 228.539L165.862 225.725L165.891 216.603L171.055 219.416V228.539H171.059Z" fill="#11141A"/>
<path d="M171.059 219.416L165.896 216.603L209.499 210.479L214.663 213.292L171.059 219.416Z" fill="#171C23"/>
<path d="M171.089 210.264L165.925 207.451L209.499 201.356L214.697 204.135L171.094 210.259L171.089 210.264Z" fill="#1D212A"/>
<path d="M171.059 219.416L165.896 216.603L165.925 207.446L171.089 210.259L171.059 219.416Z" fill="#15181E"/>
<path d="M214.692 204.14L214.662 213.297L171.059 219.421L171.089 210.264L214.692 204.14Z" fill="#4487D4"/>
<path d="M171.089 210.264L165.925 207.451V198.328L171.089 201.142V210.264Z" fill="#11141A"/>
<path d="M171.089 201.142L165.925 198.328L209.528 192.204L214.692 195.018L171.089 201.142Z" fill="#171C23"/>
<path d="M165.486 202.575L160.288 199.762L160.474 195.169L165.637 197.982L165.481 202.575H165.486Z" fill="#11151A"/>
<path d="M165.642 197.982L160.479 195.169L214.975 187.543L220.139 190.322L165.642 197.977V197.982Z" fill="#171C23"/>
<path d="M166.897 257.565L161.734 254.751L156.849 200.264L162.012 203.077L166.897 257.565Z" fill="#2B588D"/>
<path d="M225.053 249.412L223.768 194.393L220.324 194.896L220.139 190.332L165.642 197.987L165.486 202.58L162.012 203.082L166.897 257.569L165.491 291.061L174.161 256.57L171.001 246.823L171.03 237.666L171.059 228.544V219.421L171.089 210.264L214.692 204.14L214.663 213.297L171.059 219.421V228.544L214.633 222.42V231.542L171.03 237.666L171.001 246.823L174.161 256.57L165.491 291.061L219.987 283.406L225.058 249.412H225.053Z" fill="#4487D4"/>
<path d="M162.012 203.077L156.849 200.264L160.293 199.762L165.49 202.575L162.017 203.077H162.012Z" fill="#171C23"/>
<path d="M237.422 305.245C237.422 305.265 237.412 305.275 237.392 305.275C237.422 305.275 237.422 305.245 237.422 305.245L237.392 305.275C237.299 305.367 237.207 305.431 237.109 305.494L237.045 305.557C236.889 305.679 236.826 305.713 236.606 305.869C236.606 305.869 236.577 305.869 236.577 305.899L236.327 306.055C236.264 306.084 236.171 306.147 236.078 306.211C235.922 306.303 235.736 306.396 235.575 306.459C235.17 306.645 234.823 306.801 234.51 306.927H234.481C234.452 306.927 234.417 306.957 234.388 306.957H234.325L234.168 307.02H234.139C234.11 307.02 234.046 307.049 234.012 307.049H233.983C233.953 307.049 233.919 307.079 233.856 307.079H233.826C233.797 307.079 233.733 307.108 233.699 307.108C233.665 307.108 233.636 307.137 233.572 307.137H233.543C233.45 307.166 233.357 307.166 233.26 307.2H233.23C233.167 307.2 233.138 307.2 233.074 307.23H232.512L228.194 307.825L223.719 308.449L219.245 309.073L214.77 309.697L210.295 310.321L205.821 310.945L201.346 311.569L196.872 312.193L192.397 312.817L188.015 313.442C187.986 313.442 187.952 313.442 187.952 313.471H187.922C187.859 313.5 187.795 313.5 187.702 313.5H187.673C187.517 313.529 187.361 313.563 187.204 313.563C187.111 313.563 187.048 313.563 186.984 313.593H186.921C186.828 313.593 186.765 313.593 186.638 313.622H185.26C185.197 313.622 185.167 313.622 185.104 313.593C184.322 313.529 183.477 313.344 182.412 313.09C182.099 313.027 181.723 312.934 181.411 312.842C180.439 312.593 179.437 312.247 178.372 311.842C178.089 311.75 177.776 311.594 177.464 311.467C177.464 311.467 177.434 311.467 177.434 311.438H177.405C177.029 311.282 176.687 311.125 176.496 311.033C176.184 310.877 175.744 310.692 175.431 310.536C175.304 310.472 175.148 310.379 174.992 310.316L174.489 310.067L173.829 309.726L171.387 308.415C171.636 308.6 171.89 308.819 172.105 308.975C172.134 309.005 172.198 309.039 172.232 309.068C172.608 309.351 173.013 309.629 173.39 309.882C173.482 309.946 173.575 310.009 173.639 310.067C173.888 310.253 174.264 310.472 174.513 310.662C174.796 310.848 175.138 311.067 175.422 311.223C175.607 311.35 175.861 311.472 176.081 311.598C176.521 311.847 176.926 312.067 177.21 312.223L179.652 313.534L180.561 314.002L180.624 314.031C180.966 314.217 181.127 314.28 181.533 314.47C181.875 314.626 182.158 314.753 182.407 314.875C182.813 315.06 183.125 315.187 183.282 315.25C183.311 315.25 183.311 315.28 183.345 315.28C183.409 315.309 183.438 315.309 183.501 315.343H183.531C183.751 315.436 183.97 315.528 184.156 315.592C184.185 315.592 184.22 315.621 184.22 315.621H184.249C184.532 315.714 184.781 315.806 185.03 315.899H185.094C185.783 316.148 186.379 316.304 186.784 316.43C187.19 316.523 187.444 316.616 187.722 316.65H187.786C188.005 316.679 188.225 316.742 188.504 316.806C188.846 316.869 189.285 316.933 189.598 316.962C189.818 316.991 190.101 317.025 190.316 317.025C190.692 317.025 190.912 317.054 191.161 317.025H191.288C191.444 317.025 191.63 317.025 191.821 316.996H191.948C192.133 316.967 192.353 316.933 192.543 316.933H192.573L196.329 316.401L200.086 315.87L207.599 314.807L211.355 314.275L218.869 313.212L222.625 312.681L226.382 312.149L230.138 311.618C230.387 311.589 230.641 311.555 230.827 311.491H230.856C231.198 311.428 231.418 311.364 231.482 311.335H231.511C231.667 311.272 231.858 311.208 232.014 311.179L232.2 311.116C232.263 311.086 232.292 311.086 232.356 311.052L232.512 310.989C232.639 310.96 232.761 310.862 232.888 310.804C232.918 310.804 232.918 310.774 232.952 310.774C232.986 310.774 233.015 310.745 233.045 310.745C233.108 310.716 233.172 310.682 233.23 310.653C233.26 310.653 233.26 310.623 233.294 310.623L233.323 310.594C233.885 310.282 234.417 309.907 234.886 309.502C235.013 309.409 235.072 309.346 235.199 309.219C235.292 309.126 235.448 308.97 235.541 308.878L235.668 308.722C235.697 308.692 235.731 308.658 235.761 308.629L235.824 308.566L235.854 308.536C235.883 308.473 235.946 308.41 235.981 308.351C236.044 308.259 236.073 308.195 236.137 308.132C236.166 308.068 236.2 308.01 236.23 307.976C236.259 307.946 236.293 307.883 236.323 307.849C236.352 307.82 236.352 307.786 236.386 307.756V307.693C236.479 307.537 236.572 307.381 236.635 307.254C236.699 307.127 236.762 306.971 236.821 306.849C236.821 306.83 236.831 306.809 236.85 306.786V306.757L236.914 306.601C236.943 306.571 236.943 306.508 236.943 306.474C236.972 306.411 236.972 306.381 237.006 306.318C237.006 306.289 237.036 306.255 237.036 306.255C237.099 306.069 237.163 305.85 237.221 305.66C237.251 305.596 237.251 305.504 237.285 305.44C237.314 305.314 237.348 305.221 237.378 305.065C237.505 305.128 237.47 305.157 237.407 305.221L237.422 305.245Z" fill="#161616"/>
<path d="M230.656 280.408C230.842 280.5 230.998 280.627 231.188 280.72C231.032 280.627 230.846 280.5 230.656 280.408Z" fill="#2E3641"/>
<path d="M231.35 280.813C231.32 280.783 231.286 280.783 231.223 280.749C231.286 280.778 231.35 280.842 231.413 280.876C231.384 280.847 231.384 280.813 231.35 280.813Z" fill="#2E3641"/>
<path d="M230.47 280.281C230.407 280.252 230.377 280.218 230.314 280.188C230.441 280.252 230.563 280.315 230.661 280.408C230.597 280.344 230.534 280.315 230.47 280.281Z" fill="#2E3641"/>
<path d="M231.442 280.876C231.472 280.905 231.535 280.939 231.599 280.969C231.569 280.939 231.506 280.905 231.442 280.876Z" fill="#2E3641"/>
<path d="M240.739 290.53V290.501C240.739 290.53 240.773 290.564 240.773 290.593C240.739 290.593 240.739 290.564 240.739 290.53Z" fill="#2E3641"/>
<path d="M240.489 289.872L240.738 290.525C240.646 290.306 240.582 290.086 240.489 289.872Z" fill="#2E3641"/>
<path d="M241.237 293.592V298.058C241.237 298.244 241.207 298.341 241.173 298.56V298.59C241.144 298.775 241.144 298.868 241.08 299.121V299.15C240.988 299.619 240.861 300.15 240.675 300.681C240.675 300.711 240.646 300.711 240.646 300.711C240.582 300.867 240.519 301.086 240.426 301.213C240.396 301.276 240.362 301.335 240.333 301.432C240.333 301.432 240.333 301.462 240.304 301.462C240.274 301.554 240.211 301.647 240.177 301.71V301.74C240.084 301.959 240.02 302.052 239.928 302.208C239.898 302.237 239.864 302.3 239.864 302.329C239.771 302.486 239.708 302.612 239.581 302.768C239.551 302.832 239.517 302.861 239.488 302.924C239.302 303.207 239.048 303.519 238.799 303.831C238.736 303.924 238.672 303.987 238.672 303.987C238.423 304.27 238.232 304.455 237.89 304.767C237.734 304.894 237.671 304.953 237.578 305.05C237.549 305.079 237.485 305.114 237.422 305.177L237.392 305.206C237.299 305.299 237.207 305.362 237.109 305.426C237.089 305.445 237.068 305.466 237.045 305.489C236.889 305.616 236.826 305.645 236.606 305.801C236.606 305.801 236.576 305.801 236.576 305.83L236.327 305.986C236.264 306.016 236.171 306.079 236.078 306.142C235.922 306.235 235.736 306.328 235.575 306.391C235.17 306.576 234.823 306.737 234.51 306.859H234.481C234.451 306.859 234.417 306.888 234.388 306.888H234.324L234.168 306.952H234.139C234.11 306.952 234.046 306.981 234.012 306.981H233.983C233.953 306.981 233.919 307.01 233.856 307.01H233.826C233.797 307.01 233.733 307.04 233.699 307.04C233.665 307.04 233.636 307.069 233.572 307.069H233.543C233.45 307.098 233.357 307.098 233.26 307.132H233.23C233.167 307.132 233.137 307.132 233.074 307.161H232.512L228.194 307.756L223.719 308.38L219.245 309.004L214.77 309.629L210.295 310.253L205.821 310.877L201.346 311.501L196.871 312.125L192.397 312.749L188.015 313.373C187.986 313.373 187.952 313.373 187.952 313.402H187.922C187.859 313.432 187.795 313.432 187.702 313.432H187.673C187.517 313.461 187.36 313.495 187.204 313.495C187.111 313.495 187.048 313.495 186.984 313.524H186.921C186.828 313.524 186.764 313.524 186.637 313.554H185.26C185.196 313.554 185.167 313.554 185.104 313.524C184.322 313.461 183.477 313.276 182.412 313.022C182.099 312.959 181.723 312.866 181.411 312.774C180.438 312.525 179.437 312.179 178.372 311.774C178.089 311.681 177.776 311.525 177.464 311.399C177.464 311.399 177.434 311.399 177.434 311.369H177.405C177.029 311.213 176.687 311.057 176.496 310.965C176.184 310.809 175.744 310.623 175.431 310.462C175.304 310.399 175.148 310.306 174.992 310.243L174.489 309.994L173.829 309.648L171.387 308.337C170.825 308.024 170.102 307.62 169.569 307.274C169.257 307.088 168.881 306.835 168.597 306.649C168.314 306.464 167.938 306.211 167.659 306.025C167.19 305.684 166.565 305.245 166.096 304.87C165.315 304.275 164.435 303.495 164.435 303.466C164.343 303.373 164.25 303.28 164.152 303.183C163.966 302.997 163.776 302.807 163.59 302.622C163.463 302.495 163.341 302.373 163.248 302.281C163.028 302.061 162.745 301.72 162.53 301.466C161.812 300.623 161.402 299.935 161.372 299.906C161.153 299.565 160.903 299.092 160.713 298.751C160.586 298.502 160.464 298.156 160.337 297.907C160.308 297.814 160.244 297.624 160.151 297.376C159.995 296.873 159.902 296.405 159.804 296.001C159.775 295.845 159.741 295.689 159.741 295.562V295.498C159.712 295.094 159.677 294.748 159.677 294.436V291.749C159.897 293.997 162.559 296.932 166.687 299.185L167 299.37L169.13 300.525C169.257 300.589 169.413 300.681 169.535 300.745C169.565 300.745 169.599 300.774 169.628 300.774C169.657 300.803 169.692 300.803 169.721 300.837C169.75 300.837 169.75 300.867 169.784 300.867C169.819 300.867 169.814 300.896 169.848 300.896H169.941C169.97 300.896 170.004 300.925 170.004 300.925C170.033 300.955 170.097 300.955 170.131 300.989C170.131 300.989 170.16 300.989 170.16 301.018H170.41C170.439 301.018 170.473 301.047 170.473 301.047C170.502 301.047 170.502 301.076 170.537 301.076C170.537 301.076 170.566 301.076 170.566 301.106H170.942C170.971 301.106 170.971 301.135 171.006 301.135C171.04 301.135 171.035 301.135 171.069 301.164C171.069 301.164 171.098 301.164 171.098 301.193H171.538C171.538 301.193 171.567 301.193 171.567 301.223C171.567 301.223 171.597 301.223 171.597 301.252H171.973C171.973 301.252 172.002 301.252 172.036 301.281H172.569C172.569 301.281 172.598 301.281 172.632 301.31H178.738C182.9 300.716 187.067 300.155 191.195 299.56L197.331 298.717C201.962 298.058 206.627 297.405 211.263 296.781L212.577 296.596L213.861 296.41C215.459 296.191 217.085 295.971 218.683 295.723C219.372 295.63 220.217 295.503 220.998 295.411L221.751 295.318C222.659 295.191 223.69 295.035 224.755 294.913H224.818L226.538 294.665C226.723 294.635 226.88 294.601 227.041 294.601L227.261 294.572C227.481 294.543 227.7 294.509 227.886 294.479C228.98 294.323 230.294 294.138 231.579 293.948L231.921 293.885L233.704 293.636C233.831 293.607 233.953 293.607 234.08 293.573L234.456 293.509C235.174 293.416 235.927 293.29 236.708 293.197L236.894 293.168C237.207 293.139 237.519 293.075 237.866 293.041L238.369 292.978H238.433L239.903 292.758C240.03 292.729 240.186 292.729 240.309 292.695C240.338 292.695 240.372 292.695 240.372 292.666C240.401 292.666 240.401 292.636 240.401 292.636V291.885C240.401 291.383 240.401 290.793 240.274 290.072L240.182 289.667C240.118 289.355 240.025 289.043 239.932 288.731C240.025 289.043 240.118 289.326 240.182 289.604V289.54C240.211 289.633 240.211 289.696 240.245 289.76C240.245 289.823 240.274 289.916 240.274 289.979C240.274 290.008 240.274 290.042 240.304 290.106V290.198C240.304 290.262 240.333 290.291 240.333 290.354C240.333 290.384 240.333 290.447 240.362 290.476V290.54C240.362 290.603 240.362 290.662 240.392 290.725C240.392 290.818 240.421 290.91 240.421 291.008C240.421 291.13 240.45 291.257 240.45 291.349C241.232 293.256 241.232 293.377 241.232 293.538L241.237 293.592Z" fill="#2E3641"/>
<path d="M213.099 274.44C213.129 274.44 213.192 274.44 213.226 274.411C213.163 274.411 213.099 274.44 213.036 274.44C213.055 274.459 213.077 274.459 213.099 274.44Z" fill="#2B2D32"/>
<path d="M218.419 173.803L223.583 176.616C222.332 175.929 220.862 175.646 219.294 175.865L214.13 173.052C215.693 172.833 217.169 173.115 218.419 173.803Z" fill="#4487D4"/>
<path d="M166.394 183.301L161.231 180.488L214.101 173.052L219.298 175.865L166.399 183.301H166.394Z" fill="#4487D4"/>
<path d="M162.042 204.516L156.878 201.702C154.626 200.483 153.122 197.953 153.122 194.891L158.285 197.704C158.285 200.766 159.79 203.297 162.042 204.516Z" fill="#525661"/>
<path d="M158.285 197.67L153.122 194.891V190.327L158.319 193.106L158.29 197.67H158.285Z" fill="#525661"/>
<path d="M158.319 193.111L153.156 190.298C153.156 185.519 156.82 181.082 161.231 180.458L166.394 183.272C161.949 183.93 158.319 188.333 158.319 193.111Z" fill="#4487D4"/>
<path d="M219.293 175.865C223.739 175.241 227.368 178.645 227.339 183.428V187.991C227.339 192.77 223.675 197.207 219.264 197.836L166.365 205.271C161.92 205.896 158.29 202.492 158.319 197.709V193.145C158.319 188.367 161.983 183.93 166.394 183.306L219.293 175.87V175.865Z" fill="#4487D4"/>
<path d="M158.285 198.328L153.122 195.515V189.42L158.319 192.233L158.29 198.328H158.285Z" fill="#2B588D"/>
<path d="M227.339 182.55V188.645L158.285 198.328L158.314 192.233L227.334 182.55H227.339Z" fill="#2B588D"/>
<path d="M162.076 204.794L156.913 201.98C154.661 200.761 153.156 198.231 153.156 195.169L158.319 197.982C158.29 201.044 159.824 203.545 162.076 204.794Z" fill="#2B588D"/>
<path d="M227.339 188.269C227.339 193.048 223.675 197.485 219.264 198.114L166.365 205.52C161.92 206.144 158.29 202.741 158.319 197.958L227.339 188.274V188.269Z" fill="#2B588D"/>
<path d="M158.29 271.066L155.784 269.72L161.104 268.969L163.61 270.315L158.29 271.066Z" fill="#343434"/>
<path d="M158.256 274.064L155.75 272.689L155.779 269.72L158.285 271.066L158.256 274.064Z" fill="#777777"/>
<path d="M163.61 270.315L163.58 273.314L158.261 274.064L158.29 271.066L163.61 270.315Z" fill="#292929"/>
<path d="M165.422 291.466V309.746L168.27 311.277C168.71 311.525 169.179 311.618 169.711 311.559C171.372 311.34 172.75 309.341 172.75 307.186L172.779 290.94C172.652 290.969 172.53 291.003 172.403 291.003L167.269 291.72" fill="#777777"/>
<path d="M173.971 286.59L168.837 287.307C167.928 287.434 167.147 287.804 167.02 288.151C167.02 288.18 166.99 288.214 166.99 288.243L148.618 273.528V277.872C148.618 277.999 148.711 278.092 148.838 278.184L167.054 292.807L167.181 292.87L167.151 292.841C167.371 292.997 167.777 293.061 168.28 293.061C168.436 293.061 168.622 293.031 168.812 293.031L173.946 292.315C174.073 292.285 174.196 292.285 174.323 292.251C175.138 292.066 175.764 291.69 175.764 291.378V287.034C175.793 286.659 174.982 286.439 173.981 286.595L173.971 286.59Z" fill="#292929"/>
<path d="M174.938 283.158H174.967L156.595 268.443C156.312 268.287 155.97 268.223 155.623 268.287L150.489 269.003C149.487 269.159 148.642 270.159 148.642 271.251V271.436C148.642 271.436 148.613 273.528 148.613 273.562L166.956 288.277C166.956 288.248 166.956 288.214 166.985 288.185C167.112 287.843 167.894 287.468 168.803 287.341L173.937 286.62C174.938 286.464 175.783 286.683 175.783 287.058L175.812 284.747C175.812 283.996 175.471 283.436 174.938 283.153V283.158Z" fill="#343434"/>
<path d="M227.808 270.159L224.989 268.628L225.019 265.283L227.803 266.814V270.159H227.808Z" fill="#777777"/>
<path d="M208.463 331.584C206.334 332.145 204.145 332.116 201.859 331.584L200.574 309.029H209.245L208.463 331.584Z" fill="#777777"/>
<path d="M203.329 379.699C203.11 379.948 202.797 381.196 202.357 381.947C201.639 383.229 201.668 384.541 201.668 384.541C201.668 384.541 199.475 388.042 205.425 388.885C208.366 389.29 209.182 387.042 209.025 384.638C208.336 382.234 207.775 379.514 207.775 379.514C206.426 378.826 203.329 379.699 203.329 379.699Z" fill="#BBBCBE"/>
<path d="M201.766 384.419C201.141 384.39 199.573 389.012 200.794 392.167C200.794 392.167 199.822 406.599 214.223 403.6C215.664 403.132 218.825 401.255 218.575 399.412C218.136 396.35 209.563 384.414 209.059 384.604C208.591 384.824 207.965 389.821 201.766 384.419Z" fill="#011625"/>
<path d="M207.682 181.77L204.394 198.484C204.394 198.484 205.865 205.983 212.596 203.141C217.979 200.893 217.481 196.485 217.481 196.485L216.572 187.548L207.682 181.77Z" fill="#EFAC86"/>
<path d="M210.999 203.141C204.77 203.482 205.332 193.706 205.332 193.706L191.718 197.831L191.029 221.703L198.073 276.663C198.073 276.663 210.906 278.945 228.594 264.352C233.196 260.539 222.239 198.582 224.276 195.866L215.791 191.556C215.791 191.556 218.419 202.741 211.004 203.146L210.999 203.141Z" fill="#F7F7F9"/>
<path d="M224.647 245.258L212.596 244.79L212.376 205.827L214.599 205.232L224.647 245.258Z" fill="#193F71"/>
<path d="M236.264 275.098C233.631 278.813 229.093 280.218 224.618 281.003L221.047 269.939L217.041 283.377C204.707 290.813 187.429 279.72 187.429 279.72L192.753 244.258L189.871 209.513L191.249 196.895L205.176 193.706C205.176 193.706 204.272 195.798 204.99 198.952L219.078 244.322L219.391 201.922C219.391 199.143 215.537 192.736 215.537 192.736L228.8 192.326L230.084 192.287H230.094C230.329 192.307 230.558 192.336 230.783 192.38C234.691 206.973 236.264 226.935 236.699 244.254C237.016 257.058 236.713 268.413 236.264 275.098Z" fill="#32333E"/>
<path d="M230.783 192.38C230.558 192.336 230.329 192.307 230.094 192.287L230.754 192.268C230.763 192.307 230.773 192.341 230.783 192.38Z" fill="#3C3D4A"/>
<path d="M219.235 244.317L223.866 211.103L221.238 205.886L222.957 199.698L215.693 191.951L217.54 198.26L219.23 244.312L219.235 244.317Z" fill="#212228"/>
<path d="M219.201 244.317C219.201 244.317 207.213 220.167 205.147 219.167L206.681 207.48L199.729 200.045L202.514 194.359L205.332 193.701L205.176 198.918L219.201 244.317Z" fill="#212228"/>
<path d="M214.599 205.232L212.376 205.827L210.75 202.014L214.286 201.298L214.599 205.232Z" fill="#193F71"/>
<path d="M211.502 203.984C211.502 203.828 210.72 200.361 210.72 200.361L208.718 199.893C208.718 199.893 207.78 202.112 208.092 202.424C208.405 202.736 211.502 203.984 211.502 203.984Z" fill="#A0AFC8"/>
<path d="M205.332 193.706L210.75 200.327L208.747 207.919L205.181 198.923L205.337 193.706H205.332Z" fill="#DDE6F1"/>
<path d="M217.701 201.922L214.477 203.389L214.291 201.298L214.76 197.329L217.701 201.922Z" fill="#A0AFC8"/>
<path d="M218.326 198.611L218.922 205.232L214.76 197.329L215.854 193.204L216.167 193.36L218.326 198.611Z" fill="#DDE6F1"/>
<path d="M222.552 258.252C223.192 258.252 223.71 257.721 223.71 257.067C223.71 256.414 223.192 255.882 222.552 255.882C221.912 255.882 221.394 256.414 221.394 257.067C221.394 257.721 221.912 258.252 222.552 258.252Z" fill="#7F5E7B"/>
<path d="M221.487 250.816C222.127 250.816 222.645 250.285 222.645 249.627C222.645 248.969 222.127 248.442 221.487 248.442C220.847 248.442 220.329 248.973 220.329 249.627C220.329 250.28 220.847 250.816 221.487 250.816Z" fill="#7F5E7B"/>
<path d="M225.839 178.084C226.499 185.612 222.708 193.677 218.859 194.579C212.005 193.799 207.027 188.801 205.337 180.205C204.932 178.172 200.863 173.018 203.144 169.707C204.429 157.898 206.275 161.272 216.636 157.396C226.997 153.519 227.124 166.27 225.839 178.079V178.084Z" fill="#FFBC92"/>
<path d="M226.245 171.458C227.495 171.302 229.532 164.865 227.779 163.115C229.816 155.275 208.717 147.43 203.427 154.49C201.644 156.864 201.893 161.584 201.893 161.584C200.11 161.082 198.606 160.833 196.823 164.865C195.821 174.739 202.396 179.298 204.301 180.892C205.083 183.33 206.71 183.954 206.524 181.892C206.524 181.892 200.638 171.019 205.21 170.175C207.995 169.673 207.496 174.988 207.496 174.988C207.496 174.988 209.626 170.458 209.782 169.678C210.095 171.926 224.901 167.864 225.776 165.368L226.245 171.521C226.181 171.55 226.215 171.521 226.245 171.458Z" fill="#090D0E"/>
<path d="M218.512 175.612C218.639 176.894 217.041 179.361 214.785 179.581C212.562 179.8 210.53 177.674 210.403 176.392C210.276 175.11 212.376 174.485 214.599 174.266C216.851 174.047 218.385 174.329 218.512 175.612Z" fill="#FFBC92"/>
<path d="M214.648 346.968L195.684 281.91L238.008 276.254C238.008 276.254 270.869 270.169 265.232 303.134C263.854 311.228 258.5 333.564 252.462 348.499C252.462 348.499 244.764 352.843 240.66 348.372C240.66 348.372 248.672 313.661 249.268 301.852C250.176 283.514 216.753 305.094 217.002 302.281L214.247 301.72C214.247 301.72 227.105 337.66 222.068 348.347C222.132 348.347 217.813 349.098 214.648 346.973V346.968Z" fill="#090D0E"/>
<path d="M325.297 316.304L317.046 319.575V247.291L325.097 253.113L325.297 316.304Z" fill="#B2C5D8"/>
<path d="M392.275 352.672L382.793 348.499L382.656 263.157L317.066 244.707L317.046 319.575L307.574 315.406L307.599 240.446L392.084 264.21L392.275 352.672Z" fill="#8BA6BC"/>
<path d="M156.849 404.01L147.919 406.721L147.807 316.908L156.849 321.906V404.01Z" fill="#B2C5D8"/>
<path d="M220.705 447L208.874 440.452L208.742 358.909L147.807 325.197L147.919 406.721L136.186 400.226L136 299.526L220.485 346.266L220.705 447Z" fill="#8BA6BC"/>
<path d="M136 299.526L310.017 224.716L397.946 251.143L220.485 346.266L136 299.526Z" fill="#002E44"/>
<path d="M397.946 251.143L398 349.547L392.304 352.672L392.118 287.185C392.089 273.44 381.85 267.906 369.301 274.815L248.882 340.99C236.327 347.894 229.879 357.733 229.908 371.478L230.397 441.69L220.71 447L220.49 346.124L397.951 251.143H397.946Z" fill="#B2C5D8"/>
<path d="M351.798 262.567C357.626 262.567 362.345 260.666 362.345 258.32C362.345 255.975 357.621 254.073 351.798 254.073C345.975 254.073 341.251 255.975 341.251 258.32C341.251 260.666 345.975 262.567 351.798 262.567Z" fill="#DEE5F4"/>
<path d="M338.276 243.571L341.031 258.223H362.599L364.196 243.352" fill="#DEE5F4"/>
<path d="M351.236 247.004C358.393 247.004 364.196 245.365 364.196 243.347C364.196 241.328 358.393 239.69 351.236 239.69C344.08 239.69 338.276 241.328 338.276 243.347C338.276 245.365 344.08 247.004 351.236 247.004Z" fill="#9AB1BC"/>
<path d="M354.617 244.536C354.617 244.536 359.687 233.444 358.593 228.787C358.593 228.787 365.388 236.847 357.684 245.253C357.655 245.253 356.214 246.345 354.617 244.536Z" fill="#00793B"/>
<path d="M346.068 243.571C346.068 243.571 350.42 222.732 344.69 216.076C344.69 216.076 359.37 227.544 349.512 244.946C349.512 244.946 347.915 247.228 346.068 243.571Z" fill="#00793B"/>
<path d="M349.263 243.571C349.263 243.571 344.91 222.732 350.64 216.076C350.64 216.076 335.961 227.544 345.819 244.946C345.819 244.946 347.416 247.228 349.263 243.571Z" fill="#00793B"/>
<path d="M350.889 237.852C350.889 237.852 355.242 215.169 352.736 211.732C352.736 211.732 360.122 227.978 355.393 242.537C355.393 242.537 353.205 247.004 349.292 244.039C345.379 241.04 350.889 237.852 350.889 237.852Z" fill="#00793B"/>
<path d="M253.322 300.34V307.932L231.252 320.711L231.281 313.149L253.317 300.34H253.322Z" fill="#133B7B"/>
<path d="M231.286 313.149L231.257 320.711L213.788 310.653L213.817 303.09L231.286 313.149Z" fill="#0D2955"/>
<path d="M253.322 300.34L231.286 313.149L213.817 303.09L235.853 290.281L253.322 300.34Z" fill="#154189"/>
<path d="M214.663 305.216L231.252 314.68L231.281 319.556L214.692 309.965L214.663 305.216Z" fill="#184C9F"/>
<path d="M231.252 314.68L253.322 302.091V306.654L231.286 319.561L231.257 314.685L231.252 314.68Z" fill="#154189"/>
<path d="M250.411 293.651L250.381 301.213L228.345 314.022L228.375 306.459L250.411 293.651Z" fill="#94C4D3"/>
<path d="M228.375 306.464L228.345 314.027L210.877 303.968V296.405L228.375 306.464Z" fill="#89B7C9"/>
<path d="M250.411 293.651L228.375 306.459L210.877 296.401L232.947 283.592L250.416 293.651H250.411Z" fill="#BAD1DE"/>
<path d="M211.722 298.497L228.345 307.995L228.375 312.871L211.785 303.246L211.722 298.497Z" fill="#BAD1DE"/>
<path d="M228.34 307.995L250.411 295.406V299.965L228.375 312.871L228.345 307.995H228.34Z" fill="#C6DBE5"/>
<path d="M334.52 248.632L307.599 254.727L293.105 239.041L320.026 232.947L334.52 248.632Z" fill="#C0C5D1"/>
<path d="M327.598 247.447L326.973 247.574L322.591 242.825L323.216 242.669L327.598 247.447Z" fill="#E2E6ED"/>
<path d="M325.097 248.008L324.442 248.164L317.901 241.104L318.556 240.948L325.097 248.008Z" fill="#E2E6ED"/>
<path d="M326.347 247.725L325.688 247.881L319.992 241.694L320.617 241.538L326.347 247.725Z" fill="#E2E6ED"/>
<path d="M321.682 239.324L316.206 240.543L312.855 236.92L318.302 235.672L321.682 239.329V239.324Z" fill="#E2E6ED"/>
<path d="M322.527 248.569L321.868 248.725L316.172 242.537L316.831 242.381L322.527 248.569Z" fill="#E2E6ED"/>
<path d="M323.812 248.291L323.153 248.447L318.771 243.698L319.396 243.542L323.812 248.291Z" fill="#E2E6ED"/>
<path d="M328.883 247.135L328.223 247.291L321.712 240.231L322.366 240.075L328.878 247.135H328.883Z" fill="#E2E6ED"/>
<path d="M315.141 250.29L314.516 250.446L310.1 245.668L310.759 245.541L315.141 250.29Z" fill="#E2E6ED"/>
<path d="M312.606 250.851L311.946 251.007L305.435 243.946L306.089 243.79L312.601 250.851H312.606Z" fill="#E2E6ED"/>
<path d="M313.891 250.573L313.231 250.729L307.535 244.541L308.161 244.385L313.891 250.573Z" fill="#E2E6ED"/>
<path d="M310.071 251.445L309.411 251.601L303.715 245.414L304.37 245.258L310.066 251.445H310.071Z" fill="#E2E6ED"/>
<path d="M311.321 251.163L310.696 251.289L306.28 246.54L306.94 246.384L311.321 251.163Z" fill="#E2E6ED"/>
<path d="M316.426 250.007L315.767 250.163L309.255 243.069L309.909 242.942L316.421 250.002L316.426 250.007Z" fill="#E2E6ED"/>
<path d="M319.679 241.977L292.758 248.071L278.265 232.386L305.186 226.291L319.679 241.977Z" fill="#E2E6ED"/>
<path d="M313.451 240.665L312.796 240.821L308.415 236.043L309.074 235.887L313.456 240.665H313.451Z" fill="#A5AAB4"/>
<path d="M310.916 241.231L310.261 241.387L303.75 234.326L304.409 234.17L310.921 241.231H310.916Z" fill="#A5AAB4"/>
<path d="M312.166 240.948L311.541 241.104L305.845 234.916L306.47 234.76L312.166 240.948Z" fill="#A5AAB4"/>
<path d="M308.38 241.821L307.721 241.947L302.025 235.76L302.65 235.633L308.38 241.821Z" fill="#A5AAB4"/>
<path d="M309.631 241.509L309.006 241.665L304.595 236.915L305.254 236.759L309.636 241.509H309.631Z" fill="#A5AAB4"/>
<path d="M314.736 240.387L314.076 240.514L307.565 233.454L308.224 233.298L314.736 240.392V240.387Z" fill="#A5AAB4"/>
<path d="M273.736 251.138C255.936 242.245 241.588 233.946 240.553 232.088C239.517 230.226 237.783 210.986 234.901 196.28C234.026 194.428 232.595 193.218 230.783 192.867C234.691 207.461 236.264 227.422 236.699 244.741C244.104 249.817 255.994 255.819 266.057 260.578C268.334 262.709 276.75 252.635 273.736 251.138ZM242.355 236.979C242.38 236.964 242.394 236.993 242.394 236.993C242.365 237.003 242.355 236.979 242.355 236.979ZM228.8 192.814L230.084 192.775C229.669 192.745 229.244 192.76 228.8 192.814Z" fill="#212228"/>
<path d="M208.566 271.046V272.548L231.916 286.454V284.923L208.566 271.051V271.046Z" fill="#B4B9BC"/>
<path d="M231.916 284.918V286.449L271.543 264.171L271.572 262.64L231.911 284.918H231.916Z" fill="#7D8183"/>
<path d="M251.354 253.518L252.951 254.425L254.392 253.552L252.795 252.679L251.354 253.523V253.518Z" fill="#72B5D3"/>
<path d="M253.576 254.771L255.174 255.644L256.615 254.8L255.017 253.893L253.576 254.766V254.771Z" fill="#72B5D3"/>
<path d="M251.92 255.736L253.547 256.643L254.954 255.77L253.356 254.898L251.915 255.741L251.92 255.736Z" fill="#72B5D3"/>
<path d="M255.799 256.019L257.362 256.892L258.803 256.048L257.206 255.141L255.799 256.014V256.019Z" fill="#72B5D3"/>
<path d="M250.289 256.736L251.886 257.608L253.327 256.765L251.73 255.858L250.289 256.731V256.736Z" fill="#72B5D3"/>
<path d="M254.143 256.989L255.74 257.862L257.181 257.019L255.584 256.112L254.143 256.984V256.989Z" fill="#72B5D3"/>
<path d="M257.992 257.238L259.59 258.145L261.031 257.272L259.433 256.399L257.992 257.243V257.238Z" fill="#72B5D3"/>
<path d="M252.516 257.955L254.113 258.862L255.52 257.989L253.957 257.116L252.516 257.96V257.955Z" fill="#72B5D3"/>
<path d="M250.855 258.954L252.453 259.827L253.894 258.983L252.296 258.077L250.855 258.949V258.954Z" fill="#72B5D3"/>
<path d="M253.078 260.173L254.675 261.08L256.082 260.207L254.519 259.335L253.078 260.178V260.173Z" fill="#72B5D3"/>
<path d="M251.417 261.173L253.014 262.045L254.455 261.202L252.858 260.295L251.417 261.168V261.173Z" fill="#72B5D3"/>
<path d="M227.066 265.863L228.16 266.487L229.601 265.615L228.507 265.02L227.066 265.863Z" fill="#72B5D3"/>
<path d="M224.872 267.175L225.966 267.799L227.407 266.926L226.279 266.331L224.872 267.175Z" fill="#72B5D3"/>
<path d="M226.719 268.238L228.316 269.111L229.757 268.267L228.16 267.36L226.719 268.233V268.238Z" fill="#72B5D3"/>
<path d="M221.023 269.452L222.151 270.076L223.592 269.232L222.464 268.608L221.023 269.452Z" fill="#72B5D3"/>
<path d="M225.092 269.203L226.689 270.076L228.13 269.232L226.533 268.36L225.092 269.203Z" fill="#72B5D3"/>
<path d="M223.436 270.173L225.033 271.08L226.474 270.208L224.877 269.335L223.436 270.178V270.173Z" fill="#72B5D3"/>
<path d="M218.834 270.768L219.929 271.392L221.37 270.52L220.275 269.925L218.834 270.768Z" fill="#72B5D3"/>
<path d="M227.315 270.451L228.878 271.324L230.319 270.451L228.722 269.579L227.315 270.451Z" fill="#72B5D3"/>
<path d="M221.804 271.139L223.402 272.046L224.809 271.202L223.246 270.295L221.804 271.139Z" fill="#72B5D3"/>
<path d="M225.654 271.422L227.251 272.294L228.692 271.451L227.095 270.544L225.654 271.417V271.422Z" fill="#72B5D3"/>
<path d="M220.148 272.143L221.746 273.016L223.187 272.173L221.624 271.3L220.153 272.143H220.148Z" fill="#72B5D3"/>
<path d="M224.027 272.392L225.624 273.299L227.031 272.426L225.434 271.553L224.027 272.397V272.392Z" fill="#72B5D3"/>
<path d="M227.876 272.67L229.474 273.543L230.881 272.699L229.318 271.792L227.876 272.665V272.67Z" fill="#72B5D3"/>
<path d="M231.731 272.923L233.294 273.796L234.764 272.953L233.167 272.046L231.726 272.919L231.731 272.923Z" fill="#72B5D3"/>
<path d="M222.371 273.392L223.968 274.264L225.41 273.421L223.812 272.514L222.371 273.387V273.392Z" fill="#72B5D3"/>
<path d="M226.22 273.64L227.818 274.513L229.259 273.669L227.662 272.797L226.22 273.64Z" fill="#72B5D3"/>
<path d="M230.07 273.889L231.667 274.796L233.108 273.923L231.511 273.05L230.07 273.894V273.889Z" fill="#72B5D3"/>
<path d="M224.594 274.61L226.191 275.517L227.632 274.645L226.035 273.772L224.594 274.615V274.61Z" fill="#72B5D3"/>
<path d="M228.443 274.859L230.04 275.766L231.482 274.923L229.884 274.016L228.443 274.859Z" fill="#72B5D3"/>
<path d="M226.782 275.859L228.38 276.731L229.821 275.888L228.223 274.981L226.782 275.854V275.859Z" fill="#72B5D3"/>
<path d="M254.705 259.208L256.302 260.115L257.743 259.242L256.146 258.369L254.705 259.213V259.208Z" fill="#72B5D3"/>
<path d="M256.365 258.237L257.929 259.11L259.37 258.267L257.807 257.36L256.365 258.233V258.237Z" fill="#72B5D3"/>
<path d="M208.566 271.046L231.916 284.918L271.577 262.64L248.227 248.769L208.566 271.046Z" fill="#DEF6FF"/>
<path d="M263.156 257.048L228.316 277.824L216.485 271.202L251.324 250.426L263.156 257.048ZM236.611 271.856L252.824 262.172L251.226 261.265L235.013 270.919L236.611 271.856ZM246.815 258.793L245.374 259.666L246.972 260.573L248.413 259.729L246.815 258.793ZM251.886 257.608L253.327 256.765L251.73 255.858L250.289 256.731L251.886 257.604V257.608ZM232.165 269.354L233.606 268.482L232.009 267.575L230.568 268.418L232.165 269.354ZM236.953 264.669L235.512 265.512L237.109 266.419L238.55 265.546L236.953 264.674V264.669ZM227.251 272.294L228.692 271.451L227.095 270.544L225.654 271.417L227.251 272.29V272.294ZM243.464 262.64L241.867 261.733L240.426 262.606L242.023 263.513L243.464 262.64ZM243.528 260.768L242.087 261.641L243.684 262.514L245.125 261.67L243.528 260.763V260.768ZM223.964 274.264L225.405 273.392L223.807 272.485L222.366 273.357L223.964 274.264ZM253.547 256.643L254.988 255.8L253.39 254.893L251.949 255.765L253.547 256.638V256.643ZM238.584 263.703L237.143 264.547L238.741 265.454L240.182 264.581L238.584 263.708V263.703ZM248.603 259.578L250.044 258.735L248.447 257.828L247.006 258.671L248.603 259.578ZM233.67 266.638L232.229 267.482L233.826 268.389L235.267 267.545L233.67 266.638ZM228.883 271.324L230.324 270.451L228.726 269.579L227.285 270.422L228.883 271.329V271.324ZM231.667 274.791L233.108 273.947L231.511 273.04L230.07 273.913L231.667 274.786V274.791ZM254.109 258.857L255.55 258.013L253.952 257.106L252.511 257.979L254.109 258.852V258.857ZM239.146 265.917L237.705 266.79L239.302 267.662L240.743 266.819L239.146 265.912V265.917ZM244.593 257.574L243.152 258.447L244.749 259.32L246.19 258.447L244.593 257.574ZM249.663 256.355L251.104 255.512L249.507 254.639L248.066 255.483L249.663 256.355ZM242.653 263.82L244.251 264.727L245.692 263.854L244.094 262.947L242.653 263.82ZM241.246 261.382L239.649 260.51L238.208 261.382L239.805 262.289L241.246 261.382ZM249.009 260.037L247.568 260.88L249.165 261.787L250.606 260.914L249.009 260.042V260.037ZM256.302 260.1L257.743 259.227L256.146 258.354L254.705 259.198L256.302 260.105V260.1ZM234.735 263.445L233.294 264.318L234.891 265.19L236.332 264.318L234.735 263.445ZM229.474 273.538L230.915 272.694L229.317 271.787L227.876 272.66L229.474 273.533V273.538ZM234.388 270.603L235.829 269.73L234.232 268.857L232.791 269.73L234.388 270.603ZM229.972 268.135L231.413 267.292L229.816 266.385L228.375 267.228L229.972 268.135ZM225.028 271.071L226.469 270.227L224.872 269.354L223.431 270.227L225.028 271.071ZM241.305 259.51L239.864 260.383L241.461 261.29L242.902 260.446L241.305 259.51ZM231.1 272.572L232.541 271.7L230.944 270.827L229.503 271.67L231.1 272.577V272.572ZM226.684 270.071L228.125 269.228L226.528 268.321L225.087 269.193L226.684 270.066V270.071ZM240.802 264.947L239.361 265.79L240.958 266.697L242.399 265.824L240.802 264.951V264.947ZM246.376 258.325L247.817 257.482L246.219 256.609L244.778 257.452L246.376 258.325ZM236.362 262.45L234.92 263.323L236.518 264.196L237.959 263.323L236.362 262.45ZM250.792 260.827L252.233 259.983L250.635 259.076L249.194 259.949L250.792 260.822V260.827ZM245.721 262.016L244.28 262.889L245.877 263.762L247.318 262.889L245.721 262.016ZM253.014 262.045L254.455 261.173L252.858 260.266L251.417 261.139L253.014 262.045ZM235.863 267.887L234.422 268.73L236.02 269.637L237.461 268.794L235.863 267.887ZM231.447 265.385L230.006 266.229L231.604 267.136L233.045 266.263L231.447 265.39V265.385ZM228.38 276.727L229.821 275.854L228.223 274.981L226.782 275.825L228.38 276.731V276.727ZM257.929 259.105L259.37 258.262L257.772 257.389L256.331 258.233L257.929 259.105ZM255.735 257.857L257.176 257.014L255.579 256.107L254.138 256.979L255.735 257.852V257.857ZM226.186 275.508L227.627 274.635L226.03 273.728L224.589 274.601L226.186 275.508ZM251.29 255.385L252.731 254.542L251.134 253.635L249.693 254.478L251.29 255.385ZM233.294 273.786L234.735 272.914L233.137 272.041L231.731 272.914L233.294 273.786ZM221.741 273.006L223.182 272.163L221.585 271.29L220.143 272.134L221.741 273.006ZM255.174 255.634L256.615 254.79L255.017 253.883L253.576 254.727L255.174 255.634ZM235.297 265.663L233.856 266.507L235.453 267.414L236.894 266.57L235.297 265.663ZM230.539 270.349L231.98 269.505L230.382 268.599L228.941 269.471L230.539 270.344V270.349ZM250.23 258.569L251.671 257.725L250.074 256.819L248.633 257.662L250.23 258.569ZM245.159 259.788L243.718 260.631L245.316 261.538L246.757 260.666L245.159 259.793V259.788ZM225.624 273.284L227.065 272.441L225.468 271.534L224.027 272.377L225.624 273.284ZM241.808 263.601L240.211 262.694L238.804 263.537L240.401 264.41L241.808 263.596V263.601ZM223.402 272.036L224.809 271.193L223.211 270.32L221.77 271.163L223.397 272.036H223.402ZM257.362 256.882L258.803 256.038L257.206 255.166L255.765 256.009L257.362 256.882ZM227.813 274.503L229.254 273.66L227.657 272.753L226.215 273.596L227.813 274.503ZM247.377 261.007L245.936 261.88L247.533 262.787L248.974 261.943L247.377 261.007ZM248.037 257.35L249.478 256.507L247.88 255.634L246.439 256.477L248.037 257.35ZM242.937 258.535L241.496 259.378L243.093 260.285L244.534 259.442L242.937 258.535ZM234.955 272.811L236.396 271.968L234.798 271.061L233.357 271.904L234.955 272.811ZM259.59 258.125L261.031 257.282L259.433 256.375L257.992 257.218L259.59 258.125ZM232.732 271.558L234.173 270.685L232.576 269.779L231.135 270.651L232.732 271.558ZM252.453 259.812L253.894 258.969L252.296 258.062L250.855 258.905L252.453 259.812ZM228.316 269.091L229.757 268.248L228.16 267.375L226.719 268.218L228.316 269.091ZM230.036 275.747L231.477 274.903L229.879 273.996L228.438 274.84L230.036 275.747ZM233.074 264.405L231.633 265.249L233.23 266.122L234.671 265.278L233.074 264.405ZM254.67 261.061L256.111 260.217L254.514 259.344L253.073 260.188L254.67 261.061ZM239.615 262.343L238.018 261.47L236.576 262.314L238.174 263.186L239.615 262.343ZM240.992 264.81L242.59 265.717L244.031 264.844L242.434 263.971L240.992 264.815V264.81ZM252.951 254.405L254.392 253.532L252.795 252.625L251.353 253.498L252.951 254.405ZM237.519 266.873L236.078 267.716L237.676 268.623L239.117 267.779L237.519 266.873ZM238.897 258.779L237.456 259.651L238.55 260.276L239.991 259.403L238.897 258.779ZM228.507 264.995L227.065 265.839L228.16 266.463L229.601 265.59L228.507 264.995ZM248.73 252.903L247.289 253.747L248.383 254.371L249.824 253.498L248.73 252.903ZM242.722 256.497L241.281 257.37L242.409 257.994L243.85 257.15L242.722 256.492V256.497ZM244.915 255.185L243.474 256.058L244.568 256.682L246.009 255.809L244.915 255.185ZM222.474 268.589L221.033 269.462L222.127 270.086L223.568 269.242L222.474 268.584V268.589ZM220.28 269.9L218.839 270.744L219.933 271.368L221.374 270.495L220.28 269.9ZM225.976 267.775L227.417 266.931L226.323 266.307L224.882 267.15L225.976 267.775ZM250.611 253.089L252.052 252.216L250.958 251.592L249.517 252.435L250.611 253.093V253.089ZM236.713 260.085L235.272 260.929L236.366 261.553L237.807 260.68L236.713 260.085Z" fill="#A9D6EA"/>
<path d="M239.869 260.393L241.466 261.265L242.907 260.422L241.31 259.515L239.869 260.388V260.393Z" fill="#72B5D3"/>
<path d="M244.783 257.423L246.381 258.33L247.822 257.487L246.224 256.58L244.783 257.423Z" fill="#72B5D3"/>
<path d="M249.229 259.924L250.792 260.831L252.233 259.959L250.67 259.086L249.229 259.929V259.924Z" fill="#72B5D3"/>
<path d="M249.507 252.489L250.601 253.113L252.042 252.24L250.914 251.616L249.507 252.489Z" fill="#72B5D3"/>
<path d="M247.319 253.771L248.413 254.429L249.854 253.557L248.725 252.933L247.319 253.776V253.771Z" fill="#72B5D3"/>
<path d="M249.727 254.517L251.29 255.39L252.731 254.546L251.168 253.64L249.727 254.512V254.517Z" fill="#72B5D3"/>
<path d="M248.071 255.487L249.668 256.36L251.109 255.517L249.512 254.644L248.071 255.487Z" fill="#72B5D3"/>
<path d="M243.469 256.082L244.598 256.706L246.005 255.834L244.91 255.21L243.469 256.082Z" fill="#72B5D3"/>
<path d="M246.439 256.458L248.037 257.365L249.478 256.492L247.88 255.619L246.439 256.463V256.458Z" fill="#72B5D3"/>
<path d="M241.276 257.394L242.404 257.989L243.811 257.145L242.717 256.521L241.276 257.394Z" fill="#72B5D3"/>
<path d="M248.633 257.706L250.23 258.579L251.671 257.735L250.074 256.828L248.633 257.701V257.706Z" fill="#72B5D3"/>
<path d="M243.157 258.423L244.754 259.33L246.161 258.457L244.598 257.584L243.157 258.428V258.423Z" fill="#72B5D3"/>
<path d="M247.006 258.676L248.603 259.583L250.044 258.71L248.447 257.838L247.006 258.681V258.676Z" fill="#72B5D3"/>
<path d="M237.456 259.676L238.55 260.3L239.991 259.427L238.897 258.803L237.456 259.676Z" fill="#72B5D3"/>
<path d="M241.525 259.393L243.088 260.3L244.529 259.427L242.932 258.554L241.525 259.398V259.393Z" fill="#72B5D3"/>
<path d="M245.374 259.676L246.972 260.549L248.379 259.705L246.815 258.798L245.374 259.671V259.676Z" fill="#72B5D3"/>
<path d="M235.267 260.953L236.362 261.577L237.803 260.734L236.708 260.11L235.267 260.953Z" fill="#72B5D3"/>
<path d="M243.718 260.641L245.316 261.548L246.757 260.675L245.159 259.803L243.718 260.646V260.641Z" fill="#72B5D3"/>
<path d="M247.568 260.895L249.165 261.802L250.606 260.929L249.009 260.056L247.568 260.9V260.895Z" fill="#72B5D3"/>
<path d="M238.208 261.363L239.806 262.27L241.247 261.397L239.649 260.524L238.208 261.368V261.363Z" fill="#72B5D3"/>
<path d="M245.941 261.894L247.538 262.767L248.979 261.924L247.382 261.017L245.941 261.889V261.894Z" fill="#72B5D3"/>
<path d="M236.581 262.328L238.179 263.235L239.62 262.362L238.022 261.49L236.581 262.333V262.328Z" fill="#72B5D3"/>
<path d="M240.431 262.611L242.028 263.484L243.469 262.64L241.872 261.733L240.431 262.606V262.611Z" fill="#72B5D3"/>
<path d="M244.28 262.86L245.878 263.767L247.319 262.894L245.721 262.021L244.28 262.865V262.86Z" fill="#72B5D3"/>
<path d="M234.955 263.328L236.518 264.201L237.959 263.357L236.362 262.45L234.955 263.323V263.328Z" fill="#72B5D3"/>
<path d="M238.804 263.581L240.401 264.454L241.808 263.611L240.211 262.738L238.804 263.581Z" fill="#72B5D3"/>
<path d="M242.653 263.83L244.251 264.737L245.692 263.864L244.095 262.991L242.653 263.835V263.83Z" fill="#72B5D3"/>
<path d="M233.294 264.298L234.891 265.205L236.332 264.332L234.735 263.459L233.294 264.303V264.298Z" fill="#72B5D3"/>
<path d="M237.143 264.547L238.741 265.454L240.182 264.581L238.584 263.708L237.143 264.552V264.547Z" fill="#72B5D3"/>
<path d="M240.993 264.83L242.59 265.702L244.031 264.859L242.434 263.952L240.993 264.825V264.83Z" fill="#72B5D3"/>
<path d="M231.667 265.268L233.264 266.175L234.671 265.303L233.074 264.43L231.667 265.273V265.268Z" fill="#72B5D3"/>
<path d="M235.516 265.546L237.114 266.419L238.555 265.576L236.958 264.669L235.516 265.541V265.546Z" fill="#72B5D3"/>
<path d="M239.366 265.8L240.963 266.707L242.404 265.834L240.807 264.961L239.366 265.805V265.8Z" fill="#72B5D3"/>
<path d="M230.006 266.268L231.604 267.141L233.045 266.297L231.447 265.39L230.006 266.263V266.268Z" fill="#72B5D3"/>
<path d="M233.856 266.517L235.453 267.424L236.894 266.551L235.297 265.678L233.856 266.521V266.517Z" fill="#72B5D3"/>
<path d="M237.739 266.799L239.302 267.672L240.743 266.829L239.146 265.922L237.739 266.795V266.799Z" fill="#72B5D3"/>
<path d="M228.38 267.233L229.977 268.14L231.384 267.267L229.821 266.395L228.38 267.238V267.233Z" fill="#72B5D3"/>
<path d="M232.229 267.516L233.826 268.389L235.267 267.545L233.67 266.639L232.229 267.511V267.516Z" fill="#72B5D3"/>
<path d="M236.078 267.765L237.676 268.638L239.117 267.794L237.519 266.887L236.078 267.76V267.765Z" fill="#72B5D3"/>
<path d="M230.573 268.486L232.17 269.359L233.611 268.516L232.014 267.609L230.573 268.482V268.486Z" fill="#72B5D3"/>
<path d="M234.452 268.735L236.015 269.642L237.456 268.769L235.858 267.896L234.452 268.74V268.735Z" fill="#72B5D3"/>
<path d="M228.941 269.452L230.539 270.359L231.98 269.486L230.382 268.613L228.941 269.457V269.452Z" fill="#72B5D3"/>
<path d="M231.164 270.705L232.727 271.578L234.168 270.734L232.605 269.827L231.164 270.7V270.705Z" fill="#72B5D3"/>
<path d="M235.013 270.954L236.611 271.861L252.824 262.177L251.226 261.304L235.013 270.958V270.954Z" fill="#72B5D3"/>
<path d="M229.508 271.67L231.105 272.577L232.546 271.704L230.949 270.832L229.508 271.675V271.67Z" fill="#72B5D3"/>
<path d="M233.357 271.953L234.955 272.826L236.396 271.982L234.798 271.076L233.357 271.948V271.953Z" fill="#72B5D3"/>
<path d="M242.057 261.612L243.655 262.518L245.096 261.646L243.533 260.773L242.062 261.616L242.057 261.612Z" fill="#72B5D3"/>
<path d="M232.791 269.735L234.388 270.607L235.829 269.735L234.232 268.862L232.791 269.735Z" fill="#72B5D3"/>
<path d="M205.005 270.056C205.005 270.056 204.565 275.449 206.944 279.321C207.613 281.583 210.198 282.368 211.341 283.221C213.295 284.684 218.668 286.147 219.645 284.196C219.645 282.246 215.18 280.291 214.76 278.833C214.228 276.995 214.272 275.42 214.272 275.42C214.272 275.42 214.995 274.684 215.845 275.322C216.265 275.639 217.286 276.356 217.691 276.883C218.912 278.443 220.153 276.429 220.153 276.429C220.153 276.429 219.303 275.742 218.668 274.932C218.126 274.24 217.862 273.474 217.076 272.816C214.56 270.715 211.321 269.12 210.667 269.271C209.572 269.52 205 270.052 205 270.052L205.005 270.056Z" fill="#EFAC86"/>
<path d="M200.481 273.801C190.277 261.212 177.722 244.556 177.508 238.339C177.288 232.123 188.337 202.346 188.337 202.346C188.337 202.346 190.531 195.881 194.38 196.222C198.264 196.563 200.359 199.001 200.33 202.375C196.544 216.871 189.749 234.96 189.876 237.086C190.003 239.212 199.329 252.894 211.507 268.613C213.573 271.271 201.615 276.707 200.486 273.801H200.481ZM189.368 242.274C189.368 242.274 189.368 242.303 189.398 242.303C189.398 242.303 189.398 242.274 189.368 242.274Z" fill="#32333E"/>
<g style="mix-blend-mode:lighten" opacity="0.2">
<path d="M231.916 284.918C231.916 284.918 179.906 273.079 164.357 249.627C148.808 226.174 156.629 165.231 181.054 153.529C205.479 141.827 219.645 151.091 228.927 159.38C238.208 167.669 276.311 233.98 276.311 233.98L231.916 284.923V284.918Z" fill="white"/>
</g>
<path d="M236.391 258.301L234.608 256.926L230.006 284.981L231.76 286.386L236.391 258.296V258.301Z" fill="#95C4DE"/>
<path d="M277.835 235.024L276.081 233.649L234.603 256.926L236.386 258.301L277.83 235.024H277.835Z" fill="#95C4DE"/>
<path d="M236.391 258.301L231.76 286.39L273.204 263.113L277.835 235.024L236.391 258.301Z" fill="#DEF6FF"/>
<path d="M236.391 258.301L273.204 263.113L277.835 235.024L236.391 258.301Z" fill="#F0FBFF"/>
<path d="M334.442 272.012L303.178 279.325L298.781 268.111L330.045 260.797L334.442 272.012Z" fill="#CEC767"/>
<path d="M295.362 274.45L298.782 268.111L303.178 279.325L295.362 274.45Z" fill="#5C6770"/>
<defs>
<filter id="filter0_d_103_1924" x="65.4993" y="63.5807" width="430.501" height="414.419" filterUnits="userSpaceOnUse" color-interpolation-filters="sRGB">
<feFlood flood-opacity="0" result="BackgroundImageFix"/>
<feColorMatrix in="SourceAlpha" type="matrix" values="0 0 0 0 0 0 0 0 0 0 0 0 0 0 0 0 0 0 127 0" result="hardAlpha"/>
<feOffset dx="-4" dy="4"/>
<feGaussianBlur stdDeviation="2"/>
<feComposite in2="hardAlpha" operator="out"/>
<feColorMatrix type="matrix" values="0 0 0 0 0 0 0 0 0 0 0 0 0 0 0 0 0 0 0.15 0"/>
<feBlend mode="normal" in2="BackgroundImageFix" result="effect1_dropShadow_103_1924"/>
<feBlend mode="normal" in="SourceGraphic" in2="effect1_dropShadow_103_1924" result="shape"/>
</filter>
<filter id="filter1_d_103_1924" x="439" y="90" width="108" height="108" filterUnits="userSpaceOnUse" color-interpolation-filters="sRGB">
<feFlood flood-opacity="0" result="BackgroundImageFix"/>
<feColorMatrix in="SourceAlpha" type="matrix" values="0 0 0 0 0 0 0 0 0 0 0 0 0 0 0 0 0 0 127 0" result="hardAlpha"/>
<feMorphology radius="2" operator="dilate" in="SourceAlpha" result="effect1_dropShadow_103_1924"/>
<feOffset dx="-2" dy="2"/>
<feGaussianBlur stdDeviation="1"/>
<feComposite in2="hardAlpha" operator="out"/>
<feColorMatrix type="matrix" values="0 0 0 0 0 0 0 0 0 0 0 0 0 0 0 0 0 0 0.15 0"/>
<feBlend mode="normal" in2="BackgroundImageFix" result="effect1_dropShadow_103_1924"/>
<feBlend mode="normal" in="SourceGraphic" in2="effect1_dropShadow_103_1924" result="shape"/>
</filter>
<filter id="filter2_d_103_1924" x="439" y="211" width="108" height="108" filterUnits="userSpaceOnUse" color-interpolation-filters="sRGB">
<feFlood flood-opacity="0" result="BackgroundImageFix"/>
<feColorMatrix in="SourceAlpha" type="matrix" values="0 0 0 0 0 0 0 0 0 0 0 0 0 0 0 0 0 0 127 0" result="hardAlpha"/>
<feMorphology radius="2" operator="dilate" in="SourceAlpha" result="effect1_dropShadow_103_1924"/>
<feOffset dx="-2" dy="2"/>
<feGaussianBlur stdDeviation="1"/>
<feComposite in2="hardAlpha" operator="out"/>
<feColorMatrix type="matrix" values="0 0 0 0 0 0 0 0 0 0 0 0 0 0 0 0 0 0 0.15 0"/>
<feBlend mode="normal" in2="BackgroundImageFix" result="effect1_dropShadow_103_1924"/>
<feBlend mode="normal" in="SourceGraphic" in2="effect1_dropShadow_103_1924" result="shape"/>
</filter>
<filter id="filter3_d_103_1924" x="439" y="336" width="108" height="108" filterUnits="userSpaceOnUse" color-interpolation-filters="sRGB">
<feFlood flood-opacity="0" result="BackgroundImageFix"/>
<feColorMatrix in="SourceAlpha" type="matrix" values="0 0 0 0 0 0 0 0 0 0 0 0 0 0 0 0 0 0 127 0" result="hardAlpha"/>
<feMorphology radius="2" operator="dilate" in="SourceAlpha" result="effect1_dropShadow_103_1924"/>
<feOffset dx="-2" dy="2"/>
<feGaussianBlur stdDeviation="1"/>
<feComposite in2="hardAlpha" operator="out"/>
<feColorMatrix type="matrix" values="0 0 0 0 0 0 0 0 0 0 0 0 0 0 0 0 0 0 0.15 0"/>
<feBlend mode="normal" in2="BackgroundImageFix" result="effect1_dropShadow_103_1924"/>
<feBlend mode="normal" in="SourceGraphic" in2="effect1_dropShadow_103_1924" result="shape"/>
</filter>
<filter id="filter4_d_103_1924" x="32" y="49" width="129" height="133.007" filterUnits="userSpaceOnUse" color-interpolation-filters="sRGB">
<feFlood flood-opacity="0" result="BackgroundImageFix"/>
<feColorMatrix in="SourceAlpha" type="matrix" values="0 0 0 0 0 0 0 0 0 0 0 0 0 0 0 0 0 0 127 0" result="hardAlpha"/>
<feOffset dx="-4" dy="4"/>
<feGaussianBlur stdDeviation="2"/>
<feComposite in2="hardAlpha" operator="out"/>
<feColorMatrix type="matrix" values="0 0 0 0 0 0 0 0 0 0 0 0 0 0 0 0 0 0 0.15 0"/>
<feBlend mode="normal" in2="BackgroundImageFix" result="effect1_dropShadow_103_1924"/>
<feBlend mode="normal" in="SourceGraphic" in2="effect1_dropShadow_103_1924" result="shape"/>
</filter>
<linearGradient id="paint0_linear_103_1924" x1="106.5" y1="480" x2="538.5" y2="46" gradientUnits="userSpaceOnUse">
<stop stop-color="#D9E2FF"/>
<stop offset="0.359375" stop-color="#FDFDFD"/>
<stop offset="1" stop-color="white"/>
</linearGradient>
<clipPath id="clip0_103_1924">
<rect width="215.014" height="397" fill="white"/>
</clipPath>
<clipPath id="clip1_103_1924">
<rect width="56" height="54" fill="white" transform="translate(72 79)"/>
</clipPath>
</defs>
</svg>
