<svg width="606" height="486" viewBox="0 0 606 486" fill="none" xmlns="http://www.w3.org/2000/svg">
<g clip-path="url(#clip0_49_1830)">
<path d="M297.666 2.6961C296.921 2.6961 296.317 2.09255 296.317 1.34805C296.317 0.603541 296.921 1.82937e-07 297.666 1.1785e-07C298.41 5.27632e-08 299.014 0.603541 299.014 1.34805C299.014 2.09255 298.41 2.6961 297.666 2.6961Z" fill="#71869D"/>
<path d="M267.334 2.6961C266.59 2.6961 265.986 2.09255 265.986 1.34805C265.986 0.603541 266.59 1.82936e-07 267.334 1.1785e-07C268.079 5.27644e-08 268.682 0.603541 268.682 1.34805C268.682 2.09255 268.079 2.6961 267.334 2.6961Z" fill="#71869D"/>
<path d="M237.003 2.6961C236.259 2.6961 235.655 2.09255 235.655 1.34805C235.655 0.603541 236.259 1.82933e-07 237.003 1.1785e-07C237.748 5.27674e-08 238.351 0.603541 238.351 1.34805C238.351 2.09255 237.748 2.6961 237.003 2.6961Z" fill="#71869D"/>
<path d="M206.672 2.6961C205.928 2.6961 205.324 2.09255 205.324 1.34805C205.324 0.603541 205.928 1.82933e-07 206.672 1.1785e-07C207.417 5.27674e-08 208.02 0.603541 208.02 1.34805C208.02 2.09255 207.417 2.6961 206.672 2.6961Z" fill="#71869D"/>
<path d="M176.341 2.6961C175.597 2.6961 174.993 2.09255 174.993 1.34805C174.993 0.603541 175.597 1.82933e-07 176.341 1.1785e-07C177.086 5.27674e-08 177.689 0.603541 177.689 1.34805C177.689 2.09255 177.086 2.6961 176.341 2.6961Z" fill="#71869D"/>
<path d="M146.01 2.6961C145.266 2.6961 144.662 2.09255 144.662 1.34805C144.662 0.603541 145.266 1.82933e-07 146.01 1.1785e-07C146.755 5.27674e-08 147.358 0.603541 147.358 1.34805C147.358 2.09255 146.755 2.6961 146.01 2.6961Z" fill="#71869D"/>
<path d="M297.666 33.0271C296.921 33.0271 296.317 32.4236 296.317 31.6791C296.317 30.9346 296.921 30.3311 297.666 30.3311C298.41 30.3311 299.014 30.9346 299.014 31.6791C299.014 32.4236 298.41 33.0271 297.666 33.0271Z" fill="#71869D"/>
<path d="M267.334 33.0272C266.59 33.0272 265.986 32.4236 265.986 31.6791C265.986 30.9346 266.59 30.3311 267.334 30.3311C268.079 30.3311 268.682 30.9346 268.682 31.6791C268.682 32.4236 268.079 33.0272 267.334 33.0272Z" fill="#71869D"/>
<path d="M237.003 33.0272C236.259 33.0272 235.655 32.4236 235.655 31.6791C235.655 30.9346 236.259 30.3311 237.003 30.3311C237.748 30.3311 238.351 30.9346 238.351 31.6791C238.351 32.4236 237.748 33.0272 237.003 33.0272Z" fill="#71869D"/>
<path d="M206.672 33.0272C205.928 33.0272 205.324 32.4236 205.324 31.6791C205.324 30.9346 205.928 30.3311 206.672 30.3311C207.417 30.3311 208.02 30.9346 208.02 31.6791C208.02 32.4236 207.417 33.0272 206.672 33.0272Z" fill="#71869D"/>
<path d="M176.341 33.0272C175.597 33.0272 174.993 32.4236 174.993 31.6791C174.993 30.9346 175.597 30.3311 176.341 30.3311C177.086 30.3311 177.689 30.9346 177.689 31.6791C177.689 32.4236 177.086 33.0272 176.341 33.0272Z" fill="#71869D"/>
<path d="M146.01 33.0272C145.266 33.0272 144.662 32.4236 144.662 31.6791C144.662 30.9346 145.266 30.3311 146.01 30.3311C146.755 30.3311 147.358 30.9346 147.358 31.6791C147.358 32.4236 146.755 33.0272 146.01 33.0272Z" fill="#71869D"/>
<path d="M297.666 63.3582C296.921 63.3582 296.317 62.7546 296.317 62.0102C296.317 61.2657 296.921 60.6621 297.666 60.6621C298.41 60.6621 299.014 61.2657 299.014 62.0102C299.014 62.7546 298.41 63.3582 297.666 63.3582Z" fill="#71869D"/>
<path d="M267.334 63.3582C266.59 63.3582 265.986 62.7546 265.986 62.0102C265.986 61.2657 266.59 60.6621 267.334 60.6621C268.079 60.6621 268.682 61.2657 268.682 62.0102C268.682 62.7546 268.079 63.3582 267.334 63.3582Z" fill="#71869D"/>
<path d="M237.003 63.3582C236.259 63.3582 235.655 62.7546 235.655 62.0102C235.655 61.2657 236.259 60.6621 237.003 60.6621C237.748 60.6621 238.351 61.2657 238.351 62.0102C238.351 62.7546 237.748 63.3582 237.003 63.3582Z" fill="#71869D"/>
<path d="M206.672 63.3582C205.928 63.3582 205.324 62.7546 205.324 62.0102C205.324 61.2657 205.928 60.6621 206.672 60.6621C207.417 60.6621 208.02 61.2657 208.02 62.0102C208.02 62.7546 207.417 63.3582 206.672 63.3582Z" fill="#71869D"/>
<path d="M176.341 63.3582C175.597 63.3582 174.993 62.7546 174.993 62.0102C174.993 61.2657 175.597 60.6621 176.341 60.6621C177.086 60.6621 177.689 61.2657 177.689 62.0102C177.689 62.7546 177.086 63.3582 176.341 63.3582Z" fill="#71869D"/>
<path d="M146.01 63.3582C145.266 63.3582 144.662 62.7546 144.662 62.0102C144.662 61.2657 145.266 60.6621 146.01 60.6621C146.755 60.6621 147.358 61.2657 147.358 62.0102C147.358 62.7546 146.755 63.3582 146.01 63.3582Z" fill="#71869D"/>
<path d="M297.666 93.6893C296.921 93.6893 296.317 93.0857 296.317 92.3413C296.317 91.5968 296.921 90.9932 297.666 90.9932C298.41 90.9932 299.014 91.5968 299.014 92.3413C299.014 93.0857 298.41 93.6893 297.666 93.6893Z" fill="#71869D"/>
<path d="M267.334 93.6893C266.59 93.6893 265.986 93.0857 265.986 92.3413C265.986 91.5968 266.59 90.9932 267.334 90.9932C268.079 90.9932 268.682 91.5968 268.682 92.3413C268.682 93.0857 268.079 93.6893 267.334 93.6893Z" fill="#71869D"/>
<path d="M237.003 93.6893C236.259 93.6893 235.655 93.0857 235.655 92.3413C235.655 91.5968 236.259 90.9932 237.003 90.9932C237.748 90.9932 238.351 91.5968 238.351 92.3413C238.351 93.0857 237.748 93.6893 237.003 93.6893Z" fill="#71869D"/>
<path d="M206.672 93.6893C205.928 93.6893 205.324 93.0857 205.324 92.3413C205.324 91.5968 205.928 90.9932 206.672 90.9932C207.417 90.9932 208.02 91.5968 208.02 92.3413C208.02 93.0857 207.417 93.6893 206.672 93.6893Z" fill="#71869D"/>
<path d="M176.341 93.6893C175.597 93.6893 174.993 93.0857 174.993 92.3413C174.993 91.5968 175.597 90.9932 176.341 90.9932C177.086 90.9932 177.689 91.5968 177.689 92.3413C177.689 93.0857 177.086 93.6893 176.341 93.6893Z" fill="#71869D"/>
<path d="M146.01 93.6893C145.266 93.6893 144.662 93.0857 144.662 92.3413C144.662 91.5968 145.266 90.9932 146.01 90.9932C146.755 90.9932 147.358 91.5968 147.358 92.3413C147.358 93.0857 146.755 93.6893 146.01 93.6893Z" fill="#71869D"/>
<path d="M297.666 124.02C296.921 124.02 296.317 123.417 296.317 122.672C296.317 121.928 296.921 121.324 297.666 121.324C298.41 121.324 299.014 121.928 299.014 122.672C299.014 123.417 298.41 124.02 297.666 124.02Z" fill="#71869D"/>
<path d="M267.334 124.02C266.59 124.02 265.986 123.417 265.986 122.672C265.986 121.928 266.59 121.324 267.334 121.324C268.079 121.324 268.682 121.928 268.682 122.672C268.682 123.417 268.079 124.02 267.334 124.02Z" fill="#71869D"/>
<path d="M237.003 124.02C236.259 124.02 235.655 123.417 235.655 122.672C235.655 121.928 236.259 121.324 237.003 121.324C237.748 121.324 238.351 121.928 238.351 122.672C238.351 123.417 237.748 124.02 237.003 124.02Z" fill="#71869D"/>
<path d="M206.672 124.02C205.928 124.02 205.324 123.417 205.324 122.672C205.324 121.928 205.928 121.324 206.672 121.324C207.417 121.324 208.02 121.928 208.02 122.672C208.02 123.417 207.417 124.02 206.672 124.02Z" fill="#71869D"/>
<path d="M176.341 124.02C175.597 124.02 174.993 123.417 174.993 122.672C174.993 121.928 175.597 121.324 176.341 121.324C177.086 121.324 177.689 121.928 177.689 122.672C177.689 123.417 177.086 124.02 176.341 124.02Z" fill="#71869D"/>
<path d="M146.01 124.02C145.266 124.02 144.662 123.417 144.662 122.672C144.662 121.928 145.266 121.324 146.01 121.324C146.755 121.324 147.358 121.928 147.358 122.672C147.358 123.417 146.755 124.02 146.01 124.02Z" fill="#71869D"/>
<path d="M297.666 154.351C296.921 154.351 296.317 153.748 296.317 153.003C296.317 152.259 296.921 151.655 297.666 151.655C298.41 151.655 299.014 152.259 299.014 153.003C299.014 153.748 298.41 154.351 297.666 154.351Z" fill="#71869D"/>
<path d="M267.334 154.351C266.59 154.351 265.986 153.748 265.986 153.003C265.986 152.259 266.59 151.655 267.334 151.655C268.079 151.655 268.682 152.259 268.682 153.003C268.682 153.748 268.079 154.351 267.334 154.351Z" fill="#71869D"/>
<path d="M237.003 154.351C236.259 154.351 235.655 153.748 235.655 153.003C235.655 152.259 236.259 151.655 237.003 151.655C237.748 151.655 238.351 152.259 238.351 153.003C238.351 153.748 237.748 154.351 237.003 154.351Z" fill="#71869D"/>
<path d="M206.672 154.351C205.928 154.351 205.324 153.748 205.324 153.003C205.324 152.259 205.928 151.655 206.672 151.655C207.417 151.655 208.02 152.259 208.02 153.003C208.02 153.748 207.417 154.351 206.672 154.351Z" fill="#71869D"/>
<path d="M176.341 154.351C175.597 154.351 174.993 153.748 174.993 153.003C174.993 152.259 175.597 151.655 176.341 151.655C177.086 151.655 177.689 152.259 177.689 153.003C177.689 153.748 177.086 154.351 176.341 154.351Z" fill="#71869D"/>
<path d="M146.01 154.351C145.266 154.351 144.662 153.748 144.662 153.003C144.662 152.259 145.266 151.655 146.01 151.655C146.755 151.655 147.358 152.259 147.358 153.003C147.358 153.748 146.755 154.351 146.01 154.351Z" fill="#71869D"/>
<path d="M297.666 184.683C296.921 184.683 296.317 184.079 296.317 183.334C296.317 182.59 296.921 181.986 297.666 181.986C298.41 181.986 299.014 182.59 299.014 183.334C299.014 184.079 298.41 184.683 297.666 184.683Z" fill="#71869D"/>
<path d="M267.334 184.683C266.59 184.683 265.986 184.079 265.986 183.334C265.986 182.59 266.59 181.986 267.334 181.986C268.079 181.986 268.682 182.59 268.682 183.334C268.682 184.079 268.079 184.683 267.334 184.683Z" fill="#71869D"/>
<path d="M237.003 184.683C236.259 184.683 235.655 184.079 235.655 183.334C235.655 182.59 236.259 181.986 237.003 181.986C237.748 181.986 238.351 182.59 238.351 183.334C238.351 184.079 237.748 184.683 237.003 184.683Z" fill="#71869D"/>
<path d="M206.672 184.683C205.928 184.683 205.324 184.079 205.324 183.334C205.324 182.59 205.928 181.986 206.672 181.986C207.417 181.986 208.02 182.59 208.02 183.334C208.02 184.079 207.417 184.683 206.672 184.683Z" fill="#71869D"/>
<path d="M176.341 184.683C175.597 184.683 174.993 184.079 174.993 183.334C174.993 182.59 175.597 181.986 176.341 181.986C177.086 181.986 177.689 182.59 177.689 183.334C177.689 184.079 177.086 184.683 176.341 184.683Z" fill="#71869D"/>
<path d="M146.01 184.683C145.266 184.683 144.662 184.079 144.662 183.334C144.662 182.59 145.266 181.986 146.01 181.986C146.755 181.986 147.358 182.59 147.358 183.334C147.358 184.079 146.755 184.683 146.01 184.683Z" fill="#71869D"/>
<path d="M297.666 215.014C296.921 215.014 296.317 214.41 296.317 213.666C296.317 212.921 296.921 212.318 297.666 212.318C298.41 212.318 299.014 212.921 299.014 213.666C299.014 214.41 298.41 215.014 297.666 215.014Z" fill="#71869D"/>
<path d="M267.334 215.014C266.59 215.014 265.986 214.41 265.986 213.666C265.986 212.921 266.59 212.318 267.334 212.318C268.079 212.318 268.682 212.921 268.682 213.666C268.682 214.41 268.079 215.014 267.334 215.014Z" fill="#71869D"/>
<path d="M237.003 215.014C236.259 215.014 235.655 214.41 235.655 213.666C235.655 212.921 236.259 212.318 237.003 212.318C237.748 212.318 238.351 212.921 238.351 213.666C238.351 214.41 237.748 215.014 237.003 215.014Z" fill="#71869D"/>
<path d="M206.672 215.014C205.928 215.014 205.324 214.41 205.324 213.666C205.324 212.921 205.928 212.318 206.672 212.318C207.417 212.318 208.02 212.921 208.02 213.666C208.02 214.41 207.417 215.014 206.672 215.014Z" fill="#71869D"/>
<path d="M176.341 215.014C175.597 215.014 174.993 214.41 174.993 213.666C174.993 212.921 175.597 212.318 176.341 212.318C177.086 212.318 177.689 212.921 177.689 213.666C177.689 214.41 177.086 215.014 176.341 215.014Z" fill="#71869D"/>
<path d="M146.01 215.014C145.266 215.014 144.662 214.41 144.662 213.666C144.662 212.921 145.266 212.318 146.01 212.318C146.755 212.318 147.358 212.921 147.358 213.666C147.358 214.41 146.755 215.014 146.01 215.014Z" fill="#71869D"/>
<path d="M297.666 245.345C296.921 245.345 296.317 244.741 296.317 243.997C296.317 243.252 296.921 242.649 297.666 242.649C298.41 242.649 299.014 243.252 299.014 243.997C299.014 244.741 298.41 245.345 297.666 245.345Z" fill="#71869D"/>
<path d="M267.334 245.345C266.59 245.345 265.986 244.741 265.986 243.997C265.986 243.252 266.59 242.649 267.334 242.649C268.079 242.649 268.682 243.252 268.682 243.997C268.682 244.741 268.079 245.345 267.334 245.345Z" fill="#71869D"/>
<path d="M237.003 245.345C236.259 245.345 235.655 244.741 235.655 243.997C235.655 243.252 236.259 242.649 237.003 242.649C237.748 242.649 238.351 243.252 238.351 243.997C238.351 244.741 237.748 245.345 237.003 245.345Z" fill="#71869D"/>
<path d="M206.672 245.345C205.928 245.345 205.324 244.741 205.324 243.997C205.324 243.252 205.928 242.649 206.672 242.649C207.417 242.649 208.02 243.252 208.02 243.997C208.02 244.741 207.417 245.345 206.672 245.345Z" fill="#71869D"/>
<path d="M176.341 245.345C175.597 245.345 174.993 244.741 174.993 243.997C174.993 243.252 175.597 242.649 176.341 242.649C177.086 242.649 177.689 243.252 177.689 243.997C177.689 244.741 177.086 245.345 176.341 245.345Z" fill="#71869D"/>
<path d="M146.01 245.345C145.266 245.345 144.662 244.741 144.662 243.997C144.662 243.252 145.266 242.649 146.01 242.649C146.755 242.649 147.358 243.252 147.358 243.997C147.358 244.741 146.755 245.345 146.01 245.345Z" fill="#71869D"/>
<path d="M297.666 275.676C296.921 275.676 296.317 275.072 296.317 274.328C296.317 273.583 296.921 272.98 297.666 272.98C298.41 272.98 299.014 273.583 299.014 274.328C299.014 275.072 298.41 275.676 297.666 275.676Z" fill="#71869D"/>
<path d="M267.334 275.676C266.59 275.676 265.986 275.072 265.986 274.328C265.986 273.583 266.59 272.98 267.334 272.98C268.079 272.98 268.682 273.583 268.682 274.328C268.682 275.072 268.079 275.676 267.334 275.676Z" fill="#71869D"/>
<path d="M237.003 275.676C236.259 275.676 235.655 275.072 235.655 274.328C235.655 273.583 236.259 272.98 237.003 272.98C237.748 272.98 238.351 273.583 238.351 274.328C238.351 275.072 237.748 275.676 237.003 275.676Z" fill="#71869D"/>
<path d="M206.672 275.676C205.928 275.676 205.324 275.072 205.324 274.328C205.324 273.583 205.928 272.98 206.672 272.98C207.417 272.98 208.02 273.583 208.02 274.328C208.02 275.072 207.417 275.676 206.672 275.676Z" fill="#71869D"/>
<path d="M176.341 275.676C175.597 275.676 174.993 275.072 174.993 274.328C174.993 273.583 175.597 272.98 176.341 272.98C177.086 272.98 177.689 273.583 177.689 274.328C177.689 275.072 177.086 275.676 176.341 275.676Z" fill="#71869D"/>
<path d="M146.01 275.676C145.266 275.676 144.662 275.072 144.662 274.328C144.662 273.583 145.266 272.98 146.01 272.98C146.755 272.98 147.358 273.583 147.358 274.328C147.358 275.072 146.755 275.676 146.01 275.676Z" fill="#71869D"/>
<path d="M297.666 306.007C296.921 306.007 296.317 305.403 296.317 304.659C296.317 303.914 296.921 303.311 297.666 303.311C298.41 303.311 299.014 303.914 299.014 304.659C299.014 305.403 298.41 306.007 297.666 306.007Z" fill="#71869D"/>
<path d="M267.334 306.007C266.59 306.007 265.986 305.403 265.986 304.659C265.986 303.914 266.59 303.311 267.334 303.311C268.079 303.311 268.682 303.914 268.682 304.659C268.682 305.403 268.079 306.007 267.334 306.007Z" fill="#71869D"/>
<path d="M237.003 306.007C236.259 306.007 235.655 305.403 235.655 304.659C235.655 303.914 236.259 303.311 237.003 303.311C237.748 303.311 238.351 303.914 238.351 304.659C238.351 305.403 237.748 306.007 237.003 306.007Z" fill="#71869D"/>
<path d="M206.672 306.007C205.928 306.007 205.324 305.403 205.324 304.659C205.324 303.914 205.928 303.311 206.672 303.311C207.417 303.311 208.02 303.914 208.02 304.659C208.02 305.403 207.417 306.007 206.672 306.007Z" fill="#71869D"/>
<path d="M176.341 306.007C175.597 306.007 174.993 305.403 174.993 304.659C174.993 303.914 175.597 303.311 176.341 303.311C177.086 303.311 177.689 303.914 177.689 304.659C177.689 305.403 177.086 306.007 176.341 306.007Z" fill="#71869D"/>
<path d="M146.01 306.007C145.266 306.007 144.662 305.403 144.662 304.659C144.662 303.914 145.266 303.311 146.01 303.311C146.755 303.311 147.358 303.914 147.358 304.659C147.358 305.403 146.755 306.007 146.01 306.007Z" fill="#71869D"/>
<path d="M115.679 2.69613C114.935 2.69613 114.331 2.09258 114.331 1.34808C114.331 0.603572 114.935 3.07005e-05 115.679 3.06354e-05C116.424 3.05703e-05 117.027 0.603572 117.027 1.34808C117.027 2.09258 116.424 2.69613 115.679 2.69613Z" fill="#71869D"/>
<path d="M85.348 2.69613C84.6035 2.69613 83.9999 2.09258 83.9999 1.34808C83.9999 0.603572 84.6035 3.07005e-05 85.348 3.06354e-05C86.0925 3.05703e-05 86.696 0.603572 86.696 1.34808C86.696 2.09258 86.0925 2.69613 85.348 2.69613Z" fill="#71869D"/>
<path d="M115.679 33.0272C114.935 33.0272 114.331 32.4236 114.331 31.6791C114.331 30.9346 114.935 30.3311 115.679 30.3311C116.424 30.3311 117.027 30.9346 117.027 31.6791C117.027 32.4236 116.424 33.0272 115.679 33.0272Z" fill="#71869D"/>
<path d="M85.348 33.0272C84.6035 33.0272 83.9999 32.4236 83.9999 31.6791C83.9999 30.9346 84.6035 30.3311 85.348 30.3311C86.0925 30.3311 86.696 30.9346 86.696 31.6791C86.696 32.4236 86.0925 33.0272 85.348 33.0272Z" fill="#71869D"/>
<path d="M115.679 63.3582C114.935 63.3582 114.331 62.7546 114.331 62.0102C114.331 61.2657 114.935 60.6621 115.679 60.6621C116.424 60.6621 117.027 61.2657 117.027 62.0102C117.027 62.7546 116.424 63.3582 115.679 63.3582Z" fill="#71869D"/>
<path d="M85.348 63.3582C84.6035 63.3582 83.9999 62.7546 83.9999 62.0102C83.9999 61.2657 84.6035 60.6621 85.348 60.6621C86.0925 60.6621 86.696 61.2657 86.696 62.0102C86.696 62.7546 86.0925 63.3582 85.348 63.3582Z" fill="#71869D"/>
<path d="M115.679 93.6893C114.935 93.6893 114.331 93.0857 114.331 92.3413C114.331 91.5968 114.935 90.9932 115.679 90.9932C116.424 90.9932 117.027 91.5968 117.027 92.3413C117.027 93.0857 116.424 93.6893 115.679 93.6893Z" fill="#71869D"/>
<path d="M85.348 93.6893C84.6035 93.6893 83.9999 93.0857 83.9999 92.3413C83.9999 91.5968 84.6035 90.9932 85.348 90.9932C86.0925 90.9932 86.696 91.5968 86.696 92.3413C86.696 93.0857 86.0925 93.6893 85.348 93.6893Z" fill="#71869D"/>
<path d="M115.679 124.02C114.935 124.02 114.331 123.417 114.331 122.672C114.331 121.928 114.935 121.324 115.679 121.324C116.424 121.324 117.027 121.928 117.027 122.672C117.027 123.417 116.424 124.02 115.679 124.02Z" fill="#71869D"/>
<path d="M85.348 124.02C84.6035 124.02 83.9999 123.417 83.9999 122.672C83.9999 121.928 84.6035 121.324 85.348 121.324C86.0925 121.324 86.696 121.928 86.696 122.672C86.696 123.417 86.0925 124.02 85.348 124.02Z" fill="#71869D"/>
<path d="M115.679 154.351C114.935 154.351 114.331 153.748 114.331 153.003C114.331 152.259 114.935 151.655 115.679 151.655C116.424 151.655 117.027 152.259 117.027 153.003C117.027 153.748 116.424 154.351 115.679 154.351Z" fill="#71869D"/>
<path d="M85.348 154.351C84.6035 154.351 83.9999 153.748 83.9999 153.003C83.9999 152.259 84.6035 151.655 85.348 151.655C86.0925 151.655 86.696 152.259 86.696 153.003C86.696 153.748 86.0925 154.351 85.348 154.351Z" fill="#71869D"/>
<path d="M115.679 184.683C114.935 184.683 114.331 184.079 114.331 183.334C114.331 182.59 114.935 181.986 115.679 181.986C116.424 181.986 117.027 182.59 117.027 183.334C117.027 184.079 116.424 184.683 115.679 184.683Z" fill="#71869D"/>
<path d="M85.348 184.683C84.6035 184.683 83.9999 184.079 83.9999 183.334C83.9999 182.59 84.6035 181.986 85.348 181.986C86.0925 181.986 86.696 182.59 86.696 183.334C86.696 184.079 86.0925 184.683 85.348 184.683Z" fill="#71869D"/>
<path d="M115.679 215.014C114.935 215.014 114.331 214.41 114.331 213.666C114.331 212.921 114.935 212.318 115.679 212.318C116.424 212.318 117.027 212.921 117.027 213.666C117.027 214.41 116.424 215.014 115.679 215.014Z" fill="#71869D"/>
<path d="M85.348 215.014C84.6035 215.014 83.9999 214.41 83.9999 213.666C83.9999 212.921 84.6035 212.318 85.348 212.318C86.0925 212.318 86.696 212.921 86.696 213.666C86.696 214.41 86.0925 215.014 85.348 215.014Z" fill="#71869D"/>
<path d="M115.679 245.345C114.935 245.345 114.331 244.741 114.331 243.997C114.331 243.252 114.935 242.649 115.679 242.649C116.424 242.649 117.027 243.252 117.027 243.997C117.027 244.741 116.424 245.345 115.679 245.345Z" fill="#71869D"/>
<path d="M85.348 245.345C84.6035 245.345 83.9999 244.741 83.9999 243.997C83.9999 243.252 84.6035 242.649 85.348 242.649C86.0925 242.649 86.696 243.252 86.696 243.997C86.696 244.741 86.0925 245.345 85.348 245.345Z" fill="#71869D"/>
<path d="M115.679 275.676C114.935 275.676 114.331 275.072 114.331 274.328C114.331 273.583 114.935 272.98 115.679 272.98C116.424 272.98 117.027 273.583 117.027 274.328C117.027 275.072 116.424 275.676 115.679 275.676Z" fill="#71869D"/>
<path d="M85.348 275.676C84.6035 275.676 83.9999 275.072 83.9999 274.328C83.9999 273.583 84.6035 272.98 85.348 272.98C86.0925 272.98 86.696 273.583 86.696 274.328C86.696 275.072 86.0925 275.676 85.348 275.676Z" fill="#71869D"/>
<path d="M115.679 306.007C114.935 306.007 114.331 305.403 114.331 304.659C114.331 303.914 114.935 303.311 115.679 303.311C116.424 303.311 117.027 303.914 117.027 304.659C117.027 305.403 116.424 306.007 115.679 306.007Z" fill="#71869D"/>
<path d="M85.348 306.007C84.6035 306.007 83.9999 305.403 83.9999 304.659C83.9999 303.914 84.6035 303.311 85.348 303.311C86.0925 303.311 86.696 303.914 86.696 304.659C86.696 305.403 86.0925 306.007 85.348 306.007Z" fill="#71869D"/>
<path d="M297.666 336.338C296.921 336.338 296.317 335.734 296.317 334.99C296.317 334.245 296.921 333.642 297.666 333.642C298.41 333.642 299.014 334.245 299.014 334.99C299.014 335.734 298.41 336.338 297.666 336.338Z" fill="#71869D"/>
<path d="M267.334 336.338C266.59 336.338 265.986 335.734 265.986 334.99C265.986 334.245 266.59 333.642 267.334 333.642C268.079 333.642 268.682 334.245 268.682 334.99C268.682 335.734 268.079 336.338 267.334 336.338Z" fill="#71869D"/>
<path d="M237.003 336.338C236.259 336.338 235.655 335.734 235.655 334.99C235.655 334.245 236.259 333.642 237.003 333.642C237.748 333.642 238.351 334.245 238.351 334.99C238.351 335.734 237.748 336.338 237.003 336.338Z" fill="#71869D"/>
<path d="M206.672 336.338C205.928 336.338 205.324 335.734 205.324 334.99C205.324 334.245 205.928 333.642 206.672 333.642C207.417 333.642 208.02 334.245 208.02 334.99C208.02 335.734 207.417 336.338 206.672 336.338Z" fill="#71869D"/>
<path d="M176.341 336.338C175.597 336.338 174.993 335.734 174.993 334.99C174.993 334.245 175.597 333.642 176.341 333.642C177.086 333.642 177.689 334.245 177.689 334.99C177.689 335.734 177.086 336.338 176.341 336.338Z" fill="#71869D"/>
<path d="M146.01 336.338C145.266 336.338 144.662 335.734 144.662 334.99C144.662 334.245 145.266 333.642 146.01 333.642C146.755 333.642 147.358 334.245 147.358 334.99C147.358 335.734 146.755 336.338 146.01 336.338Z" fill="#71869D"/>
<path d="M297.666 366.669C296.921 366.669 296.317 366.066 296.317 365.321C296.317 364.576 296.921 363.973 297.666 363.973C298.41 363.973 299.014 364.576 299.014 365.321C299.014 366.066 298.41 366.669 297.666 366.669Z" fill="#71869D"/>
<path d="M267.334 366.669C266.59 366.669 265.986 366.066 265.986 365.321C265.986 364.576 266.59 363.973 267.334 363.973C268.079 363.973 268.682 364.576 268.682 365.321C268.682 366.066 268.079 366.669 267.334 366.669Z" fill="#71869D"/>
<path d="M237.003 366.669C236.259 366.669 235.655 366.066 235.655 365.321C235.655 364.576 236.259 363.973 237.003 363.973C237.748 363.973 238.351 364.576 238.351 365.321C238.351 366.066 237.748 366.669 237.003 366.669Z" fill="#71869D"/>
<path d="M206.672 366.669C205.928 366.669 205.324 366.066 205.324 365.321C205.324 364.576 205.928 363.973 206.672 363.973C207.417 363.973 208.02 364.576 208.02 365.321C208.02 366.066 207.417 366.669 206.672 366.669Z" fill="#71869D"/>
<path d="M176.341 366.669C175.597 366.669 174.993 366.066 174.993 365.321C174.993 364.576 175.597 363.973 176.341 363.973C177.086 363.973 177.689 364.576 177.689 365.321C177.689 366.066 177.086 366.669 176.341 366.669Z" fill="#71869D"/>
<path d="M146.01 366.669C145.266 366.669 144.662 366.066 144.662 365.321C144.662 364.576 145.266 363.973 146.01 363.973C146.755 363.973 147.358 364.576 147.358 365.321C147.358 366.066 146.755 366.669 146.01 366.669Z" fill="#71869D"/>
<path d="M297.666 397C296.921 397 296.317 396.397 296.317 395.652C296.317 394.907 296.921 394.304 297.666 394.304C298.41 394.304 299.014 394.907 299.014 395.652C299.014 396.397 298.41 397 297.666 397Z" fill="#71869D"/>
<path d="M267.334 397C266.59 397 265.986 396.397 265.986 395.652C265.986 394.907 266.59 394.304 267.334 394.304C268.079 394.304 268.682 394.907 268.682 395.652C268.682 396.397 268.079 397 267.334 397Z" fill="#71869D"/>
<path d="M237.003 397C236.259 397 235.655 396.397 235.655 395.652C235.655 394.907 236.259 394.304 237.003 394.304C237.748 394.304 238.351 394.907 238.351 395.652C238.351 396.397 237.748 397 237.003 397Z" fill="#71869D"/>
<path d="M206.672 397C205.928 397 205.324 396.397 205.324 395.652C205.324 394.907 205.928 394.304 206.672 394.304C207.417 394.304 208.02 394.907 208.02 395.652C208.02 396.397 207.417 397 206.672 397Z" fill="#71869D"/>
<path d="M176.341 397C175.597 397 174.993 396.397 174.993 395.652C174.993 394.907 175.597 394.304 176.341 394.304C177.086 394.304 177.689 394.907 177.689 395.652C177.689 396.397 177.086 397 176.341 397Z" fill="#71869D"/>
<path d="M146.01 397C145.266 397 144.662 396.397 144.662 395.652C144.662 394.907 145.266 394.304 146.01 394.304C146.755 394.304 147.358 394.907 147.358 395.652C147.358 396.397 146.755 397 146.01 397Z" fill="#71869D"/>
<path d="M115.679 336.338C114.935 336.338 114.331 335.734 114.331 334.99C114.331 334.245 114.935 333.642 115.679 333.642C116.424 333.642 117.027 334.245 117.027 334.99C117.027 335.734 116.424 336.338 115.679 336.338Z" fill="#71869D"/>
<path d="M85.348 336.338C84.6035 336.338 83.9999 335.734 83.9999 334.99C83.9999 334.245 84.6035 333.642 85.348 333.642C86.0925 333.642 86.696 334.245 86.696 334.99C86.696 335.734 86.0925 336.338 85.348 336.338Z" fill="#71869D"/>
<path d="M115.679 366.669C114.935 366.669 114.331 366.066 114.331 365.321C114.331 364.576 114.935 363.973 115.679 363.973C116.424 363.973 117.027 364.576 117.027 365.321C117.027 366.066 116.424 366.669 115.679 366.669Z" fill="#71869D"/>
<path d="M85.348 366.669C84.6035 366.669 83.9999 366.066 83.9999 365.321C83.9999 364.576 84.6035 363.973 85.348 363.973C86.0925 363.973 86.696 364.576 86.696 365.321C86.696 366.066 86.0925 366.669 85.348 366.669Z" fill="#71869D"/>
<path d="M115.679 397C114.935 397 114.331 396.397 114.331 395.652C114.331 394.907 114.935 394.304 115.679 394.304C116.424 394.304 117.027 394.907 117.027 395.652C117.027 396.397 116.424 397 115.679 397Z" fill="#71869D"/>
<path d="M85.348 397C84.6035 397 83.9999 396.397 83.9999 395.652C83.9999 394.907 84.6035 394.304 85.348 394.304C86.0925 394.304 86.696 394.907 86.696 395.652C86.696 396.397 86.0925 397 85.348 397Z" fill="#71869D"/>
</g>
<g clip-path="url(#clip1_49_1830)">
<path d="M603.304 475.666C603.304 474.921 603.907 474.318 604.652 474.318C605.396 474.318 606 474.921 606 475.666C606 476.41 605.396 477.014 604.652 477.014C603.907 477.014 603.304 476.41 603.304 475.666Z" fill="#71869D"/>
<path d="M603.304 445.335C603.304 444.59 603.907 443.986 604.652 443.986C605.396 443.986 606 444.59 606 445.335C606 446.079 605.396 446.683 604.652 446.683C603.907 446.683 603.304 446.079 603.304 445.335Z" fill="#71869D"/>
<path d="M603.304 415.003C603.304 414.259 603.907 413.655 604.652 413.655C605.396 413.655 606 414.259 606 415.003C606 415.748 605.396 416.351 604.652 416.351C603.907 416.351 603.304 415.748 603.304 415.003Z" fill="#71869D"/>
<path d="M603.304 384.672C603.304 383.928 603.907 383.324 604.652 383.324C605.396 383.324 606 383.928 606 384.672C606 385.417 605.396 386.02 604.652 386.02C603.907 386.02 603.304 385.417 603.304 384.672Z" fill="#71869D"/>
<path d="M603.304 354.341C603.304 353.597 603.907 352.993 604.652 352.993C605.396 352.993 606 353.597 606 354.341C606 355.086 605.396 355.689 604.652 355.689C603.907 355.689 603.304 355.086 603.304 354.341Z" fill="#71869D"/>
<path d="M603.304 324.01C603.304 323.266 603.907 322.662 604.652 322.662C605.396 322.662 606 323.266 606 324.01C606 324.755 605.396 325.358 604.652 325.358C603.907 325.358 603.304 324.755 603.304 324.01Z" fill="#71869D"/>
<path d="M572.973 475.666C572.973 474.921 573.576 474.318 574.321 474.318C575.065 474.318 575.669 474.921 575.669 475.666C575.669 476.41 575.065 477.014 574.321 477.014C573.576 477.014 572.973 476.41 572.973 475.666Z" fill="#71869D"/>
<path d="M572.973 445.335C572.973 444.59 573.576 443.986 574.321 443.986C575.065 443.986 575.669 444.59 575.669 445.335C575.669 446.079 575.065 446.683 574.321 446.683C573.576 446.683 572.973 446.079 572.973 445.335Z" fill="#71869D"/>
<path d="M572.973 415.003C572.973 414.259 573.576 413.655 574.321 413.655C575.065 413.655 575.669 414.259 575.669 415.003C575.669 415.748 575.065 416.351 574.321 416.351C573.576 416.351 572.973 415.748 572.973 415.003Z" fill="#71869D"/>
<path d="M572.973 384.672C572.973 383.928 573.576 383.324 574.321 383.324C575.065 383.324 575.669 383.928 575.669 384.672C575.669 385.417 575.065 386.02 574.321 386.02C573.576 386.02 572.973 385.417 572.973 384.672Z" fill="#71869D"/>
<path d="M572.973 354.341C572.973 353.597 573.576 352.993 574.321 352.993C575.065 352.993 575.669 353.597 575.669 354.341C575.669 355.086 575.065 355.689 574.321 355.689C573.576 355.689 572.973 355.086 572.973 354.341Z" fill="#71869D"/>
<path d="M572.973 324.01C572.973 323.266 573.576 322.662 574.321 322.662C575.065 322.662 575.669 323.266 575.669 324.01C575.669 324.755 575.065 325.358 574.321 325.358C573.576 325.358 572.973 324.755 572.973 324.01Z" fill="#71869D"/>
<path d="M542.642 475.666C542.642 474.921 543.245 474.318 543.99 474.318C544.734 474.318 545.338 474.921 545.338 475.666C545.338 476.41 544.734 477.014 543.99 477.014C543.245 477.014 542.642 476.41 542.642 475.666Z" fill="#71869D"/>
<path d="M542.642 445.335C542.642 444.59 543.245 443.986 543.99 443.986C544.734 443.986 545.338 444.59 545.338 445.335C545.338 446.079 544.734 446.683 543.99 446.683C543.245 446.683 542.642 446.079 542.642 445.335Z" fill="#71869D"/>
<path d="M542.642 415.003C542.642 414.259 543.245 413.655 543.99 413.655C544.734 413.655 545.338 414.259 545.338 415.003C545.338 415.748 544.734 416.351 543.99 416.351C543.245 416.351 542.642 415.748 542.642 415.003Z" fill="#71869D"/>
<path d="M542.642 384.672C542.642 383.928 543.245 383.324 543.99 383.324C544.734 383.324 545.338 383.928 545.338 384.672C545.338 385.417 544.734 386.02 543.99 386.02C543.245 386.02 542.642 385.417 542.642 384.672Z" fill="#71869D"/>
<path d="M542.642 354.341C542.642 353.597 543.245 352.993 543.99 352.993C544.734 352.993 545.338 353.597 545.338 354.341C545.338 355.086 544.734 355.689 543.99 355.689C543.245 355.689 542.642 355.086 542.642 354.341Z" fill="#71869D"/>
<path d="M542.642 324.01C542.642 323.266 543.245 322.662 543.99 322.662C544.734 322.662 545.338 323.266 545.338 324.01C545.338 324.755 544.734 325.358 543.99 325.358C543.245 325.358 542.642 324.755 542.642 324.01Z" fill="#71869D"/>
<path d="M512.311 475.666C512.311 474.921 512.914 474.318 513.659 474.318C514.403 474.318 515.007 474.921 515.007 475.666C515.007 476.41 514.403 477.014 513.659 477.014C512.914 477.014 512.311 476.41 512.311 475.666Z" fill="#71869D"/>
<path d="M512.311 445.335C512.311 444.59 512.914 443.986 513.659 443.986C514.403 443.986 515.007 444.59 515.007 445.335C515.007 446.079 514.403 446.683 513.659 446.683C512.914 446.683 512.311 446.079 512.311 445.335Z" fill="#71869D"/>
<path d="M512.311 415.003C512.311 414.259 512.914 413.655 513.659 413.655C514.403 413.655 515.007 414.259 515.007 415.003C515.007 415.748 514.403 416.351 513.659 416.351C512.914 416.351 512.311 415.748 512.311 415.003Z" fill="#71869D"/>
<path d="M512.311 384.672C512.311 383.928 512.914 383.324 513.659 383.324C514.403 383.324 515.007 383.928 515.007 384.672C515.007 385.417 514.403 386.02 513.659 386.02C512.914 386.02 512.311 385.417 512.311 384.672Z" fill="#71869D"/>
<path d="M512.311 354.341C512.311 353.597 512.914 352.993 513.659 352.993C514.403 352.993 515.007 353.597 515.007 354.341C515.007 355.086 514.403 355.689 513.659 355.689C512.914 355.689 512.311 355.086 512.311 354.341Z" fill="#71869D"/>
<path d="M512.311 324.01C512.311 323.266 512.914 322.662 513.659 322.662C514.403 322.662 515.007 323.266 515.007 324.01C515.007 324.755 514.403 325.358 513.659 325.358C512.914 325.358 512.311 324.755 512.311 324.01Z" fill="#71869D"/>
<path d="M481.98 475.666C481.98 474.921 482.583 474.318 483.328 474.318C484.072 474.318 484.676 474.921 484.676 475.666C484.676 476.41 484.072 477.014 483.328 477.014C482.583 477.014 481.98 476.41 481.98 475.666Z" fill="#71869D"/>
<path d="M481.98 445.335C481.98 444.59 482.583 443.986 483.328 443.986C484.072 443.986 484.676 444.59 484.676 445.335C484.676 446.079 484.072 446.683 483.328 446.683C482.583 446.683 481.98 446.079 481.98 445.335Z" fill="#71869D"/>
<path d="M481.98 415.003C481.98 414.259 482.583 413.655 483.328 413.655C484.072 413.655 484.676 414.259 484.676 415.003C484.676 415.748 484.072 416.351 483.328 416.351C482.583 416.351 481.98 415.748 481.98 415.003Z" fill="#71869D"/>
<path d="M481.98 384.672C481.98 383.928 482.583 383.324 483.328 383.324C484.072 383.324 484.676 383.928 484.676 384.672C484.676 385.417 484.072 386.02 483.328 386.02C482.583 386.02 481.98 385.417 481.98 384.672Z" fill="#71869D"/>
<path d="M481.98 354.341C481.98 353.597 482.583 352.993 483.328 352.993C484.072 352.993 484.676 353.597 484.676 354.341C484.676 355.086 484.072 355.689 483.328 355.689C482.583 355.689 481.98 355.086 481.98 354.341Z" fill="#71869D"/>
<path d="M481.98 324.01C481.98 323.266 482.583 322.662 483.328 322.662C484.072 322.662 484.676 323.266 484.676 324.01C484.676 324.755 484.072 325.358 483.328 325.358C482.583 325.358 481.98 324.755 481.98 324.01Z" fill="#71869D"/>
<path d="M451.649 475.666C451.649 474.921 452.252 474.318 452.997 474.318C453.741 474.318 454.345 474.921 454.345 475.666C454.345 476.41 453.741 477.014 452.997 477.014C452.252 477.014 451.649 476.41 451.649 475.666Z" fill="#71869D"/>
<path d="M451.649 445.335C451.649 444.59 452.252 443.986 452.997 443.986C453.741 443.986 454.345 444.59 454.345 445.335C454.345 446.079 453.741 446.683 452.997 446.683C452.252 446.683 451.649 446.079 451.649 445.335Z" fill="#71869D"/>
<path d="M451.649 415.003C451.649 414.259 452.252 413.655 452.997 413.655C453.741 413.655 454.345 414.259 454.345 415.003C454.345 415.748 453.741 416.351 452.997 416.351C452.252 416.351 451.649 415.748 451.649 415.003Z" fill="#71869D"/>
<path d="M451.649 384.672C451.649 383.928 452.252 383.324 452.997 383.324C453.741 383.324 454.345 383.928 454.345 384.672C454.345 385.417 453.741 386.02 452.997 386.02C452.252 386.02 451.649 385.417 451.649 384.672Z" fill="#71869D"/>
<path d="M451.649 354.341C451.649 353.597 452.252 352.993 452.997 352.993C453.741 352.993 454.345 353.597 454.345 354.341C454.345 355.086 453.741 355.689 452.997 355.689C452.252 355.689 451.649 355.086 451.649 354.341Z" fill="#71869D"/>
<path d="M451.649 324.01C451.649 323.266 452.252 322.662 452.997 322.662C453.741 322.662 454.345 323.266 454.345 324.01C454.345 324.755 453.741 325.358 452.997 325.358C452.252 325.358 451.649 324.755 451.649 324.01Z" fill="#71869D"/>
<path d="M421.317 475.666C421.317 474.921 421.921 474.318 422.666 474.318C423.41 474.318 424.014 474.921 424.014 475.666C424.014 476.41 423.41 477.014 422.666 477.014C421.921 477.014 421.317 476.41 421.317 475.666Z" fill="#71869D"/>
<path d="M421.317 445.335C421.317 444.59 421.921 443.986 422.666 443.986C423.41 443.986 424.014 444.59 424.014 445.335C424.014 446.079 423.41 446.683 422.666 446.683C421.921 446.683 421.317 446.079 421.317 445.335Z" fill="#71869D"/>
<path d="M421.317 415.003C421.317 414.259 421.921 413.655 422.666 413.655C423.41 413.655 424.014 414.259 424.014 415.003C424.014 415.748 423.41 416.351 422.666 416.351C421.921 416.351 421.317 415.748 421.317 415.003Z" fill="#71869D"/>
<path d="M421.317 384.672C421.317 383.928 421.921 383.324 422.666 383.324C423.41 383.324 424.014 383.928 424.014 384.672C424.014 385.417 423.41 386.02 422.666 386.02C421.921 386.02 421.317 385.417 421.317 384.672Z" fill="#71869D"/>
<path d="M421.317 354.341C421.317 353.597 421.921 352.993 422.666 352.993C423.41 352.993 424.014 353.597 424.014 354.341C424.014 355.086 423.41 355.689 422.666 355.689C421.921 355.689 421.317 355.086 421.317 354.341Z" fill="#71869D"/>
<path d="M421.317 324.01C421.317 323.266 421.921 322.662 422.666 322.662C423.41 322.662 424.014 323.266 424.014 324.01C424.014 324.755 423.41 325.358 422.666 325.358C421.921 325.358 421.317 324.755 421.317 324.01Z" fill="#71869D"/>
<path d="M390.986 475.666C390.986 474.921 391.59 474.318 392.334 474.318C393.079 474.318 393.682 474.921 393.682 475.666C393.682 476.41 393.079 477.014 392.334 477.014C391.59 477.014 390.986 476.41 390.986 475.666Z" fill="#71869D"/>
<path d="M390.986 445.335C390.986 444.59 391.59 443.986 392.334 443.986C393.079 443.986 393.682 444.59 393.682 445.335C393.682 446.079 393.079 446.683 392.334 446.683C391.59 446.683 390.986 446.079 390.986 445.335Z" fill="#71869D"/>
<path d="M390.986 415.003C390.986 414.259 391.59 413.655 392.334 413.655C393.079 413.655 393.682 414.259 393.682 415.003C393.682 415.748 393.079 416.351 392.334 416.351C391.59 416.351 390.986 415.748 390.986 415.003Z" fill="#71869D"/>
<path d="M390.986 384.672C390.986 383.928 391.59 383.324 392.334 383.324C393.079 383.324 393.682 383.928 393.682 384.672C393.682 385.417 393.079 386.02 392.334 386.02C391.59 386.02 390.986 385.417 390.986 384.672Z" fill="#71869D"/>
<path d="M390.986 354.341C390.986 353.597 391.59 352.993 392.334 352.993C393.079 352.993 393.682 353.597 393.682 354.341C393.682 355.086 393.079 355.689 392.334 355.689C391.59 355.689 390.986 355.086 390.986 354.341Z" fill="#71869D"/>
<path d="M390.986 324.01C390.986 323.266 391.59 322.662 392.334 322.662C393.079 322.662 393.682 323.266 393.682 324.01C393.682 324.755 393.079 325.358 392.334 325.358C391.59 325.358 390.986 324.755 390.986 324.01Z" fill="#71869D"/>
<path d="M360.655 475.666C360.655 474.921 361.259 474.318 362.003 474.318C362.748 474.318 363.351 474.921 363.351 475.666C363.351 476.41 362.748 477.014 362.003 477.014C361.259 477.014 360.655 476.41 360.655 475.666Z" fill="#71869D"/>
<path d="M360.655 445.335C360.655 444.59 361.259 443.986 362.003 443.986C362.748 443.986 363.351 444.59 363.351 445.335C363.351 446.079 362.748 446.683 362.003 446.683C361.259 446.683 360.655 446.079 360.655 445.335Z" fill="#71869D"/>
<path d="M360.655 415.003C360.655 414.259 361.259 413.655 362.003 413.655C362.748 413.655 363.351 414.259 363.351 415.003C363.351 415.748 362.748 416.351 362.003 416.351C361.259 416.351 360.655 415.748 360.655 415.003Z" fill="#71869D"/>
<path d="M360.655 384.672C360.655 383.928 361.259 383.324 362.003 383.324C362.748 383.324 363.351 383.928 363.351 384.672C363.351 385.417 362.748 386.02 362.003 386.02C361.259 386.02 360.655 385.417 360.655 384.672Z" fill="#71869D"/>
<path d="M360.655 354.341C360.655 353.597 361.259 352.993 362.003 352.993C362.748 352.993 363.351 353.597 363.351 354.341C363.351 355.086 362.748 355.689 362.003 355.689C361.259 355.689 360.655 355.086 360.655 354.341Z" fill="#71869D"/>
<path d="M360.655 324.01C360.655 323.266 361.259 322.662 362.003 322.662C362.748 322.662 363.351 323.266 363.351 324.01C363.351 324.755 362.748 325.358 362.003 325.358C361.259 325.358 360.655 324.755 360.655 324.01Z" fill="#71869D"/>
<path d="M330.324 475.666C330.324 474.921 330.928 474.318 331.672 474.318C332.417 474.318 333.02 474.921 333.02 475.666C333.02 476.41 332.417 477.014 331.672 477.014C330.928 477.014 330.324 476.41 330.324 475.666Z" fill="#71869D"/>
<path d="M330.324 445.335C330.324 444.59 330.928 443.986 331.672 443.986C332.417 443.986 333.02 444.59 333.02 445.335C333.02 446.079 332.417 446.683 331.672 446.683C330.928 446.683 330.324 446.079 330.324 445.335Z" fill="#71869D"/>
<path d="M330.324 415.003C330.324 414.259 330.928 413.655 331.672 413.655C332.417 413.655 333.02 414.259 333.02 415.003C333.02 415.748 332.417 416.351 331.672 416.351C330.928 416.351 330.324 415.748 330.324 415.003Z" fill="#71869D"/>
<path d="M330.324 384.672C330.324 383.928 330.928 383.324 331.672 383.324C332.417 383.324 333.02 383.928 333.02 384.672C333.02 385.417 332.417 386.02 331.672 386.02C330.928 386.02 330.324 385.417 330.324 384.672Z" fill="#71869D"/>
<path d="M330.324 354.341C330.324 353.597 330.928 352.993 331.672 352.993C332.417 352.993 333.02 353.597 333.02 354.341C333.02 355.086 332.417 355.689 331.672 355.689C330.928 355.689 330.324 355.086 330.324 354.341Z" fill="#71869D"/>
<path d="M330.324 324.01C330.324 323.266 330.928 322.662 331.672 322.662C332.417 322.662 333.02 323.266 333.02 324.01C333.02 324.755 332.417 325.358 331.672 325.358C330.928 325.358 330.324 324.755 330.324 324.01Z" fill="#71869D"/>
<path d="M299.993 475.666C299.993 474.921 300.597 474.318 301.341 474.318C302.086 474.318 302.689 474.921 302.689 475.666C302.689 476.41 302.086 477.014 301.341 477.014C300.597 477.014 299.993 476.41 299.993 475.666Z" fill="#71869D"/>
<path d="M299.993 445.335C299.993 444.59 300.597 443.986 301.341 443.986C302.086 443.986 302.689 444.59 302.689 445.335C302.689 446.079 302.086 446.683 301.341 446.683C300.597 446.683 299.993 446.079 299.993 445.335Z" fill="#71869D"/>
<path d="M299.993 415.003C299.993 414.259 300.597 413.655 301.341 413.655C302.086 413.655 302.689 414.259 302.689 415.003C302.689 415.748 302.086 416.351 301.341 416.351C300.597 416.351 299.993 415.748 299.993 415.003Z" fill="#71869D"/>
<path d="M299.993 384.672C299.993 383.928 300.597 383.324 301.341 383.324C302.086 383.324 302.689 383.928 302.689 384.672C302.689 385.417 302.086 386.02 301.341 386.02C300.597 386.02 299.993 385.417 299.993 384.672Z" fill="#71869D"/>
<path d="M299.993 354.341C299.993 353.597 300.597 352.993 301.341 352.993C302.086 352.993 302.689 353.597 302.689 354.341C302.689 355.086 302.086 355.689 301.341 355.689C300.597 355.689 299.993 355.086 299.993 354.341Z" fill="#71869D"/>
<path d="M299.993 324.01C299.993 323.266 300.597 322.662 301.341 322.662C302.086 322.662 302.689 323.266 302.689 324.01C302.689 324.755 302.086 325.358 301.341 325.358C300.597 325.358 299.993 324.755 299.993 324.01Z" fill="#71869D"/>
<path d="M603.304 293.679C603.304 292.935 603.907 292.331 604.652 292.331C605.396 292.331 606 292.935 606 293.679C606 294.424 605.396 295.027 604.652 295.027C603.907 295.027 603.304 294.424 603.304 293.679Z" fill="#71869D"/>
<path d="M603.304 263.348C603.304 262.604 603.907 262 604.652 262C605.396 262 606 262.604 606 263.348C606 264.093 605.396 264.696 604.652 264.696C603.907 264.696 603.304 264.093 603.304 263.348Z" fill="#71869D"/>
<path d="M572.973 293.679C572.973 292.935 573.576 292.331 574.321 292.331C575.065 292.331 575.669 292.935 575.669 293.679C575.669 294.424 575.065 295.027 574.321 295.027C573.576 295.027 572.973 294.424 572.973 293.679Z" fill="#71869D"/>
<path d="M572.973 263.348C572.973 262.604 573.576 262 574.321 262C575.065 262 575.669 262.604 575.669 263.348C575.669 264.093 575.065 264.696 574.321 264.696C573.576 264.696 572.973 264.093 572.973 263.348Z" fill="#71869D"/>
<path d="M542.642 293.679C542.642 292.935 543.245 292.331 543.99 292.331C544.734 292.331 545.338 292.935 545.338 293.679C545.338 294.424 544.734 295.027 543.99 295.027C543.245 295.027 542.642 294.424 542.642 293.679Z" fill="#71869D"/>
<path d="M542.642 263.348C542.642 262.604 543.245 262 543.99 262C544.734 262 545.338 262.604 545.338 263.348C545.338 264.093 544.734 264.696 543.99 264.696C543.245 264.696 542.642 264.093 542.642 263.348Z" fill="#71869D"/>
<path d="M512.311 293.679C512.311 292.935 512.914 292.331 513.659 292.331C514.403 292.331 515.007 292.935 515.007 293.679C515.007 294.424 514.403 295.027 513.659 295.027C512.914 295.027 512.311 294.424 512.311 293.679Z" fill="#71869D"/>
<path d="M512.311 263.348C512.311 262.604 512.914 262 513.659 262C514.403 262 515.007 262.604 515.007 263.348C515.007 264.093 514.403 264.696 513.659 264.696C512.914 264.696 512.311 264.093 512.311 263.348Z" fill="#71869D"/>
<path d="M481.98 293.679C481.98 292.935 482.583 292.331 483.328 292.331C484.072 292.331 484.676 292.935 484.676 293.679C484.676 294.424 484.072 295.027 483.328 295.027C482.583 295.027 481.98 294.424 481.98 293.679Z" fill="#71869D"/>
<path d="M481.98 263.348C481.98 262.604 482.583 262 483.328 262C484.072 262 484.676 262.604 484.676 263.348C484.676 264.093 484.072 264.696 483.328 264.696C482.583 264.696 481.98 264.093 481.98 263.348Z" fill="#71869D"/>
<path d="M451.649 293.679C451.649 292.935 452.252 292.331 452.997 292.331C453.741 292.331 454.345 292.935 454.345 293.679C454.345 294.424 453.741 295.027 452.997 295.027C452.252 295.027 451.649 294.424 451.649 293.679Z" fill="#71869D"/>
<path d="M451.649 263.348C451.649 262.604 452.252 262 452.997 262C453.741 262 454.345 262.604 454.345 263.348C454.345 264.093 453.741 264.696 452.997 264.696C452.252 264.696 451.649 264.093 451.649 263.348Z" fill="#71869D"/>
<path d="M421.317 293.679C421.317 292.935 421.921 292.331 422.666 292.331C423.41 292.331 424.014 292.935 424.014 293.679C424.014 294.424 423.41 295.027 422.666 295.027C421.921 295.027 421.317 294.424 421.317 293.679Z" fill="#71869D"/>
<path d="M421.317 263.348C421.317 262.604 421.921 262 422.666 262C423.41 262 424.014 262.604 424.014 263.348C424.014 264.093 423.41 264.696 422.666 264.696C421.921 264.696 421.317 264.093 421.317 263.348Z" fill="#71869D"/>
<path d="M390.986 293.679C390.986 292.935 391.59 292.331 392.334 292.331C393.079 292.331 393.682 292.935 393.682 293.679C393.682 294.424 393.079 295.027 392.334 295.027C391.59 295.027 390.986 294.424 390.986 293.679Z" fill="#71869D"/>
<path d="M390.986 263.348C390.986 262.604 391.59 262 392.334 262C393.079 262 393.682 262.604 393.682 263.348C393.682 264.093 393.079 264.696 392.334 264.696C391.59 264.696 390.986 264.093 390.986 263.348Z" fill="#71869D"/>
<path d="M360.655 293.679C360.655 292.935 361.259 292.331 362.003 292.331C362.748 292.331 363.351 292.935 363.351 293.679C363.351 294.424 362.748 295.027 362.003 295.027C361.259 295.027 360.655 294.424 360.655 293.679Z" fill="#71869D"/>
<path d="M360.655 263.348C360.655 262.604 361.259 262 362.003 262C362.748 262 363.351 262.604 363.351 263.348C363.351 264.093 362.748 264.696 362.003 264.696C361.259 264.696 360.655 264.093 360.655 263.348Z" fill="#71869D"/>
<path d="M330.324 293.679C330.324 292.935 330.928 292.331 331.672 292.331C332.417 292.331 333.02 292.935 333.02 293.679C333.02 294.424 332.417 295.027 331.672 295.027C330.928 295.027 330.324 294.424 330.324 293.679Z" fill="#71869D"/>
<path d="M330.324 263.348C330.324 262.604 330.928 262 331.672 262C332.417 262 333.02 262.604 333.02 263.348C333.02 264.093 332.417 264.696 331.672 264.696C330.928 264.696 330.324 264.093 330.324 263.348Z" fill="#71869D"/>
<path d="M299.993 293.679C299.993 292.935 300.597 292.331 301.341 292.331C302.086 292.331 302.689 292.935 302.689 293.679C302.689 294.424 302.086 295.027 301.341 295.027C300.597 295.027 299.993 294.424 299.993 293.679Z" fill="#71869D"/>
<path d="M299.993 263.348C299.993 262.604 300.597 262 301.341 262C302.086 262 302.689 262.604 302.689 263.348C302.689 264.093 302.086 264.696 301.341 264.696C300.597 264.696 299.993 264.093 299.993 263.348Z" fill="#71869D"/>
<path d="M269.662 475.666C269.662 474.921 270.266 474.318 271.01 474.318C271.755 474.318 272.358 474.921 272.358 475.666C272.358 476.41 271.755 477.014 271.01 477.014C270.266 477.014 269.662 476.41 269.662 475.666Z" fill="#71869D"/>
<path d="M269.662 445.335C269.662 444.59 270.266 443.986 271.01 443.986C271.755 443.986 272.358 444.59 272.358 445.335C272.358 446.079 271.755 446.683 271.01 446.683C270.266 446.683 269.662 446.079 269.662 445.335Z" fill="#71869D"/>
<path d="M269.662 415.003C269.662 414.259 270.266 413.655 271.01 413.655C271.755 413.655 272.358 414.259 272.358 415.003C272.358 415.748 271.755 416.351 271.01 416.351C270.266 416.351 269.662 415.748 269.662 415.003Z" fill="#71869D"/>
<path d="M269.662 384.672C269.662 383.928 270.266 383.324 271.01 383.324C271.755 383.324 272.358 383.928 272.358 384.672C272.358 385.417 271.755 386.02 271.01 386.02C270.266 386.02 269.662 385.417 269.662 384.672Z" fill="#71869D"/>
<path d="M269.662 354.341C269.662 353.597 270.266 352.993 271.01 352.993C271.755 352.993 272.358 353.597 272.358 354.341C272.358 355.086 271.755 355.689 271.01 355.689C270.266 355.689 269.662 355.086 269.662 354.341Z" fill="#71869D"/>
<path d="M269.662 324.01C269.662 323.266 270.266 322.662 271.01 322.662C271.755 322.662 272.358 323.266 272.358 324.01C272.358 324.755 271.755 325.358 271.01 325.358C270.266 325.358 269.662 324.755 269.662 324.01Z" fill="#71869D"/>
<path d="M239.331 475.666C239.331 474.921 239.934 474.318 240.679 474.318C241.424 474.318 242.027 474.921 242.027 475.666C242.027 476.41 241.424 477.014 240.679 477.014C239.934 477.014 239.331 476.41 239.331 475.666Z" fill="#71869D"/>
<path d="M239.331 445.335C239.331 444.59 239.934 443.986 240.679 443.986C241.424 443.986 242.027 444.59 242.027 445.335C242.027 446.079 241.424 446.683 240.679 446.683C239.934 446.683 239.331 446.079 239.331 445.335Z" fill="#71869D"/>
<path d="M239.331 415.003C239.331 414.259 239.934 413.655 240.679 413.655C241.424 413.655 242.027 414.259 242.027 415.003C242.027 415.748 241.424 416.351 240.679 416.351C239.934 416.351 239.331 415.748 239.331 415.003Z" fill="#71869D"/>
<path d="M239.331 384.672C239.331 383.928 239.934 383.324 240.679 383.324C241.424 383.324 242.027 383.928 242.027 384.672C242.027 385.417 241.424 386.02 240.679 386.02C239.934 386.02 239.331 385.417 239.331 384.672Z" fill="#71869D"/>
<path d="M239.331 354.341C239.331 353.597 239.934 352.993 240.679 352.993C241.424 352.993 242.027 353.597 242.027 354.341C242.027 355.086 241.424 355.689 240.679 355.689C239.934 355.689 239.331 355.086 239.331 354.341Z" fill="#71869D"/>
<path d="M239.331 324.01C239.331 323.266 239.934 322.662 240.679 322.662C241.424 322.662 242.027 323.266 242.027 324.01C242.027 324.755 241.424 325.358 240.679 325.358C239.934 325.358 239.331 324.755 239.331 324.01Z" fill="#71869D"/>
<path d="M209 475.666C209 474.921 209.603 474.318 210.348 474.318C211.093 474.318 211.696 474.921 211.696 475.666C211.696 476.41 211.093 477.014 210.348 477.014C209.603 477.014 209 476.41 209 475.666Z" fill="#71869D"/>
<path d="M209 445.335C209 444.59 209.603 443.986 210.348 443.986C211.093 443.986 211.696 444.59 211.696 445.335C211.696 446.079 211.093 446.683 210.348 446.683C209.603 446.683 209 446.079 209 445.335Z" fill="#71869D"/>
<path d="M209 415.003C209 414.259 209.603 413.655 210.348 413.655C211.093 413.655 211.696 414.259 211.696 415.003C211.696 415.748 211.093 416.351 210.348 416.351C209.603 416.351 209 415.748 209 415.003Z" fill="#71869D"/>
<path d="M209 384.672C209 383.928 209.603 383.324 210.348 383.324C211.093 383.324 211.696 383.928 211.696 384.672C211.696 385.417 211.093 386.02 210.348 386.02C209.603 386.02 209 385.417 209 384.672Z" fill="#71869D"/>
<path d="M209 354.341C209 353.597 209.603 352.993 210.348 352.993C211.093 352.993 211.696 353.597 211.696 354.341C211.696 355.086 211.093 355.689 210.348 355.689C209.603 355.689 209 355.086 209 354.341Z" fill="#71869D"/>
<path d="M209 324.01C209 323.266 209.603 322.662 210.348 322.662C211.093 322.662 211.696 323.266 211.696 324.01C211.696 324.755 211.093 325.358 210.348 325.358C209.603 325.358 209 324.755 209 324.01Z" fill="#71869D"/>
<path d="M269.662 293.679C269.662 292.935 270.266 292.331 271.01 292.331C271.755 292.331 272.358 292.935 272.358 293.679C272.358 294.424 271.755 295.027 271.01 295.027C270.266 295.027 269.662 294.424 269.662 293.679Z" fill="#71869D"/>
<path d="M269.662 263.348C269.662 262.604 270.266 262 271.01 262C271.755 262 272.358 262.604 272.358 263.348C272.358 264.093 271.755 264.696 271.01 264.696C270.266 264.696 269.662 264.093 269.662 263.348Z" fill="#71869D"/>
<path d="M239.331 293.679C239.331 292.935 239.934 292.331 240.679 292.331C241.424 292.331 242.027 292.935 242.027 293.679C242.027 294.424 241.424 295.027 240.679 295.027C239.934 295.027 239.331 294.424 239.331 293.679Z" fill="#71869D"/>
<path d="M239.331 263.348C239.331 262.604 239.934 262 240.679 262C241.424 262 242.027 262.604 242.027 263.348C242.027 264.093 241.424 264.696 240.679 264.696C239.934 264.696 239.331 264.093 239.331 263.348Z" fill="#71869D"/>
<path d="M209 293.679C209 292.935 209.603 292.331 210.348 292.331C211.093 292.331 211.696 292.935 211.696 293.679C211.696 294.424 211.093 295.027 210.348 295.027C209.603 295.027 209 294.424 209 293.679Z" fill="#71869D"/>
<path d="M209 263.348C209 262.604 209.603 262 210.348 262C211.093 262 211.696 262.604 211.696 263.348C211.696 264.093 211.093 264.696 210.348 264.696C209.603 264.696 209 264.093 209 263.348Z" fill="#71869D"/>
</g>
<g filter="url(#filter0_d_49_1830)">
<path d="M551.654 151.306C553.677 137.991 543.371 126 529.904 126H65.5605C52.1054 126 41.8024 137.971 43.8057 151.276L90.1807 459.276C91.8014 470.04 101.05 478 111.935 478H483.091C493.965 478 503.207 470.056 504.841 459.306L551.654 151.306Z" fill="url(#paint0_linear_49_1830)"/>
</g>
<path d="M481 478H115C115 376.932 196.932 295 298 295C399.068 295 481 376.932 481 478Z" fill="#7093FF" fill-opacity="0.3"/>
<g filter="url(#filter1_d_49_1830)">
<rect x="100" y="82" width="100" height="100" rx="50" fill="white"/>
</g>
<path d="M130.594 113C128.058 113 126 115.016 126 117.5C126 118.916 126.679 120.248 127.838 121.101L148.663 136.402C149.754 137.199 151.246 137.199 152.338 136.402L173.162 121.101C174.321 120.248 175 118.916 175 117.5C175 115.016 172.942 113 170.406 113H130.594Z" fill="#70D4FF"/>
<path d="M126 125V144.118C126 147.362 128.747 150 132.125 150H168.875C172.253 150 175 147.362 175 144.118V125L154.175 140C151.993 141.572 149.007 141.572 146.825 140L126 125Z" fill="#7093FF"/>
<g filter="url(#filter2_d_49_1830)">
<rect x="391" y="82" width="100" height="100" rx="50" fill="white"/>
</g>
<path d="M452 157.176H442.031C439.886 157.176 439.127 155.727 439.127 153.955V136.045C439.127 134.273 439.886 133.368 442.031 133.368H452V130H442.031C438.708 130 436 132.267 436 135.045V154.972C436 157.733 438.708 160 442.031 160H452V157.176Z" fill="#70D4FF"/>
<path d="M458.437 130H452V133.5H455.218H458.437C458.756 133.5 459 132.636 459 132.159V130.841C459 130.364 458.756 130 458.437 130Z" fill="#7093FF"/>
<path d="M465.4 138C465.119 138 464.873 138.227 464.873 138.524V153.849C464.873 155.665 464.114 157.149 461.969 157.149H452V160H461.969C465.292 160 468 157.678 468 154.832V138.524C468 138.244 467.771 138 467.473 138H465.4Z" fill="#7093FF"/>
<path d="M450.01 154L439.789 146.85C438.932 146.25 438.744 145.099 439.37 144.278C439.996 143.457 441.197 143.276 442.054 143.877L449.203 148.878L462.537 131.741C463.171 130.925 464.376 130.758 465.227 131.365C466.078 131.973 466.253 133.127 465.619 133.941L450.012 154H450.01Z" fill="#7093FF"/>
<path d="M423.5 120C424.341 120 425 119.333 425 118.5C425 117.667 424.318 117 423.5 117C422.659 117 422 117.667 422 118.5C422 119.333 422.659 120 423.5 120Z" fill="#7093FF"/>
<path d="M435.5 120C436.341 120 437 119.333 437 118.5C437 117.667 436.318 117 435.5 117C434.66 117 434.001 117.667 434.001 118.5C433.978 119.333 434.66 120 435.5 120Z" fill="#7093FF"/>
<path d="M447.5 120C448.341 120 449 119.333 449 118.5C449 117.667 448.318 117 447.5 117C446.659 117 446 117.667 446 118.5C446 119.333 446.659 120 447.5 120Z" fill="#7093FF"/>
<path d="M423.5 128C424.341 128 425 127.333 425 126.5C425 125.667 424.318 125 423.5 125C422.659 125 422 125.667 422 126.5C422 127.333 422.659 128 423.5 128Z" fill="#7093FF"/>
<path d="M423.5 137C424.341 137 425 136.333 425 135.5C425 134.667 424.318 134 423.5 134C422.659 134 422 134.667 422 135.5C422 136.333 422.659 137 423.5 137Z" fill="#7093FF"/>
<path d="M452.615 107H419.385C415.872 107 413 109.879 413 113.401V140.599C413 144.121 415.872 147 419.385 147H437C436.308 146.049 435.718 145.021 435.256 143.915H419.385C417.564 143.915 416.077 142.424 416.077 140.599V113.401C416.077 111.576 417.564 110.085 419.385 110.085H452.615C454.436 110.085 455.923 111.576 455.923 113.401V130.64C457.128 131.566 458.154 130.265 459 131.55V113.401C459 109.879 456.128 107 452.615 107Z" fill="#7093FF"/>
<path d="M435.893 107H419.355C415.858 107 413 109.879 413 113.401V140.599C413 144.121 415.858 147 419.355 147H436.888C436.199 146.049 437.347 145.021 436.888 143.915H419.355C417.543 143.915 416.063 142.424 416.063 140.599V113.401C416.063 111.576 417.543 110.085 419.355 110.085H435.893V107Z" fill="#70D4FF"/>
<path d="M435.5 112C436.325 112 437 111.255 437 110.345V105.655C437 104.745 436.325 104 435.5 104C434.675 104 434 104.745 434 105.655V110.345C434 111.255 434.675 112 435.5 112Z" fill="#70D4FF"/>
<path d="M423.5 112C422.675 112 422 111.253 422 110.339V105.661C422 104.747 422.675 104 423.5 104C424.325 104 425 104.747 425 105.661V110.367C425 111.253 424.325 112 423.5 112Z" fill="#70D4FF"/>
<path d="M447.5 111C448.325 111 449 110.346 449 109.547V105.453C449 104.654 448.325 104 447.5 104C446.675 104 446 104.654 446 105.453V109.571C446 110.346 446.675 111 447.5 111Z" fill="#70D4FF"/>
<circle cx="144" cy="300" r="8" fill="#ACC1FF" fill-opacity="0.3"/>
<circle cx="400.5" cy="244.5" r="8.5" fill="#ACC1FF" fill-opacity="0.3"/>
<circle cx="464.5" cy="194.5" r="4.5" fill="#ACC1FF" fill-opacity="0.3"/>
<circle cx="402" cy="298" r="4" fill="#ACC1FF" fill-opacity="0.3"/>
<circle cx="370" cy="171" r="15" fill="#ACC1FF" fill-opacity="0.3"/>
<circle cx="448.5" cy="343.5" r="7.5" fill="#ACC1FF" fill-opacity="0.3"/>
<circle cx="228" cy="278" r="6" fill="#ACC1FF" fill-opacity="0.3"/>
<circle cx="243" cy="239" r="4" fill="#ACC1FF" fill-opacity="0.3"/>
<circle cx="458" cy="287" r="15" fill="#ACC1FF" fill-opacity="0.3"/>
<circle cx="137.5" cy="207.5" r="14.5" fill="#ACC1FF" fill-opacity="0.3"/>
<circle cx="234.5" cy="174.5" r="12.5" fill="#ACC1FF" fill-opacity="0.3"/>
<circle cx="179.5" cy="242.5" r="9.5" fill="#ACC1FF" fill-opacity="0.3"/>
<path d="M388 470H205V478H388V470Z" fill="#71869D"/>
<path d="M310.187 330.645L293.92 354.446L246.607 362.896L272.414 314.269C277.421 305.717 289.301 301.826 299.576 305.138C300.078 305.314 300.609 305.504 301.117 305.701C312.18 310.076 316.365 321.656 310.147 330.68L310.187 330.645Z" fill="#9F4445"/>
<path d="M376.166 317.91L374 351.672L255.234 351.672L279.832 320.764C279.832 320.764 282.158 315.676 299.314 307.603C312.442 301.44 308.455 302.317 328.268 303.599C348.585 304.913 344.908 302.572 359 307.603C376.634 313.841 376.166 317.91 376.166 317.91Z" fill="#D96062"/>
<path d="M343.493 312.217C343.493 312.217 332.698 324.578 313.363 322.925C294.028 321.271 303.246 298.878 305.763 297.92C308.279 296.962 307.601 290.373 330.495 293.393C355.798 296.73 343.493 312.217 343.493 312.217Z" fill="#FFD4BB"/>
<path d="M392.795 362.923L349.73 359.24L339.251 331.307C335.771 322.13 341.771 312.676 352.394 309.855C353.243 309.617 354.112 309.425 355.002 309.279C366.713 307.417 378.502 313.753 381.306 323.427L392.795 362.923Z" fill="#9F4445"/>
<path d="M316.383 292.689C305.612 307.219 298.202 315.039 292.664 319.355C285.007 325.322 275.361 326.705 267.329 337.054C263.963 330.74 273.933 315.546 281.402 311.77C282.462 309.124 271.755 313.153 271.755 313.153C274.869 304.59 285.278 299.874 289.995 294.847C296.915 287.471 299.338 269.159 307.315 255.538C307.398 255.413 307.525 255.313 307.655 255.192C308.727 262.435 312.296 272.783 317.319 281.733C316.899 283.86 318.078 290.406 316.383 292.689Z" fill="#662A1F"/>
<path d="M323.858 308.765C317.186 308.392 315.215 297.039 315.215 297.039L305.139 253.019L330.715 242.109L358.931 248.258C346.079 266.584 342.389 280.134 348.673 296.032C348.673 296.032 346.846 310.071 323.836 308.741L323.858 308.765Z" fill="#FEBCAC"/>
<path d="M368.933 255.418C365.026 259.526 356.637 263.585 346.722 266.844C327.119 273.292 308.789 276.612 299.464 270.971C293.518 267.383 293.211 257.782 295.864 247.117C296.701 243.64 297.869 240.012 299.253 236.448C303.646 225.218 305.012 220.424 310.717 215.645C312.805 213.881 319.05 202.497 321.887 200.575C324.982 198.496 328.538 198.778 332.516 197.555C344.729 193.801 351.029 194.965 363.922 202.763C389.635 218.331 380.57 243.2 368.934 255.396L368.933 255.418Z" fill="#FFD4BB"/>
<path d="M384.638 208.231C381.099 202.127 377.547 198.148 374.261 195.586C373.92 195.335 373.649 195.113 373.33 194.886C371.598 193.653 369.93 192.802 368.382 192.249C364.452 190.717 361.278 191.088 359.555 191.45C358.465 190.626 357.314 189.952 356.124 189.452C353.238 188.142 349.966 187.685 346.404 187.779C343.718 187.815 340.882 188.193 337.864 188.71C336.808 188.907 335.701 189.122 334.593 189.36C328.637 190.6 327.952 196.918 320.482 205.402C323.535 203.339 332.706 201.82 332.776 201.848C341.138 204.977 344.662 210.703 348.802 212.607C352.942 214.511 351.663 214.202 357.9 219.851C349.779 225.489 352.288 236.576 351.626 242.896C351.197 247.067 363.855 237.277 361.939 246.679C360.821 252.119 359.991 254.196 355.915 256.061C347.208 260.078 346.675 260.098 343.709 268.768C343.641 269.006 343.544 269.286 343.45 269.543C341.493 275.177 340.939 279.116 340.013 284.572C340.009 284.616 365.289 292.026 372.482 292.154C373.031 286.864 373.363 273.939 374.251 271.469C388.392 230.761 397.071 229.621 384.66 208.255L384.638 208.231Z" fill="#662A1F"/>
<path d="M385.359 338.574C385.359 338.574 378.42 332.304 373.646 333.172C370.481 341.702 356.204 356.322 355.188 357.951C355.188 357.951 345.807 346.919 340.913 345.774C338.144 345.119 338.839 352.659 338.472 354.674C329.922 349.3 320.037 341.877 332.571 321.167C342.946 304.058 337.446 289.22 340.595 282.009C348.196 277.973 354.825 273.348 360.184 269.054C364.571 274.423 373.376 283.074 372.607 290.357C372.607 290.357 375.089 296.642 377.931 311.537C380.772 326.433 384.868 329.225 385.359 338.574Z" fill="#662A1F"/>
<path d="M334.457 204.809C334.457 204.809 339.094 205.92 337.815 212.93C336.536 219.941 338.788 222.834 338.788 222.834C339.743 219.612 341.618 217.831 344.663 217.98C342.6 221.106 342.693 225.131 343.676 229.523C345.781 224.771 348.243 220.674 351.654 218.243C349.102 222.823 346.352 229.73 348.155 233.901C353.541 227.666 362.988 230.706 363.556 224.059C364.124 217.412 360.633 201.49 353.595 198.657C346.558 195.823 338.409 201.443 338.409 201.443C338.409 201.443 339.188 189.502 334.725 188.629C330.261 187.757 320.249 191.342 317.461 195.567C314.673 199.792 311.695 206.233 311.695 206.233C315.074 204.469 318.09 203.812 320.553 204.803C317.904 207.121 316.54 210.018 315.945 213.292C315.945 213.292 330.531 203.336 334.457 204.809Z" fill="#662A1F"/>
<g style="mix-blend-mode:color-dodge">
<path d="M296.5 467H388.687L530 279C530 279 405.3 140 296.5 140C187.7 140 64.5 279 64.5 279L204.313 467H296.5Z" fill="url(#paint1_linear_49_1830)"/>
</g>
<path d="M411 362.891C411 362.891 405.001 398.412 398.848 428.716C394.709 449.105 390.503 467.152 388.002 470.465C387.736 470.821 387.493 471 387.271 471H205.719C205.542 471 205.343 470.821 205.122 470.465C203.262 467.589 199.876 453.626 196.268 436.669C189.561 405.016 182.013 362.891 182.013 362.891C181.681 355.851 187.967 350 195.803 350H397.188C405.046 350 411.31 355.851 410.978 362.891H411Z" fill="#B8CDEB"/>
<path fill-rule="evenodd" clip-rule="evenodd" d="M289.219 414.627L282.406 431.016C281.588 432.985 279.101 434 276.852 433.283C274.603 432.567 273.444 430.389 274.263 428.42L281.075 412.031C281.894 410.062 284.38 409.047 286.629 409.764C288.878 410.48 290.037 412.658 289.219 414.627Z" fill="#4D648D"/>
<path fill-rule="evenodd" clip-rule="evenodd" d="M304.704 411.062L296.742 430.954C295.934 432.972 293.481 434.012 291.263 433.278C289.045 432.543 287.901 430.313 288.708 428.295L296.67 408.403C297.477 406.386 299.93 405.346 302.149 406.08C304.367 406.814 305.511 409.045 304.704 411.062Z" fill="#4D648D"/>
<path fill-rule="evenodd" clip-rule="evenodd" d="M320.185 409.07L311.168 431.027C310.362 432.987 307.916 433.998 305.704 433.284C303.492 432.571 302.351 430.403 303.157 428.443L312.174 406.486C312.98 404.526 315.426 403.515 317.638 404.229C319.85 404.942 320.991 407.11 320.185 409.07Z" fill="#4D648D"/>
<path fill-rule="evenodd" clip-rule="evenodd" d="M289.219 414.627L282.406 431.016C281.588 432.985 279.101 434 276.852 433.283C274.603 432.567 273.444 430.389 274.263 428.42L281.075 412.031C281.894 410.062 284.38 409.047 286.629 409.764C288.878 410.48 290.037 412.658 289.219 414.627Z" fill="url(#paint2_linear_49_1830)"/>
<path fill-rule="evenodd" clip-rule="evenodd" d="M304.704 411.062L296.742 430.954C295.934 432.972 293.481 434.012 291.263 433.278C289.045 432.543 287.901 430.313 288.708 428.295L296.67 408.403C297.477 406.386 299.93 405.346 302.149 406.08C304.367 406.814 305.511 409.045 304.704 411.062Z" fill="url(#paint3_linear_49_1830)"/>
<path fill-rule="evenodd" clip-rule="evenodd" d="M320.185 409.07L311.168 431.027C310.362 432.987 307.916 433.998 305.704 433.284C303.492 432.571 302.351 430.403 303.157 428.443L312.174 406.486C312.98 404.526 315.426 403.515 317.638 404.229C319.85 404.942 320.991 407.11 320.185 409.07Z" fill="url(#paint4_linear_49_1830)"/>
<g filter="url(#filter3_d_49_1830)">
<rect x="6" y="194" width="100" height="100" rx="50" fill="white"/>
</g>
<path d="M72.7798 256.395C69.9564 255.27 66.8553 255.948 64.7592 257.874L50.3116 249.72C51.3034 246.912 51.0654 243.946 49.862 241.421L63.5095 232.445C64.3493 233.274 65.3676 233.958 66.5313 234.424C71.1797 236.279 76.4827 234.023 78.3473 229.4C80.2119 224.777 77.9439 219.504 73.2956 217.649C68.6472 215.795 63.3442 218.05 61.4796 222.673C60.6795 224.653 60.6398 226.75 61.2217 228.651L47.1774 237.883C46.2715 237.101 45.2268 236.45 44.0498 235.976C38.4361 233.741 32.0355 236.456 29.7873 242.039C27.5392 247.622 30.27 253.988 35.8838 256.224C40.1685 257.933 44.9094 256.75 47.918 253.613L62.4979 261.84C61.7375 265.377 63.6285 269.06 67.1198 270.454C71.021 272.013 75.4644 270.119 77.0315 266.239C78.5986 262.359 76.6942 257.94 72.793 256.382L72.7798 256.395Z" fill="#7093FF"/>
<circle cx="70.5" cy="225.5" r="10.5" fill="#70D4FF"/>
<circle cx="40" cy="246" r="11" fill="#70D4FF"/>
<circle cx="70" cy="263" r="8" fill="#70D4FF"/>
<g filter="url(#filter4_d_49_1830)">
<rect x="249" y="40" width="100" height="100" rx="50" fill="white"/>
</g>
<path d="M298.08 120.48L282.52 103.93C274.05 99.89 269 93.12 269 85.77C269 73.76 282.55 64 299.21 64C315.87 64 329.42 73.76 329.42 85.77C329.42 97.78 315.87 107.54 299.21 107.54C298.85 107.54 298.46 107.54 298.08 107.53V120.49V120.48ZM299.21 67C284.21 67 272 75.42 272 85.77C272 92 276.5 97.82 284.05 101.34L284.31 101.46L295.08 112.92V104.38L296.67 104.48C297.4 104.52 298.37 104.55 299.21 104.55C314.21 104.55 326.42 96.13 326.42 85.78C326.42 75.43 314.21 67 299.21 67Z" fill="#70D4FF"/>
<path d="M286.18 83.01C285.31 83.01 284.54 83.35 284.01 83.97C283.55 84.5 283.3 85.21 283.3 85.96C283.3 87.39 284.31 88.91 286.18 88.91C287.05 88.91 287.82 88.57 288.35 87.95C288.81 87.41 289.06 86.71 289.06 85.96C289.06 84.53 288.05 83.01 286.18 83.01Z" fill="#7093FF"/>
<path d="M312.62 83.01C311.75 83.01 310.98 83.35 310.45 83.97C309.99 84.5 309.74 85.21 309.74 85.96C309.74 87.39 310.75 88.91 312.62 88.91C313.49 88.91 314.26 88.57 314.79 87.95C315.25 87.41 315.5 86.71 315.5 85.96C315.5 84.53 314.49 83.01 312.62 83.01Z" fill="#7093FF"/>
<path d="M299.59 83.01C298.72 83.01 297.95 83.35 297.42 83.97C296.96 84.5 296.71 85.21 296.71 85.96C296.71 87.39 297.72 88.91 299.59 88.91C300.46 88.91 301.23 88.57 301.76 87.95C302.22 87.41 302.47 86.71 302.47 85.96C302.47 84.53 301.46 83.01 299.59 83.01Z" fill="#7093FF"/>
<g filter="url(#filter5_d_49_1830)">
<rect x="490" y="194" width="100" height="100" rx="50" fill="white"/>
</g>
<path d="M545.405 219.334C545.405 217.49 543.886 216 542.005 216C540.125 216 538.606 217.49 538.606 219.334V244.616L530.808 236.97C529.48 235.668 527.324 235.668 525.996 236.97C524.668 238.272 524.668 240.387 525.996 241.689L539.594 255.023C540.922 256.326 543.078 256.326 544.406 255.023L558.004 241.689C559.332 240.387 559.332 238.272 558.004 236.97C556.676 235.668 554.52 235.668 553.192 236.97L545.405 244.616V219.334Z" fill="#70D4FF"/>
<path d="M562.25 253H551.545L546.767 257.813C544.13 260.469 539.859 260.469 537.222 257.813L532.455 253H521.75C518.027 253 515 256.049 515 259.8V263.2C515 266.951 518.027 270 521.75 270H562.25C565.973 270 569 266.951 569 263.2V259.8C569 256.049 565.973 253 562.25 253ZM560.562 264.05C559.16 264.05 558.031 262.913 558.031 261.5C558.031 260.087 559.16 258.95 560.562 258.95C561.965 258.95 563.094 260.087 563.094 261.5C563.094 262.913 561.965 264.05 560.562 264.05Z" fill="#7093FF"/>
<defs>
<filter id="filter0_d_49_1830" x="35.5559" y="126" width="516.352" height="360" filterUnits="userSpaceOnUse" color-interpolation-filters="sRGB">
<feFlood flood-opacity="0" result="BackgroundImageFix"/>
<feColorMatrix in="SourceAlpha" type="matrix" values="0 0 0 0 0 0 0 0 0 0 0 0 0 0 0 0 0 0 127 0" result="hardAlpha"/>
<feOffset dx="-4" dy="4"/>
<feGaussianBlur stdDeviation="2"/>
<feComposite in2="hardAlpha" operator="out"/>
<feColorMatrix type="matrix" values="0 0 0 0 0 0 0 0 0 0 0 0 0 0 0 0 0 0 0.15 0"/>
<feBlend mode="normal" in2="BackgroundImageFix" result="effect1_dropShadow_49_1830"/>
<feBlend mode="normal" in="SourceGraphic" in2="effect1_dropShadow_49_1830" result="shape"/>
</filter>
<filter id="filter1_d_49_1830" x="94" y="80" width="108" height="108" filterUnits="userSpaceOnUse" color-interpolation-filters="sRGB">
<feFlood flood-opacity="0" result="BackgroundImageFix"/>
<feColorMatrix in="SourceAlpha" type="matrix" values="0 0 0 0 0 0 0 0 0 0 0 0 0 0 0 0 0 0 127 0" result="hardAlpha"/>
<feMorphology radius="2" operator="dilate" in="SourceAlpha" result="effect1_dropShadow_49_1830"/>
<feOffset dx="-2" dy="2"/>
<feGaussianBlur stdDeviation="1"/>
<feComposite in2="hardAlpha" operator="out"/>
<feColorMatrix type="matrix" values="0 0 0 0 0 0 0 0 0 0 0 0 0 0 0 0 0 0 0.15 0"/>
<feBlend mode="normal" in2="BackgroundImageFix" result="effect1_dropShadow_49_1830"/>
<feBlend mode="normal" in="SourceGraphic" in2="effect1_dropShadow_49_1830" result="shape"/>
</filter>
<filter id="filter2_d_49_1830" x="385" y="80" width="108" height="108" filterUnits="userSpaceOnUse" color-interpolation-filters="sRGB">
<feFlood flood-opacity="0" result="BackgroundImageFix"/>
<feColorMatrix in="SourceAlpha" type="matrix" values="0 0 0 0 0 0 0 0 0 0 0 0 0 0 0 0 0 0 127 0" result="hardAlpha"/>
<feMorphology radius="2" operator="dilate" in="SourceAlpha" result="effect1_dropShadow_49_1830"/>
<feOffset dx="-2" dy="2"/>
<feGaussianBlur stdDeviation="1"/>
<feComposite in2="hardAlpha" operator="out"/>
<feColorMatrix type="matrix" values="0 0 0 0 0 0 0 0 0 0 0 0 0 0 0 0 0 0 0.15 0"/>
<feBlend mode="normal" in2="BackgroundImageFix" result="effect1_dropShadow_49_1830"/>
<feBlend mode="normal" in="SourceGraphic" in2="effect1_dropShadow_49_1830" result="shape"/>
</filter>
<filter id="filter3_d_49_1830" x="0" y="192" width="108" height="108" filterUnits="userSpaceOnUse" color-interpolation-filters="sRGB">
<feFlood flood-opacity="0" result="BackgroundImageFix"/>
<feColorMatrix in="SourceAlpha" type="matrix" values="0 0 0 0 0 0 0 0 0 0 0 0 0 0 0 0 0 0 127 0" result="hardAlpha"/>
<feMorphology radius="2" operator="dilate" in="SourceAlpha" result="effect1_dropShadow_49_1830"/>
<feOffset dx="-2" dy="2"/>
<feGaussianBlur stdDeviation="1"/>
<feComposite in2="hardAlpha" operator="out"/>
<feColorMatrix type="matrix" values="0 0 0 0 0 0 0 0 0 0 0 0 0 0 0 0 0 0 0.15 0"/>
<feBlend mode="normal" in2="BackgroundImageFix" result="effect1_dropShadow_49_1830"/>
<feBlend mode="normal" in="SourceGraphic" in2="effect1_dropShadow_49_1830" result="shape"/>
</filter>
<filter id="filter4_d_49_1830" x="243" y="38" width="108" height="108" filterUnits="userSpaceOnUse" color-interpolation-filters="sRGB">
<feFlood flood-opacity="0" result="BackgroundImageFix"/>
<feColorMatrix in="SourceAlpha" type="matrix" values="0 0 0 0 0 0 0 0 0 0 0 0 0 0 0 0 0 0 127 0" result="hardAlpha"/>
<feMorphology radius="2" operator="dilate" in="SourceAlpha" result="effect1_dropShadow_49_1830"/>
<feOffset dx="-2" dy="2"/>
<feGaussianBlur stdDeviation="1"/>
<feComposite in2="hardAlpha" operator="out"/>
<feColorMatrix type="matrix" values="0 0 0 0 0 0 0 0 0 0 0 0 0 0 0 0 0 0 0.15 0"/>
<feBlend mode="normal" in2="BackgroundImageFix" result="effect1_dropShadow_49_1830"/>
<feBlend mode="normal" in="SourceGraphic" in2="effect1_dropShadow_49_1830" result="shape"/>
</filter>
<filter id="filter5_d_49_1830" x="484" y="192" width="108" height="108" filterUnits="userSpaceOnUse" color-interpolation-filters="sRGB">
<feFlood flood-opacity="0" result="BackgroundImageFix"/>
<feColorMatrix in="SourceAlpha" type="matrix" values="0 0 0 0 0 0 0 0 0 0 0 0 0 0 0 0 0 0 127 0" result="hardAlpha"/>
<feMorphology radius="2" operator="dilate" in="SourceAlpha" result="effect1_dropShadow_49_1830"/>
<feOffset dx="-2" dy="2"/>
<feGaussianBlur stdDeviation="1"/>
<feComposite in2="hardAlpha" operator="out"/>
<feColorMatrix type="matrix" values="0 0 0 0 0 0 0 0 0 0 0 0 0 0 0 0 0 0 0.15 0"/>
<feBlend mode="normal" in2="BackgroundImageFix" result="effect1_dropShadow_49_1830"/>
<feBlend mode="normal" in="SourceGraphic" in2="effect1_dropShadow_49_1830" result="shape"/>
</filter>
<linearGradient id="paint0_linear_49_1830" x1="298" y1="478" x2="298" y2="126" gradientUnits="userSpaceOnUse">
<stop stop-color="#D9E2FF"/>
<stop offset="0.5" stop-color="#FDFDFD"/>
<stop offset="1" stop-color="white"/>
</linearGradient>
<linearGradient id="paint1_linear_49_1830" x1="296.5" y1="466.361" x2="296.5" y2="220.896" gradientUnits="userSpaceOnUse">
<stop stop-color="#7784B1"/>
<stop offset="0.78" stop-color="#9FBBF5" stop-opacity="0.11"/>
<stop offset="0.97" stop-color="#A3C0FB" stop-opacity="0"/>
</linearGradient>
<linearGradient id="paint2_linear_49_1830" x1="279.225" y1="404.225" x2="283.65" y2="414.745" gradientUnits="userSpaceOnUse">
<stop stop-color="#7093FF"/>
<stop offset="1" stop-color="#243F6D"/>
</linearGradient>
<linearGradient id="paint3_linear_49_1830" x1="294.022" y1="399.719" x2="299.408" y2="411.555" gradientUnits="userSpaceOnUse">
<stop stop-color="#7093FF"/>
<stop offset="1" stop-color="#243F6D"/>
</linearGradient>
<linearGradient id="paint4_linear_49_1830" x1="308.82" y1="397.467" x2="314.579" y2="410.074" gradientUnits="userSpaceOnUse">
<stop stop-color="#7093FF"/>
<stop offset="1" stop-color="#243F6D"/>
</linearGradient>
<clipPath id="clip0_49_1830">
<rect width="215.014" height="397" fill="white" transform="matrix(-1 8.74228e-08 8.74228e-08 1 299.014 0)"/>
</clipPath>
<clipPath id="clip1_49_1830">
<rect width="215.014" height="397" fill="white" transform="matrix(1.19249e-08 -1 -1 -1.19249e-08 606 477.014)"/>
</clipPath>
</defs>
</svg>
