<svg width="504" height="478" viewBox="0 0 504 478" fill="none" xmlns="http://www.w3.org/2000/svg">
<g filter="url(#filter0_d_103_1926)">
<path d="M430.49 145.32L417.56 456.58C417.25 464.08 411.08 470 403.57 470H22C14.27 470 8 463.74 8 456V77.59C8 68.92 15.8 62.33 24.35 63.79L130.87 81.92L310.18 112.44L418.85 130.94C425.8 132.12 430.78 138.28 430.49 145.32Z" fill="url(#paint0_linear_103_1926)"/>
</g>
<mask id="mask0_103_1926" style="mask-type:luminance" maskUnits="userSpaceOnUse" x="288" y="0" width="216" height="397">
<path d="M503.5 0H288.49V397H503.5V0Z" fill="white"/>
</mask>
<g mask="url(#mask0_103_1926)">
<path d="M502.15 2.7C501.41 2.7 500.8 2.1 500.8 1.35C500.8 0.6 501.4 0 502.15 0C502.9 0 503.5 0.6 503.5 1.35C503.5 2.1 502.9 2.7 502.15 2.7Z" fill="#71869D"/>
<path d="M471.82 2.7C471.07 2.7 470.47 2.1 470.47 1.35C470.47 0.6 471.07 0 471.82 0C472.57 0 473.17 0.6 473.17 1.35C473.17 2.1 472.57 2.7 471.82 2.7Z" fill="#71869D"/>
<path d="M441.49 2.7C440.75 2.7 440.14 2.1 440.14 1.35C440.14 0.6 440.74 0 441.49 0C442.24 0 442.84 0.6 442.84 1.35C442.84 2.1 442.24 2.7 441.49 2.7Z" fill="#71869D"/>
<path d="M411.16 2.7C410.42 2.7 409.81 2.1 409.81 1.35C409.81 0.6 410.41 0 411.16 0C411.91 0 412.51 0.6 412.51 1.35C412.51 2.1 411.91 2.7 411.16 2.7Z" fill="#71869D"/>
<path d="M380.83 2.7C380.09 2.7 379.48 2.1 379.48 1.35C379.48 0.6 380.08 0 380.83 0C381.58 0 382.18 0.6 382.18 1.35C382.18 2.1 381.58 2.7 380.83 2.7Z" fill="#71869D"/>
<path d="M350.5 2.7C349.76 2.7 349.15 2.1 349.15 1.35C349.15 0.6 349.75 0 350.5 0C351.25 0 351.85 0.6 351.85 1.35C351.85 2.1 351.25 2.7 350.5 2.7Z" fill="#71869D"/>
<path d="M502.15 33.03C501.41 33.03 500.8 32.43 500.8 31.68C500.8 30.93 501.4 30.33 502.15 30.33C502.9 30.33 503.5 30.93 503.5 31.68C503.5 32.43 502.9 33.03 502.15 33.03Z" fill="#71869D"/>
<path d="M471.82 33.03C471.07 33.03 470.47 32.43 470.47 31.68C470.47 30.93 471.07 30.33 471.82 30.33C472.57 30.33 473.17 30.93 473.17 31.68C473.17 32.43 472.57 33.03 471.82 33.03Z" fill="#71869D"/>
<path d="M441.49 33.03C440.75 33.03 440.14 32.43 440.14 31.68C440.14 30.93 440.74 30.33 441.49 30.33C442.24 30.33 442.84 30.93 442.84 31.68C442.84 32.43 442.24 33.03 441.49 33.03Z" fill="#71869D"/>
<path d="M411.16 33.03C410.42 33.03 409.81 32.43 409.81 31.68C409.81 30.93 410.41 30.33 411.16 30.33C411.91 30.33 412.51 30.93 412.51 31.68C412.51 32.43 411.91 33.03 411.16 33.03Z" fill="#71869D"/>
<path d="M380.83 33.03C380.09 33.03 379.48 32.43 379.48 31.68C379.48 30.93 380.08 30.33 380.83 30.33C381.58 30.33 382.18 30.93 382.18 31.68C382.18 32.43 381.58 33.03 380.83 33.03Z" fill="#71869D"/>
<path d="M350.5 33.03C349.76 33.03 349.15 32.43 349.15 31.68C349.15 30.93 349.75 30.33 350.5 30.33C351.25 30.33 351.85 30.93 351.85 31.68C351.85 32.43 351.25 33.03 350.5 33.03Z" fill="#71869D"/>
<path d="M502.15 63.36C501.41 63.36 500.8 62.76 500.8 62.01C500.8 61.26 501.4 60.66 502.15 60.66C502.9 60.66 503.5 61.26 503.5 62.01C503.5 62.76 502.9 63.36 502.15 63.36Z" fill="#71869D"/>
<path d="M471.82 63.36C471.07 63.36 470.47 62.76 470.47 62.01C470.47 61.26 471.07 60.66 471.82 60.66C472.57 60.66 473.17 61.26 473.17 62.01C473.17 62.76 472.57 63.36 471.82 63.36Z" fill="#71869D"/>
<path d="M441.49 63.36C440.75 63.36 440.14 62.76 440.14 62.01C440.14 61.26 440.74 60.66 441.49 60.66C442.24 60.66 442.84 61.26 442.84 62.01C442.84 62.76 442.24 63.36 441.49 63.36Z" fill="#71869D"/>
<path d="M411.16 63.36C410.42 63.36 409.81 62.76 409.81 62.01C409.81 61.26 410.41 60.66 411.16 60.66C411.91 60.66 412.51 61.26 412.51 62.01C412.51 62.76 411.91 63.36 411.16 63.36Z" fill="#71869D"/>
<path d="M380.83 63.36C380.09 63.36 379.48 62.76 379.48 62.01C379.48 61.26 380.08 60.66 380.83 60.66C381.58 60.66 382.18 61.26 382.18 62.01C382.18 62.76 381.58 63.36 380.83 63.36Z" fill="#71869D"/>
<path d="M350.5 63.36C349.76 63.36 349.15 62.76 349.15 62.01C349.15 61.26 349.75 60.66 350.5 60.66C351.25 60.66 351.85 61.26 351.85 62.01C351.85 62.76 351.25 63.36 350.5 63.36Z" fill="#71869D"/>
<path d="M502.15 93.69C501.41 93.69 500.8 93.09 500.8 92.34C500.8 91.59 501.4 90.99 502.15 90.99C502.9 90.99 503.5 91.59 503.5 92.34C503.5 93.09 502.9 93.69 502.15 93.69Z" fill="#71869D"/>
<path d="M471.82 93.69C471.07 93.69 470.47 93.09 470.47 92.34C470.47 91.59 471.07 90.99 471.82 90.99C472.57 90.99 473.17 91.59 473.17 92.34C473.17 93.09 472.57 93.69 471.82 93.69Z" fill="#71869D"/>
<path d="M441.49 93.69C440.75 93.69 440.14 93.09 440.14 92.34C440.14 91.59 440.74 90.99 441.49 90.99C442.24 90.99 442.84 91.59 442.84 92.34C442.84 93.09 442.24 93.69 441.49 93.69Z" fill="#71869D"/>
<path d="M411.16 93.69C410.42 93.69 409.81 93.09 409.81 92.34C409.81 91.59 410.41 90.99 411.16 90.99C411.91 90.99 412.51 91.59 412.51 92.34C412.51 93.09 411.91 93.69 411.16 93.69Z" fill="#71869D"/>
<path d="M380.83 93.69C380.09 93.69 379.48 93.09 379.48 92.34C379.48 91.59 380.08 90.99 380.83 90.99C381.58 90.99 382.18 91.59 382.18 92.34C382.18 93.09 381.58 93.69 380.83 93.69Z" fill="#71869D"/>
<path d="M350.5 93.69C349.76 93.69 349.15 93.09 349.15 92.34C349.15 91.59 349.75 90.99 350.5 90.99C351.25 90.99 351.85 91.59 351.85 92.34C351.85 93.09 351.25 93.69 350.5 93.69Z" fill="#71869D"/>
<path d="M502.15 124.02C501.41 124.02 500.8 123.42 500.8 122.67C500.8 121.92 501.4 121.32 502.15 121.32C502.9 121.32 503.5 121.92 503.5 122.67C503.5 123.42 502.9 124.02 502.15 124.02Z" fill="#71869D"/>
<path d="M471.82 124.02C471.07 124.02 470.47 123.42 470.47 122.67C470.47 121.92 471.07 121.32 471.82 121.32C472.57 121.32 473.17 121.92 473.17 122.67C473.17 123.42 472.57 124.02 471.82 124.02Z" fill="#71869D"/>
<path d="M441.49 124.02C440.75 124.02 440.14 123.42 440.14 122.67C440.14 121.92 440.74 121.32 441.49 121.32C442.24 121.32 442.84 121.92 442.84 122.67C442.84 123.42 442.24 124.02 441.49 124.02Z" fill="#71869D"/>
<path d="M411.16 124.02C410.42 124.02 409.81 123.42 409.81 122.67C409.81 121.92 410.41 121.32 411.16 121.32C411.91 121.32 412.51 121.92 412.51 122.67C412.51 123.42 411.91 124.02 411.16 124.02Z" fill="#71869D"/>
<path d="M380.83 124.02C380.09 124.02 379.48 123.42 379.48 122.67C379.48 121.92 380.08 121.32 380.83 121.32C381.58 121.32 382.18 121.92 382.18 122.67C382.18 123.42 381.58 124.02 380.83 124.02Z" fill="#71869D"/>
<path d="M350.5 124.02C349.76 124.02 349.15 123.42 349.15 122.67C349.15 121.92 349.75 121.32 350.5 121.32C351.25 121.32 351.85 121.92 351.85 122.67C351.85 123.42 351.25 124.02 350.5 124.02Z" fill="#71869D"/>
<path d="M502.15 154.35C501.41 154.35 500.8 153.75 500.8 153C500.8 152.25 501.4 151.65 502.15 151.65C502.9 151.65 503.5 152.25 503.5 153C503.5 153.75 502.9 154.35 502.15 154.35Z" fill="#71869D"/>
<path d="M471.82 154.35C471.07 154.35 470.47 153.75 470.47 153C470.47 152.25 471.07 151.65 471.82 151.65C472.57 151.65 473.17 152.25 473.17 153C473.17 153.75 472.57 154.35 471.82 154.35Z" fill="#71869D"/>
<path d="M441.49 154.35C440.75 154.35 440.14 153.75 440.14 153C440.14 152.25 440.74 151.65 441.49 151.65C442.24 151.65 442.84 152.25 442.84 153C442.84 153.75 442.24 154.35 441.49 154.35Z" fill="#71869D"/>
<path d="M411.16 154.35C410.42 154.35 409.81 153.75 409.81 153C409.81 152.25 410.41 151.65 411.16 151.65C411.91 151.65 412.51 152.25 412.51 153C412.51 153.75 411.91 154.35 411.16 154.35Z" fill="#71869D"/>
<path d="M380.83 154.35C380.09 154.35 379.48 153.75 379.48 153C379.48 152.25 380.08 151.65 380.83 151.65C381.58 151.65 382.18 152.25 382.18 153C382.18 153.75 381.58 154.35 380.83 154.35Z" fill="#71869D"/>
<path d="M350.5 154.35C349.76 154.35 349.15 153.75 349.15 153C349.15 152.25 349.75 151.65 350.5 151.65C351.25 151.65 351.85 152.25 351.85 153C351.85 153.75 351.25 154.35 350.5 154.35Z" fill="#71869D"/>
<path d="M502.15 184.68C501.41 184.68 500.8 184.08 500.8 183.33C500.8 182.58 501.4 181.98 502.15 181.98C502.9 181.98 503.5 182.58 503.5 183.33C503.5 184.08 502.9 184.68 502.15 184.68Z" fill="#71869D"/>
<path d="M471.82 184.68C471.07 184.68 470.47 184.08 470.47 183.33C470.47 182.58 471.07 181.98 471.82 181.98C472.57 181.98 473.17 182.58 473.17 183.33C473.17 184.08 472.57 184.68 471.82 184.68Z" fill="#71869D"/>
<path d="M441.49 184.68C440.75 184.68 440.14 184.08 440.14 183.33C440.14 182.58 440.74 181.98 441.49 181.98C442.24 181.98 442.84 182.58 442.84 183.33C442.84 184.08 442.24 184.68 441.49 184.68Z" fill="#71869D"/>
<path d="M411.16 184.68C410.42 184.68 409.81 184.08 409.81 183.33C409.81 182.58 410.41 181.98 411.16 181.98C411.91 181.98 412.51 182.58 412.51 183.33C412.51 184.08 411.91 184.68 411.16 184.68Z" fill="#71869D"/>
<path d="M380.83 184.68C380.09 184.68 379.48 184.08 379.48 183.33C379.48 182.58 380.08 181.98 380.83 181.98C381.58 181.98 382.18 182.58 382.18 183.33C382.18 184.08 381.58 184.68 380.83 184.68Z" fill="#71869D"/>
<path d="M350.5 184.68C349.76 184.68 349.15 184.08 349.15 183.33C349.15 182.58 349.75 181.98 350.5 181.98C351.25 181.98 351.85 182.58 351.85 183.33C351.85 184.08 351.25 184.68 350.5 184.68Z" fill="#71869D"/>
<path d="M502.15 215.01C501.41 215.01 500.8 214.41 500.8 213.66C500.8 212.91 501.4 212.31 502.15 212.31C502.9 212.31 503.5 212.91 503.5 213.66C503.5 214.41 502.9 215.01 502.15 215.01Z" fill="#71869D"/>
<path d="M471.82 215.01C471.07 215.01 470.47 214.41 470.47 213.66C470.47 212.91 471.07 212.31 471.82 212.31C472.57 212.31 473.17 212.91 473.17 213.66C473.17 214.41 472.57 215.01 471.82 215.01Z" fill="#71869D"/>
<path d="M441.49 215.01C440.75 215.01 440.14 214.41 440.14 213.66C440.14 212.91 440.74 212.31 441.49 212.31C442.24 212.31 442.84 212.91 442.84 213.66C442.84 214.41 442.24 215.01 441.49 215.01Z" fill="#71869D"/>
<path d="M411.16 215.01C410.42 215.01 409.81 214.41 409.81 213.66C409.81 212.91 410.41 212.31 411.16 212.31C411.91 212.31 412.51 212.91 412.51 213.66C412.51 214.41 411.91 215.01 411.16 215.01Z" fill="#71869D"/>
<path d="M380.83 215.01C380.09 215.01 379.48 214.41 379.48 213.66C379.48 212.91 380.08 212.31 380.83 212.31C381.58 212.31 382.18 212.91 382.18 213.66C382.18 214.41 381.58 215.01 380.83 215.01Z" fill="#71869D"/>
<path d="M350.5 215.01C349.76 215.01 349.15 214.41 349.15 213.66C349.15 212.91 349.75 212.31 350.5 212.31C351.25 212.31 351.85 212.91 351.85 213.66C351.85 214.41 351.25 215.01 350.5 215.01Z" fill="#71869D"/>
<path d="M502.15 245.35C501.41 245.35 500.8 244.75 500.8 244C500.8 243.25 501.4 242.65 502.15 242.65C502.9 242.65 503.5 243.25 503.5 244C503.5 244.75 502.9 245.35 502.15 245.35Z" fill="#71869D"/>
<path d="M471.82 245.35C471.07 245.35 470.47 244.75 470.47 244C470.47 243.25 471.07 242.65 471.82 242.65C472.57 242.65 473.17 243.25 473.17 244C473.17 244.75 472.57 245.35 471.82 245.35Z" fill="#71869D"/>
<path d="M441.49 245.35C440.75 245.35 440.14 244.75 440.14 244C440.14 243.25 440.74 242.65 441.49 242.65C442.24 242.65 442.84 243.25 442.84 244C442.84 244.75 442.24 245.35 441.49 245.35Z" fill="#71869D"/>
<path d="M411.16 245.35C410.42 245.35 409.81 244.75 409.81 244C409.81 243.25 410.41 242.65 411.16 242.65C411.91 242.65 412.51 243.25 412.51 244C412.51 244.75 411.91 245.35 411.16 245.35Z" fill="#71869D"/>
<path d="M380.83 245.35C380.09 245.35 379.48 244.75 379.48 244C379.48 243.25 380.08 242.65 380.83 242.65C381.58 242.65 382.18 243.25 382.18 244C382.18 244.75 381.58 245.35 380.83 245.35Z" fill="#71869D"/>
<path d="M350.5 245.35C349.76 245.35 349.15 244.75 349.15 244C349.15 243.25 349.75 242.65 350.5 242.65C351.25 242.65 351.85 243.25 351.85 244C351.85 244.75 351.25 245.35 350.5 245.35Z" fill="#71869D"/>
<path d="M502.15 275.68C501.41 275.68 500.8 275.08 500.8 274.33C500.8 273.58 501.4 272.98 502.15 272.98C502.9 272.98 503.5 273.58 503.5 274.33C503.5 275.08 502.9 275.68 502.15 275.68Z" fill="#71869D"/>
<path d="M471.82 275.68C471.07 275.68 470.47 275.08 470.47 274.33C470.47 273.58 471.07 272.98 471.82 272.98C472.57 272.98 473.17 273.58 473.17 274.33C473.17 275.08 472.57 275.68 471.82 275.68Z" fill="#71869D"/>
<path d="M441.49 275.68C440.75 275.68 440.14 275.08 440.14 274.33C440.14 273.58 440.74 272.98 441.49 272.98C442.24 272.98 442.84 273.58 442.84 274.33C442.84 275.08 442.24 275.68 441.49 275.68Z" fill="#71869D"/>
<path d="M411.16 275.68C410.42 275.68 409.81 275.08 409.81 274.33C409.81 273.58 410.41 272.98 411.16 272.98C411.91 272.98 412.51 273.58 412.51 274.33C412.51 275.08 411.91 275.68 411.16 275.68Z" fill="#71869D"/>
<path d="M380.83 275.68C380.09 275.68 379.48 275.08 379.48 274.33C379.48 273.58 380.08 272.98 380.83 272.98C381.58 272.98 382.18 273.58 382.18 274.33C382.18 275.08 381.58 275.68 380.83 275.68Z" fill="#71869D"/>
<path d="M350.5 275.68C349.76 275.68 349.15 275.08 349.15 274.33C349.15 273.58 349.75 272.98 350.5 272.98C351.25 272.98 351.85 273.58 351.85 274.33C351.85 275.08 351.25 275.68 350.5 275.68Z" fill="#71869D"/>
<path d="M502.15 306.01C501.41 306.01 500.8 305.41 500.8 304.66C500.8 303.91 501.4 303.31 502.15 303.31C502.9 303.31 503.5 303.91 503.5 304.66C503.5 305.41 502.9 306.01 502.15 306.01Z" fill="#71869D"/>
<path d="M471.82 306.01C471.07 306.01 470.47 305.41 470.47 304.66C470.47 303.91 471.07 303.31 471.82 303.31C472.57 303.31 473.17 303.91 473.17 304.66C473.17 305.41 472.57 306.01 471.82 306.01Z" fill="#71869D"/>
<path d="M441.49 306.01C440.75 306.01 440.14 305.41 440.14 304.66C440.14 303.91 440.74 303.31 441.49 303.31C442.24 303.31 442.84 303.91 442.84 304.66C442.84 305.41 442.24 306.01 441.49 306.01Z" fill="#71869D"/>
<path d="M411.16 306.01C410.42 306.01 409.81 305.41 409.81 304.66C409.81 303.91 410.41 303.31 411.16 303.31C411.91 303.31 412.51 303.91 412.51 304.66C412.51 305.41 411.91 306.01 411.16 306.01Z" fill="#71869D"/>
<path d="M380.83 306.01C380.09 306.01 379.48 305.41 379.48 304.66C379.48 303.91 380.08 303.31 380.83 303.31C381.58 303.31 382.18 303.91 382.18 304.66C382.18 305.41 381.58 306.01 380.83 306.01Z" fill="#71869D"/>
<path d="M350.5 306.01C349.76 306.01 349.15 305.41 349.15 304.66C349.15 303.91 349.75 303.31 350.5 303.31C351.25 303.31 351.85 303.91 351.85 304.66C351.85 305.41 351.25 306.01 350.5 306.01Z" fill="#71869D"/>
<path d="M320.17 2.7C319.43 2.7 318.82 2.1 318.82 1.35C318.82 0.6 319.42 0 320.17 0C320.92 0 321.52 0.6 321.52 1.35C321.52 2.1 320.92 2.7 320.17 2.7Z" fill="#71869D"/>
<path d="M289.84 2.7C289.1 2.7 288.49 2.1 288.49 1.35C288.49 0.6 289.09 0 289.84 0C290.59 0 291.19 0.6 291.19 1.35C291.19 2.1 290.59 2.7 289.84 2.7Z" fill="#71869D"/>
<path d="M320.17 33.03C319.43 33.03 318.82 32.43 318.82 31.68C318.82 30.93 319.42 30.33 320.17 30.33C320.92 30.33 321.52 30.93 321.52 31.68C321.52 32.43 320.92 33.03 320.17 33.03Z" fill="#71869D"/>
<path d="M289.84 33.03C289.1 33.03 288.49 32.43 288.49 31.68C288.49 30.93 289.09 30.33 289.84 30.33C290.59 30.33 291.19 30.93 291.19 31.68C291.19 32.43 290.59 33.03 289.84 33.03Z" fill="#71869D"/>
<path d="M320.17 63.36C319.43 63.36 318.82 62.76 318.82 62.01C318.82 61.26 319.42 60.66 320.17 60.66C320.92 60.66 321.52 61.26 321.52 62.01C321.52 62.76 320.92 63.36 320.17 63.36Z" fill="#71869D"/>
<path d="M289.84 63.36C289.1 63.36 288.49 62.76 288.49 62.01C288.49 61.26 289.09 60.66 289.84 60.66C290.59 60.66 291.19 61.26 291.19 62.01C291.19 62.76 290.59 63.36 289.84 63.36Z" fill="#71869D"/>
<path d="M320.17 93.69C319.43 93.69 318.82 93.09 318.82 92.34C318.82 91.59 319.42 90.99 320.17 90.99C320.92 90.99 321.52 91.59 321.52 92.34C321.52 93.09 320.92 93.69 320.17 93.69Z" fill="#71869D"/>
<path d="M289.84 93.69C289.1 93.69 288.49 93.09 288.49 92.34C288.49 91.59 289.09 90.99 289.84 90.99C290.59 90.99 291.19 91.59 291.19 92.34C291.19 93.09 290.59 93.69 289.84 93.69Z" fill="#71869D"/>
<path d="M320.17 124.02C319.43 124.02 318.82 123.42 318.82 122.67C318.82 121.92 319.42 121.32 320.17 121.32C320.92 121.32 321.52 121.92 321.52 122.67C321.52 123.42 320.92 124.02 320.17 124.02Z" fill="#71869D"/>
<path d="M289.84 124.02C289.1 124.02 288.49 123.42 288.49 122.67C288.49 121.92 289.09 121.32 289.84 121.32C290.59 121.32 291.19 121.92 291.19 122.67C291.19 123.42 290.59 124.02 289.84 124.02Z" fill="#71869D"/>
<path d="M320.17 154.35C319.43 154.35 318.82 153.75 318.82 153C318.82 152.25 319.42 151.65 320.17 151.65C320.92 151.65 321.52 152.25 321.52 153C321.52 153.75 320.92 154.35 320.17 154.35Z" fill="#71869D"/>
<path d="M289.84 154.35C289.1 154.35 288.49 153.75 288.49 153C288.49 152.25 289.09 151.65 289.84 151.65C290.59 151.65 291.19 152.25 291.19 153C291.19 153.75 290.59 154.35 289.84 154.35Z" fill="#71869D"/>
<path d="M320.17 184.68C319.43 184.68 318.82 184.08 318.82 183.33C318.82 182.58 319.42 181.98 320.17 181.98C320.92 181.98 321.52 182.58 321.52 183.33C321.52 184.08 320.92 184.68 320.17 184.68Z" fill="#71869D"/>
<path d="M289.84 184.68C289.1 184.68 288.49 184.08 288.49 183.33C288.49 182.58 289.09 181.98 289.84 181.98C290.59 181.98 291.19 182.58 291.19 183.33C291.19 184.08 290.59 184.68 289.84 184.68Z" fill="#71869D"/>
<path d="M320.17 215.01C319.43 215.01 318.82 214.41 318.82 213.66C318.82 212.91 319.42 212.31 320.17 212.31C320.92 212.31 321.52 212.91 321.52 213.66C321.52 214.41 320.92 215.01 320.17 215.01Z" fill="#71869D"/>
<path d="M289.84 215.01C289.1 215.01 288.49 214.41 288.49 213.66C288.49 212.91 289.09 212.31 289.84 212.31C290.59 212.31 291.19 212.91 291.19 213.66C291.19 214.41 290.59 215.01 289.84 215.01Z" fill="#71869D"/>
<path d="M320.17 245.35C319.43 245.35 318.82 244.75 318.82 244C318.82 243.25 319.42 242.65 320.17 242.65C320.92 242.65 321.52 243.25 321.52 244C321.52 244.75 320.92 245.35 320.17 245.35Z" fill="#71869D"/>
<path d="M289.84 245.35C289.1 245.35 288.49 244.75 288.49 244C288.49 243.25 289.09 242.65 289.84 242.65C290.59 242.65 291.19 243.25 291.19 244C291.19 244.75 290.59 245.35 289.84 245.35Z" fill="#71869D"/>
<path d="M320.17 275.68C319.43 275.68 318.82 275.08 318.82 274.33C318.82 273.58 319.42 272.98 320.17 272.98C320.92 272.98 321.52 273.58 321.52 274.33C321.52 275.08 320.92 275.68 320.17 275.68Z" fill="#71869D"/>
<path d="M289.84 275.68C289.1 275.68 288.49 275.08 288.49 274.33C288.49 273.58 289.09 272.98 289.84 272.98C290.59 272.98 291.19 273.58 291.19 274.33C291.19 275.08 290.59 275.68 289.84 275.68Z" fill="#71869D"/>
<path d="M320.17 306.01C319.43 306.01 318.82 305.41 318.82 304.66C318.82 303.91 319.42 303.31 320.17 303.31C320.92 303.31 321.52 303.91 321.52 304.66C321.52 305.41 320.92 306.01 320.17 306.01Z" fill="#71869D"/>
<path d="M289.84 306.01C289.1 306.01 288.49 305.41 288.49 304.66C288.49 303.91 289.09 303.31 289.84 303.31C290.59 303.31 291.19 303.91 291.19 304.66C291.19 305.41 290.59 306.01 289.84 306.01Z" fill="#71869D"/>
<path d="M502.15 336.34C501.41 336.34 500.8 335.74 500.8 334.99C500.8 334.24 501.4 333.64 502.15 333.64C502.9 333.64 503.5 334.24 503.5 334.99C503.5 335.74 502.9 336.34 502.15 336.34Z" fill="#71869D"/>
<path d="M471.82 336.34C471.07 336.34 470.47 335.74 470.47 334.99C470.47 334.24 471.07 333.64 471.82 333.64C472.57 333.64 473.17 334.24 473.17 334.99C473.17 335.74 472.57 336.34 471.82 336.34Z" fill="#71869D"/>
<path d="M441.49 336.34C440.75 336.34 440.14 335.74 440.14 334.99C440.14 334.24 440.74 333.64 441.49 333.64C442.24 333.64 442.84 334.24 442.84 334.99C442.84 335.74 442.24 336.34 441.49 336.34Z" fill="#71869D"/>
<path d="M411.16 336.34C410.42 336.34 409.81 335.74 409.81 334.99C409.81 334.24 410.41 333.64 411.16 333.64C411.91 333.64 412.51 334.24 412.51 334.99C412.51 335.74 411.91 336.34 411.16 336.34Z" fill="#71869D"/>
<path d="M380.83 336.34C380.09 336.34 379.48 335.74 379.48 334.99C379.48 334.24 380.08 333.64 380.83 333.64C381.58 333.64 382.18 334.24 382.18 334.99C382.18 335.74 381.58 336.34 380.83 336.34Z" fill="#71869D"/>
<path d="M350.5 336.34C349.76 336.34 349.15 335.74 349.15 334.99C349.15 334.24 349.75 333.64 350.5 333.64C351.25 333.64 351.85 334.24 351.85 334.99C351.85 335.74 351.25 336.34 350.5 336.34Z" fill="#71869D"/>
<path d="M502.15 366.67C501.41 366.67 500.8 366.07 500.8 365.32C500.8 364.57 501.4 363.97 502.15 363.97C502.9 363.97 503.5 364.57 503.5 365.32C503.5 366.07 502.9 366.67 502.15 366.67Z" fill="#71869D"/>
<path d="M471.82 366.67C471.07 366.67 470.47 366.07 470.47 365.32C470.47 364.57 471.07 363.97 471.82 363.97C472.57 363.97 473.17 364.57 473.17 365.32C473.17 366.07 472.57 366.67 471.82 366.67Z" fill="#71869D"/>
<path d="M441.49 366.67C440.75 366.67 440.14 366.07 440.14 365.32C440.14 364.57 440.74 363.97 441.49 363.97C442.24 363.97 442.84 364.57 442.84 365.32C442.84 366.07 442.24 366.67 441.49 366.67Z" fill="#71869D"/>
<path d="M411.16 366.67C410.42 366.67 409.81 366.07 409.81 365.32C409.81 364.57 410.41 363.97 411.16 363.97C411.91 363.97 412.51 364.57 412.51 365.32C412.51 366.07 411.91 366.67 411.16 366.67Z" fill="#71869D"/>
<path d="M380.83 366.67C380.09 366.67 379.48 366.07 379.48 365.32C379.48 364.57 380.08 363.97 380.83 363.97C381.58 363.97 382.18 364.57 382.18 365.32C382.18 366.07 381.58 366.67 380.83 366.67Z" fill="#71869D"/>
<path d="M350.5 366.67C349.76 366.67 349.15 366.07 349.15 365.32C349.15 364.57 349.75 363.97 350.5 363.97C351.25 363.97 351.85 364.57 351.85 365.32C351.85 366.07 351.25 366.67 350.5 366.67Z" fill="#71869D"/>
<path d="M502.15 397C501.41 397 500.8 396.4 500.8 395.65C500.8 394.9 501.4 394.3 502.15 394.3C502.9 394.3 503.5 394.9 503.5 395.65C503.5 396.4 502.9 397 502.15 397Z" fill="#71869D"/>
<path d="M471.82 397C471.07 397 470.47 396.4 470.47 395.65C470.47 394.9 471.07 394.3 471.82 394.3C472.57 394.3 473.17 394.9 473.17 395.65C473.17 396.4 472.57 397 471.82 397Z" fill="#71869D"/>
<path d="M441.49 397C440.75 397 440.14 396.4 440.14 395.65C440.14 394.9 440.74 394.3 441.49 394.3C442.24 394.3 442.84 394.9 442.84 395.65C442.84 396.4 442.24 397 441.49 397Z" fill="#71869D"/>
<path d="M411.16 397C410.42 397 409.81 396.4 409.81 395.65C409.81 394.9 410.41 394.3 411.16 394.3C411.91 394.3 412.51 394.9 412.51 395.65C412.51 396.4 411.91 397 411.16 397Z" fill="#71869D"/>
<path d="M380.83 397C380.09 397 379.48 396.4 379.48 395.65C379.48 394.9 380.08 394.3 380.83 394.3C381.58 394.3 382.18 394.9 382.18 395.65C382.18 396.4 381.58 397 380.83 397Z" fill="#71869D"/>
<path d="M350.5 397C349.76 397 349.15 396.4 349.15 395.65C349.15 394.9 349.75 394.3 350.5 394.3C351.25 394.3 351.85 394.9 351.85 395.65C351.85 396.4 351.25 397 350.5 397Z" fill="#71869D"/>
<path d="M320.17 336.34C319.43 336.34 318.82 335.74 318.82 334.99C318.82 334.24 319.42 333.64 320.17 333.64C320.92 333.64 321.52 334.24 321.52 334.99C321.52 335.74 320.92 336.34 320.17 336.34Z" fill="#71869D"/>
<path d="M289.84 336.34C289.1 336.34 288.49 335.74 288.49 334.99C288.49 334.24 289.09 333.64 289.84 333.64C290.59 333.64 291.19 334.24 291.19 334.99C291.19 335.74 290.59 336.34 289.84 336.34Z" fill="#71869D"/>
<path d="M320.17 366.67C319.43 366.67 318.82 366.07 318.82 365.32C318.82 364.57 319.42 363.97 320.17 363.97C320.92 363.97 321.52 364.57 321.52 365.32C321.52 366.07 320.92 366.67 320.17 366.67Z" fill="#71869D"/>
<path d="M289.84 366.67C289.1 366.67 288.49 366.07 288.49 365.32C288.49 364.57 289.09 363.97 289.84 363.97C290.59 363.97 291.19 364.57 291.19 365.32C291.19 366.07 290.59 366.67 289.84 366.67Z" fill="#71869D"/>
<path d="M320.17 397C319.43 397 318.82 396.4 318.82 395.65C318.82 394.9 319.42 394.3 320.17 394.3C320.92 394.3 321.52 394.9 321.52 395.65C321.52 396.4 320.92 397 320.17 397Z" fill="#71869D"/>
<path d="M289.84 397C289.1 397 288.49 396.4 288.49 395.65C288.49 394.9 289.09 394.3 289.84 394.3C290.59 394.3 291.19 394.9 291.19 395.65C291.19 396.4 290.59 397 289.84 397Z" fill="#71869D"/>
</g>
<path d="M430.49 145.32L424.47 290.14L423.31 318.26L417.56 456.58C417.25 464.08 411.08 470 403.57 470H263.83C263.74 469.83 263.65 469.67 263.56 469.5C246.06 437.53 223.92 417.2 183.01 406.02C93.1701 381.47 180.57 323.55 189.14 315.64C178.81 324.74 38.6201 400.57 106.98 255.69C129.43 208.12 134.47 158.5 130.9 112.94C130.9 112.84 130.88 95.84 130.87 81.92L310.18 112.44L418.85 130.94C425.8 132.12 430.78 138.28 430.49 145.32Z" fill="#BCCCFF"/>
<path style="mix-blend-mode:color-dodge" d="M424.47 290.14L423.31 318.26C369.72 318.24 322.01 318.2 322.01 318.2C316.22 318.39 314.03 318.54 317.07 315.08C319.08 312.79 322.59 311.03 325.52 310.35C339.97 306.96 352.96 311.18 366.66 312.42C376.65 313.33 379.92 303.65 385 296.75C391.54 287.88 400.8 285 411.56 286.65C413.19 286.9 418.8 288.8 424.47 290.14Z" fill="url(#paint1_linear_103_1926)"/>
<path d="M411.36 163.84L155.46 228.68L202.33 255.33L411.36 163.84Z" fill="white"/>
<path d="M411.36 163.84L202.33 255.33L193.29 311.07L411.36 163.84Z" fill="#DDDDDD"/>
<path d="M220.05 278.11L193.29 311.07L232.53 299.61L220.05 278.11Z" fill="#C3C3C3"/>
<path style="mix-blend-mode:multiply" d="M220.05 278.11L216.52 304.29L232.53 299.61L220.05 278.11Z" fill="#BABABA"/>
<path d="M256.58 341.63L220.05 278.11L411.36 163.84L256.58 341.63Z" fill="white"/>
<path d="M246.32 281.9C244.71 283.4 244.36 286.2 245.53 288.16L258.18 309.42C259.34 311.37 261.64 311.86 263.33 310.48L275.99 300.14C277.8 298.66 278.3 295.78 277.07 293.72L267.1 276.96L260.76 282.65C259.9 283.42 258.72 283.23 258.12 282.22L253.78 274.93L246.32 281.91V281.9ZM255.31 273.49L259.67 280.81L265.99 275.09L255.31 273.48V273.49ZM258.96 292.06L262.46 293.48V288.99C262.47 288.04 263.12 287.25 263.9 287.22C264.69 287.19 265.34 287.93 265.33 288.88L265.3 294.63L269.85 296.47C270.6 296.78 270.98 297.74 270.69 298.63C270.4 299.52 269.57 299.99 268.83 299.68L265.28 298.23L265.26 302.65C265.26 303.57 264.62 304.32 263.84 304.33C263.06 304.34 262.43 303.6 262.44 302.69V297.07L258.01 295.26C257.29 294.96 256.91 294.02 257.17 293.14C257.43 292.26 258.23 291.78 258.96 292.08V292.06Z" fill="#4D648D"/>
<path style="mix-blend-mode:color-dodge" d="M386.32 416.47C387.59 415.01 383.59 412.57 378.77 412.68C372.19 412.83 372.19 396.74 360.44 402.9C357.38 404.49 351.38 401.4 349.15 399.34C349.01 399.21 348.87 399.07 348.73 398.93C345.09 395.08 344.29 389.85 341.5 385.53C337.8 379.79 331.63 378.13 325.19 377.11C298.4 372.88 294.64 389.4 294.17 398.06C293.92 402.63 278.79 397 276.42 396.63C269.29 395.53 263.16 397.44 258.82 403.32C255.45 407.89 253.29 414.3 246.67 413.7C237.59 412.88 228.99 410.08 219.41 412.32C217.47 412.77 215.15 413.94 213.81 415.46C211.8 417.75 213.25 417.65 217.09 417.52C217.09 417.52 380.36 417.65 381.58 417.52C384.38 417.227 385.96 416.877 386.32 416.47Z" fill="url(#paint2_linear_103_1926)"/>
<path style="mix-blend-mode:color-dodge" d="M314.94 154.96C316.15 153.57 312.34 151.24 307.75 151.35C301.49 151.49 301.49 136.18 290.3 142.04C287.39 143.56 281.67 140.61 279.56 138.65C279.42 138.52 279.29 138.39 279.16 138.25C275.7 134.58 274.93 129.61 272.28 125.49C268.76 120.03 262.88 118.45 256.75 117.48C231.25 113.45 227.67 129.17 227.22 137.42C226.98 141.77 212.58 136.41 210.32 136.06C203.53 135.02 197.69 136.83 193.57 142.43C190.37 146.78 188.31 152.88 182.01 152.31C173.37 151.53 165.18 148.86 156.06 151C154.22 151.43 152 152.54 150.73 153.99C148.82 156.17 150.2 156.07 153.85 155.96C153.85 155.96 309.24 156.08 310.41 155.96C313.077 155.68 314.58 155.347 314.92 154.96H314.94Z" fill="url(#paint3_linear_103_1926)"/>
<path fill-rule="evenodd" clip-rule="evenodd" d="M34.2185 124.792C34.2185 123.803 35.2881 123 36.6076 123H60.4982C61.8176 123 62.8872 123.803 62.8872 124.792C62.8872 125.782 61.8176 126.584 60.4982 126.584H36.6076C35.2881 126.584 34.2185 125.782 34.2185 124.792Z" fill="url(#paint4_linear_103_1926)"/>
<path fill-rule="evenodd" clip-rule="evenodd" d="M29.4404 140.321C29.4404 139.331 30.4655 138.529 31.7299 138.529H54.6251C55.8896 138.529 56.9146 139.331 56.9146 140.321C56.9146 141.311 55.8896 142.113 54.6251 142.113H31.7299C30.4655 142.113 29.4404 141.311 29.4404 140.321Z" fill="url(#paint5_linear_103_1926)"/>
<path fill-rule="evenodd" clip-rule="evenodd" d="M34.2185 155.85C34.2185 154.86 35.2881 154.058 36.6076 154.058H60.4982C61.8176 154.058 62.8872 154.86 62.8872 155.85C62.8872 156.839 61.8176 157.642 60.4982 157.642H36.6076C35.2881 157.642 34.2185 156.839 34.2185 155.85Z" fill="url(#paint6_linear_103_1926)"/>
<path d="M109.998 140.435C109.998 140.408 109.998 140.38 109.996 140.352C109.995 140.242 109.992 140.131 109.988 140.022C109.981 139.821 109.972 139.622 109.96 139.423C109.956 139.332 109.95 139.241 109.943 139.151C109.94 139.098 109.936 139.046 109.931 138.994C109.931 138.985 109.93 138.977 109.929 138.968C109.921 138.847 109.911 138.725 109.899 138.603C109.886 138.469 109.873 138.336 109.858 138.203C109.842 138.055 109.826 137.909 109.806 137.764C109.8 137.71 109.793 137.657 109.785 137.604C109.775 137.519 109.763 137.433 109.749 137.35C109.745 137.314 109.74 137.278 109.734 137.242C109.718 137.131 109.701 137.021 109.682 136.911C109.661 136.783 109.639 136.657 109.616 136.53C109.604 136.458 109.59 136.387 109.578 136.315C109.572 136.286 109.566 136.256 109.559 136.226C109.525 136.047 109.489 135.869 109.45 135.692C109.429 135.594 109.407 135.496 109.384 135.399C109.34 135.205 109.292 135.011 109.242 134.818C109.221 134.738 109.2 134.658 109.179 134.578C109.168 134.536 109.157 134.495 109.146 134.454C109.126 134.383 109.106 134.312 109.087 134.243C109.032 134.051 108.976 133.861 108.917 133.673C108.83 133.389 108.737 133.108 108.637 132.829C108.605 132.736 108.571 132.644 108.538 132.551C108.472 132.365 108.401 132.182 108.328 131.999C108.292 131.908 108.256 131.817 108.219 131.727C108.144 131.545 108.068 131.363 107.989 131.185C107.954 131.105 107.919 131.025 107.883 130.946C107.868 130.913 107.854 130.881 107.839 130.848C107.809 130.782 107.779 130.716 107.747 130.65C107.702 130.552 107.656 130.455 107.608 130.357C107.572 130.283 107.536 130.209 107.499 130.134C107.496 130.126 107.491 130.118 107.486 130.11C107.446 130.028 107.405 129.945 107.363 129.864C107.306 129.754 107.249 129.644 107.19 129.534C107.125 129.411 107.059 129.29 106.992 129.168C106.978 129.141 106.963 129.116 106.948 129.089C106.892 128.99 106.835 128.892 106.779 128.794C106.567 128.427 106.345 128.068 106.114 127.714H106.116C104.754 125.615 103.075 123.745 101.147 122.166C101.039 122.077 100.93 121.99 100.82 121.903C100.726 121.828 100.632 121.755 100.537 121.682C100.535 121.68 100.531 121.678 100.528 121.675C100.431 121.602 100.334 121.528 100.236 121.456C100.123 121.371 100.009 121.288 99.8928 121.205C99.7953 121.136 99.6978 121.066 99.5992 120.999C99.5864 120.988 99.5725 120.979 99.5586 120.971C99.4576 120.9 99.3555 120.832 99.2534 120.763C99.0468 120.625 98.839 120.49 98.6278 120.359C98.557 120.315 98.4862 120.271 98.4155 120.227C98.398 120.216 98.3795 120.206 98.3621 120.194C98.2855 120.148 98.2077 120.103 98.13 120.056C97.9628 119.957 97.7946 119.86 97.6251 119.766C97.5532 119.726 97.4812 119.686 97.4093 119.647C97.3895 119.635 97.3686 119.625 97.3489 119.614C97.1226 119.491 96.8951 119.373 96.6642 119.258C96.5354 119.193 96.4042 119.128 96.2731 119.066C96.2545 119.057 96.236 119.048 96.2174 119.04C96.1605 119.012 96.1025 118.985 96.0456 118.958C95.9922 118.934 95.94 118.91 95.8866 118.885C95.853 118.869 95.8193 118.854 95.7857 118.84C95.7706 118.832 95.7555 118.825 95.7393 118.819C95.6812 118.793 95.6232 118.766 95.5652 118.741C95.5187 118.721 95.4723 118.701 95.4259 118.681C95.4097 118.673 95.3934 118.666 95.3772 118.659C95.289 118.621 95.2008 118.584 95.1114 118.548C95.087 118.537 95.0627 118.527 95.0394 118.517C94.9756 118.491 94.9129 118.465 94.8491 118.44C94.8236 118.429 94.7981 118.419 94.7725 118.41C94.7377 118.396 94.7029 118.382 94.6669 118.368C94.4812 118.295 94.2955 118.225 94.1075 118.158C94.0333 118.13 93.9578 118.103 93.8824 118.076C93.8464 118.063 93.8093 118.05 93.7721 118.038C93.7048 118.015 93.6387 117.992 93.5714 117.97C93.4692 117.935 93.3671 117.901 93.265 117.869C93.1942 117.844 93.1222 117.822 93.0514 117.801C92.9609 117.772 92.8692 117.745 92.7776 117.718C92.6882 117.691 92.6 117.664 92.5106 117.639C92.3992 117.608 92.2878 117.576 92.1752 117.546C91.841 117.454 91.5021 117.371 91.1609 117.295C91.0379 117.268 90.9149 117.241 90.7919 117.215C90.5725 117.169 90.352 117.127 90.1304 117.088C90.0143 117.068 89.8994 117.048 89.7834 117.028C89.6812 117.012 89.578 116.996 89.4747 116.98C89.4515 116.976 89.4282 116.973 89.405 116.97C89.2983 116.954 89.1915 116.939 89.0836 116.925C88.9675 116.909 88.8491 116.895 88.7319 116.881C88.624 116.868 88.5172 116.856 88.4081 116.845C88.3849 116.842 88.3606 116.839 88.3373 116.838C88.2538 116.829 88.1691 116.821 88.0855 116.813C88.0344 116.808 87.9845 116.803 87.9335 116.8C87.858 116.793 87.7826 116.787 87.7072 116.781C87.6607 116.778 87.6143 116.774 87.5679 116.772C87.4913 116.766 87.4147 116.76 87.3381 116.757C87.106 116.742 86.8739 116.731 86.6395 116.724C86.5107 116.72 86.3818 116.716 86.2519 116.715C86.123 116.713 85.9931 116.712 85.8631 116.712C85.7575 116.712 85.653 116.713 85.5474 116.714C85.465 116.715 85.3826 116.716 85.3002 116.719C85.27 116.719 85.2387 116.72 85.2074 116.721C85.111 116.723 85.0147 116.726 84.9184 116.73C84.8151 116.734 84.7107 116.738 84.6062 116.744C84.5203 116.748 84.4356 116.753 84.3509 116.758C84.301 116.762 84.2511 116.765 84.2012 116.769C84.1362 116.772 84.0724 116.777 84.0085 116.782C83.9122 116.789 83.8147 116.798 83.7184 116.806C83.6012 116.816 83.484 116.828 83.3668 116.839C83.2635 116.85 83.1613 116.861 83.0592 116.873C82.9977 116.88 82.9362 116.887 82.8758 116.895C82.6751 116.919 82.4755 116.946 82.277 116.976C82.1749 116.991 82.0728 117.008 81.9718 117.024C81.8662 117.04 81.7617 117.059 81.6573 117.077C81.6422 117.08 81.6271 117.082 81.6132 117.084C81.518 117.102 81.424 117.119 81.33 117.138C80.6256 117.27 79.9316 117.435 79.2503 117.628C79.1447 117.659 79.0379 117.69 78.9323 117.721C78.9196 117.725 78.9068 117.729 78.8929 117.733C78.7327 117.782 78.5726 117.832 78.4136 117.884C78.3822 117.893 78.3509 117.904 78.3196 117.914C78.2244 117.944 78.1304 117.977 78.0364 118.009C77.9412 118.04 77.8472 118.074 77.7532 118.108C77.6708 118.137 77.5884 118.167 77.506 118.198C77.441 118.222 77.3761 118.245 77.3122 118.27C77.2055 118.31 77.0998 118.352 76.9942 118.393C76.92 118.422 76.8457 118.451 76.7726 118.483C76.6356 118.537 76.4998 118.594 76.3652 118.652C76.2608 118.696 76.1575 118.741 76.053 118.788C75.9498 118.834 75.8476 118.881 75.7443 118.928C75.6503 118.971 75.5552 119.016 75.4612 119.062C75.2499 119.162 75.0399 119.266 74.8322 119.374C74.7323 119.425 74.6325 119.477 74.5327 119.531C74.2554 119.677 73.9815 119.83 73.7111 119.988C73.6902 120.001 73.6705 120.012 73.6496 120.024C73.5985 120.054 73.5474 120.084 73.4975 120.114C73.3432 120.207 73.1888 120.301 73.0356 120.398C72.9567 120.447 72.8778 120.497 72.7989 120.548C72.7954 120.551 72.7908 120.553 72.785 120.557C72.6817 120.624 72.5784 120.691 72.4751 120.761C72.2279 120.926 71.983 121.096 71.7416 121.27C71.7219 121.284 71.7022 121.299 71.6825 121.313C71.6616 121.328 71.6407 121.345 71.6198 121.36C71.556 121.406 71.4921 121.452 71.4295 121.5C71.4237 121.504 71.4179 121.508 71.4121 121.513C71.3679 121.545 71.3238 121.579 71.2797 121.613C71.2345 121.646 71.1892 121.681 71.1451 121.716C71.0894 121.759 71.0337 121.802 70.978 121.846C70.971 121.851 70.9652 121.855 70.9594 121.86C70.9119 121.897 70.8643 121.935 70.8167 121.974C70.7784 122.004 70.7401 122.034 70.7018 122.065L70.6635 122.097C70.6438 122.11 70.624 122.127 70.6043 122.144C70.5776 122.165 70.5498 122.187 70.5231 122.211C70.5126 122.22 70.5022 122.228 70.4929 122.236C70.4488 122.272 70.4059 122.308 70.3629 122.344C70.2608 122.43 70.1587 122.517 70.0577 122.605C70.0368 122.622 70.0171 122.64 69.9974 122.657C69.9707 122.68 69.9451 122.702 69.9184 122.727C69.8534 122.784 69.7885 122.842 69.7235 122.9C69.7153 122.907 69.7072 122.915 69.6991 122.922C69.6782 122.94 69.6573 122.959 69.6364 122.979C69.6074 123.004 69.5796 123.03 69.5517 123.056C69.5285 123.076 69.5064 123.097 69.4832 123.119C69.4449 123.154 69.4055 123.19 69.3672 123.227C69.3486 123.243 69.3312 123.261 69.3126 123.278C69.2465 123.34 69.1815 123.402 69.1165 123.465C69.084 123.495 69.0527 123.526 69.0202 123.558C68.9935 123.583 68.968 123.609 68.9413 123.637C68.9331 123.642 68.9262 123.651 68.9181 123.659C68.8275 123.747 68.7382 123.836 68.65 123.927C68.6465 123.929 68.6442 123.933 68.6407 123.936C68.5861 123.992 68.5316 124.047 68.477 124.104C68.3877 124.197 68.2983 124.29 68.2113 124.385C68.1846 124.413 68.1591 124.442 68.1324 124.47C68.0152 124.596 67.9003 124.724 67.7865 124.853C67.754 124.89 67.7204 124.927 67.6879 124.964C67.5776 125.091 67.4685 125.218 67.3606 125.347C67.1935 125.545 67.031 125.744 66.872 125.947C66.6318 126.251 66.3997 126.561 66.1769 126.877C66.0921 126.995 66.0097 127.115 65.9273 127.234C65.7626 127.473 65.6036 127.717 65.448 127.962C65.3703 128.085 65.2937 128.209 65.2183 128.333C65.0163 128.665 64.8225 129.003 64.6368 129.344C64.5451 129.514 64.4558 129.683 64.3676 129.855L64.3641 129.862C64.2759 130.035 64.1889 130.21 64.1041 130.385C64.0566 130.483 64.0101 130.581 63.9649 130.68C63.9312 130.753 63.8976 130.825 63.8639 130.898C63.8581 130.912 63.8511 130.926 63.8453 130.941C63.8082 131.022 63.7722 131.104 63.7374 131.185C63.698 131.274 63.6585 131.365 63.6202 131.455C63.5831 131.545 63.5448 131.635 63.5076 131.727C63.4705 131.817 63.4345 131.908 63.3985 131.999C63.3626 132.091 63.3266 132.183 63.2918 132.274C63.2523 132.378 63.214 132.482 63.1757 132.587C63.1467 132.667 63.1177 132.748 63.0887 132.829C63.055 132.924 63.0214 133.021 62.99 133.117C62.9587 133.208 62.9285 133.298 62.8995 133.39C62.8682 133.484 62.838 133.578 62.809 133.673C62.78 133.767 62.751 133.862 62.7231 133.956C62.6976 134.042 62.672 134.128 62.6477 134.214C62.6128 134.336 62.5792 134.457 62.5455 134.58C62.5049 134.736 62.4643 134.894 62.4248 135.05C62.3715 135.271 62.3192 135.491 62.2717 135.714C62.2519 135.805 62.2334 135.895 62.2148 135.986C62.1951 136.079 62.1765 136.172 62.1591 136.264C62.1568 136.278 62.1533 136.292 62.151 136.305C62.1347 136.391 62.1185 136.477 62.1034 136.563C62.0848 136.667 62.0674 136.77 62.05 136.876C62.0361 136.96 62.0221 137.043 62.0094 137.127C61.9711 137.375 61.9363 137.625 61.9061 137.876C61.8968 137.944 61.8887 138.011 61.8817 138.079C61.8608 138.259 61.8423 138.44 61.8248 138.621C61.8179 138.704 61.8109 138.786 61.8051 138.869C61.7958 138.977 61.7877 139.085 61.7807 139.194C61.7738 139.277 61.7691 139.362 61.7645 139.447C61.7575 139.563 61.7517 139.68 61.7471 139.797C61.7436 139.867 61.7413 139.936 61.739 140.006C61.732 140.184 61.7285 140.361 61.7262 140.539C61.725 140.643 61.7239 140.746 61.7239 140.851C61.7239 143.351 62.1034 145.762 62.809 148.03C62.8682 148.219 62.9285 148.407 62.9923 148.593C63.1815 149.155 63.3916 149.706 63.6202 150.248C63.6968 150.428 63.7757 150.608 63.8558 150.785C64.0171 151.143 64.1877 151.494 64.3641 151.841C64.4535 152.015 64.544 152.187 64.6368 152.358C64.7761 152.613 64.92 152.867 65.0685 153.117C65.1185 153.201 65.1684 153.285 65.2183 153.368C65.3691 153.617 65.5246 153.862 65.6848 154.104C65.7382 154.185 65.7927 154.267 65.8461 154.348C65.9552 154.508 66.0655 154.666 66.1769 154.824C66.2894 154.983 66.4043 155.138 66.5192 155.293C66.6353 155.448 66.7536 155.601 66.872 155.753C67.096 156.04 67.327 156.32 67.5625 156.594C67.7204 156.776 67.8805 156.957 68.043 157.134C68.2066 157.313 68.3714 157.488 68.5397 157.661C68.708 157.834 68.8786 158.005 69.0515 158.173C69.2244 158.341 69.3997 158.506 69.5784 158.67C69.756 158.832 69.937 158.992 70.1192 159.15C70.3931 159.386 70.6728 159.617 70.9583 159.841H70.9594C71.1115 159.959 71.2647 160.077 71.419 160.194H71.4202C71.5745 160.308 71.73 160.423 71.8879 160.536H71.889C72.0469 160.647 72.2047 160.758 72.3649 160.867C72.4461 160.92 72.5273 160.975 72.6086 161.028C72.8511 161.188 73.096 161.344 73.3443 161.495C73.4279 161.544 73.5115 161.594 73.5962 161.644C73.8457 161.793 74.0999 161.937 74.3552 162.076C74.5258 162.169 74.6975 162.259 74.8716 162.349C75.2186 162.525 75.5703 162.696 75.9277 162.857C76.1053 162.937 76.2851 163.016 76.465 163.093C77.007 163.321 77.5583 163.531 78.12 163.72C78.3056 163.784 78.4937 163.845 78.6828 163.904C80.9505 164.609 83.3621 164.989 85.8619 164.989C88.3617 164.989 90.7733 164.609 93.041 163.904C93.2302 163.845 93.4182 163.784 93.6039 163.72C94.1656 163.531 94.7168 163.321 95.2588 163.093C95.4387 163.016 95.6186 162.937 95.7961 162.857C96.1536 162.696 96.5052 162.525 96.8522 162.349C97.0263 162.259 97.198 162.169 97.3686 162.076C97.624 161.937 97.8781 161.793 98.1276 161.644C98.2124 161.594 98.2959 161.544 98.3795 161.495C98.6278 161.344 98.8727 161.188 99.1153 161.028C99.1965 160.975 99.2777 160.92 99.359 160.867C99.5191 160.758 99.677 160.647 99.8348 160.536H99.836C99.9938 160.423 100.149 160.308 100.304 160.194H100.305C100.459 160.077 100.612 159.959 100.764 159.841H100.766C101.051 159.617 101.331 159.386 101.605 159.15C101.787 158.992 101.968 158.832 102.145 158.67C102.324 158.506 102.499 158.341 102.672 158.173C102.845 158.005 103.016 157.834 103.184 157.661C103.352 157.488 103.517 157.313 103.681 157.134C103.843 156.957 104.003 156.776 104.161 156.594C104.397 156.32 104.628 156.04 104.852 155.754C104.972 155.601 105.09 155.448 105.205 155.294C105.322 155.138 105.436 154.983 105.547 154.825C105.66 154.666 105.77 154.508 105.878 154.348C105.931 154.267 105.986 154.185 106.039 154.104C106.199 153.862 106.355 153.617 106.506 153.368C106.555 153.285 106.605 153.201 106.655 153.117C106.804 152.867 106.948 152.613 107.087 152.358C107.18 152.187 107.27 152.015 107.36 151.841C107.536 151.494 107.707 151.143 107.868 150.785C107.948 150.608 108.027 150.428 108.104 150.248C108.332 149.706 108.542 149.155 108.731 148.593C108.795 148.407 108.856 148.219 108.915 148.03C109.62 145.762 110 143.351 110 140.851C110 140.712 109.999 140.573 109.995 140.435H109.998ZM88.6484 142.708C88.6484 144.251 87.4066 145.493 85.8631 145.493C84.3196 145.493 83.0778 144.251 83.0778 142.708V127.853C83.0778 126.309 84.3196 125.068 85.8631 125.068C87.4066 125.068 88.6484 126.309 88.6484 127.853V142.708Z" fill="#70D4FF"/>
<path d="M108.912 124.917L106.116 127.712C104.755 125.615 103.075 123.745 101.148 122.166L103.654 119.659C105.105 118.209 107.461 118.209 108.912 119.659C110.362 121.11 110.362 123.466 108.912 124.917Z" fill="#7093FF"/>
<path d="M85.8631 116.712C79.1192 116.712 73.0217 119.476 68.6418 123.935C72.2012 120.309 76.8944 117.803 82.1494 116.99V112.998H80.2925C78.2383 112.998 76.5788 111.338 76.5788 109.284C76.5788 107.23 78.2383 105.571 80.2925 105.571H91.4337C93.4878 105.571 95.1474 107.23 95.1474 109.284C95.1474 111.338 93.4878 112.998 91.4337 112.998H89.5768V116.99C92.0905 117.379 94.4719 118.157 96.6642 119.258C93.4147 117.629 89.7462 116.712 85.8631 116.712Z" fill="#7093FF"/>
<defs>
<filter id="filter0_d_103_1926" x="0" y="63.5867" width="430.502" height="414.413" filterUnits="userSpaceOnUse" color-interpolation-filters="sRGB">
<feFlood flood-opacity="0" result="BackgroundImageFix"/>
<feColorMatrix in="SourceAlpha" type="matrix" values="0 0 0 0 0 0 0 0 0 0 0 0 0 0 0 0 0 0 127 0" result="hardAlpha"/>
<feOffset dx="-4" dy="4"/>
<feGaussianBlur stdDeviation="2"/>
<feComposite in2="hardAlpha" operator="out"/>
<feColorMatrix type="matrix" values="0 0 0 0 0 0 0 0 0 0 0 0 0 0 0 0 0 0 0.15 0"/>
<feBlend mode="normal" in2="BackgroundImageFix" result="effect1_dropShadow_103_1926"/>
<feBlend mode="normal" in="SourceGraphic" in2="effect1_dropShadow_103_1926" result="shape"/>
</filter>
<linearGradient id="paint0_linear_103_1926" x1="219.25" y1="63.58" x2="219.25" y2="439.58" gradientUnits="userSpaceOnUse">
<stop stop-color="white"/>
<stop offset="1" stop-color="#FDFDFD"/>
</linearGradient>
<linearGradient id="paint1_linear_103_1926" x1="315.7" y1="302.24" x2="424.47" y2="302.24" gradientUnits="userSpaceOnUse">
<stop stop-color="#FF689C" stop-opacity="0"/>
<stop offset="0.16" stop-color="#FF688E" stop-opacity="0.18"/>
<stop offset="0.58" stop-color="#FF686D" stop-opacity="0.61"/>
<stop offset="0.87" stop-color="#FF6859" stop-opacity="0.89"/>
<stop offset="1" stop-color="#FF6851"/>
</linearGradient>
<linearGradient id="paint2_linear_103_1926" x1="386.56" y1="397" x2="212.92" y2="397" gradientUnits="userSpaceOnUse">
<stop stop-color="#FF6851"/>
<stop offset="0.13" stop-color="#FF6859" stop-opacity="0.89"/>
<stop offset="0.42" stop-color="#FF686D" stop-opacity="0.61"/>
<stop offset="0.84" stop-color="#FF688E" stop-opacity="0.18"/>
<stop offset="1" stop-color="#FF689C" stop-opacity="0"/>
</linearGradient>
<linearGradient id="paint3_linear_103_1926" x1="315.17" y1="136.43" x2="149.9" y2="136.43" gradientUnits="userSpaceOnUse">
<stop stop-color="#FF689C" stop-opacity="0"/>
<stop offset="0.16" stop-color="#FF688E" stop-opacity="0.18"/>
<stop offset="0.58" stop-color="#FF686D" stop-opacity="0.61"/>
<stop offset="0.87" stop-color="#FF6859" stop-opacity="0.89"/>
<stop offset="1" stop-color="#FF6851"/>
</linearGradient>
<linearGradient id="paint4_linear_103_1926" x1="62.8872" y1="124.792" x2="33.4222" y2="124.792" gradientUnits="userSpaceOnUse">
<stop stop-color="#7093FF"/>
<stop offset="1" stop-color="#7093FF" stop-opacity="0"/>
</linearGradient>
<linearGradient id="paint5_linear_103_1926" x1="58.441" y1="140.321" x2="30.2036" y2="140.321" gradientUnits="userSpaceOnUse">
<stop stop-color="#7093FF"/>
<stop offset="1" stop-color="#7093FF" stop-opacity="0"/>
</linearGradient>
<linearGradient id="paint6_linear_103_1926" x1="63.6836" y1="155.85" x2="33.4222" y2="155.85" gradientUnits="userSpaceOnUse">
<stop stop-color="#7093FF"/>
<stop offset="1" stop-color="#7093FF" stop-opacity="0"/>
</linearGradient>
</defs>
</svg>
