<svg width="571" height="486" viewBox="0 0 571 486" fill="none" xmlns="http://www.w3.org/2000/svg">
<g clip-path="url(#clip0_103_1922)">
<path d="M262.666 2.6961C261.921 2.6961 261.317 2.09255 261.317 1.34805C261.317 0.603541 261.921 1.82937e-07 262.666 1.1785e-07C263.41 5.27632e-08 264.014 0.603541 264.014 1.34805C264.014 2.09255 263.41 2.6961 262.666 2.6961Z" fill="#71869D"/>
<path d="M232.334 2.6961C231.59 2.6961 230.986 2.09255 230.986 1.34805C230.986 0.603541 231.59 1.82936e-07 232.334 1.1785e-07C233.079 5.27644e-08 233.682 0.603541 233.682 1.34805C233.682 2.09255 233.079 2.6961 232.334 2.6961Z" fill="#71869D"/>
<path d="M202.003 2.6961C201.259 2.6961 200.655 2.09255 200.655 1.34805C200.655 0.603541 201.259 1.82933e-07 202.003 1.1785e-07C202.748 5.27674e-08 203.351 0.603541 203.351 1.34805C203.351 2.09255 202.748 2.6961 202.003 2.6961Z" fill="#71869D"/>
<path d="M171.672 2.6961C170.928 2.6961 170.324 2.09255 170.324 1.34805C170.324 0.603541 170.928 1.82933e-07 171.672 1.1785e-07C172.417 5.27674e-08 173.02 0.603541 173.02 1.34805C173.02 2.09255 172.417 2.6961 171.672 2.6961Z" fill="#71869D"/>
<path d="M141.341 2.6961C140.597 2.6961 139.993 2.09255 139.993 1.34805C139.993 0.603541 140.597 1.82933e-07 141.341 1.1785e-07C142.086 5.27674e-08 142.689 0.603541 142.689 1.34805C142.689 2.09255 142.086 2.6961 141.341 2.6961Z" fill="#71869D"/>
<path d="M111.01 2.6961C110.266 2.6961 109.662 2.09255 109.662 1.34805C109.662 0.603541 110.266 1.82933e-07 111.01 1.1785e-07C111.755 5.27674e-08 112.358 0.603541 112.358 1.34805C112.358 2.09255 111.755 2.6961 111.01 2.6961Z" fill="#71869D"/>
<path d="M262.666 33.0271C261.921 33.0271 261.317 32.4236 261.317 31.6791C261.317 30.9346 261.921 30.3311 262.666 30.3311C263.41 30.3311 264.014 30.9346 264.014 31.6791C264.014 32.4236 263.41 33.0271 262.666 33.0271Z" fill="#71869D"/>
<path d="M232.334 33.0271C231.59 33.0271 230.986 32.4236 230.986 31.6791C230.986 30.9346 231.59 30.3311 232.334 30.3311C233.079 30.3311 233.682 30.9346 233.682 31.6791C233.682 32.4236 233.079 33.0271 232.334 33.0271Z" fill="#71869D"/>
<path d="M202.003 33.0271C201.259 33.0271 200.655 32.4236 200.655 31.6791C200.655 30.9346 201.259 30.3311 202.003 30.3311C202.748 30.3311 203.351 30.9346 203.351 31.6791C203.351 32.4236 202.748 33.0271 202.003 33.0271Z" fill="#71869D"/>
<path d="M171.672 33.0271C170.928 33.0271 170.324 32.4236 170.324 31.6791C170.324 30.9346 170.928 30.3311 171.672 30.3311C172.417 30.3311 173.02 30.9346 173.02 31.6791C173.02 32.4236 172.417 33.0271 171.672 33.0271Z" fill="#71869D"/>
<path d="M141.341 33.0271C140.597 33.0271 139.993 32.4236 139.993 31.6791C139.993 30.9346 140.597 30.3311 141.341 30.3311C142.086 30.3311 142.689 30.9346 142.689 31.6791C142.689 32.4236 142.086 33.0271 141.341 33.0271Z" fill="#71869D"/>
<path d="M111.01 33.0271C110.266 33.0271 109.662 32.4236 109.662 31.6791C109.662 30.9346 110.266 30.3311 111.01 30.3311C111.755 30.3311 112.358 30.9346 112.358 31.6791C112.358 32.4236 111.755 33.0271 111.01 33.0271Z" fill="#71869D"/>
<path d="M262.666 63.3582C261.921 63.3582 261.317 62.7546 261.317 62.0102C261.317 61.2657 261.921 60.6621 262.666 60.6621C263.41 60.6621 264.014 61.2657 264.014 62.0102C264.014 62.7546 263.41 63.3582 262.666 63.3582Z" fill="#71869D"/>
<path d="M232.334 63.3582C231.59 63.3582 230.986 62.7546 230.986 62.0102C230.986 61.2657 231.59 60.6621 232.334 60.6621C233.079 60.6621 233.682 61.2657 233.682 62.0102C233.682 62.7546 233.079 63.3582 232.334 63.3582Z" fill="#71869D"/>
<path d="M202.003 63.3582C201.259 63.3582 200.655 62.7546 200.655 62.0102C200.655 61.2657 201.259 60.6621 202.003 60.6621C202.748 60.6621 203.351 61.2657 203.351 62.0102C203.351 62.7546 202.748 63.3582 202.003 63.3582Z" fill="#71869D"/>
<path d="M171.672 63.3582C170.928 63.3582 170.324 62.7546 170.324 62.0102C170.324 61.2657 170.928 60.6621 171.672 60.6621C172.417 60.6621 173.02 61.2657 173.02 62.0102C173.02 62.7546 172.417 63.3582 171.672 63.3582Z" fill="#71869D"/>
<path d="M141.341 63.3582C140.597 63.3582 139.993 62.7546 139.993 62.0102C139.993 61.2657 140.597 60.6621 141.341 60.6621C142.086 60.6621 142.689 61.2657 142.689 62.0102C142.689 62.7546 142.086 63.3582 141.341 63.3582Z" fill="#71869D"/>
<path d="M111.01 63.3582C110.266 63.3582 109.662 62.7546 109.662 62.0102C109.662 61.2657 110.266 60.6621 111.01 60.6621C111.755 60.6621 112.358 61.2657 112.358 62.0102C112.358 62.7546 111.755 63.3582 111.01 63.3582Z" fill="#71869D"/>
<path d="M262.666 93.6893C261.921 93.6893 261.317 93.0857 261.317 92.3412C261.317 91.5968 261.921 90.9932 262.666 90.9932C263.41 90.9932 264.014 91.5968 264.014 92.3412C264.014 93.0857 263.41 93.6893 262.666 93.6893Z" fill="#71869D"/>
<path d="M232.334 93.6893C231.59 93.6893 230.986 93.0857 230.986 92.3412C230.986 91.5968 231.59 90.9932 232.334 90.9932C233.079 90.9932 233.682 91.5968 233.682 92.3412C233.682 93.0857 233.079 93.6893 232.334 93.6893Z" fill="#71869D"/>
<path d="M202.003 93.6893C201.259 93.6893 200.655 93.0857 200.655 92.3412C200.655 91.5968 201.259 90.9932 202.003 90.9932C202.748 90.9932 203.351 91.5968 203.351 92.3412C203.351 93.0857 202.748 93.6893 202.003 93.6893Z" fill="#71869D"/>
<path d="M171.672 93.6893C170.928 93.6893 170.324 93.0857 170.324 92.3412C170.324 91.5968 170.928 90.9932 171.672 90.9932C172.417 90.9932 173.02 91.5968 173.02 92.3412C173.02 93.0857 172.417 93.6893 171.672 93.6893Z" fill="#71869D"/>
<path d="M141.341 93.6893C140.597 93.6893 139.993 93.0857 139.993 92.3412C139.993 91.5968 140.597 90.9932 141.341 90.9932C142.086 90.9932 142.689 91.5968 142.689 92.3412C142.689 93.0857 142.086 93.6893 141.341 93.6893Z" fill="#71869D"/>
<path d="M111.01 93.6893C110.266 93.6893 109.662 93.0857 109.662 92.3412C109.662 91.5968 110.266 90.9932 111.01 90.9932C111.755 90.9932 112.358 91.5968 112.358 92.3412C112.358 93.0857 111.755 93.6893 111.01 93.6893Z" fill="#71869D"/>
<path d="M262.666 124.02C261.921 124.02 261.317 123.417 261.317 122.672C261.317 121.928 261.921 121.324 262.666 121.324C263.41 121.324 264.014 121.928 264.014 122.672C264.014 123.417 263.41 124.02 262.666 124.02Z" fill="#71869D"/>
<path d="M232.334 124.02C231.59 124.02 230.986 123.417 230.986 122.672C230.986 121.928 231.59 121.324 232.334 121.324C233.079 121.324 233.682 121.928 233.682 122.672C233.682 123.417 233.079 124.02 232.334 124.02Z" fill="#71869D"/>
<path d="M202.003 124.02C201.259 124.02 200.655 123.417 200.655 122.672C200.655 121.928 201.259 121.324 202.003 121.324C202.748 121.324 203.351 121.928 203.351 122.672C203.351 123.417 202.748 124.02 202.003 124.02Z" fill="#71869D"/>
<path d="M171.672 124.02C170.928 124.02 170.324 123.417 170.324 122.672C170.324 121.928 170.928 121.324 171.672 121.324C172.417 121.324 173.02 121.928 173.02 122.672C173.02 123.417 172.417 124.02 171.672 124.02Z" fill="#71869D"/>
<path d="M141.341 124.02C140.597 124.02 139.993 123.417 139.993 122.672C139.993 121.928 140.597 121.324 141.341 121.324C142.086 121.324 142.689 121.928 142.689 122.672C142.689 123.417 142.086 124.02 141.341 124.02Z" fill="#71869D"/>
<path d="M111.01 124.02C110.266 124.02 109.662 123.417 109.662 122.672C109.662 121.928 110.266 121.324 111.01 121.324C111.755 121.324 112.358 121.928 112.358 122.672C112.358 123.417 111.755 124.02 111.01 124.02Z" fill="#71869D"/>
<path d="M262.666 154.351C261.921 154.351 261.317 153.748 261.317 153.003C261.317 152.259 261.921 151.655 262.666 151.655C263.41 151.655 264.014 152.259 264.014 153.003C264.014 153.748 263.41 154.351 262.666 154.351Z" fill="#71869D"/>
<path d="M232.334 154.351C231.59 154.351 230.986 153.748 230.986 153.003C230.986 152.259 231.59 151.655 232.334 151.655C233.079 151.655 233.682 152.259 233.682 153.003C233.682 153.748 233.079 154.351 232.334 154.351Z" fill="#71869D"/>
<path d="M202.003 154.351C201.259 154.351 200.655 153.748 200.655 153.003C200.655 152.259 201.259 151.655 202.003 151.655C202.748 151.655 203.351 152.259 203.351 153.003C203.351 153.748 202.748 154.351 202.003 154.351Z" fill="#71869D"/>
<path d="M171.672 154.351C170.928 154.351 170.324 153.748 170.324 153.003C170.324 152.259 170.928 151.655 171.672 151.655C172.417 151.655 173.02 152.259 173.02 153.003C173.02 153.748 172.417 154.351 171.672 154.351Z" fill="#71869D"/>
<path d="M141.341 154.351C140.597 154.351 139.993 153.748 139.993 153.003C139.993 152.259 140.597 151.655 141.341 151.655C142.086 151.655 142.689 152.259 142.689 153.003C142.689 153.748 142.086 154.351 141.341 154.351Z" fill="#71869D"/>
<path d="M111.01 154.351C110.266 154.351 109.662 153.748 109.662 153.003C109.662 152.259 110.266 151.655 111.01 151.655C111.755 151.655 112.358 152.259 112.358 153.003C112.358 153.748 111.755 154.351 111.01 154.351Z" fill="#71869D"/>
<path d="M262.666 184.682C261.921 184.682 261.317 184.079 261.317 183.334C261.317 182.59 261.921 181.986 262.666 181.986C263.41 181.986 264.014 182.59 264.014 183.334C264.014 184.079 263.41 184.682 262.666 184.682Z" fill="#71869D"/>
<path d="M232.334 184.682C231.59 184.682 230.986 184.079 230.986 183.334C230.986 182.59 231.59 181.986 232.334 181.986C233.079 181.986 233.682 182.59 233.682 183.334C233.682 184.079 233.079 184.682 232.334 184.682Z" fill="#71869D"/>
<path d="M202.003 184.682C201.259 184.682 200.655 184.079 200.655 183.334C200.655 182.59 201.259 181.986 202.003 181.986C202.748 181.986 203.351 182.59 203.351 183.334C203.351 184.079 202.748 184.682 202.003 184.682Z" fill="#71869D"/>
<path d="M171.672 184.682C170.928 184.682 170.324 184.079 170.324 183.334C170.324 182.59 170.928 181.986 171.672 181.986C172.417 181.986 173.02 182.59 173.02 183.334C173.02 184.079 172.417 184.682 171.672 184.682Z" fill="#71869D"/>
<path d="M141.341 184.682C140.597 184.682 139.993 184.079 139.993 183.334C139.993 182.59 140.597 181.986 141.341 181.986C142.086 181.986 142.689 182.59 142.689 183.334C142.689 184.079 142.086 184.682 141.341 184.682Z" fill="#71869D"/>
<path d="M111.01 184.682C110.266 184.682 109.662 184.079 109.662 183.334C109.662 182.59 110.266 181.986 111.01 181.986C111.755 181.986 112.358 182.59 112.358 183.334C112.358 184.079 111.755 184.682 111.01 184.682Z" fill="#71869D"/>
<path d="M262.666 215.013C261.921 215.013 261.317 214.41 261.317 213.665C261.317 212.921 261.921 212.317 262.666 212.317C263.41 212.317 264.014 212.921 264.014 213.665C264.014 214.41 263.41 215.013 262.666 215.013Z" fill="#71869D"/>
<path d="M232.334 215.013C231.59 215.013 230.986 214.41 230.986 213.665C230.986 212.921 231.59 212.317 232.334 212.317C233.079 212.317 233.682 212.921 233.682 213.665C233.682 214.41 233.079 215.013 232.334 215.013Z" fill="#71869D"/>
<path d="M202.003 215.013C201.259 215.013 200.655 214.41 200.655 213.665C200.655 212.921 201.259 212.317 202.003 212.317C202.748 212.317 203.351 212.921 203.351 213.665C203.351 214.41 202.748 215.013 202.003 215.013Z" fill="#71869D"/>
<path d="M171.672 215.013C170.928 215.013 170.324 214.41 170.324 213.665C170.324 212.921 170.928 212.317 171.672 212.317C172.417 212.317 173.02 212.921 173.02 213.665C173.02 214.41 172.417 215.013 171.672 215.013Z" fill="#71869D"/>
<path d="M141.341 215.013C140.597 215.013 139.993 214.41 139.993 213.665C139.993 212.921 140.597 212.317 141.341 212.317C142.086 212.317 142.689 212.921 142.689 213.665C142.689 214.41 142.086 215.013 141.341 215.013Z" fill="#71869D"/>
<path d="M111.01 215.013C110.266 215.013 109.662 214.41 109.662 213.665C109.662 212.921 110.266 212.317 111.01 212.317C111.755 212.317 112.358 212.921 112.358 213.665C112.358 214.41 111.755 215.013 111.01 215.013Z" fill="#71869D"/>
<path d="M262.666 245.345C261.921 245.345 261.317 244.741 261.317 243.996C261.317 243.252 261.921 242.648 262.666 242.648C263.41 242.648 264.014 243.252 264.014 243.996C264.014 244.741 263.41 245.345 262.666 245.345Z" fill="#71869D"/>
<path d="M232.334 245.345C231.59 245.345 230.986 244.741 230.986 243.996C230.986 243.252 231.59 242.648 232.334 242.648C233.079 242.648 233.682 243.252 233.682 243.996C233.682 244.741 233.079 245.345 232.334 245.345Z" fill="#71869D"/>
<path d="M202.003 245.345C201.259 245.345 200.655 244.741 200.655 243.996C200.655 243.252 201.259 242.648 202.003 242.648C202.748 242.648 203.351 243.252 203.351 243.996C203.351 244.741 202.748 245.345 202.003 245.345Z" fill="#71869D"/>
<path d="M171.672 245.345C170.928 245.345 170.324 244.741 170.324 243.996C170.324 243.252 170.928 242.648 171.672 242.648C172.417 242.648 173.02 243.252 173.02 243.996C173.02 244.741 172.417 245.345 171.672 245.345Z" fill="#71869D"/>
<path d="M141.341 245.345C140.597 245.345 139.993 244.741 139.993 243.996C139.993 243.252 140.597 242.648 141.341 242.648C142.086 242.648 142.689 243.252 142.689 243.996C142.689 244.741 142.086 245.345 141.341 245.345Z" fill="#71869D"/>
<path d="M111.01 245.345C110.266 245.345 109.662 244.741 109.662 243.996C109.662 243.252 110.266 242.648 111.01 242.648C111.755 242.648 112.358 243.252 112.358 243.996C112.358 244.741 111.755 245.345 111.01 245.345Z" fill="#71869D"/>
<path d="M262.666 275.676C261.921 275.676 261.317 275.072 261.317 274.328C261.317 273.583 261.921 272.979 262.666 272.979C263.41 272.979 264.014 273.583 264.014 274.328C264.014 275.072 263.41 275.676 262.666 275.676Z" fill="#71869D"/>
<path d="M232.334 275.676C231.59 275.676 230.986 275.072 230.986 274.328C230.986 273.583 231.59 272.979 232.334 272.979C233.079 272.979 233.682 273.583 233.682 274.328C233.682 275.072 233.079 275.676 232.334 275.676Z" fill="#71869D"/>
<path d="M202.003 275.676C201.259 275.676 200.655 275.072 200.655 274.328C200.655 273.583 201.259 272.979 202.003 272.979C202.748 272.979 203.351 273.583 203.351 274.328C203.351 275.072 202.748 275.676 202.003 275.676Z" fill="#71869D"/>
<path d="M171.672 275.676C170.928 275.676 170.324 275.072 170.324 274.328C170.324 273.583 170.928 272.979 171.672 272.979C172.417 272.979 173.02 273.583 173.02 274.328C173.02 275.072 172.417 275.676 171.672 275.676Z" fill="#71869D"/>
<path d="M141.341 275.676C140.597 275.676 139.993 275.072 139.993 274.328C139.993 273.583 140.597 272.979 141.341 272.979C142.086 272.979 142.689 273.583 142.689 274.328C142.689 275.072 142.086 275.676 141.341 275.676Z" fill="#71869D"/>
<path d="M111.01 275.676C110.266 275.676 109.662 275.072 109.662 274.328C109.662 273.583 110.266 272.979 111.01 272.979C111.755 272.979 112.358 273.583 112.358 274.328C112.358 275.072 111.755 275.676 111.01 275.676Z" fill="#71869D"/>
<path d="M262.666 306.007C261.921 306.007 261.317 305.403 261.317 304.659C261.317 303.914 261.921 303.311 262.666 303.311C263.41 303.311 264.014 303.914 264.014 304.659C264.014 305.403 263.41 306.007 262.666 306.007Z" fill="#71869D"/>
<path d="M232.334 306.007C231.59 306.007 230.986 305.403 230.986 304.659C230.986 303.914 231.59 303.311 232.334 303.311C233.079 303.311 233.682 303.914 233.682 304.659C233.682 305.403 233.079 306.007 232.334 306.007Z" fill="#71869D"/>
<path d="M202.003 306.007C201.259 306.007 200.655 305.403 200.655 304.659C200.655 303.914 201.259 303.311 202.003 303.311C202.748 303.311 203.351 303.914 203.351 304.659C203.351 305.403 202.748 306.007 202.003 306.007Z" fill="#71869D"/>
<path d="M171.672 306.007C170.928 306.007 170.324 305.403 170.324 304.659C170.324 303.914 170.928 303.311 171.672 303.311C172.417 303.311 173.02 303.914 173.02 304.659C173.02 305.403 172.417 306.007 171.672 306.007Z" fill="#71869D"/>
<path d="M141.341 306.007C140.597 306.007 139.993 305.403 139.993 304.659C139.993 303.914 140.597 303.311 141.341 303.311C142.086 303.311 142.689 303.914 142.689 304.659C142.689 305.403 142.086 306.007 141.341 306.007Z" fill="#71869D"/>
<path d="M111.01 306.007C110.266 306.007 109.662 305.403 109.662 304.659C109.662 303.914 110.266 303.311 111.01 303.311C111.755 303.311 112.358 303.914 112.358 304.659C112.358 305.403 111.755 306.007 111.01 306.007Z" fill="#71869D"/>
<path d="M80.6791 2.6961C79.9346 2.6961 79.331 2.09255 79.331 1.34805C79.331 0.603541 79.9346 1.82933e-07 80.6791 1.1785e-07C81.4235 5.27674e-08 82.0271 0.603541 82.0271 1.34805C82.0271 2.09255 81.4235 2.6961 80.6791 2.6961Z" fill="#71869D"/>
<path d="M50.348 2.6961C49.6035 2.6961 48.9999 2.09255 48.9999 1.34805C48.9999 0.603541 49.6035 1.82933e-07 50.348 1.1785e-07C51.0925 5.27674e-08 51.696 0.603541 51.696 1.34805C51.696 2.09255 51.0925 2.6961 50.348 2.6961Z" fill="#71869D"/>
<path d="M80.6791 33.0271C79.9346 33.0271 79.331 32.4236 79.331 31.6791C79.331 30.9346 79.9346 30.3311 80.6791 30.3311C81.4235 30.3311 82.0271 30.9346 82.0271 31.6791C82.0271 32.4236 81.4235 33.0271 80.6791 33.0271Z" fill="#71869D"/>
<path d="M50.348 33.0271C49.6035 33.0271 48.9999 32.4236 48.9999 31.6791C48.9999 30.9346 49.6035 30.3311 50.348 30.3311C51.0925 30.3311 51.696 30.9346 51.696 31.6791C51.696 32.4236 51.0925 33.0271 50.348 33.0271Z" fill="#71869D"/>
<path d="M80.6791 63.3582C79.9346 63.3582 79.331 62.7546 79.331 62.0102C79.331 61.2657 79.9346 60.6621 80.6791 60.6621C81.4235 60.6621 82.0271 61.2657 82.0271 62.0102C82.0271 62.7546 81.4235 63.3582 80.6791 63.3582Z" fill="#71869D"/>
<path d="M50.348 63.3582C49.6035 63.3582 48.9999 62.7546 48.9999 62.0102C48.9999 61.2657 49.6035 60.6621 50.348 60.6621C51.0925 60.6621 51.696 61.2657 51.696 62.0102C51.696 62.7546 51.0925 63.3582 50.348 63.3582Z" fill="#71869D"/>
<path d="M80.6791 93.6893C79.9346 93.6893 79.331 93.0857 79.331 92.3412C79.331 91.5968 79.9346 90.9932 80.6791 90.9932C81.4235 90.9932 82.0271 91.5968 82.0271 92.3412C82.0271 93.0857 81.4235 93.6893 80.6791 93.6893Z" fill="#71869D"/>
<path d="M50.348 93.6893C49.6035 93.6893 48.9999 93.0857 48.9999 92.3412C48.9999 91.5968 49.6035 90.9932 50.348 90.9932C51.0925 90.9932 51.696 91.5968 51.696 92.3412C51.696 93.0857 51.0925 93.6893 50.348 93.6893Z" fill="#71869D"/>
<path d="M80.6791 124.02C79.9346 124.02 79.331 123.417 79.331 122.672C79.331 121.928 79.9346 121.324 80.6791 121.324C81.4235 121.324 82.0271 121.928 82.0271 122.672C82.0271 123.417 81.4235 124.02 80.6791 124.02Z" fill="#71869D"/>
<path d="M50.348 124.02C49.6035 124.02 48.9999 123.417 48.9999 122.672C48.9999 121.928 49.6035 121.324 50.348 121.324C51.0925 121.324 51.696 121.928 51.696 122.672C51.696 123.417 51.0925 124.02 50.348 124.02Z" fill="#71869D"/>
<path d="M80.6791 154.351C79.9346 154.351 79.331 153.748 79.331 153.003C79.331 152.259 79.9346 151.655 80.6791 151.655C81.4235 151.655 82.0271 152.259 82.0271 153.003C82.0271 153.748 81.4235 154.351 80.6791 154.351Z" fill="#71869D"/>
<path d="M50.348 154.351C49.6035 154.351 48.9999 153.748 48.9999 153.003C48.9999 152.259 49.6035 151.655 50.348 151.655C51.0925 151.655 51.696 152.259 51.696 153.003C51.696 153.748 51.0925 154.351 50.348 154.351Z" fill="#71869D"/>
<path d="M80.6791 184.682C79.9346 184.682 79.331 184.079 79.331 183.334C79.331 182.59 79.9346 181.986 80.6791 181.986C81.4235 181.986 82.0271 182.59 82.0271 183.334C82.0271 184.079 81.4235 184.682 80.6791 184.682Z" fill="#71869D"/>
<path d="M50.348 184.682C49.6035 184.682 48.9999 184.079 48.9999 183.334C48.9999 182.59 49.6035 181.986 50.348 181.986C51.0925 181.986 51.696 182.59 51.696 183.334C51.696 184.079 51.0925 184.682 50.348 184.682Z" fill="#71869D"/>
<path d="M80.6791 215.013C79.9346 215.013 79.331 214.41 79.331 213.665C79.331 212.921 79.9346 212.317 80.6791 212.317C81.4235 212.317 82.0271 212.921 82.0271 213.665C82.0271 214.41 81.4235 215.013 80.6791 215.013Z" fill="#71869D"/>
<path d="M50.348 215.013C49.6035 215.013 48.9999 214.41 48.9999 213.665C48.9999 212.921 49.6035 212.317 50.348 212.317C51.0925 212.317 51.696 212.921 51.696 213.665C51.696 214.41 51.0925 215.013 50.348 215.013Z" fill="#71869D"/>
<path d="M80.6791 245.345C79.9346 245.345 79.331 244.741 79.331 243.996C79.331 243.252 79.9346 242.648 80.6791 242.648C81.4235 242.648 82.0271 243.252 82.0271 243.996C82.0271 244.741 81.4235 245.345 80.6791 245.345Z" fill="#71869D"/>
<path d="M50.348 245.345C49.6035 245.345 48.9999 244.741 48.9999 243.996C48.9999 243.252 49.6035 242.648 50.348 242.648C51.0925 242.648 51.696 243.252 51.696 243.996C51.696 244.741 51.0925 245.345 50.348 245.345Z" fill="#71869D"/>
<path d="M80.6791 275.676C79.9346 275.676 79.331 275.072 79.331 274.328C79.331 273.583 79.9346 272.979 80.6791 272.979C81.4235 272.979 82.0271 273.583 82.0271 274.328C82.0271 275.072 81.4235 275.676 80.6791 275.676Z" fill="#71869D"/>
<path d="M50.348 275.676C49.6035 275.676 48.9999 275.072 48.9999 274.328C48.9999 273.583 49.6035 272.979 50.348 272.979C51.0925 272.979 51.696 273.583 51.696 274.328C51.696 275.072 51.0925 275.676 50.348 275.676Z" fill="#71869D"/>
<path d="M80.6791 306.007C79.9346 306.007 79.331 305.403 79.331 304.659C79.331 303.914 79.9346 303.311 80.6791 303.311C81.4235 303.311 82.0271 303.914 82.0271 304.659C82.0271 305.403 81.4235 306.007 80.6791 306.007Z" fill="#71869D"/>
<path d="M50.348 306.007C49.6035 306.007 48.9999 305.403 48.9999 304.659C48.9999 303.914 49.6035 303.311 50.348 303.311C51.0925 303.311 51.696 303.914 51.696 304.659C51.696 305.403 51.0925 306.007 50.348 306.007Z" fill="#71869D"/>
<path d="M262.666 336.338C261.921 336.338 261.317 335.734 261.317 334.99C261.317 334.245 261.921 333.642 262.666 333.642C263.41 333.642 264.014 334.245 264.014 334.99C264.014 335.734 263.41 336.338 262.666 336.338Z" fill="#71869D"/>
<path d="M232.334 336.338C231.59 336.338 230.986 335.734 230.986 334.99C230.986 334.245 231.59 333.642 232.334 333.642C233.079 333.642 233.682 334.245 233.682 334.99C233.682 335.734 233.079 336.338 232.334 336.338Z" fill="#71869D"/>
<path d="M202.003 336.338C201.259 336.338 200.655 335.734 200.655 334.99C200.655 334.245 201.259 333.642 202.003 333.642C202.748 333.642 203.351 334.245 203.351 334.99C203.351 335.734 202.748 336.338 202.003 336.338Z" fill="#71869D"/>
<path d="M171.672 336.338C170.928 336.338 170.324 335.734 170.324 334.99C170.324 334.245 170.928 333.642 171.672 333.642C172.417 333.642 173.02 334.245 173.02 334.99C173.02 335.734 172.417 336.338 171.672 336.338Z" fill="#71869D"/>
<path d="M141.341 336.338C140.597 336.338 139.993 335.734 139.993 334.99C139.993 334.245 140.597 333.642 141.341 333.642C142.086 333.642 142.689 334.245 142.689 334.99C142.689 335.734 142.086 336.338 141.341 336.338Z" fill="#71869D"/>
<path d="M111.01 336.338C110.266 336.338 109.662 335.734 109.662 334.99C109.662 334.245 110.266 333.642 111.01 333.642C111.755 333.642 112.358 334.245 112.358 334.99C112.358 335.734 111.755 336.338 111.01 336.338Z" fill="#71869D"/>
<path d="M262.666 366.669C261.921 366.669 261.317 366.066 261.317 365.321C261.317 364.576 261.921 363.973 262.666 363.973C263.41 363.973 264.014 364.576 264.014 365.321C264.014 366.066 263.41 366.669 262.666 366.669Z" fill="#71869D"/>
<path d="M232.334 366.669C231.59 366.669 230.986 366.066 230.986 365.321C230.986 364.576 231.59 363.973 232.334 363.973C233.079 363.973 233.682 364.576 233.682 365.321C233.682 366.066 233.079 366.669 232.334 366.669Z" fill="#71869D"/>
<path d="M202.003 366.669C201.259 366.669 200.655 366.066 200.655 365.321C200.655 364.576 201.259 363.973 202.003 363.973C202.748 363.973 203.351 364.576 203.351 365.321C203.351 366.066 202.748 366.669 202.003 366.669Z" fill="#71869D"/>
<path d="M171.672 366.669C170.928 366.669 170.324 366.066 170.324 365.321C170.324 364.576 170.928 363.973 171.672 363.973C172.417 363.973 173.02 364.576 173.02 365.321C173.02 366.066 172.417 366.669 171.672 366.669Z" fill="#71869D"/>
<path d="M141.341 366.669C140.597 366.669 139.993 366.066 139.993 365.321C139.993 364.576 140.597 363.973 141.341 363.973C142.086 363.973 142.689 364.576 142.689 365.321C142.689 366.066 142.086 366.669 141.341 366.669Z" fill="#71869D"/>
<path d="M111.01 366.669C110.266 366.669 109.662 366.066 109.662 365.321C109.662 364.576 110.266 363.973 111.01 363.973C111.755 363.973 112.358 364.576 112.358 365.321C112.358 366.066 111.755 366.669 111.01 366.669Z" fill="#71869D"/>
<path d="M262.666 397C261.921 397 261.317 396.397 261.317 395.652C261.317 394.907 261.921 394.304 262.666 394.304C263.41 394.304 264.014 394.907 264.014 395.652C264.014 396.397 263.41 397 262.666 397Z" fill="#71869D"/>
<path d="M232.334 397C231.59 397 230.986 396.397 230.986 395.652C230.986 394.907 231.59 394.304 232.334 394.304C233.079 394.304 233.682 394.907 233.682 395.652C233.682 396.397 233.079 397 232.334 397Z" fill="#71869D"/>
<path d="M202.003 397C201.259 397 200.655 396.397 200.655 395.652C200.655 394.907 201.259 394.304 202.003 394.304C202.748 394.304 203.351 394.907 203.351 395.652C203.351 396.397 202.748 397 202.003 397Z" fill="#71869D"/>
<path d="M171.672 397C170.928 397 170.324 396.397 170.324 395.652C170.324 394.907 170.928 394.304 171.672 394.304C172.417 394.304 173.02 394.907 173.02 395.652C173.02 396.397 172.417 397 171.672 397Z" fill="#71869D"/>
<path d="M141.341 397C140.597 397 139.993 396.397 139.993 395.652C139.993 394.907 140.597 394.304 141.341 394.304C142.086 394.304 142.689 394.907 142.689 395.652C142.689 396.397 142.086 397 141.341 397Z" fill="#71869D"/>
<path d="M111.01 397C110.266 397 109.662 396.397 109.662 395.652C109.662 394.907 110.266 394.304 111.01 394.304C111.755 394.304 112.358 394.907 112.358 395.652C112.358 396.397 111.755 397 111.01 397Z" fill="#71869D"/>
<path d="M80.6791 336.338C79.9346 336.338 79.331 335.734 79.331 334.99C79.331 334.245 79.9346 333.642 80.6791 333.642C81.4235 333.642 82.0271 334.245 82.0271 334.99C82.0271 335.734 81.4235 336.338 80.6791 336.338Z" fill="#71869D"/>
<path d="M50.348 336.338C49.6035 336.338 48.9999 335.734 48.9999 334.99C48.9999 334.245 49.6035 333.642 50.348 333.642C51.0925 333.642 51.696 334.245 51.696 334.99C51.696 335.734 51.0925 336.338 50.348 336.338Z" fill="#71869D"/>
<path d="M80.6791 366.669C79.9346 366.669 79.331 366.066 79.331 365.321C79.331 364.576 79.9346 363.973 80.6791 363.973C81.4235 363.973 82.0271 364.576 82.0271 365.321C82.0271 366.066 81.4235 366.669 80.6791 366.669Z" fill="#71869D"/>
<path d="M50.348 366.669C49.6035 366.669 48.9999 366.066 48.9999 365.321C48.9999 364.576 49.6035 363.973 50.348 363.973C51.0925 363.973 51.696 364.576 51.696 365.321C51.696 366.066 51.0925 366.669 50.348 366.669Z" fill="#71869D"/>
<path d="M80.6791 397C79.9346 397 79.331 396.397 79.331 395.652C79.331 394.907 79.9346 394.304 80.6791 394.304C81.4235 394.304 82.0271 394.907 82.0271 395.652C82.0271 396.397 81.4235 397 80.6791 397Z" fill="#71869D"/>
<path d="M50.348 397C49.6035 397 48.9999 396.397 48.9999 395.652C48.9999 394.907 49.6035 394.304 50.348 394.304C51.0925 394.304 51.696 394.907 51.696 395.652C51.696 396.397 51.0925 397 50.348 397Z" fill="#71869D"/>
</g>
<g clip-path="url(#clip1_103_1922)">
<path d="M568.304 475.666C568.304 474.921 568.907 474.318 569.652 474.318C570.396 474.318 571 474.921 571 475.666C571 476.41 570.396 477.014 569.652 477.014C568.907 477.014 568.304 476.41 568.304 475.666Z" fill="#71869D"/>
<path d="M568.304 445.335C568.304 444.59 568.907 443.987 569.652 443.987C570.396 443.987 571 444.59 571 445.335C571 446.079 570.396 446.683 569.652 446.683C568.907 446.683 568.304 446.079 568.304 445.335Z" fill="#71869D"/>
<path d="M568.304 415.004C568.304 414.259 568.907 413.655 569.652 413.655C570.396 413.655 571 414.259 571 415.004C571 415.748 570.396 416.352 569.652 416.352C568.907 416.352 568.304 415.748 568.304 415.004Z" fill="#71869D"/>
<path d="M568.304 384.672C568.304 383.928 568.907 383.324 569.652 383.324C570.396 383.324 571 383.928 571 384.672C571 385.417 570.396 386.021 569.652 386.021C568.907 386.021 568.304 385.417 568.304 384.672Z" fill="#71869D"/>
<path d="M568.304 354.341C568.304 353.597 568.907 352.993 569.652 352.993C570.396 352.993 571 353.597 571 354.341C571 355.086 570.396 355.689 569.652 355.689C568.907 355.689 568.304 355.086 568.304 354.341Z" fill="#71869D"/>
<path d="M568.304 324.01C568.304 323.266 568.907 322.662 569.652 322.662C570.396 322.662 571 323.266 571 324.01C571 324.755 570.396 325.358 569.652 325.358C568.907 325.358 568.304 324.755 568.304 324.01Z" fill="#71869D"/>
<path d="M537.973 475.666C537.973 474.921 538.576 474.318 539.321 474.318C540.065 474.318 540.669 474.921 540.669 475.666C540.669 476.41 540.065 477.014 539.321 477.014C538.576 477.014 537.973 476.41 537.973 475.666Z" fill="#71869D"/>
<path d="M537.973 445.335C537.973 444.59 538.576 443.987 539.321 443.987C540.065 443.987 540.669 444.59 540.669 445.335C540.669 446.079 540.065 446.683 539.321 446.683C538.576 446.683 537.973 446.079 537.973 445.335Z" fill="#71869D"/>
<path d="M537.973 415.004C537.973 414.259 538.576 413.655 539.321 413.655C540.065 413.655 540.669 414.259 540.669 415.004C540.669 415.748 540.065 416.352 539.321 416.352C538.576 416.352 537.973 415.748 537.973 415.004Z" fill="#71869D"/>
<path d="M537.973 384.672C537.973 383.928 538.576 383.324 539.321 383.324C540.065 383.324 540.669 383.928 540.669 384.672C540.669 385.417 540.065 386.021 539.321 386.021C538.576 386.021 537.973 385.417 537.973 384.672Z" fill="#71869D"/>
<path d="M537.973 354.341C537.973 353.597 538.576 352.993 539.321 352.993C540.065 352.993 540.669 353.597 540.669 354.341C540.669 355.086 540.065 355.689 539.321 355.689C538.576 355.689 537.973 355.086 537.973 354.341Z" fill="#71869D"/>
<path d="M537.973 324.01C537.973 323.266 538.576 322.662 539.321 322.662C540.065 322.662 540.669 323.266 540.669 324.01C540.669 324.755 540.065 325.358 539.321 325.358C538.576 325.358 537.973 324.755 537.973 324.01Z" fill="#71869D"/>
<path d="M507.642 475.666C507.642 474.921 508.245 474.318 508.99 474.318C509.734 474.318 510.338 474.921 510.338 475.666C510.338 476.41 509.734 477.014 508.99 477.014C508.245 477.014 507.642 476.41 507.642 475.666Z" fill="#71869D"/>
<path d="M507.642 445.335C507.642 444.59 508.245 443.987 508.99 443.987C509.734 443.987 510.338 444.59 510.338 445.335C510.338 446.079 509.734 446.683 508.99 446.683C508.245 446.683 507.642 446.079 507.642 445.335Z" fill="#71869D"/>
<path d="M507.642 415.004C507.642 414.259 508.245 413.655 508.99 413.655C509.734 413.655 510.338 414.259 510.338 415.004C510.338 415.748 509.734 416.352 508.99 416.352C508.245 416.352 507.642 415.748 507.642 415.004Z" fill="#71869D"/>
<path d="M507.642 384.672C507.642 383.928 508.245 383.324 508.99 383.324C509.734 383.324 510.338 383.928 510.338 384.672C510.338 385.417 509.734 386.021 508.99 386.021C508.245 386.021 507.642 385.417 507.642 384.672Z" fill="#71869D"/>
<path d="M507.642 354.341C507.642 353.597 508.245 352.993 508.99 352.993C509.734 352.993 510.338 353.597 510.338 354.341C510.338 355.086 509.734 355.689 508.99 355.689C508.245 355.689 507.642 355.086 507.642 354.341Z" fill="#71869D"/>
<path d="M507.642 324.01C507.642 323.266 508.245 322.662 508.99 322.662C509.734 322.662 510.338 323.266 510.338 324.01C510.338 324.755 509.734 325.358 508.99 325.358C508.245 325.358 507.642 324.755 507.642 324.01Z" fill="#71869D"/>
<path d="M477.311 475.666C477.311 474.921 477.914 474.318 478.659 474.318C479.403 474.318 480.007 474.921 480.007 475.666C480.007 476.41 479.403 477.014 478.659 477.014C477.914 477.014 477.311 476.41 477.311 475.666Z" fill="#71869D"/>
<path d="M477.311 445.335C477.311 444.59 477.914 443.987 478.659 443.987C479.403 443.987 480.007 444.59 480.007 445.335C480.007 446.079 479.403 446.683 478.659 446.683C477.914 446.683 477.311 446.079 477.311 445.335Z" fill="#71869D"/>
<path d="M477.311 415.004C477.311 414.259 477.914 413.655 478.659 413.655C479.403 413.655 480.007 414.259 480.007 415.004C480.007 415.748 479.403 416.352 478.659 416.352C477.914 416.352 477.311 415.748 477.311 415.004Z" fill="#71869D"/>
<path d="M477.311 384.672C477.311 383.928 477.914 383.324 478.659 383.324C479.403 383.324 480.007 383.928 480.007 384.672C480.007 385.417 479.403 386.021 478.659 386.021C477.914 386.021 477.311 385.417 477.311 384.672Z" fill="#71869D"/>
<path d="M477.311 354.341C477.311 353.597 477.914 352.993 478.659 352.993C479.403 352.993 480.007 353.597 480.007 354.341C480.007 355.086 479.403 355.689 478.659 355.689C477.914 355.689 477.311 355.086 477.311 354.341Z" fill="#71869D"/>
<path d="M477.311 324.01C477.311 323.266 477.914 322.662 478.659 322.662C479.403 322.662 480.007 323.266 480.007 324.01C480.007 324.755 479.403 325.358 478.659 325.358C477.914 325.358 477.311 324.755 477.311 324.01Z" fill="#71869D"/>
<path d="M446.98 475.666C446.98 474.921 447.583 474.318 448.328 474.318C449.072 474.318 449.676 474.921 449.676 475.666C449.676 476.41 449.072 477.014 448.328 477.014C447.583 477.014 446.98 476.41 446.98 475.666Z" fill="#71869D"/>
<path d="M446.98 445.335C446.98 444.59 447.583 443.987 448.328 443.987C449.072 443.987 449.676 444.59 449.676 445.335C449.676 446.079 449.072 446.683 448.328 446.683C447.583 446.683 446.98 446.079 446.98 445.335Z" fill="#71869D"/>
<path d="M446.98 415.004C446.98 414.259 447.583 413.655 448.328 413.655C449.072 413.655 449.676 414.259 449.676 415.004C449.676 415.748 449.072 416.352 448.328 416.352C447.583 416.352 446.98 415.748 446.98 415.004Z" fill="#71869D"/>
<path d="M446.98 384.672C446.98 383.928 447.583 383.324 448.328 383.324C449.072 383.324 449.676 383.928 449.676 384.672C449.676 385.417 449.072 386.021 448.328 386.021C447.583 386.021 446.98 385.417 446.98 384.672Z" fill="#71869D"/>
<path d="M446.98 354.341C446.98 353.597 447.583 352.993 448.328 352.993C449.072 352.993 449.676 353.597 449.676 354.341C449.676 355.086 449.072 355.689 448.328 355.689C447.583 355.689 446.98 355.086 446.98 354.341Z" fill="#71869D"/>
<path d="M446.98 324.01C446.98 323.266 447.583 322.662 448.328 322.662C449.072 322.662 449.676 323.266 449.676 324.01C449.676 324.755 449.072 325.358 448.328 325.358C447.583 325.358 446.98 324.755 446.98 324.01Z" fill="#71869D"/>
<path d="M416.649 475.666C416.649 474.921 417.252 474.318 417.997 474.318C418.741 474.318 419.345 474.921 419.345 475.666C419.345 476.41 418.741 477.014 417.997 477.014C417.252 477.014 416.649 476.41 416.649 475.666Z" fill="#71869D"/>
<path d="M416.649 445.335C416.649 444.59 417.252 443.987 417.997 443.987C418.741 443.987 419.345 444.59 419.345 445.335C419.345 446.079 418.741 446.683 417.997 446.683C417.252 446.683 416.649 446.079 416.649 445.335Z" fill="#71869D"/>
<path d="M416.649 415.004C416.649 414.259 417.252 413.655 417.997 413.655C418.741 413.655 419.345 414.259 419.345 415.004C419.345 415.748 418.741 416.352 417.997 416.352C417.252 416.352 416.649 415.748 416.649 415.004Z" fill="#71869D"/>
<path d="M416.649 384.672C416.649 383.928 417.252 383.324 417.997 383.324C418.741 383.324 419.345 383.928 419.345 384.672C419.345 385.417 418.741 386.021 417.997 386.021C417.252 386.021 416.649 385.417 416.649 384.672Z" fill="#71869D"/>
<path d="M416.649 354.341C416.649 353.597 417.252 352.993 417.997 352.993C418.741 352.993 419.345 353.597 419.345 354.341C419.345 355.086 418.741 355.689 417.997 355.689C417.252 355.689 416.649 355.086 416.649 354.341Z" fill="#71869D"/>
<path d="M416.649 324.01C416.649 323.266 417.252 322.662 417.997 322.662C418.741 322.662 419.345 323.266 419.345 324.01C419.345 324.755 418.741 325.358 417.997 325.358C417.252 325.358 416.649 324.755 416.649 324.01Z" fill="#71869D"/>
<path d="M386.317 475.666C386.317 474.921 386.921 474.318 387.666 474.318C388.41 474.318 389.014 474.921 389.014 475.666C389.014 476.41 388.41 477.014 387.666 477.014C386.921 477.014 386.317 476.41 386.317 475.666Z" fill="#71869D"/>
<path d="M386.317 445.335C386.317 444.59 386.921 443.987 387.666 443.987C388.41 443.987 389.014 444.59 389.014 445.335C389.014 446.079 388.41 446.683 387.666 446.683C386.921 446.683 386.317 446.079 386.317 445.335Z" fill="#71869D"/>
<path d="M386.317 415.004C386.317 414.259 386.921 413.655 387.666 413.655C388.41 413.655 389.014 414.259 389.014 415.004C389.014 415.748 388.41 416.352 387.666 416.352C386.921 416.352 386.317 415.748 386.317 415.004Z" fill="#71869D"/>
<path d="M386.317 384.672C386.317 383.928 386.921 383.324 387.666 383.324C388.41 383.324 389.014 383.928 389.014 384.672C389.014 385.417 388.41 386.021 387.666 386.021C386.921 386.021 386.317 385.417 386.317 384.672Z" fill="#71869D"/>
<path d="M386.317 354.341C386.317 353.597 386.921 352.993 387.666 352.993C388.41 352.993 389.014 353.597 389.014 354.341C389.014 355.086 388.41 355.689 387.666 355.689C386.921 355.689 386.317 355.086 386.317 354.341Z" fill="#71869D"/>
<path d="M386.317 324.01C386.317 323.266 386.921 322.662 387.666 322.662C388.41 322.662 389.014 323.266 389.014 324.01C389.014 324.755 388.41 325.358 387.666 325.358C386.921 325.358 386.317 324.755 386.317 324.01Z" fill="#71869D"/>
<path d="M355.986 475.666C355.986 474.921 356.59 474.318 357.334 474.318C358.079 474.318 358.682 474.921 358.682 475.666C358.682 476.41 358.079 477.014 357.334 477.014C356.59 477.014 355.986 476.41 355.986 475.666Z" fill="#71869D"/>
<path d="M355.986 445.335C355.986 444.59 356.59 443.987 357.334 443.987C358.079 443.987 358.682 444.59 358.682 445.335C358.682 446.079 358.079 446.683 357.334 446.683C356.59 446.683 355.986 446.079 355.986 445.335Z" fill="#71869D"/>
<path d="M355.986 415.004C355.986 414.259 356.59 413.655 357.334 413.655C358.079 413.655 358.682 414.259 358.682 415.004C358.682 415.748 358.079 416.352 357.334 416.352C356.59 416.352 355.986 415.748 355.986 415.004Z" fill="#71869D"/>
<path d="M355.986 384.672C355.986 383.928 356.59 383.324 357.334 383.324C358.079 383.324 358.682 383.928 358.682 384.672C358.682 385.417 358.079 386.021 357.334 386.021C356.59 386.021 355.986 385.417 355.986 384.672Z" fill="#71869D"/>
<path d="M355.986 354.341C355.986 353.597 356.59 352.993 357.334 352.993C358.079 352.993 358.682 353.597 358.682 354.341C358.682 355.086 358.079 355.689 357.334 355.689C356.59 355.689 355.986 355.086 355.986 354.341Z" fill="#71869D"/>
<path d="M355.986 324.01C355.986 323.266 356.59 322.662 357.334 322.662C358.079 322.662 358.682 323.266 358.682 324.01C358.682 324.755 358.079 325.358 357.334 325.358C356.59 325.358 355.986 324.755 355.986 324.01Z" fill="#71869D"/>
<path d="M325.655 475.666C325.655 474.921 326.259 474.318 327.003 474.318C327.748 474.318 328.351 474.921 328.351 475.666C328.351 476.41 327.748 477.014 327.003 477.014C326.259 477.014 325.655 476.41 325.655 475.666Z" fill="#71869D"/>
<path d="M325.655 445.335C325.655 444.59 326.259 443.987 327.003 443.987C327.748 443.987 328.351 444.59 328.351 445.335C328.351 446.079 327.748 446.683 327.003 446.683C326.259 446.683 325.655 446.079 325.655 445.335Z" fill="#71869D"/>
<path d="M325.655 415.004C325.655 414.259 326.259 413.655 327.003 413.655C327.748 413.655 328.351 414.259 328.351 415.004C328.351 415.748 327.748 416.352 327.003 416.352C326.259 416.352 325.655 415.748 325.655 415.004Z" fill="#71869D"/>
<path d="M325.655 384.672C325.655 383.928 326.259 383.324 327.003 383.324C327.748 383.324 328.351 383.928 328.351 384.672C328.351 385.417 327.748 386.021 327.003 386.021C326.259 386.021 325.655 385.417 325.655 384.672Z" fill="#71869D"/>
<path d="M325.655 354.341C325.655 353.597 326.259 352.993 327.003 352.993C327.748 352.993 328.351 353.597 328.351 354.341C328.351 355.086 327.748 355.689 327.003 355.689C326.259 355.689 325.655 355.086 325.655 354.341Z" fill="#71869D"/>
<path d="M325.655 324.01C325.655 323.266 326.259 322.662 327.003 322.662C327.748 322.662 328.351 323.266 328.351 324.01C328.351 324.755 327.748 325.358 327.003 325.358C326.259 325.358 325.655 324.755 325.655 324.01Z" fill="#71869D"/>
<path d="M295.324 475.666C295.324 474.921 295.928 474.318 296.672 474.318C297.417 474.318 298.02 474.921 298.02 475.666C298.02 476.41 297.417 477.014 296.672 477.014C295.928 477.014 295.324 476.41 295.324 475.666Z" fill="#71869D"/>
<path d="M295.324 445.335C295.324 444.59 295.928 443.987 296.672 443.987C297.417 443.987 298.02 444.59 298.02 445.335C298.02 446.079 297.417 446.683 296.672 446.683C295.928 446.683 295.324 446.079 295.324 445.335Z" fill="#71869D"/>
<path d="M295.324 415.004C295.324 414.259 295.928 413.655 296.672 413.655C297.417 413.655 298.02 414.259 298.02 415.004C298.02 415.748 297.417 416.352 296.672 416.352C295.928 416.352 295.324 415.748 295.324 415.004Z" fill="#71869D"/>
<path d="M295.324 384.672C295.324 383.928 295.928 383.324 296.672 383.324C297.417 383.324 298.02 383.928 298.02 384.672C298.02 385.417 297.417 386.021 296.672 386.021C295.928 386.021 295.324 385.417 295.324 384.672Z" fill="#71869D"/>
<path d="M295.324 354.341C295.324 353.597 295.928 352.993 296.672 352.993C297.417 352.993 298.02 353.597 298.02 354.341C298.02 355.086 297.417 355.689 296.672 355.689C295.928 355.689 295.324 355.086 295.324 354.341Z" fill="#71869D"/>
<path d="M295.324 324.01C295.324 323.266 295.928 322.662 296.672 322.662C297.417 322.662 298.02 323.266 298.02 324.01C298.02 324.755 297.417 325.358 296.672 325.358C295.928 325.358 295.324 324.755 295.324 324.01Z" fill="#71869D"/>
<path d="M264.993 475.666C264.993 474.921 265.597 474.318 266.341 474.318C267.086 474.318 267.689 474.921 267.689 475.666C267.689 476.41 267.086 477.014 266.341 477.014C265.597 477.014 264.993 476.41 264.993 475.666Z" fill="#71869D"/>
<path d="M264.993 445.335C264.993 444.59 265.597 443.987 266.341 443.987C267.086 443.987 267.689 444.59 267.689 445.335C267.689 446.079 267.086 446.683 266.341 446.683C265.597 446.683 264.993 446.079 264.993 445.335Z" fill="#71869D"/>
<path d="M264.993 415.004C264.993 414.259 265.597 413.655 266.341 413.655C267.086 413.655 267.689 414.259 267.689 415.004C267.689 415.748 267.086 416.352 266.341 416.352C265.597 416.352 264.993 415.748 264.993 415.004Z" fill="#71869D"/>
<path d="M264.993 384.672C264.993 383.928 265.597 383.324 266.341 383.324C267.086 383.324 267.689 383.928 267.689 384.672C267.689 385.417 267.086 386.021 266.341 386.021C265.597 386.021 264.993 385.417 264.993 384.672Z" fill="#71869D"/>
<path d="M264.993 354.341C264.993 353.597 265.597 352.993 266.341 352.993C267.086 352.993 267.689 353.597 267.689 354.341C267.689 355.086 267.086 355.689 266.341 355.689C265.597 355.689 264.993 355.086 264.993 354.341Z" fill="#71869D"/>
<path d="M264.993 324.01C264.993 323.266 265.597 322.662 266.341 322.662C267.086 322.662 267.689 323.266 267.689 324.01C267.689 324.755 267.086 325.358 266.341 325.358C265.597 325.358 264.993 324.755 264.993 324.01Z" fill="#71869D"/>
<path d="M568.304 293.679C568.304 292.935 568.907 292.331 569.652 292.331C570.396 292.331 571 292.935 571 293.679C571 294.424 570.396 295.027 569.652 295.027C568.907 295.027 568.304 294.424 568.304 293.679Z" fill="#71869D"/>
<path d="M568.304 263.348C568.304 262.604 568.907 262 569.652 262C570.396 262 571 262.604 571 263.348C571 264.093 570.396 264.696 569.652 264.696C568.907 264.696 568.304 264.093 568.304 263.348Z" fill="#71869D"/>
<path d="M537.973 293.679C537.973 292.935 538.576 292.331 539.321 292.331C540.065 292.331 540.669 292.935 540.669 293.679C540.669 294.424 540.065 295.027 539.321 295.027C538.576 295.027 537.973 294.424 537.973 293.679Z" fill="#71869D"/>
<path d="M537.973 263.348C537.973 262.604 538.576 262 539.321 262C540.065 262 540.669 262.604 540.669 263.348C540.669 264.093 540.065 264.696 539.321 264.696C538.576 264.696 537.973 264.093 537.973 263.348Z" fill="#71869D"/>
<path d="M507.642 293.679C507.642 292.935 508.245 292.331 508.99 292.331C509.734 292.331 510.338 292.935 510.338 293.679C510.338 294.424 509.734 295.027 508.99 295.027C508.245 295.027 507.642 294.424 507.642 293.679Z" fill="#71869D"/>
<path d="M507.642 263.348C507.642 262.604 508.245 262 508.99 262C509.734 262 510.338 262.604 510.338 263.348C510.338 264.093 509.734 264.696 508.99 264.696C508.245 264.696 507.642 264.093 507.642 263.348Z" fill="#71869D"/>
<path d="M477.311 293.679C477.311 292.935 477.914 292.331 478.659 292.331C479.403 292.331 480.007 292.935 480.007 293.679C480.007 294.424 479.403 295.027 478.659 295.027C477.914 295.027 477.311 294.424 477.311 293.679Z" fill="#71869D"/>
<path d="M477.311 263.348C477.311 262.604 477.914 262 478.659 262C479.403 262 480.007 262.604 480.007 263.348C480.007 264.093 479.403 264.696 478.659 264.696C477.914 264.696 477.311 264.093 477.311 263.348Z" fill="#71869D"/>
<path d="M446.98 293.679C446.98 292.935 447.583 292.331 448.328 292.331C449.072 292.331 449.676 292.935 449.676 293.679C449.676 294.424 449.072 295.027 448.328 295.027C447.583 295.027 446.98 294.424 446.98 293.679Z" fill="#71869D"/>
<path d="M446.98 263.348C446.98 262.604 447.583 262 448.328 262C449.072 262 449.676 262.604 449.676 263.348C449.676 264.093 449.072 264.696 448.328 264.696C447.583 264.696 446.98 264.093 446.98 263.348Z" fill="#71869D"/>
<path d="M416.649 293.679C416.649 292.935 417.252 292.331 417.997 292.331C418.741 292.331 419.345 292.935 419.345 293.679C419.345 294.424 418.741 295.027 417.997 295.027C417.252 295.027 416.649 294.424 416.649 293.679Z" fill="#71869D"/>
<path d="M416.649 263.348C416.649 262.604 417.252 262 417.997 262C418.741 262 419.345 262.604 419.345 263.348C419.345 264.093 418.741 264.696 417.997 264.696C417.252 264.696 416.649 264.093 416.649 263.348Z" fill="#71869D"/>
<path d="M386.317 293.679C386.317 292.935 386.921 292.331 387.666 292.331C388.41 292.331 389.014 292.935 389.014 293.679C389.014 294.424 388.41 295.027 387.666 295.027C386.921 295.027 386.317 294.424 386.317 293.679Z" fill="#71869D"/>
<path d="M386.317 263.348C386.317 262.604 386.921 262 387.666 262C388.41 262 389.014 262.604 389.014 263.348C389.014 264.093 388.41 264.696 387.666 264.696C386.921 264.696 386.317 264.093 386.317 263.348Z" fill="#71869D"/>
<path d="M355.986 293.679C355.986 292.935 356.59 292.331 357.334 292.331C358.079 292.331 358.682 292.935 358.682 293.679C358.682 294.424 358.079 295.027 357.334 295.027C356.59 295.027 355.986 294.424 355.986 293.679Z" fill="#71869D"/>
<path d="M355.986 263.348C355.986 262.604 356.59 262 357.334 262C358.079 262 358.682 262.604 358.682 263.348C358.682 264.093 358.079 264.696 357.334 264.696C356.59 264.696 355.986 264.093 355.986 263.348Z" fill="#71869D"/>
<path d="M325.655 293.679C325.655 292.935 326.259 292.331 327.003 292.331C327.748 292.331 328.351 292.935 328.351 293.679C328.351 294.424 327.748 295.027 327.003 295.027C326.259 295.027 325.655 294.424 325.655 293.679Z" fill="#71869D"/>
<path d="M325.655 263.348C325.655 262.604 326.259 262 327.003 262C327.748 262 328.351 262.604 328.351 263.348C328.351 264.093 327.748 264.696 327.003 264.696C326.259 264.696 325.655 264.093 325.655 263.348Z" fill="#71869D"/>
<path d="M295.324 293.679C295.324 292.935 295.928 292.331 296.672 292.331C297.417 292.331 298.02 292.935 298.02 293.679C298.02 294.424 297.417 295.027 296.672 295.027C295.928 295.027 295.324 294.424 295.324 293.679Z" fill="#71869D"/>
<path d="M295.324 263.348C295.324 262.604 295.928 262 296.672 262C297.417 262 298.02 262.604 298.02 263.348C298.02 264.093 297.417 264.696 296.672 264.696C295.928 264.696 295.324 264.093 295.324 263.348Z" fill="#71869D"/>
<path d="M264.993 293.679C264.993 292.935 265.597 292.331 266.341 292.331C267.086 292.331 267.689 292.935 267.689 293.679C267.689 294.424 267.086 295.027 266.341 295.027C265.597 295.027 264.993 294.424 264.993 293.679Z" fill="#71869D"/>
<path d="M264.993 263.348C264.993 262.604 265.597 262 266.341 262C267.086 262 267.689 262.604 267.689 263.348C267.689 264.093 267.086 264.696 266.341 264.696C265.597 264.696 264.993 264.093 264.993 263.348Z" fill="#71869D"/>
<path d="M234.662 475.666C234.662 474.921 235.266 474.318 236.01 474.318C236.755 474.318 237.358 474.921 237.358 475.666C237.358 476.41 236.755 477.014 236.01 477.014C235.266 477.014 234.662 476.41 234.662 475.666Z" fill="#71869D"/>
<path d="M234.662 445.335C234.662 444.59 235.266 443.987 236.01 443.987C236.755 443.987 237.358 444.59 237.358 445.335C237.358 446.079 236.755 446.683 236.01 446.683C235.266 446.683 234.662 446.079 234.662 445.335Z" fill="#71869D"/>
<path d="M234.662 415.004C234.662 414.259 235.266 413.655 236.01 413.655C236.755 413.655 237.358 414.259 237.358 415.004C237.358 415.748 236.755 416.352 236.01 416.352C235.266 416.352 234.662 415.748 234.662 415.004Z" fill="#71869D"/>
<path d="M234.662 384.672C234.662 383.928 235.266 383.324 236.01 383.324C236.755 383.324 237.358 383.928 237.358 384.672C237.358 385.417 236.755 386.021 236.01 386.021C235.266 386.021 234.662 385.417 234.662 384.672Z" fill="#71869D"/>
<path d="M234.662 354.341C234.662 353.597 235.266 352.993 236.01 352.993C236.755 352.993 237.358 353.597 237.358 354.341C237.358 355.086 236.755 355.689 236.01 355.689C235.266 355.689 234.662 355.086 234.662 354.341Z" fill="#71869D"/>
<path d="M234.662 324.01C234.662 323.266 235.266 322.662 236.01 322.662C236.755 322.662 237.358 323.266 237.358 324.01C237.358 324.755 236.755 325.358 236.01 325.358C235.266 325.358 234.662 324.755 234.662 324.01Z" fill="#71869D"/>
<path d="M204.331 475.666C204.331 474.921 204.934 474.318 205.679 474.318C206.424 474.318 207.027 474.921 207.027 475.666C207.027 476.41 206.424 477.014 205.679 477.014C204.934 477.014 204.331 476.41 204.331 475.666Z" fill="#71869D"/>
<path d="M204.331 445.335C204.331 444.59 204.934 443.987 205.679 443.987C206.424 443.987 207.027 444.59 207.027 445.335C207.027 446.079 206.424 446.683 205.679 446.683C204.934 446.683 204.331 446.079 204.331 445.335Z" fill="#71869D"/>
<path d="M204.331 415.004C204.331 414.259 204.934 413.655 205.679 413.655C206.424 413.655 207.027 414.259 207.027 415.004C207.027 415.748 206.424 416.352 205.679 416.352C204.934 416.352 204.331 415.748 204.331 415.004Z" fill="#71869D"/>
<path d="M204.331 384.672C204.331 383.928 204.934 383.324 205.679 383.324C206.424 383.324 207.027 383.928 207.027 384.672C207.027 385.417 206.424 386.021 205.679 386.021C204.934 386.021 204.331 385.417 204.331 384.672Z" fill="#71869D"/>
<path d="M204.331 354.341C204.331 353.597 204.934 352.993 205.679 352.993C206.424 352.993 207.027 353.597 207.027 354.341C207.027 355.086 206.424 355.689 205.679 355.689C204.934 355.689 204.331 355.086 204.331 354.341Z" fill="#71869D"/>
<path d="M204.331 324.01C204.331 323.266 204.934 322.662 205.679 322.662C206.424 322.662 207.027 323.266 207.027 324.01C207.027 324.755 206.424 325.358 205.679 325.358C204.934 325.358 204.331 324.755 204.331 324.01Z" fill="#71869D"/>
<path d="M174 475.666C174 474.921 174.603 474.318 175.348 474.318C176.093 474.318 176.696 474.921 176.696 475.666C176.696 476.41 176.093 477.014 175.348 477.014C174.603 477.014 174 476.41 174 475.666Z" fill="#71869D"/>
<path d="M174 445.335C174 444.59 174.603 443.987 175.348 443.987C176.093 443.987 176.696 444.59 176.696 445.335C176.696 446.079 176.093 446.683 175.348 446.683C174.603 446.683 174 446.079 174 445.335Z" fill="#71869D"/>
<path d="M174 415.004C174 414.259 174.603 413.655 175.348 413.655C176.093 413.655 176.696 414.259 176.696 415.004C176.696 415.748 176.093 416.352 175.348 416.352C174.603 416.352 174 415.748 174 415.004Z" fill="#71869D"/>
<path d="M174 384.672C174 383.928 174.603 383.324 175.348 383.324C176.093 383.324 176.696 383.928 176.696 384.672C176.696 385.417 176.093 386.021 175.348 386.021C174.603 386.021 174 385.417 174 384.672Z" fill="#71869D"/>
<path d="M174 354.341C174 353.597 174.603 352.993 175.348 352.993C176.093 352.993 176.696 353.597 176.696 354.341C176.696 355.086 176.093 355.689 175.348 355.689C174.603 355.689 174 355.086 174 354.341Z" fill="#71869D"/>
<path d="M174 324.01C174 323.266 174.603 322.662 175.348 322.662C176.093 322.662 176.696 323.266 176.696 324.01C176.696 324.755 176.093 325.358 175.348 325.358C174.603 325.358 174 324.755 174 324.01Z" fill="#71869D"/>
<path d="M234.662 293.679C234.662 292.935 235.266 292.331 236.01 292.331C236.755 292.331 237.358 292.935 237.358 293.679C237.358 294.424 236.755 295.027 236.01 295.027C235.266 295.027 234.662 294.424 234.662 293.679Z" fill="#71869D"/>
<path d="M234.662 263.348C234.662 262.604 235.266 262 236.01 262C236.755 262 237.358 262.604 237.358 263.348C237.358 264.093 236.755 264.696 236.01 264.696C235.266 264.696 234.662 264.093 234.662 263.348Z" fill="#71869D"/>
<path d="M204.331 293.679C204.331 292.935 204.934 292.331 205.679 292.331C206.424 292.331 207.027 292.935 207.027 293.679C207.027 294.424 206.424 295.027 205.679 295.027C204.934 295.027 204.331 294.424 204.331 293.679Z" fill="#71869D"/>
<path d="M204.331 263.348C204.331 262.604 204.934 262 205.679 262C206.424 262 207.027 262.604 207.027 263.348C207.027 264.093 206.424 264.696 205.679 264.696C204.934 264.696 204.331 264.093 204.331 263.348Z" fill="#71869D"/>
<path d="M174 293.679C174 292.935 174.603 292.331 175.348 292.331C176.093 292.331 176.696 292.935 176.696 293.679C176.696 294.424 176.093 295.027 175.348 295.027C174.603 295.027 174 294.424 174 293.679Z" fill="#71869D"/>
<path d="M174 263.348C174 262.604 174.603 262 175.348 262C176.093 262 176.696 262.604 176.696 263.348C176.696 264.093 176.093 264.696 175.348 264.696C174.603 264.696 174 264.093 174 263.348Z" fill="#71869D"/>
</g>
<g filter="url(#filter0_d_103_1922)">
<path d="M516.654 151.306C518.677 137.991 508.371 126 494.904 126H30.5605C17.1054 126 6.80237 137.971 8.80569 151.276L55.1807 459.276C56.8014 470.04 66.0502 478 76.9355 478H448.091C458.965 478 468.207 470.056 469.841 459.306L516.654 151.306Z" fill="white"/>
</g>
<path d="M229.5 207.999C152 160 82.5 148 14 186L55 457C59 489 84.5 476 157 477.694L444 478.114C444 478.114 456 426 388 352.5C320 279 469 301 444 256C419 217 307 255.999 229.5 207.999Z" fill="#BDCDFF"/>
<ellipse cx="208" cy="423.5" rx="151" ry="16.5" fill="#A9BCF7"/>
<g filter="url(#filter1_d_103_1922)">
<path d="M264.573 415.834C265.344 416.818 278.361 415.614 278.361 415.614C278.361 415.614 278.476 415.251 278.594 414.712C278.782 413.868 278.847 412.897 277.966 411.571C277.085 410.245 275.245 408.307 275.245 408.307L269.583 411.571C269.583 411.571 268.114 412.04 266.494 412.897C264.875 413.753 263.802 414.851 264.573 415.834Z" fill="#F2FCF9"/>
<path d="M264.573 415.834C265.344 416.817 278.361 415.614 278.361 415.614C278.361 415.614 278.476 415.251 278.594 414.708C275.759 415.1 265.609 415.985 264.296 415.055C264.296 415.324 264.377 415.589 264.569 415.834H264.573Z" fill="#ABCEBD"/>
<path d="M277.464 409.706C277.464 409.706 272.871 410.701 272.055 410.701C271.239 410.701 270.435 410.244 270.427 409.938C270.39 408.922 264.806 371.688 264.806 361.537C264.806 359.497 265.022 357.828 267.926 357.828C270.831 357.828 276.134 363.373 276.95 371.125C277.505 376.417 278.174 387.037 277.464 409.706Z" fill="#041B3A"/>
<path d="M278.174 335.629C277.766 341.341 275.318 349.093 274.502 356.845C274.241 359.314 272.871 365.821 269.607 365.821C266.344 365.821 265.307 362.961 264.806 361.533C264.304 360.105 262.048 342.994 260.755 337.673C260.09 334.94 257.728 326.653 259.001 319.717C260.208 313.148 264.867 307.865 270.423 307.069C281.845 305.437 278.582 329.917 278.174 335.629Z" fill="#041B3A"/>
<path d="M227.267 415.834C228.038 416.817 248.557 414.732 248.557 414.732C248.557 414.732 248.671 414.369 248.79 413.83C248.977 412.986 249.185 411.709 249.002 410.713C248.704 409.081 245.441 407.425 245.441 407.425L236.678 411.268C236.678 411.268 230.677 411.839 229.058 412.696C227.438 413.553 226.492 414.85 227.267 415.834Z" fill="#F2FCF9"/>
<path d="M227.267 415.835C228.038 416.818 248.557 414.733 248.557 414.733C248.557 414.733 248.671 414.37 248.79 413.827C245.954 414.219 228.303 415.985 226.989 415.055C226.989 415.324 227.071 415.59 227.263 415.835H227.267Z" fill="#ABCEBD"/>
<path d="M249.1 410.285C249.1 410.285 246.762 410.697 244.722 410.697C242.683 410.697 241.031 409.375 241.051 409.065C241.108 408.049 239.97 371.264 240.9 361.154C241.088 359.122 241.455 357.482 244.347 357.747C247.239 358.012 252.012 364.022 252.114 371.815C252.184 377.135 251.878 387.772 249.096 410.281L249.1 410.285Z" fill="#041B3A"/>
<path d="M256.586 336.584C255.655 342.235 252.51 349.73 250.989 357.375C250.503 359.811 248.541 366.164 245.294 365.866C242.042 365.568 241.275 362.622 240.904 361.158C240.537 359.693 239.831 345.013 239.831 337.669C239.831 335.604 239.684 328.575 240.362 322.3C240.606 320.027 240.957 317.852 241.463 316.045C243.266 309.615 245.877 307.718 251.482 307.436C263.007 306.857 257.516 330.937 256.586 336.584Z" fill="#041B3A"/>
<path d="M242.777 283.238C240.876 284.576 238.762 285.437 236.637 286.269L233.459 287.546L230.269 288.799C228.14 289.627 226.006 290.447 223.864 291.243C222.796 291.646 221.719 292.03 220.642 292.418C219.565 292.809 218.492 293.197 217.407 293.564C216.309 293.935 215.118 293.348 214.743 292.25C214.412 291.279 214.837 290.235 215.697 289.749C216.693 289.186 217.7 288.639 218.708 288.097C219.716 287.554 220.719 287.003 221.731 286.477C223.75 285.408 225.782 284.36 227.817 283.323L230.873 281.777L233.941 280.255C235.98 279.223 238.028 278.219 240.292 277.693C241.957 277.305 243.621 278.337 244.009 280.002C244.302 281.267 243.776 282.532 242.773 283.238H242.777Z" fill="#FFD4BB"/>
<path d="M202.656 293.748L203.883 295.196L207.673 294.976C207.673 294.976 207.628 295.51 208.652 296.134C209.676 296.759 216.526 294.229 217.615 293.397C219.818 291.724 217.309 289.308 217.309 289.308C217.309 289.308 208.701 289.129 208.118 289.619C207.535 290.108 202.986 292.964 202.651 293.743L202.656 293.748Z" fill="#FFD4BB"/>
<path d="M212.94 293.258C213.254 292.744 209.839 291.65 209.281 291.875C208.722 292.099 203.883 295.196 203.883 295.196L207.673 294.975C207.673 294.975 212.626 293.772 212.936 293.258H212.94Z" fill="#F7ACAC"/>
<path d="M253.408 250.647C253.412 252.038 253.281 253.389 253.118 254.731C252.947 256.069 252.722 257.395 252.465 258.705C251.931 261.324 251.241 263.899 250.446 266.445C249.659 268.991 248.79 271.512 247.811 273.997C247.325 275.241 246.807 276.477 246.252 277.701C245.697 278.925 245.118 280.141 244.449 281.333C243.605 282.834 241.708 283.364 240.207 282.524C239.125 281.916 238.546 280.753 238.624 279.59C238.718 278.228 238.901 276.894 239.109 275.563C239.321 274.237 239.566 272.92 239.843 271.614C240.39 268.999 241.051 266.412 241.789 263.854C242.52 261.292 243.36 258.762 244.351 256.277C244.853 255.037 245.396 253.809 245.987 252.597C246.587 251.385 247.219 250.186 247.986 249.023C248.888 247.664 250.723 247.293 252.082 248.195C252.93 248.758 253.391 249.7 253.403 250.643L253.408 250.647Z" fill="#FFD4BB"/>
<path d="M254.073 248.839C254.223 249.655 254.285 250.446 254.317 251.225C254.35 252.009 254.342 252.78 254.309 253.543C254.236 255.069 254.052 256.566 253.791 258.043C253.538 259.52 253.228 260.985 252.841 262.425C252.449 263.865 252.008 265.293 251.38 266.668C251.38 266.668 249.455 268.145 245.763 267.027C242.071 265.909 240.749 263.759 240.749 263.759C240.912 262.258 241.255 260.801 241.651 259.365C242.05 257.929 242.528 256.509 243.062 255.11C243.588 253.706 244.196 252.323 244.906 250.973C245.269 250.299 245.653 249.63 246.077 248.973C246.505 248.316 246.958 247.668 247.505 247.043C248.879 245.473 251.27 245.314 252.841 246.689C253.506 247.268 253.918 248.035 254.068 248.839H254.073Z" fill="#00183D"/>
<path d="M241.761 259.537C241.761 259.537 245.29 264.833 252.792 262.626" stroke="#F2FCF9" stroke-width="1.08" stroke-miterlimit="10"/>
<path d="M277.66 227.533C277.101 235.509 280.499 245.591 263.21 245.534C245.918 245.477 246.44 240.471 246.44 240.471C246.44 240.471 251.021 236.872 251.821 225.493C252.616 214.114 258.707 211.515 265.752 212.07C272.801 212.625 278.219 219.553 277.66 227.529V227.533Z" fill="#381B05"/>
<path d="M258.809 236.763L267.673 237.248L268.31 244.274L269.342 246.518C269.342 246.518 266.547 259.24 259.192 256.669C253.314 254.617 255.39 246.306 255.39 246.306C254.55 244.678 257.87 245.196 260.265 243.605L258.809 236.763Z" fill="#FFD4BB"/>
<path d="M258.809 236.763L267.673 237.248L268.31 244.274C266.694 245.192 261.399 246.077 260.265 243.605L258.809 236.763Z" fill="#F7ACAC"/>
<path d="M259.572 325.551C270.831 325.551 274.049 319.713 275.318 315.225C276.587 310.737 275.832 305.445 275.069 302.699C273.434 296.804 271.696 294.037 271.696 294.037L259.572 293.642L247.448 294.037C247.448 294.037 245.71 296.804 244.074 302.699C243.311 305.445 241.867 312.777 243.503 317.673C245.139 322.569 248.312 325.551 259.576 325.551H259.572Z" fill="#041B3A"/>
<path d="M279.932 316.731C279.516 317.326 278.892 317.91 278.092 318.456C270.933 323.406 249.924 326.094 242.022 319.534C241.063 318.738 240.3 317.808 239.774 316.731C239.986 314.507 240.439 307.085 241.031 304.331C243.046 294.939 246.677 282.928 247.749 271.385C246.163 269.529 246.052 266.653 246.052 266.653C246.052 266.653 253.016 247.432 250.654 245.722L260.253 243.604C259.996 243.755 254.778 254.457 260.955 254.457C267.131 254.457 268.306 244.306 268.306 244.306L276.081 245.579L274.115 260.402C270.798 285.07 275.122 291.263 278.382 304.327C278.945 306.584 279.475 313.932 279.932 316.727V316.731Z" fill="#00345C"/>
<path d="M270.223 258.436H262.28V261.965H270.223V258.436Z" fill="#F2FCF9"/>
<path d="M254.978 231.425C254.334 236.366 257.495 241.662 260.755 242.266C267.979 241.658 272.834 236.774 273.058 228.447C272.095 220.703 270.247 217.251 263.023 217.859C255.798 218.467 254.015 223.677 254.978 231.425Z" fill="#FFD4BB"/>
<path d="M254.448 221.446C253.591 222.237 260.033 231.638 273.368 232.144C273.368 232.144 280.136 219.581 263.969 217.264C263.969 217.264 259.494 216.786 254.448 221.446Z" fill="#381B05"/>
<path d="M279.769 248.558C280.67 249.753 281.425 250.998 282.147 252.258C282.865 253.519 283.522 254.804 284.142 256.098C285.37 258.697 286.435 261.353 287.385 264.054C288.348 266.75 289.221 269.476 289.98 272.25C290.363 273.633 290.71 275.029 291.028 276.441C291.338 277.852 291.624 279.272 291.815 280.725C292.056 282.556 290.767 284.237 288.935 284.478C287.614 284.654 286.365 284.025 285.688 282.973C284.893 281.74 284.191 280.472 283.514 279.195C282.841 277.917 282.204 276.628 281.601 275.323C280.389 272.72 279.292 270.072 278.28 267.395C277.26 264.723 276.35 262.005 275.608 259.227C275.245 257.836 274.914 256.432 274.645 255.008C274.38 253.58 274.152 252.14 274.066 250.647C273.968 248.896 275.306 247.395 277.056 247.297C278.145 247.236 279.153 247.746 279.769 248.554V248.558Z" fill="#FFD4BB"/>
<path d="M279.177 246.571C279.834 247.175 280.393 247.815 280.927 248.468C281.458 249.121 281.947 249.79 282.412 250.467C283.33 251.83 284.138 253.233 284.864 254.674C285.598 256.11 286.276 257.566 286.867 259.056C287.459 260.545 287.997 262.058 288.344 263.646C288.344 263.646 287.638 266.155 283.742 267.575C279.846 268.99 277.325 267.991 277.325 267.991C276.497 266.595 275.857 265.123 275.273 263.629C274.69 262.136 274.188 260.61 273.748 259.06C273.299 257.513 272.928 255.934 272.671 254.311C272.548 253.499 272.446 252.674 272.389 251.834C272.332 250.993 272.304 250.145 272.373 249.255C272.544 247.015 274.498 245.343 276.734 245.514C277.68 245.587 278.525 245.979 279.173 246.575L279.177 246.571Z" fill="#00183D"/>
<path d="M275.975 265.314C275.975 265.314 283.648 266.819 287.304 260.197" stroke="#F2FCF9" stroke-width="1.08" stroke-miterlimit="10"/>
<path d="M291.607 283.438C290.832 285.812 289.568 287.914 288.279 290.002L286.369 293.148L284.432 296.278C283.134 298.362 281.829 300.439 280.495 302.504C279.838 303.54 279.153 304.564 278.48 305.592C277.807 306.62 277.129 307.649 276.432 308.66C275.726 309.689 274.323 309.95 273.295 309.244C272.385 308.62 272.079 307.449 272.503 306.478C272.997 305.352 273.511 304.234 274.029 303.12C274.543 302.006 275.053 300.884 275.583 299.778C276.632 297.555 277.705 295.347 278.79 293.148L280.422 289.847L282.082 286.563C283.171 284.364 284.289 282.181 285.896 280.268C287.079 278.86 289.176 278.68 290.583 279.86C291.652 280.757 292.011 282.189 291.607 283.438Z" fill="#FFD4BB"/>
<path d="M264.875 318.811L264.222 316.877L266.531 313.511C266.531 313.511 266.013 313.254 266.009 311.965C266.005 310.675 272.136 305.783 273.503 305.241C276.265 304.147 277.093 307.795 277.093 307.795C277.093 307.795 272.475 315.816 271.704 316.077C270.929 316.338 265.776 318.937 264.875 318.811Z" fill="#FFD4BB"/>
<path d="M164.701 227.525L172.623 217.925H207.204L215.126 227.525H225.394V228.896H214.482L206.559 219.296H190.943V289.121H188.883V219.296H173.267L165.349 228.896H154.433V227.525H164.701Z" fill="#F0F3F9"/>
<path d="M188.198 403.439V285.123H191.629V403.439L214.38 411.041V418.148H210.268V413.391L189.916 406.479L169.131 413.538V418.148H165.019V411.041L188.198 403.439Z" fill="#CFCFCF"/>
<path d="M212.324 421.575C214.216 421.575 215.751 420.041 215.751 418.148C215.751 416.255 214.216 414.721 212.324 414.721C210.431 414.721 208.897 416.255 208.897 418.148C208.897 420.041 210.431 421.575 212.324 421.575Z" fill="#6183BA"/>
<path d="M167.075 421.575C168.967 421.575 170.502 420.041 170.502 418.148C170.502 416.255 168.967 414.721 167.075 414.721C165.182 414.721 163.648 416.255 163.648 418.148C163.648 420.041 165.182 421.575 167.075 421.575Z" fill="#6183BA"/>
<path d="M213.258 231.973V249.59C213.258 252.573 215.697 255.009 218.675 255.009H228.613C231.595 255.009 234.03 252.569 234.03 249.59V231.973C234.03 228.99 231.591 226.555 228.613 226.555H218.675C215.693 226.555 213.258 228.995 213.258 231.973ZM218.675 228.811C218.675 228.191 219.185 227.681 219.805 227.681H227.483C228.103 227.681 228.613 228.191 228.613 228.811C228.613 229.431 228.103 229.941 227.483 229.941H219.805C219.185 229.941 218.675 229.431 218.675 228.811Z" fill="#DFEBFF"/>
<path d="M219.344 253.858H227.948C230.53 253.858 232.639 251.744 232.639 249.166V240.953C232.639 238.37 214.649 238.37 214.649 240.953V249.166C214.649 251.748 216.762 253.858 219.34 253.858H219.344Z" fill="#06273E"/>
<path d="M188.329 220.487H191.519V216.897H188.329V220.487Z" fill="#DCE9FF"/>
<path d="M229.421 332.434C231.754 332.434 233.296 332.389 233.496 332.381L228.874 327.84C223.236 327.444 216.844 327.534 210.37 321.83C207.355 319.174 194.346 311.605 186.158 295.726L178.305 294.232C178.477 294.567 182.568 302.482 187.929 310.797C198.372 327.007 204.083 329.88 207.473 330.634C214.47 332.189 224.044 332.438 229.421 332.438V332.434Z" fill="#FFD4BB"/>
<path d="M175.948 282.119C175.948 282.119 179.958 284.212 187.162 293.217C193.171 300.732 192.171 300.732 193.171 302.735C192.167 303.237 187.688 305.551 187.688 305.551L176.099 290.748L175.943 282.119H175.948Z" fill="#E1EFEF"/>
<path d="M191.67 299.231C192.412 300.353 192.873 301.528 193.171 302.74L187.66 309.754L187.19 303.972C188.068 302.553 191.666 299.236 191.666 299.236L191.67 299.231Z" fill="#B7CECC"/>
<path d="M152.47 287.591C153.927 285.273 157.557 283.152 159.866 281.879C164.566 285.588 174.181 292.879 174.181 292.879L175.952 280.618C178.089 281.075 183.217 289.77 184.661 291.214C190.172 297.224 190.67 301.234 188.169 305.241C189.777 314.478 191.751 322.528 204.699 323.275C206.311 323.369 224.623 329.852 225.41 330.664H162C151.548 318.477 143.581 301.728 152.47 287.591Z" fill="#D8E6E6"/>
<path d="M99.9888 279.725H82.7124V294.825H99.9888H117.265V279.725H99.9888Z" fill="#89A2E0"/>
<path d="M128.908 243.849H71.0697C69.9275 243.849 69.0015 244.775 69.0015 245.917V280.173C69.0015 281.315 69.9275 282.242 71.0697 282.242H128.908C130.05 282.242 130.976 281.315 130.976 280.173V245.917C130.976 244.775 130.05 243.849 128.908 243.849Z" fill="#E9E6DD"/>
<path d="M128.908 243.849H99.9888V282.242H128.908C130.046 282.242 130.976 281.311 130.976 280.173V245.917C130.976 244.779 130.046 243.849 128.908 243.849Z" fill="#E9E6DD"/>
<path d="M127.871 246.953H72.1057V279.136H127.871V246.953Z" fill="#B7C9FF"/>
<path d="M127.872 246.953H99.9888V279.136H127.872V246.953Z" fill="#B7C9FF"/>
<path d="M127.871 257.084H72.1057V257.227H127.871V257.084Z" fill="#E5E3DF"/>
<path d="M122.564 260.36H66.7986V260.503H122.564V260.36Z" fill="#E5E3DF"/>
<path d="M127.871 261.36H72.1057V261.503H127.871V261.36Z" fill="#E5E3DF"/>
<path d="M127.871 263.498H72.1057V263.641H127.871V263.498Z" fill="#E5E3DF"/>
<path d="M127.871 265.64H72.1057V265.782H127.871V265.64Z" fill="#E5E3DF"/>
<path d="M127.871 267.778H72.1057V267.921H127.871V267.778Z" fill="#E5E3DF"/>
<path d="M127.871 269.915H72.1057V270.058H127.871V269.915Z" fill="#E5E3DF"/>
<path d="M127.871 272.054H72.1057V272.197H127.871V272.054Z" fill="#E5E3DF"/>
<path d="M99.9887 282.466H97.9204V415.968H99.9887H102.057V282.466H99.9887Z" fill="#00345C"/>
<path d="M125.085 415.389H73.6968V421.101H125.085V415.389Z" fill="#00345C"/>
<path d="M100.07 291.438H67.6021V298.039H100.07H132.542V291.438H100.07Z" fill="#868686"/>
<path d="M99.9887 287.509H64V294.824H99.9887H135.977V287.509H99.9887Z" fill="#E9E6DD"/>
<path d="M72.624 262.363H89.5414L90.6959 259.066L92.2175 265.447L95.2567 254.505L99.8134 273.652L103.766 258.76L105.59 265.447L106.532 262.363H113.051" stroke="#2C5A79" stroke-width="2.98" stroke-linecap="round" stroke-linejoin="round"/>
<path d="M120.512 250.686H120.5C120.043 248.324 116.943 249.054 116.943 251.131C116.943 251.409 117.004 251.682 117.106 251.951L117.188 252.159C117.991 253.926 120.496 255.415 120.496 255.415C120.496 255.415 120.504 255.415 120.508 255.415C120.508 255.415 124.074 253.302 124.074 251.127C124.074 248.952 121.026 248.32 120.508 250.682L120.512 250.686Z" fill="#2C5A79"/>
<path opacity="0.09" d="M76.6626 326.824C77.7804 326.534 78.8818 326.273 79.9669 326.069C80.1791 326.326 80.3953 326.575 80.6074 326.824H76.6626Z" fill="#006054"/>
<path opacity="0.09" d="M180.7 330.664H162C151.549 318.477 144.295 302.467 153.18 288.326C154.527 286.18 156.338 284.515 158.426 283.271C157.774 290.484 158.606 292.43 161.074 298.64C162.078 301.161 172.064 321.969 180.696 330.664H180.7Z" fill="#006054"/>
<path d="M172.496 274.55L164.007 273.734L160.115 281.69C160.115 281.69 166.345 293.898 173.639 291.209C179.468 289.059 176.188 283.204 176.188 283.204C177.025 281.499 175.413 280.475 173.312 279.589L172.496 274.546V274.55Z" fill="#FFD4BB"/>
<path d="M173.639 279.692C173.639 279.692 171.636 282.197 167.63 280.695C163.624 279.194 164.623 276.689 164.623 276.689C164.623 276.689 167.128 273.18 168.131 273.682C169.135 274.184 173.141 274.686 173.141 274.686L173.643 279.696L173.639 279.692Z" fill="#F7ACAC"/>
<path d="M174.683 280.606L173.447 290.639L161.339 281.883C161.339 281.883 158.765 281.124 157.113 283.519C157.113 283.519 175.915 296.632 175.943 296.538C175.972 296.449 178.477 280.732 178.477 280.732C178.477 280.732 177.012 279.839 174.679 280.606H174.683Z" fill="#C0D8D7"/>
<path d="M271.928 356.604H154.522V373.32L189.136 385.173H237.314L271.928 373.32V356.604Z" fill="#868686"/>
<path d="M170.453 370.138C176.001 372.231 182.409 369.795 184.698 364.72L187.288 358.979C189.577 353.908 186.913 348.045 181.365 345.948L92.6987 313.132C87.1507 311.039 80.742 313.479 78.4534 318.55L75.863 324.291C73.5744 329.362 76.2383 335.225 81.7863 337.322L170.453 370.138Z" fill="#DBDBDB"/>
<path d="M164.839 360.914C164.839 366.401 170.012 370.893 176.335 370.893H340.887C347.21 370.893 352.383 366.405 352.383 360.914V351.619C352.383 346.132 347.21 341.64 340.887 341.64H179.382C173.059 341.64 167.887 346.132 167.887 351.619L164.839 360.914Z" fill="#DBDBDB"/>
<path d="M163.542 356.311C169.09 358.404 175.499 355.964 177.787 350.892L180.378 345.152C182.666 340.08 180.003 334.217 174.455 332.124L88.5379 299.354C82.9898 297.261 76.5811 299.7 74.2925 304.772L71.7021 310.512C69.4135 315.584 72.0774 321.447 77.6254 323.544L163.542 356.319V356.311Z" fill="white"/>
<path d="M174.981 348.167C174.981 353.655 180.153 358.147 186.477 358.147H347.977C354.3 358.147 359.473 353.655 359.473 348.167V328.685C359.473 323.197 354.3 318.705 347.977 318.705L313.632 318.636C313.632 318.636 298.294 316.131 290.078 316.131C281.862 316.131 281.719 317.269 271.928 318.705C262.138 320.142 213.384 310.623 207.359 308.118C201.334 305.613 164.631 318.66 164.631 324.148L174.977 348.163L174.981 348.167Z" fill="#BEEFD5"/>
<path d="M174.981 338.428V348.167C174.981 353.654 180.153 358.146 186.477 358.146H347.977C354.3 358.146 359.473 353.654 359.473 348.167V338.428H174.981Z" fill="white"/>
<path d="M241.598 365.311L247.138 361.26L225.647 336.674C222.579 333.161 216.554 330.513 211.638 330.513H89.3577V337H211.638C214.368 337 218.402 338.775 220.107 340.725L241.598 365.311Z" fill="#DBDBDB"/>
<path d="M103.75 408.882V396.618C103.75 393.003 106.981 390.049 110.934 390.049H315.513C319.462 390.049 322.697 393.007 322.697 396.618V408.882H328.045V385.173C328.045 383.831 326.841 382.733 325.373 382.733H101.078C99.6094 382.733 98.406 383.831 98.406 385.173V408.882H103.754H103.75Z" fill="#DBDBDB"/>
<path d="M99.8622 396.332C92.3642 396.332 86.2859 401.893 86.2859 408.748C86.2859 415.602 92.3642 421.163 99.8622 421.163C107.36 421.163 113.439 415.602 113.439 408.748C113.439 401.893 107.36 396.332 99.8622 396.332Z" fill="#486086"/>
<path d="M99.8621 417.576C94.5303 417.576 90.2102 413.623 90.2102 408.747C90.2102 403.872 94.5303 399.918 99.8621 399.918C105.194 399.918 109.514 403.872 109.514 408.747C109.514 413.623 105.194 417.576 99.8621 417.576Z" fill="#BEBEBE"/>
<path d="M99.8623 399.922V417.576C105.194 417.576 109.514 413.623 109.514 408.747C109.514 403.872 105.194 399.918 99.8623 399.918V399.922Z" fill="#DADDDF"/>
<path d="M325.903 396.332C318.405 396.332 312.327 401.893 312.327 408.748C312.327 415.602 318.405 421.163 325.903 421.163C333.401 421.163 339.479 415.602 339.479 408.748C339.479 401.893 333.401 396.332 325.903 396.332Z" fill="#486086"/>
<path d="M325.903 417.576C320.571 417.576 316.251 413.623 316.251 408.747C316.251 403.872 320.571 399.918 325.903 399.918C331.235 399.918 335.555 403.872 335.555 408.747C335.555 413.623 331.235 417.576 325.903 417.576Z" fill="#BEBEBE"/>
<path d="M325.903 399.922V417.576C331.235 417.576 335.555 413.623 335.555 408.747C335.555 403.872 331.235 399.918 325.903 399.918V399.922Z" fill="#DADDDF"/>
<path d="M159.418 282.715C161.123 282.042 162.106 283.249 162.616 285.522C161.947 286.501 161.637 287.705 161.584 288.876C161.555 289.688 161.723 290.443 162.09 291.144C162.286 291.744 162.6 292.274 163.024 292.744C162.706 301.96 160.356 314.086 160.356 314.086L146.213 308.199C146.033 301.406 147.673 287.342 159.418 282.715Z" fill="#DCEBEB"/>
<path d="M156.607 311.145C157.623 311.496 158.639 311.847 159.654 312.197C159.324 314.743 158.643 319.488 159.614 321.275C159.883 321.553 171.884 327.253 191.523 327.24C191.576 328.448 190.907 328.95 191.319 331.435C191.319 331.435 179.28 332.006 172.635 331.794C157.109 331.292 152.968 327.428 151.006 323.887C148.624 319.582 148.322 313.891 148.554 308.272C151.291 309.146 153.996 310.247 156.607 311.145Z" fill="#FFD4BB"/>
<path d="M155.167 308.864C157.056 309.708 158.953 310.545 160.85 311.369C160.56 313.054 160.36 314.09 160.36 314.09L146.217 308.203C146.192 307.248 146.204 306.151 146.274 304.955C149.207 306.342 152.242 307.554 155.167 308.864Z" fill="#C0D8D7"/>
<path d="M191.523 327.241C191.523 327.241 195.211 325.719 197.038 325.784C198.866 325.854 203.365 326.984 204.002 327.38C204.638 327.775 207.102 329.983 207.416 330.223C207.73 330.464 206.506 331.072 205.952 330.725C205.397 330.378 204.324 329.677 204.063 329.607C204.063 329.607 205.332 332.035 205.625 332.5C205.919 332.961 204.805 333.422 204.369 332.932C203.932 332.439 202.986 331.052 202.986 331.052C202.986 331.052 203.912 332.769 203.72 333.181C203.529 333.593 202.819 333.867 202.325 333.393C202.325 333.393 202.17 334.299 201.611 334.332C201.056 334.365 199.588 333.504 199.588 333.504L197.458 332.949C197.458 332.949 194.134 333.079 192.734 332.406C191.335 331.737 190.193 331.525 190.193 330.782C190.193 330.378 191.519 327.237 191.519 327.237L191.523 327.241Z" fill="#FFD4BB"/>
<path d="M176.38 255.632L175.968 263.641L172.19 256.566L176.38 255.632Z" fill="#9B9287"/>
<path d="M176.249 265.065C178.167 270.895 176.478 277.954 173.467 279.361C167.572 279.998 162.473 276.82 159.516 270.116C158.182 270.202 156.048 268.57 155.775 267.374C155.501 266.179 155.134 264.58 157.904 265.249C156.819 255.693 157.712 251.144 164.892 250.365C172.072 249.59 175.164 255.51 176.249 265.065Z" fill="#F9C4BB"/>
<path d="M173.076 258.57C166.818 259.582 164.574 257.162 162.726 257.999C162.441 258.129 162.163 258.337 161.886 258.647C161.849 258.692 161.808 258.741 161.763 258.79C161.686 258.884 161.604 258.982 161.527 259.1C161.482 259.161 161.437 259.231 161.392 259.296C161.323 259.398 161.254 259.508 161.188 259.622C161.041 259.867 160.89 260.141 160.735 260.447C157.994 265.902 161.115 266.081 160.654 267.946C159.716 267.689 158.855 267.407 158.067 267.105C154.106 264.339 150.778 255.502 155.057 252.107C155.759 242.038 168.58 249.267 171.88 250.842C175.181 252.417 178.212 250.369 178.212 250.369C178.212 250.369 179.203 257.574 173.072 258.57H173.076Z" fill="#9D8E7A"/>
<path d="M162.747 258.003C162.457 258.13 162.175 258.338 161.886 258.648C161.849 258.693 161.808 258.742 161.763 258.79C161.686 258.884 161.604 258.99 161.527 259.101C161.482 259.162 161.437 259.231 161.392 259.296C161.327 259.398 161.258 259.509 161.188 259.623C161.041 259.868 160.89 260.141 160.735 260.447C157.994 265.902 161.115 266.081 160.654 267.946C159.809 268.028 158.92 267.709 158.067 267.106C154.106 264.339 150.778 255.502 155.057 252.107C156.028 253.988 157.912 257.579 162.726 257.999C162.734 257.999 162.738 257.999 162.751 257.999L162.747 258.003Z" fill="#9B9287"/>
<path d="M164.133 276.563C164.133 276.563 169.098 280.622 173.887 279.345C175.715 277.856 175.845 276.705 176.498 274.727L174.74 277.02L171.607 277.709L164.129 276.567L164.133 276.563Z" fill="#57423E"/>
<path d="M170.253 277.807L169.51 275.163L169.102 275.273L168.894 277.909L170.253 277.807Z" fill="#57423E"/>
<path d="M175.197 276.983V274.16L175.45 273.915L176.001 275.559L175.197 276.983Z" fill="#57423E"/>
<path d="M169.102 275.274L169.51 275.164C169.51 275.164 170.526 273.36 175.197 274.164L175.45 273.915C173.634 272.553 170.008 273.009 169.098 275.278L169.102 275.274Z" fill="#57423E"/>
</g>
<g filter="url(#filter2_d_103_1922)">
<circle cx="428.5" cy="182.5" r="100.5" fill="white"/>
</g>
<g filter="url(#filter3_d_103_1922)">
<path d="M475.852 136.239H464.412V190.697C464.412 193.578 460.842 195.911 465.877 195.911H489.306C489.306 195.911 488.052 195.88 485.592 194.623C483.132 193.366 483.082 191.181 483.082 189.803V141.517C483.082 139.234 479.845 136.239 475.856 136.239H475.852Z" fill="#50777E"/>
<path d="M470.169 136.239H372.77C369.449 136.239 366.757 138.932 366.757 142.253V190.559C366.757 193.517 369.154 195.914 372.111 195.914H483.623C483.623 195.914 482.369 195.884 479.909 194.627C477.449 193.369 477.398 191.185 477.398 189.806V141.517C477.398 139.234 474.162 136.239 470.172 136.239H470.169Z" fill="#427273"/>
<path d="M464.143 234.476H454.48V144.824C454.48 140.085 451.466 136.239 455.717 136.239H475.503C475.503 136.239 474.444 136.29 472.367 138.357C470.29 140.424 470.246 144.021 470.246 146.293V227.669C470.246 231.427 467.514 234.476 464.143 234.476Z" fill="#E9F0F8"/>
<path d="M456.836 234.476H379.878C372.632 234.476 366.757 228.6 366.757 221.353V142.168C366.757 138.894 369.412 136.242 372.683 136.242H468.196C468.196 136.242 467.137 136.293 465.06 138.36C462.983 140.427 462.94 144.024 462.94 146.296V227.672C462.94 231.43 460.207 234.479 456.836 234.479V234.476Z" fill="#D5DDE0"/>
<path d="M451.254 118.38H438.57V223.958C438.57 229.541 434.611 234.472 440.193 234.472H464.143C464.143 234.472 463.901 234.765 461.794 231.83C459.686 228.896 459.266 224.902 459.266 222.227V126.393C459.27 121.97 455.68 118.38 451.254 118.38Z" fill="#50777E"/>
<path d="M442.327 118.38H377.717C371.849 118.38 366.757 123.14 366.757 129.009V227.118C366.757 230.956 370.202 234.476 374.04 234.476H457.24C457.24 234.476 455.848 234.012 453.122 231.578C450.397 229.141 450.34 224.906 450.34 222.23V126.393C450.34 121.97 446.75 118.38 442.327 118.38Z" fill="#427273"/>
<path d="M452.37 118.38C452.37 118.38 449.708 118.787 446.979 121.22C444.25 123.657 443.846 127.543 443.846 130.215V243.404H366.761V128.488C366.757 122.911 371.668 118.38 377.243 118.38H452.37Z" fill="#E9F0F8"/>
<path d="M389.46 166.277C396.633 166.277 402.447 160.462 402.447 153.288C402.447 146.115 396.633 140.3 389.46 140.3C382.288 140.3 376.474 146.115 376.474 153.288C376.474 160.462 382.288 166.277 389.46 166.277Z" fill="#243F6D"/>
<path d="M391.084 145.17H387.024V161.405H391.084V145.17Z" fill="white"/>
<path d="M397.17 151.262H380.937V155.322H397.17V151.262Z" fill="white"/>
<path d="M434.916 145.983H408.13V148.42H434.916V145.983Z" fill="#BEBEBE"/>
<path d="M434.916 152.478H414.623V154.915H434.916V152.478Z" fill="#BEBEBE"/>
<path d="M434.103 171.962H422.74V174.399H434.103V171.962Z" fill="#BEBEBE"/>
<path d="M434.103 177.645H422.74V180.082H434.103V177.645Z" fill="#BEBEBE"/>
<path d="M434.103 183.329H422.74V185.766H434.103V183.329Z" fill="#BEBEBE"/>
<path d="M434.103 197.13H422.74V199.567H434.103V197.13Z" fill="#BEBEBE"/>
<path d="M434.103 202.812H422.74V205.249H434.103V202.812Z" fill="#BEBEBE"/>
<path d="M399.2 197.13H376.47V199.567H399.2V197.13Z" fill="#BEBEBE"/>
<path d="M400.824 202.812H376.47V205.249H400.824V202.812Z" fill="#BEBEBE"/>
<path d="M398.794 214.989H376.47V225.544H398.794V214.989Z" fill="#BEBEBE"/>
<path d="M403.257 171.962H376.47V174.399H403.257V171.962Z" fill="#BEBEBE"/>
<path d="M393.517 177.645H376.47V180.082H393.517V177.645Z" fill="#BEBEBE"/>
<path d="M396.764 183.329H376.47V185.766H396.764V183.329Z" fill="#BEBEBE"/>
<path d="M411.121 224.246V225.345H410.5V224.246C409.545 224.195 408.641 223.866 408.134 223.399L408.493 222.639C408.95 223.059 409.71 223.369 410.5 223.419V221.16C409.428 220.898 408.298 220.555 408.298 219.231C408.298 218.266 408.991 217.429 410.5 217.305V216.195H411.121V217.294C411.851 217.325 412.58 217.537 413.098 217.889L412.775 218.669C412.251 218.337 411.666 218.152 411.121 218.125V220.394C412.21 220.666 413.38 220.989 413.38 222.323C413.38 223.288 412.661 224.125 411.121 224.249V224.246ZM410.5 220.236V218.131C409.633 218.239 409.253 218.676 409.253 219.194C409.253 219.799 409.797 220.051 410.5 220.236ZM412.429 222.377C412.429 221.755 411.844 221.51 411.125 221.315V223.409C412.029 223.321 412.429 222.901 412.429 222.377Z" fill="#243F6D"/>
<path d="M416.264 217.361V224.178H415.299V218.208H413.76V217.361H416.264Z" fill="#243F6D"/>
<path d="M422.535 222.135C422.535 223.311 421.698 224.256 419.954 224.256C418.989 224.256 418.035 223.943 417.453 223.429L417.9 222.659C418.357 223.086 419.117 223.388 419.944 223.388C420.976 223.388 421.56 222.911 421.56 222.171C421.56 221.432 421.073 220.924 419.497 220.924H417.947L418.307 217.361H422.152V218.208H419.124L418.939 220.077H419.698C421.732 220.077 422.532 220.924 422.532 222.131L422.535 222.135Z" fill="#243F6D"/>
<path d="M423.345 220.771C423.345 218.552 424.535 217.285 426.131 217.285C427.728 217.285 428.907 218.552 428.907 220.771C428.907 222.989 427.721 224.257 426.131 224.257C424.541 224.257 423.345 222.989 423.345 220.771ZM427.929 220.771C427.929 219.026 427.19 218.152 426.128 218.152C425.066 218.152 424.316 219.03 424.316 220.771C424.316 222.512 425.056 223.389 426.128 223.389C427.2 223.389 427.929 222.512 427.929 220.771Z" fill="#243F6D"/>
<path d="M429.842 220.771C429.842 218.552 431.031 217.285 432.628 217.285C434.224 217.285 435.404 218.552 435.404 220.771C435.404 222.989 434.217 224.257 432.628 224.257C431.038 224.257 429.842 222.989 429.842 220.771ZM434.426 220.771C434.426 219.026 433.686 218.152 432.624 218.152C431.562 218.152 430.813 219.03 430.813 220.771C430.813 222.512 431.552 223.389 432.624 223.389C433.696 223.389 434.426 222.512 434.426 220.771Z" fill="#243F6D"/>
<path d="M366.757 240.97V243.403L367.544 246.65L372.061 243.403L374.454 246.65L376.847 243.403L379.24 246.65L381.633 243.403L384.026 246.65L386.419 243.403L388.812 246.65L391.205 243.403L393.597 246.65L395.99 243.403L398.383 246.65L400.776 243.403L403.169 246.65L405.562 243.403L407.952 246.65L410.345 243.403L412.738 246.65L415.131 243.403L417.524 246.65L419.917 243.403L422.31 246.65L424.703 243.403L427.096 246.65L429.489 243.403L431.882 246.65L434.275 243.403L436.667 246.65L439.06 243.403L443.033 246.65L443.846 243.403V240.97H366.757Z" fill="#D5DDE0"/>
</g>
<circle cx="192" cy="164" r="7" fill="#BDCDFF"/>
<circle cx="272" cy="149" r="5" fill="#BDCDFF"/>
<circle cx="456" cy="392" r="5" fill="#BDCDFF"/>
<circle cx="305" cy="205" r="10" fill="#BDCDFF"/>
<circle cx="414" cy="332" r="10" fill="#BDCDFF"/>
<circle cx="474" cy="305" r="6" fill="#BDCDFF"/>
<defs>
<filter id="filter0_d_103_1922" x="0.555908" y="126" width="516.352" height="360" filterUnits="userSpaceOnUse" color-interpolation-filters="sRGB">
<feFlood flood-opacity="0" result="BackgroundImageFix"/>
<feColorMatrix in="SourceAlpha" type="matrix" values="0 0 0 0 0 0 0 0 0 0 0 0 0 0 0 0 0 0 127 0" result="hardAlpha"/>
<feOffset dx="-4" dy="4"/>
<feGaussianBlur stdDeviation="2"/>
<feComposite in2="hardAlpha" operator="out"/>
<feColorMatrix type="matrix" values="0 0 0 0 0 0 0 0 0 0 0 0 0 0 0 0 0 0 0.1 0"/>
<feBlend mode="normal" in2="BackgroundImageFix" result="effect1_dropShadow_103_1922"/>
<feBlend mode="normal" in="SourceGraphic" in2="effect1_dropShadow_103_1922" result="shape"/>
</filter>
<filter id="filter1_d_103_1922" x="58" y="212" width="303.473" height="217.575" filterUnits="userSpaceOnUse" color-interpolation-filters="sRGB">
<feFlood flood-opacity="0" result="BackgroundImageFix"/>
<feColorMatrix in="SourceAlpha" type="matrix" values="0 0 0 0 0 0 0 0 0 0 0 0 0 0 0 0 0 0 127 0" result="hardAlpha"/>
<feOffset dx="-2" dy="4"/>
<feGaussianBlur stdDeviation="2"/>
<feComposite in2="hardAlpha" operator="out"/>
<feColorMatrix type="matrix" values="0 0 0 0 0 0 0 0 0 0 0 0 0 0 0 0 0 0 0.15 0"/>
<feBlend mode="normal" in2="BackgroundImageFix" result="effect1_dropShadow_103_1922"/>
<feBlend mode="normal" in="SourceGraphic" in2="effect1_dropShadow_103_1922" result="shape"/>
</filter>
<filter id="filter2_d_103_1922" x="320" y="82" width="209" height="209" filterUnits="userSpaceOnUse" color-interpolation-filters="sRGB">
<feFlood flood-opacity="0" result="BackgroundImageFix"/>
<feColorMatrix in="SourceAlpha" type="matrix" values="0 0 0 0 0 0 0 0 0 0 0 0 0 0 0 0 0 0 127 0" result="hardAlpha"/>
<feOffset dx="-4" dy="4"/>
<feGaussianBlur stdDeviation="2"/>
<feComposite in2="hardAlpha" operator="out"/>
<feColorMatrix type="matrix" values="0 0 0 0 0 0 0 0 0 0 0 0 0 0 0 0 0 0 0.15 0"/>
<feBlend mode="normal" in2="BackgroundImageFix" result="effect1_dropShadow_103_1922"/>
<feBlend mode="normal" in="SourceGraphic" in2="effect1_dropShadow_103_1922" result="shape"/>
</filter>
<filter id="filter3_d_103_1922" x="358.757" y="118.38" width="130.549" height="136.271" filterUnits="userSpaceOnUse" color-interpolation-filters="sRGB">
<feFlood flood-opacity="0" result="BackgroundImageFix"/>
<feColorMatrix in="SourceAlpha" type="matrix" values="0 0 0 0 0 0 0 0 0 0 0 0 0 0 0 0 0 0 127 0" result="hardAlpha"/>
<feOffset dx="-4" dy="4"/>
<feGaussianBlur stdDeviation="2"/>
<feComposite in2="hardAlpha" operator="out"/>
<feColorMatrix type="matrix" values="0 0 0 0 0 0 0 0 0 0 0 0 0 0 0 0 0 0 0.25 0"/>
<feBlend mode="normal" in2="BackgroundImageFix" result="effect1_dropShadow_103_1922"/>
<feBlend mode="normal" in="SourceGraphic" in2="effect1_dropShadow_103_1922" result="shape"/>
</filter>
<clipPath id="clip0_103_1922">
<rect width="215.014" height="397" fill="white" transform="matrix(-1 8.74228e-08 8.74228e-08 1 264.014 0)"/>
</clipPath>
<clipPath id="clip1_103_1922">
<rect width="215.014" height="397" fill="white" transform="matrix(1.19249e-08 -1 -1 -1.19249e-08 571 477.014)"/>
</clipPath>
</defs>
</svg>
