<svg width="977" height="670" viewBox="0 0 977 670" fill="none" xmlns="http://www.w3.org/2000/svg">
<g filter="url(#filter0_d_101_414)">
<rect x="15" y="15" width="939" height="632" rx="36" fill="url(#paint0_linear_101_414)"/>
<rect x="15" y="15" width="939" height="632" rx="36" stroke="#B7C9DE"/>
</g>
<rect opacity="0.3" x="47" y="45" width="870" height="567" rx="28" fill="url(#paint1_linear_101_414)"/>
<path d="M917 73.3608C917 57.8969 904.464 45.3608 889 45.3608H75C59.536 45.3608 47 57.8969 47 73.3608V90.2158H917V73.3608Z" fill="#4D648D"/>
<path d="M639.46 55.3852C639.46 53.9776 640.655 52.8366 642.13 52.8366H805.93C807.405 52.8366 808.6 53.9776 808.6 55.3852V78.3224C808.6 79.7299 807.405 80.8709 805.93 80.8709H642.13C640.655 80.8709 639.46 79.7299 639.46 78.3224V55.3852Z" fill="white"/>
<mask id="mask0_101_414" style="mask-type:alpha" maskUnits="userSpaceOnUse" x="787" y="60" width="15" height="14">
<path d="M800.931 71.9617L798.301 69.3319C798.182 69.2132 798.021 69.1473 797.852 69.1473H797.422C798.15 68.2162 798.583 67.045 798.583 65.771C798.583 62.7403 796.127 60.2846 793.096 60.2846C790.064 60.2846 787.608 62.7403 787.608 65.771C787.608 68.8017 790.064 71.2574 793.096 71.2574C794.37 71.2574 795.541 70.8248 796.472 70.0968V70.5268C796.472 70.6956 796.538 70.8565 796.657 70.9752L799.287 73.6049C799.535 73.8529 799.936 73.8529 800.182 73.6049L800.928 72.8585C801.176 72.6105 801.176 72.2096 800.931 71.9617ZM793.096 69.1473C791.23 69.1473 789.719 67.6385 789.719 65.771C789.719 63.9062 791.228 62.3948 793.096 62.3948C794.961 62.3948 796.472 63.9035 796.472 65.771C796.472 67.6359 794.963 69.1473 793.096 69.1473Z" fill="white"/>
</mask>
<g mask="url(#mask0_101_414)">
<path d="M800.931 71.9617L798.301 69.3319C798.182 69.2132 798.021 69.1473 797.852 69.1473H797.422C798.15 68.2162 798.583 67.045 798.583 65.771C798.583 62.7403 796.127 60.2846 793.096 60.2846C790.064 60.2846 787.608 62.7403 787.608 65.771C787.608 68.8017 790.064 71.2574 793.096 71.2574C794.37 71.2574 795.541 70.8248 796.472 70.0968V70.5268C796.472 70.6956 796.538 70.8565 796.657 70.9752L799.287 73.6049C799.535 73.8529 799.936 73.8529 800.182 73.6049L800.928 72.8585C801.176 72.6105 801.176 72.2096 800.931 71.9617ZM793.096 69.1473C791.23 69.1473 789.719 67.6385 789.719 65.771C789.719 63.9062 791.228 62.3948 793.096 62.3948C794.961 62.3948 796.472 63.9035 796.472 65.771C796.472 67.6359 794.963 69.1473 793.096 69.1473Z" fill="black"/>
<path d="M801.114 60.2846H787.608V73.7909H801.114V60.2846Z" fill="#4D648D"/>
</g>
<path fill-rule="evenodd" clip-rule="evenodd" d="M81.3633 63.7909L77.4011 75.0732C76.925 76.4288 75.4788 77.1277 74.1708 76.6343C72.8628 76.1409 72.1885 74.6421 72.6645 73.2865L76.6268 62.0042C77.1029 60.6487 78.5491 59.9497 79.8571 60.4431C81.165 60.9365 81.8394 62.4353 81.3633 63.7909Z" fill="white"/>
<path fill-rule="evenodd" clip-rule="evenodd" d="M91.8562 60.9624L86.7914 74.9883C86.2777 76.4107 84.7173 77.1442 83.306 76.6264C81.8948 76.1087 81.1671 74.5359 81.6808 73.1134L86.7456 59.0876C87.2593 57.6651 88.8197 56.9317 90.2309 57.4495C91.6422 57.9672 92.3698 59.54 91.8562 60.9624Z" fill="white"/>
<path fill-rule="evenodd" clip-rule="evenodd" d="M102.349 59.3923L96.1786 75.0224C95.6276 76.418 93.9539 77.1376 92.4402 76.6296C90.9265 76.1217 90.146 74.5786 90.697 73.183L96.8675 57.5528C97.4185 56.1573 99.0922 55.4377 100.606 55.9457C102.12 56.4536 102.9 57.9967 102.349 59.3923Z" fill="white"/>
<path d="M116.838 72.2904V61.7855H115.803L112.724 69.2363L109.564 61.7855H108.528V72.2904H109.564V64.3085L112.261 70.6379H113.147L115.803 64.3085V72.2904H116.838Z" fill="white"/>
<path d="M129.077 72.2904V71.2871H124.091V67.4953H128.342V66.4921H124.091V62.7888H129.077V61.7855H123.056V72.2904H129.077Z" fill="white"/>
<path d="M141.36 67.038C141.36 65.4298 141.36 63.8953 140.502 62.8921C139.848 62.1249 139.044 61.7855 137.954 61.7855H134.63V72.2904H137.954C139.044 72.2904 139.848 71.9511 140.502 71.1838C141.36 70.1806 141.36 68.6461 141.36 67.038ZM140.325 67.038C140.325 68.4986 140.311 69.797 139.684 70.5199C139.194 71.1101 138.513 71.2871 137.777 71.2871H135.666V62.7888H137.777C138.513 62.7888 139.194 62.9658 139.684 63.556C140.311 64.279 140.325 65.5773 140.325 67.038Z" fill="white"/>
<path d="M148.238 72.2904V61.7855H147.202V72.2904H148.238Z" fill="white"/>
<path d="M161.618 72.2904V61.7855H160.583V70.1806L155.434 61.7855H154.453V72.2904H155.488V63.8658L160.638 72.2904H161.618Z" fill="white"/>
<path d="M173.858 72.2904V71.2871H168.872V67.4953H173.122V66.4921H168.872V62.7888H173.858V61.7855H167.836V72.2904H173.858Z" fill="white"/>
<path d="M185.064 62.7888V61.7855H178.416V62.7888H181.222V72.2904H182.258V62.7888H185.064Z" fill="white"/>
<path d="M845.414 72.5472C844.648 71.7136 843.216 70.4596 843.216 66.3519C843.216 63.232 841.056 60.7344 838.145 60.1217V59.2849C838.145 58.5754 837.577 58 836.878 58C836.178 58 835.61 58.5754 835.61 59.2849V60.1217C832.699 60.7344 830.54 63.232 830.54 66.3519C830.54 70.4596 829.107 71.7136 828.341 72.5472C828.103 72.8062 827.998 73.1157 828 73.4189C828.004 74.0774 828.514 74.7038 829.272 74.7038H844.483C845.241 74.7038 845.751 74.0774 845.755 73.4189C845.757 73.1157 845.652 72.8058 845.414 72.5472ZM830.676 72.7765C831.517 71.6534 832.437 69.7918 832.441 66.3752C832.441 66.3672 832.439 66.3599 832.439 66.3519C832.439 63.868 834.426 61.8547 836.878 61.8547C839.329 61.8547 841.316 63.868 841.316 66.3519C841.316 66.3599 841.314 66.3672 841.314 66.3752C841.318 69.7923 842.238 71.6538 843.079 72.7765H830.676ZM836.878 78.5585C838.277 78.5585 839.413 77.4081 839.413 75.9887H834.342C834.342 77.4081 835.478 78.5585 836.878 78.5585Z" fill="white"/>
<g clip-path="url(#clip0_101_414)">
<path d="M881.115 70.6502C879.978 70.6502 879.431 71.2927 877.564 71.2927C875.697 71.2927 875.154 70.6502 874.013 70.6502C871.072 70.6502 868.687 73.0675 868.687 76.0469V77.0748C868.687 78.1388 869.539 79.0021 870.589 79.0021H884.539C885.59 79.0021 886.442 78.1388 886.442 77.0748V76.0469C886.442 73.0675 884.056 70.6502 881.115 70.6502ZM884.539 77.0748H870.589V76.0469C870.589 74.1356 872.127 72.5776 874.013 72.5776C874.592 72.5776 875.531 73.2201 877.564 73.2201C879.613 73.2201 880.533 72.5776 881.115 72.5776C883.002 72.5776 884.539 74.1356 884.539 76.0469V77.0748ZM877.564 70.0078C880.715 70.0078 883.271 67.4179 883.271 64.2257C883.271 61.0335 880.715 58.4436 877.564 58.4436C874.413 58.4436 871.857 61.0335 871.857 64.2257C871.857 67.4179 874.413 70.0078 877.564 70.0078ZM877.564 60.371C879.661 60.371 881.369 62.1016 881.369 64.2257C881.369 66.3498 879.661 68.0804 877.564 68.0804C875.468 68.0804 873.759 66.3498 873.759 64.2257C873.759 62.1016 875.468 60.371 877.564 60.371Z" fill="white"/>
</g>
<rect x="208.665" y="63.1159" width="60.7411" height="11.2137" rx="5.60687" fill="#70CCFF"/>
<rect x="297.44" y="63.1159" width="60.7411" height="11.2137" rx="5.60687" fill="white" fill-opacity="0.3"/>
<rect x="381.544" y="63.1159" width="60.7411" height="11.2137" rx="5.60687" fill="white" fill-opacity="0.3"/>
<rect x="467.515" y="63.1159" width="60.7411" height="11.2137" rx="5.60687" fill="white" fill-opacity="0.3"/>
<rect x="557.226" y="63.1159" width="60.7411" height="11.2137" rx="5.60687" fill="white" fill-opacity="0.3"/>
<mask id="mask1_101_414" style="mask-type:alpha" maskUnits="userSpaceOnUse" x="209" y="178" width="5" height="8">
<path d="M209.352 182.132L212.453 185.258C212.668 185.474 213.014 185.474 213.226 185.258L213.742 184.738C213.956 184.522 213.956 184.173 213.742 183.959L211.544 181.743L213.742 179.527C213.956 179.311 213.956 178.962 213.742 178.748L213.226 178.228C213.012 178.012 212.665 178.012 212.453 178.228L209.352 181.355C209.138 181.566 209.138 181.915 209.352 182.132Z" fill="white"/>
</mask>
<g mask="url(#mask1_101_414)">
<path d="M209.352 182.132L212.453 185.258C212.668 185.474 213.014 185.474 213.226 185.258L213.742 184.738C213.956 184.522 213.956 184.173 213.742 183.959L211.544 181.743L213.742 179.527C213.956 179.311 213.956 178.962 213.742 178.748L213.226 178.228C213.012 178.012 212.665 178.012 212.453 178.228L209.352 181.355C209.138 181.566 209.138 181.915 209.352 182.132Z" fill="black"/>
<path d="M217.391 175.857L217.391 187.627L205.716 187.627L205.716 175.857L217.391 175.857Z" fill="white"/>
</g>
<rect x="92.5" y="131.5" width="783" height="431" rx="2.5" fill="white" stroke="#B8CDEB"/>
<path d="M125.25 506.75V374.25H845.75V506.75H125.25Z" fill="#7093FF" fill-opacity="0.05" stroke="#B8CDEB" stroke-width="0.5"/>
<path d="M125.25 357.75V225.25H845.75V357.75H125.25Z" fill="#7093FF" fill-opacity="0.05" stroke="#B8CDEB" stroke-width="0.5"/>
<path d="M875.5 131.901V159.925H92.5V131.901C92.5 131.775 92.6704 131.5 93.1188 131.5H874.881C875.33 131.5 875.5 131.775 875.5 131.901Z" fill="url(#paint2_linear_101_414)" stroke="#7091F5"/>
<path d="M113.136 145.243V148.229C113.025 148.376 112.851 148.537 112.615 148.712C112.382 148.884 112.073 149.033 111.686 149.158C111.299 149.284 110.818 149.346 110.241 149.346C109.75 149.346 109.301 149.264 108.893 149.099C108.485 148.931 108.132 148.686 107.835 148.363C107.541 148.041 107.314 147.649 107.153 147.187C106.992 146.722 106.911 146.192 106.911 145.597V145.055C106.911 144.464 106.984 143.938 107.131 143.476C107.282 143.01 107.496 142.616 107.776 142.294C108.055 141.972 108.392 141.728 108.785 141.563C109.183 141.395 109.632 141.311 110.134 141.311C110.775 141.311 111.305 141.418 111.723 141.633C112.146 141.845 112.472 142.138 112.701 142.514C112.93 142.89 113.075 143.32 113.136 143.803H111.815C111.772 143.531 111.688 143.288 111.562 143.073C111.441 142.858 111.265 142.69 111.036 142.568C110.81 142.443 110.517 142.38 110.155 142.38C109.844 142.38 109.57 142.439 109.333 142.557C109.097 142.675 108.9 142.849 108.742 143.078C108.589 143.307 108.472 143.587 108.393 143.916C108.315 144.245 108.275 144.621 108.275 145.044V145.597C108.275 146.027 108.32 146.408 108.409 146.741C108.503 147.074 108.635 147.355 108.807 147.584C108.982 147.814 109.195 147.987 109.446 148.105C109.697 148.22 109.98 148.277 110.295 148.277C110.603 148.277 110.855 148.252 111.052 148.202C111.249 148.148 111.405 148.086 111.519 148.014C111.638 147.939 111.729 147.867 111.793 147.799V146.247H110.166V145.243H113.136ZM117.062 149.346C116.633 149.346 116.244 149.276 115.897 149.137C115.553 148.993 115.259 148.795 115.016 148.541C114.776 148.286 114.592 147.987 114.463 147.644C114.334 147.3 114.269 146.929 114.269 146.532V146.317C114.269 145.862 114.336 145.45 114.468 145.082C114.601 144.713 114.785 144.398 115.021 144.136C115.258 143.871 115.537 143.669 115.859 143.529C116.181 143.39 116.531 143.32 116.907 143.32C117.322 143.32 117.685 143.39 117.997 143.529C118.308 143.669 118.566 143.866 118.77 144.12C118.978 144.371 119.132 144.67 119.232 145.017C119.336 145.364 119.388 145.748 119.388 146.167V146.72H114.898V145.791H118.11V145.688C118.103 145.456 118.056 145.237 117.97 145.033C117.888 144.829 117.761 144.664 117.589 144.539C117.417 144.414 117.188 144.351 116.901 144.351C116.686 144.351 116.495 144.398 116.326 144.491C116.162 144.58 116.024 144.711 115.913 144.883C115.802 145.055 115.716 145.262 115.655 145.506C115.598 145.746 115.569 146.016 115.569 146.317V146.532C115.569 146.786 115.603 147.022 115.671 147.241C115.743 147.456 115.847 147.644 115.983 147.805C116.119 147.966 116.284 148.093 116.477 148.186C116.67 148.276 116.89 148.32 117.138 148.32C117.449 148.32 117.727 148.258 117.97 148.132C118.214 148.007 118.425 147.83 118.604 147.601L119.286 148.261C119.161 148.444 118.998 148.619 118.797 148.788C118.597 148.952 118.351 149.087 118.061 149.19C117.775 149.294 117.442 149.346 117.062 149.346ZM123.658 147.665C123.658 147.536 123.626 147.42 123.561 147.316C123.497 147.208 123.373 147.112 123.191 147.026C123.012 146.94 122.747 146.861 122.396 146.79C122.088 146.722 121.805 146.641 121.547 146.548C121.293 146.451 121.075 146.335 120.892 146.199C120.709 146.063 120.568 145.902 120.468 145.715C120.367 145.529 120.317 145.314 120.317 145.071C120.317 144.834 120.369 144.611 120.473 144.399C120.577 144.188 120.725 144.002 120.919 143.841C121.112 143.68 121.347 143.553 121.622 143.459C121.902 143.366 122.213 143.32 122.557 143.32C123.044 143.32 123.461 143.402 123.808 143.567C124.159 143.728 124.428 143.948 124.614 144.228C124.8 144.503 124.893 144.815 124.893 145.162H123.599C123.599 145.008 123.56 144.865 123.481 144.732C123.406 144.596 123.291 144.487 123.137 144.405C122.983 144.319 122.79 144.276 122.557 144.276C122.335 144.276 122.151 144.312 122.004 144.383C121.86 144.451 121.753 144.541 121.681 144.652C121.613 144.763 121.579 144.885 121.579 145.017C121.579 145.114 121.597 145.201 121.633 145.28C121.673 145.355 121.737 145.425 121.826 145.49C121.916 145.551 122.038 145.608 122.192 145.662C122.349 145.715 122.546 145.767 122.783 145.817C123.227 145.91 123.608 146.03 123.927 146.177C124.249 146.32 124.496 146.507 124.668 146.736C124.84 146.961 124.926 147.248 124.926 147.595C124.926 147.853 124.87 148.089 124.759 148.304C124.652 148.515 124.494 148.7 124.286 148.857C124.079 149.011 123.83 149.131 123.54 149.217C123.253 149.303 122.931 149.346 122.573 149.346C122.047 149.346 121.601 149.253 121.236 149.067C120.87 148.877 120.593 148.635 120.403 148.342C120.217 148.045 120.124 147.737 120.124 147.418H121.375C121.39 147.658 121.456 147.849 121.574 147.993C121.696 148.132 121.846 148.234 122.025 148.299C122.208 148.36 122.396 148.39 122.589 148.39C122.822 148.39 123.017 148.36 123.175 148.299C123.332 148.234 123.452 148.148 123.534 148.041C123.617 147.93 123.658 147.805 123.658 147.665ZM128.723 143.427V144.373H125.447V143.427H128.723ZM126.392 142.004H127.686V147.633C127.686 147.812 127.711 147.95 127.762 148.046C127.815 148.139 127.889 148.202 127.982 148.234C128.075 148.267 128.184 148.283 128.309 148.283C128.399 148.283 128.485 148.277 128.567 148.267C128.65 148.256 128.716 148.245 128.766 148.234L128.771 149.223C128.664 149.255 128.539 149.284 128.395 149.309C128.256 149.334 128.095 149.346 127.912 149.346C127.615 149.346 127.352 149.294 127.122 149.19C126.893 149.083 126.714 148.909 126.585 148.669C126.456 148.43 126.392 148.111 126.392 147.713V142.004ZM131.108 143.427V149.239H129.808V143.427H131.108ZM129.722 141.902C129.722 141.705 129.786 141.542 129.915 141.413C130.048 141.281 130.23 141.214 130.463 141.214C130.692 141.214 130.873 141.281 131.006 141.413C131.138 141.542 131.204 141.705 131.204 141.902C131.204 142.095 131.138 142.256 131.006 142.385C130.873 142.514 130.692 142.579 130.463 142.579C130.23 142.579 130.048 142.514 129.915 142.385C129.786 142.256 129.722 142.095 129.722 141.902ZM132.279 146.397V146.274C132.279 145.855 132.339 145.466 132.461 145.108C132.583 144.747 132.758 144.433 132.988 144.168C133.22 143.9 133.503 143.692 133.836 143.545C134.173 143.395 134.552 143.32 134.975 143.32C135.401 143.32 135.781 143.395 136.114 143.545C136.45 143.692 136.735 143.9 136.968 144.168C137.2 144.433 137.378 144.747 137.499 145.108C137.621 145.466 137.682 145.855 137.682 146.274V146.397C137.682 146.816 137.621 147.205 137.499 147.563C137.378 147.921 137.2 148.234 136.968 148.503C136.735 148.768 136.452 148.976 136.119 149.126C135.786 149.273 135.408 149.346 134.986 149.346C134.56 149.346 134.178 149.273 133.842 149.126C133.509 148.976 133.226 148.768 132.993 148.503C132.76 148.234 132.583 147.921 132.461 147.563C132.339 147.205 132.279 146.816 132.279 146.397ZM133.573 146.274V146.397C133.573 146.659 133.6 146.906 133.654 147.139C133.707 147.371 133.791 147.576 133.906 147.751C134.021 147.926 134.167 148.064 134.346 148.165C134.526 148.265 134.739 148.315 134.986 148.315C135.226 148.315 135.433 148.265 135.609 148.165C135.788 148.064 135.935 147.926 136.049 147.751C136.164 147.576 136.248 147.371 136.302 147.139C136.359 146.906 136.388 146.659 136.388 146.397V146.274C136.388 146.016 136.359 145.773 136.302 145.543C136.248 145.311 136.162 145.105 136.044 144.926C135.929 144.747 135.782 144.607 135.603 144.507C135.428 144.403 135.218 144.351 134.975 144.351C134.731 144.351 134.52 144.403 134.341 144.507C134.166 144.607 134.021 144.747 133.906 144.926C133.791 145.105 133.707 145.311 133.654 145.543C133.6 145.773 133.573 146.016 133.573 146.274ZM134.298 142.605L135.346 140.989H136.806L135.346 142.605H134.298ZM140.051 144.668V149.239H138.756V143.427H139.975L140.051 144.668ZM139.82 146.118L139.401 146.113C139.404 145.701 139.462 145.323 139.573 144.979C139.687 144.636 139.845 144.34 140.045 144.093C140.249 143.846 140.493 143.656 140.776 143.524C141.059 143.388 141.374 143.32 141.721 143.32C142 143.32 142.253 143.359 142.478 143.438C142.707 143.513 142.903 143.637 143.064 143.809C143.228 143.98 143.354 144.204 143.44 144.48C143.526 144.752 143.569 145.087 143.569 145.484V149.239H142.269V145.479C142.269 145.2 142.228 144.979 142.145 144.818C142.067 144.654 141.95 144.537 141.796 144.469C141.646 144.398 141.458 144.362 141.232 144.362C141.01 144.362 140.812 144.408 140.636 144.501C140.461 144.595 140.312 144.722 140.19 144.883C140.072 145.044 139.981 145.23 139.916 145.441C139.852 145.653 139.82 145.878 139.82 146.118ZM151.174 148.036V140.989H152.474V149.239H151.298L151.174 148.036ZM147.393 146.397V146.285C147.393 145.844 147.445 145.443 147.549 145.082C147.652 144.716 147.803 144.403 148 144.142C148.197 143.877 148.437 143.674 148.72 143.535C149.002 143.391 149.321 143.32 149.676 143.32C150.027 143.32 150.334 143.388 150.599 143.524C150.864 143.66 151.09 143.855 151.276 144.109C151.462 144.36 151.611 144.661 151.722 145.012C151.833 145.359 151.912 145.746 151.958 146.172V146.532C151.912 146.947 151.833 147.327 151.722 147.67C151.611 148.014 151.462 148.311 151.276 148.562C151.09 148.813 150.863 149.006 150.594 149.142C150.329 149.278 150.019 149.346 149.665 149.346C149.314 149.346 148.997 149.273 148.714 149.126C148.435 148.979 148.197 148.773 148 148.508C147.803 148.243 147.652 147.932 147.549 147.574C147.445 147.212 147.393 146.82 147.393 146.397ZM148.687 146.285V146.397C148.687 146.662 148.711 146.91 148.757 147.139C148.807 147.368 148.884 147.57 148.988 147.746C149.092 147.917 149.226 148.054 149.391 148.154C149.559 148.25 149.76 148.299 149.992 148.299C150.286 148.299 150.528 148.234 150.718 148.105C150.907 147.977 151.056 147.803 151.163 147.584C151.274 147.362 151.35 147.115 151.389 146.843V145.871C151.367 145.66 151.323 145.463 151.255 145.28C151.19 145.098 151.103 144.938 150.992 144.802C150.881 144.663 150.743 144.555 150.578 144.48C150.417 144.401 150.225 144.362 150.003 144.362C149.767 144.362 149.566 144.412 149.402 144.512C149.237 144.612 149.101 144.75 148.993 144.926C148.89 145.101 148.813 145.305 148.763 145.538C148.712 145.771 148.687 146.02 148.687 146.285ZM156.389 149.346C155.96 149.346 155.571 149.276 155.224 149.137C154.88 148.993 154.587 148.795 154.343 148.541C154.103 148.286 153.919 147.987 153.79 147.644C153.661 147.3 153.596 146.929 153.596 146.532V146.317C153.596 145.862 153.663 145.45 153.795 145.082C153.928 144.713 154.112 144.398 154.348 144.136C154.585 143.871 154.864 143.669 155.186 143.529C155.509 143.39 155.858 143.32 156.234 143.32C156.649 143.32 157.013 143.39 157.324 143.529C157.636 143.669 157.893 143.866 158.097 144.12C158.305 144.371 158.459 144.67 158.559 145.017C158.663 145.364 158.715 145.748 158.715 146.167V146.72H154.225V145.791H157.437V145.688C157.43 145.456 157.383 145.237 157.297 145.033C157.215 144.829 157.088 144.664 156.916 144.539C156.744 144.414 156.515 144.351 156.228 144.351C156.013 144.351 155.822 144.398 155.654 144.491C155.489 144.58 155.351 144.711 155.24 144.883C155.129 145.055 155.043 145.262 154.982 145.506C154.925 145.746 154.896 146.016 154.896 146.317V146.532C154.896 146.786 154.93 147.022 154.998 147.241C155.07 147.456 155.174 147.644 155.31 147.805C155.446 147.966 155.611 148.093 155.804 148.186C155.997 148.276 156.218 148.32 156.465 148.32C156.776 148.32 157.054 148.258 157.297 148.132C157.541 148.007 157.752 147.83 157.931 147.601L158.613 148.261C158.488 148.444 158.325 148.619 158.124 148.788C157.924 148.952 157.679 149.087 157.388 149.19C157.102 149.294 156.769 149.346 156.389 149.346ZM167.212 146.693H168.555C168.512 147.205 168.369 147.661 168.125 148.062C167.882 148.46 167.54 148.773 167.099 149.002C166.659 149.232 166.124 149.346 165.493 149.346C165.01 149.346 164.575 149.26 164.188 149.088C163.802 148.913 163.47 148.666 163.195 148.347C162.919 148.025 162.708 147.636 162.561 147.182C162.418 146.727 162.346 146.218 162.346 145.656V145.006C162.346 144.444 162.419 143.936 162.566 143.481C162.717 143.026 162.931 142.638 163.211 142.315C163.49 141.99 163.825 141.741 164.215 141.569C164.609 141.397 165.051 141.311 165.542 141.311C166.165 141.311 166.691 141.426 167.121 141.655C167.551 141.884 167.884 142.201 168.12 142.605C168.36 143.01 168.507 143.474 168.56 143.997H167.218C167.182 143.66 167.103 143.372 166.981 143.132C166.863 142.892 166.688 142.709 166.455 142.584C166.222 142.455 165.918 142.391 165.542 142.391C165.234 142.391 164.965 142.448 164.736 142.562C164.507 142.677 164.315 142.845 164.161 143.067C164.007 143.289 163.891 143.563 163.812 143.889C163.737 144.211 163.7 144.58 163.7 144.996V145.656C163.7 146.05 163.734 146.408 163.802 146.73C163.873 147.049 163.981 147.323 164.124 147.552C164.271 147.781 164.457 147.959 164.682 148.084C164.908 148.209 165.178 148.272 165.493 148.272C165.877 148.272 166.186 148.211 166.423 148.089C166.663 147.968 166.843 147.79 166.965 147.558C167.09 147.321 167.173 147.033 167.212 146.693ZM172.927 148.073V145.302C172.927 145.094 172.889 144.915 172.814 144.765C172.739 144.614 172.624 144.498 172.471 144.416C172.32 144.333 172.13 144.292 171.901 144.292C171.69 144.292 171.507 144.328 171.353 144.399C171.199 144.471 171.079 144.568 170.993 144.689C170.908 144.811 170.865 144.949 170.865 145.103H169.576C169.576 144.874 169.631 144.652 169.742 144.437C169.853 144.222 170.014 144.031 170.225 143.862C170.437 143.694 170.689 143.562 170.983 143.465C171.276 143.368 171.606 143.32 171.971 143.32C172.408 143.32 172.795 143.393 173.131 143.54C173.471 143.687 173.738 143.909 173.931 144.206C174.128 144.5 174.227 144.868 174.227 145.312V147.896C174.227 148.161 174.245 148.399 174.281 148.61C174.32 148.818 174.375 148.999 174.447 149.153V149.239H173.12C173.06 149.099 173.011 148.922 172.975 148.707C172.943 148.489 172.927 148.277 172.927 148.073ZM173.115 145.705L173.126 146.505H172.197C171.957 146.505 171.745 146.528 171.563 146.575C171.38 146.618 171.228 146.682 171.106 146.768C170.985 146.854 170.893 146.958 170.832 147.08C170.771 147.201 170.741 147.339 170.741 147.493C170.741 147.647 170.777 147.789 170.848 147.917C170.92 148.043 171.024 148.141 171.16 148.213C171.3 148.285 171.468 148.32 171.665 148.32C171.93 148.32 172.161 148.267 172.358 148.159C172.558 148.048 172.716 147.914 172.83 147.756C172.945 147.595 173.006 147.443 173.013 147.3L173.432 147.875C173.389 148.021 173.316 148.179 173.212 148.347C173.108 148.515 172.972 148.677 172.804 148.831C172.639 148.981 172.44 149.104 172.207 149.201C171.978 149.298 171.713 149.346 171.412 149.346C171.033 149.346 170.694 149.271 170.397 149.121C170.1 148.967 169.867 148.761 169.699 148.503C169.531 148.242 169.447 147.946 169.447 147.617C169.447 147.309 169.504 147.037 169.618 146.8C169.737 146.56 169.909 146.36 170.134 146.199C170.363 146.038 170.643 145.916 170.972 145.833C171.301 145.748 171.677 145.705 172.1 145.705H173.115ZM176.875 144.609V149.239H175.58V143.427H176.8L176.875 144.609ZM176.665 146.118L176.225 146.113C176.225 145.712 176.275 145.341 176.375 145.001C176.476 144.661 176.622 144.365 176.816 144.115C177.009 143.861 177.249 143.665 177.535 143.529C177.826 143.39 178.16 143.32 178.54 143.32C178.805 143.32 179.047 143.359 179.265 143.438C179.487 143.513 179.679 143.633 179.84 143.798C180.004 143.963 180.13 144.174 180.216 144.432C180.305 144.689 180.35 145.001 180.35 145.366V149.239H179.055V145.479C179.055 145.196 179.013 144.974 178.927 144.813C178.844 144.652 178.724 144.537 178.567 144.469C178.413 144.398 178.228 144.362 178.013 144.362C177.77 144.362 177.562 144.408 177.39 144.501C177.222 144.595 177.084 144.722 176.977 144.883C176.869 145.044 176.791 145.23 176.741 145.441C176.69 145.653 176.665 145.878 176.665 146.118ZM180.269 145.774L179.662 145.909C179.662 145.558 179.711 145.227 179.807 144.915C179.908 144.6 180.053 144.324 180.242 144.088C180.436 143.848 180.674 143.66 180.957 143.524C181.24 143.388 181.564 143.32 181.929 143.32C182.226 143.32 182.491 143.361 182.724 143.443C182.96 143.522 183.161 143.647 183.326 143.819C183.49 143.991 183.616 144.215 183.701 144.491C183.787 144.763 183.83 145.092 183.83 145.479V149.239H182.531V145.474C182.531 145.18 182.488 144.953 182.402 144.792C182.319 144.63 182.201 144.519 182.047 144.458C181.893 144.394 181.709 144.362 181.494 144.362C181.293 144.362 181.116 144.399 180.962 144.475C180.812 144.546 180.685 144.648 180.581 144.781C180.477 144.91 180.398 145.058 180.345 145.227C180.294 145.395 180.269 145.577 180.269 145.774ZM188.439 148.073V145.302C188.439 145.094 188.401 144.915 188.326 144.765C188.251 144.614 188.136 144.498 187.982 144.416C187.832 144.333 187.642 144.292 187.413 144.292C187.202 144.292 187.019 144.328 186.865 144.399C186.711 144.471 186.591 144.568 186.505 144.689C186.419 144.811 186.376 144.949 186.376 145.103H185.087C185.087 144.874 185.143 144.652 185.254 144.437C185.365 144.222 185.526 144.031 185.737 143.862C185.948 143.694 186.201 143.562 186.494 143.465C186.788 143.368 187.117 143.32 187.483 143.32C187.92 143.32 188.306 143.393 188.643 143.54C188.983 143.687 189.25 143.909 189.443 144.206C189.64 144.5 189.739 144.868 189.739 145.312V147.896C189.739 148.161 189.756 148.399 189.792 148.61C189.832 148.818 189.887 148.999 189.959 149.153V149.239H188.632C188.571 149.099 188.523 148.922 188.487 148.707C188.455 148.489 188.439 148.277 188.439 148.073ZM188.627 145.705L188.638 146.505H187.708C187.468 146.505 187.257 146.528 187.075 146.575C186.892 146.618 186.74 146.682 186.618 146.768C186.496 146.854 186.405 146.958 186.344 147.08C186.283 147.201 186.253 147.339 186.253 147.493C186.253 147.647 186.289 147.789 186.36 147.917C186.432 148.043 186.536 148.141 186.672 148.213C186.811 148.285 186.98 148.32 187.177 148.32C187.442 148.32 187.673 148.267 187.869 148.159C188.07 148.048 188.228 147.914 188.342 147.756C188.457 147.595 188.518 147.443 188.525 147.3L188.944 147.875C188.901 148.021 188.827 148.179 188.723 148.347C188.62 148.515 188.484 148.677 188.315 148.831C188.151 148.981 187.952 149.104 187.719 149.201C187.49 149.298 187.225 149.346 186.924 149.346C186.545 149.346 186.206 149.271 185.909 149.121C185.612 148.967 185.379 148.761 185.211 148.503C185.042 148.242 184.958 147.946 184.958 147.617C184.958 147.309 185.016 147.037 185.13 146.8C185.248 146.56 185.42 146.36 185.646 146.199C185.875 146.038 186.154 145.916 186.484 145.833C186.813 145.748 187.189 145.705 187.612 145.705H188.627ZM194.352 147.665C194.352 147.536 194.32 147.42 194.256 147.316C194.191 147.208 194.068 147.112 193.885 147.026C193.706 146.94 193.441 146.861 193.09 146.79C192.782 146.722 192.499 146.641 192.242 146.548C191.987 146.451 191.769 146.335 191.586 146.199C191.404 146.063 191.262 145.902 191.162 145.715C191.062 145.529 191.012 145.314 191.012 145.071C191.012 144.834 191.063 144.611 191.167 144.399C191.271 144.188 191.42 144.002 191.613 143.841C191.806 143.68 192.041 143.553 192.317 143.459C192.596 143.366 192.908 143.32 193.251 143.32C193.738 143.32 194.155 143.402 194.503 143.567C194.854 143.728 195.122 143.948 195.308 144.228C195.495 144.503 195.588 144.815 195.588 145.162H194.293C194.293 145.008 194.254 144.865 194.175 144.732C194.1 144.596 193.985 144.487 193.831 144.405C193.677 144.319 193.484 144.276 193.251 144.276C193.029 144.276 192.845 144.312 192.698 144.383C192.555 144.451 192.447 144.541 192.376 144.652C192.308 144.763 192.274 144.885 192.274 145.017C192.274 145.114 192.292 145.201 192.327 145.28C192.367 145.355 192.431 145.425 192.521 145.49C192.61 145.551 192.732 145.608 192.886 145.662C193.044 145.715 193.241 145.767 193.477 145.817C193.921 145.91 194.302 146.03 194.621 146.177C194.943 146.32 195.19 146.507 195.362 146.736C195.534 146.961 195.62 147.248 195.62 147.595C195.62 147.853 195.564 148.089 195.453 148.304C195.346 148.515 195.188 148.7 194.981 148.857C194.773 149.011 194.524 149.131 194.234 149.217C193.948 149.303 193.625 149.346 193.267 149.346C192.741 149.346 192.295 149.253 191.93 149.067C191.565 148.877 191.287 148.635 191.097 148.342C190.911 148.045 190.818 147.737 190.818 147.418H192.07C192.084 147.658 192.15 147.849 192.268 147.993C192.39 148.132 192.541 148.234 192.72 148.299C192.902 148.36 193.09 148.39 193.284 148.39C193.516 148.39 193.711 148.36 193.869 148.299C194.027 148.234 194.146 148.148 194.229 148.041C194.311 147.93 194.352 147.805 194.352 147.665Z" fill="white"/>
<mask id="mask2_101_414" style="mask-type:alpha" maskUnits="userSpaceOnUse" x="603" y="144" width="7" height="5">
<path d="M606.573 147.944L608.899 145.6C609.06 145.438 609.06 145.175 608.899 145.015L608.512 144.625C608.352 144.463 608.092 144.463 607.933 144.625L606.284 146.288L604.635 144.625C604.475 144.463 604.215 144.463 604.056 144.625L603.669 145.015C603.508 145.177 603.508 145.439 603.669 145.6L605.995 147.944C606.152 148.106 606.412 148.106 606.573 147.944Z" fill="white"/>
</mask>
<g mask="url(#mask2_101_414)">
<path d="M606.573 147.944L608.899 145.6C609.06 145.438 609.06 145.175 608.899 145.015L608.512 144.625C608.352 144.463 608.092 144.463 607.933 144.625L606.284 146.288L604.635 144.625C604.475 144.463 604.215 144.463 604.056 144.625L603.669 145.015C603.508 145.177 603.508 145.439 603.669 145.6L605.995 147.944C606.152 148.106 606.412 148.106 606.573 147.944Z" fill="black"/>
<path d="M601.905 141.866L610.661 141.866L610.661 150.693L601.905 150.693L601.905 141.866Z" fill="white"/>
</g>
<mask id="mask3_101_414" style="mask-type:alpha" maskUnits="userSpaceOnUse" x="730" y="144" width="7" height="5">
<path d="M733.827 147.944L736.153 145.6C736.314 145.438 736.314 145.175 736.153 145.015L735.766 144.625C735.606 144.463 735.346 144.463 735.187 144.625L733.538 146.288L731.889 144.625C731.729 144.463 731.469 144.463 731.31 144.625L730.923 145.015C730.762 145.177 730.762 145.439 730.923 145.6L733.249 147.944C733.406 148.106 733.666 148.106 733.827 147.944Z" fill="white"/>
</mask>
<g mask="url(#mask3_101_414)">
<path d="M733.827 147.944L736.153 145.6C736.314 145.438 736.314 145.175 736.153 145.015L735.766 144.625C735.606 144.463 735.346 144.463 735.187 144.625L733.538 146.288L731.889 144.625C731.729 144.463 731.469 144.463 731.31 144.625L730.923 145.015C730.762 145.177 730.762 145.439 730.923 145.6L733.249 147.944C733.406 148.106 733.666 148.106 733.827 147.944Z" fill="black"/>
<path d="M729.159 141.866L737.915 141.866L737.915 150.693L729.159 150.693L729.159 141.866Z" fill="white"/>
</g>
<path d="M149.25 295.672V267.172H208.75V295.672H149.25Z" fill="#4D648D" stroke="#B8CDEB" stroke-width="0.5"/>
<path d="M149.25 447.672V419.172H208.75V447.672H149.25Z" fill="#6BBF59" stroke="#B8CDEB" stroke-width="0.5"/>
<path d="M353.25 295.672V267.172H412.75V295.672H353.25Z" fill="#4D648D" stroke="#B8CDEB" stroke-width="0.5"/>
<path d="M353.25 447.672V419.172H412.75V447.672H353.25Z" fill="#4D648D" stroke="#B8CDEB" stroke-width="0.5"/>
<path d="M489.25 295.672V267.172H548.75V295.672H489.25Z" fill="#4D648D" stroke="#B8CDEB" stroke-width="0.5"/>
<path d="M489.25 447.672V419.172H548.75V447.672H489.25Z" fill="#4D648D" stroke="#B8CDEB" stroke-width="0.5"/>
<path d="M761.25 447.75V419.25H820.75V447.75H761.25Z" fill="#4D648D" stroke="#B8CDEB" stroke-width="0.5"/>
<path d="M217.25 332.672V304.172H276.75V332.672H217.25Z" fill="#4D648D" stroke="#B8CDEB" stroke-width="0.5"/>
<path d="M217.25 484.75V456.25H276.75V484.75H217.25Z" fill="#4D648D" stroke="#B8CDEB" stroke-width="0.5"/>
<path d="M693.25 446.75V418.25H752.75V446.75H693.25Z" fill="#6BBF59" stroke="#B8CDEB" stroke-width="0.5"/>
<path d="M807 137.746H792V152.746H807V137.746Z" fill="#4D648D"/>
<path d="M785 137.746H770V152.746H785V137.746Z" fill="#B1C5FF"/>
<path d="M217.25 295.672V267.172H276.75V295.672H217.25Z" fill="#6BBF59" stroke="#6BBF59" stroke-width="0.5"/>
<path d="M217.25 447.672V419.172H276.75V447.672H217.25Z" fill="#4F6693" stroke="#6BBF59" stroke-width="0.5"/>
<path d="M421.25 295.672V267.172H480.75V295.672H421.25Z" fill="#6BBF59" stroke="#6BBF59" stroke-width="0.5"/>
<path d="M421.25 447.672V419.172H480.75V447.672H421.25Z" fill="#4D648D" stroke="#6BBF59" stroke-width="0.5"/>
<path d="M557.25 295.672V267.172H616.75V295.672H557.25Z" fill="#6BBF59" stroke="#6BBF59" stroke-width="0.5"/>
<path d="M557.25 447.672V419.172H616.75V447.672H557.25Z" fill="#6BBF59" stroke="#6BBF59" stroke-width="0.5"/>
<path d="M625.25 295.672V267.172H684.75V295.672H625.25Z" fill="#4D648D" stroke="#6BBF59" stroke-width="0.5"/>
<path d="M625.25 447.672V419.172H684.75V447.672H625.25Z" fill="#6BBF59" stroke="#6BBF59" stroke-width="0.5"/>
<path d="M285.25 295.672V267.172H344.75V295.672H285.25Z" fill="#6BBF59" stroke="#6BBF59" stroke-width="0.5"/>
<path d="M285.25 447.672V419.172H344.75V447.672H285.25Z" fill="#6BBF59" stroke="#6BBF59" stroke-width="0.5"/>
<path d="M149.25 332.672V304.172H208.75V332.672H149.25Z" fill="#4D648D" stroke="#6BBF59" stroke-width="0.5"/>
<path d="M149.25 484.672V456.172H208.75V484.672H149.25Z" fill="#6BBF59" stroke="#6BBF59" stroke-width="0.5"/>
<path d="M285.25 332.672V304.172H344.75V332.672H285.25Z" fill="#4D648D" stroke="#6BBF59" stroke-width="0.5"/>
<path d="M693.25 295.75V267.25H752.75V295.75H693.25Z" fill="#4D648D" stroke="#6BBF59" stroke-width="0.5"/>
<path d="M353.25 332.672V304.172H412.75V332.672H353.25Z" fill="#6BBF59" stroke="#6BBF59" stroke-width="0.5"/>
<path d="M761.25 295.75V267.25H820.75V295.75H761.25Z" fill="#6BBF59" stroke="#6BBF59" stroke-width="0.5"/>
<rect x="580.5" y="178.5" width="67" height="19" rx="1.5" fill="#EEF2F8" stroke="#C1D3ED"/>
<rect x="647.5" y="178.5" width="66" height="19" rx="1.5" fill="#EEF2F8" stroke="#C1D3ED"/>
<rect x="713.5" y="178.5" width="66" height="19" rx="1.5" fill="#4D648D" stroke="#C1D3ED"/>
<rect x="779.5" y="178.5" width="66" height="19" rx="1.5" fill="#EEF2F8" stroke="#C1D3ED"/>
<rect x="814.5" y="137.246" width="52" height="16" rx="1.5" fill="#EEF2F8" stroke="#C1D3ED"/>
<rect x="498.5" y="136.5" width="115.747" height="18.847" rx="1.5" stroke="white"/>
<rect x="625.754" y="136.5" width="115.747" height="18.847" rx="1.5" stroke="white"/>
<rect x="504.93" y="140.575" width="81.6509" height="10.5844" rx="5.29219" fill="#B1C5FF"/>
<rect x="629.675" y="140.575" width="78.6269" height="10.5844" rx="5.29219" fill="#B1C5FF"/>
<path d="M139.909 394.908C139.909 394.747 139.884 394.604 139.834 394.479C139.787 394.353 139.703 394.239 139.582 394.135C139.46 394.031 139.288 393.931 139.066 393.834C138.847 393.734 138.568 393.632 138.228 393.528C137.856 393.413 137.512 393.286 137.197 393.147C136.885 393.003 136.613 392.839 136.38 392.652C136.148 392.463 135.967 392.246 135.838 392.003C135.709 391.755 135.645 391.471 135.645 391.149C135.645 390.83 135.711 390.54 135.843 390.278C135.979 390.017 136.171 389.791 136.418 389.602C136.669 389.408 136.964 389.26 137.304 389.156C137.644 389.048 138.02 388.995 138.432 388.995C139.012 388.995 139.512 389.102 139.931 389.317C140.353 389.532 140.677 389.82 140.903 390.182C141.132 390.543 141.247 390.943 141.247 391.38H139.909C139.909 391.122 139.854 390.894 139.743 390.697C139.635 390.497 139.471 390.339 139.249 390.225C139.03 390.11 138.753 390.053 138.416 390.053C138.097 390.053 137.832 390.101 137.621 390.198C137.41 390.295 137.252 390.425 137.148 390.59C137.045 390.755 136.993 390.941 136.993 391.149C136.993 391.295 137.027 391.43 137.095 391.551C137.163 391.67 137.267 391.781 137.406 391.884C137.546 391.985 137.721 392.08 137.933 392.169C138.144 392.259 138.393 392.345 138.679 392.427C139.112 392.556 139.49 392.699 139.812 392.857C140.135 393.011 140.403 393.186 140.618 393.383C140.833 393.58 140.994 393.804 141.102 394.054C141.209 394.301 141.263 394.582 141.263 394.898C141.263 395.227 141.196 395.524 141.064 395.789C140.931 396.051 140.742 396.274 140.495 396.461C140.251 396.643 139.958 396.785 139.614 396.885C139.274 396.982 138.894 397.03 138.475 397.03C138.099 397.03 137.729 396.98 137.363 396.88C137.002 396.779 136.672 396.627 136.375 396.423C136.078 396.215 135.841 395.957 135.666 395.65C135.491 395.338 135.403 394.975 135.403 394.559H136.751C136.751 394.813 136.794 395.03 136.88 395.209C136.969 395.388 137.093 395.535 137.25 395.65C137.408 395.761 137.591 395.843 137.798 395.897C138.01 395.95 138.235 395.977 138.475 395.977C138.79 395.977 139.053 395.932 139.265 395.843C139.479 395.753 139.641 395.628 139.748 395.467C139.855 395.306 139.909 395.12 139.909 394.908ZM145.603 395.757V392.985C145.603 392.778 145.565 392.599 145.49 392.448C145.415 392.298 145.3 392.182 145.146 392.099C144.996 392.017 144.806 391.976 144.577 391.976C144.365 391.976 144.183 392.012 144.029 392.083C143.875 392.155 143.755 392.251 143.669 392.373C143.583 392.495 143.54 392.633 143.54 392.787H142.251C142.251 392.558 142.306 392.336 142.417 392.121C142.528 391.906 142.69 391.714 142.901 391.546C143.112 391.378 143.365 391.245 143.658 391.149C143.952 391.052 144.281 391.004 144.646 391.004C145.083 391.004 145.47 391.077 145.807 391.224C146.147 391.371 146.414 391.593 146.607 391.89C146.804 392.183 146.902 392.552 146.902 392.996V395.58C146.902 395.845 146.92 396.083 146.956 396.294C146.995 396.502 147.051 396.683 147.123 396.837V396.922H145.796C145.735 396.783 145.687 396.606 145.651 396.391C145.619 396.172 145.603 395.961 145.603 395.757ZM145.791 393.388L145.801 394.189H144.872C144.632 394.189 144.421 394.212 144.238 394.258C144.056 394.301 143.903 394.366 143.782 394.452C143.66 394.538 143.569 394.642 143.508 394.763C143.447 394.885 143.417 395.023 143.417 395.177C143.417 395.331 143.452 395.472 143.524 395.601C143.596 395.727 143.699 395.825 143.835 395.897C143.975 395.968 144.143 396.004 144.34 396.004C144.605 396.004 144.836 395.95 145.033 395.843C145.234 395.732 145.391 395.598 145.506 395.44C145.62 395.279 145.681 395.127 145.688 394.984L146.107 395.558C146.064 395.705 145.991 395.863 145.887 396.031C145.783 396.199 145.647 396.36 145.479 396.514C145.314 396.665 145.116 396.788 144.883 396.885C144.654 396.982 144.389 397.03 144.088 397.03C143.708 397.03 143.37 396.955 143.073 396.804C142.776 396.65 142.543 396.444 142.375 396.187C142.206 395.925 142.122 395.63 142.122 395.3C142.122 394.992 142.179 394.72 142.294 394.484C142.412 394.244 142.584 394.044 142.81 393.882C143.039 393.721 143.318 393.6 143.647 393.517C143.977 393.431 144.353 393.388 144.775 393.388H145.791ZM149.642 388.672V396.922H148.342V388.672H149.642ZM154.336 395.757V392.985C154.336 392.778 154.298 392.599 154.223 392.448C154.148 392.298 154.033 392.182 153.879 392.099C153.729 392.017 153.539 391.976 153.31 391.976C153.099 391.976 152.916 392.012 152.762 392.083C152.608 392.155 152.488 392.251 152.402 392.373C152.316 392.495 152.273 392.633 152.273 392.787H150.984C150.984 392.558 151.04 392.336 151.151 392.121C151.262 391.906 151.423 391.714 151.634 391.546C151.846 391.378 152.098 391.245 152.392 391.149C152.685 391.052 153.015 391.004 153.38 391.004C153.817 391.004 154.203 391.077 154.54 391.224C154.88 391.371 155.147 391.593 155.34 391.89C155.537 392.183 155.636 392.552 155.636 392.996V395.58C155.636 395.845 155.654 396.083 155.689 396.294C155.729 396.502 155.784 396.683 155.856 396.837V396.922H154.529C154.468 396.783 154.42 396.606 154.384 396.391C154.352 396.172 154.336 395.961 154.336 395.757ZM154.524 393.388L154.535 394.189H153.605C153.366 394.189 153.154 394.212 152.972 394.258C152.789 394.301 152.637 394.366 152.515 394.452C152.393 394.538 152.302 394.642 152.241 394.763C152.18 394.885 152.15 395.023 152.15 395.177C152.15 395.331 152.186 395.472 152.257 395.601C152.329 395.727 152.433 395.825 152.569 395.897C152.708 395.968 152.877 396.004 153.074 396.004C153.339 396.004 153.57 395.95 153.767 395.843C153.967 395.732 154.125 395.598 154.239 395.44C154.354 395.279 154.415 395.127 154.422 394.984L154.841 395.558C154.798 395.705 154.724 395.863 154.621 396.031C154.517 396.199 154.381 396.36 154.212 396.514C154.048 396.665 153.849 396.788 153.616 396.885C153.387 396.982 153.122 397.03 152.821 397.03C152.442 397.03 152.103 396.955 151.806 396.804C151.509 396.65 151.276 396.444 151.108 396.187C150.94 395.925 150.855 395.63 150.855 395.3C150.855 394.992 150.913 394.72 151.027 394.484C151.146 394.244 151.317 394.044 151.543 393.882C151.772 393.721 152.051 393.6 152.381 393.517C152.71 393.431 153.086 393.388 153.509 393.388H154.524ZM164.896 395.891V396.922H159.653V396.036L162.199 393.259C162.479 392.944 162.699 392.672 162.86 392.443C163.021 392.214 163.134 392.008 163.198 391.825C163.266 391.639 163.3 391.458 163.3 391.283C163.3 391.036 163.254 390.819 163.161 390.633C163.071 390.443 162.939 390.295 162.763 390.187C162.588 390.076 162.375 390.021 162.124 390.021C161.834 390.021 161.59 390.083 161.394 390.209C161.197 390.334 161.048 390.508 160.948 390.73C160.847 390.948 160.797 391.199 160.797 391.482H159.503C159.503 391.027 159.607 390.611 159.814 390.235C160.022 389.856 160.323 389.555 160.717 389.333C161.111 389.108 161.585 388.995 162.14 388.995C162.663 388.995 163.107 389.082 163.472 389.258C163.837 389.433 164.115 389.682 164.305 390.005C164.498 390.327 164.595 390.708 164.595 391.149C164.595 391.392 164.555 391.634 164.477 391.874C164.398 392.114 164.285 392.353 164.138 392.593C163.995 392.83 163.825 393.068 163.628 393.308C163.431 393.544 163.214 393.784 162.978 394.027L161.286 395.891H164.896Z" fill="#4D648D"/>
<path d="M139.909 245.908C139.909 245.747 139.884 245.604 139.834 245.479C139.787 245.353 139.703 245.239 139.582 245.135C139.46 245.031 139.288 244.931 139.066 244.834C138.847 244.734 138.568 244.632 138.228 244.528C137.856 244.413 137.512 244.286 137.197 244.147C136.885 244.003 136.613 243.839 136.38 243.652C136.148 243.463 135.967 243.246 135.838 243.003C135.709 242.755 135.645 242.471 135.645 242.149C135.645 241.83 135.711 241.54 135.843 241.278C135.979 241.017 136.171 240.791 136.418 240.602C136.669 240.408 136.964 240.26 137.304 240.156C137.644 240.048 138.02 239.995 138.432 239.995C139.012 239.995 139.512 240.102 139.931 240.317C140.353 240.532 140.677 240.82 140.903 241.182C141.132 241.543 141.247 241.943 141.247 242.38H139.909C139.909 242.122 139.854 241.894 139.743 241.697C139.635 241.497 139.471 241.339 139.249 241.225C139.03 241.11 138.753 241.053 138.416 241.053C138.097 241.053 137.832 241.101 137.621 241.198C137.41 241.295 137.252 241.425 137.148 241.59C137.045 241.755 136.993 241.941 136.993 242.149C136.993 242.295 137.027 242.43 137.095 242.551C137.163 242.67 137.267 242.781 137.406 242.884C137.546 242.985 137.721 243.08 137.933 243.169C138.144 243.259 138.393 243.345 138.679 243.427C139.112 243.556 139.49 243.699 139.812 243.857C140.135 244.011 140.403 244.186 140.618 244.383C140.833 244.58 140.994 244.804 141.102 245.054C141.209 245.301 141.263 245.582 141.263 245.898C141.263 246.227 141.196 246.524 141.064 246.789C140.931 247.051 140.742 247.274 140.495 247.461C140.251 247.643 139.958 247.785 139.614 247.885C139.274 247.982 138.894 248.03 138.475 248.03C138.099 248.03 137.729 247.98 137.363 247.88C137.002 247.779 136.672 247.627 136.375 247.423C136.078 247.215 135.841 246.957 135.666 246.65C135.491 246.338 135.403 245.975 135.403 245.559H136.751C136.751 245.813 136.794 246.03 136.88 246.209C136.969 246.388 137.093 246.535 137.25 246.65C137.408 246.761 137.591 246.843 137.798 246.897C138.01 246.95 138.235 246.977 138.475 246.977C138.79 246.977 139.053 246.932 139.265 246.843C139.479 246.753 139.641 246.628 139.748 246.467C139.855 246.306 139.909 246.12 139.909 245.908ZM145.603 246.757V243.985C145.603 243.778 145.565 243.599 145.49 243.448C145.415 243.298 145.3 243.182 145.146 243.099C144.996 243.017 144.806 242.976 144.577 242.976C144.365 242.976 144.183 243.012 144.029 243.083C143.875 243.155 143.755 243.251 143.669 243.373C143.583 243.495 143.54 243.633 143.54 243.787H142.251C142.251 243.558 142.306 243.336 142.417 243.121C142.528 242.906 142.69 242.714 142.901 242.546C143.112 242.378 143.365 242.245 143.658 242.149C143.952 242.052 144.281 242.004 144.646 242.004C145.083 242.004 145.47 242.077 145.807 242.224C146.147 242.371 146.414 242.593 146.607 242.89C146.804 243.183 146.902 243.552 146.902 243.996V246.58C146.902 246.845 146.92 247.083 146.956 247.294C146.995 247.502 147.051 247.683 147.123 247.837V247.922H145.796C145.735 247.783 145.687 247.606 145.651 247.391C145.619 247.172 145.603 246.961 145.603 246.757ZM145.791 244.388L145.801 245.189H144.872C144.632 245.189 144.421 245.212 144.238 245.258C144.056 245.301 143.903 245.366 143.782 245.452C143.66 245.538 143.569 245.642 143.508 245.763C143.447 245.885 143.417 246.023 143.417 246.177C143.417 246.331 143.452 246.472 143.524 246.601C143.596 246.727 143.699 246.825 143.835 246.897C143.975 246.968 144.143 247.004 144.34 247.004C144.605 247.004 144.836 246.95 145.033 246.843C145.234 246.732 145.391 246.598 145.506 246.44C145.62 246.279 145.681 246.127 145.688 245.984L146.107 246.558C146.064 246.705 145.991 246.863 145.887 247.031C145.783 247.199 145.647 247.36 145.479 247.514C145.314 247.665 145.116 247.788 144.883 247.885C144.654 247.982 144.389 248.03 144.088 248.03C143.708 248.03 143.37 247.955 143.073 247.804C142.776 247.65 142.543 247.444 142.375 247.187C142.206 246.925 142.122 246.63 142.122 246.3C142.122 245.992 142.179 245.72 142.294 245.484C142.412 245.244 142.584 245.044 142.81 244.882C143.039 244.721 143.318 244.6 143.647 244.517C143.977 244.431 144.353 244.388 144.775 244.388H145.791ZM149.642 239.672V247.922H148.342V239.672H149.642ZM154.336 246.757V243.985C154.336 243.778 154.298 243.599 154.223 243.448C154.148 243.298 154.033 243.182 153.879 243.099C153.729 243.017 153.539 242.976 153.31 242.976C153.099 242.976 152.916 243.012 152.762 243.083C152.608 243.155 152.488 243.251 152.402 243.373C152.316 243.495 152.273 243.633 152.273 243.787H150.984C150.984 243.558 151.04 243.336 151.151 243.121C151.262 242.906 151.423 242.714 151.634 242.546C151.846 242.378 152.098 242.245 152.392 242.149C152.685 242.052 153.015 242.004 153.38 242.004C153.817 242.004 154.203 242.077 154.54 242.224C154.88 242.371 155.147 242.593 155.34 242.89C155.537 243.183 155.636 243.552 155.636 243.996V246.58C155.636 246.845 155.654 247.083 155.689 247.294C155.729 247.502 155.784 247.683 155.856 247.837V247.922H154.529C154.468 247.783 154.42 247.606 154.384 247.391C154.352 247.172 154.336 246.961 154.336 246.757ZM154.524 244.388L154.535 245.189H153.605C153.366 245.189 153.154 245.212 152.972 245.258C152.789 245.301 152.637 245.366 152.515 245.452C152.393 245.538 152.302 245.642 152.241 245.763C152.18 245.885 152.15 246.023 152.15 246.177C152.15 246.331 152.186 246.472 152.257 246.601C152.329 246.727 152.433 246.825 152.569 246.897C152.708 246.968 152.877 247.004 153.074 247.004C153.339 247.004 153.57 246.95 153.767 246.843C153.967 246.732 154.125 246.598 154.239 246.44C154.354 246.279 154.415 246.127 154.422 245.984L154.841 246.558C154.798 246.705 154.724 246.863 154.621 247.031C154.517 247.199 154.381 247.36 154.212 247.514C154.048 247.665 153.849 247.788 153.616 247.885C153.387 247.982 153.122 248.03 152.821 248.03C152.442 248.03 152.103 247.955 151.806 247.804C151.509 247.65 151.276 247.444 151.108 247.187C150.94 246.925 150.855 246.63 150.855 246.3C150.855 245.992 150.913 245.72 151.027 245.484C151.146 245.244 151.317 245.044 151.543 244.882C151.772 244.721 152.051 244.6 152.381 244.517C152.71 244.431 153.086 244.388 153.509 244.388H154.524ZM163.188 240.075V247.922H161.893V241.611L159.976 242.261V241.193L163.032 240.075H163.188Z" fill="#4D648D"/>
<defs>
<filter id="filter0_d_101_414" x="0.5" y="0.5" width="976" height="669" filterUnits="userSpaceOnUse" color-interpolation-filters="sRGB">
<feFlood flood-opacity="0" result="BackgroundImageFix"/>
<feColorMatrix in="SourceAlpha" type="matrix" values="0 0 0 0 0 0 0 0 0 0 0 0 0 0 0 0 0 0 127 0" result="hardAlpha"/>
<feOffset dx="4" dy="4"/>
<feGaussianBlur stdDeviation="9"/>
<feColorMatrix type="matrix" values="0 0 0 0 0.321569 0 0 0 0 0.392157 0 0 0 0 0.541176 0 0 0 0.3 0"/>
<feBlend mode="normal" in2="BackgroundImageFix" result="effect1_dropShadow_101_414"/>
<feBlend mode="normal" in="SourceGraphic" in2="effect1_dropShadow_101_414" result="shape"/>
</filter>
<linearGradient id="paint0_linear_101_414" x1="484.5" y1="331" x2="811.266" y2="964.378" gradientUnits="userSpaceOnUse">
<stop stop-color="white"/>
<stop offset="1" stop-color="#EDF3FC"/>
</linearGradient>
<linearGradient id="paint1_linear_101_414" x1="48.3942" y1="46.6116" x2="570.241" y2="845.337" gradientUnits="userSpaceOnUse">
<stop stop-color="#7DB8FF"/>
<stop offset="0.0621" stop-color="#7CB6FF"/>
<stop offset="1" stop-color="#7194FF"/>
</linearGradient>
<linearGradient id="paint2_linear_101_414" x1="16.5431" y1="145.614" x2="342.515" y2="266.735" gradientUnits="userSpaceOnUse">
<stop stop-color="#A1C0FF"/>
<stop offset="1" stop-color="#7093FF"/>
</linearGradient>
<clipPath id="clip0_101_414">
<rect width="17.7551" height="20.5585" fill="white" transform="translate(868.687 58.4436)"/>
</clipPath>
</defs>
</svg>
