<svg width="504" height="478" viewBox="0 0 504 478" fill="none" xmlns="http://www.w3.org/2000/svg">
<g filter="url(#filter0_d_103_1921)">
<path d="M430.49 145.32L417.56 456.58C417.25 464.08 411.08 470 403.57 470H22C14.27 470 8 463.74 8 456V77.5902C8 68.9202 15.8 62.3302 24.35 63.7902L130.87 81.9202L310.18 112.44L418.85 130.94C425.8 132.12 430.78 138.28 430.49 145.32Z" fill="url(#paint0_linear_103_1921)"/>
</g>
<mask id="mask0_103_1921" style="mask-type:luminance" maskUnits="userSpaceOnUse" x="288" y="0" width="216" height="397">
<path d="M503.5 0H288.49V397H503.5V0Z" fill="white"/>
</mask>
<g mask="url(#mask0_103_1921)">
<path d="M502.15 2.7C501.41 2.7 500.8 2.1 500.8 1.35C500.8 0.6 501.4 0 502.15 0C502.9 0 503.5 0.6 503.5 1.35C503.5 2.1 502.9 2.7 502.15 2.7Z" fill="#71869D"/>
<path d="M471.82 2.7C471.07 2.7 470.47 2.1 470.47 1.35C470.47 0.6 471.07 0 471.82 0C472.57 0 473.17 0.6 473.17 1.35C473.17 2.1 472.57 2.7 471.82 2.7Z" fill="#71869D"/>
<path d="M441.49 2.7C440.75 2.7 440.14 2.1 440.14 1.35C440.14 0.6 440.74 0 441.49 0C442.24 0 442.84 0.6 442.84 1.35C442.84 2.1 442.24 2.7 441.49 2.7Z" fill="#71869D"/>
<path d="M411.16 2.7C410.42 2.7 409.81 2.1 409.81 1.35C409.81 0.6 410.41 0 411.16 0C411.91 0 412.51 0.6 412.51 1.35C412.51 2.1 411.91 2.7 411.16 2.7Z" fill="#71869D"/>
<path d="M380.83 2.7C380.09 2.7 379.48 2.1 379.48 1.35C379.48 0.6 380.08 0 380.83 0C381.58 0 382.18 0.6 382.18 1.35C382.18 2.1 381.58 2.7 380.83 2.7Z" fill="#71869D"/>
<path d="M350.5 2.7C349.76 2.7 349.15 2.1 349.15 1.35C349.15 0.6 349.75 0 350.5 0C351.25 0 351.85 0.6 351.85 1.35C351.85 2.1 351.25 2.7 350.5 2.7Z" fill="#71869D"/>
<path d="M502.15 33.0301C501.41 33.0301 500.8 32.4301 500.8 31.6801C500.8 30.9301 501.4 30.3301 502.15 30.3301C502.9 30.3301 503.5 30.9301 503.5 31.6801C503.5 32.4301 502.9 33.0301 502.15 33.0301Z" fill="#71869D"/>
<path d="M471.82 33.0301C471.07 33.0301 470.47 32.4301 470.47 31.6801C470.47 30.9301 471.07 30.3301 471.82 30.3301C472.57 30.3301 473.17 30.9301 473.17 31.6801C473.17 32.4301 472.57 33.0301 471.82 33.0301Z" fill="#71869D"/>
<path d="M441.49 33.0301C440.75 33.0301 440.14 32.4301 440.14 31.6801C440.14 30.9301 440.74 30.3301 441.49 30.3301C442.24 30.3301 442.84 30.9301 442.84 31.6801C442.84 32.4301 442.24 33.0301 441.49 33.0301Z" fill="#71869D"/>
<path d="M411.16 33.0301C410.42 33.0301 409.81 32.4301 409.81 31.6801C409.81 30.9301 410.41 30.3301 411.16 30.3301C411.91 30.3301 412.51 30.9301 412.51 31.6801C412.51 32.4301 411.91 33.0301 411.16 33.0301Z" fill="#71869D"/>
<path d="M380.83 33.0301C380.09 33.0301 379.48 32.4301 379.48 31.6801C379.48 30.9301 380.08 30.3301 380.83 30.3301C381.58 30.3301 382.18 30.9301 382.18 31.6801C382.18 32.4301 381.58 33.0301 380.83 33.0301Z" fill="#71869D"/>
<path d="M350.5 33.0301C349.76 33.0301 349.15 32.4301 349.15 31.6801C349.15 30.9301 349.75 30.3301 350.5 30.3301C351.25 30.3301 351.85 30.9301 351.85 31.6801C351.85 32.4301 351.25 33.0301 350.5 33.0301Z" fill="#71869D"/>
<path d="M502.15 63.3602C501.41 63.3602 500.8 62.7602 500.8 62.0102C500.8 61.2602 501.4 60.6602 502.15 60.6602C502.9 60.6602 503.5 61.2602 503.5 62.0102C503.5 62.7602 502.9 63.3602 502.15 63.3602Z" fill="#71869D"/>
<path d="M471.82 63.3602C471.07 63.3602 470.47 62.7602 470.47 62.0102C470.47 61.2602 471.07 60.6602 471.82 60.6602C472.57 60.6602 473.17 61.2602 473.17 62.0102C473.17 62.7602 472.57 63.3602 471.82 63.3602Z" fill="#71869D"/>
<path d="M441.49 63.3602C440.75 63.3602 440.14 62.7602 440.14 62.0102C440.14 61.2602 440.74 60.6602 441.49 60.6602C442.24 60.6602 442.84 61.2602 442.84 62.0102C442.84 62.7602 442.24 63.3602 441.49 63.3602Z" fill="#71869D"/>
<path d="M411.16 63.3602C410.42 63.3602 409.81 62.7602 409.81 62.0102C409.81 61.2602 410.41 60.6602 411.16 60.6602C411.91 60.6602 412.51 61.2602 412.51 62.0102C412.51 62.7602 411.91 63.3602 411.16 63.3602Z" fill="#71869D"/>
<path d="M380.83 63.3602C380.09 63.3602 379.48 62.7602 379.48 62.0102C379.48 61.2602 380.08 60.6602 380.83 60.6602C381.58 60.6602 382.18 61.2602 382.18 62.0102C382.18 62.7602 381.58 63.3602 380.83 63.3602Z" fill="#71869D"/>
<path d="M350.5 63.3602C349.76 63.3602 349.15 62.7602 349.15 62.0102C349.15 61.2602 349.75 60.6602 350.5 60.6602C351.25 60.6602 351.85 61.2602 351.85 62.0102C351.85 62.7602 351.25 63.3602 350.5 63.3602Z" fill="#71869D"/>
<path d="M502.15 93.6902C501.41 93.6902 500.8 93.0902 500.8 92.3402C500.8 91.5902 501.4 90.9902 502.15 90.9902C502.9 90.9902 503.5 91.5902 503.5 92.3402C503.5 93.0902 502.9 93.6902 502.15 93.6902Z" fill="#71869D"/>
<path d="M471.82 93.6902C471.07 93.6902 470.47 93.0902 470.47 92.3402C470.47 91.5902 471.07 90.9902 471.82 90.9902C472.57 90.9902 473.17 91.5902 473.17 92.3402C473.17 93.0902 472.57 93.6902 471.82 93.6902Z" fill="#71869D"/>
<path d="M441.49 93.6902C440.75 93.6902 440.14 93.0902 440.14 92.3402C440.14 91.5902 440.74 90.9902 441.49 90.9902C442.24 90.9902 442.84 91.5902 442.84 92.3402C442.84 93.0902 442.24 93.6902 441.49 93.6902Z" fill="#71869D"/>
<path d="M411.16 93.6902C410.42 93.6902 409.81 93.0902 409.81 92.3402C409.81 91.5902 410.41 90.9902 411.16 90.9902C411.91 90.9902 412.51 91.5902 412.51 92.3402C412.51 93.0902 411.91 93.6902 411.16 93.6902Z" fill="#71869D"/>
<path d="M380.83 93.6902C380.09 93.6902 379.48 93.0902 379.48 92.3402C379.48 91.5902 380.08 90.9902 380.83 90.9902C381.58 90.9902 382.18 91.5902 382.18 92.3402C382.18 93.0902 381.58 93.6902 380.83 93.6902Z" fill="#71869D"/>
<path d="M350.5 93.6902C349.76 93.6902 349.15 93.0902 349.15 92.3402C349.15 91.5902 349.75 90.9902 350.5 90.9902C351.25 90.9902 351.85 91.5902 351.85 92.3402C351.85 93.0902 351.25 93.6902 350.5 93.6902Z" fill="#71869D"/>
<path d="M502.15 124.02C501.41 124.02 500.8 123.42 500.8 122.67C500.8 121.92 501.4 121.32 502.15 121.32C502.9 121.32 503.5 121.92 503.5 122.67C503.5 123.42 502.9 124.02 502.15 124.02Z" fill="#71869D"/>
<path d="M471.82 124.02C471.07 124.02 470.47 123.42 470.47 122.67C470.47 121.92 471.07 121.32 471.82 121.32C472.57 121.32 473.17 121.92 473.17 122.67C473.17 123.42 472.57 124.02 471.82 124.02Z" fill="#71869D"/>
<path d="M441.49 124.02C440.75 124.02 440.14 123.42 440.14 122.67C440.14 121.92 440.74 121.32 441.49 121.32C442.24 121.32 442.84 121.92 442.84 122.67C442.84 123.42 442.24 124.02 441.49 124.02Z" fill="#71869D"/>
<path d="M411.16 124.02C410.42 124.02 409.81 123.42 409.81 122.67C409.81 121.92 410.41 121.32 411.16 121.32C411.91 121.32 412.51 121.92 412.51 122.67C412.51 123.42 411.91 124.02 411.16 124.02Z" fill="#71869D"/>
<path d="M380.83 124.02C380.09 124.02 379.48 123.42 379.48 122.67C379.48 121.92 380.08 121.32 380.83 121.32C381.58 121.32 382.18 121.92 382.18 122.67C382.18 123.42 381.58 124.02 380.83 124.02Z" fill="#71869D"/>
<path d="M350.5 124.02C349.76 124.02 349.15 123.42 349.15 122.67C349.15 121.92 349.75 121.32 350.5 121.32C351.25 121.32 351.85 121.92 351.85 122.67C351.85 123.42 351.25 124.02 350.5 124.02Z" fill="#71869D"/>
<path d="M502.15 154.35C501.41 154.35 500.8 153.75 500.8 153C500.8 152.25 501.4 151.65 502.15 151.65C502.9 151.65 503.5 152.25 503.5 153C503.5 153.75 502.9 154.35 502.15 154.35Z" fill="#71869D"/>
<path d="M471.82 154.35C471.07 154.35 470.47 153.75 470.47 153C470.47 152.25 471.07 151.65 471.82 151.65C472.57 151.65 473.17 152.25 473.17 153C473.17 153.75 472.57 154.35 471.82 154.35Z" fill="#71869D"/>
<path d="M441.49 154.35C440.75 154.35 440.14 153.75 440.14 153C440.14 152.25 440.74 151.65 441.49 151.65C442.24 151.65 442.84 152.25 442.84 153C442.84 153.75 442.24 154.35 441.49 154.35Z" fill="#71869D"/>
<path d="M411.16 154.35C410.42 154.35 409.81 153.75 409.81 153C409.81 152.25 410.41 151.65 411.16 151.65C411.91 151.65 412.51 152.25 412.51 153C412.51 153.75 411.91 154.35 411.16 154.35Z" fill="#71869D"/>
<path d="M380.83 154.35C380.09 154.35 379.48 153.75 379.48 153C379.48 152.25 380.08 151.65 380.83 151.65C381.58 151.65 382.18 152.25 382.18 153C382.18 153.75 381.58 154.35 380.83 154.35Z" fill="#71869D"/>
<path d="M350.5 154.35C349.76 154.35 349.15 153.75 349.15 153C349.15 152.25 349.75 151.65 350.5 151.65C351.25 151.65 351.85 152.25 351.85 153C351.85 153.75 351.25 154.35 350.5 154.35Z" fill="#71869D"/>
<path d="M502.15 184.68C501.41 184.68 500.8 184.08 500.8 183.33C500.8 182.58 501.4 181.98 502.15 181.98C502.9 181.98 503.5 182.58 503.5 183.33C503.5 184.08 502.9 184.68 502.15 184.68Z" fill="#71869D"/>
<path d="M471.82 184.68C471.07 184.68 470.47 184.08 470.47 183.33C470.47 182.58 471.07 181.98 471.82 181.98C472.57 181.98 473.17 182.58 473.17 183.33C473.17 184.08 472.57 184.68 471.82 184.68Z" fill="#71869D"/>
<path d="M441.49 184.68C440.75 184.68 440.14 184.08 440.14 183.33C440.14 182.58 440.74 181.98 441.49 181.98C442.24 181.98 442.84 182.58 442.84 183.33C442.84 184.08 442.24 184.68 441.49 184.68Z" fill="#71869D"/>
<path d="M411.16 184.68C410.42 184.68 409.81 184.08 409.81 183.33C409.81 182.58 410.41 181.98 411.16 181.98C411.91 181.98 412.51 182.58 412.51 183.33C412.51 184.08 411.91 184.68 411.16 184.68Z" fill="#71869D"/>
<path d="M380.83 184.68C380.09 184.68 379.48 184.08 379.48 183.33C379.48 182.58 380.08 181.98 380.83 181.98C381.58 181.98 382.18 182.58 382.18 183.33C382.18 184.08 381.58 184.68 380.83 184.68Z" fill="#71869D"/>
<path d="M350.5 184.68C349.76 184.68 349.15 184.08 349.15 183.33C349.15 182.58 349.75 181.98 350.5 181.98C351.25 181.98 351.85 182.58 351.85 183.33C351.85 184.08 351.25 184.68 350.5 184.68Z" fill="#71869D"/>
<path d="M502.15 215.01C501.41 215.01 500.8 214.41 500.8 213.66C500.8 212.91 501.4 212.31 502.15 212.31C502.9 212.31 503.5 212.91 503.5 213.66C503.5 214.41 502.9 215.01 502.15 215.01Z" fill="#71869D"/>
<path d="M471.82 215.01C471.07 215.01 470.47 214.41 470.47 213.66C470.47 212.91 471.07 212.31 471.82 212.31C472.57 212.31 473.17 212.91 473.17 213.66C473.17 214.41 472.57 215.01 471.82 215.01Z" fill="#71869D"/>
<path d="M441.49 215.01C440.75 215.01 440.14 214.41 440.14 213.66C440.14 212.91 440.74 212.31 441.49 212.31C442.24 212.31 442.84 212.91 442.84 213.66C442.84 214.41 442.24 215.01 441.49 215.01Z" fill="#71869D"/>
<path d="M411.16 215.01C410.42 215.01 409.81 214.41 409.81 213.66C409.81 212.91 410.41 212.31 411.16 212.31C411.91 212.31 412.51 212.91 412.51 213.66C412.51 214.41 411.91 215.01 411.16 215.01Z" fill="#71869D"/>
<path d="M380.83 215.01C380.09 215.01 379.48 214.41 379.48 213.66C379.48 212.91 380.08 212.31 380.83 212.31C381.58 212.31 382.18 212.91 382.18 213.66C382.18 214.41 381.58 215.01 380.83 215.01Z" fill="#71869D"/>
<path d="M350.5 215.01C349.76 215.01 349.15 214.41 349.15 213.66C349.15 212.91 349.75 212.31 350.5 212.31C351.25 212.31 351.85 212.91 351.85 213.66C351.85 214.41 351.25 215.01 350.5 215.01Z" fill="#71869D"/>
<path d="M502.15 245.35C501.41 245.35 500.8 244.75 500.8 244C500.8 243.25 501.4 242.65 502.15 242.65C502.9 242.65 503.5 243.25 503.5 244C503.5 244.75 502.9 245.35 502.15 245.35Z" fill="#71869D"/>
<path d="M471.82 245.35C471.07 245.35 470.47 244.75 470.47 244C470.47 243.25 471.07 242.65 471.82 242.65C472.57 242.65 473.17 243.25 473.17 244C473.17 244.75 472.57 245.35 471.82 245.35Z" fill="#71869D"/>
<path d="M441.49 245.35C440.75 245.35 440.14 244.75 440.14 244C440.14 243.25 440.74 242.65 441.49 242.65C442.24 242.65 442.84 243.25 442.84 244C442.84 244.75 442.24 245.35 441.49 245.35Z" fill="#71869D"/>
<path d="M411.16 245.35C410.42 245.35 409.81 244.75 409.81 244C409.81 243.25 410.41 242.65 411.16 242.65C411.91 242.65 412.51 243.25 412.51 244C412.51 244.75 411.91 245.35 411.16 245.35Z" fill="#71869D"/>
<path d="M380.83 245.35C380.09 245.35 379.48 244.75 379.48 244C379.48 243.25 380.08 242.65 380.83 242.65C381.58 242.65 382.18 243.25 382.18 244C382.18 244.75 381.58 245.35 380.83 245.35Z" fill="#71869D"/>
<path d="M350.5 245.35C349.76 245.35 349.15 244.75 349.15 244C349.15 243.25 349.75 242.65 350.5 242.65C351.25 242.65 351.85 243.25 351.85 244C351.85 244.75 351.25 245.35 350.5 245.35Z" fill="#71869D"/>
<path d="M502.15 275.68C501.41 275.68 500.8 275.08 500.8 274.33C500.8 273.58 501.4 272.98 502.15 272.98C502.9 272.98 503.5 273.58 503.5 274.33C503.5 275.08 502.9 275.68 502.15 275.68Z" fill="#71869D"/>
<path d="M471.82 275.68C471.07 275.68 470.47 275.08 470.47 274.33C470.47 273.58 471.07 272.98 471.82 272.98C472.57 272.98 473.17 273.58 473.17 274.33C473.17 275.08 472.57 275.68 471.82 275.68Z" fill="#71869D"/>
<path d="M441.49 275.68C440.75 275.68 440.14 275.08 440.14 274.33C440.14 273.58 440.74 272.98 441.49 272.98C442.24 272.98 442.84 273.58 442.84 274.33C442.84 275.08 442.24 275.68 441.49 275.68Z" fill="#71869D"/>
<path d="M411.16 275.68C410.42 275.68 409.81 275.08 409.81 274.33C409.81 273.58 410.41 272.98 411.16 272.98C411.91 272.98 412.51 273.58 412.51 274.33C412.51 275.08 411.91 275.68 411.16 275.68Z" fill="#71869D"/>
<path d="M380.83 275.68C380.09 275.68 379.48 275.08 379.48 274.33C379.48 273.58 380.08 272.98 380.83 272.98C381.58 272.98 382.18 273.58 382.18 274.33C382.18 275.08 381.58 275.68 380.83 275.68Z" fill="#71869D"/>
<path d="M350.5 275.68C349.76 275.68 349.15 275.08 349.15 274.33C349.15 273.58 349.75 272.98 350.5 272.98C351.25 272.98 351.85 273.58 351.85 274.33C351.85 275.08 351.25 275.68 350.5 275.68Z" fill="#71869D"/>
<path d="M502.15 306.01C501.41 306.01 500.8 305.41 500.8 304.66C500.8 303.91 501.4 303.31 502.15 303.31C502.9 303.31 503.5 303.91 503.5 304.66C503.5 305.41 502.9 306.01 502.15 306.01Z" fill="#71869D"/>
<path d="M471.82 306.01C471.07 306.01 470.47 305.41 470.47 304.66C470.47 303.91 471.07 303.31 471.82 303.31C472.57 303.31 473.17 303.91 473.17 304.66C473.17 305.41 472.57 306.01 471.82 306.01Z" fill="#71869D"/>
<path d="M441.49 306.01C440.75 306.01 440.14 305.41 440.14 304.66C440.14 303.91 440.74 303.31 441.49 303.31C442.24 303.31 442.84 303.91 442.84 304.66C442.84 305.41 442.24 306.01 441.49 306.01Z" fill="#71869D"/>
<path d="M411.16 306.01C410.42 306.01 409.81 305.41 409.81 304.66C409.81 303.91 410.41 303.31 411.16 303.31C411.91 303.31 412.51 303.91 412.51 304.66C412.51 305.41 411.91 306.01 411.16 306.01Z" fill="#71869D"/>
<path d="M380.83 306.01C380.09 306.01 379.48 305.41 379.48 304.66C379.48 303.91 380.08 303.31 380.83 303.31C381.58 303.31 382.18 303.91 382.18 304.66C382.18 305.41 381.58 306.01 380.83 306.01Z" fill="#71869D"/>
<path d="M350.5 306.01C349.76 306.01 349.15 305.41 349.15 304.66C349.15 303.91 349.75 303.31 350.5 303.31C351.25 303.31 351.85 303.91 351.85 304.66C351.85 305.41 351.25 306.01 350.5 306.01Z" fill="#71869D"/>
<path d="M320.17 2.7C319.43 2.7 318.82 2.1 318.82 1.35C318.82 0.6 319.42 0 320.17 0C320.92 0 321.52 0.6 321.52 1.35C321.52 2.1 320.92 2.7 320.17 2.7Z" fill="#71869D"/>
<path d="M289.84 2.7C289.1 2.7 288.49 2.1 288.49 1.35C288.49 0.6 289.09 0 289.84 0C290.59 0 291.19 0.6 291.19 1.35C291.19 2.1 290.59 2.7 289.84 2.7Z" fill="#71869D"/>
<path d="M320.17 33.0301C319.43 33.0301 318.82 32.4301 318.82 31.6801C318.82 30.9301 319.42 30.3301 320.17 30.3301C320.92 30.3301 321.52 30.9301 321.52 31.6801C321.52 32.4301 320.92 33.0301 320.17 33.0301Z" fill="#71869D"/>
<path d="M289.84 33.0301C289.1 33.0301 288.49 32.4301 288.49 31.6801C288.49 30.9301 289.09 30.3301 289.84 30.3301C290.59 30.3301 291.19 30.9301 291.19 31.6801C291.19 32.4301 290.59 33.0301 289.84 33.0301Z" fill="#71869D"/>
<path d="M320.17 63.3602C319.43 63.3602 318.82 62.7602 318.82 62.0102C318.82 61.2602 319.42 60.6602 320.17 60.6602C320.92 60.6602 321.52 61.2602 321.52 62.0102C321.52 62.7602 320.92 63.3602 320.17 63.3602Z" fill="#71869D"/>
<path d="M289.84 63.3602C289.1 63.3602 288.49 62.7602 288.49 62.0102C288.49 61.2602 289.09 60.6602 289.84 60.6602C290.59 60.6602 291.19 61.2602 291.19 62.0102C291.19 62.7602 290.59 63.3602 289.84 63.3602Z" fill="#71869D"/>
<path d="M320.17 93.6902C319.43 93.6902 318.82 93.0902 318.82 92.3402C318.82 91.5902 319.42 90.9902 320.17 90.9902C320.92 90.9902 321.52 91.5902 321.52 92.3402C321.52 93.0902 320.92 93.6902 320.17 93.6902Z" fill="#71869D"/>
<path d="M289.84 93.6902C289.1 93.6902 288.49 93.0902 288.49 92.3402C288.49 91.5902 289.09 90.9902 289.84 90.9902C290.59 90.9902 291.19 91.5902 291.19 92.3402C291.19 93.0902 290.59 93.6902 289.84 93.6902Z" fill="#71869D"/>
<path d="M320.17 124.02C319.43 124.02 318.82 123.42 318.82 122.67C318.82 121.92 319.42 121.32 320.17 121.32C320.92 121.32 321.52 121.92 321.52 122.67C321.52 123.42 320.92 124.02 320.17 124.02Z" fill="#71869D"/>
<path d="M289.84 124.02C289.1 124.02 288.49 123.42 288.49 122.67C288.49 121.92 289.09 121.32 289.84 121.32C290.59 121.32 291.19 121.92 291.19 122.67C291.19 123.42 290.59 124.02 289.84 124.02Z" fill="#71869D"/>
<path d="M320.17 154.35C319.43 154.35 318.82 153.75 318.82 153C318.82 152.25 319.42 151.65 320.17 151.65C320.92 151.65 321.52 152.25 321.52 153C321.52 153.75 320.92 154.35 320.17 154.35Z" fill="#71869D"/>
<path d="M289.84 154.35C289.1 154.35 288.49 153.75 288.49 153C288.49 152.25 289.09 151.65 289.84 151.65C290.59 151.65 291.19 152.25 291.19 153C291.19 153.75 290.59 154.35 289.84 154.35Z" fill="#71869D"/>
<path d="M320.17 184.68C319.43 184.68 318.82 184.08 318.82 183.33C318.82 182.58 319.42 181.98 320.17 181.98C320.92 181.98 321.52 182.58 321.52 183.33C321.52 184.08 320.92 184.68 320.17 184.68Z" fill="#71869D"/>
<path d="M289.84 184.68C289.1 184.68 288.49 184.08 288.49 183.33C288.49 182.58 289.09 181.98 289.84 181.98C290.59 181.98 291.19 182.58 291.19 183.33C291.19 184.08 290.59 184.68 289.84 184.68Z" fill="#71869D"/>
<path d="M320.17 215.01C319.43 215.01 318.82 214.41 318.82 213.66C318.82 212.91 319.42 212.31 320.17 212.31C320.92 212.31 321.52 212.91 321.52 213.66C321.52 214.41 320.92 215.01 320.17 215.01Z" fill="#71869D"/>
<path d="M289.84 215.01C289.1 215.01 288.49 214.41 288.49 213.66C288.49 212.91 289.09 212.31 289.84 212.31C290.59 212.31 291.19 212.91 291.19 213.66C291.19 214.41 290.59 215.01 289.84 215.01Z" fill="#71869D"/>
<path d="M320.17 245.35C319.43 245.35 318.82 244.75 318.82 244C318.82 243.25 319.42 242.65 320.17 242.65C320.92 242.65 321.52 243.25 321.52 244C321.52 244.75 320.92 245.35 320.17 245.35Z" fill="#71869D"/>
<path d="M289.84 245.35C289.1 245.35 288.49 244.75 288.49 244C288.49 243.25 289.09 242.65 289.84 242.65C290.59 242.65 291.19 243.25 291.19 244C291.19 244.75 290.59 245.35 289.84 245.35Z" fill="#71869D"/>
<path d="M320.17 275.68C319.43 275.68 318.82 275.08 318.82 274.33C318.82 273.58 319.42 272.98 320.17 272.98C320.92 272.98 321.52 273.58 321.52 274.33C321.52 275.08 320.92 275.68 320.17 275.68Z" fill="#71869D"/>
<path d="M289.84 275.68C289.1 275.68 288.49 275.08 288.49 274.33C288.49 273.58 289.09 272.98 289.84 272.98C290.59 272.98 291.19 273.58 291.19 274.33C291.19 275.08 290.59 275.68 289.84 275.68Z" fill="#71869D"/>
<path d="M320.17 306.01C319.43 306.01 318.82 305.41 318.82 304.66C318.82 303.91 319.42 303.31 320.17 303.31C320.92 303.31 321.52 303.91 321.52 304.66C321.52 305.41 320.92 306.01 320.17 306.01Z" fill="#71869D"/>
<path d="M289.84 306.01C289.1 306.01 288.49 305.41 288.49 304.66C288.49 303.91 289.09 303.31 289.84 303.31C290.59 303.31 291.19 303.91 291.19 304.66C291.19 305.41 290.59 306.01 289.84 306.01Z" fill="#71869D"/>
<path d="M502.15 336.34C501.41 336.34 500.8 335.74 500.8 334.99C500.8 334.24 501.4 333.64 502.15 333.64C502.9 333.64 503.5 334.24 503.5 334.99C503.5 335.74 502.9 336.34 502.15 336.34Z" fill="#71869D"/>
<path d="M471.82 336.34C471.07 336.34 470.47 335.74 470.47 334.99C470.47 334.24 471.07 333.64 471.82 333.64C472.57 333.64 473.17 334.24 473.17 334.99C473.17 335.74 472.57 336.34 471.82 336.34Z" fill="#71869D"/>
<path d="M441.49 336.34C440.75 336.34 440.14 335.74 440.14 334.99C440.14 334.24 440.74 333.64 441.49 333.64C442.24 333.64 442.84 334.24 442.84 334.99C442.84 335.74 442.24 336.34 441.49 336.34Z" fill="#71869D"/>
<path d="M411.16 336.34C410.42 336.34 409.81 335.74 409.81 334.99C409.81 334.24 410.41 333.64 411.16 333.64C411.91 333.64 412.51 334.24 412.51 334.99C412.51 335.74 411.91 336.34 411.16 336.34Z" fill="#71869D"/>
<path d="M380.83 336.34C380.09 336.34 379.48 335.74 379.48 334.99C379.48 334.24 380.08 333.64 380.83 333.64C381.58 333.64 382.18 334.24 382.18 334.99C382.18 335.74 381.58 336.34 380.83 336.34Z" fill="#71869D"/>
<path d="M350.5 336.34C349.76 336.34 349.15 335.74 349.15 334.99C349.15 334.24 349.75 333.64 350.5 333.64C351.25 333.64 351.85 334.24 351.85 334.99C351.85 335.74 351.25 336.34 350.5 336.34Z" fill="#71869D"/>
<path d="M502.15 366.67C501.41 366.67 500.8 366.07 500.8 365.32C500.8 364.57 501.4 363.97 502.15 363.97C502.9 363.97 503.5 364.57 503.5 365.32C503.5 366.07 502.9 366.67 502.15 366.67Z" fill="#71869D"/>
<path d="M471.82 366.67C471.07 366.67 470.47 366.07 470.47 365.32C470.47 364.57 471.07 363.97 471.82 363.97C472.57 363.97 473.17 364.57 473.17 365.32C473.17 366.07 472.57 366.67 471.82 366.67Z" fill="#71869D"/>
<path d="M441.49 366.67C440.75 366.67 440.14 366.07 440.14 365.32C440.14 364.57 440.74 363.97 441.49 363.97C442.24 363.97 442.84 364.57 442.84 365.32C442.84 366.07 442.24 366.67 441.49 366.67Z" fill="#71869D"/>
<path d="M411.16 366.67C410.42 366.67 409.81 366.07 409.81 365.32C409.81 364.57 410.41 363.97 411.16 363.97C411.91 363.97 412.51 364.57 412.51 365.32C412.51 366.07 411.91 366.67 411.16 366.67Z" fill="#71869D"/>
<path d="M380.83 366.67C380.09 366.67 379.48 366.07 379.48 365.32C379.48 364.57 380.08 363.97 380.83 363.97C381.58 363.97 382.18 364.57 382.18 365.32C382.18 366.07 381.58 366.67 380.83 366.67Z" fill="#71869D"/>
<path d="M350.5 366.67C349.76 366.67 349.15 366.07 349.15 365.32C349.15 364.57 349.75 363.97 350.5 363.97C351.25 363.97 351.85 364.57 351.85 365.32C351.85 366.07 351.25 366.67 350.5 366.67Z" fill="#71869D"/>
<path d="M502.15 397C501.41 397 500.8 396.4 500.8 395.65C500.8 394.9 501.4 394.3 502.15 394.3C502.9 394.3 503.5 394.9 503.5 395.65C503.5 396.4 502.9 397 502.15 397Z" fill="#71869D"/>
<path d="M471.82 397C471.07 397 470.47 396.4 470.47 395.65C470.47 394.9 471.07 394.3 471.82 394.3C472.57 394.3 473.17 394.9 473.17 395.65C473.17 396.4 472.57 397 471.82 397Z" fill="#71869D"/>
<path d="M441.49 397C440.75 397 440.14 396.4 440.14 395.65C440.14 394.9 440.74 394.3 441.49 394.3C442.24 394.3 442.84 394.9 442.84 395.65C442.84 396.4 442.24 397 441.49 397Z" fill="#71869D"/>
<path d="M411.16 397C410.42 397 409.81 396.4 409.81 395.65C409.81 394.9 410.41 394.3 411.16 394.3C411.91 394.3 412.51 394.9 412.51 395.65C412.51 396.4 411.91 397 411.16 397Z" fill="#71869D"/>
<path d="M380.83 397C380.09 397 379.48 396.4 379.48 395.65C379.48 394.9 380.08 394.3 380.83 394.3C381.58 394.3 382.18 394.9 382.18 395.65C382.18 396.4 381.58 397 380.83 397Z" fill="#71869D"/>
<path d="M350.5 397C349.76 397 349.15 396.4 349.15 395.65C349.15 394.9 349.75 394.3 350.5 394.3C351.25 394.3 351.85 394.9 351.85 395.65C351.85 396.4 351.25 397 350.5 397Z" fill="#71869D"/>
<path d="M320.17 336.34C319.43 336.34 318.82 335.74 318.82 334.99C318.82 334.24 319.42 333.64 320.17 333.64C320.92 333.64 321.52 334.24 321.52 334.99C321.52 335.74 320.92 336.34 320.17 336.34Z" fill="#71869D"/>
<path d="M289.84 336.34C289.1 336.34 288.49 335.74 288.49 334.99C288.49 334.24 289.09 333.64 289.84 333.64C290.59 333.64 291.19 334.24 291.19 334.99C291.19 335.74 290.59 336.34 289.84 336.34Z" fill="#71869D"/>
<path d="M320.17 366.67C319.43 366.67 318.82 366.07 318.82 365.32C318.82 364.57 319.42 363.97 320.17 363.97C320.92 363.97 321.52 364.57 321.52 365.32C321.52 366.07 320.92 366.67 320.17 366.67Z" fill="#71869D"/>
<path d="M289.84 366.67C289.1 366.67 288.49 366.07 288.49 365.32C288.49 364.57 289.09 363.97 289.84 363.97C290.59 363.97 291.19 364.57 291.19 365.32C291.19 366.07 290.59 366.67 289.84 366.67Z" fill="#71869D"/>
<path d="M320.17 397C319.43 397 318.82 396.4 318.82 395.65C318.82 394.9 319.42 394.3 320.17 394.3C320.92 394.3 321.52 394.9 321.52 395.65C321.52 396.4 320.92 397 320.17 397Z" fill="#71869D"/>
<path d="M289.84 397C289.1 397 288.49 396.4 288.49 395.65C288.49 394.9 289.09 394.3 289.84 394.3C290.59 394.3 291.19 394.9 291.19 395.65C291.19 396.4 290.59 397 289.84 397Z" fill="#71869D"/>
</g>
<path d="M430.49 145.32L424.47 290.14L423.31 318.26L417.56 456.58C417.25 464.08 411.08 470 403.57 470H263.83C263.74 469.83 263.65 469.67 263.56 469.5C246.06 437.53 223.92 417.2 183.01 406.02C93.1701 381.47 180.57 323.55 189.14 315.64C178.81 324.74 38.6201 400.57 106.98 255.69C129.43 208.12 134.47 158.5 130.9 112.94C130.9 112.84 130.88 95.8399 130.87 81.9199L310.18 112.44L418.85 130.94C425.8 132.12 430.78 138.28 430.49 145.32Z" fill="#BCCCFF"/>
<path style="mix-blend-mode:color-dodge" d="M424.47 290.14L423.31 318.26C369.72 318.24 322.01 318.2 322.01 318.2C316.22 318.39 314.03 318.54 317.07 315.08C319.08 312.79 322.59 311.03 325.52 310.35C339.97 306.96 352.96 311.18 366.66 312.42C376.65 313.33 379.92 303.65 385 296.75C391.54 287.88 400.8 285 411.56 286.65C413.19 286.9 418.8 288.8 424.47 290.14Z" fill="url(#paint1_linear_103_1921)"/>
<path d="M411.36 163.84L155.46 228.68L202.33 255.33L411.36 163.84Z" fill="white"/>
<path d="M411.36 163.84L202.33 255.33L193.29 311.07L411.36 163.84Z" fill="#DDDDDD"/>
<path d="M220.05 278.109L193.29 311.069L232.53 299.609L220.05 278.109Z" fill="#C3C3C3"/>
<path style="mix-blend-mode:multiply" d="M220.05 278.109L216.52 304.289L232.53 299.609L220.05 278.109Z" fill="#BABABA"/>
<path d="M256.58 341.63L220.05 278.11L411.36 163.84L256.58 341.63Z" fill="white"/>
<path d="M246.32 281.9C244.71 283.4 244.36 286.2 245.53 288.16L258.18 309.42C259.34 311.37 261.64 311.86 263.33 310.48L275.99 300.14C277.8 298.66 278.3 295.78 277.07 293.72L267.1 276.96L260.76 282.65C259.9 283.42 258.72 283.23 258.12 282.22L253.78 274.93L246.32 281.91V281.9ZM255.31 273.49L259.67 280.81L265.99 275.09L255.31 273.48V273.49ZM258.96 292.06L262.46 293.48V288.99C262.47 288.04 263.12 287.25 263.9 287.22C264.69 287.19 265.34 287.93 265.33 288.88L265.3 294.63L269.85 296.47C270.6 296.78 270.98 297.74 270.69 298.63C270.4 299.52 269.57 299.99 268.83 299.68L265.28 298.23L265.26 302.65C265.26 303.57 264.62 304.32 263.84 304.33C263.06 304.34 262.43 303.6 262.44 302.69V297.07L258.01 295.26C257.29 294.96 256.91 294.02 257.17 293.14C257.43 292.26 258.23 291.78 258.96 292.08V292.06Z" fill="#4D648D"/>
<path style="mix-blend-mode:color-dodge" d="M386.32 416.47C387.59 415.01 383.59 412.57 378.77 412.68C372.19 412.83 372.19 396.74 360.44 402.9C357.38 404.49 351.38 401.4 349.15 399.34C349.01 399.21 348.87 399.07 348.73 398.93C345.09 395.08 344.29 389.85 341.5 385.53C337.8 379.79 331.63 378.13 325.19 377.11C298.4 372.88 294.64 389.4 294.17 398.06C293.92 402.63 278.79 397 276.42 396.63C269.29 395.53 263.16 397.44 258.82 403.32C255.45 407.89 253.29 414.3 246.67 413.7C237.59 412.88 228.99 410.08 219.41 412.32C217.47 412.77 215.15 413.94 213.81 415.46C211.8 417.75 213.25 417.65 217.09 417.52C217.09 417.52 380.36 417.65 381.58 417.52C384.38 417.227 385.96 416.877 386.32 416.47Z" fill="url(#paint2_linear_103_1921)"/>
<path style="mix-blend-mode:color-dodge" d="M314.94 154.96C316.15 153.57 312.34 151.24 307.75 151.35C301.49 151.49 301.49 136.18 290.3 142.04C287.39 143.56 281.67 140.61 279.56 138.65C279.42 138.52 279.29 138.39 279.16 138.25C275.7 134.58 274.93 129.61 272.28 125.49C268.76 120.03 262.88 118.45 256.75 117.48C231.25 113.45 227.67 129.17 227.22 137.42C226.98 141.77 212.58 136.41 210.32 136.06C203.53 135.02 197.69 136.83 193.57 142.43C190.37 146.78 188.31 152.88 182.01 152.31C173.37 151.53 165.18 148.86 156.06 151C154.22 151.43 152 152.54 150.73 153.99C148.82 156.17 150.2 156.07 153.85 155.96C153.85 155.96 309.24 156.08 310.41 155.96C313.077 155.68 314.58 155.347 314.92 154.96H314.94Z" fill="url(#paint3_linear_103_1921)"/>
<g filter="url(#filter1_d_103_1921)">
<path d="M46 163.5H40.5C40.5 155.906 46.6561 152.5 54.25 152.5H81.75C89.3438 152.5 95.5 155.906 95.5 163.5H90C90 158.944 86.3065 158 81.75 158H54.25C49.6937 158 46 158.944 46 163.5Z" fill="#70D4FF"/>
<path d="M95.5 141.5H40.5C38.9812 141.5 37.75 142.731 37.75 144.25V155.25C37.75 156.769 38.9812 158 40.5 158H95.5C97.0188 158 98.25 156.769 98.25 155.25V144.25C98.25 142.731 97.0188 141.5 95.5 141.5Z" fill="#7093FF"/>
<path fill-rule="evenodd" clip-rule="evenodd" d="M43.25 125C43.25 121.962 45.7124 119.5 48.75 119.5H87.25C90.2876 119.5 92.75 121.962 92.75 125V136C92.75 137.519 91.5188 138.75 90 138.75H87.25V136C87.25 134.481 86.0188 133.25 84.5 133.25H73.5C71.9812 133.25 70.75 134.481 70.75 136V138.75H65.25V136C65.25 134.481 64.0188 133.25 62.5 133.25H51.5C49.9812 133.25 48.75 134.481 48.75 136V138.75H46C44.4812 138.75 43.25 137.519 43.25 136V125Z" fill="#70D4FF"/>
</g>
<defs>
<filter id="filter0_d_103_1921" x="0" y="63.5869" width="430.502" height="414.413" filterUnits="userSpaceOnUse" color-interpolation-filters="sRGB">
<feFlood flood-opacity="0" result="BackgroundImageFix"/>
<feColorMatrix in="SourceAlpha" type="matrix" values="0 0 0 0 0 0 0 0 0 0 0 0 0 0 0 0 0 0 127 0" result="hardAlpha"/>
<feOffset dx="-4" dy="4"/>
<feGaussianBlur stdDeviation="2"/>
<feComposite in2="hardAlpha" operator="out"/>
<feColorMatrix type="matrix" values="0 0 0 0 0 0 0 0 0 0 0 0 0 0 0 0 0 0 0.1 0"/>
<feBlend mode="normal" in2="BackgroundImageFix" result="effect1_dropShadow_103_1921"/>
<feBlend mode="normal" in="SourceGraphic" in2="effect1_dropShadow_103_1921" result="shape"/>
</filter>
<filter id="filter1_d_103_1921" x="31.75" y="119.5" width="68.5" height="52" filterUnits="userSpaceOnUse" color-interpolation-filters="sRGB">
<feFlood flood-opacity="0" result="BackgroundImageFix"/>
<feColorMatrix in="SourceAlpha" type="matrix" values="0 0 0 0 0 0 0 0 0 0 0 0 0 0 0 0 0 0 127 0" result="hardAlpha"/>
<feOffset dx="-2" dy="4"/>
<feGaussianBlur stdDeviation="2"/>
<feComposite in2="hardAlpha" operator="out"/>
<feColorMatrix type="matrix" values="0 0 0 0 0 0 0 0 0 0 0 0 0 0 0 0 0 0 0.15 0"/>
<feBlend mode="normal" in2="BackgroundImageFix" result="effect1_dropShadow_103_1921"/>
<feBlend mode="normal" in="SourceGraphic" in2="effect1_dropShadow_103_1921" result="shape"/>
</filter>
<linearGradient id="paint0_linear_103_1921" x1="219.25" y1="63.5802" x2="219.25" y2="439.58" gradientUnits="userSpaceOnUse">
<stop stop-color="white"/>
<stop offset="1" stop-color="#FDFDFD"/>
</linearGradient>
<linearGradient id="paint1_linear_103_1921" x1="315.7" y1="302.24" x2="424.47" y2="302.24" gradientUnits="userSpaceOnUse">
<stop stop-color="#FF689C" stop-opacity="0"/>
<stop offset="0.16" stop-color="#FF688E" stop-opacity="0.18"/>
<stop offset="0.58" stop-color="#FF686D" stop-opacity="0.61"/>
<stop offset="0.87" stop-color="#FF6859" stop-opacity="0.89"/>
<stop offset="1" stop-color="#FF6851"/>
</linearGradient>
<linearGradient id="paint2_linear_103_1921" x1="386.56" y1="397" x2="212.92" y2="397" gradientUnits="userSpaceOnUse">
<stop stop-color="#FF6851"/>
<stop offset="0.13" stop-color="#FF6859" stop-opacity="0.89"/>
<stop offset="0.42" stop-color="#FF686D" stop-opacity="0.61"/>
<stop offset="0.84" stop-color="#FF688E" stop-opacity="0.18"/>
<stop offset="1" stop-color="#FF689C" stop-opacity="0"/>
</linearGradient>
<linearGradient id="paint3_linear_103_1921" x1="315.17" y1="136.43" x2="149.9" y2="136.43" gradientUnits="userSpaceOnUse">
<stop stop-color="#FF689C" stop-opacity="0"/>
<stop offset="0.16" stop-color="#FF688E" stop-opacity="0.18"/>
<stop offset="0.58" stop-color="#FF686D" stop-opacity="0.61"/>
<stop offset="0.87" stop-color="#FF6859" stop-opacity="0.89"/>
<stop offset="1" stop-color="#FF6851"/>
</linearGradient>
</defs>
</svg>
