<svg width="975" height="668" viewBox="0 0 975 668" fill="none" xmlns="http://www.w3.org/2000/svg">
<g filter="url(#filter0_d_168_487)">
<path d="M14.4995 50.4424C14.4995 30.5915 30.6001 14.4993 50.4612 14.4993H916.539C936.4 14.4993 952.5 30.5916 952.5 50.4424V609.558C952.5 629.409 936.4 645.501 916.539 645.501H50.4612C30.6001 645.501 14.4995 629.409 14.4995 609.558V50.4424Z" fill="url(#paint0_linear_168_487)"/>
</g>
<g filter="url(#filter1_d_168_487)">
<path fill-rule="evenodd" clip-rule="evenodd" d="M14 50.4423C14 30.3158 30.3242 14 50.4612 14H916.539C936.676 14 953 30.3158 953 50.4423V609.558C953 629.684 936.676 646 916.539 646H50.4612C30.3242 646 14 629.684 14 609.558V50.4423ZM50.4612 14.9984C30.8759 14.9984 14.9989 30.8672 14.9989 50.4423V609.558C14.9989 629.133 30.8759 645.002 50.4612 645.002H916.539C936.124 645.002 952.001 629.133 952.001 609.558V50.4423C952.001 30.8672 936.124 14.9984 916.539 14.9984H50.4612Z" fill="url(#paint1_linear_168_487)"/>
</g>
<path opacity="0.3" d="M46.4655 72.4076C46.4655 56.968 58.9881 44.4518 74.4357 44.4518H887.57C903.017 44.4518 915.54 56.9681 915.54 72.4076V582.6C915.54 598.04 903.017 610.556 887.57 610.556H74.4356C58.9881 610.556 46.4655 598.04 46.4655 582.6V72.4076Z" fill="url(#paint2_linear_168_487)"/>
<path d="M915.54 72.7678C915.54 57.3283 903.017 44.8121 887.57 44.8121H74.4357C58.9881 44.8121 46.4655 57.3283 46.4655 72.7678V89.5962H915.54V72.7678Z" fill="#4D648D"/>
<path d="M638.295 54.8206C638.295 53.4152 639.489 52.276 640.963 52.276H804.588C806.061 52.276 807.256 53.4152 807.256 54.8206V77.7215C807.256 79.1268 806.061 80.2661 804.588 80.2661H640.963C639.489 80.2661 638.295 79.1268 638.295 77.7215V54.8206Z" fill="white"/>
<mask id="mask0_168_487" style="mask-type:alpha" maskUnits="userSpaceOnUse" x="786" y="59" width="14" height="15">
<path d="M799.594 71.3709L796.967 68.7452C796.848 68.6267 796.687 68.5609 796.519 68.5609H796.089C796.816 67.6313 797.249 66.462 797.249 65.19C797.249 62.1641 794.795 59.7123 791.767 59.7123C788.739 59.7123 786.286 62.1641 786.286 65.19C786.286 68.2159 788.739 70.6677 791.767 70.6677C793.04 70.6677 794.21 70.2358 795.14 69.509V69.9382C795.14 70.1068 795.206 70.2674 795.325 70.3859L797.952 73.0115C798.2 73.2591 798.601 73.2591 798.846 73.0115L799.591 72.2663C799.839 72.0187 799.839 71.6184 799.594 71.3709ZM791.767 68.5609C789.904 68.5609 788.394 67.0545 788.394 65.19C788.394 63.3281 789.901 61.8191 791.767 61.8191C793.63 61.8191 795.14 63.3255 795.14 65.19C795.14 67.0519 793.633 68.5609 791.767 68.5609Z" fill="white"/>
</mask>
<g mask="url(#mask0_168_487)">
<path d="M799.594 71.3709L796.967 68.7452C796.848 68.6267 796.687 68.5609 796.519 68.5609H796.089C796.816 67.6313 797.249 66.462 797.249 65.19C797.249 62.1641 794.795 59.7123 791.767 59.7123C788.739 59.7123 786.286 62.1641 786.286 65.19C786.286 68.2159 788.739 70.6677 791.767 70.6677C793.04 70.6677 794.21 70.2358 795.14 69.509V69.9382C795.14 70.1068 795.206 70.2674 795.325 70.3859L797.952 73.0115C798.2 73.2591 798.601 73.2591 798.846 73.0115L799.591 72.2663C799.839 72.0187 799.839 71.6184 799.594 71.3709ZM791.767 68.5609C789.904 68.5609 788.394 67.0545 788.394 65.19C788.394 63.3281 789.901 61.8191 791.767 61.8191C793.63 61.8191 795.14 63.3255 795.14 65.19C795.14 67.0519 793.633 68.5609 791.767 68.5609Z" fill="black"/>
<path d="M799.778 59.7123H786.286V73.1972H799.778V59.7123Z" fill="#4D648D"/>
</g>
<path fill-rule="evenodd" clip-rule="evenodd" d="M80.7922 63.213L76.8341 74.4775C76.3586 75.8309 74.9139 76.5287 73.6073 76.0361C72.3008 75.5435 71.6271 74.047 72.1026 72.6936L76.0607 61.4291C76.5363 60.0757 77.981 59.3779 79.2875 59.8705C80.5941 60.3631 81.2678 61.8596 80.7922 63.213Z" fill="white"/>
<path fill-rule="evenodd" clip-rule="evenodd" d="M91.2739 60.389L86.2145 74.3927C85.7014 75.8129 84.1426 76.5452 82.7328 76.0283C81.3231 75.5114 80.5962 73.941 81.1093 72.5208L86.1687 58.5171C86.6819 57.0969 88.2406 56.3647 89.6504 56.8816C91.0601 57.3985 91.787 58.9688 91.2739 60.389Z" fill="white"/>
<path fill-rule="evenodd" clip-rule="evenodd" d="M101.756 58.8213L95.5917 74.4268C95.0413 75.8202 93.3694 76.5386 91.8573 76.0314C90.3452 75.5243 89.5655 73.9836 90.1159 72.5903L96.2799 56.9848C96.8303 55.5915 98.5022 54.873 100.014 55.3802C101.526 55.8873 102.306 57.428 101.756 58.8213Z" fill="white"/>
<path d="M116.23 71.6991V61.2108H115.195L112.12 68.6498L108.963 61.2108H107.928V71.6991H108.963V63.7298L111.657 70.0492H112.542L115.195 63.7298V71.6991H116.23Z" fill="white"/>
<path d="M128.456 71.6991V70.6974H123.475V66.9116H127.721V65.9099H123.475V62.2125H128.456V61.2108H122.441V71.6991H128.456Z" fill="white"/>
<path d="M140.725 66.455C140.725 64.8493 140.725 63.3173 139.868 62.3156C139.214 61.5496 138.412 61.2108 137.323 61.2108H134.002V71.6991H137.323C138.412 71.6991 139.214 71.3603 139.868 70.5943C140.725 69.5926 140.725 68.0606 140.725 66.455ZM139.691 66.455C139.691 67.9133 139.677 69.2096 139.051 69.9314C138.561 70.5206 137.881 70.6974 137.146 70.6974H135.037V62.2125H137.146C137.881 62.2125 138.561 62.3893 139.051 62.9785C139.677 63.7003 139.691 64.9966 139.691 66.455Z" fill="white"/>
<path d="M147.595 71.6991V61.2108H146.561V71.6991H147.595Z" fill="white"/>
<path d="M160.962 71.6991V61.2108H159.928V69.5926L154.784 61.2108H153.804V71.6991H154.838V63.2878L159.982 71.6991H160.962Z" fill="white"/>
<path d="M173.188 71.6991V70.6974H168.207V66.9116H172.453V65.9099H168.207V62.2125H173.188V61.2108H167.173V71.6991H173.188Z" fill="white"/>
<path d="M184.382 62.2125V61.2108H177.742V62.2125H180.545V71.6991H181.579V62.2125H184.382Z" fill="white"/>
<path d="M844.03 71.9555C843.265 71.1232 841.834 69.8712 841.834 65.77C841.834 62.655 839.677 60.1614 836.769 59.5496V58.7142C836.769 58.0058 836.202 57.4313 835.503 57.4313C834.804 57.4313 834.237 58.0058 834.237 58.7142V59.5496C831.328 60.1614 829.171 62.655 829.171 65.77C829.171 69.8712 827.74 71.1232 826.975 71.9555C826.738 72.214 826.633 72.5231 826.635 72.8258C826.639 73.4833 827.148 74.1087 827.905 74.1087H843.1C843.857 74.1087 844.367 73.4833 844.371 72.8258C844.373 72.5231 844.267 72.2136 844.03 71.9555ZM829.308 72.1844C830.148 71.0631 831.067 69.2045 831.071 65.7932C831.071 65.7852 831.069 65.778 831.069 65.77C831.069 63.29 833.054 61.2799 835.503 61.2799C837.952 61.2799 839.937 63.29 839.937 65.77C839.937 65.778 839.934 65.7852 839.934 65.7932C839.939 69.2049 840.857 71.0635 841.697 72.1844H829.308ZM835.503 77.9573C836.901 77.9573 838.035 76.8088 838.035 75.3916H832.97C832.97 76.8088 834.104 77.9573 835.503 77.9573Z" fill="white"/>
<g clip-path="url(#clip0_168_487)">
<path d="M879.693 70.0616C878.557 70.0616 878.011 70.703 876.146 70.703C874.281 70.703 873.739 70.0616 872.599 70.0616C869.661 70.0616 867.278 72.475 867.278 75.4496V76.476C867.278 77.5383 868.129 78.4003 869.178 78.4003H883.114C884.163 78.4003 885.014 77.5383 885.014 76.476V75.4496C885.014 72.475 882.631 70.0616 879.693 70.0616ZM883.114 76.476H869.178V75.4496C869.178 73.5414 870.714 71.9859 872.599 71.9859C873.177 71.9859 874.115 72.6273 876.146 72.6273C878.193 72.6273 879.111 71.9859 879.693 71.9859C881.578 71.9859 883.114 73.5414 883.114 75.4496V76.476ZM876.146 69.4201C879.293 69.4201 881.847 66.8343 881.847 63.6472C881.847 60.46 879.293 57.8742 876.146 57.8742C872.999 57.8742 870.445 60.46 870.445 63.6472C870.445 66.8343 872.999 69.4201 876.146 69.4201ZM876.146 59.7985C878.24 59.7985 879.947 61.5264 879.947 63.6472C879.947 65.7679 878.24 67.4958 876.146 67.4958C874.052 67.4958 872.345 65.7679 872.345 63.6472C872.345 61.5264 874.052 59.7985 876.146 59.7985Z" fill="white"/>
</g>
<path d="M207.958 68.1371C207.958 65.0454 210.466 62.5391 213.559 62.5391H263.034C266.127 62.5391 268.635 65.0454 268.635 68.1371C268.635 71.2288 266.127 73.7352 263.034 73.7352H213.559C210.466 73.7352 207.958 71.2288 207.958 68.1371Z" fill="#8292AF"/>
<path d="M296.639 68.1371C296.639 65.0454 299.147 62.5391 302.24 62.5391H351.715C354.808 62.5391 357.316 65.0454 357.316 68.1371C357.316 71.2288 354.808 73.7352 351.715 73.7352H302.24C299.147 73.7352 296.639 71.2288 296.639 68.1371Z" fill="#70CCFF"/>
<path d="M380.653 68.1371C380.653 65.0454 383.161 62.5391 386.254 62.5391H435.729C438.822 62.5391 441.33 65.0454 441.33 68.1371C441.33 71.2288 438.822 73.7352 435.729 73.7352H386.254C383.161 73.7352 380.653 71.2288 380.653 68.1371Z" fill="white" fill-opacity="0.3"/>
<path d="M466.534 68.1371C466.534 65.0454 469.041 62.5391 472.134 62.5391H521.609C524.702 62.5391 527.21 65.0454 527.21 68.1371C527.21 71.2288 524.702 73.7352 521.609 73.7352H472.134C469.041 73.7352 466.534 71.2288 466.534 68.1371Z" fill="white" fill-opacity="0.3"/>
<path d="M556.148 68.1371C556.148 65.0454 558.656 62.5391 561.749 62.5391H611.224C614.317 62.5391 616.825 65.0454 616.825 68.1371C616.825 71.2288 614.317 73.7352 611.224 73.7352H561.749C558.656 73.7352 556.148 71.2288 556.148 68.1371Z" fill="white" fill-opacity="0.3"/>
<path d="M70.4399 202.795C70.4399 201.84 71.2144 201.066 72.1699 201.066H201.346C202.301 201.066 203.076 201.84 203.076 202.795V535.942C203.076 536.897 202.301 537.671 201.346 537.671H72.1699C71.2144 537.671 70.4399 536.897 70.4399 535.942V202.795Z" fill="white"/>
<path fill-rule="evenodd" clip-rule="evenodd" d="M201.346 201.642H72.1699C71.5329 201.642 71.0166 202.158 71.0166 202.795V535.942C71.0166 536.579 71.5329 537.095 72.1699 537.095H201.346C201.983 537.095 202.499 536.579 202.499 535.942V202.795C202.499 202.158 201.983 201.642 201.346 201.642ZM72.1699 201.066C71.2144 201.066 70.4399 201.84 70.4399 202.795V535.942C70.4399 536.897 71.2144 537.671 72.1699 537.671H201.346C202.301 537.671 203.076 536.897 203.076 535.942V202.795C203.076 201.84 202.301 201.066 201.346 201.066H72.1699Z" fill="#B8CDEB"/>
<path d="M208.842 202.795C208.842 201.84 209.617 201.066 210.572 201.066H659.804C660.759 201.066 661.534 201.84 661.534 202.795V535.942C661.534 536.897 660.759 537.671 659.804 537.671H210.572C209.617 537.671 208.842 536.897 208.842 535.942V202.795Z" fill="white"/>
<path fill-rule="evenodd" clip-rule="evenodd" d="M659.804 201.642H210.572C209.935 201.642 209.419 202.158 209.419 202.795V535.942C209.419 536.579 209.935 537.095 210.572 537.095H659.804C660.441 537.095 660.957 536.579 660.957 535.942V202.795C660.957 202.158 660.441 201.642 659.804 201.642ZM210.572 201.066C209.617 201.066 208.842 201.84 208.842 202.795V535.942C208.842 536.897 209.617 537.671 210.572 537.671H659.804C660.759 537.671 661.534 536.897 661.534 535.942V202.795C661.534 201.84 660.759 201.066 659.804 201.066H210.572Z" fill="#B8CDEB"/>
<path d="M668.454 202.795C668.454 201.84 669.229 201.066 670.184 201.066H885.285C886.24 201.066 887.015 201.84 887.015 202.795V535.942C887.015 536.897 886.24 537.671 885.285 537.671H670.184C669.229 537.671 668.454 536.897 668.454 535.942V202.795Z" fill="white"/>
<path fill-rule="evenodd" clip-rule="evenodd" d="M885.285 201.642H670.184C669.547 201.642 669.031 202.158 669.031 202.795V535.942C669.031 536.579 669.547 537.095 670.184 537.095H885.285C885.922 537.095 886.438 536.579 886.438 535.942V202.795C886.438 202.158 885.922 201.642 885.285 201.642ZM670.184 201.066C669.229 201.066 668.454 201.84 668.454 202.795V535.942C668.454 536.897 669.229 537.671 670.184 537.671H885.285C886.24 537.671 887.015 536.897 887.015 535.942V202.795C887.015 201.84 886.24 201.066 885.285 201.066H670.184Z" fill="#B8CDEB"/>
<path d="M81.9738 224.697C81.9738 221.196 84.8139 218.357 88.3173 218.357H169.052C172.555 218.357 175.396 221.196 175.396 224.697C175.396 228.199 172.555 231.038 169.052 231.038H88.3173C84.8139 231.038 81.9738 228.199 81.9738 224.697Z" fill="white"/>
<path d="M81.9738 224.697C81.9738 221.196 84.8139 218.357 88.3173 218.357H169.052C172.555 218.357 175.396 221.196 175.396 224.697C175.396 228.199 172.555 231.038 169.052 231.038H88.3173C84.8139 231.038 81.9738 228.199 81.9738 224.697Z" fill="white"/>
<path d="M81.9738 224.697C81.9738 221.196 84.8139 218.357 88.3173 218.357H169.052C172.555 218.357 175.396 221.196 175.396 224.697C175.396 228.199 172.555 231.038 169.052 231.038H88.3173C84.8139 231.038 81.9738 228.199 81.9738 224.697Z" fill="#E2E9FF"/>
<path d="M81.9738 246.024C81.9738 242.522 84.8139 239.683 88.3173 239.683H150.598C154.102 239.683 156.942 242.522 156.942 246.024C156.942 249.525 154.102 252.364 150.598 252.364H88.3173C84.8139 252.364 81.9738 249.525 81.9738 246.024Z" fill="white"/>
<path d="M81.9738 246.024C81.9738 242.522 84.8139 239.683 88.3173 239.683H150.598C154.102 239.683 156.942 242.522 156.942 246.024C156.942 249.525 154.102 252.364 150.598 252.364H88.3173C84.8139 252.364 81.9738 249.525 81.9738 246.024Z" fill="white"/>
<path d="M81.9738 246.024C81.9738 242.522 84.8139 239.683 88.3173 239.683H150.598C154.102 239.683 156.942 242.522 156.942 246.024C156.942 249.525 154.102 252.364 150.598 252.364H88.3173C84.8139 252.364 81.9738 249.525 81.9738 246.024Z" fill="#E2E9FF"/>
<path d="M81.9738 266.773C81.9738 263.272 84.8139 260.433 88.3173 260.433H169.052C172.555 260.433 175.396 263.272 175.396 266.773C175.396 270.275 172.555 273.113 169.052 273.113H88.3173C84.8139 273.113 81.9738 270.275 81.9738 266.773Z" fill="white"/>
<path d="M81.9738 266.773C81.9738 263.272 84.8139 260.433 88.3173 260.433H169.052C172.555 260.433 175.396 263.272 175.396 266.773C175.396 270.275 172.555 273.113 169.052 273.113H88.3173C84.8139 273.113 81.9738 270.275 81.9738 266.773Z" fill="white"/>
<path d="M81.9738 266.773C81.9738 263.272 84.8139 260.433 88.3173 260.433H169.052C172.555 260.433 175.396 263.272 175.396 266.773C175.396 270.275 172.555 273.113 169.052 273.113H88.3173C84.8139 273.113 81.9738 270.275 81.9738 266.773Z" fill="#E2E9FF"/>
<path d="M81.9738 288.099C81.9738 284.598 84.8139 281.759 88.3173 281.759H150.598C154.102 281.759 156.942 284.598 156.942 288.099C156.942 291.601 154.102 294.44 150.598 294.44H88.3173C84.8139 294.44 81.9738 291.601 81.9738 288.099Z" fill="white"/>
<path d="M81.9738 288.099C81.9738 284.598 84.8139 281.759 88.3173 281.759H150.598C154.102 281.759 156.942 284.598 156.942 288.099C156.942 291.601 154.102 294.44 150.598 294.44H88.3173C84.8139 294.44 81.9738 291.601 81.9738 288.099Z" fill="white"/>
<path d="M81.9738 288.099C81.9738 284.598 84.8139 281.759 88.3173 281.759H150.598C154.102 281.759 156.942 284.598 156.942 288.099C156.942 291.601 154.102 294.44 150.598 294.44H88.3173C84.8139 294.44 81.9738 291.601 81.9738 288.099Z" fill="#E2E9FF"/>
<path d="M81.9738 443.721C81.9738 440.22 84.8139 437.381 88.3173 437.381H169.052C172.555 437.381 175.396 440.22 175.396 443.721C175.396 447.223 172.555 450.061 169.052 450.061H88.3173C84.8139 450.061 81.9738 447.223 81.9738 443.721Z" fill="white"/>
<path d="M81.9738 443.721C81.9738 440.22 84.8139 437.381 88.3173 437.381H169.052C172.555 437.381 175.396 440.22 175.396 443.721C175.396 447.223 172.555 450.061 169.052 450.061H88.3173C84.8139 450.061 81.9738 447.223 81.9738 443.721Z" fill="white"/>
<path d="M81.9738 443.721C81.9738 440.22 84.8139 437.381 88.3173 437.381H169.052C172.555 437.381 175.396 440.22 175.396 443.721C175.396 447.223 172.555 450.061 169.052 450.061H88.3173C84.8139 450.061 81.9738 447.223 81.9738 443.721Z" fill="#E2E9FF"/>
<path d="M81.9738 465.047C81.9738 461.546 84.8139 458.707 88.3173 458.707H150.598C154.102 458.707 156.942 461.546 156.942 465.047C156.942 468.549 154.102 471.388 150.598 471.388H88.3173C84.8139 471.388 81.9738 468.549 81.9738 465.047Z" fill="white"/>
<path d="M81.9738 465.047C81.9738 461.546 84.8139 458.707 88.3173 458.707H150.598C154.102 458.707 156.942 461.546 156.942 465.047C156.942 468.549 154.102 471.388 150.598 471.388H88.3173C84.8139 471.388 81.9738 468.549 81.9738 465.047Z" fill="white"/>
<path d="M81.9738 465.047C81.9738 461.546 84.8139 458.707 88.3173 458.707H150.598C154.102 458.707 156.942 461.546 156.942 465.047C156.942 468.549 154.102 471.388 150.598 471.388H88.3173C84.8139 471.388 81.9738 468.549 81.9738 465.047Z" fill="#E2E9FF"/>
<path d="M81.9738 485.797C81.9738 482.296 84.8139 479.457 88.3173 479.457H169.052C172.555 479.457 175.396 482.296 175.396 485.797C175.396 489.299 172.555 492.137 169.052 492.137H88.3173C84.8139 492.137 81.9738 489.299 81.9738 485.797Z" fill="white"/>
<path d="M81.9738 485.797C81.9738 482.296 84.8139 479.457 88.3173 479.457H169.052C172.555 479.457 175.396 482.296 175.396 485.797C175.396 489.299 172.555 492.137 169.052 492.137H88.3173C84.8139 492.137 81.9738 489.299 81.9738 485.797Z" fill="white"/>
<path d="M81.9738 485.797C81.9738 482.296 84.8139 479.457 88.3173 479.457H169.052C172.555 479.457 175.396 482.296 175.396 485.797C175.396 489.299 172.555 492.137 169.052 492.137H88.3173C84.8139 492.137 81.9738 489.299 81.9738 485.797Z" fill="#E2E9FF"/>
<path d="M81.9738 507.123C81.9738 503.622 84.8139 500.783 88.3173 500.783H150.598C154.102 500.783 156.942 503.622 156.942 507.123C156.942 510.625 154.102 513.463 150.598 513.463H88.3173C84.8139 513.463 81.9738 510.625 81.9738 507.123Z" fill="white"/>
<path d="M81.9738 507.123C81.9738 503.622 84.8139 500.783 88.3173 500.783H150.598C154.102 500.783 156.942 503.622 156.942 507.123C156.942 510.625 154.102 513.463 150.598 513.463H88.3173C84.8139 513.463 81.9738 510.625 81.9738 507.123Z" fill="white"/>
<path d="M81.9738 507.123C81.9738 503.622 84.8139 500.783 88.3173 500.783H150.598C154.102 500.783 156.942 503.622 156.942 507.123C156.942 510.625 154.102 513.463 150.598 513.463H88.3173C84.8139 513.463 81.9738 510.625 81.9738 507.123Z" fill="#E2E9FF"/>
<path d="M218.646 223.545C218.646 220.043 221.486 217.205 224.99 217.205H287.271C290.774 217.205 293.614 220.043 293.614 223.545C293.614 227.046 290.774 229.885 287.271 229.885H224.99C221.486 229.885 218.646 227.046 218.646 223.545Z" fill="white"/>
<path d="M218.646 223.545C218.646 220.043 221.486 217.205 224.99 217.205H287.271C290.774 217.205 293.614 220.043 293.614 223.545C293.614 227.046 290.774 229.885 287.271 229.885H224.99C221.486 229.885 218.646 227.046 218.646 223.545Z" fill="white"/>
<path d="M218.646 223.545C218.646 220.043 221.486 217.205 224.99 217.205H287.271C290.774 217.205 293.614 220.043 293.614 223.545C293.614 227.046 290.774 229.885 287.271 229.885H224.99C221.486 229.885 218.646 227.046 218.646 223.545Z" fill="#E2E9FF"/>
<path d="M218.646 223.545C218.646 220.043 221.486 217.205 224.99 217.205H287.271C290.774 217.205 293.614 220.043 293.614 223.545C293.614 227.046 290.774 229.885 287.271 229.885H224.99C221.486 229.885 218.646 227.046 218.646 223.545Z" fill="white"/>
<path d="M218.646 223.545C218.646 220.043 221.486 217.205 224.99 217.205H287.271C290.774 217.205 293.614 220.043 293.614 223.545C293.614 227.046 290.774 229.885 287.271 229.885H224.99C221.486 229.885 218.646 227.046 218.646 223.545Z" fill="white"/>
<path d="M218.646 223.545C218.646 220.043 221.486 217.205 224.99 217.205H287.271C290.774 217.205 293.614 220.043 293.614 223.545C293.614 227.046 290.774 229.885 287.271 229.885H224.99C221.486 229.885 218.646 227.046 218.646 223.545Z" fill="#E2E9FF"/>
<path d="M218.646 332.48C218.646 328.978 221.486 326.14 224.99 326.14H287.271C290.774 326.14 293.614 328.978 293.614 332.48C293.614 335.982 290.774 338.82 287.271 338.82H224.99C221.486 338.82 218.646 335.982 218.646 332.48Z" fill="white"/>
<path d="M218.646 332.48C218.646 328.978 221.486 326.14 224.99 326.14H287.271C290.774 326.14 293.614 328.978 293.614 332.48C293.614 335.982 290.774 338.82 287.271 338.82H224.99C221.486 338.82 218.646 335.982 218.646 332.48Z" fill="white"/>
<path d="M218.646 332.48C218.646 328.978 221.486 326.14 224.99 326.14H287.271C290.774 326.14 293.614 328.978 293.614 332.48C293.614 335.982 290.774 338.82 287.271 338.82H224.99C221.486 338.82 218.646 335.982 218.646 332.48Z" fill="#E2E9FF"/>
<g filter="url(#filter2_d_168_487)">
<path d="M645.964 237.378H219.799C219.162 237.378 218.646 237.894 218.646 238.531V318.647C218.646 319.284 219.162 319.8 219.799 319.8H645.964C646.601 319.8 647.117 319.284 647.117 318.647V238.531C647.117 237.894 646.601 237.378 645.964 237.378Z" fill="black"/>
</g>
<path d="M645.676 237.666H220.088C219.451 237.666 218.935 238.182 218.935 238.819V318.359C218.935 318.996 219.451 319.512 220.088 319.512H645.676C646.313 319.512 646.829 318.996 646.829 318.359V238.819C646.829 238.182 646.313 237.666 645.676 237.666Z" fill="white"/>
<path fill-rule="evenodd" clip-rule="evenodd" d="M220.088 237.954C219.61 237.954 219.223 238.341 219.223 238.819V318.359C219.223 318.837 219.61 319.224 220.088 319.224H645.676C646.153 319.224 646.541 318.837 646.541 318.359V238.819C646.541 238.341 646.153 237.954 645.676 237.954H220.088ZM218.646 238.819C218.646 238.023 219.292 237.378 220.088 237.378H645.676C646.472 237.378 647.117 238.023 647.117 238.819V318.359C647.117 319.155 646.472 319.8 645.676 319.8H220.088C219.292 319.8 218.646 319.155 218.646 318.359V238.819Z" fill="#B8CDEB"/>
<g filter="url(#filter3_d_168_487)">
<path d="M645.964 344.008H219.799C219.162 344.008 218.646 344.524 218.646 345.161V369.945C218.646 370.582 219.162 371.098 219.799 371.098H645.964C646.601 371.098 647.117 370.582 647.117 369.945V345.161C647.117 344.524 646.601 344.008 645.964 344.008Z" fill="black"/>
</g>
<path d="M645.676 344.296H220.088C219.451 344.296 218.935 344.812 218.935 345.449V369.657C218.935 370.293 219.451 370.81 220.088 370.81H645.676C646.313 370.81 646.829 370.293 646.829 369.657V345.449C646.829 344.812 646.313 344.296 645.676 344.296Z" fill="white"/>
<path fill-rule="evenodd" clip-rule="evenodd" d="M220.088 344.584C219.61 344.584 219.223 344.971 219.223 345.449V369.657C219.223 370.134 219.61 370.521 220.088 370.521H645.676C646.153 370.521 646.541 370.134 646.541 369.657V345.449C646.541 344.971 646.153 344.584 645.676 344.584H220.088ZM218.646 345.449C218.646 344.653 219.292 344.008 220.088 344.008H645.676C646.472 344.008 647.117 344.653 647.117 345.449V369.657C647.117 370.453 646.472 371.098 645.676 371.098H220.088C219.292 371.098 218.646 370.453 218.646 369.657V345.449Z" fill="#B8CDEB"/>
<g filter="url(#filter4_d_168_487)">
<path d="M209.996 172.823H660.381C661.018 172.823 661.534 173.339 661.534 173.976V201.642H208.842V173.976C208.842 173.339 209.359 172.823 209.996 172.823Z" fill="black"/>
</g>
<path fill-rule="evenodd" clip-rule="evenodd" d="M209.131 201.354H661.246V173.976C661.246 173.498 660.858 173.111 660.381 173.111H209.996C209.518 173.111 209.131 173.498 209.131 173.976V201.354Z" fill="url(#paint3_linear_168_487)"/>
<path fill-rule="evenodd" clip-rule="evenodd" d="M208.842 173.976C208.842 173.339 209.359 172.823 209.996 172.823H660.381C661.018 172.823 661.534 173.339 661.534 173.976V201.642H208.842V173.976ZM209.996 173.399C209.677 173.399 209.419 173.657 209.419 173.976V201.065H660.957V173.976C660.957 173.657 660.699 173.399 660.381 173.399H209.996Z" fill="#7091F5"/>
<g filter="url(#filter5_d_168_487)">
<path d="M651.731 176.858H576.762C576.126 176.858 575.609 177.374 575.609 178.011V196.455C575.609 197.091 576.126 197.608 576.762 197.608H651.731C652.368 197.608 652.884 197.091 652.884 196.455V178.011C652.884 177.374 652.368 176.858 651.731 176.858Z" fill="black"/>
</g>
<path d="M651.731 176.858H576.762C576.126 176.858 575.609 177.374 575.609 178.011V196.455C575.609 197.091 576.126 197.608 576.762 197.608H651.731C652.368 197.608 652.884 197.091 652.884 196.455V178.011C652.884 177.374 652.368 176.858 651.731 176.858Z" fill="#243E6D"/>
<path fill-rule="evenodd" clip-rule="evenodd" d="M576.762 177.146C576.285 177.146 575.897 177.533 575.897 178.011V196.455C575.897 196.932 576.285 197.319 576.762 197.319H651.73C652.208 197.319 652.595 196.932 652.595 196.455V178.011C652.595 177.533 652.208 177.146 651.73 177.146H576.762ZM575.321 178.011C575.321 177.215 575.966 176.57 576.762 176.57H651.73C652.527 176.57 653.172 177.215 653.172 178.011V196.455C653.172 197.251 652.527 197.896 651.73 197.896H576.762C575.966 197.896 575.321 197.251 575.321 196.455V178.011Z" fill="#233D6C"/>
<g filter="url(#filter6_d_168_487)">
<path d="M669.031 172.823H885.862C886.499 172.823 887.015 173.339 887.015 173.976V201.642H667.878V173.976C667.878 173.339 668.394 172.823 669.031 172.823Z" fill="black"/>
</g>
<path fill-rule="evenodd" clip-rule="evenodd" d="M668.166 201.354H886.727V173.976C886.727 173.498 886.34 173.111 885.862 173.111H669.031C668.554 173.111 668.166 173.498 668.166 173.976V201.354Z" fill="url(#paint4_linear_168_487)"/>
<path fill-rule="evenodd" clip-rule="evenodd" d="M667.878 173.976C667.878 173.339 668.394 172.823 669.031 172.823H885.862C886.499 172.823 887.015 173.339 887.015 173.976V201.642H667.878V173.976ZM669.031 173.399C668.713 173.399 668.454 173.657 668.454 173.976V201.065H886.438V173.976C886.438 173.657 886.18 173.399 885.862 173.399H669.031Z" fill="#7091F5"/>
<path d="M703.519 188.991H702.758V186.339H699.865V188.991H699.108V183.254H699.865V185.72H702.758V183.254H703.519V188.991Z" fill="white"/>
<path d="M705.675 188.991H704.918V183.254H705.675V188.991Z" fill="white"/>
<path d="M708.754 186.433C708.105 186.247 707.632 186.018 707.335 185.748C707.041 185.475 706.893 185.138 706.893 184.739C706.893 184.287 707.073 183.914 707.433 183.62C707.796 183.323 708.267 183.175 708.845 183.175C709.239 183.175 709.59 183.251 709.897 183.404C710.207 183.556 710.447 183.766 710.615 184.034C710.786 184.302 710.871 184.595 710.871 184.913H710.11C710.11 184.566 710 184.294 709.779 184.097C709.558 183.897 709.247 183.798 708.845 183.798C708.472 183.798 708.18 183.88 707.97 184.046C707.762 184.209 707.658 184.436 707.658 184.727C707.658 184.961 707.757 185.159 707.954 185.322C708.154 185.483 708.491 185.63 708.967 185.764C709.445 185.898 709.818 186.046 710.086 186.209C710.357 186.369 710.557 186.557 710.686 186.772C710.817 186.988 710.883 187.241 710.883 187.533C710.883 187.998 710.701 188.371 710.339 188.652C709.976 188.93 709.491 189.069 708.884 189.069C708.49 189.069 708.122 188.995 707.78 188.845C707.439 188.692 707.175 188.485 706.988 188.222C706.804 187.96 706.712 187.661 706.712 187.328H707.473C707.473 187.675 707.6 187.949 707.855 188.151C708.113 188.351 708.456 188.451 708.884 188.451C709.284 188.451 709.59 188.369 709.803 188.206C710.016 188.044 710.122 187.822 710.122 187.541C710.122 187.26 710.023 187.043 709.826 186.89C709.629 186.736 709.272 186.583 708.754 186.433Z" fill="white"/>
<path d="M715.822 183.876H713.977V188.991H713.224V183.876H711.383V183.254H715.822V183.876Z" fill="white"/>
<path d="M720.979 186.307C720.979 186.869 720.884 187.361 720.695 187.781C720.506 188.199 720.237 188.518 719.891 188.738C719.544 188.959 719.139 189.069 718.676 189.069C718.224 189.069 717.824 188.959 717.474 188.738C717.125 188.515 716.853 188.199 716.658 187.789C716.466 187.376 716.368 186.9 716.362 186.359V185.945C716.362 185.393 716.458 184.906 716.65 184.483C716.842 184.06 717.113 183.737 717.462 183.514C717.814 183.288 718.216 183.175 718.669 183.175C719.128 183.175 719.533 183.287 719.883 183.51C720.235 183.731 720.506 184.052 720.695 184.475C720.884 184.895 720.979 185.385 720.979 185.945V186.307ZM720.226 185.937C720.226 185.257 720.089 184.735 719.816 184.373C719.542 184.008 719.16 183.825 718.669 183.825C718.19 183.825 717.813 184.008 717.537 184.373C717.264 184.735 717.123 185.24 717.115 185.886V186.307C717.115 186.967 717.253 187.485 717.529 187.864C717.808 188.239 718.19 188.427 718.676 188.427C719.165 188.427 719.544 188.25 719.812 187.895C720.08 187.538 720.218 187.027 720.226 186.363V185.937Z" fill="white"/>
<path d="M724.219 186.67H722.871V188.991H722.11V183.254H724.01C724.657 183.254 725.153 183.401 725.5 183.695C725.85 183.989 726.025 184.417 726.025 184.98C726.025 185.337 725.927 185.648 725.733 185.913C725.541 186.179 725.273 186.377 724.929 186.508L726.277 188.943V188.991H725.465L724.219 186.67ZM722.871 186.051H724.034C724.41 186.051 724.708 185.954 724.929 185.76C725.152 185.565 725.264 185.305 725.264 184.98C725.264 184.625 725.157 184.353 724.944 184.164C724.734 183.975 724.429 183.879 724.03 183.876H722.871V186.051Z" fill="white"/>
<path d="M727.901 188.991H727.144V183.254H727.901V188.991Z" fill="white"/>
<path d="M732.529 187.493H730.124L729.584 188.991H728.804L730.996 183.254H731.658L733.854 188.991H733.077L732.529 187.493ZM730.353 186.871H732.304L731.327 184.188L730.353 186.871Z" fill="white"/>
<path d="M735.387 188.372H738.107V188.991H734.626V183.254H735.387V188.372Z" fill="white"/>
<mask id="mask1_168_487" style="mask-type:alpha" maskUnits="userSpaceOnUse" x="682" y="181" width="12" height="12">
<path d="M693.648 186.79C693.654 189.943 691.143 192.522 688.065 192.524C686.736 192.525 685.515 192.05 684.555 191.257C684.306 191.05 684.287 190.667 684.514 190.435L684.768 190.175C684.962 189.976 685.271 189.955 685.486 190.129C686.193 190.704 687.088 191.047 688.061 191.047C690.352 191.047 692.206 189.148 692.206 186.801C692.206 184.454 690.352 182.554 688.061 182.554C686.962 182.554 685.963 182.992 685.221 183.707L686.365 184.878C686.592 185.111 686.431 185.508 686.11 185.508H682.835C682.636 185.508 682.475 185.343 682.475 185.139V181.784C682.475 181.455 682.863 181.291 683.09 181.523L684.202 182.663C685.205 181.681 686.564 181.078 688.061 181.078C691.143 181.078 693.642 183.634 693.648 186.79ZM689.573 188.608L689.794 188.317C689.977 188.075 689.935 187.727 689.699 187.539L688.782 186.809V184.401C688.782 184.095 688.54 183.847 688.242 183.847H687.881C687.582 183.847 687.34 184.095 687.34 184.401V187.531L688.814 188.705C689.05 188.893 689.389 188.85 689.573 188.608Z" fill="white"/>
</mask>
<g mask="url(#mask1_168_487)">
<path d="M693.648 186.79C693.654 189.943 691.143 192.522 688.065 192.524C686.736 192.525 685.515 192.05 684.555 191.257C684.306 191.05 684.287 190.667 684.514 190.435L684.768 190.175C684.962 189.976 685.271 189.955 685.486 190.129C686.193 190.704 687.088 191.047 688.061 191.047C690.352 191.047 692.206 189.148 692.206 186.801C692.206 184.454 690.352 182.554 688.061 182.554C686.962 182.554 685.963 182.992 685.221 183.707L686.365 184.878C686.592 185.111 686.431 185.508 686.11 185.508H682.835C682.636 185.508 682.475 185.343 682.475 185.139V181.784C682.475 181.455 682.863 181.291 683.09 181.523L684.202 182.663C685.205 181.681 686.564 181.078 688.061 181.078C691.143 181.078 693.642 183.634 693.648 186.79ZM689.573 188.608L689.794 188.317C689.977 188.075 689.935 187.727 689.699 187.539L688.782 186.809V184.401C688.782 184.095 688.54 183.847 688.242 183.847H687.881C687.582 183.847 687.34 184.095 687.34 184.401V187.531L688.814 188.705C689.05 188.893 689.389 188.85 689.573 188.608Z" fill="black"/>
<path d="M693.828 180.893H682.295V192.709H693.828V180.893Z" fill="white"/>
</g>
<g opacity="0.523042">
<mask id="mask2_168_487" style="mask-type:alpha" maskUnits="userSpaceOnUse" x="627" y="221" width="10" height="11">
<g opacity="0.523042">
<path opacity="0.523042" d="M635.139 226.019H634.689V224.668C634.689 223.095 633.408 221.816 631.835 221.816C630.262 221.816 628.982 223.095 628.982 224.668V226.019H628.531C628.034 226.019 627.63 226.422 627.63 226.919V230.522C627.63 231.019 628.034 231.422 628.531 231.422H635.139C635.637 231.422 636.04 231.019 636.04 230.522V226.919C636.04 226.422 635.637 226.019 635.139 226.019ZM633.187 226.019H630.484V224.668C630.484 223.923 631.09 223.317 631.835 223.317C632.581 223.317 633.187 223.923 633.187 224.668V226.019Z" fill="white"/>
</g>
</mask>
<g mask="url(#mask2_168_487)">
<path opacity="0.523042" d="M635.139 226.019H634.689V224.668C634.689 223.095 633.408 221.816 631.835 221.816C630.262 221.816 628.982 223.095 628.982 224.668V226.019H628.531C628.034 226.019 627.63 226.422 627.63 226.919V230.522C627.63 231.019 628.034 231.422 628.531 231.422H635.139C635.637 231.422 636.04 231.019 636.04 230.522V226.919C636.04 226.422 635.637 226.019 635.139 226.019ZM633.187 226.019H630.484V224.668C630.484 223.923 631.09 223.317 631.835 223.317C632.581 223.317 633.187 223.923 633.187 224.668V226.019Z" fill="black"/>
<g opacity="0.523042">
<g opacity="0.523042">
<path opacity="0.523042" d="M636.641 221.816H627.03V231.422H636.641V221.816Z" fill="#4D648D"/>
</g>
</g>
</g>
</g>
<g opacity="0.523042">
<mask id="mask3_168_487" style="mask-type:alpha" maskUnits="userSpaceOnUse" x="627" y="328" width="10" height="11">
<g opacity="0.523042">
<path opacity="0.523042" d="M635.139 332.649H634.689V331.298C634.689 329.725 633.408 328.446 631.835 328.446C630.262 328.446 628.982 329.725 628.982 331.298V332.649H628.531C628.034 332.649 627.63 333.052 627.63 333.549V337.152C627.63 337.649 628.034 338.052 628.531 338.052H635.139C635.637 338.052 636.04 337.649 636.04 337.152V333.549C636.04 333.052 635.637 332.649 635.139 332.649ZM633.187 332.649H630.484V331.298C630.484 330.553 631.09 329.947 631.835 329.947C632.581 329.947 633.187 330.553 633.187 331.298V332.649Z" fill="white"/>
</g>
</mask>
<g mask="url(#mask3_168_487)">
<path opacity="0.523042" d="M635.139 332.649H634.689V331.298C634.689 329.725 633.408 328.446 631.835 328.446C630.262 328.446 628.982 329.725 628.982 331.298V332.649H628.531C628.034 332.649 627.63 333.052 627.63 333.549V337.152C627.63 337.649 628.034 338.052 628.531 338.052H635.139C635.637 338.052 636.04 337.649 636.04 337.152V333.549C636.04 333.052 635.637 332.649 635.139 332.649ZM633.187 332.649H630.484V331.298C630.484 330.553 631.09 329.947 631.835 329.947C632.581 329.947 633.187 330.553 633.187 331.298V332.649Z" fill="black"/>
<g opacity="0.523042">
<g opacity="0.523042">
<path opacity="0.523042" d="M636.641 328.446H627.03V338.052H636.641V328.446Z" fill="#4D648D"/>
</g>
</g>
</g>
</g>
<g opacity="0.523042">
<mask id="mask4_168_487" style="mask-type:alpha" maskUnits="userSpaceOnUse" x="627" y="379" width="10" height="11">
<g opacity="0.523042">
<path opacity="0.523042" d="M635.139 383.946H634.689V382.596C634.689 381.023 633.408 379.744 631.835 379.744C630.262 379.744 628.982 381.023 628.982 382.596V383.946H628.531C628.034 383.946 627.63 384.35 627.63 384.847V388.449C627.63 388.947 628.034 389.35 628.531 389.35H635.139C635.637 389.35 636.04 388.947 636.04 388.449V384.847C636.04 384.35 635.637 383.946 635.139 383.946ZM633.187 383.946H630.484V382.596C630.484 381.851 631.09 381.245 631.835 381.245C632.581 381.245 633.187 381.851 633.187 382.596V383.946Z" fill="white"/>
</g>
</mask>
<g mask="url(#mask4_168_487)">
<path opacity="0.523042" d="M635.139 383.946H634.689V382.596C634.689 381.023 633.408 379.744 631.835 379.744C630.262 379.744 628.982 381.023 628.982 382.596V383.946H628.531C628.034 383.946 627.63 384.35 627.63 384.847V388.449C627.63 388.947 628.034 389.35 628.531 389.35H635.139C635.637 389.35 636.04 388.947 636.04 388.449V384.847C636.04 384.35 635.637 383.946 635.139 383.946ZM633.187 383.946H630.484V382.596C630.484 381.851 631.09 381.245 631.835 381.245C632.581 381.245 633.187 381.851 633.187 382.596V383.946Z" fill="black"/>
<g opacity="0.523042">
<g opacity="0.523042">
<path opacity="0.523042" d="M636.641 379.744H627.03V389.35H636.641V379.744Z" fill="#4D648D"/>
</g>
</g>
</g>
</g>
<g filter="url(#filter7_d_168_487)">
<path d="M887.015 116.338H71.0168V162.448H887.015V116.338Z" fill="black"/>
</g>
<path d="M886.731 116.626H71.2993V162.16H886.731V116.626Z" fill="white"/>
<path fill-rule="evenodd" clip-rule="evenodd" d="M71.0168 116.338H887.015V162.448H71.0168V116.338ZM71.5835 116.914V161.872H886.448V116.914H71.5835Z" fill="white"/>
<path d="M572.625 122.678H506.892C506.266 122.678 505.759 123.194 505.759 123.831V156.108C505.759 156.745 506.266 157.261 506.892 157.261H572.625C573.251 157.261 573.759 156.745 573.759 156.108V123.831C573.759 123.194 573.251 122.678 572.625 122.678Z" fill="#E54435" fill-opacity="0.8"/>
<path d="M87.1663 146.886C91.3912 146.886 94.8163 143.402 94.8163 139.105C94.8163 134.807 91.3912 131.324 87.1663 131.324C82.9413 131.324 79.5163 134.807 79.5163 139.105C79.5163 143.402 82.9413 146.886 87.1663 146.886Z" fill="white"/>
<path fill-rule="evenodd" clip-rule="evenodd" d="M87.1668 131.9C83.2548 131.9 80.0835 135.126 80.0835 139.105C80.0835 143.084 83.2548 146.31 87.1668 146.31C91.0788 146.31 94.2501 143.084 94.2501 139.105C94.2501 135.126 91.0788 131.9 87.1668 131.9ZM78.9501 139.105C78.9501 134.489 82.6289 130.748 87.1668 130.748C91.7047 130.748 95.3834 134.489 95.3834 139.105C95.3834 143.721 91.7047 147.463 87.1668 147.463C82.6289 147.463 78.9501 143.721 78.9501 139.105Z" fill="#7093FF"/>
<path d="M87.3393 138.802H86.0145V141.122H85.2669V135.385H87.134C87.7693 135.385 88.2574 135.533 88.5983 135.827C88.9417 136.121 89.1135 136.549 89.1135 137.111C89.1135 137.468 89.0179 137.78 88.8268 138.045C88.6383 138.31 88.3749 138.509 88.0366 138.64L89.3614 141.075V141.122H88.5634L87.3393 138.802ZM86.0145 138.183H87.1573C87.5266 138.183 87.8197 138.086 88.0366 137.891C88.2561 137.697 88.3659 137.437 88.3659 137.111C88.3659 136.757 88.2613 136.485 88.0521 136.296C87.8455 136.107 87.5459 136.011 87.1534 136.008H86.0145V138.183Z" fill="#4D648D"/>
<path d="M101.58 149.192C101.58 146.963 103.388 145.157 105.617 145.157H208.266C210.495 145.157 212.302 146.963 212.302 149.192C212.302 151.42 210.495 153.226 208.266 153.226H105.617C103.388 153.226 101.58 151.42 101.58 149.192Z" fill="white"/>
<path d="M101.58 149.192C101.58 146.963 103.388 145.157 105.617 145.157H208.266C210.495 145.157 212.302 146.963 212.302 149.192C212.302 151.42 210.495 153.226 208.266 153.226H105.617C103.388 153.226 101.58 151.42 101.58 149.192Z" fill="white"/>
<path d="M101.58 149.192C101.58 146.963 103.388 145.157 105.617 145.157H208.266C210.495 145.157 212.302 146.963 212.302 149.192C212.302 151.42 210.495 153.226 208.266 153.226H105.617C103.388 153.226 101.58 151.42 101.58 149.192Z" fill="#E2E9FF"/>
<path d="M231.333 133.63C231.333 131.401 233.14 129.595 235.37 129.595H306.301C308.53 129.595 310.338 131.401 310.338 133.63C310.338 135.858 308.53 137.664 306.301 137.664H235.37C233.14 137.664 231.333 135.858 231.333 133.63Z" fill="white"/>
<path d="M231.333 133.63C231.333 131.401 233.14 129.595 235.37 129.595H306.301C308.53 129.595 310.338 131.401 310.338 133.63C310.338 135.858 308.53 137.664 306.301 137.664H235.37C233.14 137.664 231.333 135.858 231.333 133.63Z" fill="white"/>
<path d="M231.333 133.63C231.333 131.401 233.14 129.595 235.37 129.595H306.301C308.53 129.595 310.338 131.401 310.338 133.63C310.338 135.858 308.53 137.664 306.301 137.664H235.37C233.14 137.664 231.333 135.858 231.333 133.63Z" fill="#E2E9FF"/>
<path d="M366.852 133.63C366.852 131.401 368.659 129.595 370.889 129.595H441.82C444.049 129.595 445.857 131.401 445.857 133.63C445.857 135.858 444.049 137.664 441.82 137.664H370.889C368.659 137.664 366.852 135.858 366.852 133.63Z" fill="white"/>
<path d="M366.852 133.63C366.852 131.401 368.659 129.595 370.889 129.595H441.82C444.049 129.595 445.857 131.401 445.857 133.63C445.857 135.858 444.049 137.664 441.82 137.664H370.889C368.659 137.664 366.852 135.858 366.852 133.63Z" fill="white"/>
<path d="M366.852 133.63C366.852 131.401 368.659 129.595 370.889 129.595H441.82C444.049 129.595 445.857 131.401 445.857 133.63C445.857 135.858 444.049 137.664 441.82 137.664H370.889C368.659 137.664 366.852 135.858 366.852 133.63Z" fill="#E2E9FF"/>
<path d="M231.333 148.616C231.333 146.387 233.14 144.581 235.37 144.581H345.515C347.744 144.581 349.552 146.387 349.552 148.616C349.552 150.844 347.744 152.65 345.515 152.65H235.37C233.14 152.65 231.333 150.844 231.333 148.616Z" fill="white"/>
<path d="M231.333 148.616C231.333 146.387 233.14 144.581 235.37 144.581H345.515C347.744 144.581 349.552 146.387 349.552 148.616C349.552 150.844 347.744 152.65 345.515 152.65H235.37C233.14 152.65 231.333 150.844 231.333 148.616Z" fill="white"/>
<path d="M231.333 148.616C231.333 146.387 233.14 144.581 235.37 144.581H345.515C347.744 144.581 349.552 146.387 349.552 148.616C349.552 150.844 347.744 152.65 345.515 152.65H235.37C233.14 152.65 231.333 150.844 231.333 148.616Z" fill="#E2E9FF"/>
<path d="M366.852 148.616C366.852 146.387 368.659 144.581 370.889 144.581H481.034C483.263 144.581 485.071 146.387 485.071 148.616C485.071 150.844 483.263 152.65 481.034 152.65H370.889C368.659 152.65 366.852 150.844 366.852 148.616Z" fill="white"/>
<path d="M366.852 148.616C366.852 146.387 368.659 144.581 370.889 144.581H481.034C483.263 144.581 485.071 146.387 485.071 148.616C485.071 150.844 483.263 152.65 481.034 152.65H370.889C368.659 152.65 366.852 150.844 366.852 148.616Z" fill="white"/>
<path d="M366.852 148.616C366.852 146.387 368.659 144.581 370.889 144.581H481.034C483.263 144.581 485.071 146.387 485.071 148.616C485.071 150.844 483.263 152.65 481.034 152.65H370.889C368.659 152.65 366.852 150.844 366.852 148.616Z" fill="#E2E9FF"/>
<path d="M599.253 133.63C599.253 131.401 601.06 129.595 603.29 129.595H674.221C676.45 129.595 678.258 131.401 678.258 133.63C678.258 135.858 676.45 137.664 674.221 137.664H603.29C601.06 137.664 599.253 135.858 599.253 133.63Z" fill="white"/>
<path d="M599.253 133.63C599.253 131.401 601.06 129.595 603.29 129.595H674.221C676.45 129.595 678.258 131.401 678.258 133.63C678.258 135.858 676.45 137.664 674.221 137.664H603.29C601.06 137.664 599.253 135.858 599.253 133.63Z" fill="white"/>
<path d="M599.253 133.63C599.253 131.401 601.06 129.595 603.29 129.595H674.221C676.45 129.595 678.258 131.401 678.258 133.63C678.258 135.858 676.45 137.664 674.221 137.664H603.29C601.06 137.664 599.253 135.858 599.253 133.63Z" fill="#E2E9FF"/>
<path d="M599.253 148.616C599.253 146.387 601.06 144.581 603.29 144.581H713.435C715.664 144.581 717.472 146.387 717.472 148.616C717.472 150.844 715.664 152.65 713.435 152.65H603.29C601.06 152.65 599.253 150.844 599.253 148.616Z" fill="white"/>
<path d="M599.253 148.616C599.253 146.387 601.06 144.581 603.29 144.581H713.435C715.664 144.581 717.472 146.387 717.472 148.616C717.472 150.844 715.664 152.65 713.435 152.65H603.29C601.06 152.65 599.253 150.844 599.253 148.616Z" fill="white"/>
<path d="M599.253 148.616C599.253 146.387 601.06 144.581 603.29 144.581H713.435C715.664 144.581 717.472 146.387 717.472 148.616C717.472 150.844 715.664 152.65 713.435 152.65H603.29C601.06 152.65 599.253 150.844 599.253 148.616Z" fill="#E2E9FF"/>
<path d="M744.576 133.63C744.576 131.401 746.383 129.595 748.612 129.595H819.544C821.773 129.595 823.58 131.401 823.58 133.63C823.58 135.858 821.773 137.664 819.544 137.664H748.612C746.383 137.664 744.576 135.858 744.576 133.63Z" fill="white"/>
<path d="M744.576 133.63C744.576 131.401 746.383 129.595 748.612 129.595H819.544C821.773 129.595 823.58 131.401 823.58 133.63C823.58 135.858 821.773 137.664 819.544 137.664H748.612C746.383 137.664 744.576 135.858 744.576 133.63Z" fill="white"/>
<path d="M744.576 133.63C744.576 131.401 746.383 129.595 748.612 129.595H819.544C821.773 129.595 823.58 131.401 823.58 133.63C823.58 135.858 821.773 137.664 819.544 137.664H748.612C746.383 137.664 744.576 135.858 744.576 133.63Z" fill="#E2E9FF"/>
<path d="M744.576 148.616C744.576 146.387 746.383 144.581 748.612 144.581H858.758C860.987 144.581 862.795 146.387 862.795 148.616C862.795 150.844 860.987 152.65 858.758 152.65H748.612C746.383 152.65 744.576 150.844 744.576 148.616Z" fill="white"/>
<path d="M744.576 148.616C744.576 146.387 746.383 144.581 748.612 144.581H858.758C860.987 144.581 862.795 146.387 862.795 148.616C862.795 150.844 860.987 152.65 858.758 152.65H748.612C746.383 152.65 744.576 150.844 744.576 148.616Z" fill="white"/>
<path d="M744.576 148.616C744.576 146.387 746.383 144.581 748.612 144.581H858.758C860.987 144.581 862.795 146.387 862.795 148.616C862.795 150.844 860.987 152.65 858.758 152.65H748.612C746.383 152.65 744.576 150.844 744.576 148.616Z" fill="#E2E9FF"/>
<g opacity="0.5">
<path d="M517.365 134.494C517.365 133.062 518.526 131.9 519.96 131.9H563.21C564.644 131.9 565.805 133.062 565.805 134.494C565.805 135.926 564.644 137.088 563.21 137.088H519.96C518.526 137.088 517.365 135.926 517.365 134.494Z" fill="white"/>
<path d="M517.365 134.494C517.365 133.062 518.526 131.9 519.96 131.9H563.21C564.644 131.9 565.805 133.062 565.805 134.494C565.805 135.926 564.644 137.088 563.21 137.088H519.96C518.526 137.088 517.365 135.926 517.365 134.494Z" fill="white"/>
<path d="M517.365 134.494C517.365 133.062 518.526 131.9 519.96 131.9H563.21C564.644 131.9 565.805 133.062 565.805 134.494C565.805 135.926 564.644 137.088 563.21 137.088H519.96C518.526 137.088 517.365 135.926 517.365 134.494Z" fill="#E2E9FF"/>
</g>
<g opacity="0.5">
<path d="M522.555 146.021C522.555 144.589 523.717 143.428 525.15 143.428H555.137C556.571 143.428 557.732 144.589 557.732 146.021C557.732 147.454 556.571 148.615 555.137 148.615H525.15C523.717 148.615 522.555 147.454 522.555 146.021Z" fill="white"/>
<path d="M522.555 146.021C522.555 144.589 523.717 143.428 525.15 143.428H555.137C556.571 143.428 557.732 144.589 557.732 146.021C557.732 147.454 556.571 148.615 555.137 148.615H525.15C523.717 148.615 522.555 147.454 522.555 146.021Z" fill="white"/>
<path d="M522.555 146.021C522.555 144.589 523.717 143.428 525.15 143.428H555.137C556.571 143.428 557.732 144.589 557.732 146.021C557.732 147.454 556.571 148.615 555.137 148.615H525.15C523.717 148.615 522.555 147.454 522.555 146.021Z" fill="#E2E9FF"/>
</g>
<g filter="url(#filter8_d_168_487)">
<path d="M71.5932 172.823H201.922C202.559 172.823 203.076 173.339 203.076 173.976V201.642H70.4399V173.976C70.4399 173.339 70.9563 172.823 71.5932 172.823Z" fill="black"/>
</g>
<path fill-rule="evenodd" clip-rule="evenodd" d="M70.7283 201.354H202.787V173.976C202.787 173.498 202.4 173.111 201.922 173.111H71.5933C71.1156 173.111 70.7283 173.498 70.7283 173.976V201.354Z" fill="url(#paint5_linear_168_487)"/>
<path fill-rule="evenodd" clip-rule="evenodd" d="M70.4399 173.976C70.4399 173.339 70.9563 172.823 71.5932 172.823H201.922C202.559 172.823 203.076 173.339 203.076 173.976V201.642H70.4399V173.976ZM71.5932 173.399C71.2747 173.399 71.0166 173.657 71.0166 173.976V201.065H202.499V173.976C202.499 173.657 202.241 173.399 201.922 173.399H71.5932Z" fill="#7091F5"/>
<path d="M100.226 188.041H97.8212L97.2812 189.538H96.5006L98.6924 183.802H99.3547L101.55 189.538H100.774L100.226 188.041ZM98.0499 187.419H100.001L99.0236 184.735L98.0499 187.419Z" fill="white"/>
<path d="M106.498 187.718C106.427 188.325 106.202 188.794 105.824 189.125C105.448 189.453 104.947 189.617 104.322 189.617C103.644 189.617 103.1 189.374 102.69 188.888C102.282 188.402 102.079 187.752 102.079 186.938V186.386C102.079 185.853 102.173 185.384 102.363 184.98C102.554 184.575 102.825 184.265 103.175 184.05C103.524 183.832 103.929 183.723 104.389 183.723C104.999 183.723 105.487 183.893 105.855 184.235C106.223 184.574 106.437 185.044 106.498 185.645H105.737C105.671 185.188 105.528 184.857 105.307 184.653C105.089 184.448 104.783 184.345 104.389 184.345C103.905 184.345 103.525 184.524 103.25 184.881C102.976 185.238 102.84 185.747 102.84 186.406V186.961C102.84 187.584 102.97 188.079 103.23 188.447C103.49 188.815 103.854 188.999 104.322 188.999C104.742 188.999 105.064 188.904 105.288 188.715C105.514 188.523 105.663 188.191 105.737 187.718H106.498Z" fill="white"/>
<path d="M111.757 187.718C111.686 188.325 111.461 188.794 111.083 189.125C110.707 189.453 110.206 189.617 109.581 189.617C108.903 189.617 108.359 189.374 107.949 188.888C107.541 188.402 107.338 187.752 107.338 186.938V186.386C107.338 185.853 107.432 185.384 107.621 184.98C107.813 184.575 108.084 184.265 108.433 184.05C108.783 183.832 109.188 183.723 109.648 183.723C110.257 183.723 110.746 183.893 111.114 184.235C111.482 184.574 111.696 185.044 111.757 185.645H110.996C110.93 185.188 110.787 184.857 110.566 184.653C110.348 184.448 110.042 184.345 109.648 184.345C109.164 184.345 108.784 184.524 108.508 184.881C108.235 185.238 108.098 185.747 108.098 186.406V186.961C108.098 187.584 108.228 188.079 108.489 188.447C108.749 188.815 109.113 188.999 109.581 188.999C110.001 188.999 110.323 188.904 110.546 188.715C110.772 188.523 110.922 188.191 110.996 187.718H111.757Z" fill="white"/>
<path d="M113.606 189.538H112.849V183.802H113.606V189.538Z" fill="white"/>
<path d="M119.408 186.855C119.408 187.417 119.314 187.908 119.124 188.329C118.935 188.746 118.667 189.065 118.32 189.286C117.973 189.507 117.569 189.617 117.106 189.617C116.654 189.617 116.253 189.507 115.904 189.286C115.554 189.063 115.282 188.746 115.088 188.337C114.896 187.924 114.797 187.447 114.792 186.906V186.493C114.792 185.941 114.888 185.454 115.08 185.031C115.272 184.608 115.542 184.285 115.892 184.062C116.244 183.836 116.646 183.723 117.098 183.723C117.558 183.723 117.963 183.834 118.312 184.058C118.665 184.278 118.935 184.6 119.124 185.023C119.314 185.443 119.408 185.933 119.408 186.493V186.855ZM118.655 186.485C118.655 185.804 118.519 185.283 118.245 184.921C117.972 184.555 117.59 184.373 117.098 184.373C116.62 184.373 116.243 184.555 115.967 184.921C115.694 185.283 115.553 185.787 115.545 186.434V186.855C115.545 187.514 115.683 188.033 115.959 188.411C116.238 188.787 116.62 188.975 117.106 188.975C117.595 188.975 117.973 188.798 118.241 188.443C118.51 188.086 118.647 187.575 118.655 186.91V186.485Z" fill="white"/>
<path d="M124.955 189.538H124.194L121.304 185.118V189.538H120.544V183.802H121.304L124.202 188.242V183.802H124.955V189.538Z" fill="white"/>
<path d="M129.544 186.887H127.056V188.92H129.946V189.538H126.299V183.802H129.906V184.424H127.056V186.268H129.544V186.887Z" fill="white"/>
<path d="M132.579 186.981C131.93 186.795 131.457 186.566 131.16 186.296C130.865 186.022 130.718 185.686 130.718 185.287C130.718 184.835 130.898 184.462 131.258 184.168C131.621 183.871 132.091 183.723 132.67 183.723C133.064 183.723 133.415 183.799 133.722 183.951C134.032 184.104 134.271 184.314 134.44 184.582C134.61 184.85 134.696 185.142 134.696 185.46H133.935C133.935 185.114 133.825 184.842 133.604 184.645C133.383 184.445 133.072 184.345 132.67 184.345C132.296 184.345 132.005 184.428 131.794 184.593C131.587 184.756 131.483 184.984 131.483 185.275C131.483 185.509 131.582 185.707 131.779 185.87C131.978 186.03 132.316 186.177 132.792 186.311C133.27 186.445 133.643 186.594 133.911 186.757C134.182 186.917 134.382 187.105 134.511 187.32C134.642 187.535 134.708 187.789 134.708 188.08C134.708 188.545 134.526 188.918 134.164 189.199C133.801 189.478 133.316 189.617 132.709 189.617C132.315 189.617 131.947 189.542 131.605 189.393C131.264 189.24 131 189.033 130.813 188.77C130.629 188.507 130.537 188.209 130.537 187.876H131.298C131.298 188.222 131.425 188.497 131.68 188.699C131.938 188.899 132.281 188.999 132.709 188.999C133.109 188.999 133.415 188.917 133.628 188.754C133.84 188.591 133.947 188.369 133.947 188.088C133.947 187.807 133.848 187.591 133.651 187.438C133.454 187.283 133.097 187.131 132.579 186.981Z" fill="white"/>
<mask id="mask5_168_487" style="mask-type:alpha" maskUnits="userSpaceOnUse" x="80" y="181" width="10" height="12">
<path d="M89.1818 183.99V191.916C89.1818 192.513 88.6977 192.996 88.1005 192.996H81.6129C81.0157 192.996 80.5316 192.513 80.5316 191.916V183.99C80.5316 183.394 81.0157 182.91 81.6129 182.91H83.415C83.415 182.115 84.0617 181.469 84.8567 181.469C85.6517 181.469 86.2984 182.115 86.2984 182.91H88.1005C88.6977 182.91 89.1818 183.394 89.1818 183.99ZM84.8567 182.369C84.5581 182.369 84.3161 182.611 84.3161 182.91C84.3161 183.208 84.5581 183.45 84.8567 183.45C85.1553 183.45 85.3973 183.208 85.3973 182.91C85.3973 182.611 85.1553 182.369 84.8567 182.369ZM87.0192 184.936V184.486C87.0192 184.411 86.9587 184.351 86.8841 184.351H82.8293C82.7547 184.351 82.6942 184.411 82.6942 184.486V184.936C82.6942 185.011 82.7547 185.071 82.8293 185.071H86.8841C86.9587 185.071 87.0192 185.011 87.0192 184.936Z" fill="white"/>
</mask>
<g mask="url(#mask5_168_487)">
<path d="M89.1818 183.99V191.916C89.1818 192.513 88.6977 192.996 88.1005 192.996H81.6129C81.0157 192.996 80.5316 192.513 80.5316 191.916V183.99C80.5316 183.394 81.0157 182.91 81.6129 182.91H83.415C83.415 182.115 84.0617 181.469 84.8567 181.469C85.6517 181.469 86.2984 182.115 86.2984 182.91H88.1005C88.6977 182.91 89.1818 183.394 89.1818 183.99ZM84.8567 182.369C84.5581 182.369 84.3161 182.611 84.3161 182.91C84.3161 183.208 84.5581 183.45 84.8567 183.45C85.1553 183.45 85.3973 183.208 85.3973 182.91C85.3973 182.611 85.1553 182.369 84.8567 182.369ZM87.0192 184.936V184.486C87.0192 184.411 86.9587 184.351 86.8841 184.351H82.8293C82.7547 184.351 82.6942 184.411 82.6942 184.486V184.936C82.6942 185.011 82.7547 185.071 82.8293 185.071H86.8841C86.9587 185.071 87.0192 185.011 87.0192 184.936Z" fill="black"/>
<path d="M90.6234 181.469H79.0898V192.996H90.6234V181.469Z" fill="white"/>
</g>
<g filter="url(#filter9_d_168_487)">
<path d="M878.942 213.746H674.221V234.496H878.942V213.746Z" fill="black"/>
</g>
<path d="M878.942 213.746H674.221V234.496H878.942V213.746Z" fill="#4D648D"/>
<path d="M878.942 213.746H674.221V234.496H878.942V213.746Z" fill="url(#paint6_linear_168_487)"/>
<g opacity="0.3">
<path d="M682.294 224.409C682.294 221.703 684.489 219.51 687.196 219.51H778.888C781.595 219.51 783.789 221.703 783.789 224.409C783.789 227.115 781.595 229.308 778.888 229.308H687.196C684.489 229.308 682.294 227.115 682.294 224.409Z" fill="white"/>
<path d="M682.294 224.409C682.294 221.703 684.489 219.51 687.196 219.51H778.888C781.595 219.51 783.789 221.703 783.789 224.409C783.789 227.115 781.595 229.308 778.888 229.308H687.196C684.489 229.308 682.294 227.115 682.294 224.409Z" fill="white"/>
<path d="M682.294 224.409C682.294 221.703 684.489 219.51 687.196 219.51H778.888C781.595 219.51 783.789 221.703 783.789 224.409C783.789 227.115 781.595 229.308 778.888 229.308H687.196C684.489 229.308 682.294 227.115 682.294 224.409Z" fill="#E2E9FF" fill-opacity="0.3"/>
</g>
<g opacity="0.3">
<path d="M584.836 185.791C584.836 183.086 587.03 180.892 589.737 180.892H641.638C644.345 180.892 646.54 183.086 646.54 185.791C646.54 188.497 644.345 190.691 641.638 190.691H589.737C587.03 190.691 584.836 188.497 584.836 185.791Z" fill="white"/>
<path d="M584.836 185.791C584.836 183.086 587.03 180.892 589.737 180.892H641.638C644.345 180.892 646.54 183.086 646.54 185.791C646.54 188.497 644.345 190.691 641.638 190.691H589.737C587.03 190.691 584.836 188.497 584.836 185.791Z" fill="white"/>
<path d="M584.836 185.791C584.836 183.086 587.03 180.892 589.737 180.892H641.638C644.345 180.892 646.54 183.086 646.54 185.791C646.54 188.497 644.345 190.691 641.638 190.691H589.737C587.03 190.691 584.836 188.497 584.836 185.791Z" fill="#E2E9FF" fill-opacity="0.3"/>
</g>
<mask id="mask6_168_487" style="mask-type:alpha" maskUnits="userSpaceOnUse" x="863" y="222" width="9" height="6">
<path d="M867.028 226.858L863.964 223.796C863.752 223.584 863.752 223.242 863.964 223.033L864.473 222.524C864.685 222.312 865.027 222.312 865.237 222.524L867.409 224.694L869.58 222.524C869.792 222.312 870.134 222.312 870.344 222.524L870.853 223.033C871.065 223.244 871.065 223.586 870.853 223.796L867.789 226.858C867.582 227.069 867.24 227.069 867.028 226.858Z" fill="white"/>
</mask>
<g mask="url(#mask6_168_487)">
<path d="M867.028 226.858L863.964 223.796C863.752 223.584 863.752 223.242 863.964 223.033L864.473 222.524C864.685 222.312 865.027 222.312 865.237 222.524L867.409 224.694L869.58 222.524C869.792 222.312 870.134 222.312 870.344 222.524L870.853 223.033C871.065 223.244 871.065 223.586 870.853 223.796L867.789 226.858C867.582 227.069 867.24 227.069 867.028 226.858Z" fill="black"/>
<path d="M873.177 218.92L861.643 218.92L861.643 230.447L873.177 230.447L873.177 218.92Z" fill="white"/>
</g>
<g filter="url(#filter10_d_168_487)">
<path d="M878.942 237.378H674.221V258.128H878.942V237.378Z" fill="black"/>
</g>
<path d="M878.942 237.378H674.221V258.128H878.942V237.378Z" fill="#4D648D"/>
<path d="M878.942 237.378H674.221V258.128H878.942V237.378Z" fill="url(#paint7_linear_168_487)"/>
<g opacity="0.3">
<path d="M682.294 248.041C682.294 245.335 684.489 243.142 687.196 243.142H778.888C781.595 243.142 783.789 245.335 783.789 248.041C783.789 250.747 781.595 252.94 778.888 252.94H687.196C684.489 252.94 682.294 250.747 682.294 248.041Z" fill="white"/>
<path d="M682.294 248.041C682.294 245.335 684.489 243.142 687.196 243.142H778.888C781.595 243.142 783.789 245.335 783.789 248.041C783.789 250.747 781.595 252.94 778.888 252.94H687.196C684.489 252.94 682.294 250.747 682.294 248.041Z" fill="white"/>
<path d="M682.294 248.041C682.294 245.335 684.489 243.142 687.196 243.142H778.888C781.595 243.142 783.789 245.335 783.789 248.041C783.789 250.747 781.595 252.94 778.888 252.94H687.196C684.489 252.94 682.294 250.747 682.294 248.041Z" fill="#E2E9FF" fill-opacity="0.3"/>
</g>
<mask id="mask7_168_487" style="mask-type:alpha" maskUnits="userSpaceOnUse" x="863" y="245" width="9" height="6">
<path d="M867.028 250.489L863.964 247.427C863.752 247.216 863.752 246.874 863.964 246.664L864.473 246.155C864.685 245.944 865.027 245.944 865.237 246.155L867.409 248.326L869.58 246.155C869.792 245.944 870.134 245.944 870.344 246.155L870.853 246.664C871.065 246.876 871.065 247.218 870.853 247.427L867.789 250.489C867.582 250.701 867.24 250.701 867.028 250.489Z" fill="white"/>
</mask>
<g mask="url(#mask7_168_487)">
<path d="M867.028 250.489L863.964 247.427C863.752 247.216 863.752 246.874 863.964 246.664L864.473 246.155C864.685 245.944 865.027 245.944 865.237 246.155L867.409 248.326L869.58 246.155C869.792 245.944 870.134 245.944 870.344 246.155L870.853 246.664C871.065 246.876 871.065 247.218 870.853 247.427L867.789 250.489C867.582 250.701 867.24 250.701 867.028 250.489Z" fill="black"/>
<path d="M873.177 242.551L861.643 242.551L861.643 254.079L873.177 254.079L873.177 242.551Z" fill="white"/>
</g>
<mask id="mask8_168_487" style="mask-type:alpha" maskUnits="userSpaceOnUse" x="869" y="298" width="8" height="6">
<path d="M872.795 302.94L869.732 299.878C869.52 299.666 869.52 299.324 869.732 299.115L870.241 298.606C870.453 298.394 870.795 298.394 871.004 298.606L873.176 300.776L875.348 298.606C875.559 298.394 875.902 298.394 876.111 298.606L876.62 299.115C876.832 299.326 876.832 299.669 876.62 299.878L873.557 302.94C873.349 303.152 873.007 303.152 872.795 302.94Z" fill="white"/>
</mask>
<g mask="url(#mask8_168_487)">
<path d="M872.795 302.94L869.732 299.878C869.52 299.666 869.52 299.324 869.732 299.115L870.241 298.606C870.453 298.394 870.795 298.394 871.004 298.606L873.176 300.776L875.348 298.606C875.559 298.394 875.902 298.394 876.111 298.606L876.62 299.115C876.832 299.326 876.832 299.669 876.62 299.878L873.557 302.94C873.349 303.152 873.007 303.152 872.795 302.94Z" fill="black"/>
<path d="M878.944 295.002L867.41 295.002L867.41 306.53L878.944 306.53L878.944 295.002Z" fill="white"/>
</g>
<mask id="mask9_168_487" style="mask-type:alpha" maskUnits="userSpaceOnUse" x="869" y="324" width="8" height="6">
<path d="M872.795 329.453L869.732 326.391C869.52 326.179 869.52 325.837 869.732 325.628L870.241 325.119C870.453 324.907 870.795 324.907 871.004 325.119L873.176 327.289L875.348 325.119C875.559 324.907 875.902 324.907 876.111 325.119L876.62 325.628C876.832 325.839 876.832 326.182 876.62 326.391L873.557 329.453C873.349 329.665 873.007 329.665 872.795 329.453Z" fill="white"/>
</mask>
<g mask="url(#mask9_168_487)">
<path d="M872.795 329.453L869.732 326.391C869.52 326.179 869.52 325.837 869.732 325.628L870.241 325.119C870.453 324.907 870.795 324.907 871.004 325.119L873.176 327.289L875.348 325.119C875.559 324.907 875.902 324.907 876.111 325.119L876.62 325.628C876.832 325.839 876.832 326.182 876.62 326.391L873.557 329.453C873.349 329.665 873.007 329.665 872.795 329.453Z" fill="black"/>
<path d="M878.944 321.516L867.41 321.516L867.41 333.043L878.944 333.043L878.944 321.516Z" fill="white"/>
</g>
<mask id="mask10_168_487" style="mask-type:alpha" maskUnits="userSpaceOnUse" x="869" y="351" width="8" height="6">
<path d="M872.795 355.967L869.732 352.905C869.52 352.693 869.52 352.351 869.732 352.141L870.241 351.633C870.453 351.421 870.795 351.421 871.004 351.633L873.176 353.803L875.348 351.633C875.559 351.421 875.902 351.421 876.111 351.633L876.62 352.141C876.832 352.353 876.832 352.695 876.62 352.905L873.557 355.967C873.349 356.178 873.007 356.178 872.795 355.967Z" fill="white"/>
</mask>
<g mask="url(#mask10_168_487)">
<path d="M872.795 355.967L869.732 352.905C869.52 352.693 869.52 352.351 869.732 352.141L870.241 351.633C870.453 351.421 870.795 351.421 871.004 351.633L873.176 353.803L875.348 351.633C875.559 351.421 875.902 351.421 876.111 351.633L876.62 352.141C876.832 352.353 876.832 352.695 876.62 352.905L873.557 355.967C873.349 356.178 873.007 356.178 872.795 355.967Z" fill="black"/>
<path d="M878.944 348.029L867.41 348.029L867.41 359.557L878.944 359.557L878.944 348.029Z" fill="white"/>
</g>
<mask id="mask11_168_487" style="mask-type:alpha" maskUnits="userSpaceOnUse" x="869" y="377" width="8" height="6">
<path d="M872.795 382.48L869.732 379.418C869.52 379.207 869.52 378.864 869.732 378.655L870.241 378.146C870.453 377.935 870.795 377.935 871.004 378.146L873.176 380.317L875.348 378.146C875.559 377.935 875.902 377.935 876.111 378.146L876.62 378.655C876.832 378.867 876.832 379.209 876.62 379.418L873.557 382.48C873.349 382.692 873.007 382.692 872.795 382.48Z" fill="white"/>
</mask>
<g mask="url(#mask11_168_487)">
<path d="M872.795 382.48L869.732 379.418C869.52 379.207 869.52 378.864 869.732 378.655L870.241 378.146C870.453 377.935 870.795 377.935 871.004 378.146L873.176 380.317L875.348 378.146C875.559 377.935 875.902 377.935 876.111 378.146L876.62 378.655C876.832 378.867 876.832 379.209 876.62 379.418L873.557 382.48C873.349 382.692 873.007 382.692 872.795 382.48Z" fill="black"/>
<path d="M878.944 374.543L867.41 374.543L867.41 386.07L878.944 386.07L878.944 374.543Z" fill="white"/>
</g>
<path d="M878.981 505.97H857.853C856.92 505.97 856.163 506.727 856.163 507.66V528.777C856.163 529.71 856.92 530.467 857.853 530.467H878.981C879.915 530.467 880.672 529.71 880.672 528.777V507.66C880.672 506.727 879.915 505.97 878.981 505.97Z" fill="#6BBF59"/>
<path fill-rule="evenodd" clip-rule="evenodd" d="M878.981 506.815H857.853C857.386 506.815 857.008 507.193 857.008 507.66V528.777C857.008 529.244 857.386 529.622 857.853 529.622H878.981C879.448 529.622 879.826 529.244 879.826 528.777V507.66C879.826 507.193 879.448 506.815 878.981 506.815ZM857.853 505.97H878.981C879.915 505.97 880.672 506.727 880.672 507.66V528.777C880.672 529.71 879.915 530.467 878.981 530.467H857.853C856.92 530.467 856.163 529.71 856.163 528.777V507.66C856.163 506.727 856.92 505.97 857.853 505.97Z" fill="#6BBF59"/>
<mask id="mask12_168_487" style="mask-type:alpha" maskUnits="userSpaceOnUse" x="862" y="512" width="13" height="12">
<path d="M874.016 519.164V517.273C874.016 516.944 873.751 516.679 873.422 516.679H870.01V513.269C870.01 512.94 869.745 512.675 869.416 512.675H867.524C867.195 512.675 866.93 512.94 866.93 513.269V516.679H863.518C863.189 516.679 862.924 516.944 862.924 517.273V519.164C862.924 519.493 863.189 519.757 863.518 519.757H866.93V523.168C866.93 523.497 867.195 523.762 867.524 523.762H869.416C869.745 523.762 870.01 523.497 870.01 523.168V519.757H873.422C873.751 519.757 874.016 519.493 874.016 519.164Z" fill="white"/>
</mask>
<g mask="url(#mask12_168_487)">
<path d="M874.016 519.164V517.273C874.016 516.944 873.751 516.679 873.422 516.679H870.01V513.269C870.01 512.94 869.745 512.675 869.416 512.675H867.524C867.195 512.675 866.93 512.94 866.93 513.269V516.679H863.518C863.189 516.679 862.924 516.944 862.924 517.273V519.164C862.924 519.493 863.189 519.757 863.518 519.757H866.93V523.168C866.93 523.497 867.195 523.762 867.524 523.762H869.416C869.745 523.762 870.01 523.497 870.01 523.168V519.757H873.422C873.751 519.757 874.016 519.493 874.016 519.164Z" fill="black"/>
<path d="M874.809 511.883H862.132V524.554H874.809V511.883Z" fill="white"/>
</g>
<path d="M112.798 139.969H111.516L108.226 134.736V139.969H106.944V132.594H108.226L111.526 137.847V132.594H112.798V139.969Z" fill="#4D648D"/>
<path d="M115.504 139.969H114.273V134.488H115.504V139.969ZM114.197 133.065C114.197 132.876 114.256 132.719 114.374 132.594C114.496 132.469 114.668 132.406 114.891 132.406C115.114 132.406 115.286 132.469 115.408 132.594C115.53 132.719 115.591 132.876 115.591 133.065C115.591 133.25 115.53 133.406 115.408 133.531C115.286 133.652 115.114 133.713 114.891 133.713C114.668 133.713 114.496 133.652 114.374 133.531C114.256 133.406 114.197 133.25 114.197 133.065Z" fill="#4D648D"/>
<path d="M116.619 137.188C116.619 136.344 116.815 135.667 117.207 135.157C117.599 134.644 118.125 134.387 118.784 134.387C119.365 134.387 119.835 134.59 120.193 134.995V132.188H121.424V139.969H120.309L120.248 139.402C119.88 139.848 119.389 140.071 118.774 140.071C118.132 140.071 117.611 139.812 117.212 139.296C116.817 138.779 116.619 138.077 116.619 137.188ZM117.851 137.295C117.851 137.852 117.958 138.288 118.17 138.602C118.387 138.912 118.692 139.068 119.088 139.068C119.591 139.068 119.96 138.843 120.193 138.394V136.054C119.966 135.615 119.601 135.395 119.098 135.395C118.699 135.395 118.392 135.554 118.175 135.871C117.959 136.185 117.851 136.66 117.851 137.295Z" fill="#4D648D"/>
<path d="M124.019 139.969H122.788V134.488H124.019V139.969ZM122.712 133.065C122.712 132.876 122.771 132.719 122.889 132.594C123.011 132.469 123.183 132.406 123.406 132.406C123.629 132.406 123.801 132.469 123.923 132.594C124.045 132.719 124.106 132.876 124.106 133.065C124.106 133.25 124.045 133.406 123.923 133.531C123.801 133.652 123.629 133.713 123.406 133.713C123.183 133.713 123.011 133.652 122.889 133.531C122.771 133.406 122.712 133.25 122.712 133.065Z" fill="#4D648D"/>
<path d="M128.642 139.969C128.588 139.865 128.54 139.694 128.5 139.458C128.108 139.866 127.628 140.071 127.06 140.071C126.51 140.071 126.06 139.914 125.712 139.6C125.364 139.286 125.19 138.897 125.19 138.435C125.19 137.85 125.406 137.403 125.839 137.092C126.275 136.778 126.897 136.621 127.704 136.621H128.459V136.261C128.459 135.978 128.38 135.751 128.221 135.582C128.062 135.41 127.821 135.324 127.496 135.324C127.216 135.324 126.986 135.395 126.807 135.537C126.628 135.675 126.538 135.853 126.538 136.069H125.307C125.307 135.768 125.406 135.488 125.606 135.228C125.805 134.964 126.076 134.758 126.417 134.61C126.761 134.461 127.145 134.387 127.567 134.387C128.209 134.387 128.721 134.549 129.103 134.873C129.485 135.194 129.681 135.647 129.691 136.231V138.703C129.691 139.196 129.76 139.59 129.899 139.883V139.969H128.642ZM127.289 139.083C127.532 139.083 127.76 139.024 127.973 138.906C128.189 138.787 128.351 138.629 128.459 138.429V137.396H127.795C127.339 137.396 126.996 137.475 126.767 137.634C126.537 137.793 126.422 138.017 126.422 138.308C126.422 138.544 126.5 138.733 126.655 138.875C126.814 139.014 127.025 139.083 127.289 139.083Z" fill="#4D648D"/>
<path d="M136.285 138.364L138.16 132.594H139.569L136.914 139.969H135.672L133.026 132.594H134.43L136.285 138.364Z" fill="#4D648D"/>
<path d="M143.33 139.969C143.276 139.865 143.229 139.694 143.188 139.458C142.796 139.866 142.317 140.071 141.749 140.071C141.198 140.071 140.749 139.914 140.401 139.6C140.053 139.286 139.879 138.897 139.879 138.435C139.879 137.85 140.095 137.403 140.527 137.092C140.963 136.778 141.585 136.621 142.393 136.621H143.148V136.261C143.148 135.978 143.068 135.751 142.91 135.582C142.751 135.41 142.509 135.324 142.185 135.324C141.904 135.324 141.675 135.395 141.495 135.537C141.316 135.675 141.227 135.853 141.227 136.069H139.995C139.995 135.768 140.095 135.488 140.294 135.228C140.494 134.964 140.764 134.758 141.105 134.61C141.45 134.461 141.833 134.387 142.256 134.387C142.898 134.387 143.41 134.549 143.791 134.873C144.173 135.194 144.369 135.647 144.379 136.231V138.703C144.379 139.196 144.449 139.59 144.587 139.883V139.969H143.33ZM141.977 139.083C142.22 139.083 142.448 139.024 142.661 138.906C142.877 138.787 143.04 138.629 143.148 138.429V137.396H142.484C142.028 137.396 141.685 137.475 141.455 137.634C141.225 137.793 141.11 138.017 141.11 138.308C141.11 138.544 141.188 138.733 141.343 138.875C141.502 139.014 141.713 139.083 141.977 139.083Z" fill="#4D648D"/>
<path d="M146.979 139.969H145.748V132.188H146.979V139.969Z" fill="#4D648D"/>
<path d="M148.095 137.188C148.095 136.344 148.291 135.667 148.682 135.157C149.074 134.644 149.6 134.387 150.259 134.387C150.84 134.387 151.31 134.59 151.668 134.995V132.188H152.899V139.969H151.784L151.724 139.402C151.355 139.848 150.864 140.071 150.249 140.071C149.607 140.071 149.086 139.812 148.688 139.296C148.292 138.779 148.095 138.077 148.095 137.188ZM149.326 137.295C149.326 137.852 149.433 138.288 149.645 138.602C149.862 138.912 150.168 139.068 150.563 139.068C151.066 139.068 151.435 138.843 151.668 138.394V136.054C151.441 135.615 151.076 135.395 150.573 135.395C150.174 135.395 149.867 135.554 149.651 135.871C149.434 136.185 149.326 136.66 149.326 137.295Z" fill="#4D648D"/>
<path d="M156.599 140.071C155.819 140.071 155.185 139.826 154.699 139.336C154.216 138.843 153.974 138.188 153.974 137.371V137.219C153.974 136.672 154.079 136.184 154.288 135.755C154.501 135.322 154.798 134.986 155.18 134.747C155.562 134.507 155.988 134.387 156.457 134.387C157.204 134.387 157.78 134.625 158.186 135.101C158.595 135.577 158.799 136.251 158.799 137.122V137.619H155.216C155.253 138.071 155.403 138.429 155.667 138.693C155.934 138.956 156.268 139.088 156.67 139.088C157.235 139.088 157.694 138.86 158.049 138.404L158.713 139.037C158.493 139.365 158.199 139.62 157.831 139.802C157.466 139.981 157.056 140.071 156.599 140.071ZM156.452 135.375C156.115 135.375 155.841 135.493 155.631 135.729C155.425 135.966 155.293 136.295 155.236 136.717H157.583V136.626C157.556 136.214 157.446 135.903 157.253 135.694C157.061 135.481 156.794 135.375 156.452 135.375ZM156.731 132.188H158.135L156.731 133.723H155.743L156.731 132.188Z" fill="#4D648D"/>
<path d="M162.834 138.48C162.834 138.261 162.742 138.093 162.56 137.979C162.381 137.864 162.082 137.762 161.663 137.675C161.244 137.587 160.894 137.475 160.614 137.34C159.999 137.043 159.691 136.613 159.691 136.049C159.691 135.576 159.891 135.181 160.289 134.863C160.688 134.546 161.195 134.387 161.81 134.387C162.465 134.387 162.994 134.549 163.396 134.873C163.802 135.197 164.004 135.618 164.004 136.135H162.773C162.773 135.898 162.685 135.702 162.509 135.547C162.334 135.388 162.1 135.309 161.81 135.309C161.539 135.309 161.318 135.371 161.146 135.496C160.977 135.621 160.892 135.788 160.892 135.998C160.892 136.187 160.972 136.334 161.131 136.439C161.289 136.543 161.61 136.65 162.094 136.758C162.577 136.862 162.955 136.989 163.229 137.138C163.506 137.283 163.71 137.459 163.842 137.665C163.977 137.871 164.045 138.12 164.045 138.414C164.045 138.907 163.841 139.308 163.432 139.615C163.023 139.919 162.487 140.071 161.825 140.071C161.376 140.071 160.975 139.99 160.624 139.828C160.272 139.666 159.999 139.443 159.803 139.159C159.607 138.875 159.509 138.57 159.509 138.242H160.705C160.722 138.532 160.832 138.757 161.034 138.916C161.237 139.071 161.506 139.149 161.84 139.149C162.165 139.149 162.411 139.088 162.58 138.966C162.749 138.841 162.834 138.679 162.834 138.48Z" fill="#4D648D"/>
<defs>
<filter id="filter0_d_168_487" x="0.499451" y="0.499268" width="974.001" height="667.002" filterUnits="userSpaceOnUse" color-interpolation-filters="sRGB">
<feFlood flood-opacity="0" result="BackgroundImageFix"/>
<feColorMatrix in="SourceAlpha" type="matrix" values="0 0 0 0 0 0 0 0 0 0 0 0 0 0 0 0 0 0 127 0" result="hardAlpha"/>
<feOffset dx="4" dy="4"/>
<feGaussianBlur stdDeviation="9"/>
<feColorMatrix type="matrix" values="0 0 0 0 0.321569 0 0 0 0 0.392157 0 0 0 0 0.541176 0 0 0 0.3 0"/>
<feBlend mode="normal" in2="BackgroundImageFix" result="effect1_dropShadow_168_487"/>
<feBlend mode="normal" in="SourceGraphic" in2="effect1_dropShadow_168_487" result="shape"/>
</filter>
<filter id="filter1_d_168_487" x="0" y="0" width="975" height="668" filterUnits="userSpaceOnUse" color-interpolation-filters="sRGB">
<feFlood flood-opacity="0" result="BackgroundImageFix"/>
<feColorMatrix in="SourceAlpha" type="matrix" values="0 0 0 0 0 0 0 0 0 0 0 0 0 0 0 0 0 0 127 0" result="hardAlpha"/>
<feOffset dx="4" dy="4"/>
<feGaussianBlur stdDeviation="9"/>
<feColorMatrix type="matrix" values="0 0 0 0 0.321569 0 0 0 0 0.392157 0 0 0 0 0.541176 0 0 0 0.3 0"/>
<feBlend mode="normal" in2="BackgroundImageFix" result="effect1_dropShadow_168_487"/>
<feBlend mode="normal" in="SourceGraphic" in2="effect1_dropShadow_168_487" result="shape"/>
</filter>
<filter id="filter2_d_168_487" x="214.646" y="235.378" width="436.471" height="90.4222" filterUnits="userSpaceOnUse" color-interpolation-filters="sRGB">
<feFlood flood-opacity="0" result="BackgroundImageFix"/>
<feColorMatrix in="SourceAlpha" type="matrix" values="0 0 0 0 0 0 0 0 0 0 0 0 0 0 0 0 0 0 127 0" result="hardAlpha"/>
<feOffset dy="2"/>
<feGaussianBlur stdDeviation="2"/>
<feColorMatrix type="matrix" values="0 0 0 0 0 0 0 0 0 0 0 0 0 0 0 0 0 0 0.0285457 0"/>
<feBlend mode="normal" in2="BackgroundImageFix" result="effect1_dropShadow_168_487"/>
<feBlend mode="normal" in="SourceGraphic" in2="effect1_dropShadow_168_487" result="shape"/>
</filter>
<filter id="filter3_d_168_487" x="214.646" y="342.008" width="436.471" height="35.0898" filterUnits="userSpaceOnUse" color-interpolation-filters="sRGB">
<feFlood flood-opacity="0" result="BackgroundImageFix"/>
<feColorMatrix in="SourceAlpha" type="matrix" values="0 0 0 0 0 0 0 0 0 0 0 0 0 0 0 0 0 0 127 0" result="hardAlpha"/>
<feOffset dy="2"/>
<feGaussianBlur stdDeviation="2"/>
<feColorMatrix type="matrix" values="0 0 0 0 0 0 0 0 0 0 0 0 0 0 0 0 0 0 0.0285457 0"/>
<feBlend mode="normal" in2="BackgroundImageFix" result="effect1_dropShadow_168_487"/>
<feBlend mode="normal" in="SourceGraphic" in2="effect1_dropShadow_168_487" result="shape"/>
</filter>
<filter id="filter4_d_168_487" x="191.842" y="156.823" width="486.692" height="62.819" filterUnits="userSpaceOnUse" color-interpolation-filters="sRGB">
<feFlood flood-opacity="0" result="BackgroundImageFix"/>
<feColorMatrix in="SourceAlpha" type="matrix" values="0 0 0 0 0 0 0 0 0 0 0 0 0 0 0 0 0 0 127 0" result="hardAlpha"/>
<feOffset dy="1"/>
<feGaussianBlur stdDeviation="8.5"/>
<feColorMatrix type="matrix" values="0 0 0 0 0 0 0 0 0 0 0 0 0 0 0 0 0 0 0.145542 0"/>
<feBlend mode="normal" in2="BackgroundImageFix" result="effect1_dropShadow_168_487"/>
<feBlend mode="normal" in="SourceGraphic" in2="effect1_dropShadow_168_487" result="shape"/>
</filter>
<filter id="filter5_d_168_487" x="571.609" y="174.858" width="85.2747" height="28.7496" filterUnits="userSpaceOnUse" color-interpolation-filters="sRGB">
<feFlood flood-opacity="0" result="BackgroundImageFix"/>
<feColorMatrix in="SourceAlpha" type="matrix" values="0 0 0 0 0 0 0 0 0 0 0 0 0 0 0 0 0 0 127 0" result="hardAlpha"/>
<feOffset dy="2"/>
<feGaussianBlur stdDeviation="2"/>
<feColorMatrix type="matrix" values="0 0 0 0 0 0 0 0 0 0 0 0 0 0 0 0 0 0 0.131529 0"/>
<feBlend mode="normal" in2="BackgroundImageFix" result="effect1_dropShadow_168_487"/>
<feBlend mode="normal" in="SourceGraphic" in2="effect1_dropShadow_168_487" result="shape"/>
</filter>
<filter id="filter6_d_168_487" x="650.878" y="156.823" width="253.137" height="62.819" filterUnits="userSpaceOnUse" color-interpolation-filters="sRGB">
<feFlood flood-opacity="0" result="BackgroundImageFix"/>
<feColorMatrix in="SourceAlpha" type="matrix" values="0 0 0 0 0 0 0 0 0 0 0 0 0 0 0 0 0 0 127 0" result="hardAlpha"/>
<feOffset dy="1"/>
<feGaussianBlur stdDeviation="8.5"/>
<feColorMatrix type="matrix" values="0 0 0 0 0 0 0 0 0 0 0 0 0 0 0 0 0 0 0.145542 0"/>
<feBlend mode="normal" in2="BackgroundImageFix" result="effect1_dropShadow_168_487"/>
<feBlend mode="normal" in="SourceGraphic" in2="effect1_dropShadow_168_487" result="shape"/>
</filter>
<filter id="filter7_d_168_487" x="54.0168" y="100.338" width="849.998" height="80.1104" filterUnits="userSpaceOnUse" color-interpolation-filters="sRGB">
<feFlood flood-opacity="0" result="BackgroundImageFix"/>
<feColorMatrix in="SourceAlpha" type="matrix" values="0 0 0 0 0 0 0 0 0 0 0 0 0 0 0 0 0 0 127 0" result="hardAlpha"/>
<feOffset dy="1"/>
<feGaussianBlur stdDeviation="8.5"/>
<feColorMatrix type="matrix" values="0 0 0 0 0 0 0 0 0 0 0 0 0 0 0 0 0 0 0.145542 0"/>
<feBlend mode="normal" in2="BackgroundImageFix" result="effect1_dropShadow_168_487"/>
<feBlend mode="normal" in="SourceGraphic" in2="effect1_dropShadow_168_487" result="shape"/>
</filter>
<filter id="filter8_d_168_487" x="53.4399" y="156.823" width="166.636" height="62.819" filterUnits="userSpaceOnUse" color-interpolation-filters="sRGB">
<feFlood flood-opacity="0" result="BackgroundImageFix"/>
<feColorMatrix in="SourceAlpha" type="matrix" values="0 0 0 0 0 0 0 0 0 0 0 0 0 0 0 0 0 0 127 0" result="hardAlpha"/>
<feOffset dy="1"/>
<feGaussianBlur stdDeviation="8.5"/>
<feColorMatrix type="matrix" values="0 0 0 0 0 0 0 0 0 0 0 0 0 0 0 0 0 0 0.145542 0"/>
<feBlend mode="normal" in2="BackgroundImageFix" result="effect1_dropShadow_168_487"/>
<feBlend mode="normal" in="SourceGraphic" in2="effect1_dropShadow_168_487" result="shape"/>
</filter>
<filter id="filter9_d_168_487" x="670.221" y="211.746" width="212.72" height="28.7496" filterUnits="userSpaceOnUse" color-interpolation-filters="sRGB">
<feFlood flood-opacity="0" result="BackgroundImageFix"/>
<feColorMatrix in="SourceAlpha" type="matrix" values="0 0 0 0 0 0 0 0 0 0 0 0 0 0 0 0 0 0 127 0" result="hardAlpha"/>
<feOffset dy="2"/>
<feGaussianBlur stdDeviation="2"/>
<feColorMatrix type="matrix" values="0 0 0 0 0 0 0 0 0 0 0 0 0 0 0 0 0 0 0.0933949 0"/>
<feBlend mode="normal" in2="BackgroundImageFix" result="effect1_dropShadow_168_487"/>
<feBlend mode="normal" in="SourceGraphic" in2="effect1_dropShadow_168_487" result="shape"/>
</filter>
<filter id="filter10_d_168_487" x="670.221" y="235.378" width="212.72" height="28.7496" filterUnits="userSpaceOnUse" color-interpolation-filters="sRGB">
<feFlood flood-opacity="0" result="BackgroundImageFix"/>
<feColorMatrix in="SourceAlpha" type="matrix" values="0 0 0 0 0 0 0 0 0 0 0 0 0 0 0 0 0 0 127 0" result="hardAlpha"/>
<feOffset dy="2"/>
<feGaussianBlur stdDeviation="2"/>
<feColorMatrix type="matrix" values="0 0 0 0 0 0 0 0 0 0 0 0 0 0 0 0 0 0 0.0933949 0"/>
<feBlend mode="normal" in2="BackgroundImageFix" result="effect1_dropShadow_168_487"/>
<feBlend mode="normal" in="SourceGraphic" in2="effect1_dropShadow_168_487" result="shape"/>
</filter>
<linearGradient id="paint0_linear_168_487" x1="483.5" y1="330" x2="809.653" y2="962.514" gradientUnits="userSpaceOnUse">
<stop stop-color="white"/>
<stop offset="1" stop-color="#EDF3FC"/>
</linearGradient>
<linearGradient id="paint1_linear_168_487" x1="483.5" y1="330" x2="810.266" y2="963.378" gradientUnits="userSpaceOnUse">
<stop stop-color="white"/>
<stop offset="1" stop-color="#EDF3FC"/>
</linearGradient>
<linearGradient id="paint2_linear_168_487" x1="47.8582" y1="46.0609" x2="568.772" y2="843.771" gradientUnits="userSpaceOnUse">
<stop stop-color="#7DB8FF"/>
<stop offset="0.0621" stop-color="#7CB6FF"/>
<stop offset="1" stop-color="#7194FF"/>
</linearGradient>
<linearGradient id="paint3_linear_168_487" x1="172.715" y1="186.99" x2="318.444" y2="256.799" gradientUnits="userSpaceOnUse">
<stop stop-color="#A1C0FF"/>
<stop offset="1" stop-color="#7093FF"/>
</linearGradient>
<linearGradient id="paint4_linear_168_487" x1="650.562" y1="186.199" x2="695.057" y2="230.169" gradientUnits="userSpaceOnUse">
<stop stop-color="#A1C0FF"/>
<stop offset="1" stop-color="#7093FF"/>
</linearGradient>
<linearGradient id="paint5_linear_168_487" x1="60.0917" y1="184.41" x2="76.1283" y2="210.549" gradientUnits="userSpaceOnUse">
<stop stop-color="#A1C0FF"/>
<stop offset="1" stop-color="#7093FF"/>
</linearGradient>
<linearGradient id="paint6_linear_168_487" x1="743.314" y1="209.153" x2="743.609" y2="219.859" gradientUnits="userSpaceOnUse">
<stop stop-color="#7093FF"/>
<stop offset="1" stop-color="#243F6D"/>
</linearGradient>
<linearGradient id="paint7_linear_168_487" x1="743.314" y1="232.785" x2="743.609" y2="243.49" gradientUnits="userSpaceOnUse">
<stop stop-color="#7093FF"/>
<stop offset="1" stop-color="#243F6D"/>
</linearGradient>
<clipPath id="clip0_168_487">
<rect width="17.7362" height="20.5261" fill="white" transform="translate(867.278 57.8742)"/>
</clipPath>
</defs>
</svg>
