<svg width="318" height="364" viewBox="0 0 318 364" fill="none" xmlns="http://www.w3.org/2000/svg">
<path d="M90.4475 220.602C90.4475 233.611 90.4475 246.165 90.4475 258.719C90.4475 263.289 86.5979 264.01 83.6775 265.641C62.7796 277.285 55.8579 301.217 67.5016 321.659C78.3297 340.642 103.058 347.014 122.837 335.654C136.131 328.012 141.782 315.951 141.952 300.97C142.142 285.268 135.277 273.264 121.548 266.248C114.683 262.739 112.9 258.568 113.223 251.513C113.735 240.23 113.355 228.927 113.355 216.848H203.527V256.823C187.086 262.512 174.873 273.435 171.194 291.261C168.445 304.573 169.867 318.341 170.587 331.862C170.91 337.778 175.461 341.495 181.833 340.945C189.513 340.281 198.995 344.548 203.641 334.403C206.979 327.121 203.489 321.583 193.458 317.317C193.173 310.509 192.528 303.568 193.97 296.703C196.492 284.737 206.391 277.379 218.053 278.631C230.114 279.92 237.832 288.473 238.022 300.913C238.117 306.261 238.022 311.628 238.022 316.975C235.405 318.416 232.579 319.308 230.664 321.147C227.326 324.371 225.828 328.448 227.63 333.189C229.337 337.683 232.124 340.775 237.225 340.964C240.07 341.078 242.915 341.021 245.759 341.021C258.484 341.002 261.442 338.177 261.707 325.661C261.802 320.616 261.442 315.534 261.783 310.509C263.528 284.415 253.42 265.755 227.801 256.652V220.375C245.114 223.712 259.678 231.431 272.801 241.671C305.399 267.139 318.864 301.539 317.953 342.102C317.669 354.827 308.642 363.246 295.899 363.265C204.608 363.36 113.318 363.341 22.008 363.265C10.1747 363.265 0.768778 355.471 0.180908 343.904C-2.81533 285.003 31.6604 237.196 84.7394 221.494C86.2186 221.058 87.7926 221.001 90.4285 220.602H90.4475Z" fill="#7093FF"/>
<path d="M243.995 60.3602C263.963 109.457 232.996 167.163 180.163 179.319C130.137 190.83 82.1026 161.303 70.3452 111.467C67.0834 97.6805 65.9646 83.6665 71.0279 69.8989C76.6411 75.1708 83.468 76.9154 90.9586 76.7448C105.086 76.4034 119.157 77.0482 133.323 75.2087C149.518 73.0848 162.432 65.9355 173.26 54.1971C182.875 43.7861 182.989 43.7102 192.964 53.2299C205.271 64.9873 220.556 65.6131 236.182 65.2149C239.766 65.1201 241.472 62.1238 243.995 60.3792V60.3602Z" fill="#D5DFFE"/>
<path d="M243.995 60.3603V67.6233C220.821 68.9508 199.013 68.6284 184.544 47.8822C181.377 47.5788 180.562 49.4941 179.462 50.9543C167.61 66.5424 152.306 75.6828 132.546 77.7688C114.284 79.6841 96.1549 79.9686 77.9119 77.7499C72.659 77.1051 70.6489 74.8484 71.0281 69.8989C81.7046 29.0135 114.075 1.45944 155.947 0.0561373C192.167 -1.15753 228.027 17.2561 244.014 60.3603H243.995Z" fill="#7093FF"/>
<path d="M101.769 318.037C92.8937 317.753 85.1566 309.447 85.5358 300.591C85.9151 291.431 93.9177 284.073 103.02 284.529C112.199 284.984 119.215 292.948 118.684 302.297C118.172 310.926 110.245 318.322 101.788 318.056L101.769 318.037Z" fill="#D5DFFE"/>
</svg>
