<svg width="400" height="500" viewBox="0 0 400 500" fill="none" xmlns="http://www.w3.org/2000/svg">
<rect width="400" height="500" fill="#F0F4FF"/>
<path d="M157.094 255.313V262.542H136.205V227.14H154.949C158.591 232.985 163.85 237.192 170.405 239.688C177.363 242.334 184.495 243.053 191.752 241.138C193.739 240.612 195.764 239.898 196.744 237.623C195.47 235.437 193.244 234.712 191.142 234.031C181.746 230.981 172.322 228.026 162.881 225.12C155.14 222.734 148.04 219.308 142.346 213.242C130.047 200.146 132.927 172.438 157.285 166.051C172.305 162.11 186.765 164.047 200.436 171.603C200.898 171.857 201.361 172.128 202.112 172.555C202.172 171.464 202.232 170.601 202.254 169.737C202.276 168.83 202.254 167.922 202.254 166.837H222.343V199.953H203.784C196.009 190.189 185.508 186.154 173.318 185.905C171.309 185.866 169.344 186.171 167.438 186.84C165.93 187.372 164.656 188.169 164.074 189.879C164.449 192.486 166.513 193.444 168.554 194.102C175.196 196.244 181.887 198.22 188.562 200.246C194.975 202.194 201.535 203.722 207.502 206.949C215.875 211.476 222.648 217.526 224.956 227.339C228.305 241.564 221.984 254.654 208.722 260.438C192.356 267.578 176.367 265.951 160.878 257.422C159.784 256.819 158.689 256.204 157.089 255.313H157.094Z" fill="#243F6D"/>
<path d="M129.53 262.713H69.3226V239.212H82.8134V188.717H69.3063V165.309H129.552V188.573H115.909V239.073H129.525V262.719L129.53 262.713Z" fill="#243F6D"/>
<path d="M330.1 205.759C327.683 187.947 318.918 174.785 302.15 168.082C286.939 162 271.461 162.238 256.184 167.894C242.917 172.809 234.456 182.584 230.624 196.311C227.499 207.508 227.286 218.915 230.068 230.207C233.711 244.99 242.65 255.186 256.696 260.726C264.073 263.638 271.744 264.662 279.36 264.828C284.385 264.645 289.182 264.412 293.896 263.35C310.697 259.564 322.87 250.287 328.195 233.107C330.966 224.173 331.347 214.985 330.095 205.753L330.1 205.759ZM295.66 216.469C295.345 221.605 295.23 226.764 293.662 231.74C292.024 236.931 288.735 239.771 283.264 240.33C271.08 241.575 266.3 238.061 264.672 225.662C263.469 216.502 263.447 207.281 265.341 198.181C266.686 191.733 269.74 189.137 276.121 188.473C288.882 187.139 293.891 191.418 295.208 204.884C295.584 208.731 295.883 212.594 295.66 216.474V216.469Z" fill="#243F6D"/>
<path d="M283.482 274.027C277.221 283.253 269.86 291.406 261.084 298.292C256.898 294.982 252.499 292.436 247.964 289.812C252.221 284.615 256.44 279.617 260.213 274.06C258.738 273.739 257.507 273.794 256.277 274.016C252.602 278.848 248.976 283.685 244.8 288.285C238.823 285.445 232.633 283.215 226.192 281.416C227.232 278.886 228.201 276.523 229.192 274.104C227.967 273.706 226.911 273.805 225.778 274.005C224.831 276.152 223.873 278.311 222.866 280.591C214.405 278.682 205.989 277.752 197.463 277.591C197.392 276.202 197.338 275.128 197.283 274.049C196.156 273.8 195.209 273.667 194.197 274.182C194.131 275.272 194.066 276.351 193.984 277.658C185.404 277.807 177.009 278.991 168.571 280.967C167.493 278.56 166.458 276.241 165.462 274.016H162.021C163.137 276.739 164.161 279.241 165.25 281.897C158.793 283.696 152.831 286.076 146.995 288.866C142.558 284.078 138.731 278.942 134.887 273.949H130.913C135.007 279.794 139.33 285.063 143.876 290.465C139.651 292.917 135.698 295.441 131.92 298.236C123.03 291.251 115.691 283.032 109.463 273.894H105.189C130.869 309.888 164.515 327.632 207.747 323.492C241.773 320.232 267.966 302.747 287.527 274.06C285.817 273.772 284.663 273.755 283.487 274.01L283.482 274.027ZM224.624 284.549C230.733 285.982 236.514 288.119 242.459 290.886C235.11 298.807 226.492 304.657 217.922 310.474C215.331 309.434 212.908 308.459 210.235 307.391C215.429 300.063 220.574 292.768 224.624 284.549ZM197.572 281.056C205.608 280.962 213.349 281.986 221.314 283.707C217.198 292.054 211.966 299.277 206.691 306.644C203.68 306.107 200.73 305.83 197.572 305.753V281.056ZM193.946 281.045V305.67C191.033 306.068 188.05 306.157 184.952 307.065C179.535 299.853 174.423 292.436 170.041 284.061C178.131 282.229 185.889 281.122 193.946 281.045ZM166.785 284.914C170.928 293.1 176.073 300.528 181.403 307.856C178.958 308.919 176.721 309.893 174.184 311C165.604 305.31 156.947 299.404 149.385 291.528C155.129 288.595 160.802 286.624 166.79 284.919L166.785 284.914ZM134.773 300.423C138.437 297.439 142.221 295.22 146.228 293.061C153.572 300.877 162.195 306.937 171.07 312.965C169.714 314.172 168.435 315.306 166.975 316.601C155.319 313.076 144.692 307.801 134.767 300.423H134.773ZM170.993 317.703C183.836 305.703 211.253 306.843 221.918 317.753C204.884 321.992 188.072 322.009 170.993 317.703ZM226.154 316.585C224.417 315.112 222.828 313.773 221.14 312.339C229.856 306.334 238.404 300.312 245.574 292.441C250.114 294.644 254.197 297.268 258.378 300.351C248.464 307.757 237.826 313.02 226.159 316.585H226.154Z" fill="#243F6D"/>
<path d="M195.095 104.027C156.947 104.885 127.472 122.331 105.369 154.245H109.512C115.936 144.814 123.471 136.434 132.525 129.504C136.227 132.249 139.929 134.563 143.87 136.832C139.145 142.456 134.577 148.063 130.271 154.251H134.234C138.372 148.843 142.351 143.386 147.077 138.421C153 141.432 159.054 143.546 165.239 145.511C164.008 148.494 162.86 151.267 161.684 154.118C163.001 154.4 164.052 154.505 165.13 154.101C166.42 151.583 167.133 148.788 168.799 146.363C177.074 148.456 185.437 149.352 193.761 149.706C194.507 151.267 193.668 152.839 194.414 154.212C195.4 154.317 196.374 154.627 197.24 154.024C197.61 152.629 197.033 151.201 197.746 149.723C206.136 149.535 214.487 148.611 222.855 146.751C224.025 149.385 225.131 151.865 226.209 154.278C227.395 154.312 228.375 154.561 229.519 154.007C228.419 151.334 227.33 148.682 226.181 145.882C232.78 144.122 238.839 141.775 244.795 139.096C249.346 144.022 253.152 149.28 256.99 154.19H260.899C256.816 148.218 252.341 142.932 247.942 137.458C252.488 135.05 256.593 132.377 260.692 129.449C263.262 131.712 265.777 133.827 268.173 136.074C273.992 141.526 279.05 147.664 283.493 154.201H287.091C271.64 128.391 238.017 103.064 195.095 104.027ZM146.293 134.253C142.471 132.327 138.954 130.085 135.29 127.406C145.21 120.061 155.918 114.836 167.645 111.399C168.897 112.451 169.926 113.314 171.097 114.294C162.299 120.366 153.572 126.338 146.293 134.253ZM166.812 142.317C160.709 140.817 155.102 138.587 149.325 135.847C156.789 127.982 165.5 122.137 174.129 116.309C176.552 117.355 178.784 118.323 181.337 119.43C176.1 126.842 170.923 134.186 166.812 142.312V142.317ZM193.952 146.258C185.889 146.092 178.109 145.234 170.106 143.192C174.309 134.95 179.475 127.633 184.805 120.421C187.925 120.869 190.865 121.296 193.952 121.738V146.258ZM171.99 110.226C188.366 106.268 204.628 106.263 221.287 110.281C207.829 121.766 181.669 119.973 171.99 110.226ZM197.518 146.275V121.821C200.512 121.462 203.441 121.113 206.637 120.731C211.966 127.838 217.089 135.227 221.341 143.574C213.311 145.428 205.542 146.242 197.523 146.269L197.518 146.275ZM224.684 142.832C220.601 134.712 215.549 127.34 210.17 119.906C212.859 118.844 215.331 117.864 217.901 116.851C226.497 122.641 235.044 128.508 242.449 136.4C236.618 139.234 230.814 141.188 224.684 142.838V142.832ZM245.563 134.912C238.447 126.991 229.785 120.986 221.075 114.897C222.561 113.696 223.835 112.672 225.37 111.432C236.988 114.676 247.735 120.067 257.763 127.367C253.838 130.306 249.896 132.703 245.563 134.906V134.912Z" fill="#243F6D"/>
<path d="M87.735 395.303H65V391.865L74.1082 382.556C76.8847 379.7 78.714 377.663 79.5959 376.445C80.4779 375.227 81.1421 374.037 81.583 372.886C82.024 371.729 82.2473 370.489 82.2473 369.155C82.2473 367.279 81.6865 365.79 80.565 364.694C79.4435 363.598 77.8919 363.045 75.9047 363.045C74.4675 363.045 73.1064 363.283 71.8216 363.764C70.5367 364.246 69.1049 365.121 67.5261 366.388L65.4464 363.67C68.6313 360.975 72.1047 359.63 75.8558 359.63C79.106 359.63 81.6538 360.477 83.4994 362.165C85.345 363.859 86.2651 366.128 86.2651 368.984C86.2651 371.214 85.6499 373.417 84.4195 375.598C83.1891 377.779 80.8862 380.535 77.5108 383.873L69.9379 391.4V391.594H87.7296V395.297L87.735 395.303Z" fill="#243F6D"/>
<path d="M97.0827 395.303L111.417 363.82H92.5586V360.139H115.577V363.338L101.427 395.303H97.0718H97.0827Z" fill="#243F6D"/>
<path d="M143.337 377.674C143.337 383.751 142.395 388.29 140.511 391.29C138.627 394.29 135.742 395.79 131.866 395.79C127.989 395.79 125.311 394.256 123.373 391.185C121.435 388.113 120.46 383.613 120.46 377.679C120.46 371.746 121.396 367.008 123.275 364.041C125.153 361.075 128.017 359.591 131.86 359.591C135.704 359.591 138.464 361.141 140.413 364.235C142.362 367.329 143.337 371.812 143.337 377.679V377.674ZM124.434 377.674C124.434 382.788 125.028 386.513 126.209 388.849C127.391 391.179 129.274 392.347 131.866 392.347C134.457 392.347 136.379 391.162 137.555 388.799C138.731 386.436 139.319 382.727 139.319 377.674C139.319 372.62 138.731 368.923 137.555 366.571C136.379 364.218 134.484 363.045 131.866 363.045C129.247 363.045 127.396 364.202 126.209 366.521C125.022 368.84 124.434 372.554 124.434 377.668V377.674Z" fill="#243F6D"/>
<path d="M171.037 377.674C171.037 383.751 170.095 388.29 168.211 391.29C166.328 394.29 163.442 395.79 159.566 395.79C155.69 395.79 153.011 394.256 151.073 391.185C149.135 388.113 148.16 383.613 148.16 377.679C148.16 371.746 149.097 367.008 150.975 364.041C152.853 361.075 155.717 359.591 159.561 359.591C163.404 359.591 166.164 361.141 168.113 364.235C170.062 367.329 171.037 371.812 171.037 377.679V377.674ZM152.135 377.674C152.135 382.788 152.728 386.513 153.909 388.849C155.091 391.179 156.975 392.347 159.566 392.347C162.157 392.347 164.079 391.162 165.255 388.799C166.431 386.436 167.019 382.727 167.019 377.674C167.019 372.62 166.431 368.923 165.255 366.571C164.079 364.218 162.185 363.045 159.566 363.045C156.947 363.045 155.096 364.202 153.909 366.521C152.723 368.84 152.135 372.554 152.135 377.668V377.674Z" fill="#243F6D"/>
<path d="M190.369 395.303H186.537V370.24C186.537 368.154 186.602 366.183 186.727 364.324C186.395 364.661 186.025 365.015 185.616 365.381C185.208 365.752 183.33 367.312 179.987 370.069L177.907 367.323L187.065 360.134H190.375V395.297L190.369 395.303Z" fill="#243F6D"/>
<path d="M217.34 371.513C217.34 369.349 218.271 368.264 220.133 368.264C221.995 368.264 223.046 369.349 223.046 371.513C223.046 372.554 222.784 373.357 222.267 373.921C221.744 374.48 221.037 374.762 220.138 374.762C219.333 374.762 218.668 374.508 218.14 374.004C217.612 373.501 217.345 372.67 217.345 371.513H217.34ZM217.34 392.751C217.34 391.677 217.58 390.864 218.064 390.31C218.543 389.757 219.235 389.48 220.133 389.48C221.031 389.48 221.761 389.757 222.272 390.31C222.784 390.864 223.04 391.677 223.04 392.751C223.04 393.825 222.779 394.594 222.262 395.159C221.744 395.723 221.031 396 220.133 396C219.327 396 218.663 395.745 218.135 395.242C217.607 394.738 217.34 393.908 217.34 392.751Z" fill="#243F6D"/>
<path d="M251.742 395.303H229.007V391.865L238.115 382.556C240.892 379.7 242.721 377.663 243.603 376.445C244.485 375.227 245.149 374.037 245.59 372.886C246.031 371.729 246.254 370.489 246.254 369.156C246.254 367.279 245.693 365.79 244.572 364.694C243.45 363.598 241.899 363.045 239.912 363.045C238.474 363.045 237.113 363.283 235.828 363.765C234.544 364.246 233.112 365.121 231.533 366.388L229.453 363.67C232.638 360.975 236.112 359.63 239.863 359.63C243.113 359.63 245.661 360.477 247.506 362.165C249.352 363.859 250.272 366.128 250.272 368.984C250.272 371.215 249.657 373.417 248.426 375.598C247.196 377.779 244.893 380.535 241.518 383.873L233.945 391.4V391.594H251.736V395.297L251.742 395.303Z" fill="#243F6D"/>
<path d="M279.633 377.674C279.633 383.751 278.691 388.29 276.807 391.29C274.923 394.29 272.038 395.79 268.162 395.79C264.285 395.79 261.607 394.256 259.669 391.185C257.73 388.113 256.756 383.613 256.756 377.679C256.756 371.746 257.692 367.008 259.571 364.041C261.449 361.075 264.313 359.591 268.156 359.591C272 359.591 274.76 361.141 276.709 364.235C278.658 367.329 279.633 371.812 279.633 377.679V377.674ZM260.73 377.674C260.73 382.788 261.324 386.513 262.505 388.849C263.686 391.179 265.57 392.347 268.162 392.347C270.753 392.347 272.675 391.162 273.851 388.799C275.027 386.436 275.615 382.727 275.615 377.674C275.615 372.62 275.027 368.923 273.851 366.571C272.675 364.218 270.78 363.045 268.162 363.045C265.543 363.045 263.692 364.202 262.505 366.521C261.324 368.84 260.73 372.554 260.73 377.668V377.674Z" fill="#243F6D"/>
<path d="M298.965 395.303H295.132V370.24C295.132 368.154 295.198 366.183 295.323 364.324C294.991 364.661 294.621 365.015 294.212 365.381C293.804 365.752 291.926 367.312 288.583 370.069L286.503 367.323L295.66 360.134H298.97V395.297L298.965 395.303Z" fill="#243F6D"/>
<path d="M333.552 368.408C333.552 370.656 332.931 372.488 331.696 373.916C330.454 375.344 328.701 376.296 326.431 376.777V376.971C329.208 377.325 331.266 378.222 332.605 379.666C333.944 381.111 334.614 383.004 334.614 385.345C334.614 388.699 333.47 391.273 331.184 393.078C328.897 394.882 325.647 395.784 321.439 395.784C319.609 395.784 317.933 395.646 316.414 395.363C314.889 395.081 313.414 394.589 311.977 393.886V390.083C313.474 390.836 315.074 391.412 316.768 391.805C318.461 392.197 320.067 392.397 321.58 392.397C327.558 392.397 330.547 390.017 330.547 385.251C330.547 380.984 327.248 378.853 320.655 378.853H317.247V375.416H320.698C323.393 375.416 325.533 374.812 327.112 373.6C328.69 372.388 329.48 370.711 329.48 368.563C329.48 366.847 328.903 365.503 327.743 364.523C326.583 363.543 325.01 363.056 323.023 363.056C321.51 363.056 320.083 363.266 318.738 363.682C317.399 364.097 315.869 364.866 314.149 365.99L312.162 363.294C313.583 362.154 315.216 361.263 317.072 360.615C318.923 359.968 320.878 359.641 322.925 359.641C326.284 359.641 328.897 360.421 330.754 361.988C332.616 363.554 333.547 365.696 333.547 368.419L333.552 368.408Z" fill="#243F6D"/>
</svg>
