<svg width="400" height="500" viewBox="0 0 400 500" fill="none" xmlns="http://www.w3.org/2000/svg">
<rect width="400" height="500" fill="#F0F4FF"/>
<path d="M156.251 255.313V262.542H135.013V227.14H154.07C157.773 232.985 163.12 237.192 169.784 239.688C176.857 242.334 184.108 243.053 191.486 241.138C193.506 240.612 195.565 239.898 196.562 237.623C195.267 235.437 193.003 234.712 190.866 234.031C181.313 230.981 171.732 228.026 162.134 225.12C154.264 222.734 147.046 219.308 141.257 213.242C128.753 200.146 131.681 172.438 156.445 166.051C171.715 162.11 186.416 164.047 200.314 171.603C200.785 171.857 201.255 172.128 202.019 172.555C202.08 171.464 202.141 170.601 202.163 169.737C202.185 168.83 202.163 167.922 202.163 166.837H222.587V199.953H203.718C195.814 190.189 185.138 186.154 172.745 185.905C170.702 185.866 168.704 186.171 166.767 186.84C165.234 187.372 163.939 188.169 163.347 189.879C163.728 192.486 165.826 193.443 167.902 194.102C174.654 196.244 181.457 198.22 188.243 200.246C194.763 202.194 201.432 203.722 207.499 206.949C216.011 211.476 222.897 217.526 225.244 227.339C228.648 241.564 222.222 254.654 208.739 260.438C192.101 267.578 175.844 265.951 160.098 257.422C158.985 256.819 157.873 256.204 156.245 255.313H156.251Z" fill="#243F6D"/>
<path d="M128.227 262.713H67.0166V239.212H80.7322V188.717H67V165.309H128.25V188.573H114.379V239.074H128.222V262.719L128.227 262.713Z" fill="#243F6D"/>
<path d="M332.134 205.759C329.677 187.947 320.766 174.785 303.718 168.082C288.253 162 272.518 162.238 256.987 167.894C243.498 172.809 234.897 182.584 231 196.311C227.823 207.508 227.607 218.915 230.436 230.207C234.138 244.99 243.227 255.186 257.507 260.726C265.007 263.638 272.805 264.662 280.549 264.828C285.658 264.645 290.534 264.412 295.327 263.35C312.408 259.564 324.784 250.287 330.197 233.107C333.014 224.173 333.402 214.985 332.129 205.753L332.134 205.759ZM297.12 216.469C296.799 221.605 296.683 226.764 295.089 231.74C293.423 236.931 290.08 239.771 284.517 240.33C272.13 241.575 267.271 238.061 265.616 225.662C264.392 216.502 264.37 207.281 266.296 198.181C267.664 191.733 270.769 189.137 277.256 188.473C290.229 187.139 295.322 191.418 296.661 204.884C297.043 208.731 297.347 212.594 297.12 216.474V216.469Z" fill="#243F6D"/>
<path d="M284.744 274.027C278.379 283.253 270.896 291.406 261.974 298.292C257.717 294.982 253.245 292.436 248.635 289.812C252.963 284.615 257.252 279.617 261.088 274.06C259.588 273.739 258.337 273.794 257.086 274.016C253.35 278.848 249.664 283.685 245.419 288.285C239.341 285.445 233.048 283.215 226.5 281.416C227.557 278.886 228.543 276.523 229.55 274.104C228.305 273.706 227.231 273.805 226.08 274.004C225.117 276.152 224.142 278.311 223.118 280.591C214.517 278.682 205.96 277.752 197.292 277.591C197.22 276.202 197.165 275.128 197.11 274.049C195.964 273.8 195.001 273.667 193.971 274.182C193.905 275.272 193.839 276.351 193.756 277.658C185.033 277.807 176.498 278.991 167.919 280.967C166.823 278.56 165.771 276.241 164.758 274.016H161.26C162.395 276.739 163.435 279.241 164.542 281.897C157.978 283.696 151.917 286.076 145.984 288.866C141.473 284.078 137.582 278.942 133.674 273.949H129.633C133.796 279.794 138.19 285.063 142.812 290.465C138.517 292.917 134.499 295.441 130.657 298.236C121.619 291.251 114.158 283.032 107.826 273.894H103.481C129.589 309.887 163.795 327.632 207.748 323.492C242.341 320.232 268.97 302.747 288.857 274.06C287.119 273.772 285.946 273.755 284.75 274.01L284.744 274.027ZM224.906 284.549C231.116 285.982 236.995 288.119 243.039 290.886C235.567 298.807 226.805 304.657 218.093 310.474C215.458 309.434 212.995 308.459 210.277 307.391C215.558 300.063 220.788 292.768 224.906 284.549ZM197.403 281.056C205.573 280.962 213.443 281.986 221.541 283.707C217.357 292.054 212.038 299.277 206.674 306.644C203.613 306.107 200.613 305.83 197.403 305.753V281.056ZM193.717 281.045V305.67C190.756 306.068 187.723 306.157 184.573 307.065C179.066 299.853 173.869 292.436 169.413 284.061C177.638 282.229 185.525 281.122 193.717 281.045ZM166.103 284.914C170.315 293.1 175.546 300.528 180.964 307.856C178.479 308.919 176.204 309.893 173.625 311C164.902 305.31 156.101 299.404 148.413 291.528C154.253 288.595 160.02 286.624 166.109 284.919L166.103 284.914ZM133.558 300.423C137.283 297.439 141.129 295.22 145.203 293.061C152.67 300.877 161.437 306.937 170.459 312.965C169.081 314.172 167.78 315.306 166.297 316.601C154.447 313.076 143.642 307.801 133.552 300.423H133.558ZM170.382 317.703C183.439 305.703 211.312 306.843 222.155 317.753C204.837 321.992 187.745 322.009 170.382 317.703ZM226.462 316.585C224.696 315.112 223.08 313.773 221.364 312.339C230.225 306.334 238.915 300.312 246.205 292.441C250.821 294.644 254.972 297.268 259.223 300.351C249.144 307.757 238.328 313.02 226.467 316.585H226.462Z" fill="#243F6D"/>
<path d="M194.885 104.027C156.101 104.885 126.135 122.331 103.663 154.245H107.876C114.407 144.814 122.067 136.434 131.272 129.504C135.035 132.249 138.799 134.563 142.807 136.832C138.002 142.456 133.358 148.063 128.98 154.251H133.01C137.216 148.843 141.262 143.386 146.067 138.421C152.089 141.432 158.243 143.546 164.531 145.511C163.28 148.494 162.112 151.267 160.917 154.118C162.256 154.4 163.325 154.505 164.42 154.101C165.732 151.583 166.457 148.788 168.151 146.363C176.564 148.456 185.066 149.352 193.529 149.706C194.287 151.267 193.435 152.839 194.193 154.212C195.195 154.317 196.185 154.627 197.065 154.024C197.442 152.629 196.855 151.201 197.58 149.723C206.11 149.535 214.6 148.611 223.107 146.751C224.297 149.385 225.421 151.865 226.517 154.278C227.724 154.312 228.72 154.561 229.882 154.007C228.764 151.334 227.657 148.682 226.489 145.882C233.198 144.122 239.358 141.775 245.413 139.096C250.04 144.022 253.909 149.28 257.811 154.19H261.786C257.634 148.218 253.085 142.932 248.612 137.458C253.234 135.05 257.407 132.377 261.575 129.449C264.188 131.712 266.745 133.827 269.18 136.074C275.097 141.526 280.239 147.664 284.755 154.201H288.414C272.706 128.391 238.522 103.064 194.885 104.027ZM145.27 134.253C141.384 132.327 137.808 130.085 134.083 127.406C144.168 120.061 155.055 114.836 166.978 111.399C168.251 112.451 169.297 113.314 170.487 114.294C161.542 120.366 152.67 126.338 145.27 134.253ZM166.131 142.317C159.926 140.817 154.225 138.587 148.353 135.847C155.941 127.982 164.797 122.137 173.57 116.309C176.033 117.355 178.302 118.323 180.898 119.43C175.573 126.842 170.31 134.186 166.131 142.312V142.317ZM193.722 146.258C185.525 146.092 177.616 145.234 169.479 143.192C173.752 134.95 179.005 127.633 184.424 120.421C187.595 120.869 190.584 121.296 193.722 121.738V146.258ZM171.394 110.226C188.044 106.268 204.576 106.263 221.513 110.281C207.831 121.766 181.236 119.973 171.394 110.226ZM197.348 146.275V121.821C200.392 121.462 203.37 121.113 206.619 120.731C212.037 127.838 217.246 135.227 221.569 143.574C213.405 145.428 205.506 146.242 197.353 146.269L197.348 146.275ZM224.967 142.832C220.816 134.712 215.679 127.34 210.211 119.906C212.945 118.844 215.458 117.864 218.071 116.851C226.81 122.641 235.5 128.508 243.028 136.4C237.1 139.234 231.199 141.188 224.967 142.838V142.832ZM246.194 134.912C238.959 126.991 230.153 120.986 221.297 114.897C222.808 113.696 224.104 112.672 225.665 111.432C237.476 114.676 248.402 120.067 258.597 127.367C254.607 130.306 250.599 132.703 246.194 134.906V134.912Z" fill="#243F6D"/>
<path d="M99.8167 375.144C99.8167 388.904 94.4921 395.784 83.8428 395.784C81.9831 395.784 80.5053 395.624 79.4149 395.303V391.865C80.699 392.281 82.1547 392.491 83.793 392.491C87.6398 392.491 90.5456 391.301 92.5105 388.921C94.4754 386.541 95.5437 382.888 95.7208 377.967H95.433C94.5529 379.296 93.3795 380.314 91.9238 381.011C90.4626 381.709 88.8187 382.057 86.9922 382.057C83.8816 382.057 81.413 381.128 79.5865 379.268C77.7599 377.408 76.8467 374.812 76.8467 371.475C76.8467 367.816 77.8706 364.932 79.913 362.818C81.9554 360.704 84.6454 359.641 87.983 359.641C90.3741 359.641 92.4607 360.255 94.2485 361.484C96.0363 362.713 97.409 364.501 98.372 366.847C99.3351 369.2 99.8167 371.967 99.8167 375.155V375.144ZM87.983 363.045C85.6915 363.045 83.9203 363.781 82.6694 365.259C81.4185 366.737 80.7931 368.785 80.7931 371.414C80.7931 373.722 81.3687 375.537 82.5255 376.86C83.6823 378.183 85.4369 378.842 87.7948 378.842C89.256 378.842 90.5955 378.543 91.8242 377.951C93.053 377.358 94.016 376.545 94.7245 375.521C95.4275 374.497 95.7817 373.423 95.7817 372.299C95.7817 370.617 95.4551 369.061 94.7965 367.633C94.1378 366.205 93.219 365.082 92.0401 364.268C90.8611 363.449 89.5106 363.039 87.9885 363.039L87.983 363.045Z" fill="#243F6D"/>
<path d="M128.178 377.674C128.178 383.751 127.22 388.29 125.305 391.29C123.39 394.29 120.456 395.79 116.515 395.79C112.575 395.79 109.851 394.256 107.881 391.185C105.911 388.113 104.92 383.613 104.92 377.679C104.92 371.746 105.872 367.008 107.781 364.041C109.691 361.075 112.602 359.591 116.51 359.591C120.418 359.591 123.224 361.141 125.205 364.235C127.187 367.329 128.178 371.812 128.178 377.679V377.674ZM108.96 377.674C108.96 382.788 109.564 386.513 110.765 388.849C111.966 391.179 113.881 392.347 116.515 392.347C119.15 392.347 121.104 391.162 122.299 388.799C123.495 386.436 124.093 382.727 124.093 377.674C124.093 372.62 123.495 368.923 122.299 366.571C121.104 364.218 119.178 363.045 116.515 363.045C113.853 363.045 111.971 364.202 110.765 366.521C109.558 368.84 108.96 372.554 108.96 377.668V377.674Z" fill="#243F6D"/>
<path d="M156.345 377.674C156.345 383.751 155.387 388.29 153.472 391.29C151.557 394.29 148.624 395.79 144.683 395.79C140.742 395.79 138.019 394.256 136.048 391.185C134.078 388.113 133.087 383.613 133.087 377.679C133.087 371.746 134.039 367.008 135.949 364.041C137.858 361.075 140.77 359.591 144.677 359.591C148.585 359.591 151.391 361.141 153.373 364.235C155.354 367.329 156.345 371.812 156.345 377.679V377.674ZM137.128 377.674C137.128 382.788 137.731 386.513 138.932 388.849C140.133 391.179 142.048 392.347 144.683 392.347C147.317 392.347 149.271 391.162 150.467 388.799C151.662 386.436 152.26 382.727 152.26 377.674C152.26 372.62 151.662 368.923 150.467 366.571C149.271 364.218 147.345 363.045 144.683 363.045C142.021 363.045 140.139 364.202 138.932 366.521C137.725 368.84 137.128 372.554 137.128 377.668V377.674Z" fill="#243F6D"/>
<path d="M175.994 395.303H172.097V370.24C172.097 368.154 172.164 366.183 172.291 364.324C171.953 364.661 171.577 365.015 171.162 365.381C170.747 365.752 168.837 367.312 165.439 370.069L163.324 367.323L172.634 360.134H175.999V395.297L175.994 395.303Z" fill="#243F6D"/>
<path d="M203.414 371.513C203.414 369.349 204.361 368.264 206.253 368.264C208.146 368.264 209.215 369.349 209.215 371.513C209.215 372.554 208.949 373.357 208.423 373.921C207.892 374.48 207.172 374.762 206.259 374.762C205.44 374.762 204.765 374.508 204.228 374.004C203.691 373.5 203.42 372.67 203.42 371.513H203.414ZM203.414 392.751C203.414 391.677 203.658 390.864 204.15 390.31C204.637 389.757 205.34 389.48 206.253 389.48C207.167 389.48 207.908 389.757 208.429 390.31C208.949 390.864 209.209 391.677 209.209 392.751C209.209 393.825 208.943 394.594 208.418 395.159C207.892 395.723 207.167 396 206.253 396C205.434 396 204.759 395.745 204.222 395.242C203.685 394.738 203.414 393.908 203.414 392.751Z" fill="#243F6D"/>
<path d="M238.389 395.303H215.275V391.865L224.535 382.556C227.358 379.7 229.218 377.663 230.115 376.445C231.011 375.227 231.686 374.037 232.135 372.886C232.583 371.729 232.81 370.489 232.81 369.156C232.81 367.279 232.24 365.79 231.1 364.694C229.96 363.598 228.382 363.045 226.362 363.045C224.901 363.045 223.517 363.283 222.211 363.765C220.904 364.246 219.449 365.121 217.844 366.388L215.729 363.67C218.967 360.975 222.498 359.63 226.312 359.63C229.616 359.63 232.207 360.477 234.083 362.165C235.959 363.859 236.895 366.128 236.895 368.984C236.895 371.215 236.269 373.417 235.018 375.598C233.768 377.779 231.426 380.535 227.995 383.873L220.296 391.4V391.594H238.384V395.297L238.389 395.303Z" fill="#243F6D"/>
<path d="M266.745 377.674C266.745 383.751 265.787 388.29 263.872 391.29C261.957 394.29 259.024 395.79 255.083 395.79C251.142 395.79 248.419 394.256 246.448 391.185C244.478 388.113 243.487 383.613 243.487 377.679C243.487 371.746 244.439 367.008 246.349 364.041C248.258 361.075 251.169 359.591 255.077 359.591C258.985 359.591 261.791 361.141 263.772 364.235C265.754 367.329 266.745 371.812 266.745 377.679V377.674ZM247.527 377.674C247.527 382.788 248.131 386.513 249.332 388.849C250.533 391.179 252.448 392.347 255.083 392.347C257.717 392.347 259.671 391.162 260.867 388.799C262.062 386.436 262.66 382.727 262.66 377.674C262.66 372.62 262.062 368.923 260.867 366.571C259.671 364.218 257.745 363.045 255.083 363.045C252.42 363.045 250.538 364.202 249.332 366.521C248.125 368.84 247.527 372.554 247.527 377.668V377.674Z" fill="#243F6D"/>
<path d="M286.399 395.303H282.503V370.24C282.503 368.154 282.569 366.183 282.696 364.324C282.359 364.661 281.982 365.015 281.567 365.381C281.152 365.752 279.243 367.312 275.844 370.069L273.73 367.323L283.04 360.134H286.405V395.297L286.399 395.303Z" fill="#243F6D"/>
<path d="M310.764 373.821C314.467 373.821 317.384 374.74 319.509 376.578C321.635 378.415 322.697 380.928 322.697 384.116C322.697 387.758 321.541 390.609 319.221 392.679C316.902 394.749 313.709 395.784 309.635 395.784C305.561 395.784 302.65 395.153 300.569 393.886V390.039C301.692 390.758 303.087 391.328 304.753 391.733C306.419 392.142 308.063 392.347 309.685 392.347C312.508 392.347 314.699 391.683 316.266 390.349C317.827 389.02 318.613 387.094 318.613 384.576C318.613 379.666 315.607 377.214 309.591 377.214C308.069 377.214 306.032 377.447 303.48 377.912L301.41 376.589L302.733 360.139H320.218V363.82H306.148L305.257 374.381C307.1 374.01 308.938 373.827 310.764 373.827V373.821Z" fill="#243F6D"/>
</svg>
