<svg width="524" height="415" viewBox="0 0 524 415" fill="none" xmlns="http://www.w3.org/2000/svg">
<g filter="url(#filter0_d_163_642)">
<path d="M523.985 82.6502L508.194 393.594C507.815 401.086 500.28 407 491.108 407H25.0981C15.6575 407 8 400.746 8 393.014V14.989C8 6.32786 17.5261 -0.255433 27.9682 1.20308L158.061 19.3146L377.051 49.8036L509.769 68.2848C518.257 69.4636 524.339 75.6173 523.985 82.6502Z" fill="url(#paint0_linear_163_642)"/>
</g>
<path d="M504.16 91.3504C503.42 91.3504 502.81 90.7504 502.81 90.0004C502.81 89.2504 503.41 88.6504 504.16 88.6504C504.91 88.6504 505.51 89.2504 505.51 90.0004C505.51 90.7504 504.91 91.3504 504.16 91.3504Z" fill="#71869D"/>
<path d="M473.83 91.3504C473.09 91.3504 472.48 90.7504 472.48 90.0004C472.48 89.2504 473.08 88.6504 473.83 88.6504C474.58 88.6504 475.18 89.2504 475.18 90.0004C475.18 90.7504 474.58 91.3504 473.83 91.3504Z" fill="#71869D"/>
<path d="M443.5 91.3504C442.76 91.3504 442.15 90.7504 442.15 90.0004C442.15 89.2504 442.75 88.6504 443.5 88.6504C444.25 88.6504 444.85 89.2504 444.85 90.0004C444.85 90.7504 444.25 91.3504 443.5 91.3504Z" fill="#71869D"/>
<path d="M504.16 121.68C503.42 121.68 502.81 121.08 502.81 120.33C502.81 119.58 503.41 118.98 504.16 118.98C504.91 118.98 505.51 119.58 505.51 120.33C505.51 121.08 504.91 121.68 504.16 121.68Z" fill="#71869D"/>
<path d="M473.83 121.68C473.09 121.68 472.48 121.08 472.48 120.33C472.48 119.58 473.08 118.98 473.83 118.98C474.58 118.98 475.18 119.58 475.18 120.33C475.18 121.08 474.58 121.68 473.83 121.68Z" fill="#71869D"/>
<path d="M443.5 121.68C442.76 121.68 442.15 121.08 442.15 120.33C442.15 119.58 442.75 118.98 443.5 118.98C444.25 118.98 444.85 119.58 444.85 120.33C444.85 121.08 444.25 121.68 443.5 121.68Z" fill="#71869D"/>
<path d="M504.16 152.011C503.42 152.011 502.81 151.411 502.81 150.661C502.81 149.911 503.41 149.311 504.16 149.311C504.91 149.311 505.51 149.911 505.51 150.661C505.51 151.411 504.91 152.011 504.16 152.011Z" fill="#71869D"/>
<path d="M473.83 152.011C473.09 152.011 472.48 151.411 472.48 150.661C472.48 149.911 473.08 149.311 473.83 149.311C474.58 149.311 475.18 149.911 475.18 150.661C475.18 151.411 474.58 152.011 473.83 152.011Z" fill="#71869D"/>
<path d="M443.5 152.011C442.76 152.011 442.15 151.411 442.15 150.661C442.15 149.911 442.75 149.311 443.5 149.311C444.25 149.311 444.85 149.911 444.85 150.661C444.85 151.411 444.25 152.011 443.5 152.011Z" fill="#71869D"/>
<path d="M504.16 182.35C503.42 182.35 502.81 181.75 502.81 181C502.81 180.25 503.41 179.65 504.16 179.65C504.91 179.65 505.51 180.25 505.51 181C505.51 181.75 504.91 182.35 504.16 182.35Z" fill="#71869D"/>
<path d="M473.83 182.35C473.09 182.35 472.48 181.75 472.48 181C472.48 180.25 473.08 179.65 473.83 179.65C474.58 179.65 475.18 180.25 475.18 181C475.18 181.75 474.58 182.35 473.83 182.35Z" fill="#71869D"/>
<path d="M443.5 182.35C442.76 182.35 442.15 181.75 442.15 181C442.15 180.25 442.75 179.65 443.5 179.65C444.25 179.65 444.85 180.25 444.85 181C444.85 181.75 444.25 182.35 443.5 182.35Z" fill="#71869D"/>
<path d="M504.16 212.68C503.42 212.68 502.81 212.08 502.81 211.33C502.81 210.58 503.41 209.98 504.16 209.98C504.91 209.98 505.51 210.58 505.51 211.33C505.51 212.08 504.91 212.68 504.16 212.68Z" fill="#71869D"/>
<path d="M473.83 212.68C473.09 212.68 472.48 212.08 472.48 211.33C472.48 210.58 473.08 209.98 473.83 209.98C474.58 209.98 475.18 210.58 475.18 211.33C475.18 212.08 474.58 212.68 473.83 212.68Z" fill="#71869D"/>
<path d="M443.5 212.68C442.76 212.68 442.15 212.08 442.15 211.33C442.15 210.58 442.75 209.98 443.5 209.98C444.25 209.98 444.85 210.58 444.85 211.33C444.85 212.08 444.25 212.68 443.5 212.68Z" fill="#71869D"/>
<path d="M504.16 243.011C503.42 243.011 502.81 242.411 502.81 241.661C502.81 240.911 503.41 240.311 504.16 240.311C504.91 240.311 505.51 240.911 505.51 241.661C505.51 242.411 504.91 243.011 504.16 243.011Z" fill="#71869D"/>
<path d="M473.83 243.011C473.09 243.011 472.48 242.411 472.48 241.661C472.48 240.911 473.08 240.311 473.83 240.311C474.58 240.311 475.18 240.911 475.18 241.661C475.18 242.411 474.58 243.011 473.83 243.011Z" fill="#71869D"/>
<path d="M443.5 243.011C442.76 243.011 442.15 242.411 442.15 241.661C442.15 240.911 442.75 240.311 443.5 240.311C444.25 240.311 444.85 240.911 444.85 241.661C444.85 242.411 444.25 243.011 443.5 243.011Z" fill="#71869D"/>
<path d="M413.17 61.0203C412.43 61.0203 411.82 60.4203 411.82 59.6703C411.82 58.9203 412.42 58.3203 413.17 58.3203C413.92 58.3203 414.52 58.9203 414.52 59.6703C414.52 60.4203 413.92 61.0203 413.17 61.0203Z" fill="#71869D"/>
<path d="M382.84 61.0203C382.1 61.0203 381.49 60.4203 381.49 59.6703C381.49 58.9203 382.09 58.3203 382.84 58.3203C383.59 58.3203 384.19 58.9203 384.19 59.6703C384.19 60.4203 383.59 61.0203 382.84 61.0203Z" fill="#71869D"/>
<path d="M413.17 91.3504C412.43 91.3504 411.82 90.7504 411.82 90.0004C411.82 89.2504 412.42 88.6504 413.17 88.6504C413.92 88.6504 414.52 89.2504 414.52 90.0004C414.52 90.7504 413.92 91.3504 413.17 91.3504Z" fill="#71869D"/>
<path d="M382.84 91.3504C382.1 91.3504 381.49 90.7504 381.49 90.0004C381.49 89.2504 382.09 88.6504 382.84 88.6504C383.59 88.6504 384.19 89.2504 384.19 90.0004C384.19 90.7504 383.59 91.3504 382.84 91.3504Z" fill="#71869D"/>
<path d="M413.17 121.68C412.43 121.68 411.82 121.08 411.82 120.33C411.82 119.58 412.42 118.98 413.17 118.98C413.92 118.98 414.52 119.58 414.52 120.33C414.52 121.08 413.92 121.68 413.17 121.68Z" fill="#71869D"/>
<path d="M382.84 121.68C382.1 121.68 381.49 121.08 381.49 120.33C381.49 119.58 382.09 118.98 382.84 118.98C383.59 118.98 384.19 119.58 384.19 120.33C384.19 121.08 383.59 121.68 382.84 121.68Z" fill="#71869D"/>
<path d="M413.17 152.011C412.43 152.011 411.82 151.411 411.82 150.661C411.82 149.911 412.42 149.311 413.17 149.311C413.92 149.311 414.52 149.911 414.52 150.661C414.52 151.411 413.92 152.011 413.17 152.011Z" fill="#71869D"/>
<path d="M382.84 152.011C382.1 152.011 381.49 151.411 381.49 150.661C381.49 149.911 382.09 149.311 382.84 149.311C383.59 149.311 384.19 149.911 384.19 150.661C384.19 151.411 383.59 152.011 382.84 152.011Z" fill="#71869D"/>
<path d="M413.17 182.35C412.43 182.35 411.82 181.75 411.82 181C411.82 180.25 412.42 179.65 413.17 179.65C413.92 179.65 414.52 180.25 414.52 181C414.52 181.75 413.92 182.35 413.17 182.35Z" fill="#71869D"/>
<path d="M382.84 182.35C382.1 182.35 381.49 181.75 381.49 181C381.49 180.25 382.09 179.65 382.84 179.65C383.59 179.65 384.19 180.25 384.19 181C384.19 181.75 383.59 182.35 382.84 182.35Z" fill="#71869D"/>
<path d="M413.17 212.68C412.43 212.68 411.82 212.08 411.82 211.33C411.82 210.58 412.42 209.98 413.17 209.98C413.92 209.98 414.52 210.58 414.52 211.33C414.52 212.08 413.92 212.68 413.17 212.68Z" fill="#71869D"/>
<path d="M382.84 212.68C382.1 212.68 381.49 212.08 381.49 211.33C381.49 210.58 382.09 209.98 382.84 209.98C383.59 209.98 384.19 210.58 384.19 211.33C384.19 212.08 383.59 212.68 382.84 212.68Z" fill="#71869D"/>
<path d="M413.17 243.011C412.43 243.011 411.82 242.411 411.82 241.661C411.82 240.911 412.42 240.311 413.17 240.311C413.92 240.311 414.52 240.911 414.52 241.661C414.52 242.411 413.92 243.011 413.17 243.011Z" fill="#71869D"/>
<path d="M382.84 243.011C382.1 243.011 381.49 242.411 381.49 241.661C381.49 240.911 382.09 240.311 382.84 240.311C383.59 240.311 384.19 240.911 384.19 241.661C384.19 242.411 383.59 243.011 382.84 243.011Z" fill="#71869D"/>
<path d="M504.16 273.341C503.42 273.341 502.81 272.741 502.81 271.991C502.81 271.241 503.41 270.641 504.16 270.641C504.91 270.641 505.51 271.241 505.51 271.991C505.51 272.741 504.91 273.341 504.16 273.341Z" fill="#71869D"/>
<path d="M473.83 273.341C473.09 273.341 472.48 272.741 472.48 271.991C472.48 271.241 473.08 270.641 473.83 270.641C474.58 270.641 475.18 271.241 475.18 271.991C475.18 272.741 474.58 273.341 473.83 273.341Z" fill="#71869D"/>
<path d="M443.5 273.341C442.76 273.341 442.15 272.741 442.15 271.991C442.15 271.241 442.75 270.641 443.5 270.641C444.25 270.641 444.85 271.241 444.85 271.991C444.85 272.741 444.25 273.341 443.5 273.341Z" fill="#71869D"/>
<path d="M504.16 303.671C503.42 303.671 502.81 303.071 502.81 302.321C502.81 301.571 503.41 300.971 504.16 300.971C504.91 300.971 505.51 301.571 505.51 302.321C505.51 303.071 504.91 303.671 504.16 303.671Z" fill="#71869D"/>
<path d="M473.83 303.671C473.09 303.671 472.48 303.071 472.48 302.321C472.48 301.571 473.08 300.971 473.83 300.971C474.58 300.971 475.18 301.571 475.18 302.321C475.18 303.071 474.58 303.671 473.83 303.671Z" fill="#71869D"/>
<path d="M443.5 303.671C442.76 303.671 442.15 303.071 442.15 302.321C442.15 301.571 442.75 300.971 443.5 300.971C444.25 300.971 444.85 301.571 444.85 302.321C444.85 303.071 444.25 303.671 443.5 303.671Z" fill="#71869D"/>
<path d="M504.16 334.001C503.42 334.001 502.81 333.401 502.81 332.651C502.81 331.901 503.41 331.301 504.16 331.301C504.91 331.301 505.51 331.901 505.51 332.651C505.51 333.401 504.91 334.001 504.16 334.001Z" fill="#71869D"/>
<path d="M473.83 334.001C473.09 334.001 472.48 333.401 472.48 332.651C472.48 331.901 473.08 331.301 473.83 331.301C474.58 331.301 475.18 331.901 475.18 332.651C475.18 333.401 474.58 334.001 473.83 334.001Z" fill="#71869D"/>
<path d="M443.5 334.001C442.76 334.001 442.15 333.401 442.15 332.651C442.15 331.901 442.75 331.301 443.5 331.301C444.25 331.301 444.85 331.901 444.85 332.651C444.85 333.401 444.25 334.001 443.5 334.001Z" fill="#71869D"/>
<path d="M413.17 273.341C412.43 273.341 411.82 272.741 411.82 271.991C411.82 271.241 412.42 270.641 413.17 270.641C413.92 270.641 414.52 271.241 414.52 271.991C414.52 272.741 413.92 273.341 413.17 273.341Z" fill="#71869D"/>
<path d="M382.84 273.341C382.1 273.341 381.49 272.741 381.49 271.991C381.49 271.241 382.09 270.641 382.84 270.641C383.59 270.641 384.19 271.241 384.19 271.991C384.19 272.741 383.59 273.341 382.84 273.341Z" fill="#71869D"/>
<path d="M413.17 303.671C412.43 303.671 411.82 303.071 411.82 302.321C411.82 301.571 412.42 300.971 413.17 300.971C413.92 300.971 414.52 301.571 414.52 302.321C414.52 303.071 413.92 303.671 413.17 303.671Z" fill="#71869D"/>
<path d="M382.84 303.671C382.1 303.671 381.49 303.071 381.49 302.321C381.49 301.571 382.09 300.971 382.84 300.971C383.59 300.971 384.19 301.571 384.19 302.321C384.19 303.071 383.59 303.671 382.84 303.671Z" fill="#71869D"/>
<path d="M413.17 334.001C412.43 334.001 411.82 333.401 411.82 332.651C411.82 331.901 412.42 331.301 413.17 331.301C413.92 331.301 414.52 331.901 414.52 332.651C414.52 333.401 413.92 334.001 413.17 334.001Z" fill="#71869D"/>
<path d="M382.84 334.001C382.1 334.001 381.49 333.401 381.49 332.651C381.49 331.901 382.09 331.301 382.84 331.301C383.59 331.301 384.19 331.901 384.19 332.651C384.19 333.401 383.59 334.001 382.84 334.001Z" fill="#71869D"/>
<path d="M523.985 82.3869L516.633 227.177L515.216 255.291L508.193 393.583C507.814 401.081 500.278 407 491.105 407H320.428C320.318 406.83 320.208 406.67 320.098 406.5C298.723 374.537 271.682 354.211 221.714 343.033C111.984 318.488 218.734 260.58 229.202 252.672C216.585 261.77 45.3572 337.584 128.852 192.734C156.272 145.174 162.428 95.5642 158.068 50.0136C158.068 49.9136 158.043 32.9171 158.031 19L377.039 49.5137L509.768 68.0099C518.257 69.1897 524.34 75.3484 523.985 82.3869Z" fill="#BCCCFF"/>
<path style="mix-blend-mode:color-dodge" d="M515 257.923L513.848 285.978C460.637 285.959 413.264 285.919 413.264 285.919C407.515 286.108 405.34 286.258 408.359 282.806C410.354 280.521 413.84 278.765 416.749 278.087C431.097 274.704 443.995 278.915 457.598 280.152C467.518 281.06 470.765 271.402 475.809 264.518C482.303 255.668 491.497 252.795 502.181 254.441C503.8 254.691 509.37 256.586 515 257.923Z" fill="url(#paint1_linear_163_642)"/>
<path d="M419.488 136.009L163.588 200.849L210.458 227.499L419.488 136.009Z" fill="white"/>
<path d="M419.488 136.009L210.458 227.499L201.418 283.239L419.488 136.009Z" fill="#DDDDDD"/>
<path d="M228.178 250.278L201.418 283.238L240.658 271.778L228.178 250.278Z" fill="#C3C3C3"/>
<path style="mix-blend-mode:multiply" d="M228.178 250.278L224.648 276.458L240.658 271.778L228.178 250.278Z" fill="#BABABA"/>
<path d="M264.708 313.799L228.178 250.279L419.488 136.009L264.708 313.799Z" fill="white"/>
<path style="mix-blend-mode:color-dodge" d="M443.414 371.041C444.684 369.581 440.684 367.141 435.864 367.251C429.284 367.401 429.284 351.311 417.534 357.471C414.474 359.061 408.474 355.971 406.244 353.911C406.104 353.781 405.964 353.641 405.824 353.501C402.184 349.651 401.384 344.421 398.594 340.101C394.894 334.361 388.724 332.701 382.284 331.681C355.494 327.451 351.734 343.971 351.264 352.631C351.014 357.201 335.884 351.571 333.514 351.201C326.384 350.101 320.254 352.011 315.914 357.891C312.544 362.461 310.384 368.871 303.764 368.271C294.684 367.451 286.084 364.651 276.504 366.891C274.564 367.341 272.244 368.511 270.904 370.031C268.894 372.321 270.344 372.221 274.184 372.091C274.184 372.091 437.454 372.221 438.674 372.091C441.474 371.797 443.054 371.447 443.414 371.041Z" fill="url(#paint2_linear_163_642)"/>
<path style="mix-blend-mode:color-dodge" d="M323.068 127.129C324.278 125.739 320.468 123.409 315.878 123.519C309.618 123.659 309.618 108.349 298.428 114.209C295.518 115.729 289.798 112.779 287.688 110.819C287.548 110.689 287.418 110.559 287.288 110.419C283.828 106.749 283.058 101.779 280.408 97.6592C276.888 92.1992 271.008 90.6192 264.878 89.6492C239.378 85.6192 235.798 101.339 235.348 109.589C235.108 113.939 220.708 108.579 218.448 108.229C211.658 107.189 205.818 108.999 201.698 114.599C198.498 118.949 196.438 125.049 190.138 124.479C181.498 123.699 173.308 121.029 164.188 123.169C162.348 123.599 160.128 124.709 158.858 126.159C156.948 128.339 158.328 128.239 161.978 128.129C161.978 128.129 317.368 128.249 318.538 128.129C321.205 127.849 322.708 127.516 323.048 127.129H323.068Z" fill="url(#paint3_linear_163_642)"/>
<path opacity="0.3" d="M59 75.0125C59 72.9113 60.4 71.5104 62.5 71.5104H87V57.5021C87 55.4008 85.6 54 83.5 54H41.5C39.4 54 38 55.4008 38 57.5021V92.523C38 94.6242 39.4 96.025 41.5 96.025H48.5V103.379C48.5 105.831 51.3 106.882 53.05 105.13L59 99.1769V75.0125Z" fill="#7093FF"/>
<path d="M108 74.8265V109.613C108 111.7 106.6 113.092 104.5 113.092H97.5V120.397C97.5 122.832 94.7 123.876 92.95 122.136L83.5 112.744H62.5C60.4 112.744 59 111.352 59 109.265V74.4787C59 72.3915 60.4 71 62.5 71H104.5C106.6 71.3479 108 72.7393 108 74.8265ZM97.5 85.2625C97.5 83.1753 96.1 81.7838 94 81.7838H73C70.9 81.7838 69.5 83.1753 69.5 85.2625C69.5 87.3497 70.9 88.7411 73 88.7411H94C96.1 88.7411 97.5 87.3497 97.5 85.2625ZM90.5 99.1771C90.5 97.0899 89.1 95.6984 87 95.6984H73C70.9 95.6984 69.5 97.0899 69.5 99.1771C69.5 101.264 70.9 102.656 73 102.656H87C89.1 102.656 90.5 101.264 90.5 99.1771Z" fill="#7093FF"/>
<defs>
<filter id="filter0_d_163_642" x="0" y="1" width="524" height="414" filterUnits="userSpaceOnUse" color-interpolation-filters="sRGB">
<feFlood flood-opacity="0" result="BackgroundImageFix"/>
<feColorMatrix in="SourceAlpha" type="matrix" values="0 0 0 0 0 0 0 0 0 0 0 0 0 0 0 0 0 0 127 0" result="hardAlpha"/>
<feOffset dx="-4" dy="4"/>
<feGaussianBlur stdDeviation="2"/>
<feComposite in2="hardAlpha" operator="out"/>
<feColorMatrix type="matrix" values="0 0 0 0 0 0 0 0 0 0 0 0 0 0 0 0 0 0 0.1 0"/>
<feBlend mode="normal" in2="BackgroundImageFix" result="effect1_dropShadow_163_642"/>
<feBlend mode="normal" in="SourceGraphic" in2="effect1_dropShadow_163_642" result="shape"/>
</filter>
<linearGradient id="paint0_linear_163_642" x1="265.999" y1="0.993296" x2="265.999" y2="376.611" gradientUnits="userSpaceOnUse">
<stop stop-color="white"/>
<stop offset="1" stop-color="#FDFDFD"/>
</linearGradient>
<linearGradient id="paint1_linear_163_642" x1="406.998" y1="269.995" x2="515" y2="269.995" gradientUnits="userSpaceOnUse">
<stop stop-color="#FF689C" stop-opacity="0"/>
<stop offset="0.16" stop-color="#FF688E" stop-opacity="0.18"/>
<stop offset="0.58" stop-color="#FF686D" stop-opacity="0.61"/>
<stop offset="0.87" stop-color="#FF6859" stop-opacity="0.89"/>
<stop offset="1" stop-color="#FF6851"/>
</linearGradient>
<linearGradient id="paint2_linear_163_642" x1="443.654" y1="351.571" x2="270.014" y2="351.571" gradientUnits="userSpaceOnUse">
<stop stop-color="#FF6851"/>
<stop offset="0.13" stop-color="#FF6859" stop-opacity="0.89"/>
<stop offset="0.42" stop-color="#FF686D" stop-opacity="0.61"/>
<stop offset="0.84" stop-color="#FF688E" stop-opacity="0.18"/>
<stop offset="1" stop-color="#FF689C" stop-opacity="0"/>
</linearGradient>
<linearGradient id="paint3_linear_163_642" x1="323.298" y1="108.599" x2="158.028" y2="108.599" gradientUnits="userSpaceOnUse">
<stop stop-color="#FF689C" stop-opacity="0"/>
<stop offset="0.16" stop-color="#FF688E" stop-opacity="0.18"/>
<stop offset="0.58" stop-color="#FF686D" stop-opacity="0.61"/>
<stop offset="0.87" stop-color="#FF6859" stop-opacity="0.89"/>
<stop offset="1" stop-color="#FF6851"/>
</linearGradient>
</defs>
</svg>
