<svg width="583" height="486" viewBox="0 0 583 486" fill="none" xmlns="http://www.w3.org/2000/svg">
<g clip-path="url(#clip0_158_484)">
<path d="M274.666 2.6961C273.921 2.6961 273.318 2.09255 273.318 1.34805C273.318 0.603541 273.921 1.82937e-07 274.666 1.1785e-07C275.41 5.27632e-08 276.014 0.603541 276.014 1.34805C276.014 2.09255 275.41 2.6961 274.666 2.6961Z" fill="#71869D"/>
<path d="M244.335 2.6961C243.59 2.6961 242.987 2.09255 242.987 1.34805C242.987 0.603541 243.59 1.82936e-07 244.335 1.1785e-07C245.079 5.27644e-08 245.683 0.603541 245.683 1.34805C245.683 2.09255 245.079 2.6961 244.335 2.6961Z" fill="#71869D"/>
<path d="M214.004 2.6961C213.259 2.6961 212.655 2.09255 212.655 1.34805C212.655 0.603541 213.259 1.82933e-07 214.004 1.1785e-07C214.748 5.27674e-08 215.352 0.603541 215.352 1.34805C215.352 2.09255 214.748 2.6961 214.004 2.6961Z" fill="#71869D"/>
<path d="M183.672 2.6961C182.928 2.6961 182.324 2.09255 182.324 1.34805C182.324 0.603541 182.928 1.82933e-07 183.672 1.1785e-07C184.417 5.27674e-08 185.021 0.603541 185.021 1.34805C185.021 2.09255 184.417 2.6961 183.672 2.6961Z" fill="#71869D"/>
<path d="M153.341 2.6961C152.597 2.6961 151.993 2.09255 151.993 1.34805C151.993 0.603541 152.597 1.82933e-07 153.341 1.1785e-07C154.086 5.27674e-08 154.689 0.603541 154.689 1.34805C154.689 2.09255 154.086 2.6961 153.341 2.6961Z" fill="#71869D"/>
<path d="M123.01 2.6961C122.266 2.6961 121.662 2.09255 121.662 1.34805C121.662 0.603541 122.266 1.82933e-07 123.01 1.1785e-07C123.755 5.27674e-08 124.358 0.603541 124.358 1.34805C124.358 2.09255 123.755 2.6961 123.01 2.6961Z" fill="#71869D"/>
<path d="M274.666 33.0271C273.921 33.0271 273.318 32.4236 273.318 31.6791C273.318 30.9346 273.921 30.3311 274.666 30.3311C275.41 30.3311 276.014 30.9346 276.014 31.6791C276.014 32.4236 275.41 33.0271 274.666 33.0271Z" fill="#71869D"/>
<path d="M244.335 33.0271C243.59 33.0271 242.987 32.4236 242.987 31.6791C242.987 30.9346 243.59 30.3311 244.335 30.3311C245.079 30.3311 245.683 30.9346 245.683 31.6791C245.683 32.4236 245.079 33.0271 244.335 33.0271Z" fill="#71869D"/>
<path d="M214.004 33.0271C213.259 33.0271 212.655 32.4236 212.655 31.6791C212.655 30.9346 213.259 30.3311 214.004 30.3311C214.748 30.3311 215.352 30.9346 215.352 31.6791C215.352 32.4236 214.748 33.0271 214.004 33.0271Z" fill="#71869D"/>
<path d="M183.672 33.0271C182.928 33.0271 182.324 32.4236 182.324 31.6791C182.324 30.9346 182.928 30.3311 183.672 30.3311C184.417 30.3311 185.021 30.9346 185.021 31.6791C185.021 32.4236 184.417 33.0271 183.672 33.0271Z" fill="#71869D"/>
<path d="M153.341 33.0271C152.597 33.0271 151.993 32.4236 151.993 31.6791C151.993 30.9346 152.597 30.3311 153.341 30.3311C154.086 30.3311 154.689 30.9346 154.689 31.6791C154.689 32.4236 154.086 33.0271 153.341 33.0271Z" fill="#71869D"/>
<path d="M123.01 33.0271C122.266 33.0271 121.662 32.4236 121.662 31.6791C121.662 30.9346 122.266 30.3311 123.01 30.3311C123.755 30.3311 124.358 30.9346 124.358 31.6791C124.358 32.4236 123.755 33.0271 123.01 33.0271Z" fill="#71869D"/>
<path d="M274.666 63.3582C273.921 63.3582 273.318 62.7546 273.318 62.0102C273.318 61.2657 273.921 60.6621 274.666 60.6621C275.41 60.6621 276.014 61.2657 276.014 62.0102C276.014 62.7546 275.41 63.3582 274.666 63.3582Z" fill="#71869D"/>
<path d="M244.335 63.3582C243.59 63.3582 242.987 62.7546 242.987 62.0102C242.987 61.2657 243.59 60.6621 244.335 60.6621C245.079 60.6621 245.683 61.2657 245.683 62.0102C245.683 62.7546 245.079 63.3582 244.335 63.3582Z" fill="#71869D"/>
<path d="M214.004 63.3582C213.259 63.3582 212.655 62.7546 212.655 62.0102C212.655 61.2657 213.259 60.6621 214.004 60.6621C214.748 60.6621 215.352 61.2657 215.352 62.0102C215.352 62.7546 214.748 63.3582 214.004 63.3582Z" fill="#71869D"/>
<path d="M183.672 63.3582C182.928 63.3582 182.324 62.7546 182.324 62.0102C182.324 61.2657 182.928 60.6621 183.672 60.6621C184.417 60.6621 185.021 61.2657 185.021 62.0102C185.021 62.7546 184.417 63.3582 183.672 63.3582Z" fill="#71869D"/>
<path d="M153.341 63.3582C152.597 63.3582 151.993 62.7546 151.993 62.0102C151.993 61.2657 152.597 60.6621 153.341 60.6621C154.086 60.6621 154.689 61.2657 154.689 62.0102C154.689 62.7546 154.086 63.3582 153.341 63.3582Z" fill="#71869D"/>
<path d="M123.01 63.3582C122.266 63.3582 121.662 62.7546 121.662 62.0102C121.662 61.2657 122.266 60.6621 123.01 60.6621C123.755 60.6621 124.358 61.2657 124.358 62.0102C124.358 62.7546 123.755 63.3582 123.01 63.3582Z" fill="#71869D"/>
<path d="M274.666 93.6893C273.921 93.6893 273.318 93.0857 273.318 92.3412C273.318 91.5968 273.921 90.9932 274.666 90.9932C275.41 90.9932 276.014 91.5968 276.014 92.3412C276.014 93.0857 275.41 93.6893 274.666 93.6893Z" fill="#71869D"/>
<path d="M244.335 93.6893C243.59 93.6893 242.987 93.0857 242.987 92.3412C242.987 91.5968 243.59 90.9932 244.335 90.9932C245.079 90.9932 245.683 91.5968 245.683 92.3412C245.683 93.0857 245.079 93.6893 244.335 93.6893Z" fill="#71869D"/>
<path d="M214.004 93.6893C213.259 93.6893 212.655 93.0857 212.655 92.3412C212.655 91.5968 213.259 90.9932 214.004 90.9932C214.748 90.9932 215.352 91.5968 215.352 92.3412C215.352 93.0857 214.748 93.6893 214.004 93.6893Z" fill="#71869D"/>
<path d="M183.672 93.6893C182.928 93.6893 182.324 93.0857 182.324 92.3412C182.324 91.5968 182.928 90.9932 183.672 90.9932C184.417 90.9932 185.021 91.5968 185.021 92.3412C185.021 93.0857 184.417 93.6893 183.672 93.6893Z" fill="#71869D"/>
<path d="M153.341 93.6893C152.597 93.6893 151.993 93.0857 151.993 92.3412C151.993 91.5968 152.597 90.9932 153.341 90.9932C154.086 90.9932 154.689 91.5968 154.689 92.3412C154.689 93.0857 154.086 93.6893 153.341 93.6893Z" fill="#71869D"/>
<path d="M123.01 93.6893C122.266 93.6893 121.662 93.0857 121.662 92.3412C121.662 91.5968 122.266 90.9932 123.01 90.9932C123.755 90.9932 124.358 91.5968 124.358 92.3412C124.358 93.0857 123.755 93.6893 123.01 93.6893Z" fill="#71869D"/>
<path d="M274.666 124.02C273.921 124.02 273.318 123.417 273.318 122.672C273.318 121.928 273.921 121.324 274.666 121.324C275.41 121.324 276.014 121.928 276.014 122.672C276.014 123.417 275.41 124.02 274.666 124.02Z" fill="#71869D"/>
<path d="M244.335 124.02C243.59 124.02 242.987 123.417 242.987 122.672C242.987 121.928 243.59 121.324 244.335 121.324C245.079 121.324 245.683 121.928 245.683 122.672C245.683 123.417 245.079 124.02 244.335 124.02Z" fill="#71869D"/>
<path d="M214.004 124.02C213.259 124.02 212.655 123.417 212.655 122.672C212.655 121.928 213.259 121.324 214.004 121.324C214.748 121.324 215.352 121.928 215.352 122.672C215.352 123.417 214.748 124.02 214.004 124.02Z" fill="#71869D"/>
<path d="M183.672 124.02C182.928 124.02 182.324 123.417 182.324 122.672C182.324 121.928 182.928 121.324 183.672 121.324C184.417 121.324 185.021 121.928 185.021 122.672C185.021 123.417 184.417 124.02 183.672 124.02Z" fill="#71869D"/>
<path d="M153.341 124.02C152.597 124.02 151.993 123.417 151.993 122.672C151.993 121.928 152.597 121.324 153.341 121.324C154.086 121.324 154.689 121.928 154.689 122.672C154.689 123.417 154.086 124.02 153.341 124.02Z" fill="#71869D"/>
<path d="M123.01 124.02C122.266 124.02 121.662 123.417 121.662 122.672C121.662 121.928 122.266 121.324 123.01 121.324C123.755 121.324 124.358 121.928 124.358 122.672C124.358 123.417 123.755 124.02 123.01 124.02Z" fill="#71869D"/>
<path d="M274.666 154.351C273.921 154.351 273.318 153.748 273.318 153.003C273.318 152.259 273.921 151.655 274.666 151.655C275.41 151.655 276.014 152.259 276.014 153.003C276.014 153.748 275.41 154.351 274.666 154.351Z" fill="#71869D"/>
<path d="M244.335 154.351C243.59 154.351 242.987 153.748 242.987 153.003C242.987 152.259 243.59 151.655 244.335 151.655C245.079 151.655 245.683 152.259 245.683 153.003C245.683 153.748 245.079 154.351 244.335 154.351Z" fill="#71869D"/>
<path d="M214.004 154.351C213.259 154.351 212.655 153.748 212.655 153.003C212.655 152.259 213.259 151.655 214.004 151.655C214.748 151.655 215.352 152.259 215.352 153.003C215.352 153.748 214.748 154.351 214.004 154.351Z" fill="#71869D"/>
<path d="M183.672 154.351C182.928 154.351 182.324 153.748 182.324 153.003C182.324 152.259 182.928 151.655 183.672 151.655C184.417 151.655 185.021 152.259 185.021 153.003C185.021 153.748 184.417 154.351 183.672 154.351Z" fill="#71869D"/>
<path d="M153.341 154.351C152.597 154.351 151.993 153.748 151.993 153.003C151.993 152.259 152.597 151.655 153.341 151.655C154.086 151.655 154.689 152.259 154.689 153.003C154.689 153.748 154.086 154.351 153.341 154.351Z" fill="#71869D"/>
<path d="M123.01 154.351C122.266 154.351 121.662 153.748 121.662 153.003C121.662 152.259 122.266 151.655 123.01 151.655C123.755 151.655 124.358 152.259 124.358 153.003C124.358 153.748 123.755 154.351 123.01 154.351Z" fill="#71869D"/>
<path d="M274.666 184.683C273.921 184.683 273.318 184.079 273.318 183.334C273.318 182.59 273.921 181.986 274.666 181.986C275.41 181.986 276.014 182.59 276.014 183.334C276.014 184.079 275.41 184.683 274.666 184.683Z" fill="#71869D"/>
<path d="M244.335 184.683C243.59 184.683 242.987 184.079 242.987 183.334C242.987 182.59 243.59 181.986 244.335 181.986C245.079 181.986 245.683 182.59 245.683 183.334C245.683 184.079 245.079 184.683 244.335 184.683Z" fill="#71869D"/>
<path d="M214.004 184.683C213.259 184.683 212.655 184.079 212.655 183.334C212.655 182.59 213.259 181.986 214.004 181.986C214.748 181.986 215.352 182.59 215.352 183.334C215.352 184.079 214.748 184.683 214.004 184.683Z" fill="#71869D"/>
<path d="M183.672 184.683C182.928 184.683 182.324 184.079 182.324 183.334C182.324 182.59 182.928 181.986 183.672 181.986C184.417 181.986 185.021 182.59 185.021 183.334C185.021 184.079 184.417 184.683 183.672 184.683Z" fill="#71869D"/>
<path d="M153.341 184.683C152.597 184.683 151.993 184.079 151.993 183.334C151.993 182.59 152.597 181.986 153.341 181.986C154.086 181.986 154.689 182.59 154.689 183.334C154.689 184.079 154.086 184.683 153.341 184.683Z" fill="#71869D"/>
<path d="M123.01 184.683C122.266 184.683 121.662 184.079 121.662 183.334C121.662 182.59 122.266 181.986 123.01 181.986C123.755 181.986 124.358 182.59 124.358 183.334C124.358 184.079 123.755 184.683 123.01 184.683Z" fill="#71869D"/>
<path d="M274.666 215.014C273.921 215.014 273.318 214.41 273.318 213.666C273.318 212.921 273.921 212.318 274.666 212.318C275.41 212.318 276.014 212.921 276.014 213.666C276.014 214.41 275.41 215.014 274.666 215.014Z" fill="#71869D"/>
<path d="M244.335 215.014C243.59 215.014 242.987 214.41 242.987 213.666C242.987 212.921 243.59 212.318 244.335 212.318C245.079 212.318 245.683 212.921 245.683 213.666C245.683 214.41 245.079 215.014 244.335 215.014Z" fill="#71869D"/>
<path d="M214.004 215.014C213.259 215.014 212.655 214.41 212.655 213.666C212.655 212.921 213.259 212.318 214.004 212.318C214.748 212.318 215.352 212.921 215.352 213.666C215.352 214.41 214.748 215.014 214.004 215.014Z" fill="#71869D"/>
<path d="M183.672 215.014C182.928 215.014 182.324 214.41 182.324 213.666C182.324 212.921 182.928 212.318 183.672 212.318C184.417 212.318 185.021 212.921 185.021 213.666C185.021 214.41 184.417 215.014 183.672 215.014Z" fill="#71869D"/>
<path d="M153.341 215.014C152.597 215.014 151.993 214.41 151.993 213.666C151.993 212.921 152.597 212.318 153.341 212.318C154.086 212.318 154.689 212.921 154.689 213.666C154.689 214.41 154.086 215.014 153.341 215.014Z" fill="#71869D"/>
<path d="M123.01 215.014C122.266 215.014 121.662 214.41 121.662 213.666C121.662 212.921 122.266 212.318 123.01 212.318C123.755 212.318 124.358 212.921 124.358 213.666C124.358 214.41 123.755 215.014 123.01 215.014Z" fill="#71869D"/>
<path d="M274.666 245.345C273.921 245.345 273.318 244.741 273.318 243.997C273.318 243.252 273.921 242.649 274.666 242.649C275.41 242.649 276.014 243.252 276.014 243.997C276.014 244.741 275.41 245.345 274.666 245.345Z" fill="#71869D"/>
<path d="M244.335 245.345C243.59 245.345 242.987 244.741 242.987 243.997C242.987 243.252 243.59 242.649 244.335 242.649C245.079 242.649 245.683 243.252 245.683 243.997C245.683 244.741 245.079 245.345 244.335 245.345Z" fill="#71869D"/>
<path d="M214.004 245.345C213.259 245.345 212.655 244.741 212.655 243.997C212.655 243.252 213.259 242.649 214.004 242.649C214.748 242.649 215.352 243.252 215.352 243.997C215.352 244.741 214.748 245.345 214.004 245.345Z" fill="#71869D"/>
<path d="M183.672 245.345C182.928 245.345 182.324 244.741 182.324 243.997C182.324 243.252 182.928 242.649 183.672 242.649C184.417 242.649 185.021 243.252 185.021 243.997C185.021 244.741 184.417 245.345 183.672 245.345Z" fill="#71869D"/>
<path d="M153.341 245.345C152.597 245.345 151.993 244.741 151.993 243.997C151.993 243.252 152.597 242.649 153.341 242.649C154.086 242.649 154.689 243.252 154.689 243.997C154.689 244.741 154.086 245.345 153.341 245.345Z" fill="#71869D"/>
<path d="M123.01 245.345C122.266 245.345 121.662 244.741 121.662 243.997C121.662 243.252 122.266 242.649 123.01 242.649C123.755 242.649 124.358 243.252 124.358 243.997C124.358 244.741 123.755 245.345 123.01 245.345Z" fill="#71869D"/>
<path d="M274.666 275.676C273.921 275.676 273.318 275.072 273.318 274.328C273.318 273.583 273.921 272.98 274.666 272.98C275.41 272.98 276.014 273.583 276.014 274.328C276.014 275.072 275.41 275.676 274.666 275.676Z" fill="#71869D"/>
<path d="M244.335 275.676C243.59 275.676 242.987 275.072 242.987 274.328C242.987 273.583 243.59 272.98 244.335 272.98C245.079 272.98 245.683 273.583 245.683 274.328C245.683 275.072 245.079 275.676 244.335 275.676Z" fill="#71869D"/>
<path d="M214.004 275.676C213.259 275.676 212.655 275.072 212.655 274.328C212.655 273.583 213.259 272.98 214.004 272.98C214.748 272.98 215.352 273.583 215.352 274.328C215.352 275.072 214.748 275.676 214.004 275.676Z" fill="#71869D"/>
<path d="M183.672 275.676C182.928 275.676 182.324 275.072 182.324 274.328C182.324 273.583 182.928 272.98 183.672 272.98C184.417 272.98 185.021 273.583 185.021 274.328C185.021 275.072 184.417 275.676 183.672 275.676Z" fill="#71869D"/>
<path d="M153.341 275.676C152.597 275.676 151.993 275.072 151.993 274.328C151.993 273.583 152.597 272.98 153.341 272.98C154.086 272.98 154.689 273.583 154.689 274.328C154.689 275.072 154.086 275.676 153.341 275.676Z" fill="#71869D"/>
<path d="M123.01 275.676C122.266 275.676 121.662 275.072 121.662 274.328C121.662 273.583 122.266 272.98 123.01 272.98C123.755 272.98 124.358 273.583 124.358 274.328C124.358 275.072 123.755 275.676 123.01 275.676Z" fill="#71869D"/>
<path d="M274.666 306.007C273.921 306.007 273.318 305.403 273.318 304.659C273.318 303.914 273.921 303.311 274.666 303.311C275.41 303.311 276.014 303.914 276.014 304.659C276.014 305.403 275.41 306.007 274.666 306.007Z" fill="#71869D"/>
<path d="M244.335 306.007C243.59 306.007 242.987 305.403 242.987 304.659C242.987 303.914 243.59 303.311 244.335 303.311C245.079 303.311 245.683 303.914 245.683 304.659C245.683 305.403 245.079 306.007 244.335 306.007Z" fill="#71869D"/>
<path d="M214.004 306.007C213.259 306.007 212.655 305.403 212.655 304.659C212.655 303.914 213.259 303.311 214.004 303.311C214.748 303.311 215.352 303.914 215.352 304.659C215.352 305.403 214.748 306.007 214.004 306.007Z" fill="#71869D"/>
<path d="M183.672 306.007C182.928 306.007 182.324 305.403 182.324 304.659C182.324 303.914 182.928 303.311 183.672 303.311C184.417 303.311 185.021 303.914 185.021 304.659C185.021 305.403 184.417 306.007 183.672 306.007Z" fill="#71869D"/>
<path d="M153.341 306.007C152.597 306.007 151.993 305.403 151.993 304.659C151.993 303.914 152.597 303.311 153.341 303.311C154.086 303.311 154.689 303.914 154.689 304.659C154.689 305.403 154.086 306.007 153.341 306.007Z" fill="#71869D"/>
<path d="M123.01 306.007C122.266 306.007 121.662 305.403 121.662 304.659C121.662 303.914 122.266 303.311 123.01 303.311C123.755 303.311 124.358 303.914 124.358 304.659C124.358 305.403 123.755 306.007 123.01 306.007Z" fill="#71869D"/>
<path d="M92.6793 2.6961C91.9348 2.6961 91.3312 2.09255 91.3312 1.34805C91.3312 0.603541 91.9348 1.82933e-07 92.6793 1.1785e-07C93.4238 5.27674e-08 94.0273 0.603541 94.0273 1.34805C94.0273 2.09255 93.4238 2.6961 92.6793 2.6961Z" fill="#71869D"/>
<path d="M62.3482 2.6961C61.6038 2.6961 61.0002 2.09255 61.0002 1.34805C61.0002 0.603541 61.6038 1.82933e-07 62.3482 1.1785e-07C63.0927 5.27674e-08 63.6963 0.603541 63.6963 1.34805C63.6963 2.09255 63.0927 2.6961 62.3482 2.6961Z" fill="#71869D"/>
<path d="M92.6793 33.0271C91.9348 33.0271 91.3312 32.4236 91.3312 31.6791C91.3312 30.9346 91.9348 30.3311 92.6793 30.3311C93.4238 30.3311 94.0273 30.9346 94.0273 31.6791C94.0273 32.4236 93.4238 33.0271 92.6793 33.0271Z" fill="#71869D"/>
<path d="M62.3482 33.0271C61.6038 33.0271 61.0002 32.4236 61.0002 31.6791C61.0002 30.9346 61.6038 30.3311 62.3482 30.3311C63.0927 30.3311 63.6963 30.9346 63.6963 31.6791C63.6963 32.4236 63.0927 33.0271 62.3482 33.0271Z" fill="#71869D"/>
<path d="M92.6793 63.3582C91.9348 63.3582 91.3312 62.7546 91.3312 62.0102C91.3312 61.2657 91.9348 60.6621 92.6793 60.6621C93.4238 60.6621 94.0273 61.2657 94.0273 62.0102C94.0273 62.7546 93.4238 63.3582 92.6793 63.3582Z" fill="#71869D"/>
<path d="M62.3482 63.3582C61.6038 63.3582 61.0002 62.7546 61.0002 62.0102C61.0002 61.2657 61.6038 60.6621 62.3482 60.6621C63.0927 60.6621 63.6963 61.2657 63.6963 62.0102C63.6963 62.7546 63.0927 63.3582 62.3482 63.3582Z" fill="#71869D"/>
<path d="M92.6793 93.6894C91.9348 93.6894 91.3312 93.0858 91.3312 92.3413C91.3312 91.5969 91.9348 90.9933 92.6793 90.9933C93.4238 90.9933 94.0273 91.5969 94.0273 92.3413C94.0273 93.0858 93.4238 93.6894 92.6793 93.6894Z" fill="#71869D"/>
<path d="M62.3482 93.6894C61.6038 93.6894 61.0002 93.0858 61.0002 92.3413C61.0002 91.5969 61.6038 90.9933 62.3482 90.9933C63.0927 90.9933 63.6963 91.5969 63.6963 92.3413C63.6963 93.0858 63.0927 93.6894 62.3482 93.6894Z" fill="#71869D"/>
<path d="M92.6793 124.02C91.9348 124.02 91.3312 123.417 91.3312 122.672C91.3312 121.928 91.9348 121.324 92.6793 121.324C93.4238 121.324 94.0273 121.928 94.0273 122.672C94.0273 123.417 93.4238 124.02 92.6793 124.02Z" fill="#71869D"/>
<path d="M62.3482 124.02C61.6038 124.02 61.0002 123.417 61.0002 122.672C61.0002 121.928 61.6038 121.324 62.3482 121.324C63.0927 121.324 63.6963 121.928 63.6963 122.672C63.6963 123.417 63.0927 124.02 62.3482 124.02Z" fill="#71869D"/>
<path d="M92.6793 154.351C91.9348 154.351 91.3312 153.748 91.3312 153.003C91.3312 152.259 91.9348 151.655 92.6793 151.655C93.4238 151.655 94.0273 152.259 94.0273 153.003C94.0273 153.748 93.4238 154.351 92.6793 154.351Z" fill="#71869D"/>
<path d="M62.3482 154.351C61.6038 154.351 61.0002 153.748 61.0002 153.003C61.0002 152.259 61.6038 151.655 62.3482 151.655C63.0927 151.655 63.6963 152.259 63.6963 153.003C63.6963 153.748 63.0927 154.351 62.3482 154.351Z" fill="#71869D"/>
<path d="M92.6793 184.683C91.9348 184.683 91.3312 184.079 91.3312 183.334C91.3312 182.59 91.9348 181.986 92.6793 181.986C93.4238 181.986 94.0273 182.59 94.0273 183.334C94.0273 184.079 93.4238 184.683 92.6793 184.683Z" fill="#71869D"/>
<path d="M62.3482 184.683C61.6038 184.683 61.0002 184.079 61.0002 183.334C61.0002 182.59 61.6038 181.986 62.3482 181.986C63.0927 181.986 63.6963 182.59 63.6963 183.334C63.6963 184.079 63.0927 184.683 62.3482 184.683Z" fill="#71869D"/>
<path d="M92.6793 215.014C91.9348 215.014 91.3312 214.41 91.3312 213.666C91.3312 212.921 91.9348 212.318 92.6793 212.318C93.4238 212.318 94.0273 212.921 94.0273 213.666C94.0273 214.41 93.4238 215.014 92.6793 215.014Z" fill="#71869D"/>
<path d="M62.3482 215.014C61.6038 215.014 61.0002 214.41 61.0002 213.666C61.0002 212.921 61.6038 212.318 62.3482 212.318C63.0927 212.318 63.6963 212.921 63.6963 213.666C63.6963 214.41 63.0927 215.014 62.3482 215.014Z" fill="#71869D"/>
<path d="M92.6793 245.345C91.9348 245.345 91.3312 244.741 91.3312 243.997C91.3312 243.252 91.9348 242.649 92.6793 242.649C93.4238 242.649 94.0273 243.252 94.0273 243.997C94.0273 244.741 93.4238 245.345 92.6793 245.345Z" fill="#71869D"/>
<path d="M62.3482 245.345C61.6038 245.345 61.0002 244.741 61.0002 243.997C61.0002 243.252 61.6038 242.649 62.3482 242.649C63.0927 242.649 63.6963 243.252 63.6963 243.997C63.6963 244.741 63.0927 245.345 62.3482 245.345Z" fill="#71869D"/>
<path d="M92.6793 275.676C91.9348 275.676 91.3312 275.072 91.3312 274.328C91.3312 273.583 91.9348 272.98 92.6793 272.98C93.4238 272.98 94.0273 273.583 94.0273 274.328C94.0273 275.072 93.4238 275.676 92.6793 275.676Z" fill="#71869D"/>
<path d="M62.3482 275.676C61.6038 275.676 61.0002 275.072 61.0002 274.328C61.0002 273.583 61.6038 272.98 62.3482 272.98C63.0927 272.98 63.6963 273.583 63.6963 274.328C63.6963 275.072 63.0927 275.676 62.3482 275.676Z" fill="#71869D"/>
<path d="M92.6793 306.007C91.9348 306.007 91.3312 305.403 91.3312 304.659C91.3312 303.914 91.9348 303.311 92.6793 303.311C93.4238 303.311 94.0273 303.914 94.0273 304.659C94.0273 305.403 93.4238 306.007 92.6793 306.007Z" fill="#71869D"/>
<path d="M62.3482 306.007C61.6038 306.007 61.0002 305.403 61.0002 304.659C61.0002 303.914 61.6038 303.311 62.3482 303.311C63.0927 303.311 63.6963 303.914 63.6963 304.659C63.6963 305.403 63.0927 306.007 62.3482 306.007Z" fill="#71869D"/>
<path d="M274.666 336.338C273.921 336.338 273.318 335.734 273.318 334.99C273.318 334.245 273.921 333.642 274.666 333.642C275.41 333.642 276.014 334.245 276.014 334.99C276.014 335.734 275.41 336.338 274.666 336.338Z" fill="#71869D"/>
<path d="M244.335 336.338C243.59 336.338 242.987 335.734 242.987 334.99C242.987 334.245 243.59 333.642 244.335 333.642C245.079 333.642 245.683 334.245 245.683 334.99C245.683 335.734 245.079 336.338 244.335 336.338Z" fill="#71869D"/>
<path d="M214.004 336.338C213.259 336.338 212.655 335.734 212.655 334.99C212.655 334.245 213.259 333.642 214.004 333.642C214.748 333.642 215.352 334.245 215.352 334.99C215.352 335.734 214.748 336.338 214.004 336.338Z" fill="#71869D"/>
<path d="M183.672 336.338C182.928 336.338 182.324 335.734 182.324 334.99C182.324 334.245 182.928 333.642 183.672 333.642C184.417 333.642 185.021 334.245 185.021 334.99C185.021 335.734 184.417 336.338 183.672 336.338Z" fill="#71869D"/>
<path d="M153.341 336.338C152.597 336.338 151.993 335.734 151.993 334.99C151.993 334.245 152.597 333.642 153.341 333.642C154.086 333.642 154.689 334.245 154.689 334.99C154.689 335.734 154.086 336.338 153.341 336.338Z" fill="#71869D"/>
<path d="M123.01 336.338C122.266 336.338 121.662 335.734 121.662 334.99C121.662 334.245 122.266 333.642 123.01 333.642C123.755 333.642 124.358 334.245 124.358 334.99C124.358 335.734 123.755 336.338 123.01 336.338Z" fill="#71869D"/>
<path d="M274.666 366.669C273.921 366.669 273.318 366.066 273.318 365.321C273.318 364.576 273.921 363.973 274.666 363.973C275.41 363.973 276.014 364.576 276.014 365.321C276.014 366.066 275.41 366.669 274.666 366.669Z" fill="#71869D"/>
<path d="M244.335 366.669C243.59 366.669 242.987 366.066 242.987 365.321C242.987 364.576 243.59 363.973 244.335 363.973C245.079 363.973 245.683 364.576 245.683 365.321C245.683 366.066 245.079 366.669 244.335 366.669Z" fill="#71869D"/>
<path d="M214.004 366.669C213.259 366.669 212.655 366.066 212.655 365.321C212.655 364.576 213.259 363.973 214.004 363.973C214.748 363.973 215.352 364.576 215.352 365.321C215.352 366.066 214.748 366.669 214.004 366.669Z" fill="#71869D"/>
<path d="M183.672 366.669C182.928 366.669 182.324 366.066 182.324 365.321C182.324 364.576 182.928 363.973 183.672 363.973C184.417 363.973 185.021 364.576 185.021 365.321C185.021 366.066 184.417 366.669 183.672 366.669Z" fill="#71869D"/>
<path d="M153.341 366.669C152.597 366.669 151.993 366.066 151.993 365.321C151.993 364.576 152.597 363.973 153.341 363.973C154.086 363.973 154.689 364.576 154.689 365.321C154.689 366.066 154.086 366.669 153.341 366.669Z" fill="#71869D"/>
<path d="M123.01 366.669C122.266 366.669 121.662 366.066 121.662 365.321C121.662 364.576 122.266 363.973 123.01 363.973C123.755 363.973 124.358 364.576 124.358 365.321C124.358 366.066 123.755 366.669 123.01 366.669Z" fill="#71869D"/>
<path d="M274.666 397C273.921 397 273.318 396.397 273.318 395.652C273.318 394.907 273.921 394.304 274.666 394.304C275.41 394.304 276.014 394.907 276.014 395.652C276.014 396.397 275.41 397 274.666 397Z" fill="#71869D"/>
<path d="M244.335 397C243.59 397 242.987 396.397 242.987 395.652C242.987 394.907 243.59 394.304 244.335 394.304C245.079 394.304 245.683 394.907 245.683 395.652C245.683 396.397 245.079 397 244.335 397Z" fill="#71869D"/>
<path d="M214.004 397C213.259 397 212.655 396.397 212.655 395.652C212.655 394.907 213.259 394.304 214.004 394.304C214.748 394.304 215.352 394.907 215.352 395.652C215.352 396.397 214.748 397 214.004 397Z" fill="#71869D"/>
<path d="M183.672 397C182.928 397 182.324 396.397 182.324 395.652C182.324 394.907 182.928 394.304 183.672 394.304C184.417 394.304 185.021 394.907 185.021 395.652C185.021 396.397 184.417 397 183.672 397Z" fill="#71869D"/>
<path d="M153.341 397C152.597 397 151.993 396.397 151.993 395.652C151.993 394.907 152.597 394.304 153.341 394.304C154.086 394.304 154.689 394.907 154.689 395.652C154.689 396.397 154.086 397 153.341 397Z" fill="#71869D"/>
<path d="M123.01 397C122.266 397 121.662 396.397 121.662 395.652C121.662 394.907 122.266 394.304 123.01 394.304C123.755 394.304 124.358 394.907 124.358 395.652C124.358 396.397 123.755 397 123.01 397Z" fill="#71869D"/>
<path d="M92.6793 336.338C91.9348 336.338 91.3312 335.734 91.3312 334.99C91.3312 334.245 91.9348 333.642 92.6793 333.642C93.4238 333.642 94.0273 334.245 94.0273 334.99C94.0273 335.734 93.4238 336.338 92.6793 336.338Z" fill="#71869D"/>
<path d="M62.3482 336.338C61.6038 336.338 61.0002 335.734 61.0002 334.99C61.0002 334.245 61.6038 333.642 62.3482 333.642C63.0927 333.642 63.6963 334.245 63.6963 334.99C63.6963 335.734 63.0927 336.338 62.3482 336.338Z" fill="#71869D"/>
<path d="M92.6793 366.669C91.9348 366.669 91.3312 366.066 91.3312 365.321C91.3312 364.576 91.9348 363.973 92.6793 363.973C93.4238 363.973 94.0273 364.576 94.0273 365.321C94.0273 366.066 93.4238 366.669 92.6793 366.669Z" fill="#71869D"/>
<path d="M62.3482 366.669C61.6038 366.669 61.0002 366.066 61.0002 365.321C61.0002 364.576 61.6038 363.973 62.3482 363.973C63.0927 363.973 63.6963 364.576 63.6963 365.321C63.6963 366.066 63.0927 366.669 62.3482 366.669Z" fill="#71869D"/>
<path d="M92.6793 397C91.9348 397 91.3312 396.397 91.3312 395.652C91.3312 394.907 91.9348 394.304 92.6793 394.304C93.4238 394.304 94.0273 394.907 94.0273 395.652C94.0273 396.397 93.4238 397 92.6793 397Z" fill="#71869D"/>
<path d="M62.3482 397C61.6038 397 61.0002 396.397 61.0002 395.652C61.0002 394.907 61.6038 394.304 62.3482 394.304C63.0927 394.304 63.6963 394.907 63.6963 395.652C63.6963 396.397 63.0927 397 62.3482 397Z" fill="#71869D"/>
</g>
<g clip-path="url(#clip1_158_484)">
<path d="M580.304 475.666C580.304 474.921 580.907 474.318 581.652 474.318C582.396 474.318 583 474.921 583 475.666C583 476.41 582.396 477.014 581.652 477.014C580.907 477.014 580.304 476.41 580.304 475.666Z" fill="#71869D"/>
<path d="M580.304 445.335C580.304 444.59 580.907 443.987 581.652 443.987C582.396 443.987 583 444.59 583 445.335C583 446.079 582.396 446.683 581.652 446.683C580.907 446.683 580.304 446.079 580.304 445.335Z" fill="#71869D"/>
<path d="M580.304 415.004C580.304 414.259 580.907 413.655 581.652 413.655C582.396 413.655 583 414.259 583 415.004C583 415.748 582.396 416.352 581.652 416.352C580.907 416.352 580.304 415.748 580.304 415.004Z" fill="#71869D"/>
<path d="M580.304 384.672C580.304 383.928 580.907 383.324 581.652 383.324C582.396 383.324 583 383.928 583 384.672C583 385.417 582.396 386.021 581.652 386.021C580.907 386.021 580.304 385.417 580.304 384.672Z" fill="#71869D"/>
<path d="M580.304 354.341C580.304 353.597 580.907 352.993 581.652 352.993C582.396 352.993 583 353.597 583 354.341C583 355.086 582.396 355.689 581.652 355.689C580.907 355.689 580.304 355.086 580.304 354.341Z" fill="#71869D"/>
<path d="M580.304 324.01C580.304 323.266 580.907 322.662 581.652 322.662C582.396 322.662 583 323.266 583 324.01C583 324.755 582.396 325.358 581.652 325.358C580.907 325.358 580.304 324.755 580.304 324.01Z" fill="#71869D"/>
<path d="M549.973 475.666C549.973 474.921 550.576 474.318 551.321 474.318C552.065 474.318 552.669 474.921 552.669 475.666C552.669 476.41 552.065 477.014 551.321 477.014C550.576 477.014 549.973 476.41 549.973 475.666Z" fill="#71869D"/>
<path d="M549.973 445.335C549.973 444.59 550.576 443.987 551.321 443.987C552.065 443.987 552.669 444.59 552.669 445.335C552.669 446.079 552.065 446.683 551.321 446.683C550.576 446.683 549.973 446.079 549.973 445.335Z" fill="#71869D"/>
<path d="M549.973 415.004C549.973 414.259 550.576 413.655 551.321 413.655C552.065 413.655 552.669 414.259 552.669 415.004C552.669 415.748 552.065 416.352 551.321 416.352C550.576 416.352 549.973 415.748 549.973 415.004Z" fill="#71869D"/>
<path d="M549.973 384.672C549.973 383.928 550.576 383.324 551.321 383.324C552.065 383.324 552.669 383.928 552.669 384.672C552.669 385.417 552.065 386.021 551.321 386.021C550.576 386.021 549.973 385.417 549.973 384.672Z" fill="#71869D"/>
<path d="M549.973 354.341C549.973 353.597 550.576 352.993 551.321 352.993C552.065 352.993 552.669 353.597 552.669 354.341C552.669 355.086 552.065 355.689 551.321 355.689C550.576 355.689 549.973 355.086 549.973 354.341Z" fill="#71869D"/>
<path d="M549.973 324.01C549.973 323.266 550.576 322.662 551.321 322.662C552.065 322.662 552.669 323.266 552.669 324.01C552.669 324.755 552.065 325.358 551.321 325.358C550.576 325.358 549.973 324.755 549.973 324.01Z" fill="#71869D"/>
<path d="M519.642 475.666C519.642 474.921 520.245 474.318 520.99 474.318C521.734 474.318 522.338 474.921 522.338 475.666C522.338 476.41 521.734 477.014 520.99 477.014C520.245 477.014 519.642 476.41 519.642 475.666Z" fill="#71869D"/>
<path d="M519.642 445.335C519.642 444.59 520.245 443.987 520.99 443.987C521.734 443.987 522.338 444.59 522.338 445.335C522.338 446.079 521.734 446.683 520.99 446.683C520.245 446.683 519.642 446.079 519.642 445.335Z" fill="#71869D"/>
<path d="M519.642 415.004C519.642 414.259 520.245 413.655 520.99 413.655C521.734 413.655 522.338 414.259 522.338 415.004C522.338 415.748 521.734 416.352 520.99 416.352C520.245 416.352 519.642 415.748 519.642 415.004Z" fill="#71869D"/>
<path d="M519.642 384.672C519.642 383.928 520.245 383.324 520.99 383.324C521.734 383.324 522.338 383.928 522.338 384.672C522.338 385.417 521.734 386.021 520.99 386.021C520.245 386.021 519.642 385.417 519.642 384.672Z" fill="#71869D"/>
<path d="M519.642 354.341C519.642 353.597 520.245 352.993 520.99 352.993C521.734 352.993 522.338 353.597 522.338 354.341C522.338 355.086 521.734 355.689 520.99 355.689C520.245 355.689 519.642 355.086 519.642 354.341Z" fill="#71869D"/>
<path d="M519.642 324.01C519.642 323.266 520.245 322.662 520.99 322.662C521.734 322.662 522.338 323.266 522.338 324.01C522.338 324.755 521.734 325.358 520.99 325.358C520.245 325.358 519.642 324.755 519.642 324.01Z" fill="#71869D"/>
<path d="M489.311 475.666C489.311 474.921 489.914 474.318 490.659 474.318C491.403 474.318 492.007 474.921 492.007 475.666C492.007 476.41 491.403 477.014 490.659 477.014C489.914 477.014 489.311 476.41 489.311 475.666Z" fill="#71869D"/>
<path d="M489.311 445.335C489.311 444.59 489.914 443.987 490.659 443.987C491.403 443.987 492.007 444.59 492.007 445.335C492.007 446.079 491.403 446.683 490.659 446.683C489.914 446.683 489.311 446.079 489.311 445.335Z" fill="#71869D"/>
<path d="M489.311 415.004C489.311 414.259 489.914 413.655 490.659 413.655C491.403 413.655 492.007 414.259 492.007 415.004C492.007 415.748 491.403 416.352 490.659 416.352C489.914 416.352 489.311 415.748 489.311 415.004Z" fill="#71869D"/>
<path d="M489.311 384.672C489.311 383.928 489.914 383.324 490.659 383.324C491.403 383.324 492.007 383.928 492.007 384.672C492.007 385.417 491.403 386.021 490.659 386.021C489.914 386.021 489.311 385.417 489.311 384.672Z" fill="#71869D"/>
<path d="M489.311 354.341C489.311 353.597 489.914 352.993 490.659 352.993C491.403 352.993 492.007 353.597 492.007 354.341C492.007 355.086 491.403 355.689 490.659 355.689C489.914 355.689 489.311 355.086 489.311 354.341Z" fill="#71869D"/>
<path d="M489.311 324.01C489.311 323.266 489.914 322.662 490.659 322.662C491.403 322.662 492.007 323.266 492.007 324.01C492.007 324.755 491.403 325.358 490.659 325.358C489.914 325.358 489.311 324.755 489.311 324.01Z" fill="#71869D"/>
<path d="M458.98 475.666C458.98 474.921 459.583 474.318 460.328 474.318C461.072 474.318 461.676 474.921 461.676 475.666C461.676 476.41 461.072 477.014 460.328 477.014C459.583 477.014 458.98 476.41 458.98 475.666Z" fill="#71869D"/>
<path d="M458.98 445.335C458.98 444.59 459.583 443.987 460.328 443.987C461.072 443.987 461.676 444.59 461.676 445.335C461.676 446.079 461.072 446.683 460.328 446.683C459.583 446.683 458.98 446.079 458.98 445.335Z" fill="#71869D"/>
<path d="M458.98 415.004C458.98 414.259 459.583 413.655 460.328 413.655C461.072 413.655 461.676 414.259 461.676 415.004C461.676 415.748 461.072 416.352 460.328 416.352C459.583 416.352 458.98 415.748 458.98 415.004Z" fill="#71869D"/>
<path d="M458.98 384.672C458.98 383.928 459.583 383.324 460.328 383.324C461.072 383.324 461.676 383.928 461.676 384.672C461.676 385.417 461.072 386.021 460.328 386.021C459.583 386.021 458.98 385.417 458.98 384.672Z" fill="#71869D"/>
<path d="M458.98 354.341C458.98 353.597 459.583 352.993 460.328 352.993C461.072 352.993 461.676 353.597 461.676 354.341C461.676 355.086 461.072 355.689 460.328 355.689C459.583 355.689 458.98 355.086 458.98 354.341Z" fill="#71869D"/>
<path d="M458.98 324.01C458.98 323.266 459.583 322.662 460.328 322.662C461.072 322.662 461.676 323.266 461.676 324.01C461.676 324.755 461.072 325.358 460.328 325.358C459.583 325.358 458.98 324.755 458.98 324.01Z" fill="#71869D"/>
<path d="M428.649 475.666C428.649 474.921 429.252 474.318 429.997 474.318C430.741 474.318 431.345 474.921 431.345 475.666C431.345 476.41 430.741 477.014 429.997 477.014C429.252 477.014 428.649 476.41 428.649 475.666Z" fill="#71869D"/>
<path d="M428.649 445.335C428.649 444.59 429.252 443.987 429.997 443.987C430.741 443.987 431.345 444.59 431.345 445.335C431.345 446.079 430.741 446.683 429.997 446.683C429.252 446.683 428.649 446.079 428.649 445.335Z" fill="#71869D"/>
<path d="M428.649 415.004C428.649 414.259 429.252 413.655 429.997 413.655C430.741 413.655 431.345 414.259 431.345 415.004C431.345 415.748 430.741 416.352 429.997 416.352C429.252 416.352 428.649 415.748 428.649 415.004Z" fill="#71869D"/>
<path d="M428.649 384.672C428.649 383.928 429.252 383.324 429.997 383.324C430.741 383.324 431.345 383.928 431.345 384.672C431.345 385.417 430.741 386.021 429.997 386.021C429.252 386.021 428.649 385.417 428.649 384.672Z" fill="#71869D"/>
<path d="M428.649 354.341C428.649 353.597 429.252 352.993 429.997 352.993C430.741 352.993 431.345 353.597 431.345 354.341C431.345 355.086 430.741 355.689 429.997 355.689C429.252 355.689 428.649 355.086 428.649 354.341Z" fill="#71869D"/>
<path d="M428.649 324.01C428.649 323.266 429.252 322.662 429.997 322.662C430.741 322.662 431.345 323.266 431.345 324.01C431.345 324.755 430.741 325.358 429.997 325.358C429.252 325.358 428.649 324.755 428.649 324.01Z" fill="#71869D"/>
<path d="M398.318 475.666C398.318 474.921 398.921 474.318 399.666 474.318C400.41 474.318 401.014 474.921 401.014 475.666C401.014 476.41 400.41 477.014 399.666 477.014C398.921 477.014 398.318 476.41 398.318 475.666Z" fill="#71869D"/>
<path d="M398.318 445.335C398.318 444.59 398.921 443.987 399.666 443.987C400.41 443.987 401.014 444.59 401.014 445.335C401.014 446.079 400.41 446.683 399.666 446.683C398.921 446.683 398.318 446.079 398.318 445.335Z" fill="#71869D"/>
<path d="M398.318 415.004C398.318 414.259 398.921 413.655 399.666 413.655C400.41 413.655 401.014 414.259 401.014 415.004C401.014 415.748 400.41 416.352 399.666 416.352C398.921 416.352 398.318 415.748 398.318 415.004Z" fill="#71869D"/>
<path d="M398.318 384.672C398.318 383.928 398.921 383.324 399.666 383.324C400.41 383.324 401.014 383.928 401.014 384.672C401.014 385.417 400.41 386.021 399.666 386.021C398.921 386.021 398.318 385.417 398.318 384.672Z" fill="#71869D"/>
<path d="M398.318 354.341C398.318 353.597 398.921 352.993 399.666 352.993C400.41 352.993 401.014 353.597 401.014 354.341C401.014 355.086 400.41 355.689 399.666 355.689C398.921 355.689 398.318 355.086 398.318 354.341Z" fill="#71869D"/>
<path d="M398.318 324.01C398.318 323.266 398.921 322.662 399.666 322.662C400.41 322.662 401.014 323.266 401.014 324.01C401.014 324.755 400.41 325.358 399.666 325.358C398.921 325.358 398.318 324.755 398.318 324.01Z" fill="#71869D"/>
<path d="M367.987 475.666C367.987 474.921 368.59 474.318 369.335 474.318C370.079 474.318 370.683 474.921 370.683 475.666C370.683 476.41 370.079 477.014 369.335 477.014C368.59 477.014 367.987 476.41 367.987 475.666Z" fill="#71869D"/>
<path d="M367.987 445.335C367.987 444.59 368.59 443.987 369.335 443.987C370.079 443.987 370.683 444.59 370.683 445.335C370.683 446.079 370.079 446.683 369.335 446.683C368.59 446.683 367.987 446.079 367.987 445.335Z" fill="#71869D"/>
<path d="M367.987 415.004C367.987 414.259 368.59 413.655 369.335 413.655C370.079 413.655 370.683 414.259 370.683 415.004C370.683 415.748 370.079 416.352 369.335 416.352C368.59 416.352 367.987 415.748 367.987 415.004Z" fill="#71869D"/>
<path d="M367.987 384.672C367.987 383.928 368.59 383.324 369.335 383.324C370.079 383.324 370.683 383.928 370.683 384.672C370.683 385.417 370.079 386.021 369.335 386.021C368.59 386.021 367.987 385.417 367.987 384.672Z" fill="#71869D"/>
<path d="M367.987 354.341C367.987 353.597 368.59 352.993 369.335 352.993C370.079 352.993 370.683 353.597 370.683 354.341C370.683 355.086 370.079 355.689 369.335 355.689C368.59 355.689 367.987 355.086 367.987 354.341Z" fill="#71869D"/>
<path d="M367.987 324.01C367.987 323.266 368.59 322.662 369.335 322.662C370.079 322.662 370.683 323.266 370.683 324.01C370.683 324.755 370.079 325.358 369.335 325.358C368.59 325.358 367.987 324.755 367.987 324.01Z" fill="#71869D"/>
<path d="M337.655 475.666C337.655 474.921 338.259 474.318 339.004 474.318C339.748 474.318 340.352 474.921 340.352 475.666C340.352 476.41 339.748 477.014 339.004 477.014C338.259 477.014 337.655 476.41 337.655 475.666Z" fill="#71869D"/>
<path d="M337.655 445.335C337.655 444.59 338.259 443.987 339.004 443.987C339.748 443.987 340.352 444.59 340.352 445.335C340.352 446.079 339.748 446.683 339.004 446.683C338.259 446.683 337.655 446.079 337.655 445.335Z" fill="#71869D"/>
<path d="M337.655 415.004C337.655 414.259 338.259 413.655 339.004 413.655C339.748 413.655 340.352 414.259 340.352 415.004C340.352 415.748 339.748 416.352 339.004 416.352C338.259 416.352 337.655 415.748 337.655 415.004Z" fill="#71869D"/>
<path d="M337.655 384.672C337.655 383.928 338.259 383.324 339.004 383.324C339.748 383.324 340.352 383.928 340.352 384.672C340.352 385.417 339.748 386.021 339.004 386.021C338.259 386.021 337.655 385.417 337.655 384.672Z" fill="#71869D"/>
<path d="M337.655 354.341C337.655 353.597 338.259 352.993 339.004 352.993C339.748 352.993 340.352 353.597 340.352 354.341C340.352 355.086 339.748 355.689 339.004 355.689C338.259 355.689 337.655 355.086 337.655 354.341Z" fill="#71869D"/>
<path d="M337.655 324.01C337.655 323.266 338.259 322.662 339.004 322.662C339.748 322.662 340.352 323.266 340.352 324.01C340.352 324.755 339.748 325.358 339.004 325.358C338.259 325.358 337.655 324.755 337.655 324.01Z" fill="#71869D"/>
<path d="M307.324 475.666C307.324 474.921 307.928 474.318 308.672 474.318C309.417 474.318 310.021 474.921 310.021 475.666C310.021 476.41 309.417 477.014 308.672 477.014C307.928 477.014 307.324 476.41 307.324 475.666Z" fill="#71869D"/>
<path d="M307.324 445.335C307.324 444.59 307.928 443.987 308.672 443.987C309.417 443.987 310.021 444.59 310.021 445.335C310.021 446.079 309.417 446.683 308.672 446.683C307.928 446.683 307.324 446.079 307.324 445.335Z" fill="#71869D"/>
<path d="M307.324 415.004C307.324 414.259 307.928 413.655 308.672 413.655C309.417 413.655 310.021 414.259 310.021 415.004C310.021 415.748 309.417 416.352 308.672 416.352C307.928 416.352 307.324 415.748 307.324 415.004Z" fill="#71869D"/>
<path d="M307.324 384.672C307.324 383.928 307.928 383.324 308.672 383.324C309.417 383.324 310.021 383.928 310.021 384.672C310.021 385.417 309.417 386.021 308.672 386.021C307.928 386.021 307.324 385.417 307.324 384.672Z" fill="#71869D"/>
<path d="M307.324 354.341C307.324 353.597 307.928 352.993 308.672 352.993C309.417 352.993 310.021 353.597 310.021 354.341C310.021 355.086 309.417 355.689 308.672 355.689C307.928 355.689 307.324 355.086 307.324 354.341Z" fill="#71869D"/>
<path d="M307.324 324.01C307.324 323.266 307.928 322.662 308.672 322.662C309.417 322.662 310.021 323.266 310.021 324.01C310.021 324.755 309.417 325.358 308.672 325.358C307.928 325.358 307.324 324.755 307.324 324.01Z" fill="#71869D"/>
<path d="M276.993 475.666C276.993 474.921 277.597 474.318 278.341 474.318C279.086 474.318 279.689 474.921 279.689 475.666C279.689 476.41 279.086 477.014 278.341 477.014C277.597 477.014 276.993 476.41 276.993 475.666Z" fill="#71869D"/>
<path d="M276.993 445.335C276.993 444.59 277.597 443.987 278.341 443.987C279.086 443.987 279.689 444.59 279.689 445.335C279.689 446.079 279.086 446.683 278.341 446.683C277.597 446.683 276.993 446.079 276.993 445.335Z" fill="#71869D"/>
<path d="M276.993 415.004C276.993 414.259 277.597 413.655 278.341 413.655C279.086 413.655 279.689 414.259 279.689 415.004C279.689 415.748 279.086 416.352 278.341 416.352C277.597 416.352 276.993 415.748 276.993 415.004Z" fill="#71869D"/>
<path d="M276.993 384.672C276.993 383.928 277.597 383.324 278.341 383.324C279.086 383.324 279.689 383.928 279.689 384.672C279.689 385.417 279.086 386.021 278.341 386.021C277.597 386.021 276.993 385.417 276.993 384.672Z" fill="#71869D"/>
<path d="M276.993 354.341C276.993 353.597 277.597 352.993 278.341 352.993C279.086 352.993 279.689 353.597 279.689 354.341C279.689 355.086 279.086 355.689 278.341 355.689C277.597 355.689 276.993 355.086 276.993 354.341Z" fill="#71869D"/>
<path d="M276.993 324.01C276.993 323.266 277.597 322.662 278.341 322.662C279.086 322.662 279.689 323.266 279.689 324.01C279.689 324.755 279.086 325.358 278.341 325.358C277.597 325.358 276.993 324.755 276.993 324.01Z" fill="#71869D"/>
<path d="M580.304 293.679C580.304 292.935 580.907 292.331 581.652 292.331C582.396 292.331 583 292.935 583 293.679C583 294.424 582.396 295.027 581.652 295.027C580.907 295.027 580.304 294.424 580.304 293.679Z" fill="#71869D"/>
<path d="M580.304 263.348C580.304 262.604 580.907 262 581.652 262C582.396 262 583 262.604 583 263.348C583 264.093 582.396 264.696 581.652 264.696C580.907 264.696 580.304 264.093 580.304 263.348Z" fill="#71869D"/>
<path d="M549.973 293.679C549.973 292.935 550.576 292.331 551.321 292.331C552.065 292.331 552.669 292.935 552.669 293.679C552.669 294.424 552.065 295.027 551.321 295.027C550.576 295.027 549.973 294.424 549.973 293.679Z" fill="#71869D"/>
<path d="M549.973 263.348C549.973 262.604 550.576 262 551.321 262C552.065 262 552.669 262.604 552.669 263.348C552.669 264.093 552.065 264.696 551.321 264.696C550.576 264.696 549.973 264.093 549.973 263.348Z" fill="#71869D"/>
<path d="M519.642 293.679C519.642 292.935 520.245 292.331 520.99 292.331C521.734 292.331 522.338 292.935 522.338 293.679C522.338 294.424 521.734 295.027 520.99 295.027C520.245 295.027 519.642 294.424 519.642 293.679Z" fill="#71869D"/>
<path d="M519.642 263.348C519.642 262.604 520.245 262 520.99 262C521.734 262 522.338 262.604 522.338 263.348C522.338 264.093 521.734 264.696 520.99 264.696C520.245 264.696 519.642 264.093 519.642 263.348Z" fill="#71869D"/>
<path d="M489.311 293.679C489.311 292.935 489.914 292.331 490.659 292.331C491.403 292.331 492.007 292.935 492.007 293.679C492.007 294.424 491.403 295.027 490.659 295.027C489.914 295.027 489.311 294.424 489.311 293.679Z" fill="#71869D"/>
<path d="M489.311 263.348C489.311 262.604 489.914 262 490.659 262C491.403 262 492.007 262.604 492.007 263.348C492.007 264.093 491.403 264.696 490.659 264.696C489.914 264.696 489.311 264.093 489.311 263.348Z" fill="#71869D"/>
<path d="M458.98 293.679C458.98 292.935 459.583 292.331 460.328 292.331C461.072 292.331 461.676 292.935 461.676 293.679C461.676 294.424 461.072 295.027 460.328 295.027C459.583 295.027 458.98 294.424 458.98 293.679Z" fill="#71869D"/>
<path d="M458.98 263.348C458.98 262.604 459.583 262 460.328 262C461.072 262 461.676 262.604 461.676 263.348C461.676 264.093 461.072 264.696 460.328 264.696C459.583 264.696 458.98 264.093 458.98 263.348Z" fill="#71869D"/>
<path d="M428.649 293.679C428.649 292.935 429.252 292.331 429.997 292.331C430.741 292.331 431.345 292.935 431.345 293.679C431.345 294.424 430.741 295.027 429.997 295.027C429.252 295.027 428.649 294.424 428.649 293.679Z" fill="#71869D"/>
<path d="M428.649 263.348C428.649 262.604 429.252 262 429.997 262C430.741 262 431.345 262.604 431.345 263.348C431.345 264.093 430.741 264.696 429.997 264.696C429.252 264.696 428.649 264.093 428.649 263.348Z" fill="#71869D"/>
<path d="M398.318 293.679C398.318 292.935 398.921 292.331 399.666 292.331C400.41 292.331 401.014 292.935 401.014 293.679C401.014 294.424 400.41 295.027 399.666 295.027C398.921 295.027 398.318 294.424 398.318 293.679Z" fill="#71869D"/>
<path d="M398.318 263.348C398.318 262.604 398.921 262 399.666 262C400.41 262 401.014 262.604 401.014 263.348C401.014 264.093 400.41 264.696 399.666 264.696C398.921 264.696 398.318 264.093 398.318 263.348Z" fill="#71869D"/>
<path d="M367.987 293.679C367.987 292.935 368.59 292.331 369.335 292.331C370.079 292.331 370.683 292.935 370.683 293.679C370.683 294.424 370.079 295.027 369.335 295.027C368.59 295.027 367.987 294.424 367.987 293.679Z" fill="#71869D"/>
<path d="M367.987 263.348C367.987 262.604 368.59 262 369.335 262C370.079 262 370.683 262.604 370.683 263.348C370.683 264.093 370.079 264.696 369.335 264.696C368.59 264.696 367.987 264.093 367.987 263.348Z" fill="#71869D"/>
<path d="M337.655 293.679C337.655 292.935 338.259 292.331 339.004 292.331C339.748 292.331 340.352 292.935 340.352 293.679C340.352 294.424 339.748 295.027 339.004 295.027C338.259 295.027 337.655 294.424 337.655 293.679Z" fill="#71869D"/>
<path d="M337.655 263.348C337.655 262.604 338.259 262 339.004 262C339.748 262 340.352 262.604 340.352 263.348C340.352 264.093 339.748 264.696 339.004 264.696C338.259 264.696 337.655 264.093 337.655 263.348Z" fill="#71869D"/>
<path d="M307.324 293.679C307.324 292.935 307.928 292.331 308.672 292.331C309.417 292.331 310.021 292.935 310.021 293.679C310.021 294.424 309.417 295.027 308.672 295.027C307.928 295.027 307.324 294.424 307.324 293.679Z" fill="#71869D"/>
<path d="M307.324 263.348C307.324 262.604 307.928 262 308.672 262C309.417 262 310.021 262.604 310.021 263.348C310.021 264.093 309.417 264.696 308.672 264.696C307.928 264.696 307.324 264.093 307.324 263.348Z" fill="#71869D"/>
<path d="M276.993 293.679C276.993 292.935 277.597 292.331 278.341 292.331C279.086 292.331 279.689 292.935 279.689 293.679C279.689 294.424 279.086 295.027 278.341 295.027C277.597 295.027 276.993 294.424 276.993 293.679Z" fill="#71869D"/>
<path d="M276.993 263.348C276.993 262.604 277.597 262 278.341 262C279.086 262 279.689 262.604 279.689 263.348C279.689 264.093 279.086 264.696 278.341 264.696C277.597 264.696 276.993 264.093 276.993 263.348Z" fill="#71869D"/>
<path d="M246.662 475.666C246.662 474.921 247.266 474.318 248.01 474.318C248.755 474.318 249.358 474.921 249.358 475.666C249.358 476.41 248.755 477.014 248.01 477.014C247.266 477.014 246.662 476.41 246.662 475.666Z" fill="#71869D"/>
<path d="M246.662 445.335C246.662 444.59 247.266 443.987 248.01 443.987C248.755 443.987 249.358 444.59 249.358 445.335C249.358 446.079 248.755 446.683 248.01 446.683C247.266 446.683 246.662 446.079 246.662 445.335Z" fill="#71869D"/>
<path d="M246.662 415.004C246.662 414.259 247.266 413.655 248.01 413.655C248.755 413.655 249.358 414.259 249.358 415.004C249.358 415.748 248.755 416.352 248.01 416.352C247.266 416.352 246.662 415.748 246.662 415.004Z" fill="#71869D"/>
<path d="M246.662 384.672C246.662 383.928 247.266 383.324 248.01 383.324C248.755 383.324 249.358 383.928 249.358 384.672C249.358 385.417 248.755 386.021 248.01 386.021C247.266 386.021 246.662 385.417 246.662 384.672Z" fill="#71869D"/>
<path d="M246.662 354.341C246.662 353.597 247.266 352.993 248.01 352.993C248.755 352.993 249.358 353.597 249.358 354.341C249.358 355.086 248.755 355.689 248.01 355.689C247.266 355.689 246.662 355.086 246.662 354.341Z" fill="#71869D"/>
<path d="M246.662 324.01C246.662 323.266 247.266 322.662 248.01 322.662C248.755 322.662 249.358 323.266 249.358 324.01C249.358 324.755 248.755 325.358 248.01 325.358C247.266 325.358 246.662 324.755 246.662 324.01Z" fill="#71869D"/>
<path d="M216.331 475.666C216.331 474.921 216.935 474.318 217.679 474.318C218.424 474.318 219.027 474.921 219.027 475.666C219.027 476.41 218.424 477.014 217.679 477.014C216.934 477.014 216.331 476.41 216.331 475.666Z" fill="#71869D"/>
<path d="M216.331 445.335C216.331 444.59 216.935 443.987 217.679 443.987C218.424 443.987 219.027 444.59 219.027 445.335C219.027 446.079 218.424 446.683 217.679 446.683C216.934 446.683 216.331 446.079 216.331 445.335Z" fill="#71869D"/>
<path d="M216.331 415.004C216.331 414.259 216.935 413.655 217.679 413.655C218.424 413.655 219.027 414.259 219.027 415.004C219.027 415.748 218.424 416.352 217.679 416.352C216.934 416.352 216.331 415.748 216.331 415.004Z" fill="#71869D"/>
<path d="M216.331 384.672C216.331 383.928 216.935 383.324 217.679 383.324C218.424 383.324 219.027 383.928 219.027 384.672C219.027 385.417 218.424 386.021 217.679 386.021C216.934 386.021 216.331 385.417 216.331 384.672Z" fill="#71869D"/>
<path d="M216.331 354.341C216.331 353.597 216.935 352.993 217.679 352.993C218.424 352.993 219.027 353.597 219.027 354.341C219.027 355.086 218.424 355.689 217.679 355.689C216.934 355.689 216.331 355.086 216.331 354.341Z" fill="#71869D"/>
<path d="M216.331 324.01C216.331 323.266 216.935 322.662 217.679 322.662C218.424 322.662 219.027 323.266 219.027 324.01C219.027 324.755 218.424 325.358 217.679 325.358C216.934 325.358 216.331 324.755 216.331 324.01Z" fill="#71869D"/>
<path d="M186 475.666C186 474.921 186.603 474.318 187.348 474.318C188.093 474.318 188.696 474.921 188.696 475.666C188.696 476.41 188.093 477.014 187.348 477.014C186.603 477.014 186 476.41 186 475.666Z" fill="#71869D"/>
<path d="M186 445.335C186 444.59 186.603 443.987 187.348 443.987C188.093 443.987 188.696 444.59 188.696 445.335C188.696 446.079 188.093 446.683 187.348 446.683C186.603 446.683 186 446.079 186 445.335Z" fill="#71869D"/>
<path d="M186 415.004C186 414.259 186.603 413.655 187.348 413.655C188.093 413.655 188.696 414.259 188.696 415.004C188.696 415.748 188.093 416.352 187.348 416.352C186.603 416.352 186 415.748 186 415.004Z" fill="#71869D"/>
<path d="M186 384.672C186 383.928 186.603 383.324 187.348 383.324C188.093 383.324 188.696 383.928 188.696 384.672C188.696 385.417 188.093 386.021 187.348 386.021C186.603 386.021 186 385.417 186 384.672Z" fill="#71869D"/>
<path d="M186 354.341C186 353.597 186.603 352.993 187.348 352.993C188.093 352.993 188.696 353.597 188.696 354.341C188.696 355.086 188.093 355.689 187.348 355.689C186.603 355.689 186 355.086 186 354.341Z" fill="#71869D"/>
<path d="M186 324.01C186 323.266 186.603 322.662 187.348 322.662C188.093 322.662 188.696 323.266 188.696 324.01C188.696 324.755 188.093 325.358 187.348 325.358C186.603 325.358 186 324.755 186 324.01Z" fill="#71869D"/>
<path d="M246.662 293.679C246.662 292.935 247.266 292.331 248.01 292.331C248.755 292.331 249.358 292.935 249.358 293.679C249.358 294.424 248.755 295.027 248.01 295.027C247.266 295.027 246.662 294.424 246.662 293.679Z" fill="#71869D"/>
<path d="M246.662 263.348C246.662 262.604 247.266 262 248.01 262C248.755 262 249.358 262.604 249.358 263.348C249.358 264.093 248.755 264.696 248.01 264.696C247.266 264.696 246.662 264.093 246.662 263.348Z" fill="#71869D"/>
<path d="M216.331 293.679C216.331 292.935 216.935 292.331 217.679 292.331C218.424 292.331 219.027 292.935 219.027 293.679C219.027 294.424 218.424 295.027 217.679 295.027C216.934 295.027 216.331 294.424 216.331 293.679Z" fill="#71869D"/>
<path d="M216.331 263.348C216.331 262.604 216.935 262 217.679 262C218.424 262 219.027 262.604 219.027 263.348C219.027 264.093 218.424 264.696 217.679 264.696C216.934 264.696 216.331 264.093 216.331 263.348Z" fill="#71869D"/>
<path d="M186 293.679C186 292.935 186.603 292.331 187.348 292.331C188.093 292.331 188.696 292.935 188.696 293.679C188.696 294.424 188.093 295.027 187.348 295.027C186.603 295.027 186 294.424 186 293.679Z" fill="#71869D"/>
<path d="M186 263.348C186 262.604 186.603 262 187.348 262C188.093 262 188.696 262.604 188.696 263.348C188.696 264.093 188.093 264.696 187.348 264.696C186.603 264.696 186 264.093 186 263.348Z" fill="#71869D"/>
</g>
<g filter="url(#filter0_d_158_484)">
<path d="M528.654 151.306C530.677 137.991 520.371 126 506.904 126H42.5605C29.1054 126 18.8024 137.971 20.8057 151.276L67.1807 459.276C68.8014 470.04 78.0502 478 88.9355 478H460.091C470.965 478 480.207 470.056 481.841 459.306L528.654 151.306Z" fill="url(#paint0_linear_158_484)"/>
</g>
<path d="M308.36 207.999C385.86 160 455.36 148 523.86 186L482.86 457C478.86 489 453.36 476 380.86 477.694L93.8599 478.114C93.8599 478.114 81.8599 426 149.86 352.5C217.86 279 68.8599 301 93.8599 256C118.86 217 230.86 255.999 308.36 207.999Z" fill="#BDCDFF"/>
<circle cx="10" cy="10" r="10" transform="matrix(-1 0 0 1 242 195)" fill="#BDCDFF"/>
<ellipse cx="151" cy="16.5" rx="151" ry="16.5" transform="matrix(-1 0 0 1 480 407)" fill="#A9BCF7"/>
<path d="M238.904 405.909C238.716 406.105 238.459 407.138 238.112 407.764C237.524 408.828 237.554 409.899 237.554 409.899C237.554 409.899 235.744 412.803 240.647 413.497C243.068 413.836 243.732 411.973 243.626 409.982C243.053 407.991 242.6 405.751 242.6 405.751C241.446 405.177 238.904 405.901 238.904 405.901V405.909Z" fill="#BBBCBE"/>
<path d="M237.607 409.809C237.086 409.794 235.239 413.459 236.249 416.076C236.249 416.076 231.731 425.105 244.727 423.868C245.904 423.491 248.604 421.914 248.302 420.413C247.533 416.529 244.373 415.171 243.626 409.982C243.565 409.567 242.713 414.274 237.599 409.809H237.607Z" fill="#F2FCF9"/>
<path d="M260.567 404.053C260.702 404.574 259.782 406.874 259.601 407.855C260.257 408.737 260.785 410.57 260.913 410.872C262.03 413.534 274.301 413.587 273.955 411.83L267.408 405.615L266.684 402.869C265.839 403.676 260.574 404.053 260.574 404.053H260.567Z" fill="#BBBCBE"/>
<path d="M259.601 407.908C259.601 407.908 259.465 415.352 261.124 416.34C262.791 417.329 265.552 416.529 270.485 417.283C275.199 418.007 280.056 418.95 282.085 416.092C279.694 412.358 275.071 410.759 268.237 406.113C267.121 407.184 268.471 411.445 259.601 407.908Z" fill="#F2FCF9"/>
<path d="M237.486 409.869L233.209 312.623L264.986 308.912C264.986 308.912 270.296 338.479 271.163 366.084C271.375 372.873 270.741 391.827 268.32 404.898C268.32 404.898 262.806 409.688 258.764 406.731C258.764 406.731 259.525 377.323 258.047 367.653C255.754 352.644 252.556 335.748 252.3 333.41H249.992C249.992 333.41 246.039 400.26 243.731 409.741C243.731 409.741 240.375 411.053 237.486 409.869Z" fill="#32456B"/>
<path d="M246.032 224.798L242.283 240.848C242.283 240.848 244.274 247.576 250.753 244.906C255.935 242.779 255.83 237.68 255.83 237.68L252.051 230.455L246.032 224.79V224.798Z" fill="#F7ACAC"/>
<path d="M279.747 300.857C282.462 301.377 290.465 309.267 291.664 309.199C292.864 309.131 301.334 309.847 302.495 309.176L302.322 306.174L297.314 302.855C297.314 302.855 297.879 302.222 297.178 300.457C296.476 298.692 285.034 296.158 281.535 294.408L279.747 300.857Z" fill="#F7ACAC"/>
<path d="M283.805 304.447L260.053 284.067C258.998 283.253 258.349 282.023 258.273 280.688L256.011 242.553C255.86 240.004 257.798 237.816 260.348 237.666C262.897 237.515 265.084 239.461 265.235 242.003C270.688 256.627 269.791 262.496 268.433 277.4L289.326 295.117C291.34 296.678 289.613 299.695 288.051 301.709C286.664 303.497 284.039 304.621 283.805 304.447Z" fill="#32456B"/>
<path d="M248.438 244.597C239.998 245.042 243.128 235.931 243.128 235.931L226.354 244.099L230.147 261.063C225.758 274.337 225.961 293.126 231.86 313.981C231.86 313.981 252.338 326.004 267.423 310.828C269.798 283.728 267.988 244.891 262.022 237.937L253.831 234.015C253.831 234.015 256.886 244.145 248.446 244.597H248.438Z" fill="#40527C"/>
<path d="M221.308 309.342C223.548 310.956 227.492 321.478 228.609 321.923C229.725 322.368 237.109 326.577 238.444 326.463L239.553 323.673L236.408 318.551C236.408 318.551 237.185 318.212 237.29 316.319C237.396 314.418 228.081 307.305 225.645 304.251L221.308 309.349V309.342Z" fill="#F7ACAC"/>
<path d="M223.487 314.298L210.514 285.817C209.903 284.633 209.835 283.245 210.318 282.008L224.317 246.46C225.252 244.084 227.937 242.923 230.306 243.858C232.682 244.793 233.843 247.478 232.908 249.847C230.849 264.328 229.717 274.39 222.363 281.472L232.41 308.173C233.579 310.443 230.743 312.442 228.48 313.611C226.474 314.652 223.616 314.562 223.48 314.305L223.487 314.298Z" fill="#32456B"/>
<path d="M255.709 224.594C257.723 223.568 259.729 223.236 259.261 214.185C256.508 206.975 252.933 213.318 252.933 213.318L255.709 224.594Z" fill="#243F6D"/>
<path d="M241.574 226.555C244.01 233.427 248.838 236.964 254.736 236.768C257.828 235.591 260.031 228.712 258.56 222.784C258.19 213.22 255.558 207.111 248.37 207.352C241.189 207.593 239.96 212.043 240.33 221.607L241.567 226.555H241.574Z" fill="#F9BEB6"/>
<path d="M245.617 214.751C245.617 214.751 245.572 215.732 245.24 216.735C245.051 217.293 244.78 217.866 244.38 218.274C243.249 219.405 241.672 220.981 241.672 220.981C241.672 222.339 241.612 222.754 241.612 222.754C241.612 222.754 241.273 222.105 240.345 221.615C240.345 221.615 240.33 221.607 240.315 221.6C238.06 220.981 238.565 221.751 238.06 222.339C237.758 221.841 237.599 220.997 237.275 220.054V220.031C237.132 219.594 235.246 213.205 238.648 208.717C239.1 209.766 239.787 211.184 240.979 212.398C242.042 213.492 243.528 214.412 245.617 214.759V214.751Z" fill="#243F6D"/>
<path d="M259.533 215.113C259.103 215.355 258.613 215.558 258.078 215.717C257.957 215.755 257.844 215.785 257.723 215.815C257.172 215.958 256.569 216.049 255.905 216.094C255.242 216.132 254.631 216.147 254.057 216.132C253.13 216.101 252.315 216.018 251.598 215.898C251.018 215.8 250.497 215.679 250.022 215.551C247.933 214.985 246.756 214.276 245.625 214.759C243.536 214.404 242.05 213.484 240.986 212.398C239.794 211.191 239.108 209.773 238.648 208.717C240.3 206.538 243.189 204.825 248.099 204.546C259.284 203.898 259.744 212.119 259.541 215.121L259.533 215.113Z" fill="#243F6D"/>
<path d="M259.533 215.113C259.488 215.784 259.412 216.192 259.412 216.192C258.982 216.011 254.864 213.303 248.287 215.43C244.47 216.667 238.006 222.196 238.006 222.196L237.267 220.529C237.267 220.529 237.177 220.076 237.177 220.069C237.041 219.631 233.775 212.881 237.177 208.393C238.829 206.213 243.475 204.297 248.294 203.294C259.043 201.069 259.752 212.104 259.548 215.113H259.533Z" fill="#32456B"/>
<path d="M240.338 221.6C237.637 220.725 237.879 222.339 238.067 223.553C238.248 224.76 240.247 226.54 241.582 226.555C241.582 226.555 242.178 223.131 240.345 221.607L240.338 221.6Z" fill="#F9BEB6"/>
<path d="M259.329 225.266C257.625 222.158 246.733 225.733 245.76 226.057L241.242 221.638H240.405L240.963 222.098L245.278 226.608C244.87 227.196 244.297 228.245 244.169 229.58L241.582 226.548L242.042 227.739L244.146 230.455C244.169 230.892 244.244 231.352 244.395 231.835C245.414 235.161 250.693 238.126 254.027 238.035C257.361 237.945 261.117 228.524 259.329 225.266Z" fill="#FBFBFB"/>
<path d="M371 250.24H282.637V252.861H371V250.24Z" fill="#6183BA"/>
<path d="M371 250.754H282.637V251.623H371V250.754Z" fill="#B7C9FF"/>
<path d="M336.495 399.787H311.937L285.062 406.238V412.79L311.937 406.34H336.495L363.369 412.79V406.238L336.495 399.787Z" fill="#DCE9FF"/>
<path d="M362.942 413.442C362.942 408.96 359.307 405.326 354.826 405.326C350.344 405.326 346.71 408.96 346.71 413.442C346.71 417.923 350.344 421.558 354.826 421.558C359.307 421.558 362.942 417.923 362.942 413.442Z" fill="#6183BA"/>
<path d="M360.278 413.442C360.278 410.43 357.838 407.99 354.826 407.99C351.814 407.99 349.375 410.43 349.375 413.442C349.375 416.454 351.814 418.894 354.826 418.894C357.838 418.894 360.278 416.454 360.278 413.442Z" fill="#DCE9FF"/>
<path d="M301.75 413.569C301.806 409.087 298.219 405.408 293.737 405.352C289.255 405.295 285.576 408.883 285.519 413.365C285.463 417.847 289.051 421.526 293.533 421.582C298.015 421.639 301.694 418.051 301.75 413.569Z" fill="#6183BA"/>
<path d="M299.064 413.443C299.064 410.431 296.624 407.991 293.613 407.991C290.601 407.991 288.154 410.431 288.154 413.443C288.154 416.454 290.594 418.894 293.613 418.894C296.632 418.894 299.064 416.454 299.064 413.443Z" fill="#DCE9FF"/>
<path d="M309.881 368.236H338.551C339.079 368.236 339.514 368.663 339.514 369.199V374.759C339.514 375.288 339.087 375.722 338.551 375.722H309.881C309.352 375.722 308.925 375.295 308.925 374.767V369.206C308.925 368.678 309.352 368.251 309.881 368.251V368.236Z" fill="#6183BA"/>
<path d="M309.881 335.44H338.551C339.079 335.44 339.506 335.867 339.506 336.395V341.955C339.506 342.484 339.079 342.918 338.544 342.918H309.874C309.345 342.918 308.911 342.491 308.911 341.955V336.395C308.911 335.867 309.338 335.44 309.866 335.44H309.881Z" fill="#6183BA"/>
<path d="M315.123 292.326H333.309C335.04 292.326 336.451 293.73 336.451 295.468V406.072C336.451 407.802 335.047 409.214 333.309 409.214H315.123C313.392 409.214 311.988 407.809 311.988 406.079V295.475C311.988 293.745 313.392 292.333 315.13 292.333L315.123 292.326Z" fill="#DCE9FF"/>
<path d="M296.596 251.189H351.836C353.523 251.189 354.891 252.557 354.891 254.244V295.229C354.891 296.916 353.523 298.291 351.829 298.291H296.588C294.901 298.291 293.526 296.923 293.526 295.229V254.244C293.526 252.557 294.894 251.189 296.581 251.189H296.596Z" fill="#89A2E0"/>
<path d="M334.106 328.735H314.326V332.333H334.106V328.735Z" fill="#6183BA"/>
<path d="M336.451 298.285H311.988V311.085H336.451V298.285Z" fill="#6183BA"/>
<path d="M354.899 268H293.541V284.927H354.899V268Z" fill="#89A2E0"/>
<path d="M356.81 233.415V233.343H356.802C356.802 233.343 356.81 233.321 356.81 233.314C356.81 231.916 342.221 230.78 324.216 230.78C306.21 230.78 291.629 231.916 291.629 233.314C291.629 233.321 291.636 233.335 291.636 233.343H291.629V233.415C290.869 233.415 290.246 241.857 290.246 252.275C290.246 262.693 290.861 271.142 291.629 271.142C291.636 271.142 291.643 271.128 291.658 271.128C292.186 272.489 306.558 273.582 324.223 273.582C341.888 273.582 356.259 272.489 356.788 271.128C356.795 271.128 356.802 271.142 356.817 271.142C357.577 271.142 358.2 262.7 358.2 252.275C358.2 241.85 357.577 233.415 356.817 233.415H356.81Z" fill="#DCE9FF"/>
<path d="M342.518 236.383H296.893V268H342.518V236.383Z" fill="#89A2E0"/>
<path d="M341.765 237.136H297.646V267.247H341.765V237.136Z" fill="#B7C9FF"/>
<path d="M341.765 237.136H297.646V240.097H341.765V237.136Z" fill="#6183BA"/>
<path d="M351.546 279.012C351.546 276.637 349.62 274.711 347.246 274.711C344.871 274.711 342.945 276.637 342.945 279.012C342.945 281.387 344.871 283.312 347.246 283.312C349.62 283.312 351.546 281.387 351.546 279.012Z" fill="#6183BA"/>
<path d="M328.517 279.012C328.517 276.637 326.591 274.711 324.216 274.711C321.841 274.711 319.916 276.637 319.916 279.012C319.916 281.387 321.841 283.312 324.216 283.312C326.591 283.312 328.517 281.387 328.517 279.012Z" fill="#6183BA"/>
<path d="M304.574 276.464H295.857V277.789H304.574V276.464Z" fill="#6183BA"/>
<path d="M316.288 276.464H307.571V277.789H316.288V276.464Z" fill="#6183BA"/>
<path d="M340.281 245.643H328.516V247.525H340.281V245.643Z" fill="#6183BA"/>
<path d="M340.281 252.868H328.516V254.751H340.281V252.868Z" fill="#6183BA"/>
<path d="M340.281 260.086H328.516V261.969H340.281V260.086Z" fill="#6183BA"/>
<path d="M312.668 245.542H312.654C312.545 245.535 312.451 245.462 312.422 245.361L311.77 243.182L311.278 244.369C311.235 244.463 311.141 244.528 311.039 244.528H308.165C308.02 244.528 307.904 244.412 307.904 244.268C307.904 244.123 308.02 244.007 308.165 244.007H310.865L311.568 242.306C311.611 242.204 311.727 242.154 311.821 242.146C311.93 242.146 312.024 242.226 312.053 242.327L312.712 244.536L313.074 243.732L314.036 241.35C314.08 241.249 314.174 241.176 314.297 241.191C314.413 241.198 314.5 241.278 314.529 241.386L315.188 244.253L315.419 244.065C315.528 243.971 315.694 243.993 315.781 244.101C315.875 244.21 315.854 244.376 315.745 244.463L315.195 244.919C315.122 244.977 315.036 244.999 314.949 244.963C314.862 244.934 314.804 244.861 314.782 244.774L314.21 242.298L313.551 243.935L312.9 245.383C312.856 245.477 312.762 245.535 312.661 245.535L312.668 245.542Z" fill="#6183BA"/>
<path d="M313.341 256.945C313.341 256.945 313.32 256.945 313.305 256.945C313.182 256.93 313.088 256.829 313.081 256.706L312.712 252.109L312.444 254.592C312.429 254.722 312.321 254.823 312.19 254.823H309.048C308.903 254.823 308.788 254.708 308.788 254.563C308.788 254.418 308.903 254.302 309.048 254.302H311.959L312.494 249.321C312.509 249.191 312.618 249.089 312.755 249.089C312.885 249.089 313.001 249.191 313.008 249.328L313.501 255.446L313.863 254.411C313.899 254.309 314 254.237 314.109 254.237H316.447C316.592 254.237 316.708 254.353 316.708 254.498C316.708 254.642 316.592 254.758 316.447 254.758H314.29L313.58 256.778C313.544 256.88 313.443 256.952 313.334 256.952L313.341 256.945Z" fill="#6183BA"/>
<path d="M315.043 264.054C314.413 264.054 314.391 263.982 314.355 263.822C313.754 261.643 313.269 261.455 313.139 261.448H313.131C312.632 261.448 312.053 263.055 311.864 263.584L311.763 263.851C311.727 263.953 311.625 264.018 311.524 264.018H308.773C308.628 264.018 308.52 263.902 308.52 263.757C308.52 263.613 308.635 263.497 308.773 263.497H311.343L311.379 263.403C311.814 262.201 312.335 260.927 313.131 260.927H313.16C313.79 260.948 314.319 261.774 314.811 263.526C315.072 263.533 315.651 263.526 316.15 263.497C316.31 263.511 316.411 263.598 316.418 263.743C316.418 263.888 316.317 264.003 316.172 264.011C315.665 264.032 315.303 264.047 315.043 264.047V264.054Z" fill="#6183BA"/>
<path d="M357.939 291.255C357.939 292.775 356.708 294.013 355.181 294.013H293.258C291.738 294.013 290.5 292.782 290.5 291.255C290.5 289.734 291.73 288.496 293.258 288.496H355.181C356.708 288.496 357.939 289.727 357.939 291.255Z" fill="#DCE9FF"/>
<path d="M290.514 291.131C290.514 291.175 290.5 291.211 290.5 291.254C290.5 292.775 291.73 294.013 293.258 294.013H355.181C356.708 294.013 357.939 292.782 357.939 291.254C357.939 291.211 357.925 291.175 357.925 291.131H290.514Z" fill="#6183BA"/>
<path d="M283.767 251.551C283.767 253.122 283.368 254.396 282.883 254.396C282.398 254.396 282 253.122 282 251.551C282 249.98 282.398 248.706 282.883 248.706C283.368 248.706 283.767 249.98 283.767 251.551Z" fill="#1B3C4B"/>
<g filter="url(#filter1_d_158_484)">
<path d="M480.33 224.6L472.408 215H437.826L429.904 224.6H419.636V225.971H430.549L438.471 216.371H454.087V286.196H456.147V216.371H471.763L479.681 225.971H490.598V224.6H480.33Z" fill="#F0F3F9"/>
<path d="M456.832 400.515V282.198H453.402V400.515L430.651 408.116V415.223H434.763V410.466L455.115 403.554L475.9 410.613V415.223H480.012V408.116L456.832 400.515Z" fill="#CFCFCF"/>
<path d="M432.707 418.65C430.814 418.65 429.28 417.116 429.28 415.223C429.28 413.33 430.814 411.796 432.707 411.796C434.599 411.796 436.133 413.33 436.133 415.223C436.133 417.116 434.599 418.65 432.707 418.65Z" fill="#6183BA"/>
<path d="M477.956 418.65C476.063 418.65 474.529 417.116 474.529 415.223C474.529 413.33 476.063 411.796 477.956 411.796C479.848 411.796 481.382 413.33 481.382 415.223C481.382 417.116 479.848 418.65 477.956 418.65Z" fill="#6183BA"/>
<path d="M431.772 229.048V246.665C431.772 249.648 429.333 252.084 426.355 252.084H416.418C413.435 252.084 411 249.644 411 246.665V229.048C411 226.065 413.44 223.63 416.418 223.63H426.355C429.337 223.63 431.772 226.069 431.772 229.048ZM426.355 225.886C426.355 225.266 425.845 224.756 425.225 224.756H417.548C416.927 224.756 416.418 225.266 416.418 225.886C416.418 226.506 416.927 227.016 417.548 227.016H425.225C425.845 227.016 426.355 226.506 426.355 225.886Z" fill="#DFEBFF"/>
<path d="M425.686 250.933H417.082C414.5 250.933 412.391 248.819 412.391 246.241V238.028C412.391 235.445 430.381 235.445 430.381 238.028V246.241C430.381 248.824 428.268 250.933 425.69 250.933H425.686Z" fill="#06273E"/>
<path d="M403.672 220.487H400.481V216.897H403.672V220.487Z" fill="#DCE9FF"/>
<path d="M356.473 417.828C357.059 418.94 376.361 418.399 376.361 418.399H378.119C378.119 418.399 379.284 416.175 379.284 414.507C379.284 412.839 376.354 410.615 376.354 410.615L366.992 412.831C366.992 412.831 360.56 414.491 358.802 415.047C357.044 415.603 355.879 416.716 356.465 417.828H356.473Z" fill="#F2FCF9"/>
<path d="M383.477 417.828C384.063 418.94 403.365 418.399 403.365 418.399H405.123C405.123 418.399 406.288 416.175 406.288 414.507C406.288 412.839 403.357 410.615 403.357 410.615L393.996 412.831C393.996 412.831 387.564 414.491 385.806 415.047C384.048 415.603 382.883 416.716 383.469 417.828H383.477Z" fill="#F2FCF9"/>
<path d="M342.016 309.083L344.105 309.564L347.381 306.799C347.381 306.799 347.704 307.31 349.049 307.182C350.394 307.055 355.24 299.376 356.683 298.827C358.125 298.279 352.25 295.168 352.25 295.168C352.25 295.168 344.353 300.826 344.165 301.66C343.97 302.494 341.791 308.144 342.016 309.076V309.083Z" fill="#FFD4BB"/>
<path d="M350.965 301.69C350.897 301.013 347.081 302.336 346.727 302.914C346.374 303.493 344.098 309.564 344.098 309.564L347.374 306.799C347.374 306.799 351.033 302.366 350.965 301.69Z" fill="#FEBCAC"/>
<path d="M400.247 289.518L377.796 290.239C377.796 290.239 372.664 297.73 371.733 314.373C370.801 331.016 369.479 350.604 371.643 356.885C373.799 363.166 380.095 361.498 382.334 355.074C384.573 348.65 387.767 318.986 387.767 318.986L390.194 318.423C390.194 318.423 392.748 352.054 393.785 353.97C393.785 353.97 397.58 365.571 404.049 354.127C410.518 342.684 411.54 298.677 400.254 289.511L400.247 289.518Z" fill="#041B3A"/>
<path d="M403.755 352.925C403.755 352.925 410.638 382.799 404.229 411.344C404.334 412.944 397.504 413.665 397.399 411.561C397.346 410.585 396.249 359.026 393.56 353.248C393.56 353.248 399.127 345.742 403.755 352.918V352.925Z" fill="#32456B"/>
<path d="M380.298 352.707C380.298 352.707 384.31 355.998 383.732 368.23C383.153 380.462 377.999 401.41 378.833 412.132C376.812 414.379 373.498 413.349 370.035 411.929C370.035 411.929 371.748 360.311 371.515 352.985C371.515 352.985 377.15 345.96 380.298 352.7V352.707Z" fill="#32456B"/>
<path d="M355.887 301.329L372.537 279.653C373.491 278.796 374.084 277.534 374.167 276.174L378.841 247.089C378.998 244.489 377.278 242.295 374.994 242.19C372.709 242.085 370.733 244.106 370.568 246.705L366.638 275.49L351.01 291.915C349.184 293.545 350.71 296.588 352.092 298.609C353.317 300.405 355.669 301.502 355.871 301.322L355.887 301.329Z" fill="#32456B"/>
<path d="M377.623 221.25C384.288 232.355 383.258 219.484 398.541 226.434C401.501 229.394 405.206 226.802 405.206 224.766C405.206 222.73 403.725 221.806 401.877 222.129C401.103 211.084 395.19 208.559 388.353 209.1C381.508 209.641 377.09 213.503 377.631 221.25H377.623Z" fill="#AD8D80"/>
<path d="M384.047 233.069L392.658 233.542L393.297 242.799C393.297 242.799 392.763 262.582 385.625 260.087C379.922 258.096 380.734 242.333 380.734 242.333C379.915 240.747 383.89 241.762 385.648 239.711L384.047 233.069Z" fill="#F4C3B0"/>
<path d="M401.088 286.475C405.566 292.298 407.828 303.441 408.97 312.75C410.007 321.233 397.008 321.496 386.136 321.571C375.271 321.639 370.47 314.531 370.47 314.531L372.386 296.333L374.528 273.627C374.528 273.627 372.386 269.772 372.814 265.061C374.099 257.781 374.099 254.354 374.595 242.092L384.415 240.582C384.415 240.582 382.139 244.805 382.988 248.471L391.313 248.839L393.161 240.695L406.859 244.211L407.076 257.781C405.792 270.201 401.081 278.774 401.081 286.483L401.088 286.475Z" fill="#40527C"/>
<path d="M380.328 227.884C379.704 232.678 382.77 237.817 385.933 238.403C392.943 237.81 397.662 233.068 397.872 224.991C396.941 217.47 395.145 214.127 388.135 214.713C381.125 215.299 379.389 220.363 380.328 227.877V227.884Z" fill="#FFD4BB"/>
<path d="M397.88 225.157C400.585 224.286 400.337 225.901 400.156 227.111C399.976 228.32 397.97 230.101 396.64 230.116C396.64 230.116 396.046 226.69 397.88 225.157Z" fill="#F9BEB6"/>
<path d="M378.209 216.306C377.428 217.125 382.139 225.495 395.092 225.21C395.092 225.21 396.603 213.255 387.196 211.7C387.196 211.7 382.83 211.497 378.209 216.306Z" fill="#AD8D80"/>
<path d="M406.663 312.037C406.663 312.037 408.767 318.055 407.557 320.865C406.348 323.675 403.537 323.209 401.494 322.082C399.45 320.948 400.78 316.575 400.78 316.575C400.78 316.575 400.344 316.665 399.69 317.822C399.029 318.979 397.752 317.183 397.752 317.183C397.752 317.183 402.44 311.616 403.147 311.736C403.853 311.856 406.671 312.044 406.671 312.044L406.663 312.037Z" fill="#FFD4BB"/>
<path d="M409.233 316.221L416.311 280.352C416.904 279.217 417.017 277.819 416.611 276.52L410.773 247.645C410.007 245.15 407.625 243.7 405.454 244.406C403.275 245.113 402.133 247.697 402.899 250.192L409.331 278.526L401.366 309.121C400.232 311.292 402.726 313.599 404.732 315.012C406.513 316.266 409.098 316.469 409.226 316.221H409.233Z" fill="#32456B"/>
<path d="M379.238 256.052H376.391V258.9H379.238V256.052Z" fill="#538BA6"/>
<path d="M381.748 257.953H373.723C373.01 257.953 372.431 258.532 372.431 259.245V263.152C372.431 263.866 373.01 264.445 373.723 264.445H381.748C382.462 264.445 383.04 263.866 383.04 263.152V259.245C383.04 258.532 382.462 257.953 381.748 257.953Z" fill="#F2F2F2"/>
<path d="M377.826 259.223H373.678C373.6 259.223 373.536 259.287 373.536 259.366V259.396C373.536 259.475 373.6 259.539 373.678 259.539H377.826C377.905 259.539 377.969 259.475 377.969 259.396V259.366C377.969 259.287 377.905 259.223 377.826 259.223Z" fill="#538BA6"/>
<path d="M377.826 260.17H373.678C373.6 260.17 373.536 260.234 373.536 260.313V260.343C373.536 260.422 373.6 260.485 373.678 260.485H377.826C377.905 260.485 377.969 260.422 377.969 260.343V260.313C377.969 260.234 377.905 260.17 377.826 260.17Z" fill="#538BA6"/>
<path d="M377.826 261.124H373.678C373.6 261.124 373.536 261.188 373.536 261.267V261.297C373.536 261.376 373.6 261.44 373.678 261.44H377.826C377.905 261.44 377.969 261.376 377.969 261.297V261.267C377.969 261.188 377.905 261.124 377.826 261.124Z" fill="#538BA6"/>
<path d="M381.485 262.386H373.821C373.663 262.386 373.536 262.514 373.536 262.672V263.048C373.536 263.205 373.663 263.333 373.821 263.333H381.485C381.643 263.333 381.771 263.205 381.771 263.048V262.672C381.771 262.514 381.643 262.386 381.485 262.386Z" fill="#538BA6"/>
<path d="M381.365 259.223H379.644C379.42 259.223 379.238 259.405 379.238 259.629V261.35C379.238 261.574 379.42 261.755 379.644 261.755H381.365C381.589 261.755 381.77 261.574 381.77 261.35V259.629C381.77 259.405 381.589 259.223 381.365 259.223Z" fill="#538BA6"/>
<path d="M395.949 222.362C395.949 222.362 396.775 227.764 396.362 229.966C396.362 229.966 398.909 227.539 399.097 224.947C399.285 222.355 395.949 222.355 395.949 222.355V222.362Z" fill="#AD8D80"/>
<path d="M380.449 228.11C382.004 225.27 391.937 228.531 392.831 228.831L397.241 224.391L397.707 224.796L397.204 225.217L393.267 229.335C393.635 229.868 394.161 230.822 394.281 232.047L397.054 229.943L396.685 231.055L394.296 232.844C394.274 233.242 394.206 233.663 394.071 234.106C393.146 237.141 388.33 239.846 385.287 239.764C382.244 239.681 378.818 231.085 380.449 228.117V228.11Z" fill="#FBFBFB"/>
<path d="M377.39 220.175C377.443 220.904 377.526 221.347 377.526 221.347C377.999 221.145 382.267 219.011 389.638 220.521C398.616 222.362 397.625 227.358 397.625 227.358C397.625 227.358 401.261 223.481 401.269 223.474C401.269 223.474 401.366 222.978 401.366 222.97C401.509 222.497 405.499 215.569 399.36 211.069C396.956 209.311 394.882 208.402 389.638 207.32C377.946 204.9 377.173 216.907 377.398 220.175H377.39Z" fill="#32456B"/>
<path d="M265.072 356.605H382.478V373.321L347.864 385.173H299.686L265.072 373.321V356.605Z" fill="#868686"/>
<path d="M366.548 370.139C361 372.232 354.591 369.796 352.302 364.72L349.712 358.98C347.423 353.908 350.087 348.045 355.635 345.948L444.301 313.133C449.85 311.04 456.258 313.479 458.547 318.551L461.137 324.291C463.426 329.363 460.762 335.226 455.214 337.323L366.548 370.139Z" fill="#DBDBDB"/>
<path d="M372.161 360.914C372.161 366.402 366.988 370.894 360.665 370.894H196.114C189.791 370.894 184.618 366.406 184.618 360.914V351.62C184.618 346.132 189.791 341.64 196.114 341.64H357.618C363.941 341.64 369.114 346.132 369.114 351.62L372.161 360.914Z" fill="#DBDBDB"/>
<path d="M373.458 356.311C367.91 358.404 361.501 355.965 359.213 350.893L356.622 345.152C354.334 340.081 356.997 334.218 362.545 332.125L448.462 299.354C454.01 297.261 460.419 299.701 462.707 304.773L465.298 310.513C467.586 315.585 464.923 321.448 459.375 323.545L373.458 356.319V356.311Z" fill="white"/>
<path d="M382.381 306.627L388.885 311.275C388.524 311.382 379.974 313.89 370.259 315.756C351.324 319.4 342.415 315.323 342.415 315.323C342.415 315.323 365.997 311.452 382.381 306.627Z" fill="#FFD4BB"/>
<path d="M398.07 307.605C398.07 307.605 394.03 306.669 382.5 306.5C379.5 307 375.195 308.061 373 308.5C373.219 309.601 372.362 312.7 372.362 312.7L391.161 312.778L398.073 307.609L398.07 307.605Z" fill="#E1EFEF"/>
<path d="M373.442 307.857C371.977 307.799 370.689 308.056 369.5 308.5L368.945 314.87L373.878 311.796C374.315 310.044 373.442 307.863 373.442 307.863L373.442 307.857Z" fill="#B7CECC"/>
<path d="M407.112 327.893C408.049 325.321 407.499 321.152 407.088 318.548C401.277 317.11 386 311.001 386 311.001L398.22 305.069C372.5 307.001 359.625 323.004 346 321.501L360 335.5C376.036 336.283 394.5 335.501 407.112 327.893Z" fill="#D8E6E6"/>
<path d="M405.132 304.077L410.982 310.282L407.084 318.235L389 311.5L396.032 306.467C396.866 304.761 398.664 305.406 400.651 306.522L405.135 304.075L405.132 304.077Z" fill="#FFD4BB"/>
<path d="M400.37 306.327C400.37 306.327 399.62 309.446 403.262 311.69C406.905 313.933 408.271 311.608 408.271 311.608C408.271 311.608 409.507 307.477 408.495 306.992C407.483 306.507 404.63 303.651 404.63 303.651L400.365 306.327L400.37 306.327Z" fill="#F7ACAC"/>
<path d="M399.008 306.063L390 311L406.182 317.387C406.182 317.387 408.36 318.955 407.481 321.728C407.481 321.728 384.443 312.081 384.5 312C384.553 311.923 396 305.001 396 305.001C396 305.001 398.186 303.753 399.011 306.067L399.008 306.063Z" fill="#C0D8D7"/>
<path d="M407.595 324.14C406.191 316.28 379.337 322.123 376.244 322.668L381.89 336.91C388.68 337.205 409 332 407.595 324.14Z" fill="#DCEBEB"/>
<path d="M378.5 326.234L377.061 322.583C377.061 322.583 356.649 329.184 357.578 332C358.05 333.431 364.031 333.885 381 332C380.5 330 378.5 326.234 378.5 326.234Z" fill="#FFD4BB"/>
<path d="M381.378 327.945C380.566 326.042 379.762 324.131 378.97 322.22C377.28 322.481 376.241 322.663 376.241 322.663L381.887 336.905C382.841 336.946 383.939 336.952 385.135 336.903C383.798 333.947 382.638 330.892 381.378 327.945Z" fill="#C0D8D7"/>
<path d="M351.845 321.358C351.845 321.358 350.785 317.512 349.613 316.108C348.438 314.707 344.786 311.846 344.083 311.586C343.38 311.326 340.125 310.733 339.743 310.633C339.36 310.532 339.63 311.872 340.244 312.097C340.859 312.323 342.071 312.74 342.286 312.904C342.286 312.904 339.59 313.39 339.043 313.443C338.498 313.494 338.817 314.657 339.471 314.701C340.129 314.743 341.805 314.64 341.805 314.64C341.805 314.64 339.881 314.962 339.673 315.366C339.465 315.77 339.684 316.499 340.361 316.598C340.361 316.598 339.74 317.276 340.057 317.738C340.372 318.196 341.952 318.828 341.952 318.828L343.696 320.17C343.696 320.17 345.632 322.876 347.022 323.569C348.408 324.264 349.276 325.036 349.863 324.58C350.182 324.333 351.851 321.359 351.851 321.359L351.845 321.358Z" fill="#FFD4BB"/>
<path d="M417.696 289.408L411.622 294.644L419.527 293.29L417.696 289.408Z" fill="#9B9287"/>
<path d="M410.324 295.295C404.543 297.356 400.003 303.019 400.737 306.26C403.849 311.307 409.487 313.385 416.596 311.611C417.346 312.717 419.943 313.402 421.055 312.885C422.167 312.367 423.656 311.677 421.429 309.899C429.642 304.897 432.688 301.401 428.9 295.252C425.11 289.105 418.537 290.293 410.324 295.295Z" fill="#F9C4BB"/>
<path d="M417.401 293.819C420.439 299.383 423.726 299.671 424.199 301.644C424.271 301.95 424.276 302.296 424.202 302.706C424.189 302.762 424.175 302.824 424.164 302.89C424.137 303.009 424.11 303.133 424.064 303.267C424.043 303.34 424.016 303.418 423.992 303.493C423.954 303.611 423.909 303.733 423.859 303.855C423.756 304.121 423.632 304.408 423.486 304.718C420.858 310.228 418.802 307.873 417.612 309.381C418.391 309.964 419.141 310.472 419.862 310.908C424.476 312.341 433.498 309.551 433.555 304.089C441.079 297.36 427.506 291.666 424.238 290.025C420.97 288.383 420.729 284.733 420.729 284.733C420.729 284.733 414.43 288.369 417.403 293.822L417.401 293.819Z" fill="#9D8E7A"/>
<path d="M424.183 301.631C424.26 301.937 424.269 302.287 424.201 302.706C424.188 302.762 424.175 302.825 424.164 302.89C424.137 303.009 424.103 303.138 424.064 303.267C424.043 303.34 424.016 303.418 423.992 303.493C423.951 303.608 423.907 303.73 423.859 303.855C423.756 304.121 423.632 304.408 423.486 304.718C420.858 310.228 418.802 307.873 417.612 309.381C418.065 310.098 418.862 310.605 419.862 310.908C424.476 312.341 433.498 309.551 433.555 304.089C431.474 304.476 427.482 305.189 424.198 301.644C424.193 301.638 424.191 301.634 424.183 301.625L424.183 301.631Z" fill="#9B9287"/>
<path d="M408.672 311.916C408.672 311.916 402.421 310.484 400.492 305.918C400.548 303.561 401.377 302.752 402.54 301.023L401.807 303.818L403.183 306.716L408.671 311.922L408.672 311.916Z" fill="#57423E"/>
<path d="M403.936 307.846L406.48 306.811L406.643 307.201L404.688 308.982L403.936 307.846Z" fill="#57423E"/>
<path d="M401.555 303.435L403.786 301.703L403.824 301.354L402.187 301.927L401.555 303.435Z" fill="#57423E"/>
<path d="M406.643 307.201L406.48 306.811C406.48 306.811 407.282 304.903 403.782 301.706L403.824 301.354C406.013 301.952 407.876 305.097 406.642 307.207L406.643 307.201Z" fill="#57423E"/>
<path d="M362.019 348.168C362.019 353.655 356.847 358.147 350.524 358.147H189.023C182.7 358.147 177.527 353.655 177.527 348.168V328.686C177.527 323.198 182.7 318.706 189.023 318.706L223.368 318.636C223.368 318.636 238.707 316.131 246.923 316.131C255.139 316.131 255.281 317.27 265.072 318.706C274.863 320.142 320.5 311.5 328.5 310C336.5 308.5 383 300.013 383 305.5L396.5 335.5L362.023 348.164L362.019 348.168Z" fill="#89A2E0"/>
<path d="M362.02 338.429V348.168C362.02 353.655 356.847 358.148 350.524 358.148H189.023C182.7 358.148 177.528 353.655 177.528 348.168V338.429H362.02Z" fill="white"/>
<path d="M364.5 303C366.9 300.2 377.5 301.834 382.5 303C384.5 304.6 393 324.667 397 334.5C391.333 338.167 380.3 344.6 381.5 341C383 336.5 361.5 306.5 364.5 303Z" fill="white"/>
<path d="M295.402 365.312L289.862 361.261L311.353 336.675C314.42 333.162 320.446 330.514 325.361 330.514H447.642V337.001H325.361C322.632 337.001 318.598 338.776 316.892 340.726L295.402 365.312Z" fill="#DBDBDB"/>
<path d="M433.25 408.883V396.618C433.25 393.003 430.019 390.049 426.066 390.049H221.487C217.538 390.049 214.303 393.008 214.303 396.618V408.883H208.955V385.174C208.955 383.832 210.159 382.734 211.627 382.734H435.922C437.391 382.734 438.594 383.832 438.594 385.174V408.883H433.246H433.25Z" fill="#DBDBDB"/>
<path d="M437.138 396.333C444.636 396.333 450.714 401.894 450.714 408.748C450.714 415.603 444.636 421.164 437.138 421.164C429.64 421.164 423.561 415.603 423.561 408.748C423.561 401.894 429.64 396.333 437.138 396.333Z" fill="#486086"/>
<path d="M437.138 417.577C442.469 417.577 446.79 413.624 446.79 408.748C446.79 403.872 442.469 399.919 437.138 399.919C431.806 399.919 427.486 403.872 427.486 408.748C427.486 413.624 431.806 417.577 437.138 417.577Z" fill="#BEBEBE"/>
<path d="M437.138 399.923V417.577C431.806 417.577 427.486 413.624 427.486 408.748C427.486 403.872 431.806 399.919 437.138 399.919V399.923Z" fill="#DADDDF"/>
<path d="M211.097 396.333C218.595 396.333 224.673 401.894 224.673 408.748C224.673 415.603 218.595 421.164 211.097 421.164C203.599 421.164 197.521 415.603 197.521 408.748C197.521 401.894 203.599 396.333 211.097 396.333Z" fill="#486086"/>
<path d="M211.097 417.577C216.429 417.577 220.749 413.624 220.749 408.748C220.749 403.872 216.429 399.919 211.097 399.919C205.765 399.919 201.445 403.872 201.445 408.748C201.445 413.624 205.765 417.577 211.097 417.577Z" fill="#BEBEBE"/>
<path d="M211.097 399.923V417.577C205.765 417.577 201.445 413.624 201.445 408.748C201.445 403.872 205.765 399.919 211.097 399.919V399.923Z" fill="#DADDDF"/>
</g>
<g filter="url(#filter2_d_158_484)">
<circle cx="100.5" cy="100.5" r="100.5" transform="matrix(-1 0 0 1 209 82)" fill="white"/>
</g>
<g filter="url(#filter3_d_158_484)">
<path d="M61.1475 136.24H72.588V190.697C72.588 193.578 76.1573 195.911 71.1227 195.911H47.6938C47.6938 195.911 48.9474 195.881 51.4076 194.624C53.8678 193.366 53.9182 191.181 53.9182 189.803V141.517C53.9182 139.235 57.1547 136.24 61.1441 136.24H61.1475Z" fill="#50777E"/>
<path d="M66.8311 136.24H164.23C167.551 136.24 170.243 138.932 170.243 142.253V190.56C170.243 193.518 167.846 195.914 164.889 195.914H53.3773C53.3773 195.914 54.631 195.884 57.0912 194.627C59.5513 193.37 59.6017 191.185 59.6017 189.807V141.517C59.6017 139.235 62.8383 136.24 66.8277 136.24H66.8311Z" fill="#427273"/>
<path d="M72.8572 234.476H82.5197V144.824C82.5197 140.085 85.5345 136.24 81.2829 136.24H61.4973C61.4973 136.24 62.556 136.29 64.633 138.357C66.7101 140.424 66.7538 144.021 66.7538 146.293V227.669C66.7538 231.427 69.4862 234.476 72.8572 234.476Z" fill="#E9F0F8"/>
<path d="M80.1637 234.476H157.122C164.368 234.476 170.243 228.6 170.243 221.353V142.168C170.243 138.894 167.588 136.242 164.317 136.242H68.8039C68.8039 136.242 69.8626 136.293 71.9396 138.36C74.0167 140.427 74.0604 144.024 74.0604 146.296V227.672C74.0604 231.43 76.7928 234.479 80.1637 234.479V234.476Z" fill="#D5DDE0"/>
<path d="M85.746 118.38H98.4301V223.958C98.4301 229.541 102.389 234.472 96.8068 234.472H72.857C72.857 234.472 73.0989 234.765 75.2062 231.83C77.3135 228.896 77.7336 224.902 77.7336 222.227V126.393C77.7303 121.97 81.3197 118.38 85.746 118.38Z" fill="#50777E"/>
<path d="M94.6728 118.38H159.283C165.151 118.38 170.243 123.14 170.243 129.009V227.118C170.243 230.956 166.798 234.476 162.96 234.476H79.7604C79.7604 234.476 81.1518 234.012 83.8775 231.578C86.6032 229.141 86.6604 224.906 86.6604 222.23V126.393C86.6604 121.97 90.2498 118.38 94.6728 118.38Z" fill="#427273"/>
<path d="M84.6304 118.38C84.6304 118.38 87.2922 118.787 90.0212 121.22C92.7503 123.657 93.1536 127.543 93.1536 130.215V243.404H170.239V128.488C170.243 122.911 165.332 118.38 159.757 118.38H84.6304Z" fill="#E9F0F8"/>
<path d="M147.54 166.276C140.368 166.276 134.553 160.461 134.553 153.288C134.553 146.115 140.368 140.299 147.54 140.299C154.712 140.299 160.526 146.115 160.526 153.288C160.526 160.461 154.712 166.276 147.54 166.276Z" fill="#243F6D"/>
<path d="M145.917 145.17H149.977V161.406H145.917V145.17Z" fill="white"/>
<path d="M139.83 151.261H156.063V155.322H139.83V151.261Z" fill="white"/>
<path d="M102.084 145.984H128.87V148.421H102.084V145.984Z" fill="#BEBEBE"/>
<path d="M102.084 152.477H122.377V154.914H102.084V152.477Z" fill="#BEBEBE"/>
<path d="M102.897 171.961H114.26V174.398H102.897V171.961Z" fill="#BEBEBE"/>
<path d="M102.897 177.644H114.26V180.081H102.897V177.644Z" fill="#BEBEBE"/>
<path d="M102.897 183.329H114.26V185.766H102.897V183.329Z" fill="#BEBEBE"/>
<path d="M102.897 197.13H114.26V199.567H102.897V197.13Z" fill="#BEBEBE"/>
<path d="M102.897 202.812H114.26V205.249H102.897V202.812Z" fill="#BEBEBE"/>
<path d="M137.8 197.13H160.53V199.567H137.8V197.13Z" fill="#BEBEBE"/>
<path d="M136.177 202.812H160.53V205.249H136.177V202.812Z" fill="#BEBEBE"/>
<path d="M123.919 214.99H101.596V225.544H123.919V214.99Z" fill="#BEBEBE"/>
<path d="M133.743 171.961H160.53V174.398H133.743V171.961Z" fill="#BEBEBE"/>
<path d="M143.483 177.644H160.53V180.081H143.483V177.644Z" fill="#BEBEBE"/>
<path d="M140.237 183.329H160.53V185.766H140.237V183.329Z" fill="#BEBEBE"/>
<path d="M136.247 224.246V225.345H135.625V224.246C134.671 224.196 133.767 223.866 133.259 223.399L133.619 222.639C134.076 223.059 134.836 223.369 135.625 223.419V221.16C134.553 220.898 133.424 220.555 133.424 219.231C133.424 218.266 134.116 217.429 135.625 217.305V216.195H136.247V217.295C136.976 217.325 137.706 217.537 138.223 217.89L137.901 218.669C137.376 218.337 136.792 218.152 136.247 218.125V220.394C137.336 220.666 138.506 220.989 138.506 222.323C138.506 223.288 137.786 224.125 136.247 224.249V224.246ZM135.625 220.236V218.132C134.758 218.239 134.378 218.676 134.378 219.194C134.378 219.799 134.923 220.051 135.625 220.236ZM137.555 222.377C137.555 221.755 136.97 221.51 136.25 221.315V223.409C137.155 223.322 137.555 222.901 137.555 222.377Z" fill="#243F6D"/>
<path d="M141.389 217.362V224.178H140.425V218.209H138.885V217.362H141.389Z" fill="#243F6D"/>
<path d="M147.661 222.135C147.661 223.311 146.824 224.256 145.08 224.256C144.115 224.256 143.161 223.943 142.579 223.429L143.026 222.659C143.483 223.086 144.243 223.389 145.07 223.389C146.101 223.389 146.686 222.911 146.686 222.172C146.686 221.432 146.199 220.925 144.623 220.925H143.073L143.433 217.362H147.278V218.209H144.249L144.065 220.078H144.824C146.858 220.078 147.657 220.925 147.657 222.131L147.661 222.135Z" fill="#243F6D"/>
<path d="M148.471 220.771C148.471 218.553 149.66 217.285 151.257 217.285C152.853 217.285 154.033 218.553 154.033 220.771C154.033 222.99 152.847 224.257 151.257 224.257C149.667 224.257 148.471 222.99 148.471 220.771ZM153.055 220.771C153.055 219.026 152.316 218.153 151.254 218.153C150.191 218.153 149.442 219.03 149.442 220.771C149.442 222.512 150.181 223.39 151.254 223.39C152.326 223.39 153.055 222.512 153.055 220.771Z" fill="#243F6D"/>
<path d="M154.967 220.771C154.967 218.553 156.157 217.285 157.753 217.285C159.35 217.285 160.53 218.553 160.53 220.771C160.53 222.99 159.343 224.257 157.753 224.257C156.164 224.257 154.967 222.99 154.967 220.771ZM159.552 220.771C159.552 219.026 158.812 218.153 157.75 218.153C156.688 218.153 155.939 219.03 155.939 220.771C155.939 222.512 156.678 223.39 157.75 223.39C158.822 223.39 159.552 222.512 159.552 220.771Z" fill="#243F6D"/>
<path d="M170.243 240.97V243.404L169.456 246.651L164.939 243.404L162.546 246.651L160.153 243.404L157.76 246.651L155.367 243.404L152.974 246.651L150.581 243.404L148.188 246.651L145.795 243.404L143.403 246.651L141.01 243.404L138.617 246.651L136.224 243.404L133.831 246.651L131.438 243.404L129.048 246.651L126.655 243.404L124.262 246.651L121.869 243.404L119.476 246.651L117.083 243.404L114.69 246.651L112.297 243.404L109.904 246.651L107.511 243.404L105.118 246.651L102.725 243.404L100.333 246.651L97.9396 243.404L93.967 246.651L93.1536 243.404V240.97H170.243Z" fill="#D5DDE0"/>
</g>
<circle cx="7" cy="7" r="7" transform="matrix(-1 0 0 1 352 157)" fill="#BDCDFF"/>
<circle cx="5" cy="5" r="5" transform="matrix(-1 0 0 1 270 144)" fill="#BDCDFF"/>
<circle cx="5" cy="5" r="5" transform="matrix(-1 0 0 1 86 387)" fill="#BDCDFF"/>
<circle cx="10" cy="10" r="10" transform="matrix(-1 0 0 1 133 322)" fill="#BDCDFF"/>
<circle cx="6" cy="6" r="6" transform="matrix(-1 0 0 1 69 299)" fill="#BDCDFF"/>
<g clip-path="url(#clip2_158_484)">
<path d="M290 102.655C290 98.9765 292.982 96 296.661 96C300.345 96 303.327 98.9819 303.321 102.666C303.321 102.904 303.305 103.142 303.283 103.379C303.283 103.412 303.273 103.449 303.267 103.482C303.24 103.687 303.208 103.887 303.17 104.081C303.17 104.092 303.165 104.103 303.159 104.114C302.851 105.486 302.122 106.691 301.117 107.598L301.128 158.005C301.128 160.463 299.135 162.456 296.671 162.456C294.213 162.456 292.22 160.463 292.22 158.005L292.209 107.609C290.853 106.388 290 104.627 290 102.655Z" fill="#89A2E0"/>
<path d="M293.214 158.297C293.473 156.957 294.467 155.947 295.699 155.601C295.715 155.601 295.731 155.59 295.753 155.585C295.834 155.563 295.915 155.542 295.996 155.525C296.028 155.52 296.066 155.515 296.104 155.509C296.174 155.498 296.244 155.488 296.315 155.482C296.369 155.482 296.417 155.477 296.471 155.471C296.525 155.471 296.585 155.466 296.639 155.466C296.709 155.466 296.779 155.466 296.85 155.477C296.893 155.477 296.931 155.477 296.974 155.482C297.087 155.493 297.201 155.509 297.314 155.531L321.818 160.268C321.937 160.29 322.05 160.322 322.164 160.355C322.234 160.376 322.299 160.403 322.369 160.425C322.412 160.441 322.455 160.452 322.493 160.468C322.574 160.501 322.644 160.538 322.72 160.576C322.747 160.587 322.774 160.603 322.801 160.614C322.887 160.663 322.974 160.711 323.055 160.765C323.066 160.771 323.082 160.782 323.093 160.787C324.233 161.549 324.865 162.937 324.589 164.363C324.222 166.259 322.385 167.496 320.489 167.134L295.98 162.391C294.084 162.024 292.841 160.193 293.209 158.297H293.214Z" fill="#89A2E0"/>
<path d="M356.408 164.174C351.956 154.056 334.681 151.868 317.826 159.285C300.972 166.702 290.913 180.915 295.37 191.033C296.137 192.772 297.287 194.269 298.741 195.533C298.881 196.019 299.049 196.5 299.254 196.964C303.548 206.731 320.219 208.844 336.485 201.686C352.75 194.528 362.453 180.812 358.158 171.045C357.953 170.575 357.71 170.132 357.45 169.7C357.504 167.777 357.175 165.913 356.408 164.179V164.174Z" fill="#89A2E0"/>
<path d="M359.227 170.575C354.776 160.457 337.5 158.269 320.646 165.686C303.791 173.103 293.733 187.316 298.19 197.434C298.957 199.174 300.107 200.67 301.56 201.934C301.701 202.42 301.868 202.901 302.074 203.366C306.368 213.133 323.039 215.245 339.31 208.087C355.576 200.929 365.278 187.214 360.983 177.447C360.778 176.977 360.535 176.534 360.275 176.102C360.329 174.178 360 172.315 359.238 170.581L359.227 170.575Z" fill="#89A2E0"/>
<path d="M360.41 176.167C356.116 166.4 339.445 164.288 323.174 171.445C306.908 178.603 297.206 192.319 301.501 202.086C305.796 211.847 322.466 213.965 338.732 206.807C354.998 199.65 364.705 185.928 360.405 176.167H360.41Z" fill="#B7C9FF"/>
<path d="M329.127 184.967C324.551 186.982 321.791 190.785 322.968 193.464C324.146 196.143 328.819 196.678 333.394 194.669C337.975 192.654 340.73 188.851 339.553 186.171C338.375 183.492 333.708 182.952 329.127 184.972V184.967Z" fill="#F9F7EF"/>
<path d="M334.14 196.359C329.781 198.277 327.155 201.902 328.279 204.452C329.402 207.007 333.848 207.515 338.208 205.597C342.573 203.674 345.193 200.054 344.069 197.505C342.945 194.955 338.505 194.442 334.14 196.359Z" fill="#F9F7EF"/>
<path d="M348.79 180.434C345.295 181.974 342.621 184.702 342.383 187.257C342.092 190.428 345.673 192.113 350.395 191.027C351.318 190.811 352.215 190.509 353.063 190.136C356.558 188.596 359.238 185.863 359.476 183.313C359.767 180.142 356.175 178.457 351.459 179.548C350.535 179.759 349.638 180.067 348.79 180.439V180.434Z" fill="#F9F7EF"/>
<path d="M335.987 170.116C333.297 171.299 330.963 173.196 329.861 175.319C328.036 178.835 330.304 181.639 334.918 181.585C336.749 181.563 338.683 181.088 340.455 180.31C343.15 179.122 345.49 177.225 346.586 175.108C348.412 171.591 346.143 168.787 341.53 168.841C339.693 168.868 337.765 169.338 335.987 170.116Z" fill="#F9F7EF"/>
<path d="M313.547 179.991C311.77 180.769 310.122 181.876 308.864 183.211C305.698 186.576 306.238 190.141 310.068 191.173C312.375 191.794 315.352 191.357 318.042 190.168C319.819 189.385 321.467 188.283 322.72 186.949C325.886 183.583 325.345 180.018 321.515 178.992C319.209 178.37 316.232 178.808 313.542 179.991H313.547Z" fill="#F9F7EF"/>
<path d="M312.499 196.397C311.651 196.77 310.825 197.224 310.041 197.764C306.049 200.508 304.871 204.295 307.41 206.223C309.447 207.774 313.272 207.644 316.767 206.11C317.615 205.737 318.447 205.278 319.225 204.743C323.217 201.999 324.395 198.218 321.856 196.289C319.814 194.739 315.989 194.863 312.494 196.402L312.499 196.397Z" fill="#F9F7EF"/>
<path d="M294.965 158.637C295.164 157.594 296.175 156.913 297.217 157.113C298.26 157.313 298.94 158.323 298.741 159.361C298.535 160.403 297.53 161.084 296.488 160.879C295.445 160.679 294.765 159.674 294.965 158.631V158.637Z" fill="#2C5A79"/>
</g>
<defs>
<filter id="filter0_d_158_484" x="12.5562" y="126" width="516.352" height="360" filterUnits="userSpaceOnUse" color-interpolation-filters="sRGB">
<feFlood flood-opacity="0" result="BackgroundImageFix"/>
<feColorMatrix in="SourceAlpha" type="matrix" values="0 0 0 0 0 0 0 0 0 0 0 0 0 0 0 0 0 0 127 0" result="hardAlpha"/>
<feOffset dx="-4" dy="4"/>
<feGaussianBlur stdDeviation="2"/>
<feComposite in2="hardAlpha" operator="out"/>
<feColorMatrix type="matrix" values="0 0 0 0 0 0 0 0 0 0 0 0 0 0 0 0 0 0 0.1 0"/>
<feBlend mode="normal" in2="BackgroundImageFix" result="effect1_dropShadow_158_484"/>
<feBlend mode="normal" in="SourceGraphic" in2="effect1_dropShadow_158_484" result="shape"/>
</filter>
<filter id="filter1_d_158_484" x="171.527" y="207" width="321.07" height="222.164" filterUnits="userSpaceOnUse" color-interpolation-filters="sRGB">
<feFlood flood-opacity="0" result="BackgroundImageFix"/>
<feColorMatrix in="SourceAlpha" type="matrix" values="0 0 0 0 0 0 0 0 0 0 0 0 0 0 0 0 0 0 127 0" result="hardAlpha"/>
<feOffset dx="-2" dy="4"/>
<feGaussianBlur stdDeviation="2"/>
<feComposite in2="hardAlpha" operator="out"/>
<feColorMatrix type="matrix" values="0 0 0 0 0 0 0 0 0 0 0 0 0 0 0 0 0 0 0.15 0"/>
<feBlend mode="normal" in2="BackgroundImageFix" result="effect1_dropShadow_158_484"/>
<feBlend mode="normal" in="SourceGraphic" in2="effect1_dropShadow_158_484" result="shape"/>
</filter>
<filter id="filter2_d_158_484" x="0" y="82" width="209" height="209" filterUnits="userSpaceOnUse" color-interpolation-filters="sRGB">
<feFlood flood-opacity="0" result="BackgroundImageFix"/>
<feColorMatrix in="SourceAlpha" type="matrix" values="0 0 0 0 0 0 0 0 0 0 0 0 0 0 0 0 0 0 127 0" result="hardAlpha"/>
<feOffset dx="-4" dy="4"/>
<feGaussianBlur stdDeviation="2"/>
<feComposite in2="hardAlpha" operator="out"/>
<feColorMatrix type="matrix" values="0 0 0 0 0 0 0 0 0 0 0 0 0 0 0 0 0 0 0.15 0"/>
<feBlend mode="normal" in2="BackgroundImageFix" result="effect1_dropShadow_158_484"/>
<feBlend mode="normal" in="SourceGraphic" in2="effect1_dropShadow_158_484" result="shape"/>
</filter>
<filter id="filter3_d_158_484" x="39.6938" y="118.38" width="130.549" height="136.271" filterUnits="userSpaceOnUse" color-interpolation-filters="sRGB">
<feFlood flood-opacity="0" result="BackgroundImageFix"/>
<feColorMatrix in="SourceAlpha" type="matrix" values="0 0 0 0 0 0 0 0 0 0 0 0 0 0 0 0 0 0 127 0" result="hardAlpha"/>
<feOffset dx="-4" dy="4"/>
<feGaussianBlur stdDeviation="2"/>
<feComposite in2="hardAlpha" operator="out"/>
<feColorMatrix type="matrix" values="0 0 0 0 0 0 0 0 0 0 0 0 0 0 0 0 0 0 0.25 0"/>
<feBlend mode="normal" in2="BackgroundImageFix" result="effect1_dropShadow_158_484"/>
<feBlend mode="normal" in="SourceGraphic" in2="effect1_dropShadow_158_484" result="shape"/>
</filter>
<linearGradient id="paint0_linear_158_484" x1="275" y1="478" x2="275" y2="126" gradientUnits="userSpaceOnUse">
<stop stop-color="#D9E2FF"/>
<stop offset="0.5" stop-color="#FDFDFD"/>
<stop offset="1" stop-color="white"/>
</linearGradient>
<clipPath id="clip0_158_484">
<rect width="215.014" height="397" fill="white" transform="matrix(-1 8.74228e-08 8.74228e-08 1 276.014 0)"/>
</clipPath>
<clipPath id="clip1_158_484">
<rect width="215.014" height="397" fill="white" transform="matrix(1.19249e-08 -1 -1 -1.19249e-08 583 477.014)"/>
</clipPath>
<clipPath id="clip2_158_484">
<rect width="72" height="86" fill="white" transform="translate(290 126)"/>
</clipPath>
</defs>
</svg>
