<svg width="558" height="478" viewBox="0 0 558 478" fill="none" xmlns="http://www.w3.org/2000/svg">
<mask id="mask0_158_480" style="mask-type:luminance" maskUnits="userSpaceOnUse" x="342" y="0" width="216" height="397">
<path d="M557.385 0H342.375V397H557.385V0Z" fill="white"/>
</mask>
<g mask="url(#mask0_158_480)">
<path d="M556.035 2.7C555.295 2.7 554.685 2.1 554.685 1.35C554.685 0.6 555.285 0 556.035 0C556.785 0 557.385 0.6 557.385 1.35C557.385 2.1 556.785 2.7 556.035 2.7Z" fill="#71869D"/>
<path d="M525.705 2.7C524.955 2.7 524.355 2.1 524.355 1.35C524.355 0.6 524.955 0 525.705 0C526.455 0 527.055 0.6 527.055 1.35C527.055 2.1 526.455 2.7 525.705 2.7Z" fill="#71869D"/>
<path d="M495.375 2.7C494.635 2.7 494.025 2.1 494.025 1.35C494.025 0.6 494.625 0 495.375 0C496.125 0 496.725 0.6 496.725 1.35C496.725 2.1 496.125 2.7 495.375 2.7Z" fill="#71869D"/>
<path d="M465.045 2.7C464.305 2.7 463.695 2.1 463.695 1.35C463.695 0.6 464.295 0 465.045 0C465.795 0 466.395 0.6 466.395 1.35C466.395 2.1 465.795 2.7 465.045 2.7Z" fill="#71869D"/>
<path d="M434.715 2.7C433.975 2.7 433.365 2.1 433.365 1.35C433.365 0.6 433.965 0 434.715 0C435.465 0 436.065 0.6 436.065 1.35C436.065 2.1 435.465 2.7 434.715 2.7Z" fill="#71869D"/>
<path d="M404.385 2.7C403.645 2.7 403.035 2.1 403.035 1.35C403.035 0.6 403.635 0 404.385 0C405.135 0 405.735 0.6 405.735 1.35C405.735 2.1 405.135 2.7 404.385 2.7Z" fill="#71869D"/>
<path d="M556.035 33.0301C555.295 33.0301 554.685 32.4301 554.685 31.6801C554.685 30.9301 555.285 30.3301 556.035 30.3301C556.785 30.3301 557.385 30.9301 557.385 31.6801C557.385 32.4301 556.785 33.0301 556.035 33.0301Z" fill="#71869D"/>
<path d="M525.705 33.0301C524.955 33.0301 524.355 32.4301 524.355 31.6801C524.355 30.9301 524.955 30.3301 525.705 30.3301C526.455 30.3301 527.055 30.9301 527.055 31.6801C527.055 32.4301 526.455 33.0301 525.705 33.0301Z" fill="#71869D"/>
<path d="M495.375 33.0301C494.635 33.0301 494.025 32.4301 494.025 31.6801C494.025 30.9301 494.625 30.3301 495.375 30.3301C496.125 30.3301 496.725 30.9301 496.725 31.6801C496.725 32.4301 496.125 33.0301 495.375 33.0301Z" fill="#71869D"/>
<path d="M465.045 33.0301C464.305 33.0301 463.695 32.4301 463.695 31.6801C463.695 30.9301 464.295 30.3301 465.045 30.3301C465.795 30.3301 466.395 30.9301 466.395 31.6801C466.395 32.4301 465.795 33.0301 465.045 33.0301Z" fill="#71869D"/>
<path d="M434.715 33.0301C433.975 33.0301 433.365 32.4301 433.365 31.6801C433.365 30.9301 433.965 30.3301 434.715 30.3301C435.465 30.3301 436.065 30.9301 436.065 31.6801C436.065 32.4301 435.465 33.0301 434.715 33.0301Z" fill="#71869D"/>
<path d="M404.385 33.0301C403.645 33.0301 403.035 32.4301 403.035 31.6801C403.035 30.9301 403.635 30.3301 404.385 30.3301C405.135 30.3301 405.735 30.9301 405.735 31.6801C405.735 32.4301 405.135 33.0301 404.385 33.0301Z" fill="#71869D"/>
<path d="M556.035 63.3602C555.295 63.3602 554.685 62.7602 554.685 62.0102C554.685 61.2602 555.285 60.6602 556.035 60.6602C556.785 60.6602 557.385 61.2602 557.385 62.0102C557.385 62.7602 556.785 63.3602 556.035 63.3602Z" fill="#71869D"/>
<path d="M525.705 63.3602C524.955 63.3602 524.355 62.7602 524.355 62.0102C524.355 61.2602 524.955 60.6602 525.705 60.6602C526.455 60.6602 527.055 61.2602 527.055 62.0102C527.055 62.7602 526.455 63.3602 525.705 63.3602Z" fill="#71869D"/>
<path d="M495.375 63.3602C494.635 63.3602 494.025 62.7602 494.025 62.0102C494.025 61.2602 494.625 60.6602 495.375 60.6602C496.125 60.6602 496.725 61.2602 496.725 62.0102C496.725 62.7602 496.125 63.3602 495.375 63.3602Z" fill="#71869D"/>
<path d="M465.045 63.3602C464.305 63.3602 463.695 62.7602 463.695 62.0102C463.695 61.2602 464.295 60.6602 465.045 60.6602C465.795 60.6602 466.395 61.2602 466.395 62.0102C466.395 62.7602 465.795 63.3602 465.045 63.3602Z" fill="#71869D"/>
<path d="M434.715 63.3602C433.975 63.3602 433.365 62.7602 433.365 62.0102C433.365 61.2602 433.965 60.6602 434.715 60.6602C435.465 60.6602 436.065 61.2602 436.065 62.0102C436.065 62.7602 435.465 63.3602 434.715 63.3602Z" fill="#71869D"/>
<path d="M404.385 63.3602C403.645 63.3602 403.035 62.7602 403.035 62.0102C403.035 61.2602 403.635 60.6602 404.385 60.6602C405.135 60.6602 405.735 61.2602 405.735 62.0102C405.735 62.7602 405.135 63.3602 404.385 63.3602Z" fill="#71869D"/>
<path d="M556.035 93.6902C555.295 93.6902 554.685 93.0902 554.685 92.3402C554.685 91.5902 555.285 90.9902 556.035 90.9902C556.785 90.9902 557.385 91.5902 557.385 92.3402C557.385 93.0902 556.785 93.6902 556.035 93.6902Z" fill="#71869D"/>
<path d="M525.705 93.6902C524.955 93.6902 524.355 93.0902 524.355 92.3402C524.355 91.5902 524.955 90.9902 525.705 90.9902C526.455 90.9902 527.055 91.5902 527.055 92.3402C527.055 93.0902 526.455 93.6902 525.705 93.6902Z" fill="#71869D"/>
<path d="M495.375 93.6902C494.635 93.6902 494.025 93.0902 494.025 92.3402C494.025 91.5902 494.625 90.9902 495.375 90.9902C496.125 90.9902 496.725 91.5902 496.725 92.3402C496.725 93.0902 496.125 93.6902 495.375 93.6902Z" fill="#71869D"/>
<path d="M465.045 93.6902C464.305 93.6902 463.695 93.0902 463.695 92.3402C463.695 91.5902 464.295 90.9902 465.045 90.9902C465.795 90.9902 466.395 91.5902 466.395 92.3402C466.395 93.0902 465.795 93.6902 465.045 93.6902Z" fill="#71869D"/>
<path d="M434.715 93.6902C433.975 93.6902 433.365 93.0902 433.365 92.3402C433.365 91.5902 433.965 90.9902 434.715 90.9902C435.465 90.9902 436.065 91.5902 436.065 92.3402C436.065 93.0902 435.465 93.6902 434.715 93.6902Z" fill="#71869D"/>
<path d="M404.385 93.6902C403.645 93.6902 403.035 93.0902 403.035 92.3402C403.035 91.5902 403.635 90.9902 404.385 90.9902C405.135 90.9902 405.735 91.5902 405.735 92.3402C405.735 93.0902 405.135 93.6902 404.385 93.6902Z" fill="#71869D"/>
<path d="M556.035 124.02C555.295 124.02 554.685 123.42 554.685 122.67C554.685 121.92 555.285 121.32 556.035 121.32C556.785 121.32 557.385 121.92 557.385 122.67C557.385 123.42 556.785 124.02 556.035 124.02Z" fill="#71869D"/>
<path d="M525.705 124.02C524.955 124.02 524.355 123.42 524.355 122.67C524.355 121.92 524.955 121.32 525.705 121.32C526.455 121.32 527.055 121.92 527.055 122.67C527.055 123.42 526.455 124.02 525.705 124.02Z" fill="#71869D"/>
<path d="M495.375 124.02C494.635 124.02 494.025 123.42 494.025 122.67C494.025 121.92 494.625 121.32 495.375 121.32C496.125 121.32 496.725 121.92 496.725 122.67C496.725 123.42 496.125 124.02 495.375 124.02Z" fill="#71869D"/>
<path d="M465.045 124.02C464.305 124.02 463.695 123.42 463.695 122.67C463.695 121.92 464.295 121.32 465.045 121.32C465.795 121.32 466.395 121.92 466.395 122.67C466.395 123.42 465.795 124.02 465.045 124.02Z" fill="#71869D"/>
<path d="M434.715 124.02C433.975 124.02 433.365 123.42 433.365 122.67C433.365 121.92 433.965 121.32 434.715 121.32C435.465 121.32 436.065 121.92 436.065 122.67C436.065 123.42 435.465 124.02 434.715 124.02Z" fill="#71869D"/>
<path d="M404.385 124.02C403.645 124.02 403.035 123.42 403.035 122.67C403.035 121.92 403.635 121.32 404.385 121.32C405.135 121.32 405.735 121.92 405.735 122.67C405.735 123.42 405.135 124.02 404.385 124.02Z" fill="#71869D"/>
<path d="M556.035 154.35C555.295 154.35 554.685 153.75 554.685 153C554.685 152.25 555.285 151.65 556.035 151.65C556.785 151.65 557.385 152.25 557.385 153C557.385 153.75 556.785 154.35 556.035 154.35Z" fill="#71869D"/>
<path d="M525.705 154.35C524.955 154.35 524.355 153.75 524.355 153C524.355 152.25 524.955 151.65 525.705 151.65C526.455 151.65 527.055 152.25 527.055 153C527.055 153.75 526.455 154.35 525.705 154.35Z" fill="#71869D"/>
<path d="M495.375 154.35C494.635 154.35 494.025 153.75 494.025 153C494.025 152.25 494.625 151.65 495.375 151.65C496.125 151.65 496.725 152.25 496.725 153C496.725 153.75 496.125 154.35 495.375 154.35Z" fill="#71869D"/>
<path d="M465.045 154.35C464.305 154.35 463.695 153.75 463.695 153C463.695 152.25 464.295 151.65 465.045 151.65C465.795 151.65 466.395 152.25 466.395 153C466.395 153.75 465.795 154.35 465.045 154.35Z" fill="#71869D"/>
<path d="M434.715 154.35C433.975 154.35 433.365 153.75 433.365 153C433.365 152.25 433.965 151.65 434.715 151.65C435.465 151.65 436.065 152.25 436.065 153C436.065 153.75 435.465 154.35 434.715 154.35Z" fill="#71869D"/>
<path d="M404.385 154.35C403.645 154.35 403.035 153.75 403.035 153C403.035 152.25 403.635 151.65 404.385 151.65C405.135 151.65 405.735 152.25 405.735 153C405.735 153.75 405.135 154.35 404.385 154.35Z" fill="#71869D"/>
<path d="M556.035 184.68C555.295 184.68 554.685 184.08 554.685 183.33C554.685 182.58 555.285 181.98 556.035 181.98C556.785 181.98 557.385 182.58 557.385 183.33C557.385 184.08 556.785 184.68 556.035 184.68Z" fill="#71869D"/>
<path d="M525.705 184.68C524.955 184.68 524.355 184.08 524.355 183.33C524.355 182.58 524.955 181.98 525.705 181.98C526.455 181.98 527.055 182.58 527.055 183.33C527.055 184.08 526.455 184.68 525.705 184.68Z" fill="#71869D"/>
<path d="M495.375 184.68C494.635 184.68 494.025 184.08 494.025 183.33C494.025 182.58 494.625 181.98 495.375 181.98C496.125 181.98 496.725 182.58 496.725 183.33C496.725 184.08 496.125 184.68 495.375 184.68Z" fill="#71869D"/>
<path d="M465.045 184.68C464.305 184.68 463.695 184.08 463.695 183.33C463.695 182.58 464.295 181.98 465.045 181.98C465.795 181.98 466.395 182.58 466.395 183.33C466.395 184.08 465.795 184.68 465.045 184.68Z" fill="#71869D"/>
<path d="M434.715 184.68C433.975 184.68 433.365 184.08 433.365 183.33C433.365 182.58 433.965 181.98 434.715 181.98C435.465 181.98 436.065 182.58 436.065 183.33C436.065 184.08 435.465 184.68 434.715 184.68Z" fill="#71869D"/>
<path d="M404.385 184.68C403.645 184.68 403.035 184.08 403.035 183.33C403.035 182.58 403.635 181.98 404.385 181.98C405.135 181.98 405.735 182.58 405.735 183.33C405.735 184.08 405.135 184.68 404.385 184.68Z" fill="#71869D"/>
<path d="M556.035 215.01C555.295 215.01 554.685 214.41 554.685 213.66C554.685 212.91 555.285 212.31 556.035 212.31C556.785 212.31 557.385 212.91 557.385 213.66C557.385 214.41 556.785 215.01 556.035 215.01Z" fill="#71869D"/>
<path d="M525.705 215.01C524.955 215.01 524.355 214.41 524.355 213.66C524.355 212.91 524.955 212.31 525.705 212.31C526.455 212.31 527.055 212.91 527.055 213.66C527.055 214.41 526.455 215.01 525.705 215.01Z" fill="#71869D"/>
<path d="M495.375 215.01C494.635 215.01 494.025 214.41 494.025 213.66C494.025 212.91 494.625 212.31 495.375 212.31C496.125 212.31 496.725 212.91 496.725 213.66C496.725 214.41 496.125 215.01 495.375 215.01Z" fill="#71869D"/>
<path d="M465.045 215.01C464.305 215.01 463.695 214.41 463.695 213.66C463.695 212.91 464.295 212.31 465.045 212.31C465.795 212.31 466.395 212.91 466.395 213.66C466.395 214.41 465.795 215.01 465.045 215.01Z" fill="#71869D"/>
<path d="M434.715 215.01C433.975 215.01 433.365 214.41 433.365 213.66C433.365 212.91 433.965 212.31 434.715 212.31C435.465 212.31 436.065 212.91 436.065 213.66C436.065 214.41 435.465 215.01 434.715 215.01Z" fill="#71869D"/>
<path d="M404.385 215.01C403.645 215.01 403.035 214.41 403.035 213.66C403.035 212.91 403.635 212.31 404.385 212.31C405.135 212.31 405.735 212.91 405.735 213.66C405.735 214.41 405.135 215.01 404.385 215.01Z" fill="#71869D"/>
<path d="M556.035 245.35C555.295 245.35 554.685 244.75 554.685 244C554.685 243.25 555.285 242.65 556.035 242.65C556.785 242.65 557.385 243.25 557.385 244C557.385 244.75 556.785 245.35 556.035 245.35Z" fill="#71869D"/>
<path d="M525.705 245.35C524.955 245.35 524.355 244.75 524.355 244C524.355 243.25 524.955 242.65 525.705 242.65C526.455 242.65 527.055 243.25 527.055 244C527.055 244.75 526.455 245.35 525.705 245.35Z" fill="#71869D"/>
<path d="M495.375 245.35C494.635 245.35 494.025 244.75 494.025 244C494.025 243.25 494.625 242.65 495.375 242.65C496.125 242.65 496.725 243.25 496.725 244C496.725 244.75 496.125 245.35 495.375 245.35Z" fill="#71869D"/>
<path d="M465.045 245.35C464.305 245.35 463.695 244.75 463.695 244C463.695 243.25 464.295 242.65 465.045 242.65C465.795 242.65 466.395 243.25 466.395 244C466.395 244.75 465.795 245.35 465.045 245.35Z" fill="#71869D"/>
<path d="M434.715 245.35C433.975 245.35 433.365 244.75 433.365 244C433.365 243.25 433.965 242.65 434.715 242.65C435.465 242.65 436.065 243.25 436.065 244C436.065 244.75 435.465 245.35 434.715 245.35Z" fill="#71869D"/>
<path d="M404.385 245.35C403.645 245.35 403.035 244.75 403.035 244C403.035 243.25 403.635 242.65 404.385 242.65C405.135 242.65 405.735 243.25 405.735 244C405.735 244.75 405.135 245.35 404.385 245.35Z" fill="#71869D"/>
<path d="M556.035 275.68C555.295 275.68 554.685 275.08 554.685 274.33C554.685 273.58 555.285 272.98 556.035 272.98C556.785 272.98 557.385 273.58 557.385 274.33C557.385 275.08 556.785 275.68 556.035 275.68Z" fill="#71869D"/>
<path d="M525.705 275.68C524.955 275.68 524.355 275.08 524.355 274.33C524.355 273.58 524.955 272.98 525.705 272.98C526.455 272.98 527.055 273.58 527.055 274.33C527.055 275.08 526.455 275.68 525.705 275.68Z" fill="#71869D"/>
<path d="M495.375 275.68C494.635 275.68 494.025 275.08 494.025 274.33C494.025 273.58 494.625 272.98 495.375 272.98C496.125 272.98 496.725 273.58 496.725 274.33C496.725 275.08 496.125 275.68 495.375 275.68Z" fill="#71869D"/>
<path d="M465.045 275.68C464.305 275.68 463.695 275.08 463.695 274.33C463.695 273.58 464.295 272.98 465.045 272.98C465.795 272.98 466.395 273.58 466.395 274.33C466.395 275.08 465.795 275.68 465.045 275.68Z" fill="#71869D"/>
<path d="M434.715 275.68C433.975 275.68 433.365 275.08 433.365 274.33C433.365 273.58 433.965 272.98 434.715 272.98C435.465 272.98 436.065 273.58 436.065 274.33C436.065 275.08 435.465 275.68 434.715 275.68Z" fill="#71869D"/>
<path d="M404.385 275.68C403.645 275.68 403.035 275.08 403.035 274.33C403.035 273.58 403.635 272.98 404.385 272.98C405.135 272.98 405.735 273.58 405.735 274.33C405.735 275.08 405.135 275.68 404.385 275.68Z" fill="#71869D"/>
<path d="M556.035 306.01C555.295 306.01 554.685 305.41 554.685 304.66C554.685 303.91 555.285 303.31 556.035 303.31C556.785 303.31 557.385 303.91 557.385 304.66C557.385 305.41 556.785 306.01 556.035 306.01Z" fill="#71869D"/>
<path d="M525.705 306.01C524.955 306.01 524.355 305.41 524.355 304.66C524.355 303.91 524.955 303.31 525.705 303.31C526.455 303.31 527.055 303.91 527.055 304.66C527.055 305.41 526.455 306.01 525.705 306.01Z" fill="#71869D"/>
<path d="M495.375 306.01C494.635 306.01 494.025 305.41 494.025 304.66C494.025 303.91 494.625 303.31 495.375 303.31C496.125 303.31 496.725 303.91 496.725 304.66C496.725 305.41 496.125 306.01 495.375 306.01Z" fill="#71869D"/>
<path d="M465.045 306.01C464.305 306.01 463.695 305.41 463.695 304.66C463.695 303.91 464.295 303.31 465.045 303.31C465.795 303.31 466.395 303.91 466.395 304.66C466.395 305.41 465.795 306.01 465.045 306.01Z" fill="#71869D"/>
<path d="M434.715 306.01C433.975 306.01 433.365 305.41 433.365 304.66C433.365 303.91 433.965 303.31 434.715 303.31C435.465 303.31 436.065 303.91 436.065 304.66C436.065 305.41 435.465 306.01 434.715 306.01Z" fill="#71869D"/>
<path d="M404.385 306.01C403.645 306.01 403.035 305.41 403.035 304.66C403.035 303.91 403.635 303.31 404.385 303.31C405.135 303.31 405.735 303.91 405.735 304.66C405.735 305.41 405.135 306.01 404.385 306.01Z" fill="#71869D"/>
<path d="M374.055 2.7C373.315 2.7 372.705 2.1 372.705 1.35C372.705 0.6 373.305 0 374.055 0C374.805 0 375.405 0.6 375.405 1.35C375.405 2.1 374.805 2.7 374.055 2.7Z" fill="#71869D"/>
<path d="M343.725 2.7C342.985 2.7 342.375 2.1 342.375 1.35C342.375 0.6 342.975 0 343.725 0C344.475 0 345.075 0.6 345.075 1.35C345.075 2.1 344.475 2.7 343.725 2.7Z" fill="#71869D"/>
<path d="M374.055 33.0301C373.315 33.0301 372.705 32.4301 372.705 31.6801C372.705 30.9301 373.305 30.3301 374.055 30.3301C374.805 30.3301 375.405 30.9301 375.405 31.6801C375.405 32.4301 374.805 33.0301 374.055 33.0301Z" fill="#71869D"/>
<path d="M343.725 33.0301C342.985 33.0301 342.375 32.4301 342.375 31.6801C342.375 30.9301 342.975 30.3301 343.725 30.3301C344.475 30.3301 345.075 30.9301 345.075 31.6801C345.075 32.4301 344.475 33.0301 343.725 33.0301Z" fill="#71869D"/>
<path d="M374.055 63.3602C373.315 63.3602 372.705 62.7602 372.705 62.0102C372.705 61.2602 373.305 60.6602 374.055 60.6602C374.805 60.6602 375.405 61.2602 375.405 62.0102C375.405 62.7602 374.805 63.3602 374.055 63.3602Z" fill="#71869D"/>
<path d="M343.725 63.3602C342.985 63.3602 342.375 62.7602 342.375 62.0102C342.375 61.2602 342.975 60.6602 343.725 60.6602C344.475 60.6602 345.075 61.2602 345.075 62.0102C345.075 62.7602 344.475 63.3602 343.725 63.3602Z" fill="#71869D"/>
<path d="M374.055 93.6902C373.315 93.6902 372.705 93.0902 372.705 92.3402C372.705 91.5902 373.305 90.9902 374.055 90.9902C374.805 90.9902 375.405 91.5902 375.405 92.3402C375.405 93.0902 374.805 93.6902 374.055 93.6902Z" fill="#71869D"/>
<path d="M343.725 93.6902C342.985 93.6902 342.375 93.0902 342.375 92.3402C342.375 91.5902 342.975 90.9902 343.725 90.9902C344.475 90.9902 345.075 91.5902 345.075 92.3402C345.075 93.0902 344.475 93.6902 343.725 93.6902Z" fill="#71869D"/>
<path d="M374.055 124.02C373.315 124.02 372.705 123.42 372.705 122.67C372.705 121.92 373.305 121.32 374.055 121.32C374.805 121.32 375.405 121.92 375.405 122.67C375.405 123.42 374.805 124.02 374.055 124.02Z" fill="#71869D"/>
<path d="M343.725 124.02C342.985 124.02 342.375 123.42 342.375 122.67C342.375 121.92 342.975 121.32 343.725 121.32C344.475 121.32 345.075 121.92 345.075 122.67C345.075 123.42 344.475 124.02 343.725 124.02Z" fill="#71869D"/>
<path d="M374.055 154.35C373.315 154.35 372.705 153.75 372.705 153C372.705 152.25 373.305 151.65 374.055 151.65C374.805 151.65 375.405 152.25 375.405 153C375.405 153.75 374.805 154.35 374.055 154.35Z" fill="#71869D"/>
<path d="M343.725 154.35C342.985 154.35 342.375 153.75 342.375 153C342.375 152.25 342.975 151.65 343.725 151.65C344.475 151.65 345.075 152.25 345.075 153C345.075 153.75 344.475 154.35 343.725 154.35Z" fill="#71869D"/>
<path d="M374.055 184.68C373.315 184.68 372.705 184.08 372.705 183.33C372.705 182.58 373.305 181.98 374.055 181.98C374.805 181.98 375.405 182.58 375.405 183.33C375.405 184.08 374.805 184.68 374.055 184.68Z" fill="#71869D"/>
<path d="M343.725 184.68C342.985 184.68 342.375 184.08 342.375 183.33C342.375 182.58 342.975 181.98 343.725 181.98C344.475 181.98 345.075 182.58 345.075 183.33C345.075 184.08 344.475 184.68 343.725 184.68Z" fill="#71869D"/>
<path d="M374.055 215.01C373.315 215.01 372.705 214.41 372.705 213.66C372.705 212.91 373.305 212.31 374.055 212.31C374.805 212.31 375.405 212.91 375.405 213.66C375.405 214.41 374.805 215.01 374.055 215.01Z" fill="#71869D"/>
<path d="M343.725 215.01C342.985 215.01 342.375 214.41 342.375 213.66C342.375 212.91 342.975 212.31 343.725 212.31C344.475 212.31 345.075 212.91 345.075 213.66C345.075 214.41 344.475 215.01 343.725 215.01Z" fill="#71869D"/>
<path d="M374.055 245.35C373.315 245.35 372.705 244.75 372.705 244C372.705 243.25 373.305 242.65 374.055 242.65C374.805 242.65 375.405 243.25 375.405 244C375.405 244.75 374.805 245.35 374.055 245.35Z" fill="#71869D"/>
<path d="M343.725 245.35C342.985 245.35 342.375 244.75 342.375 244C342.375 243.25 342.975 242.65 343.725 242.65C344.475 242.65 345.075 243.25 345.075 244C345.075 244.75 344.475 245.35 343.725 245.35Z" fill="#71869D"/>
<path d="M374.055 275.68C373.315 275.68 372.705 275.08 372.705 274.33C372.705 273.58 373.305 272.98 374.055 272.98C374.805 272.98 375.405 273.58 375.405 274.33C375.405 275.08 374.805 275.68 374.055 275.68Z" fill="#71869D"/>
<path d="M343.725 275.68C342.985 275.68 342.375 275.08 342.375 274.33C342.375 273.58 342.975 272.98 343.725 272.98C344.475 272.98 345.075 273.58 345.075 274.33C345.075 275.08 344.475 275.68 343.725 275.68Z" fill="#71869D"/>
<path d="M374.055 306.01C373.315 306.01 372.705 305.41 372.705 304.66C372.705 303.91 373.305 303.31 374.055 303.31C374.805 303.31 375.405 303.91 375.405 304.66C375.405 305.41 374.805 306.01 374.055 306.01Z" fill="#71869D"/>
<path d="M343.725 306.01C342.985 306.01 342.375 305.41 342.375 304.66C342.375 303.91 342.975 303.31 343.725 303.31C344.475 303.31 345.075 303.91 345.075 304.66C345.075 305.41 344.475 306.01 343.725 306.01Z" fill="#71869D"/>
<path d="M556.035 336.34C555.295 336.34 554.685 335.74 554.685 334.99C554.685 334.24 555.285 333.64 556.035 333.64C556.785 333.64 557.385 334.24 557.385 334.99C557.385 335.74 556.785 336.34 556.035 336.34Z" fill="#71869D"/>
<path d="M525.705 336.34C524.955 336.34 524.355 335.74 524.355 334.99C524.355 334.24 524.955 333.64 525.705 333.64C526.455 333.64 527.055 334.24 527.055 334.99C527.055 335.74 526.455 336.34 525.705 336.34Z" fill="#71869D"/>
<path d="M495.375 336.34C494.635 336.34 494.025 335.74 494.025 334.99C494.025 334.24 494.625 333.64 495.375 333.64C496.125 333.64 496.725 334.24 496.725 334.99C496.725 335.74 496.125 336.34 495.375 336.34Z" fill="#71869D"/>
<path d="M465.045 336.34C464.305 336.34 463.695 335.74 463.695 334.99C463.695 334.24 464.295 333.64 465.045 333.64C465.795 333.64 466.395 334.24 466.395 334.99C466.395 335.74 465.795 336.34 465.045 336.34Z" fill="#71869D"/>
<path d="M434.715 336.34C433.975 336.34 433.365 335.74 433.365 334.99C433.365 334.24 433.965 333.64 434.715 333.64C435.465 333.64 436.065 334.24 436.065 334.99C436.065 335.74 435.465 336.34 434.715 336.34Z" fill="#71869D"/>
<path d="M404.385 336.34C403.645 336.34 403.035 335.74 403.035 334.99C403.035 334.24 403.635 333.64 404.385 333.64C405.135 333.64 405.735 334.24 405.735 334.99C405.735 335.74 405.135 336.34 404.385 336.34Z" fill="#71869D"/>
<path d="M556.035 366.67C555.295 366.67 554.685 366.07 554.685 365.32C554.685 364.57 555.285 363.97 556.035 363.97C556.785 363.97 557.385 364.57 557.385 365.32C557.385 366.07 556.785 366.67 556.035 366.67Z" fill="#71869D"/>
<path d="M525.705 366.67C524.955 366.67 524.355 366.07 524.355 365.32C524.355 364.57 524.955 363.97 525.705 363.97C526.455 363.97 527.055 364.57 527.055 365.32C527.055 366.07 526.455 366.67 525.705 366.67Z" fill="#71869D"/>
<path d="M495.375 366.67C494.635 366.67 494.025 366.07 494.025 365.32C494.025 364.57 494.625 363.97 495.375 363.97C496.125 363.97 496.725 364.57 496.725 365.32C496.725 366.07 496.125 366.67 495.375 366.67Z" fill="#71869D"/>
<path d="M465.045 366.67C464.305 366.67 463.695 366.07 463.695 365.32C463.695 364.57 464.295 363.97 465.045 363.97C465.795 363.97 466.395 364.57 466.395 365.32C466.395 366.07 465.795 366.67 465.045 366.67Z" fill="#71869D"/>
<path d="M434.715 366.67C433.975 366.67 433.365 366.07 433.365 365.32C433.365 364.57 433.965 363.97 434.715 363.97C435.465 363.97 436.065 364.57 436.065 365.32C436.065 366.07 435.465 366.67 434.715 366.67Z" fill="#71869D"/>
<path d="M404.385 366.67C403.645 366.67 403.035 366.07 403.035 365.32C403.035 364.57 403.635 363.97 404.385 363.97C405.135 363.97 405.735 364.57 405.735 365.32C405.735 366.07 405.135 366.67 404.385 366.67Z" fill="#71869D"/>
<path d="M556.035 397C555.295 397 554.685 396.4 554.685 395.65C554.685 394.9 555.285 394.3 556.035 394.3C556.785 394.3 557.385 394.9 557.385 395.65C557.385 396.4 556.785 397 556.035 397Z" fill="#71869D"/>
<path d="M525.705 397C524.955 397 524.355 396.4 524.355 395.65C524.355 394.9 524.955 394.3 525.705 394.3C526.455 394.3 527.055 394.9 527.055 395.65C527.055 396.4 526.455 397 525.705 397Z" fill="#71869D"/>
<path d="M495.375 397C494.635 397 494.025 396.4 494.025 395.65C494.025 394.9 494.625 394.3 495.375 394.3C496.125 394.3 496.725 394.9 496.725 395.65C496.725 396.4 496.125 397 495.375 397Z" fill="#71869D"/>
<path d="M465.045 397C464.305 397 463.695 396.4 463.695 395.65C463.695 394.9 464.295 394.3 465.045 394.3C465.795 394.3 466.395 394.9 466.395 395.65C466.395 396.4 465.795 397 465.045 397Z" fill="#71869D"/>
<path d="M434.715 397C433.975 397 433.365 396.4 433.365 395.65C433.365 394.9 433.965 394.3 434.715 394.3C435.465 394.3 436.065 394.9 436.065 395.65C436.065 396.4 435.465 397 434.715 397Z" fill="#71869D"/>
<path d="M404.385 397C403.645 397 403.035 396.4 403.035 395.65C403.035 394.9 403.635 394.3 404.385 394.3C405.135 394.3 405.735 394.9 405.735 395.65C405.735 396.4 405.135 397 404.385 397Z" fill="#71869D"/>
<path d="M374.055 336.34C373.315 336.34 372.705 335.74 372.705 334.99C372.705 334.24 373.305 333.64 374.055 333.64C374.805 333.64 375.405 334.24 375.405 334.99C375.405 335.74 374.805 336.34 374.055 336.34Z" fill="#71869D"/>
<path d="M343.725 336.34C342.985 336.34 342.375 335.74 342.375 334.99C342.375 334.24 342.975 333.64 343.725 333.64C344.475 333.64 345.075 334.24 345.075 334.99C345.075 335.74 344.475 336.34 343.725 336.34Z" fill="#71869D"/>
<path d="M374.055 366.67C373.315 366.67 372.705 366.07 372.705 365.32C372.705 364.57 373.305 363.97 374.055 363.97C374.805 363.97 375.405 364.57 375.405 365.32C375.405 366.07 374.805 366.67 374.055 366.67Z" fill="#71869D"/>
<path d="M343.725 366.67C342.985 366.67 342.375 366.07 342.375 365.32C342.375 364.57 342.975 363.97 343.725 363.97C344.475 363.97 345.075 364.57 345.075 365.32C345.075 366.07 344.475 366.67 343.725 366.67Z" fill="#71869D"/>
<path d="M374.055 397C373.315 397 372.705 396.4 372.705 395.65C372.705 394.9 373.305 394.3 374.055 394.3C374.805 394.3 375.405 394.9 375.405 395.65C375.405 396.4 374.805 397 374.055 397Z" fill="#71869D"/>
<path d="M343.725 397C342.985 397 342.375 396.4 342.375 395.65C342.375 394.9 342.975 394.3 343.725 394.3C344.475 394.3 345.075 394.9 345.075 395.65C345.075 396.4 344.475 397 343.725 397Z" fill="#71869D"/>
</g>
<g filter="url(#filter0_d_158_480)">
<path d="M484.375 145.32L471.445 456.58C471.135 464.08 464.965 470 457.455 470H75.8848C68.1548 470 61.8848 463.74 61.8848 456V77.5902C61.8848 68.9202 69.6848 62.3302 78.2348 63.7902L184.755 81.9202L364.065 112.44L472.735 130.94C479.685 132.12 484.665 138.28 484.375 145.32Z" fill="url(#paint0_linear_158_480)"/>
</g>
<path d="M169.329 451.795L324.585 451.835C396.1 451.854 440.689 430.52 403.104 413.966C390.846 408.567 370.672 404.316 338.424 402.789C224.541 397.399 221.351 423.338 188.248 422.114C180.574 421.83 173.242 421.735 166.31 421.822C132.218 422.251 108.04 430.689 115.127 439.88C120.613 446.996 142.915 451.788 169.324 451.795L169.329 451.795Z" fill="#BDCDFF"/>
<g filter="url(#filter1_d_158_480)">
<path d="M325.491 421.774C310.567 409.336 301.197 391.483 299.432 372.133L298.767 364.833L279.444 361.423L236.244 364.833L235.578 372.133C233.822 391.483 224.443 409.336 209.519 421.774L208.956 422.246H326.055L325.491 421.774Z" fill="#FFFFFB"/>
<path opacity="0.8" d="M235.578 372.142C234.959 378.953 233.379 385.569 230.958 391.844H304.043C301.631 385.569 300.041 378.953 299.422 372.142L298.757 364.842L279.435 361.432L236.234 364.842L235.569 372.142H235.578Z" fill="#CCCBCA"/>
<path d="M400.997 177.827H134.003C126.506 177.827 120.429 183.905 120.429 191.402V364.842C120.429 372.339 126.506 378.417 134.003 378.417H400.997C408.494 378.417 414.572 372.339 414.572 364.842V191.402C414.572 183.905 408.494 177.827 400.997 177.827Z" fill="#00325B"/>
<path d="M403.945 187.539H131.056V337.785H403.945V187.539Z" fill="#E2E9FF"/>
<path d="M120.429 348.356V364.842C120.429 372.345 126.509 378.417 134.003 378.417H400.988C408.491 378.417 414.562 372.336 414.562 364.842V348.356H120.429Z" fill="#FFFFFB"/>
<path opacity="0.8" d="M267.505 369.481C271.429 369.481 274.611 366.299 274.611 362.375C274.611 358.45 271.429 355.269 267.505 355.269C263.58 355.269 260.398 358.45 260.398 362.375C260.398 366.299 263.58 369.481 267.505 369.481Z" fill="#CCCBCA"/>
<g filter="url(#filter2_d_158_480)">
<path d="M330.019 255.819V226.258C330.019 220.935 325.704 216.629 320.39 216.629H251.417L239.894 209.135H208.226C202.792 209.135 198.44 213.626 198.597 219.05L199.678 255.819H330.019Z" fill="#4D709D"/>
<g style="mix-blend-mode:multiply">
<path d="M212.181 224.475V284.54H324.53V224.604L212.181 224.475Z" fill="#FAD280"/>
</g>
<path d="M208.05 228.596V288.67H319.864V228.725L208.05 228.596Z" fill="white"/>
<path d="M308.867 284.54L255.298 262.657L284.452 191.291L318.246 205.097L329.631 233.715L308.867 284.54Z" fill="white"/>
<path d="M330.028 233.826L309.892 225.593L318.264 205.106" fill="#D6D6D6"/>
<path fill-rule="evenodd" clip-rule="evenodd" d="M309.505 214.459L287.715 205.551L288.397 203.884L310.187 212.792L309.505 214.459Z" fill="#D6D6D6"/>
<path fill-rule="evenodd" clip-rule="evenodd" d="M306.521 221.769L284.731 212.87L285.412 211.203L307.202 220.102L306.521 221.769Z" fill="#D6D6D6"/>
<path fill-rule="evenodd" clip-rule="evenodd" d="M320.881 237.451L281.293 221.28L281.975 219.612L321.562 235.783L320.881 237.451Z" fill="#D6D6D6"/>
<path fill-rule="evenodd" clip-rule="evenodd" d="M317.443 245.85L277.856 229.679L278.537 228.011L318.125 244.183L317.443 245.85Z" fill="#D6D6D6"/>
<path fill-rule="evenodd" clip-rule="evenodd" d="M314.015 254.26L274.427 238.088L275.109 236.42L314.696 252.592L314.015 254.26Z" fill="#D6D6D6"/>
<path fill-rule="evenodd" clip-rule="evenodd" d="M310.577 262.669L270.99 246.497L271.671 244.83L311.258 261.001L310.577 262.669Z" fill="#D6D6D6"/>
<path fill-rule="evenodd" clip-rule="evenodd" d="M307.14 271.069L267.562 254.907L268.243 253.239L307.821 269.401L307.14 271.069Z" fill="#D6D6D6"/>
<path d="M195.122 246.68L204.169 316.3C204.585 319.497 207.394 321.9 210.72 321.9H319.272C322.58 321.9 325.38 319.525 325.814 316.346L335.36 246.726C335.887 242.891 332.809 239.491 328.817 239.491H201.674C197.7 239.491 194.623 242.864 195.122 246.689V246.68Z" fill="#4B6968"/>
<path d="M194.91 248.602L203.956 318.222C204.372 321.42 207.181 323.822 210.508 323.822H319.059C322.368 323.822 325.167 321.447 325.602 318.269L335.148 248.649C335.674 244.814 332.597 241.413 328.605 241.413H201.461C197.488 241.413 194.411 244.786 194.91 248.612V248.602Z" fill="#6485EE"/>
<g style="mix-blend-mode:screen" opacity="0.4">
<path d="M328.346 298.216L335.148 248.649C335.674 244.814 332.597 241.413 328.605 241.413H235.246L328.356 298.225L328.346 298.216Z" fill="#F0E3A1"/>
</g>
<g style="mix-blend-mode:screen" opacity="0.4">
<path d="M221.8 241.403L327.081 307.373L326.424 311.8L217.152 241.403H221.8Z" fill="#FDD367"/>
</g>
</g>
<g style="mix-blend-mode:screen" opacity="0.4">
<path d="M388.085 183.729C385.889 180.288 382.054 178 377.662 178H134.62C127.789 178 122.263 183.535 122.263 190.357V334.86L388.085 183.729Z" fill="#00325B"/>
</g>
<path d="M253.344 292.078L253.344 292.078C252.529 294.022 250.086 294.983 247.918 294.3L247.917 294.3C245.73 293.605 244.548 291.478 245.372 289.511L253.344 292.078ZM253.344 292.078L259.628 277.058C260.453 275.091 259.271 272.964 257.083 272.269L257.083 272.269L257.083 272.269C254.915 271.586 252.471 272.546 251.656 274.491L251.656 274.491L245.372 289.511L253.344 292.078Z" fill="url(#paint1_linear_158_480)" stroke="white" stroke-width="0.5"/>
<path d="M266.496 292.028L266.496 292.028C265.685 294.01 263.258 295 261.083 294.29C258.899 293.585 257.736 291.409 258.553 289.41H258.553L258.553 289.409L265.968 271.246L265.968 271.246C266.778 269.264 269.206 268.273 271.38 268.984C273.564 269.688 274.727 271.864 273.91 273.864L266.496 292.028ZM266.496 292.028L273.91 273.864L266.496 292.028Z" fill="url(#paint2_linear_158_480)" stroke="white" stroke-width="0.5"/>
<path d="M288.211 271.612L288.211 271.611C288.967 269.645 287.884 267.484 285.823 266.781C283.768 266.081 281.484 267.072 280.722 269.03L280.722 269.031L272.814 289.464H272.814L272.814 289.465C272.057 291.431 273.141 293.592 275.202 294.295C277.257 294.995 279.54 294.004 280.303 292.046L280.303 292.045L288.211 271.612Z" fill="url(#paint3_linear_158_480)" stroke="white" stroke-width="0.5"/>
</g>
<g filter="url(#filter3_d_158_480)">
<path d="M401.214 162.913L370.283 186.618L338.694 145.416L358.211 130.456L378.717 133.564L401.214 162.913Z" fill="white"/>
<path d="M378.915 133.373L367.288 142.28L358.218 130.449" fill="#D8D8D8"/>
<path fill-rule="evenodd" clip-rule="evenodd" d="M361.007 139.151L348.427 148.793L347.03 146.97L359.611 137.329L361.007 139.151Z" fill="#D6D6D6"/>
<path fill-rule="evenodd" clip-rule="evenodd" d="M364.249 143.375L351.669 153.017L350.272 151.195L362.853 141.553L364.249 143.375Z" fill="#D6D6D6"/>
<path fill-rule="evenodd" clip-rule="evenodd" d="M378.242 140.352L355.384 157.869L353.988 156.047L376.846 138.529L378.242 140.352Z" fill="#D6D6D6"/>
<path fill-rule="evenodd" clip-rule="evenodd" d="M381.965 145.204L359.107 162.729L357.71 160.907L380.568 143.382L381.965 145.204Z" fill="#D6D6D6"/>
<path fill-rule="evenodd" clip-rule="evenodd" d="M385.687 150.064L362.83 167.582L361.433 165.76L384.291 148.242L385.687 150.064Z" fill="#D6D6D6"/>
<path fill-rule="evenodd" clip-rule="evenodd" d="M389.403 154.917L366.545 172.435L365.148 170.612L388.006 153.095L389.403 154.917Z" fill="#D6D6D6"/>
<path fill-rule="evenodd" clip-rule="evenodd" d="M393.125 159.77L370.268 177.287L368.871 175.465L391.729 157.947L393.125 159.77Z" fill="#D6D6D6"/>
</g>
<g filter="url(#filter4_d_158_480)">
<path d="M256.481 149.125L230.311 186.767L180.152 151.901L196.667 128.146L220.768 124.29L256.481 149.125Z" fill="white"/>
<path d="M220.916 124L211.077 138.148L196.674 128.132" fill="#D8D8D8"/>
<path fill-rule="evenodd" clip-rule="evenodd" d="M202.72 136.747L192.075 152.061L190.253 150.794L200.898 135.48L202.72 136.747Z" fill="#D6D6D6"/>
<path fill-rule="evenodd" clip-rule="evenodd" d="M207.862 140.321L197.217 155.635L195.395 154.369L206.04 139.055L207.862 140.321Z" fill="#D6D6D6"/>
<path fill-rule="evenodd" clip-rule="evenodd" d="M222.463 131.923L203.122 159.747L201.3 158.48L220.64 130.657L222.463 131.923Z" fill="#D6D6D6"/>
<path fill-rule="evenodd" clip-rule="evenodd" d="M228.375 136.034L209.027 163.857L207.206 162.591L226.553 134.767L228.375 136.034Z" fill="#D6D6D6"/>
<path fill-rule="evenodd" clip-rule="evenodd" d="M234.28 140.145L214.94 167.962L213.118 166.695L232.458 138.878L234.28 140.145Z" fill="#D6D6D6"/>
<path fill-rule="evenodd" clip-rule="evenodd" d="M240.192 144.249L220.845 172.073L219.023 170.806L238.37 142.982L240.192 144.249Z" fill="#D6D6D6"/>
<path fill-rule="evenodd" clip-rule="evenodd" d="M246.097 148.36L226.757 176.176L224.935 174.91L244.275 147.093L246.097 148.36Z" fill="#D6D6D6"/>
</g>
<g filter="url(#filter5_d_158_480)">
<path d="M449.982 284.153L412.022 298.683L392.667 248.114L416.613 238.953L436.193 248.142L449.982 284.153Z" fill="white"/>
<path d="M436.448 248.008L422.186 253.469L416.627 238.946" fill="#D8D8D8"/>
<path fill-rule="evenodd" clip-rule="evenodd" d="M416.882 248.588L401.441 254.5L400.494 252.027L415.935 246.115L416.882 248.588Z" fill="#D6D6D6"/>
<path fill-rule="evenodd" clip-rule="evenodd" d="M418.867 253.772L403.426 259.684L402.479 257.212L417.92 251.3L418.867 253.772Z" fill="#D6D6D6"/>
<path fill-rule="evenodd" clip-rule="evenodd" d="M433.757 254.903L405.707 265.639L404.761 263.167L432.81 252.43L433.757 254.903Z" fill="#D6D6D6"/>
<path fill-rule="evenodd" clip-rule="evenodd" d="M436.031 260.857L407.989 271.594L407.042 269.121L435.085 258.385L436.031 260.857Z" fill="#D6D6D6"/>
<path fill-rule="evenodd" clip-rule="evenodd" d="M438.312 266.819L410.263 277.555L409.316 275.083L437.366 264.346L438.312 266.819Z" fill="#D6D6D6"/>
<path fill-rule="evenodd" clip-rule="evenodd" d="M440.594 272.774L412.545 283.51L411.598 281.038L439.648 270.301L440.594 272.774Z" fill="#D6D6D6"/>
<path fill-rule="evenodd" clip-rule="evenodd" d="M442.875 278.728L414.826 289.465L413.879 286.993L441.929 276.256L442.875 278.728Z" fill="#D6D6D6"/>
</g>
<g filter="url(#filter6_d_158_480)">
<path d="M332.923 410.585L298.382 389.542L326.418 343.523L348.202 356.803L352.885 377.81L332.923 410.585Z" fill="white"/>
<path d="M353.146 377.93L340.164 370.019L348.216 356.803" fill="#D8D8D8"/>
<path fill-rule="evenodd" clip-rule="evenodd" d="M340.775 362.884L326.725 354.323L328.103 352.062L342.152 360.624L340.775 362.884Z" fill="#D6D6D6"/>
<path fill-rule="evenodd" clip-rule="evenodd" d="M337.9 367.596L323.851 359.042L325.227 356.781L339.277 365.335L337.9 367.596Z" fill="#D6D6D6"/>
<path fill-rule="evenodd" clip-rule="evenodd" d="M346.072 380.007L320.551 364.46L321.929 362.199L347.449 377.746L346.072 380.007Z" fill="#D6D6D6"/>
<path fill-rule="evenodd" clip-rule="evenodd" d="M342.773 385.432L317.246 369.878L318.623 367.617L344.151 383.171L342.773 385.432Z" fill="#D6D6D6"/>
<path fill-rule="evenodd" clip-rule="evenodd" d="M339.468 390.849L313.947 375.302L315.324 373.042L340.845 388.588L339.468 390.849Z" fill="#D6D6D6"/>
<path fill-rule="evenodd" clip-rule="evenodd" d="M336.169 396.274L310.641 380.72L312.019 378.459L337.547 394.014L336.169 396.274Z" fill="#D6D6D6"/>
<path fill-rule="evenodd" clip-rule="evenodd" d="M332.863 401.692L307.342 386.145L308.72 383.884L334.24 399.431L332.863 401.692Z" fill="#D6D6D6"/>
</g>
<g filter="url(#filter7_d_158_480)">
<path d="M51.0167 330.814L4.38513 265.5C4.38513 265.5 20.885 263.676 32.885 257C44.885 250.324 85.3532 213.174 85.3532 213.174L113.189 250.324L106.896 288.95L51.0167 330.814Z" fill="white"/>
<path d="M107.243 289.342L90.6722 267.219L113.191 250.348" fill="#D8D8D8"/>
<path fill-rule="evenodd" clip-rule="evenodd" d="M97.325 254.969L79.3863 231.017L81.6496 229.322L99.5883 253.274L97.325 254.969Z" fill="#D6D6D6"/>
<path fill-rule="evenodd" clip-rule="evenodd" d="M89.281 260.986L71.3424 237.034L73.6057 235.339L91.5443 259.291L89.281 260.986Z" fill="#D6D6D6"/>
<path fill-rule="evenodd" clip-rule="evenodd" d="M94.6827 287.473L62.0895 243.978L64.3524 242.282L96.9455 285.777L94.6827 287.473Z" fill="#D6D6D6"/>
<path fill-rule="evenodd" clip-rule="evenodd" d="M85.4503 294.39L52.8571 250.895L55.1199 249.199L87.7131 292.694L85.4503 294.39Z" fill="#D6D6D6"/>
<path fill-rule="evenodd" clip-rule="evenodd" d="M76.2183 301.309L43.6252 257.813L45.888 256.118L78.4812 299.613L76.2183 301.309Z" fill="#D6D6D6"/>
<path fill-rule="evenodd" clip-rule="evenodd" d="M66.9613 308.228L34.3917 264.731L36.6552 263.036L69.2248 306.534L66.9613 308.228Z" fill="#D6D6D6"/>
<path fill-rule="evenodd" clip-rule="evenodd" d="M57.73 315.147L25.1369 271.652L27.3997 269.956L59.9928 313.451L57.73 315.147Z" fill="#D6D6D6"/>
</g>
<g filter="url(#filter8_d_158_480)">
<path d="M221.509 340.217L210.116 321.343L235.262 306.164L242.446 318.073L239.416 329.403L221.509 340.217Z" fill="white"/>
<path d="M239.514 329.53L235.234 322.438L242.453 318.073" fill="#D8D8D8"/>
<path fill-rule="evenodd" clip-rule="evenodd" d="M237.168 319.231L232.534 311.552L234.077 310.622L238.71 318.3L237.168 319.231Z" fill="#D6D6D6"/>
<path fill-rule="evenodd" clip-rule="evenodd" d="M234.59 320.784L229.956 313.106L231.498 312.175L236.132 319.853L234.59 320.784Z" fill="#D6D6D6"/>
<path fill-rule="evenodd" clip-rule="evenodd" d="M235.416 328.844L226.997 314.893L228.539 313.962L236.959 327.913L235.416 328.844Z" fill="#D6D6D6"/>
<path fill-rule="evenodd" clip-rule="evenodd" d="M232.457 330.631L224.037 316.688L225.579 315.756L233.999 329.7L232.457 330.631Z" fill="#D6D6D6"/>
<path fill-rule="evenodd" clip-rule="evenodd" d="M229.49 332.418L221.077 318.475L222.62 317.544L231.032 331.488L229.49 332.418Z" fill="#D6D6D6"/>
<path fill-rule="evenodd" clip-rule="evenodd" d="M226.531 334.205L218.111 320.262L219.653 319.331L228.073 333.274L226.531 334.205Z" fill="#D6D6D6"/>
<path fill-rule="evenodd" clip-rule="evenodd" d="M223.571 335.992L215.151 322.049L216.693 321.118L225.113 335.061L223.571 335.992Z" fill="#D6D6D6"/>
</g>
<defs>
<filter id="filter0_d_158_480" x="53.8848" y="63.5869" width="430.502" height="414.413" filterUnits="userSpaceOnUse" color-interpolation-filters="sRGB">
<feFlood flood-opacity="0" result="BackgroundImageFix"/>
<feColorMatrix in="SourceAlpha" type="matrix" values="0 0 0 0 0 0 0 0 0 0 0 0 0 0 0 0 0 0 127 0" result="hardAlpha"/>
<feOffset dx="-4" dy="4"/>
<feGaussianBlur stdDeviation="2"/>
<feComposite in2="hardAlpha" operator="out"/>
<feColorMatrix type="matrix" values="0 0 0 0 0 0 0 0 0 0 0 0 0 0 0 0 0 0 0.16 0"/>
<feBlend mode="normal" in2="BackgroundImageFix" result="effect1_dropShadow_158_480"/>
<feBlend mode="normal" in="SourceGraphic" in2="effect1_dropShadow_158_480" result="shape"/>
</filter>
<filter id="filter1_d_158_480" x="112.429" y="177.827" width="302.143" height="252.418" filterUnits="userSpaceOnUse" color-interpolation-filters="sRGB">
<feFlood flood-opacity="0" result="BackgroundImageFix"/>
<feColorMatrix in="SourceAlpha" type="matrix" values="0 0 0 0 0 0 0 0 0 0 0 0 0 0 0 0 0 0 127 0" result="hardAlpha"/>
<feOffset dx="-4" dy="4"/>
<feGaussianBlur stdDeviation="2"/>
<feComposite in2="hardAlpha" operator="out"/>
<feColorMatrix type="matrix" values="0 0 0 0 0 0 0 0 0 0 0 0 0 0 0 0 0 0 0.25 0"/>
<feBlend mode="normal" in2="BackgroundImageFix" result="effect1_dropShadow_158_480"/>
<feBlend mode="normal" in="SourceGraphic" in2="effect1_dropShadow_158_480" result="shape"/>
</filter>
<filter id="filter2_d_158_480" x="186.856" y="191.291" width="148.562" height="140.531" filterUnits="userSpaceOnUse" color-interpolation-filters="sRGB">
<feFlood flood-opacity="0" result="BackgroundImageFix"/>
<feColorMatrix in="SourceAlpha" type="matrix" values="0 0 0 0 0 0 0 0 0 0 0 0 0 0 0 0 0 0 127 0" result="hardAlpha"/>
<feOffset dx="-4" dy="4"/>
<feGaussianBlur stdDeviation="2"/>
<feComposite in2="hardAlpha" operator="out"/>
<feColorMatrix type="matrix" values="0 0 0 0 0 0 0 0 0 0 0 0 0 0 0 0 0 0 0.25 0"/>
<feBlend mode="normal" in2="BackgroundImageFix" result="effect1_dropShadow_158_480"/>
<feBlend mode="normal" in="SourceGraphic" in2="effect1_dropShadow_158_480" result="shape"/>
</filter>
<filter id="filter3_d_158_480" x="334.694" y="130.449" width="70.52" height="64.1694" filterUnits="userSpaceOnUse" color-interpolation-filters="sRGB">
<feFlood flood-opacity="0" result="BackgroundImageFix"/>
<feColorMatrix in="SourceAlpha" type="matrix" values="0 0 0 0 0 0 0 0 0 0 0 0 0 0 0 0 0 0 127 0" result="hardAlpha"/>
<feOffset dy="4"/>
<feGaussianBlur stdDeviation="2"/>
<feComposite in2="hardAlpha" operator="out"/>
<feColorMatrix type="matrix" values="0 0 0 0 0 0 0 0 0 0 0 0 0 0 0 0 0 0 0.25 0"/>
<feBlend mode="normal" in2="BackgroundImageFix" result="effect1_dropShadow_158_480"/>
<feBlend mode="normal" in="SourceGraphic" in2="effect1_dropShadow_158_480" result="shape"/>
</filter>
<filter id="filter4_d_158_480" x="176.152" y="124" width="84.3296" height="70.7671" filterUnits="userSpaceOnUse" color-interpolation-filters="sRGB">
<feFlood flood-opacity="0" result="BackgroundImageFix"/>
<feColorMatrix in="SourceAlpha" type="matrix" values="0 0 0 0 0 0 0 0 0 0 0 0 0 0 0 0 0 0 127 0" result="hardAlpha"/>
<feOffset dy="4"/>
<feGaussianBlur stdDeviation="2"/>
<feComposite in2="hardAlpha" operator="out"/>
<feColorMatrix type="matrix" values="0 0 0 0 0 0 0 0 0 0 0 0 0 0 0 0 0 0 0.25 0"/>
<feBlend mode="normal" in2="BackgroundImageFix" result="effect1_dropShadow_158_480"/>
<feBlend mode="normal" in="SourceGraphic" in2="effect1_dropShadow_158_480" result="shape"/>
</filter>
<filter id="filter5_d_158_480" x="388.667" y="238.946" width="65.314" height="67.7368" filterUnits="userSpaceOnUse" color-interpolation-filters="sRGB">
<feFlood flood-opacity="0" result="BackgroundImageFix"/>
<feColorMatrix in="SourceAlpha" type="matrix" values="0 0 0 0 0 0 0 0 0 0 0 0 0 0 0 0 0 0 127 0" result="hardAlpha"/>
<feOffset dy="4"/>
<feGaussianBlur stdDeviation="2"/>
<feComposite in2="hardAlpha" operator="out"/>
<feColorMatrix type="matrix" values="0 0 0 0 0 0 0 0 0 0 0 0 0 0 0 0 0 0 0.25 0"/>
<feBlend mode="normal" in2="BackgroundImageFix" result="effect1_dropShadow_158_480"/>
<feBlend mode="normal" in="SourceGraphic" in2="effect1_dropShadow_158_480" result="shape"/>
</filter>
<filter id="filter6_d_158_480" x="294.382" y="343.523" width="62.7642" height="75.062" filterUnits="userSpaceOnUse" color-interpolation-filters="sRGB">
<feFlood flood-opacity="0" result="BackgroundImageFix"/>
<feColorMatrix in="SourceAlpha" type="matrix" values="0 0 0 0 0 0 0 0 0 0 0 0 0 0 0 0 0 0 127 0" result="hardAlpha"/>
<feOffset dy="4"/>
<feGaussianBlur stdDeviation="2"/>
<feComposite in2="hardAlpha" operator="out"/>
<feColorMatrix type="matrix" values="0 0 0 0 0 0 0 0 0 0 0 0 0 0 0 0 0 0 0.25 0"/>
<feBlend mode="normal" in2="BackgroundImageFix" result="effect1_dropShadow_158_480"/>
<feBlend mode="normal" in="SourceGraphic" in2="effect1_dropShadow_158_480" result="shape"/>
</filter>
<filter id="filter7_d_158_480" x="0.385254" y="213.174" width="116.806" height="125.639" filterUnits="userSpaceOnUse" color-interpolation-filters="sRGB">
<feFlood flood-opacity="0" result="BackgroundImageFix"/>
<feColorMatrix in="SourceAlpha" type="matrix" values="0 0 0 0 0 0 0 0 0 0 0 0 0 0 0 0 0 0 127 0" result="hardAlpha"/>
<feOffset dy="4"/>
<feGaussianBlur stdDeviation="2"/>
<feComposite in2="hardAlpha" operator="out"/>
<feColorMatrix type="matrix" values="0 0 0 0 0 0 0 0 0 0 0 0 0 0 0 0 0 0 0.25 0"/>
<feBlend mode="normal" in2="BackgroundImageFix" result="effect1_dropShadow_158_480"/>
<feBlend mode="normal" in="SourceGraphic" in2="effect1_dropShadow_158_480" result="shape"/>
</filter>
<filter id="filter8_d_158_480" x="206.116" y="306.164" width="40.3374" height="42.0537" filterUnits="userSpaceOnUse" color-interpolation-filters="sRGB">
<feFlood flood-opacity="0" result="BackgroundImageFix"/>
<feColorMatrix in="SourceAlpha" type="matrix" values="0 0 0 0 0 0 0 0 0 0 0 0 0 0 0 0 0 0 127 0" result="hardAlpha"/>
<feOffset dy="4"/>
<feGaussianBlur stdDeviation="2"/>
<feComposite in2="hardAlpha" operator="out"/>
<feColorMatrix type="matrix" values="0 0 0 0 0 0 0 0 0 0 0 0 0 0 0 0 0 0 0.25 0"/>
<feBlend mode="normal" in2="BackgroundImageFix" result="effect1_dropShadow_158_480"/>
<feBlend mode="normal" in="SourceGraphic" in2="effect1_dropShadow_158_480" result="shape"/>
</filter>
<linearGradient id="paint0_linear_158_480" x1="484.885" y1="470" x2="61.8848" y2="59.0003" gradientUnits="userSpaceOnUse">
<stop offset="0.270833" stop-color="#D9E2FF"/>
<stop offset="1" stop-color="#F9FAFF"/>
</linearGradient>
<linearGradient id="paint1_linear_158_480" x1="246.442" y1="268.979" x2="250.483" y2="278.64" gradientUnits="userSpaceOnUse">
<stop stop-color="#7093FF"/>
<stop offset="1" stop-color="#243F6D"/>
</linearGradient>
<linearGradient id="paint2_linear_158_480" x1="258.794" y1="265.615" x2="263.652" y2="276.49" gradientUnits="userSpaceOnUse">
<stop stop-color="#7093FF"/>
<stop offset="1" stop-color="#243F6D"/>
</linearGradient>
<linearGradient id="paint3_linear_158_480" x1="273.021" y1="263.138" x2="278.587" y2="274.621" gradientUnits="userSpaceOnUse">
<stop stop-color="#7093FF"/>
<stop offset="1" stop-color="#243F6D"/>
</linearGradient>
</defs>
</svg>
