<svg width="504" height="470" viewBox="0 0 504 470" fill="none" xmlns="http://www.w3.org/2000/svg">
<g clip-path="url(#clip0_116_3487)">
<mask id="mask0_116_3487" style="mask-type:luminance" maskUnits="userSpaceOnUse" x="0" y="0" width="216" height="397">
<path d="M215.01 0H0V397H215.01V0Z" fill="white"/>
</mask>
<g mask="url(#mask0_116_3487)">
<path d="M1.35 2.7C2.09 2.7 2.7 2.1 2.7 1.35C2.7 0.6 2.09 0 1.35 0C0.61 0 0 0.6 0 1.35C0 2.1 0.6 2.7 1.35 2.7Z" fill="#71869D"/>
<path d="M31.6801 2.7C32.4201 2.7 33.0301 2.1 33.0301 1.35C33.0301 0.6 32.4301 0 31.6801 0C30.9301 0 30.3301 0.6 30.3301 1.35C30.3301 2.1 30.9301 2.7 31.6801 2.7Z" fill="#71869D"/>
<path d="M62.0102 2.7C62.7502 2.7 63.3602 2.1 63.3602 1.35C63.3602 0.6 62.7602 0 62.0102 0C61.2602 0 60.6602 0.6 60.6602 1.35C60.6602 2.1 61.2602 2.7 62.0102 2.7Z" fill="#71869D"/>
<path d="M92.3402 2.7C93.0802 2.7 93.6902 2.1 93.6902 1.35C93.6902 0.6 93.0902 0 92.3402 0C91.5902 0 90.9902 0.6 90.9902 1.35C90.9902 2.1 91.5902 2.7 92.3402 2.7Z" fill="#71869D"/>
<path d="M122.67 2.7C123.42 2.7 124.02 2.1 124.02 1.35C124.02 0.6 123.42 0 122.67 0C121.92 0 121.32 0.6 121.32 1.35C121.32 2.1 121.92 2.7 122.67 2.7Z" fill="#71869D"/>
<path d="M153 2.7C153.74 2.7 154.35 2.1 154.35 1.35C154.35 0.6 153.75 0 153 0C152.25 0 151.65 0.6 151.65 1.35C151.65 2.1 152.25 2.7 153 2.7Z" fill="#71869D"/>
<path d="M1.35 33.03C2.09 33.03 2.7 32.43 2.7 31.68C2.7 30.93 2.1 30.33 1.35 30.33C0.6 30.33 0 30.93 0 31.68C0 32.43 0.6 33.03 1.35 33.03Z" fill="#71869D"/>
<path d="M31.6801 33.03C32.4201 33.03 33.0301 32.43 33.0301 31.68C33.0301 30.93 32.4301 30.33 31.6801 30.33C30.9301 30.33 30.3301 30.93 30.3301 31.68C30.3301 32.43 30.9301 33.03 31.6801 33.03Z" fill="#71869D"/>
<path d="M62.0102 33.03C62.7502 33.03 63.3602 32.43 63.3602 31.68C63.3602 30.93 62.7602 30.33 62.0102 30.33C61.2602 30.33 60.6602 30.93 60.6602 31.68C60.6602 32.43 61.2602 33.03 62.0102 33.03Z" fill="#71869D"/>
<path d="M92.3402 33.03C93.0802 33.03 93.6902 32.43 93.6902 31.68C93.6902 30.93 93.0902 30.33 92.3402 30.33C91.5902 30.33 90.9902 30.93 90.9902 31.68C90.9902 32.43 91.5902 33.03 92.3402 33.03Z" fill="#71869D"/>
<path d="M122.67 33.03C123.42 33.03 124.02 32.43 124.02 31.68C124.02 30.93 123.42 30.33 122.67 30.33C121.92 30.33 121.32 30.93 121.32 31.68C121.32 32.43 121.92 33.03 122.67 33.03Z" fill="#71869D"/>
<path d="M153 33.03C153.74 33.03 154.35 32.43 154.35 31.68C154.35 30.93 153.75 30.33 153 30.33C152.25 30.33 151.65 30.93 151.65 31.68C151.65 32.43 152.25 33.03 153 33.03Z" fill="#71869D"/>
<path d="M1.35 63.36C2.09 63.36 2.7 62.76 2.7 62.01C2.7 61.26 2.1 60.66 1.35 60.66C0.6 60.66 0 61.26 0 62.01C0 62.76 0.6 63.36 1.35 63.36Z" fill="#71869D"/>
<path d="M31.6801 63.36C32.4201 63.36 33.0301 62.76 33.0301 62.01C33.0301 61.26 32.4301 60.66 31.6801 60.66C30.9301 60.66 30.3301 61.26 30.3301 62.01C30.3301 62.76 30.9301 63.36 31.6801 63.36Z" fill="#71869D"/>
<path d="M62.0102 63.36C62.7502 63.36 63.3602 62.76 63.3602 62.01C63.3602 61.26 62.7602 60.66 62.0102 60.66C61.2602 60.66 60.6602 61.26 60.6602 62.01C60.6602 62.76 61.2602 63.36 62.0102 63.36Z" fill="#71869D"/>
<path d="M92.3402 63.36C93.0802 63.36 93.6902 62.76 93.6902 62.01C93.6902 61.26 93.0902 60.66 92.3402 60.66C91.5902 60.66 90.9902 61.26 90.9902 62.01C90.9902 62.76 91.5902 63.36 92.3402 63.36Z" fill="#71869D"/>
<path d="M122.67 63.36C123.42 63.36 124.02 62.76 124.02 62.01C124.02 61.26 123.42 60.66 122.67 60.66C121.92 60.66 121.32 61.26 121.32 62.01C121.32 62.76 121.92 63.36 122.67 63.36Z" fill="#71869D"/>
<path d="M153 63.36C153.74 63.36 154.35 62.76 154.35 62.01C154.35 61.26 153.75 60.66 153 60.66C152.25 60.66 151.65 61.26 151.65 62.01C151.65 62.76 152.25 63.36 153 63.36Z" fill="#71869D"/>
<path d="M1.35 93.69C2.09 93.69 2.7 93.09 2.7 92.34C2.7 91.59 2.1 90.99 1.35 90.99C0.6 90.99 0 91.59 0 92.34C0 93.09 0.6 93.69 1.35 93.69Z" fill="#71869D"/>
<path d="M31.6801 93.69C32.4201 93.69 33.0301 93.09 33.0301 92.34C33.0301 91.59 32.4301 90.99 31.6801 90.99C30.9301 90.99 30.3301 91.59 30.3301 92.34C30.3301 93.09 30.9301 93.69 31.6801 93.69Z" fill="#71869D"/>
<path d="M62.0102 93.69C62.7502 93.69 63.3602 93.09 63.3602 92.34C63.3602 91.59 62.7602 90.99 62.0102 90.99C61.2602 90.99 60.6602 91.59 60.6602 92.34C60.6602 93.09 61.2602 93.69 62.0102 93.69Z" fill="#71869D"/>
<path d="M92.3402 93.69C93.0802 93.69 93.6902 93.09 93.6902 92.34C93.6902 91.59 93.0902 90.99 92.3402 90.99C91.5902 90.99 90.9902 91.59 90.9902 92.34C90.9902 93.09 91.5902 93.69 92.3402 93.69Z" fill="#71869D"/>
<path d="M122.67 93.69C123.42 93.69 124.02 93.09 124.02 92.34C124.02 91.59 123.42 90.99 122.67 90.99C121.92 90.99 121.32 91.59 121.32 92.34C121.32 93.09 121.92 93.69 122.67 93.69Z" fill="#71869D"/>
<path d="M153 93.69C153.74 93.69 154.35 93.09 154.35 92.34C154.35 91.59 153.75 90.99 153 90.99C152.25 90.99 151.65 91.59 151.65 92.34C151.65 93.09 152.25 93.69 153 93.69Z" fill="#71869D"/>
<path d="M1.35 124.02C2.09 124.02 2.7 123.42 2.7 122.67C2.7 121.92 2.1 121.32 1.35 121.32C0.6 121.32 0 121.92 0 122.67C0 123.42 0.6 124.02 1.35 124.02Z" fill="#71869D"/>
<path d="M31.6801 124.02C32.4201 124.02 33.0301 123.42 33.0301 122.67C33.0301 121.92 32.4301 121.32 31.6801 121.32C30.9301 121.32 30.3301 121.92 30.3301 122.67C30.3301 123.42 30.9301 124.02 31.6801 124.02Z" fill="#71869D"/>
<path d="M62.0102 124.02C62.7502 124.02 63.3602 123.42 63.3602 122.67C63.3602 121.92 62.7602 121.32 62.0102 121.32C61.2602 121.32 60.6602 121.92 60.6602 122.67C60.6602 123.42 61.2602 124.02 62.0102 124.02Z" fill="#71869D"/>
<path d="M92.3402 124.02C93.0802 124.02 93.6902 123.42 93.6902 122.67C93.6902 121.92 93.0902 121.32 92.3402 121.32C91.5902 121.32 90.9902 121.92 90.9902 122.67C90.9902 123.42 91.5902 124.02 92.3402 124.02Z" fill="#71869D"/>
<path d="M122.67 124.02C123.42 124.02 124.02 123.42 124.02 122.67C124.02 121.92 123.42 121.32 122.67 121.32C121.92 121.32 121.32 121.92 121.32 122.67C121.32 123.42 121.92 124.02 122.67 124.02Z" fill="#71869D"/>
<path d="M153 124.02C153.74 124.02 154.35 123.42 154.35 122.67C154.35 121.92 153.75 121.32 153 121.32C152.25 121.32 151.65 121.92 151.65 122.67C151.65 123.42 152.25 124.02 153 124.02Z" fill="#71869D"/>
<path d="M1.35 154.35C2.09 154.35 2.7 153.75 2.7 153C2.7 152.25 2.1 151.65 1.35 151.65C0.6 151.65 0 152.25 0 153C0 153.75 0.6 154.35 1.35 154.35Z" fill="#71869D"/>
<path d="M31.6801 154.35C32.4201 154.35 33.0301 153.75 33.0301 153C33.0301 152.25 32.4301 151.65 31.6801 151.65C30.9301 151.65 30.3301 152.25 30.3301 153C30.3301 153.75 30.9301 154.35 31.6801 154.35Z" fill="#71869D"/>
<path d="M62.0102 154.35C62.7502 154.35 63.3602 153.75 63.3602 153C63.3602 152.25 62.7602 151.65 62.0102 151.65C61.2602 151.65 60.6602 152.25 60.6602 153C60.6602 153.75 61.2602 154.35 62.0102 154.35Z" fill="#71869D"/>
<path d="M92.3402 154.35C93.0802 154.35 93.6902 153.75 93.6902 153C93.6902 152.25 93.0902 151.65 92.3402 151.65C91.5902 151.65 90.9902 152.25 90.9902 153C90.9902 153.75 91.5902 154.35 92.3402 154.35Z" fill="#71869D"/>
<path d="M122.67 154.35C123.42 154.35 124.02 153.75 124.02 153C124.02 152.25 123.42 151.65 122.67 151.65C121.92 151.65 121.32 152.25 121.32 153C121.32 153.75 121.92 154.35 122.67 154.35Z" fill="#71869D"/>
<path d="M153 154.35C153.74 154.35 154.35 153.75 154.35 153C154.35 152.25 153.75 151.65 153 151.65C152.25 151.65 151.65 152.25 151.65 153C151.65 153.75 152.25 154.35 153 154.35Z" fill="#71869D"/>
<path d="M1.35 184.68C2.09 184.68 2.7 184.08 2.7 183.33C2.7 182.58 2.1 181.98 1.35 181.98C0.6 181.98 0 182.58 0 183.33C0 184.08 0.6 184.68 1.35 184.68Z" fill="#71869D"/>
<path d="M31.6801 184.68C32.4201 184.68 33.0301 184.08 33.0301 183.33C33.0301 182.58 32.4301 181.98 31.6801 181.98C30.9301 181.98 30.3301 182.58 30.3301 183.33C30.3301 184.08 30.9301 184.68 31.6801 184.68Z" fill="#71869D"/>
<path d="M62.0102 184.68C62.7502 184.68 63.3602 184.08 63.3602 183.33C63.3602 182.58 62.7602 181.98 62.0102 181.98C61.2602 181.98 60.6602 182.58 60.6602 183.33C60.6602 184.08 61.2602 184.68 62.0102 184.68Z" fill="#71869D"/>
<path d="M92.3402 184.68C93.0802 184.68 93.6902 184.08 93.6902 183.33C93.6902 182.58 93.0902 181.98 92.3402 181.98C91.5902 181.98 90.9902 182.58 90.9902 183.33C90.9902 184.08 91.5902 184.68 92.3402 184.68Z" fill="#71869D"/>
<path d="M122.67 184.68C123.42 184.68 124.02 184.08 124.02 183.33C124.02 182.58 123.42 181.98 122.67 181.98C121.92 181.98 121.32 182.58 121.32 183.33C121.32 184.08 121.92 184.68 122.67 184.68Z" fill="#71869D"/>
<path d="M153 184.68C153.74 184.68 154.35 184.08 154.35 183.33C154.35 182.58 153.75 181.98 153 181.98C152.25 181.98 151.65 182.58 151.65 183.33C151.65 184.08 152.25 184.68 153 184.68Z" fill="#71869D"/>
<path d="M1.35 215.01C2.09 215.01 2.7 214.41 2.7 213.66C2.7 212.91 2.1 212.31 1.35 212.31C0.6 212.31 0 212.91 0 213.66C0 214.41 0.6 215.01 1.35 215.01Z" fill="#71869D"/>
<path d="M31.6801 215.01C32.4201 215.01 33.0301 214.41 33.0301 213.66C33.0301 212.91 32.4301 212.31 31.6801 212.31C30.9301 212.31 30.3301 212.91 30.3301 213.66C30.3301 214.41 30.9301 215.01 31.6801 215.01Z" fill="#71869D"/>
<path d="M62.0102 215.01C62.7502 215.01 63.3602 214.41 63.3602 213.66C63.3602 212.91 62.7602 212.31 62.0102 212.31C61.2602 212.31 60.6602 212.91 60.6602 213.66C60.6602 214.41 61.2602 215.01 62.0102 215.01Z" fill="#71869D"/>
<path d="M92.3402 215.01C93.0802 215.01 93.6902 214.41 93.6902 213.66C93.6902 212.91 93.0902 212.31 92.3402 212.31C91.5902 212.31 90.9902 212.91 90.9902 213.66C90.9902 214.41 91.5902 215.01 92.3402 215.01Z" fill="#71869D"/>
<path d="M122.67 215.01C123.42 215.01 124.02 214.41 124.02 213.66C124.02 212.91 123.42 212.31 122.67 212.31C121.92 212.31 121.32 212.91 121.32 213.66C121.32 214.41 121.92 215.01 122.67 215.01Z" fill="#71869D"/>
<path d="M153 215.01C153.74 215.01 154.35 214.41 154.35 213.66C154.35 212.91 153.75 212.31 153 212.31C152.25 212.31 151.65 212.91 151.65 213.66C151.65 214.41 152.25 215.01 153 215.01Z" fill="#71869D"/>
<path d="M1.35 245.35C2.09 245.35 2.7 244.75 2.7 244C2.7 243.25 2.1 242.65 1.35 242.65C0.6 242.65 0 243.25 0 244C0 244.75 0.6 245.35 1.35 245.35Z" fill="#71869D"/>
<path d="M31.6801 245.35C32.4201 245.35 33.0301 244.75 33.0301 244C33.0301 243.25 32.4301 242.65 31.6801 242.65C30.9301 242.65 30.3301 243.25 30.3301 244C30.3301 244.75 30.9301 245.35 31.6801 245.35Z" fill="#71869D"/>
<path d="M62.0102 245.35C62.7502 245.35 63.3602 244.75 63.3602 244C63.3602 243.25 62.7602 242.65 62.0102 242.65C61.2602 242.65 60.6602 243.25 60.6602 244C60.6602 244.75 61.2602 245.35 62.0102 245.35Z" fill="#71869D"/>
<path d="M92.3402 245.35C93.0802 245.35 93.6902 244.75 93.6902 244C93.6902 243.25 93.0902 242.65 92.3402 242.65C91.5902 242.65 90.9902 243.25 90.9902 244C90.9902 244.75 91.5902 245.35 92.3402 245.35Z" fill="#71869D"/>
<path d="M122.67 245.35C123.42 245.35 124.02 244.75 124.02 244C124.02 243.25 123.42 242.65 122.67 242.65C121.92 242.65 121.32 243.25 121.32 244C121.32 244.75 121.92 245.35 122.67 245.35Z" fill="#71869D"/>
<path d="M153 245.35C153.74 245.35 154.35 244.75 154.35 244C154.35 243.25 153.75 242.65 153 242.65C152.25 242.65 151.65 243.25 151.65 244C151.65 244.75 152.25 245.35 153 245.35Z" fill="#71869D"/>
<path d="M1.35 275.68C2.09 275.68 2.7 275.08 2.7 274.33C2.7 273.58 2.1 272.98 1.35 272.98C0.6 272.98 0 273.58 0 274.33C0 275.08 0.6 275.68 1.35 275.68Z" fill="#71869D"/>
<path d="M31.6801 275.68C32.4201 275.68 33.0301 275.08 33.0301 274.33C33.0301 273.58 32.4301 272.98 31.6801 272.98C30.9301 272.98 30.3301 273.58 30.3301 274.33C30.3301 275.08 30.9301 275.68 31.6801 275.68Z" fill="#71869D"/>
<path d="M62.0102 275.68C62.7502 275.68 63.3602 275.08 63.3602 274.33C63.3602 273.58 62.7602 272.98 62.0102 272.98C61.2602 272.98 60.6602 273.58 60.6602 274.33C60.6602 275.08 61.2602 275.68 62.0102 275.68Z" fill="#71869D"/>
<path d="M92.3402 275.68C93.0802 275.68 93.6902 275.08 93.6902 274.33C93.6902 273.58 93.0902 272.98 92.3402 272.98C91.5902 272.98 90.9902 273.58 90.9902 274.33C90.9902 275.08 91.5902 275.68 92.3402 275.68Z" fill="#71869D"/>
<path d="M122.67 275.68C123.42 275.68 124.02 275.08 124.02 274.33C124.02 273.58 123.42 272.98 122.67 272.98C121.92 272.98 121.32 273.58 121.32 274.33C121.32 275.08 121.92 275.68 122.67 275.68Z" fill="#71869D"/>
<path d="M153 275.68C153.74 275.68 154.35 275.08 154.35 274.33C154.35 273.58 153.75 272.98 153 272.98C152.25 272.98 151.65 273.58 151.65 274.33C151.65 275.08 152.25 275.68 153 275.68Z" fill="#71869D"/>
<path d="M1.35 306.01C2.09 306.01 2.7 305.41 2.7 304.66C2.7 303.91 2.1 303.31 1.35 303.31C0.6 303.31 0 303.91 0 304.66C0 305.41 0.6 306.01 1.35 306.01Z" fill="#71869D"/>
<path d="M31.6801 306.01C32.4201 306.01 33.0301 305.41 33.0301 304.66C33.0301 303.91 32.4301 303.31 31.6801 303.31C30.9301 303.31 30.3301 303.91 30.3301 304.66C30.3301 305.41 30.9301 306.01 31.6801 306.01Z" fill="#71869D"/>
<path d="M62.0102 306.01C62.7502 306.01 63.3602 305.41 63.3602 304.66C63.3602 303.91 62.7602 303.31 62.0102 303.31C61.2602 303.31 60.6602 303.91 60.6602 304.66C60.6602 305.41 61.2602 306.01 62.0102 306.01Z" fill="#71869D"/>
<path d="M92.3402 306.01C93.0802 306.01 93.6902 305.41 93.6902 304.66C93.6902 303.91 93.0902 303.31 92.3402 303.31C91.5902 303.31 90.9902 303.91 90.9902 304.66C90.9902 305.41 91.5902 306.01 92.3402 306.01Z" fill="#71869D"/>
<path d="M122.67 306.01C123.42 306.01 124.02 305.41 124.02 304.66C124.02 303.91 123.42 303.31 122.67 303.31C121.92 303.31 121.32 303.91 121.32 304.66C121.32 305.41 121.92 306.01 122.67 306.01Z" fill="#71869D"/>
<path d="M153 306.01C153.74 306.01 154.35 305.41 154.35 304.66C154.35 303.91 153.75 303.31 153 303.31C152.25 303.31 151.65 303.91 151.65 304.66C151.65 305.41 152.25 306.01 153 306.01Z" fill="#71869D"/>
<path d="M183.33 2.7C184.07 2.7 184.68 2.1 184.68 1.35C184.68 0.6 184.08 0 183.33 0C182.58 0 181.98 0.6 181.98 1.35C181.98 2.1 182.58 2.7 183.33 2.7Z" fill="#71869D"/>
<path d="M213.66 2.7C214.41 2.7 215.01 2.1 215.01 1.35C215.01 0.6 214.41 0 213.66 0C212.91 0 212.31 0.6 212.31 1.35C212.31 2.1 212.91 2.7 213.66 2.7Z" fill="#71869D"/>
<path d="M183.33 33.03C184.07 33.03 184.68 32.43 184.68 31.68C184.68 30.93 184.08 30.33 183.33 30.33C182.58 30.33 181.98 30.93 181.98 31.68C181.98 32.43 182.58 33.03 183.33 33.03Z" fill="#71869D"/>
<path d="M213.66 33.03C214.41 33.03 215.01 32.43 215.01 31.68C215.01 30.93 214.41 30.33 213.66 30.33C212.91 30.33 212.31 30.93 212.31 31.68C212.31 32.43 212.91 33.03 213.66 33.03Z" fill="#71869D"/>
<path d="M183.33 63.36C184.07 63.36 184.68 62.76 184.68 62.01C184.68 61.26 184.08 60.66 183.33 60.66C182.58 60.66 181.98 61.26 181.98 62.01C181.98 62.76 182.58 63.36 183.33 63.36Z" fill="#71869D"/>
<path d="M213.66 63.36C214.41 63.36 215.01 62.76 215.01 62.01C215.01 61.26 214.41 60.66 213.66 60.66C212.91 60.66 212.31 61.26 212.31 62.01C212.31 62.76 212.91 63.36 213.66 63.36Z" fill="#71869D"/>
<path d="M183.33 93.69C184.07 93.69 184.68 93.09 184.68 92.34C184.68 91.59 184.08 90.99 183.33 90.99C182.58 90.99 181.98 91.59 181.98 92.34C181.98 93.09 182.58 93.69 183.33 93.69Z" fill="#71869D"/>
<path d="M213.66 93.69C214.41 93.69 215.01 93.09 215.01 92.34C215.01 91.59 214.41 90.99 213.66 90.99C212.91 90.99 212.31 91.59 212.31 92.34C212.31 93.09 212.91 93.69 213.66 93.69Z" fill="#71869D"/>
<path d="M183.33 124.02C184.07 124.02 184.68 123.42 184.68 122.67C184.68 121.92 184.08 121.32 183.33 121.32C182.58 121.32 181.98 121.92 181.98 122.67C181.98 123.42 182.58 124.02 183.33 124.02Z" fill="#71869D"/>
<path d="M213.66 124.02C214.41 124.02 215.01 123.42 215.01 122.67C215.01 121.92 214.41 121.32 213.66 121.32C212.91 121.32 212.31 121.92 212.31 122.67C212.31 123.42 212.91 124.02 213.66 124.02Z" fill="#71869D"/>
<path d="M183.33 154.35C184.07 154.35 184.68 153.75 184.68 153C184.68 152.25 184.08 151.65 183.33 151.65C182.58 151.65 181.98 152.25 181.98 153C181.98 153.75 182.58 154.35 183.33 154.35Z" fill="#71869D"/>
<path d="M213.66 154.35C214.41 154.35 215.01 153.75 215.01 153C215.01 152.25 214.41 151.65 213.66 151.65C212.91 151.65 212.31 152.25 212.31 153C212.31 153.75 212.91 154.35 213.66 154.35Z" fill="#71869D"/>
<path d="M183.33 184.68C184.07 184.68 184.68 184.08 184.68 183.33C184.68 182.58 184.08 181.98 183.33 181.98C182.58 181.98 181.98 182.58 181.98 183.33C181.98 184.08 182.58 184.68 183.33 184.68Z" fill="#71869D"/>
<path d="M213.66 184.68C214.41 184.68 215.01 184.08 215.01 183.33C215.01 182.58 214.41 181.98 213.66 181.98C212.91 181.98 212.31 182.58 212.31 183.33C212.31 184.08 212.91 184.68 213.66 184.68Z" fill="#71869D"/>
<path d="M183.33 215.01C184.07 215.01 184.68 214.41 184.68 213.66C184.68 212.91 184.08 212.31 183.33 212.31C182.58 212.31 181.98 212.91 181.98 213.66C181.98 214.41 182.58 215.01 183.33 215.01Z" fill="#71869D"/>
<path d="M213.66 215.01C214.41 215.01 215.01 214.41 215.01 213.66C215.01 212.91 214.41 212.31 213.66 212.31C212.91 212.31 212.31 212.91 212.31 213.66C212.31 214.41 212.91 215.01 213.66 215.01Z" fill="#71869D"/>
<path d="M183.33 245.35C184.07 245.35 184.68 244.75 184.68 244C184.68 243.25 184.08 242.65 183.33 242.65C182.58 242.65 181.98 243.25 181.98 244C181.98 244.75 182.58 245.35 183.33 245.35Z" fill="#71869D"/>
<path d="M213.66 245.35C214.41 245.35 215.01 244.75 215.01 244C215.01 243.25 214.41 242.65 213.66 242.65C212.91 242.65 212.31 243.25 212.31 244C212.31 244.75 212.91 245.35 213.66 245.35Z" fill="#71869D"/>
<path d="M183.33 275.68C184.07 275.68 184.68 275.08 184.68 274.33C184.68 273.58 184.08 272.98 183.33 272.98C182.58 272.98 181.98 273.58 181.98 274.33C181.98 275.08 182.58 275.68 183.33 275.68Z" fill="#71869D"/>
<path d="M213.66 275.68C214.41 275.68 215.01 275.08 215.01 274.33C215.01 273.58 214.41 272.98 213.66 272.98C212.91 272.98 212.31 273.58 212.31 274.33C212.31 275.08 212.91 275.68 213.66 275.68Z" fill="#71869D"/>
<path d="M183.33 306.01C184.07 306.01 184.68 305.41 184.68 304.66C184.68 303.91 184.08 303.31 183.33 303.31C182.58 303.31 181.98 303.91 181.98 304.66C181.98 305.41 182.58 306.01 183.33 306.01Z" fill="#71869D"/>
<path d="M213.66 306.01C214.41 306.01 215.01 305.41 215.01 304.66C215.01 303.91 214.41 303.31 213.66 303.31C212.91 303.31 212.31 303.91 212.31 304.66C212.31 305.41 212.91 306.01 213.66 306.01Z" fill="#71869D"/>
<path d="M1.35 336.34C2.09 336.34 2.7 335.74 2.7 334.99C2.7 334.24 2.1 333.64 1.35 333.64C0.6 333.64 0 334.24 0 334.99C0 335.74 0.6 336.34 1.35 336.34Z" fill="#71869D"/>
<path d="M31.6801 336.34C32.4201 336.34 33.0301 335.74 33.0301 334.99C33.0301 334.24 32.4301 333.64 31.6801 333.64C30.9301 333.64 30.3301 334.24 30.3301 334.99C30.3301 335.74 30.9301 336.34 31.6801 336.34Z" fill="#71869D"/>
<path d="M62.0102 336.34C62.7502 336.34 63.3602 335.74 63.3602 334.99C63.3602 334.24 62.7602 333.64 62.0102 333.64C61.2602 333.64 60.6602 334.24 60.6602 334.99C60.6602 335.74 61.2602 336.34 62.0102 336.34Z" fill="#71869D"/>
<path d="M92.3402 336.34C93.0802 336.34 93.6902 335.74 93.6902 334.99C93.6902 334.24 93.0902 333.64 92.3402 333.64C91.5902 333.64 90.9902 334.24 90.9902 334.99C90.9902 335.74 91.5902 336.34 92.3402 336.34Z" fill="#71869D"/>
<path d="M122.67 336.34C123.42 336.34 124.02 335.74 124.02 334.99C124.02 334.24 123.42 333.64 122.67 333.64C121.92 333.64 121.32 334.24 121.32 334.99C121.32 335.74 121.92 336.34 122.67 336.34Z" fill="#71869D"/>
<path d="M153 336.34C153.74 336.34 154.35 335.74 154.35 334.99C154.35 334.24 153.75 333.64 153 333.64C152.25 333.64 151.65 334.24 151.65 334.99C151.65 335.74 152.25 336.34 153 336.34Z" fill="#71869D"/>
<path d="M1.35 366.67C2.09 366.67 2.7 366.07 2.7 365.32C2.7 364.57 2.1 363.97 1.35 363.97C0.6 363.97 0 364.57 0 365.32C0 366.07 0.6 366.67 1.35 366.67Z" fill="#71869D"/>
<path d="M31.6801 366.67C32.4201 366.67 33.0301 366.07 33.0301 365.32C33.0301 364.57 32.4301 363.97 31.6801 363.97C30.9301 363.97 30.3301 364.57 30.3301 365.32C30.3301 366.07 30.9301 366.67 31.6801 366.67Z" fill="#71869D"/>
<path d="M62.0102 366.67C62.7502 366.67 63.3602 366.07 63.3602 365.32C63.3602 364.57 62.7602 363.97 62.0102 363.97C61.2602 363.97 60.6602 364.57 60.6602 365.32C60.6602 366.07 61.2602 366.67 62.0102 366.67Z" fill="#71869D"/>
<path d="M92.3402 366.67C93.0802 366.67 93.6902 366.07 93.6902 365.32C93.6902 364.57 93.0902 363.97 92.3402 363.97C91.5902 363.97 90.9902 364.57 90.9902 365.32C90.9902 366.07 91.5902 366.67 92.3402 366.67Z" fill="#71869D"/>
<path d="M122.67 366.67C123.42 366.67 124.02 366.07 124.02 365.32C124.02 364.57 123.42 363.97 122.67 363.97C121.92 363.97 121.32 364.57 121.32 365.32C121.32 366.07 121.92 366.67 122.67 366.67Z" fill="#71869D"/>
<path d="M153 366.67C153.74 366.67 154.35 366.07 154.35 365.32C154.35 364.57 153.75 363.97 153 363.97C152.25 363.97 151.65 364.57 151.65 365.32C151.65 366.07 152.25 366.67 153 366.67Z" fill="#71869D"/>
<path d="M1.35 397C2.09 397 2.7 396.4 2.7 395.65C2.7 394.9 2.1 394.3 1.35 394.3C0.6 394.3 0 394.9 0 395.65C0 396.4 0.6 397 1.35 397Z" fill="#71869D"/>
<path d="M31.6801 397C32.4201 397 33.0301 396.4 33.0301 395.65C33.0301 394.9 32.4301 394.3 31.6801 394.3C30.9301 394.3 30.3301 394.9 30.3301 395.65C30.3301 396.4 30.9301 397 31.6801 397Z" fill="#71869D"/>
<path d="M62.0102 397C62.7502 397 63.3602 396.4 63.3602 395.65C63.3602 394.9 62.7602 394.3 62.0102 394.3C61.2602 394.3 60.6602 394.9 60.6602 395.65C60.6602 396.4 61.2602 397 62.0102 397Z" fill="#71869D"/>
<path d="M92.3402 397C93.0802 397 93.6902 396.4 93.6902 395.65C93.6902 394.9 93.0902 394.3 92.3402 394.3C91.5902 394.3 90.9902 394.9 90.9902 395.65C90.9902 396.4 91.5902 397 92.3402 397Z" fill="#71869D"/>
<path d="M122.67 397C123.42 397 124.02 396.4 124.02 395.65C124.02 394.9 123.42 394.3 122.67 394.3C121.92 394.3 121.32 394.9 121.32 395.65C121.32 396.4 121.92 397 122.67 397Z" fill="#71869D"/>
<path d="M153 397C153.74 397 154.35 396.4 154.35 395.65C154.35 394.9 153.75 394.3 153 394.3C152.25 394.3 151.65 394.9 151.65 395.65C151.65 396.4 152.25 397 153 397Z" fill="#71869D"/>
<path d="M183.33 336.34C184.07 336.34 184.68 335.74 184.68 334.99C184.68 334.24 184.08 333.64 183.33 333.64C182.58 333.64 181.98 334.24 181.98 334.99C181.98 335.74 182.58 336.34 183.33 336.34Z" fill="#71869D"/>
<path d="M213.66 336.34C214.41 336.34 215.01 335.74 215.01 334.99C215.01 334.24 214.41 333.64 213.66 333.64C212.91 333.64 212.31 334.24 212.31 334.99C212.31 335.74 212.91 336.34 213.66 336.34Z" fill="#71869D"/>
<path d="M183.33 366.67C184.07 366.67 184.68 366.07 184.68 365.32C184.68 364.57 184.08 363.97 183.33 363.97C182.58 363.97 181.98 364.57 181.98 365.32C181.98 366.07 182.58 366.67 183.33 366.67Z" fill="#71869D"/>
<path d="M213.66 366.67C214.41 366.67 215.01 366.07 215.01 365.32C215.01 364.57 214.41 363.97 213.66 363.97C212.91 363.97 212.31 364.57 212.31 365.32C212.31 366.07 212.91 366.67 213.66 366.67Z" fill="#71869D"/>
<path d="M183.33 397C184.07 397 184.68 396.4 184.68 395.65C184.68 394.9 184.08 394.3 183.33 394.3C182.58 394.3 181.98 394.9 181.98 395.65C181.98 396.4 182.58 397 183.33 397Z" fill="#71869D"/>
<path d="M213.66 397C214.41 397 215.01 396.4 215.01 395.65C215.01 394.9 214.41 394.3 213.66 394.3C212.91 394.3 212.31 394.9 212.31 395.65C212.31 396.4 212.91 397 213.66 397Z" fill="#71869D"/>
</g>
<path d="M73.5101 145.31C73.2201 138.27 78.2001 132.11 85.1501 130.93L479.65 63.78C488.2 62.33 496 68.91 496 77.58V456C496 463.73 489.73 470 482 470H100.43C92.9201 470 86.7501 464.08 86.4401 456.58L73.5101 145.31Z" fill="url(#paint0_linear_116_3487)"/>
<path d="M285.5 443C366.41 443 432 377.41 432 296.5C432 215.59 366.41 150 285.5 150C204.59 150 139 215.59 139 296.5C139 377.41 204.59 443 285.5 443Z" fill="#7093FF" fill-opacity="0.3"/>
<path d="M123.5 225L91.5 244L173.48 292.52L211.5 264L252 289.5" stroke="#7093FF"/>
<path d="M378 402L316.73 367.5L350.09 339.75L302.09 314.25" stroke="#7093FF"/>
<path d="M461.5 223L481 233.5L415 268.5L367.5 242.5L313.23 278.68" stroke="#7093FF"/>
<path d="M216.5 409.5L243 425L293 384.5L214.42 338.77L256.1 308.26" stroke="#7093FF"/>
<mask id="mask1_116_3487" style="mask-type:luminance" maskUnits="userSpaceOnUse" x="85" y="133" width="148" height="134">
<path d="M233 133H85V267H233V133Z" fill="white"/>
</mask>
<g mask="url(#mask1_116_3487)">
<g opacity="0.1">
<path d="M203.11 219.31L159.6 194.24C153.06 190.49 142.51 190.49 136.03 194.24L92.7898 219.31C86.3098 223.06 86.3298 229.18 92.8698 232.93L136.39 258C142.93 261.75 153.48 261.75 159.96 258L203.2 232.93C209.68 229.15 209.66 223.06 203.12 219.31H203.11Z" fill="#4E658D"/>
</g>
<path d="M205.94 207.99C212.8 211.93 212.83 218.35 206.03 222.29L160.63 248.61C153.82 252.55 142.75 252.55 135.88 248.61L90.17 222.29C83.31 218.35 83.28 211.93 90.08 207.99L135.48 181.67C142.29 177.73 153.36 177.73 160.23 181.67L205.94 207.99Z" fill="url(#paint1_linear_116_3487)"/>
<path d="M138.91 225.46L178.26 202.8L179.6 202.44L230.07 216.49L233.01 267L149.82 244.29L138.92 225.46H138.91Z" fill="url(#paint2_linear_116_3487)"/>
<path d="M124.67 205.1L113.61 221.32L119.85 224.98L130.92 208.7L124.67 205.1Z" fill="#93BFE7"/>
<path d="M116.11 200.07L105.04 216.35L108.37 218.32L119.44 202.04L116.11 200.07Z" fill="#93BFE7"/>
<path d="M103.62 192.75V198.04L106.2 194.31L103.62 192.75Z" fill="#A8D3F4"/>
<path d="M128.06 229.79L149.71 242.48V219.75L139.12 213.51L128.06 229.79Z" fill="#93BFE7"/>
<path d="M132.06 209.37L121 225.65L122.9 226.74L133.96 210.52L132.06 209.37Z" fill="#93BFE7"/>
<path d="M119.44 202.04L108.37 218.32L113.6 221.31L124.67 205.09L119.44 202.04Z" fill="#A8D3F4"/>
<path d="M133.96 210.52L122.9 226.74L128.06 229.79L139.12 213.51L133.96 210.52Z" fill="#A8D3F4"/>
<path d="M130.91 208.69L119.85 224.97L121 225.65L132.06 209.37L130.91 208.69Z" fill="#A8D3F4"/>
<path d="M106.2 194.31L103.62 198.04V215.48L105.04 216.36L116.11 200.08L106.2 194.31Z" fill="#A8D3F4"/>
<path d="M189.22 196.95L149.71 219.75V242.48L189.22 219.68V196.95Z" fill="#79B1DB"/>
<path d="M109.87 219.21L109.6 219.01V191.8H109.87V219.21Z" fill="#79B1DB"/>
<path d="M116.65 223.14L116.38 223V195.11H116.65V223.13V223.14Z" fill="#79B1DB"/>
<path d="M123.44 227.08L123.17 226.94V198.71H123.44V227.07V227.08Z" fill="#79B1DB"/>
<path d="M130.16 231.01L129.96 230.87V202.04H130.16V231.01Z" fill="#79B1DB"/>
<path d="M136.21 234.54L135.94 234.41V206.05H136.21V234.55V234.54Z" fill="#79B1DB"/>
<path d="M142.93 238.48L142.73 238.34V209.57H142.93V238.47V238.48Z" fill="#79B1DB"/>
<path d="M182.77 223.14L183.04 222.94V195.73H182.77V223.14Z" fill="#5B9AC1"/>
<path d="M176.05 227.08L176.25 226.94V199.12H176.05V227.07V227.08Z" fill="#5B9AC1"/>
<path d="M169.26 231.01L169.53 230.87V202.64H169.26V231V231.01Z" fill="#5B9AC1"/>
<path d="M162.48 235.02L162.75 234.82V205.99H162.48V235.03V235.02Z" fill="#5B9AC1"/>
<path d="M156.5 238.48L156.77 238.34V209.98H156.5V238.48Z" fill="#5B9AC1"/>
<path d="M149.71 242.48L149.98 242.28V213.51H149.71V242.48Z" fill="#5B9AC1"/>
<path d="M149.71 242.48L149.44 242.28V212.9H149.71V242.48Z" fill="#79B1DB"/>
<path d="M103.62 192.75V194.38L149.71 221.32V219.76L103.62 192.76V192.75Z" fill="#EAF2F6"/>
<path d="M103.62 204.49V205.17L149.71 232.11V231.43L103.62 204.5V204.49Z" fill="#79B1DB"/>
<path d="M189.22 196.95L149.71 219.75V221.24L189.22 198.44V196.95Z" fill="#92A7B1"/>
<path d="M103.62 214.87V217.58L149.71 244.52V241.81L103.62 214.88V214.87Z" fill="#EAF2F6"/>
<path d="M189.22 219L149.71 241.8V244.45L189.22 221.65V219Z" fill="#92A7B1"/>
<path d="M189.22 208.62L149.71 231.35V231.96L189.22 209.23V208.62Z" fill="#5B9AC1"/>
<path d="M166.14 183.59L149.1 193.43L125.75 180L103.62 192.76L149.71 219.76L189.22 196.96L166.14 183.59Z" fill="#D8E5ED"/>
<path d="M166.14 184.74L149.17 194.58L125.75 181.08L105.25 192.82L149.71 218.81L187.52 197.1L166.14 184.75V184.74Z" fill="#C2D2DC"/>
<path d="M124.67 181.6L113.61 197.82L119.85 201.48L130.92 185.2L124.67 181.6Z" fill="#93BFE7"/>
<path d="M116.11 176.58L105.04 192.86L108.37 194.83L119.44 178.55L116.11 176.58Z" fill="#93BFE7"/>
<path d="M103.62 169.25V174.54L106.2 170.81L103.62 169.25Z" fill="#A8D3F4"/>
<path d="M128.06 206.3L149.71 218.99V196.26L139.12 190.02L128.06 206.3Z" fill="#93BFE7"/>
<path d="M132.06 185.87L121 202.15L122.9 203.24L133.96 187.02L132.06 185.87Z" fill="#93BFE7"/>
<path d="M119.44 178.55L108.37 194.83L113.6 197.82L124.67 181.6L119.44 178.55Z" fill="#A8D3F4"/>
<path d="M133.96 187.03L122.9 203.25L128.06 206.3L139.12 190.02L133.96 187.03Z" fill="#A8D3F4"/>
<path d="M130.91 185.2L119.85 201.48L121 202.16L132.06 185.88L130.91 185.2Z" fill="#A8D3F4"/>
<path d="M106.2 170.81L103.62 174.54V191.98L105.04 192.86L116.11 176.58L106.2 170.81Z" fill="#A8D3F4"/>
<path d="M189.22 173.46L149.71 196.26V218.99L189.22 196.19V173.46Z" fill="#79B1DB"/>
<path d="M109.87 195.71L109.6 195.51V168.3H109.87V195.71Z" fill="#79B1DB"/>
<path d="M116.65 199.65L116.38 199.51V171.63H116.65V199.65Z" fill="#79B1DB"/>
<path d="M123.44 203.58L123.17 203.44V175.21H123.44V203.57V203.58Z" fill="#79B1DB"/>
<path d="M130.16 207.52L129.96 207.38V178.54H130.16V207.51V207.52Z" fill="#79B1DB"/>
<path d="M136.21 211.04L135.94 210.91V182.55H136.21V211.05V211.04Z" fill="#79B1DB"/>
<path d="M142.93 214.98L142.73 214.84V186.07H142.93V214.97V214.98Z" fill="#79B1DB"/>
<path d="M182.77 199.65L183.04 199.45V172.24H182.77V199.65Z" fill="#5B9AC1"/>
<path d="M176.05 203.58L176.25 203.44V175.62H176.05V203.57V203.58Z" fill="#5B9AC1"/>
<path d="M169.26 207.52L169.53 207.38V179.15H169.26V207.51V207.52Z" fill="#5B9AC1"/>
<path d="M162.48 211.52L162.75 211.32V182.48H162.48V211.52Z" fill="#5B9AC1"/>
<path d="M156.5 214.98L156.77 214.84V186.48H156.5V214.98Z" fill="#5B9AC1"/>
<path d="M149.71 218.98L149.98 218.78V190.01H149.71V218.98Z" fill="#5B9AC1"/>
<path d="M149.71 218.98L149.44 218.78V189.4H149.71V218.98Z" fill="#79B1DB"/>
<path d="M103.62 169.25V170.88L149.71 197.82V196.26L103.62 169.26V169.25Z" fill="#EAF2F6"/>
<path d="M103.62 180.99V181.67L149.71 208.6V207.92L103.62 180.99Z" fill="#79B1DB"/>
<path d="M189.22 173.46L149.71 196.26V197.75L189.22 174.95V173.46Z" fill="#92A7B1"/>
<path d="M103.62 191.37V194.08L149.71 221.02V218.31L103.62 191.38V191.37Z" fill="#EAF2F6"/>
<path d="M189.22 195.51L149.71 218.31V220.96L189.22 198.16V195.51Z" fill="#92A7B1"/>
<path d="M189.22 185.13L149.71 207.86V208.47L189.22 185.74V185.13Z" fill="#5B9AC1"/>
<path d="M166.14 160.09L149.1 169.93L125.75 156.5L103.62 169.26L149.71 196.26L189.22 173.46L166.14 160.09Z" fill="#D8E5ED"/>
<path d="M166.14 161.24L149.17 171.08L125.75 157.58L105.25 169.32L149.71 195.31L187.52 173.6L166.14 161.25V161.24Z" fill="#C2D2DC"/>
<path d="M124.67 158.1L113.61 174.32L119.85 177.98L130.92 161.7L124.67 158.1Z" fill="#93BFE7"/>
<path d="M116.11 153.08L105.04 169.36L108.37 171.33L119.44 155.05L116.11 153.08Z" fill="#93BFE7"/>
<path d="M103.62 145.76V151.05L106.2 147.32L103.62 145.76Z" fill="#A8D3F4"/>
<path d="M128.06 182.8L149.71 195.49V172.76L139.12 166.52L128.06 182.8Z" fill="#93BFE7"/>
<path d="M132.06 162.38L121 178.66L122.9 179.74L133.96 163.52L132.06 162.37V162.38Z" fill="#93BFE7"/>
<path d="M119.44 155.05L108.37 171.33L113.6 174.32L124.67 158.1L119.44 155.05Z" fill="#A8D3F4"/>
<path d="M133.96 163.53L122.9 179.74L128.06 182.79L139.12 166.51L133.96 163.52V163.53Z" fill="#A8D3F4"/>
<path d="M130.91 161.7L119.85 177.98L121 178.66L132.06 162.38L130.91 161.7Z" fill="#A8D3F4"/>
<path d="M106.2 147.32L103.62 151.05V168.49L105.04 169.37L116.11 153.09L106.2 147.32Z" fill="#A8D3F4"/>
<path d="M189.22 149.96L149.71 172.76V195.49L189.22 172.69V149.96Z" fill="#79B1DB"/>
<path d="M109.87 172.22L109.6 172.02V144.81H109.87V172.22Z" fill="#79B1DB"/>
<path d="M116.65 176.15L116.38 176.02V148.13H116.65V176.15Z" fill="#79B1DB"/>
<path d="M123.44 180.09L123.17 179.95V151.73H123.44V180.09Z" fill="#79B1DB"/>
<path d="M130.16 184.02L129.96 183.88V155.04H130.16V184.01V184.02Z" fill="#79B1DB"/>
<path d="M136.21 187.55L135.94 187.41V159.05H136.21V187.55Z" fill="#79B1DB"/>
<path d="M142.93 191.49L142.73 191.35V162.58H142.93V191.48V191.49Z" fill="#79B1DB"/>
<path d="M182.77 176.15L183.04 175.95V148.74H182.77V176.15Z" fill="#5B9AC1"/>
<path d="M176.05 180.09L176.25 179.96V152.14H176.05V180.09Z" fill="#5B9AC1"/>
<path d="M169.26 184.02L169.53 183.88V155.65H169.26V184.01V184.02Z" fill="#5B9AC1"/>
<path d="M162.48 188.02L162.75 187.82V158.98H162.48V188.02Z" fill="#5B9AC1"/>
<path d="M156.5 191.49L156.77 191.35V162.99H156.5V191.49Z" fill="#5B9AC1"/>
<path d="M149.71 195.49L149.98 195.29V166.52H149.71V195.49Z" fill="#5B9AC1"/>
<path d="M149.71 195.49L149.44 195.29V165.91H149.71V195.49Z" fill="#79B1DB"/>
<path d="M103.62 145.76V147.39L149.71 174.33V172.77L103.62 145.77V145.76Z" fill="#EAF2F6"/>
<path d="M103.62 157.49V158.17L149.71 185.11V184.43L103.62 157.49Z" fill="#79B1DB"/>
<path d="M189.22 149.96L149.71 172.76V174.25L189.22 151.45V149.96Z" fill="#92A7B1"/>
<path d="M103.62 167.87V170.58L149.71 197.52V194.81L103.62 167.87Z" fill="#EAF2F6"/>
<path d="M189.22 172.01L149.71 194.81V197.46L189.22 174.66V172.01Z" fill="#92A7B1"/>
<path d="M189.22 161.63L149.71 184.36V184.97L189.22 162.24V161.63Z" fill="#5B9AC1"/>
<path d="M166.14 136.6L149.1 146.44L125.75 133.01L103.62 145.77L149.71 172.77L189.22 149.97L166.14 136.6Z" fill="#D8E5ED"/>
<path d="M166.14 137.75L149.17 147.59L125.75 134.09L105.25 145.83L149.71 171.82L187.52 150.11L166.14 137.76V137.75Z" fill="#C2D2DC"/>
<path d="M119.91 147.86L116.92 149.56V147.86L119.91 146.16V147.86Z" fill="#92A7B1"/>
<path d="M112.38 146.91L116.93 149.56V147.86L112.38 145.21V146.91Z" fill="#D8E5ED"/>
<path d="M115.37 143.52L112.38 145.22L116.93 147.87L119.92 146.17L115.37 143.52Z" fill="#C2D2DC"/>
<path d="M114.01 145.35C114.01 144.87 114.76 144.47 115.64 144.47C116.52 144.47 117.27 144.88 117.27 145.35C117.27 145.82 116.52 146.23 115.64 146.23C114.69 146.23 114.01 145.82 114.01 145.35Z" fill="#5A678B"/>
<path d="M114.55 145.28C114.55 145.01 115.02 144.74 115.57 144.74C116.12 144.74 116.59 145.01 116.59 145.28C116.59 145.55 116.12 145.82 115.57 145.82C115.02 145.82 114.55 145.62 114.55 145.28Z" fill="#3D94D3"/>
<path d="M126.23 144.26L123.31 145.96V144.26L126.23 142.56V144.26Z" fill="#92A7B1"/>
<path d="M118.76 143.31L123.31 145.96V144.26L118.76 141.61V143.31Z" fill="#D8E5ED"/>
<path d="M121.68 139.92L118.76 141.62L123.31 144.27L126.23 142.57L121.68 139.92Z" fill="#C2D2DC"/>
<path d="M120.32 141.75C120.32 141.27 121.07 140.87 121.95 140.87C122.83 140.87 123.58 141.28 123.58 141.75C123.58 142.22 122.83 142.63 121.95 142.63C121 142.63 120.32 142.22 120.32 141.75Z" fill="#5A678B"/>
<path d="M121.88 142.29C122.44 142.29 122.9 142.05 122.9 141.75C122.9 141.45 122.44 141.21 121.88 141.21C121.32 141.21 120.86 141.45 120.86 141.75C120.86 142.05 121.32 142.29 121.88 142.29Z" fill="#3D94D3"/>
<path d="M132.13 140.94L129.14 142.64V140.94L132.13 139.24V140.94Z" fill="#92A7B1"/>
<path d="M124.6 139.99L129.15 142.64V140.94L124.6 138.29V139.99Z" fill="#D8E5ED"/>
<path d="M127.58 136.6L124.59 138.3L129.14 140.95L132.13 139.25L127.58 136.6Z" fill="#C2D2DC"/>
<path d="M126.16 138.43C126.16 137.96 126.91 137.55 127.79 137.55C128.67 137.62 129.42 137.96 129.42 138.43C129.42 138.9 128.67 139.31 127.79 139.31C126.91 139.31 126.16 138.9 126.16 138.43Z" fill="#5A678B"/>
<path d="M127.79 138.9C128.35 138.9 128.81 138.66 128.81 138.36C128.81 138.06 128.35 137.82 127.79 137.82C127.23 137.82 126.77 138.06 126.77 138.36C126.77 138.66 127.23 138.9 127.79 138.9Z" fill="#3D94D3"/>
<path d="M176.05 145.96L163.83 152.88L169.33 156.07L181.55 149.15L176.05 145.96Z" fill="#D8E5ED"/>
<path d="M181.55 150.64L169.33 157.56V156.07L181.55 149.08V150.64Z" fill="#92A7B1"/>
<path d="M163.83 154.44L169.33 157.56V156.07L163.83 152.88V154.44Z" fill="#D8E5ED"/>
<path d="M157.79 156.14L145.57 163.06L151 166.25L163.22 159.33L157.79 156.14Z" fill="#D8E5ED"/>
<path d="M163.22 160.82L151 167.74V166.25L163.22 159.26V160.82Z" fill="#92A7B1"/>
<path d="M145.57 164.62L151 167.74V166.25L145.57 163.06V164.62Z" fill="#D8E5ED"/>
<path d="M120.09 159.67L131.48 151.66L132.03 151.51L160.82 160.98L158.27 181.29L131.48 172.4L119.81 165.39L120.09 159.66V159.67Z" fill="url(#paint3_linear_116_3487)"/>
<path d="M135.41 172.66L134.74 173.04C135.43 172.64 135.85 171.79 135.85 170.6L136.52 170.22C136.5 171.41 136.08 172.25 135.4 172.66H135.41Z" fill="#243F6D"/>
<path d="M117.64 143.54L118.31 143.16C119 142.76 119.96 142.81 121.02 143.43L120.35 143.81C119.29 143.2 118.33 143.14 117.64 143.54Z" fill="#243F6D"/>
<path d="M135.88 157.15L136.57 156.75L136.53 170.2L135.84 170.6L135.88 157.15Z" fill="#243F6D"/>
<path d="M120.35 143.81L121.04 143.41L132.76 150.17L132.07 150.57L120.35 143.81Z" fill="#243F6D"/>
<path d="M132.07 150.57C134.18 151.78 135.87 154.73 135.87 157.15L135.83 170.6C135.83 173.02 134.1 174 132.01 172.79L120.29 166.03C118.18 164.8 116.49 161.85 116.49 159.43L116.53 145.98C116.53 143.56 118.26 142.58 120.35 143.79L132.07 150.56V150.57Z" fill="#4D648D"/>
<path d="M132.07 150.57C134.18 151.78 135.87 154.73 135.87 157.15L135.83 170.6C135.83 173.02 134.1 174 132.01 172.79L120.29 166.03C118.18 164.8 116.49 161.85 116.49 159.43L116.53 145.98C116.53 143.56 118.26 142.58 120.35 143.79L132.07 150.56V150.57Z" fill="url(#paint4_linear_116_3487)"/>
<path d="M132.07 150.57L132.74 150.19C134.85 151.4 136.54 154.36 136.54 156.77L135.87 157.15C135.89 154.73 134.18 151.78 132.07 150.57Z" fill="#243F6D"/>
<path d="M125.39 150.48C129.02 152.59 131.95 157.71 131.95 161.93C131.93 166.13 128.98 167.84 125.35 165.73V164.83C126.01 165.21 126.65 165.45 127.24 165.55C128.89 165.85 130.19 165.11 130.81 163.56C131.03 162.98 131.17 162.27 131.17 161.47C131.17 160.73 131.07 159.96 130.89 159.2C130.33 156.89 129 154.54 127.3 152.89C126.7 152.31 126.06 151.8 125.41 151.42C124.75 151.04 124.09 150.78 123.5 150.66C121.81 150.36 120.45 151.14 119.89 152.79C119.69 153.33 119.59 154 119.59 154.72C119.59 151.04 122.2 149.54 125.39 151.41V150.48Z" fill="#7093FF"/>
<path d="M125.39 151.41L125.35 164.81C124.69 164.43 124.06 163.93 123.46 163.34L123.48 159.28L119.93 157.21C119.69 156.37 119.57 155.52 119.59 154.74C119.59 154 119.69 153.35 119.89 152.79L123.5 154.88L123.52 150.66C124.1 150.78 124.74 151.02 125.39 151.4V151.41Z" fill="#7093FF"/>
<path d="M125.39 150.48V151.38C122.2 149.53 119.59 151.04 119.59 154.74C119.59 155.54 119.71 156.39 119.93 157.21C120.51 159.44 121.82 161.71 123.46 163.34C124.06 163.92 124.7 164.42 125.35 164.81V165.71C121.72 163.6 118.77 158.48 118.79 154.28C118.81 150.06 121.76 148.37 125.39 150.48Z" fill="#70D4FF"/>
<path d="M125.39 151.41C126.05 151.79 126.69 152.29 127.28 152.88L127.26 157.1L130.87 159.19C131.05 159.97 131.17 160.74 131.15 161.46C131.15 162.26 131.03 162.97 130.79 163.55L127.26 161.5L127.24 165.56C126.64 165.46 126 165.22 125.35 164.84L125.39 151.42V151.41Z" fill="#70D4FF"/>
</g>
<mask id="mask2_116_3487" style="mask-type:luminance" maskUnits="userSpaceOnUse" x="341" y="327" width="148" height="134">
<path d="M489 327H341V461H489V327Z" fill="white"/>
</mask>
<g mask="url(#mask2_116_3487)">
<g opacity="0.1">
<path d="M459.11 413.31L415.6 388.24C409.06 384.49 398.51 384.49 392.03 388.24L348.79 413.31C342.31 417.06 342.33 423.17 348.87 426.93L392.39 452C398.93 455.75 409.48 455.75 415.96 452L459.2 426.93C465.68 423.15 465.66 417.07 459.12 413.31H459.11Z" fill="#4E658D"/>
</g>
<path d="M461.94 401.99C468.8 405.93 468.83 412.35 462.03 416.29L416.63 442.61C409.82 446.55 398.75 446.55 391.88 442.61L346.17 416.29C339.31 412.35 339.28 405.93 346.08 401.99L391.48 375.67C398.29 371.73 409.36 371.73 416.23 375.67L461.94 401.99Z" fill="url(#paint5_linear_116_3487)"/>
<path d="M394.91 419.46L434.26 396.8L435.6 396.44L486.07 410.49L489.01 461L405.82 438.29L394.92 419.46H394.91Z" fill="url(#paint6_linear_116_3487)"/>
<path d="M380.67 399.1L369.61 415.32L375.85 418.98L386.92 402.7L380.68 399.1H380.67Z" fill="#93BFE7"/>
<path d="M372.11 394.07L361.04 410.35L364.37 412.32L375.44 396.04L372.11 394.07Z" fill="#93BFE7"/>
<path d="M359.62 386.75V392.04L362.2 388.31L359.62 386.75Z" fill="#A8D3F4"/>
<path d="M384.06 423.79L405.71 436.48V413.75L395.12 407.51L384.06 423.79Z" fill="#93BFE7"/>
<path d="M388.06 403.37L377 419.65L378.9 420.73L389.97 404.52L388.07 403.37H388.06Z" fill="#93BFE7"/>
<path d="M375.44 396.04L364.37 412.32L369.6 415.31L380.66 399.09L375.43 396.04H375.44Z" fill="#A8D3F4"/>
<path d="M389.96 404.52L378.89 420.73L384.05 423.78L395.12 407.5L389.96 404.52Z" fill="#A8D3F4"/>
<path d="M386.91 402.69L375.85 418.97L377 419.65L388.06 403.37L386.91 402.69Z" fill="#A8D3F4"/>
<path d="M362.2 388.31L359.62 392.04V409.48L361.05 410.36L372.12 394.08L362.21 388.31H362.2Z" fill="#A8D3F4"/>
<path d="M445.22 390.95L405.71 413.75V436.48L445.22 413.68V390.95Z" fill="#79B1DB"/>
<path d="M365.87 413.21L365.6 413.01V385.8H365.87V413.21Z" fill="#79B1DB"/>
<path d="M372.65 417.14L372.38 417V389.12H372.65V417.14Z" fill="#79B1DB"/>
<path d="M379.44 421.08L379.17 420.94V392.72H379.44V421.08Z" fill="#79B1DB"/>
<path d="M386.16 425.01L385.96 424.87V396.03H386.16V425V425.01Z" fill="#79B1DB"/>
<path d="M392.2 428.54L391.93 428.41V400.05H392.2V428.55V428.54Z" fill="#79B1DB"/>
<path d="M398.93 432.48L398.73 432.34V403.57H398.93V432.47V432.48Z" fill="#79B1DB"/>
<path d="M438.77 417.14L439.04 416.94V389.73H438.77V417.14Z" fill="#5B9AC1"/>
<path d="M432.05 421.08L432.25 420.94V393.12H432.05V421.07V421.08Z" fill="#5B9AC1"/>
<path d="M425.26 425.01L425.53 424.87V396.64H425.26V425V425.01Z" fill="#5B9AC1"/>
<path d="M418.48 429.02L418.75 428.82V399.98H418.48V429.02Z" fill="#5B9AC1"/>
<path d="M412.5 432.48L412.77 432.34V403.98H412.5V432.48Z" fill="#5B9AC1"/>
<path d="M405.71 436.48L405.98 436.28V407.51H405.71V436.48Z" fill="#5B9AC1"/>
<path d="M405.71 436.48L405.44 436.28V406.9H405.71V436.48Z" fill="#79B1DB"/>
<path d="M359.62 386.75V388.38L405.71 415.32V413.76L359.62 386.76V386.75Z" fill="#EAF2F6"/>
<path d="M359.62 398.48V399.16L405.71 426.09V425.41L359.62 398.47V398.48Z" fill="#79B1DB"/>
<path d="M445.22 390.95L405.71 413.75V415.24L445.22 392.44V390.95Z" fill="#92A7B1"/>
<path d="M359.62 408.86V411.57L405.71 438.5V435.79L359.62 408.86Z" fill="#EAF2F6"/>
<path d="M445.22 413L405.71 435.8V438.45L445.22 415.65V413Z" fill="#92A7B1"/>
<path d="M445.22 402.62L405.71 425.35V425.96L445.22 403.23V402.62Z" fill="#5B9AC1"/>
<path d="M422.14 377.59L405.1 387.43L381.75 374L359.62 386.76L405.71 413.76L445.22 390.96L422.14 377.59Z" fill="#D8E5ED"/>
<path d="M422.14 378.74L405.17 388.58L381.75 375.08L361.25 386.82L405.71 412.8L443.52 391.09L422.14 378.74Z" fill="#C2D2DC"/>
<path d="M380.67 375.1L369.61 391.32L375.85 394.98L386.92 378.7L380.67 375.1Z" fill="#93BFE7"/>
<path d="M372.11 370.08L361.04 386.36L364.37 388.33L375.44 372.05L372.11 370.08Z" fill="#93BFE7"/>
<path d="M359.62 362.76V368.05L362.2 364.32L359.62 362.76Z" fill="#A8D3F4"/>
<path d="M384.06 399.8L405.71 412.49V389.76L395.12 383.52L384.05 399.8H384.06Z" fill="#93BFE7"/>
<path d="M388.07 379.38L377 395.66L378.9 396.75L389.97 380.53L388.07 379.38Z" fill="#93BFE7"/>
<path d="M375.44 372.05L364.38 388.33L369.61 391.31L380.67 375.09L375.44 372.04V372.05Z" fill="#A8D3F4"/>
<path d="M389.97 380.53L378.9 396.74L384.06 399.79L395.12 383.51L389.96 380.53H389.97Z" fill="#A8D3F4"/>
<path d="M386.91 378.7L375.84 394.98L376.99 395.66L388.05 379.38L386.9 378.7H386.91Z" fill="#A8D3F4"/>
<path d="M362.2 364.32L359.62 368.05V385.49L361.05 386.37L372.11 370.09L362.2 364.32Z" fill="#A8D3F4"/>
<path d="M445.22 366.96L405.71 389.76V412.49L445.22 389.69V366.96Z" fill="#79B1DB"/>
<path d="M365.87 389.22L365.6 389.02V361.81H365.87V389.22Z" fill="#79B1DB"/>
<path d="M372.66 393.15L372.39 393.01V365.12H372.66V393.14V393.15Z" fill="#79B1DB"/>
<path d="M379.44 397.09L379.17 396.95V368.73H379.44V397.09Z" fill="#79B1DB"/>
<path d="M386.16 401.02L385.96 400.88V372.04H386.16V401.01V401.02Z" fill="#79B1DB"/>
<path d="M392.21 404.55L391.94 404.41V376.05H392.21V404.55Z" fill="#79B1DB"/>
<path d="M398.93 408.48L398.73 408.34V379.57H398.93V408.47V408.48Z" fill="#79B1DB"/>
<path d="M438.77 393.15L439.04 392.95V365.74H438.77V393.15Z" fill="#5B9AC1"/>
<path d="M432.05 397.09L432.25 396.95V369.13H432.05V397.08V397.09Z" fill="#5B9AC1"/>
<path d="M425.26 401.02L425.53 400.88V372.66H425.26V401.02Z" fill="#5B9AC1"/>
<path d="M418.48 405.02L418.75 404.82V375.98H418.48V405.02Z" fill="#5B9AC1"/>
<path d="M412.5 408.48L412.77 408.34V379.98H412.5V408.48Z" fill="#5B9AC1"/>
<path d="M405.71 412.49L405.98 412.29V383.52H405.71V412.49Z" fill="#5B9AC1"/>
<path d="M405.71 412.49L405.44 412.29V382.91H405.71V412.49Z" fill="#79B1DB"/>
<path d="M359.62 362.76V364.39L405.71 391.33V389.77L359.62 362.77V362.76Z" fill="#EAF2F6"/>
<path d="M359.62 374.49V375.17L405.71 402.11V401.43L359.62 374.49Z" fill="#79B1DB"/>
<path d="M445.22 366.96L405.71 389.76V391.25L445.22 368.45V366.96Z" fill="#92A7B1"/>
<path d="M359.62 384.87V387.58L405.71 414.52V411.81L359.62 384.88V384.87Z" fill="#EAF2F6"/>
<path d="M445.22 389.01L405.71 411.81V414.46L445.22 391.66V389.01Z" fill="#92A7B1"/>
<path d="M445.22 378.63L405.71 401.36V401.97L445.22 379.24V378.63Z" fill="#5B9AC1"/>
<path d="M422.14 353.6L405.1 363.44L381.75 350.01L359.62 362.77L405.71 389.77L445.22 366.97L422.14 353.6Z" fill="#D8E5ED"/>
<path d="M422.14 354.75L405.17 364.59L381.75 351.09L361.25 362.83L405.71 388.82L443.52 367.11L422.14 354.76V354.75Z" fill="#C2D2DC"/>
<path d="M375.91 364.86L372.92 366.56V364.86L375.91 363.16V364.86Z" fill="#92A7B1"/>
<path d="M368.38 363.91L372.93 366.56V364.86L368.38 362.21V363.91Z" fill="#D8E5ED"/>
<path d="M371.37 360.52L368.38 362.22L372.93 364.87L375.92 363.17L371.37 360.52Z" fill="#C2D2DC"/>
<path d="M370.01 362.35C370.01 361.87 370.76 361.47 371.64 361.47C372.52 361.47 373.27 361.88 373.27 362.35C373.27 362.82 372.52 363.23 371.64 363.23C370.69 363.23 370.01 362.82 370.01 362.35Z" fill="#5A678B"/>
<path d="M370.55 362.28C370.55 362.01 371.03 361.74 371.57 361.74C372.11 361.74 372.59 362.01 372.59 362.28C372.59 362.55 372.11 362.82 371.57 362.82C371.03 362.82 370.55 362.62 370.55 362.28Z" fill="#3D94D3"/>
<path d="M382.23 361.26L379.31 362.96V361.26L382.23 359.56V361.26Z" fill="#92A7B1"/>
<path d="M374.76 360.31L379.31 362.96V361.26L374.76 358.61V360.31Z" fill="#D8E5ED"/>
<path d="M377.68 356.92L374.76 358.62L379.31 361.27L382.23 359.57L377.68 356.92Z" fill="#C2D2DC"/>
<path d="M376.32 358.75C376.32 358.27 377.07 357.87 377.95 357.87C378.83 357.87 379.58 358.28 379.58 358.75C379.58 359.22 378.83 359.63 377.95 359.63C377 359.63 376.32 359.22 376.32 358.75Z" fill="#5A678B"/>
<path d="M377.88 359.3C378.44 359.3 378.9 359.06 378.9 358.76C378.9 358.46 378.44 358.22 377.88 358.22C377.32 358.22 376.86 358.46 376.86 358.76C376.86 359.06 377.32 359.3 377.88 359.3Z" fill="#3D94D3"/>
<path d="M388.13 357.94L385.14 359.64V357.94L388.13 356.24V357.94Z" fill="#92A7B1"/>
<path d="M380.6 356.99L385.15 359.64V357.94L380.6 355.29V356.99Z" fill="#D8E5ED"/>
<path d="M383.58 353.6L380.59 355.3L385.14 357.95L388.13 356.25L383.58 353.6Z" fill="#C2D2DC"/>
<path d="M382.16 355.43C382.16 354.95 382.91 354.55 383.79 354.55C384.67 354.62 385.42 354.96 385.42 355.43C385.42 355.9 384.67 356.31 383.79 356.31C382.91 356.31 382.16 355.9 382.16 355.43Z" fill="#5A678B"/>
<path d="M383.79 355.9C384.35 355.9 384.81 355.66 384.81 355.36C384.81 355.06 384.35 354.82 383.79 354.82C383.23 354.82 382.77 355.06 382.77 355.36C382.77 355.66 383.23 355.9 383.79 355.9Z" fill="#3D94D3"/>
<path d="M432.05 362.96L419.83 369.88L425.33 373.07L437.55 366.15L432.05 362.96Z" fill="#D8E5ED"/>
<path d="M437.55 367.64L425.33 374.56V373.07L437.55 366.08V367.64Z" fill="#92A7B1"/>
<path d="M419.83 371.44L425.33 374.56V373.07L419.83 369.88V371.44Z" fill="#D8E5ED"/>
<path d="M413.79 373.14L401.57 380.06L407 383.25L419.22 376.33L413.79 373.14Z" fill="#D8E5ED"/>
<path d="M419.22 377.82L407 384.74V383.25L419.22 376.26V377.82Z" fill="#92A7B1"/>
<path d="M401.57 381.62L407 384.74V383.25L401.57 380.06V381.62Z" fill="#D8E5ED"/>
<path d="M376.09 376.67L387.48 368.66L388.03 368.51L416.82 377.98L414.27 398.29L387.48 389.4L375.81 382.39L376.09 376.66V376.67Z" fill="url(#paint7_linear_116_3487)"/>
<path d="M391.42 389.66L390.75 390.04C391.44 389.64 391.86 388.79 391.86 387.6L392.53 387.22C392.51 388.41 392.09 389.25 391.42 389.66Z" fill="#243F6D"/>
<path d="M373.64 360.54L374.31 360.16C375 359.76 375.96 359.81 377.02 360.43L376.35 360.81C375.29 360.2 374.33 360.14 373.64 360.54Z" fill="#243F6D"/>
<path d="M391.88 374.15L392.57 373.75L392.53 387.2L391.84 387.6L391.88 374.15Z" fill="#243F6D"/>
<path d="M376.35 360.81L377.04 360.41L388.76 367.17L388.07 367.57L376.35 360.81Z" fill="#243F6D"/>
<path d="M388.07 367.57C390.18 368.78 391.87 371.73 391.87 374.15L391.83 387.6C391.83 390.02 390.1 391 388.01 389.79L376.29 383.03C374.18 381.8 372.49 378.85 372.49 376.43L372.53 362.98C372.53 360.56 374.26 359.58 376.35 360.79L388.07 367.56V367.57Z" fill="#4D648D"/>
<path d="M388.07 367.57C390.18 368.78 391.87 371.73 391.87 374.15L391.83 387.6C391.83 390.02 390.1 391 388.01 389.79L376.29 383.03C374.18 381.8 372.49 378.85 372.49 376.43L372.53 362.98C372.53 360.56 374.26 359.58 376.35 360.79L388.07 367.56V367.57Z" fill="url(#paint8_linear_116_3487)"/>
<path d="M388.07 367.57L388.74 367.19C390.85 368.4 392.55 371.35 392.55 373.77L391.88 374.15C391.9 371.73 390.19 368.78 388.08 367.57H388.07Z" fill="#243F6D"/>
<path d="M381.39 367.48C385.02 369.59 387.95 374.71 387.95 378.93C387.93 383.13 384.98 384.84 381.35 382.73V381.83C382.01 382.21 382.65 382.45 383.24 382.55C384.89 382.85 386.19 382.11 386.81 380.56C387.03 379.98 387.17 379.27 387.17 378.47C387.17 377.73 387.07 376.96 386.89 376.2C386.33 373.89 385 371.54 383.3 369.89C382.7 369.31 382.06 368.81 381.41 368.42C380.75 368.04 380.09 367.78 379.5 367.66C377.81 367.36 376.45 368.14 375.89 369.79C375.69 370.33 375.59 371 375.59 371.72C375.59 368.04 378.2 366.54 381.39 368.4V367.48Z" fill="#7093FF"/>
<path d="M381.39 368.41L381.35 381.81C380.69 381.43 380.05 380.93 379.46 380.34L379.48 376.28L375.93 374.21C375.69 373.37 375.57 372.52 375.59 371.74C375.59 371 375.69 370.35 375.89 369.79L379.5 371.88L379.52 367.66C380.1 367.78 380.74 368.02 381.39 368.4V368.41Z" fill="#7093FF"/>
<path d="M381.39 367.48V368.38C378.2 366.53 375.59 368.04 375.59 371.74C375.59 372.54 375.71 373.39 375.93 374.21C376.51 376.44 377.82 378.71 379.46 380.34C380.06 380.92 380.7 381.42 381.35 381.81V382.71C377.72 380.6 374.77 375.48 374.79 371.28C374.81 367.06 377.76 365.37 381.39 367.48Z" fill="#70D4FF"/>
<path d="M381.39 368.41C382.05 368.79 382.69 369.29 383.28 369.88L383.26 374.1L386.87 376.19C387.05 376.97 387.17 377.74 387.15 378.46C387.15 379.26 387.03 379.97 386.79 380.55L383.26 378.5L383.24 382.56C382.64 382.46 382 382.22 381.35 381.84L381.39 368.42V368.41Z" fill="#70D4FF"/>
</g>
<g opacity="0.1">
<path d="M474.11 214.31L430.6 189.24C424.06 185.49 413.51 185.49 407.03 189.24L363.79 214.31C357.31 218.06 357.33 224.18 363.87 227.93L407.39 253C413.93 256.75 424.48 256.75 430.96 253L474.2 227.93C480.68 224.15 480.66 218.06 474.12 214.31H474.11Z" fill="#4E658D"/>
</g>
<path d="M476.94 202.99C483.8 206.93 483.83 213.35 477.03 217.29L431.63 243.61C424.82 247.55 413.75 247.55 406.88 243.61L361.17 217.29C354.31 213.35 354.28 206.93 361.08 202.99L406.48 176.67C413.29 172.73 424.36 172.73 431.23 176.67L476.94 202.99Z" fill="url(#paint9_linear_116_3487)"/>
<path d="M409.91 220.46L449.26 197.8L450.6 197.44L501.07 211.49L504.01 262L420.82 239.29L409.92 220.46H409.91Z" fill="url(#paint10_linear_116_3487)"/>
<path d="M395.67 200.1L384.61 216.32L390.85 219.98L401.92 203.7L395.67 200.1Z" fill="#93BFE7"/>
<path d="M387.11 195.07L376.04 211.35L379.37 213.32L390.44 197.04L387.11 195.07Z" fill="#93BFE7"/>
<path d="M374.62 187.75V193.04L377.2 189.31L374.62 187.75Z" fill="#A8D3F4"/>
<path d="M399.06 224.79L420.71 237.48V214.75L410.12 208.51L399.05 224.79H399.06Z" fill="#93BFE7"/>
<path d="M403.07 204.37L392 220.65L393.9 221.74L404.97 205.52L403.07 204.37Z" fill="#93BFE7"/>
<path d="M390.44 197.04L379.38 213.32L384.61 216.31L395.67 200.09L390.44 197.04Z" fill="#A8D3F4"/>
<path d="M404.97 205.52L393.9 221.74L399.06 224.79L410.12 208.51L404.96 205.52H404.97Z" fill="#A8D3F4"/>
<path d="M401.91 203.69L390.84 219.97L391.99 220.65L403.05 204.37L401.9 203.69H401.91Z" fill="#A8D3F4"/>
<path d="M377.2 189.31L374.62 193.04V210.48L376.05 211.36L387.11 195.08L377.2 189.31Z" fill="#A8D3F4"/>
<path d="M460.22 191.95L420.71 214.75V237.48L460.22 214.68V191.95Z" fill="#79B1DB"/>
<path d="M380.87 214.21L380.6 214.01V186.8H380.87V214.21Z" fill="#79B1DB"/>
<path d="M387.66 218.14L387.39 218V190.11H387.66V218.13V218.14Z" fill="#79B1DB"/>
<path d="M394.44 222.08L394.17 221.94V193.72H394.44V222.08Z" fill="#79B1DB"/>
<path d="M401.16 226.01L400.96 225.87V197.04H401.16V226.01Z" fill="#79B1DB"/>
<path d="M407.21 229.54L406.94 229.41V201.05H407.21V229.55V229.54Z" fill="#79B1DB"/>
<path d="M413.93 233.48L413.73 233.34V204.57H413.93V233.47V233.48Z" fill="#79B1DB"/>
<path d="M453.77 218.14L454.04 217.94V190.73H453.77V218.14Z" fill="#5B9AC1"/>
<path d="M447.05 222.08L447.25 221.94V194.12H447.05V222.07V222.08Z" fill="#5B9AC1"/>
<path d="M440.26 226.01L440.53 225.87V197.64H440.26V226V226.01Z" fill="#5B9AC1"/>
<path d="M433.48 230.02L433.75 229.82V200.98H433.48V230.02Z" fill="#5B9AC1"/>
<path d="M427.5 233.48L427.77 233.34V204.98H427.5V233.48Z" fill="#5B9AC1"/>
<path d="M420.71 237.48L420.98 237.28V208.51H420.71V237.48Z" fill="#5B9AC1"/>
<path d="M420.71 237.48L420.44 237.28V207.9H420.71V237.48Z" fill="#79B1DB"/>
<path d="M374.62 187.75V189.38L420.71 216.31V214.75L374.62 187.75Z" fill="#EAF2F6"/>
<path d="M374.62 199.49V200.17L420.71 227.11V226.43L374.62 199.5V199.49Z" fill="#79B1DB"/>
<path d="M460.22 191.95L420.71 214.75V216.24L460.22 193.44V191.95Z" fill="#92A7B1"/>
<path d="M374.62 209.87V212.58L420.71 239.52V236.81L374.62 209.88V209.87Z" fill="#EAF2F6"/>
<path d="M460.22 214L420.71 236.8V239.45L460.22 216.65V214Z" fill="#92A7B1"/>
<path d="M460.22 203.62L420.71 226.35V226.96L460.22 204.23V203.62Z" fill="#5B9AC1"/>
<path d="M437.14 178.59L420.1 188.43L396.75 175L374.62 187.76L420.71 214.76L460.22 191.96L437.14 178.59Z" fill="#D8E5ED"/>
<path d="M437.14 179.74L420.17 189.58L396.75 176.08L376.25 187.82L420.71 213.81L458.52 192.1L437.14 179.75V179.74Z" fill="#C2D2DC"/>
<path d="M395.67 176.6L384.61 192.82L390.85 196.48L401.92 180.2L395.67 176.6Z" fill="#93BFE7"/>
<path d="M387.11 171.58L376.04 187.86L379.37 189.83L390.44 173.55L387.11 171.58Z" fill="#93BFE7"/>
<path d="M374.62 164.25V169.54L377.2 165.81L374.62 164.25Z" fill="#A8D3F4"/>
<path d="M399.06 201.3L420.71 213.99V191.26L410.12 185.02L399.05 201.3H399.06Z" fill="#93BFE7"/>
<path d="M403.07 180.87L392 197.15L393.9 198.24L404.97 182.02L403.07 180.87Z" fill="#93BFE7"/>
<path d="M390.44 173.55L379.38 189.83L384.61 192.82L395.67 176.6L390.44 173.55Z" fill="#A8D3F4"/>
<path d="M404.97 182.03L393.9 198.25L399.06 201.3L410.12 185.02L404.96 182.03H404.97Z" fill="#A8D3F4"/>
<path d="M401.91 180.2L390.84 196.48L391.99 197.16L403.05 180.88L401.9 180.2H401.91Z" fill="#A8D3F4"/>
<path d="M377.2 165.81L374.62 169.54V186.98L376.05 187.86L387.11 171.58L377.2 165.81Z" fill="#A8D3F4"/>
<path d="M460.22 168.46L420.71 191.26V213.99L460.22 191.19V168.46Z" fill="#79B1DB"/>
<path d="M380.87 190.71L380.6 190.51V163.3H380.87V190.71Z" fill="#79B1DB"/>
<path d="M387.66 194.65L387.39 194.51V166.62H387.66V194.64V194.65Z" fill="#79B1DB"/>
<path d="M394.44 198.58L394.17 198.44V170.21H394.44V198.57V198.58Z" fill="#79B1DB"/>
<path d="M401.16 202.52L400.96 202.39V173.55H401.16V202.52Z" fill="#79B1DB"/>
<path d="M407.21 206.04L406.94 205.91V177.55H407.21V206.05V206.04Z" fill="#79B1DB"/>
<path d="M413.93 209.98L413.73 209.84V181.07H413.93V209.97V209.98Z" fill="#79B1DB"/>
<path d="M453.77 194.65L454.04 194.45V167.24H453.77V194.65Z" fill="#5B9AC1"/>
<path d="M447.05 198.58L447.25 198.44V170.62H447.05V198.57V198.58Z" fill="#5B9AC1"/>
<path d="M440.26 202.52L440.53 202.39V174.16H440.26V202.52Z" fill="#5B9AC1"/>
<path d="M433.48 206.52L433.75 206.32V177.49H433.48V206.53V206.52Z" fill="#5B9AC1"/>
<path d="M427.5 209.98L427.77 209.84V181.48H427.5V209.98Z" fill="#5B9AC1"/>
<path d="M420.71 213.98L420.98 213.78V185.01H420.71V213.98Z" fill="#5B9AC1"/>
<path d="M420.71 213.98L420.44 213.78V184.4H420.71V213.98Z" fill="#79B1DB"/>
<path d="M374.62 164.25V165.88L420.71 192.82V191.26L374.62 164.26V164.25Z" fill="#EAF2F6"/>
<path d="M374.62 175.99V176.67L420.71 203.6V202.92L374.62 175.99Z" fill="#79B1DB"/>
<path d="M460.22 168.46L420.71 191.26V192.75L460.22 169.95V168.46Z" fill="#92A7B1"/>
<path d="M374.62 186.37V189.08L420.71 216.02V213.31L374.62 186.38V186.37Z" fill="#EAF2F6"/>
<path d="M460.22 190.51L420.71 213.31V215.96L460.22 193.16V190.51Z" fill="#92A7B1"/>
<path d="M460.22 180.13L420.71 202.86V203.47L460.22 180.74V180.13Z" fill="#5B9AC1"/>
<path d="M437.14 155.09L420.1 164.93L396.75 151.5L374.62 164.26L420.71 191.26L460.22 168.46L437.14 155.09Z" fill="#D8E5ED"/>
<path d="M437.14 156.24L420.17 166.08L396.75 152.58L376.25 164.32L420.71 190.31L458.52 168.6L437.14 156.25V156.24Z" fill="#C2D2DC"/>
<path d="M395.67 153.1L384.61 169.32L390.85 172.98L401.92 156.7L395.67 153.1Z" fill="#93BFE7"/>
<path d="M387.11 148.08L376.04 164.36L379.37 166.33L390.44 150.05L387.11 148.08Z" fill="#93BFE7"/>
<path d="M374.62 140.76V146.05L377.2 142.32L374.62 140.76Z" fill="#A8D3F4"/>
<path d="M399.06 177.8L420.71 190.49V167.76L410.12 161.52L399.05 177.8H399.06Z" fill="#93BFE7"/>
<path d="M403.07 157.38L392 173.66L393.9 174.75L404.97 158.53L403.07 157.38Z" fill="#93BFE7"/>
<path d="M390.44 150.05L379.38 166.33L384.61 169.32L395.67 153.1L390.44 150.05Z" fill="#A8D3F4"/>
<path d="M404.97 158.53L393.9 174.74L399.06 177.79L410.12 161.51L404.96 158.52L404.97 158.53Z" fill="#A8D3F4"/>
<path d="M401.91 156.7L390.84 172.98L391.99 173.66L403.05 157.38L401.9 156.7H401.91Z" fill="#A8D3F4"/>
<path d="M377.2 142.32L374.62 146.05V163.49L376.05 164.37L387.11 148.09L377.2 142.32Z" fill="#A8D3F4"/>
<path d="M460.22 144.96L420.71 167.76V190.49L460.22 167.69V144.96Z" fill="#79B1DB"/>
<path d="M380.87 167.22L380.6 167.02V139.81H380.87V167.22Z" fill="#79B1DB"/>
<path d="M387.66 171.15L387.39 171.02V143.13H387.66V171.15Z" fill="#79B1DB"/>
<path d="M394.44 175.09L394.17 174.95V146.73H394.44V175.09Z" fill="#79B1DB"/>
<path d="M401.16 179.02L400.96 178.88V150.04H401.16V179.01V179.02Z" fill="#79B1DB"/>
<path d="M407.21 182.55L406.94 182.41V154.05H407.21V182.55Z" fill="#79B1DB"/>
<path d="M413.93 186.49L413.73 186.35V157.58H413.93V186.48V186.49Z" fill="#79B1DB"/>
<path d="M453.77 171.15L454.04 170.95V143.74H453.77V171.15Z" fill="#5B9AC1"/>
<path d="M447.05 175.09L447.25 174.96V147.14H447.05V175.09Z" fill="#5B9AC1"/>
<path d="M440.26 179.02L440.53 178.88V150.65H440.26V179.01V179.02Z" fill="#5B9AC1"/>
<path d="M433.48 183.02L433.75 182.82V153.98H433.48V183.02Z" fill="#5B9AC1"/>
<path d="M427.5 186.49L427.77 186.35V157.99H427.5V186.49Z" fill="#5B9AC1"/>
<path d="M420.71 190.49L420.98 190.29V161.52H420.71V190.49Z" fill="#5B9AC1"/>
<path d="M420.71 190.49L420.44 190.29V160.91H420.71V190.49Z" fill="#79B1DB"/>
<path d="M374.62 140.76V142.39L420.71 169.32V167.76L374.62 140.76Z" fill="#EAF2F6"/>
<path d="M374.62 152.49V153.17L420.71 180.1V179.42L374.62 152.49Z" fill="#79B1DB"/>
<path d="M460.22 144.96L420.71 167.76V169.25L460.22 146.45V144.96Z" fill="#92A7B1"/>
<path d="M374.62 162.87V165.58L420.71 192.52V189.81L374.62 162.87Z" fill="#EAF2F6"/>
<path d="M460.22 167.01L420.71 189.81V192.46L460.22 169.66V167.01Z" fill="#92A7B1"/>
<path d="M460.22 156.63L420.71 179.36V179.97L460.22 157.24V156.63Z" fill="#5B9AC1"/>
<path d="M437.14 131.6L420.1 141.44L396.75 128.01L374.62 140.77L420.71 167.77L460.22 144.97L437.14 131.6Z" fill="#D8E5ED"/>
<path d="M437.14 132.75L420.17 142.59L396.75 129.09L376.25 140.83L420.71 166.82L458.52 145.11L437.14 132.76V132.75Z" fill="#C2D2DC"/>
<path d="M395.67 130.1L384.61 146.32L390.85 149.98L401.92 133.7L395.67 130.1Z" fill="#93BFE7"/>
<path d="M387.11 125.08L376.04 141.36L379.37 143.33L390.44 127.05L387.11 125.08Z" fill="#93BFE7"/>
<path d="M374.62 117.76V123.05L377.2 119.32L374.62 117.76Z" fill="#A8D3F4"/>
<path d="M399.06 154.8L420.71 167.49V144.76L410.12 138.52L399.05 154.8H399.06Z" fill="#93BFE7"/>
<path d="M403.07 134.38L392 150.66L393.9 151.74L404.97 135.52L403.07 134.37V134.38Z" fill="#93BFE7"/>
<path d="M390.44 127.05L379.38 143.33L384.61 146.32L395.67 130.1L390.44 127.05Z" fill="#A8D3F4"/>
<path d="M404.97 135.53L393.9 151.74L399.06 154.79L410.12 138.51L404.96 135.52L404.97 135.53Z" fill="#A8D3F4"/>
<path d="M401.91 133.7L390.84 149.98L391.99 150.66L403.05 134.38L401.9 133.7H401.91Z" fill="#A8D3F4"/>
<path d="M377.2 119.32L374.62 123.05V140.49L376.05 141.37L387.11 125.09L377.2 119.32Z" fill="#A8D3F4"/>
<path d="M460.22 121.96L420.71 144.76V167.49L460.22 144.69V121.96Z" fill="#79B1DB"/>
<path d="M380.87 144.22L380.6 144.02V116.81H380.87V144.22Z" fill="#79B1DB"/>
<path d="M387.66 148.15L387.39 148.02V120.13H387.66V148.15Z" fill="#79B1DB"/>
<path d="M394.44 152.09L394.17 151.95V123.73H394.44V152.09Z" fill="#79B1DB"/>
<path d="M401.16 156.02L400.96 155.88V127.04H401.16V156.01V156.02Z" fill="#79B1DB"/>
<path d="M407.21 159.55L406.94 159.41V131.05H407.21V159.55Z" fill="#79B1DB"/>
<path d="M413.93 163.49L413.73 163.35V134.58H413.93V163.48V163.49Z" fill="#79B1DB"/>
<path d="M453.77 148.15L454.04 147.95V120.74H453.77V148.15Z" fill="#5B9AC1"/>
<path d="M447.05 152.09L447.25 151.96V124.14H447.05V152.09Z" fill="#5B9AC1"/>
<path d="M440.26 156.02L440.53 155.88V127.66H440.26V156.02Z" fill="#5B9AC1"/>
<path d="M433.48 160.02L433.75 159.82V130.98H433.48V160.02Z" fill="#5B9AC1"/>
<path d="M427.5 163.49L427.77 163.35V134.99H427.5V163.49Z" fill="#5B9AC1"/>
<path d="M420.71 167.49L420.98 167.29V138.52H420.71V167.49Z" fill="#5B9AC1"/>
<path d="M420.71 167.49L420.44 167.29V137.91H420.71V167.49Z" fill="#79B1DB"/>
<path d="M374.62 117.76V119.39L420.71 146.33V144.77L374.62 117.77V117.76Z" fill="#EAF2F6"/>
<path d="M374.62 129.49V130.17L420.71 157.11V156.43L374.62 129.49Z" fill="#79B1DB"/>
<path d="M460.22 121.96L420.71 144.76V146.25L460.22 123.45V121.96Z" fill="#92A7B1"/>
<path d="M374.62 139.87V142.58L420.71 169.52V166.81L374.62 139.87Z" fill="#EAF2F6"/>
<path d="M460.22 144.01L420.71 166.81V169.46L460.22 146.66V144.01Z" fill="#92A7B1"/>
<path d="M460.22 133.63L420.71 156.36V156.97L460.22 134.24V133.63Z" fill="#5B9AC1"/>
<path d="M437.14 108.6L420.1 118.44L396.75 105.01L374.62 117.76L420.71 144.76L460.22 121.96L437.14 108.59V108.6Z" fill="#D8E5ED"/>
<path d="M437.14 109.75L420.17 119.59L396.75 106.09L376.25 117.83L420.71 143.82L458.52 122.11L437.14 109.76V109.75Z" fill="#C2D2DC"/>
<path d="M390.91 119.86L387.92 121.56V119.86L390.91 118.16V119.86Z" fill="#92A7B1"/>
<path d="M383.38 118.91L387.93 121.56V119.86L383.38 117.21V118.91Z" fill="#D8E5ED"/>
<path d="M386.37 115.52L383.38 117.22L387.93 119.87L390.92 118.17L386.37 115.52Z" fill="#C2D2DC"/>
<path d="M385.01 117.35C385.01 116.88 385.76 116.47 386.64 116.47C387.52 116.47 388.27 116.88 388.27 117.35C388.27 117.82 387.52 118.23 386.64 118.23C385.69 118.23 385.01 117.82 385.01 117.35Z" fill="#5A678B"/>
<path d="M385.55 117.28C385.55 117.01 386.03 116.74 386.57 116.74C387.11 116.74 387.59 117.01 387.59 117.28C387.59 117.55 387.11 117.82 386.57 117.82C386.03 117.82 385.55 117.62 385.55 117.28Z" fill="#3D94D3"/>
<path d="M397.23 116.26L394.31 117.96V116.26L397.23 114.56V116.26Z" fill="#92A7B1"/>
<path d="M389.76 115.31L394.31 117.96V116.26L389.76 113.61V115.31Z" fill="#D8E5ED"/>
<path d="M392.68 111.92L389.76 113.62L394.31 116.27L397.23 114.57L392.68 111.92Z" fill="#C2D2DC"/>
<path d="M391.32 113.75C391.32 113.28 392.07 112.87 392.95 112.87C393.83 112.87 394.58 113.28 394.58 113.75C394.58 114.22 393.83 114.63 392.95 114.63C392 114.63 391.32 114.22 391.32 113.75Z" fill="#5A678B"/>
<path d="M392.88 114.29C393.44 114.29 393.9 114.05 393.9 113.75C393.9 113.45 393.44 113.21 392.88 113.21C392.32 113.21 391.86 113.45 391.86 113.75C391.86 114.05 392.32 114.29 392.88 114.29Z" fill="#3D94D3"/>
<path d="M403.13 112.94L400.14 114.64V112.94L403.13 111.24V112.94Z" fill="#92A7B1"/>
<path d="M395.6 111.99L400.15 114.64V112.94L395.6 110.29V111.99Z" fill="#D8E5ED"/>
<path d="M398.58 108.6L395.59 110.3L400.14 112.95L403.13 111.25L398.58 108.6Z" fill="#C2D2DC"/>
<path d="M397.16 110.43C397.16 109.96 397.91 109.55 398.79 109.55C399.67 109.62 400.42 109.96 400.42 110.43C400.42 110.9 399.67 111.31 398.79 111.31C397.91 111.31 397.16 110.9 397.16 110.43Z" fill="#5A678B"/>
<path d="M398.79 110.9C399.35 110.9 399.81 110.66 399.81 110.36C399.81 110.06 399.35 109.82 398.79 109.82C398.23 109.82 397.77 110.06 397.77 110.36C397.77 110.66 398.23 110.9 398.79 110.9Z" fill="#3D94D3"/>
<path d="M447.05 117.96L434.83 124.88L440.33 128.07L452.55 121.15L447.05 117.96Z" fill="#D8E5ED"/>
<path d="M452.55 122.64L440.33 129.56V128.07L452.55 121.08V122.64Z" fill="#92A7B1"/>
<path d="M434.83 126.44L440.33 129.56V128.07L434.83 124.88V126.44Z" fill="#D8E5ED"/>
<path d="M428.79 128.14L416.57 135.06L422 138.25L434.22 131.33L428.79 128.14Z" fill="#D8E5ED"/>
<path d="M434.22 132.82L422 139.74V138.25L434.22 131.26V132.82Z" fill="#92A7B1"/>
<path d="M416.57 136.62L422 139.74V138.25L416.57 135.06V136.62Z" fill="#D8E5ED"/>
<path d="M391.09 131.67L402.48 123.66L403.03 123.51L431.82 132.98L429.27 153.29L402.48 144.4L390.81 137.39L391.09 131.66V131.67Z" fill="url(#paint11_linear_116_3487)"/>
<path d="M406.42 144.66L405.75 145.04C406.44 144.64 406.86 143.79 406.86 142.6L407.53 142.22C407.51 143.41 407.09 144.25 406.42 144.66Z" fill="#243F6D"/>
<path d="M388.64 115.54L389.31 115.16C390 114.76 390.96 114.81 392.02 115.43L391.35 115.81C390.29 115.2 389.33 115.14 388.64 115.54Z" fill="#243F6D"/>
<path d="M406.88 129.15L407.57 128.75L407.53 142.2L406.84 142.6L406.88 129.15Z" fill="#243F6D"/>
<path d="M391.35 115.81L392.04 115.41L403.76 122.17L403.07 122.57L391.35 115.81Z" fill="#243F6D"/>
<path d="M403.07 122.57C405.18 123.78 406.87 126.73 406.87 129.15L406.83 142.6C406.83 145.02 405.1 146 403.01 144.79L391.29 138.03C389.18 136.8 387.49 133.85 387.49 131.43L387.53 117.98C387.53 115.56 389.26 114.58 391.35 115.79L403.07 122.56V122.57Z" fill="#4D648D"/>
<path d="M403.07 122.57C405.18 123.78 406.87 126.73 406.87 129.15L406.83 142.6C406.83 145.02 405.1 146 403.01 144.79L391.29 138.03C389.18 136.8 387.49 133.85 387.49 131.43L387.53 117.98C387.53 115.56 389.26 114.58 391.35 115.79L403.07 122.56V122.57Z" fill="url(#paint12_linear_116_3487)"/>
<path d="M403.07 122.57L403.74 122.19C405.85 123.4 407.55 126.35 407.55 128.77L406.88 129.15C406.9 126.73 405.19 123.78 403.08 122.57H403.07Z" fill="#243F6D"/>
<path d="M396.39 122.48C400.02 124.59 402.95 129.71 402.95 133.93C402.93 138.13 399.98 139.84 396.35 137.73V136.83C397.01 137.21 397.65 137.45 398.24 137.55C399.89 137.85 401.19 137.11 401.81 135.56C402.03 134.98 402.17 134.27 402.17 133.47C402.17 132.73 402.07 131.96 401.89 131.2C401.33 128.89 400 126.54 398.3 124.89C397.7 124.31 397.06 123.81 396.41 123.42C395.75 123.04 395.09 122.78 394.5 122.66C392.81 122.36 391.45 123.14 390.89 124.79C390.69 125.33 390.59 126 390.59 126.72C390.59 123.04 393.2 121.54 396.39 123.4V122.48Z" fill="#7093FF"/>
<path d="M396.39 123.41L396.35 136.81C395.69 136.43 395.05 135.93 394.46 135.34L394.48 131.28L390.93 129.21C390.69 128.37 390.57 127.52 390.59 126.74C390.59 126 390.69 125.35 390.89 124.79L394.5 126.88L394.52 122.66C395.1 122.78 395.74 123.02 396.39 123.4V123.41Z" fill="#7093FF"/>
<path d="M396.39 122.48V123.38C393.2 121.53 390.59 123.04 390.59 126.74C390.59 127.54 390.71 128.39 390.93 129.21C391.51 131.44 392.82 133.71 394.46 135.34C395.06 135.92 395.7 136.42 396.35 136.81V137.71C392.72 135.6 389.77 130.48 389.79 126.28C389.81 122.06 392.76 120.37 396.39 122.48Z" fill="#70D4FF"/>
<path d="M396.39 123.41C397.05 123.79 397.69 124.29 398.28 124.88L398.26 129.1L401.87 131.19C402.05 131.97 402.17 132.74 402.15 133.46C402.15 134.26 402.03 134.97 401.79 135.55L398.26 133.5L398.24 137.56C397.64 137.46 397 137.22 396.35 136.84L396.39 123.42V123.41Z" fill="#70D4FF"/>
<mask id="mask3_116_3487" style="mask-type:luminance" maskUnits="userSpaceOnUse" x="104" y="323" width="148" height="134">
<path d="M252 323H104V457H252V323Z" fill="white"/>
</mask>
<g mask="url(#mask3_116_3487)">
<g opacity="0.1">
<path d="M222.11 409.31L178.6 384.24C172.06 380.49 161.51 380.49 155.03 384.24L111.79 409.31C105.31 413.06 105.34 419.17 111.87 422.93L155.39 448C161.93 451.75 172.48 451.75 178.96 448L222.2 422.93C228.68 419.15 228.66 413.07 222.12 409.31H222.11Z" fill="#4E658D"/>
</g>
<path d="M224.94 397.99C231.8 401.93 231.83 408.35 225.03 412.29L179.63 438.61C172.82 442.55 161.75 442.55 154.88 438.61L109.17 412.29C102.31 408.35 102.28 401.93 109.08 397.99L154.48 371.67C161.29 367.73 172.36 367.73 179.23 371.67L224.94 397.99Z" fill="url(#paint13_linear_116_3487)"/>
<path d="M157.91 415.46L197.26 392.8L198.6 392.44L249.07 406.49L252.01 457L168.82 434.29L157.92 415.46H157.91Z" fill="url(#paint14_linear_116_3487)"/>
<path d="M143.66 395.1L132.6 411.32L138.84 414.98L149.91 398.7L143.66 395.1Z" fill="#93BFE7"/>
<path d="M135.11 390.07L124.04 406.35L127.37 408.32L138.43 392.04L135.1 390.07H135.11Z" fill="#93BFE7"/>
<path d="M122.62 382.75V388.04L125.2 384.31L122.62 382.75Z" fill="#A8D3F4"/>
<path d="M147.06 419.79L168.71 432.48V409.75L158.12 403.51L147.06 419.79Z" fill="#93BFE7"/>
<path d="M151.06 399.37L140 415.65L141.9 416.73L152.97 400.52L151.07 399.37H151.06Z" fill="#93BFE7"/>
<path d="M138.44 392.04L127.38 408.32L132.61 411.31L143.68 395.09L138.45 392.04H138.44Z" fill="#A8D3F4"/>
<path d="M152.96 400.52L141.89 416.73L147.05 419.78L158.11 403.5L152.95 400.52H152.96Z" fill="#A8D3F4"/>
<path d="M149.91 398.69L138.85 414.97L140 415.65L151.06 399.37L149.91 398.69Z" fill="#A8D3F4"/>
<path d="M125.2 384.31L122.62 388.04V405.48L124.04 406.36L135.11 390.08L125.2 384.31Z" fill="#A8D3F4"/>
<path d="M208.22 386.95L168.71 409.75V432.48L208.22 409.68V386.95Z" fill="#79B1DB"/>
<path d="M128.87 409.21L128.6 409.01V381.8H128.87V409.21Z" fill="#79B1DB"/>
<path d="M135.65 413.14L135.38 413V385.12H135.65V413.14Z" fill="#79B1DB"/>
<path d="M142.44 417.08L142.17 416.94V388.72H142.44V417.08Z" fill="#79B1DB"/>
<path d="M149.16 421.01L148.96 420.87V392.03H149.16V421V421.01Z" fill="#79B1DB"/>
<path d="M155.21 424.54L154.94 424.41V396.05H155.21V424.55V424.54Z" fill="#79B1DB"/>
<path d="M161.93 428.48L161.73 428.34V399.57H161.93V428.47V428.48Z" fill="#79B1DB"/>
<path d="M201.77 413.14L202.04 412.94V385.73H201.77V413.14Z" fill="#5B9AC1"/>
<path d="M195.05 417.08L195.25 416.94V389.12H195.05V417.07V417.08Z" fill="#5B9AC1"/>
<path d="M188.26 421.01L188.53 420.87V392.64H188.26V421V421.01Z" fill="#5B9AC1"/>
<path d="M181.48 425.02L181.75 424.82V395.98H181.48V425.02Z" fill="#5B9AC1"/>
<path d="M175.5 428.48L175.77 428.34V399.98H175.5V428.48Z" fill="#5B9AC1"/>
<path d="M168.71 432.48L168.98 432.28V403.51H168.71V432.48Z" fill="#5B9AC1"/>
<path d="M168.71 432.48L168.44 432.28V402.9H168.71V432.48Z" fill="#79B1DB"/>
<path d="M122.62 382.75V384.38L168.71 411.32V409.76L122.62 382.76V382.75Z" fill="#EAF2F6"/>
<path d="M122.62 394.48V395.16L168.71 422.09V421.41L122.62 394.47V394.48Z" fill="#79B1DB"/>
<path d="M208.22 386.95L168.71 409.75V411.24L208.22 388.44V386.95Z" fill="#92A7B1"/>
<path d="M122.62 404.86V407.57L168.71 434.5V431.79L122.62 404.86Z" fill="#EAF2F6"/>
<path d="M208.22 409L168.71 431.8V434.45L208.22 411.65V409Z" fill="#92A7B1"/>
<path d="M208.22 398.62L168.71 421.35V421.96L208.22 399.23V398.62Z" fill="#5B9AC1"/>
<path d="M185.14 373.59L168.1 383.43L144.75 370L122.62 382.76L168.71 409.76L208.22 386.96L185.14 373.59Z" fill="#D8E5ED"/>
<path d="M185.14 374.74L168.17 384.58L144.75 371.08L124.25 382.82L168.71 408.8L206.52 387.09L185.14 374.74Z" fill="#C2D2DC"/>
<path d="M143.67 371.1L132.6 387.32L138.84 390.98L149.91 374.7L143.67 371.1Z" fill="#93BFE7"/>
<path d="M135.11 366.08L124.04 382.36L127.37 384.33L138.43 368.05L135.1 366.08H135.11Z" fill="#93BFE7"/>
<path d="M122.62 358.76V364.05L125.2 360.32L122.62 358.76Z" fill="#A8D3F4"/>
<path d="M147.06 395.8L168.71 408.49V385.76L158.12 379.52L147.05 395.8H147.06Z" fill="#93BFE7"/>
<path d="M151.07 375.38L140 391.66L141.9 392.75L152.97 376.53L151.07 375.38Z" fill="#93BFE7"/>
<path d="M138.44 368.05L127.38 384.33L132.61 387.31L143.68 371.09L138.45 368.04L138.44 368.05Z" fill="#A8D3F4"/>
<path d="M152.97 376.53L141.9 392.74L147.06 395.79L158.12 379.51L152.96 376.53H152.97Z" fill="#A8D3F4"/>
<path d="M149.91 374.7L138.84 390.98L140 391.66L151.06 375.38L149.91 374.7Z" fill="#A8D3F4"/>
<path d="M125.2 360.32L122.62 364.05V381.49L124.05 382.37L135.11 366.09L125.2 360.32Z" fill="#A8D3F4"/>
<path d="M208.22 362.96L168.71 385.76V408.49L208.22 385.69V362.96Z" fill="#79B1DB"/>
<path d="M128.87 385.22L128.6 385.02V357.81H128.87V385.22Z" fill="#79B1DB"/>
<path d="M135.66 389.15L135.39 389.01V361.12H135.66V389.14V389.15Z" fill="#79B1DB"/>
<path d="M142.44 393.09L142.17 392.95V364.73H142.44V393.09Z" fill="#79B1DB"/>
<path d="M149.16 397.02L148.96 396.88V368.04H149.16V397.01V397.02Z" fill="#79B1DB"/>
<path d="M155.21 400.55L154.94 400.41V372.05H155.21V400.55Z" fill="#79B1DB"/>
<path d="M161.93 404.48L161.73 404.34V375.57H161.93V404.47V404.48Z" fill="#79B1DB"/>
<path d="M201.77 389.15L202.04 388.95V361.74H201.77V389.15Z" fill="#5B9AC1"/>
<path d="M195.05 393.09L195.25 392.95V365.13H195.05V393.08V393.09Z" fill="#5B9AC1"/>
<path d="M188.26 397.02L188.53 396.88V368.66H188.26V397.02Z" fill="#5B9AC1"/>
<path d="M181.48 401.02L181.75 400.82V371.98H181.48V401.02Z" fill="#5B9AC1"/>
<path d="M175.5 404.48L175.77 404.34V375.98H175.5V404.48Z" fill="#5B9AC1"/>
<path d="M168.71 408.49L168.98 408.29V379.52H168.71V408.49Z" fill="#5B9AC1"/>
<path d="M168.71 408.49L168.44 408.29V378.91H168.71V408.49Z" fill="#79B1DB"/>
<path d="M122.62 358.76V360.39L168.71 387.33V385.77L122.62 358.77V358.76Z" fill="#EAF2F6"/>
<path d="M122.62 370.49V371.17L168.71 398.11V397.43L122.62 370.49Z" fill="#79B1DB"/>
<path d="M208.22 362.96L168.71 385.76V387.25L208.22 364.45V362.96Z" fill="#92A7B1"/>
<path d="M122.62 380.87V383.58L168.71 410.52V407.81L122.62 380.88V380.87Z" fill="#EAF2F6"/>
<path d="M208.22 385.01L168.71 407.81V410.46L208.22 387.66V385.01Z" fill="#92A7B1"/>
<path d="M208.22 374.63L168.71 397.36V397.97L208.22 375.24V374.63Z" fill="#5B9AC1"/>
<path d="M185.14 349.6L168.1 359.44L144.75 346.01L122.62 358.77L168.71 385.77L208.22 362.97L185.14 349.6Z" fill="#D8E5ED"/>
<path d="M185.14 350.75L168.17 360.59L144.75 347.09L124.25 358.83L168.71 384.82L206.52 363.11L185.14 350.76V350.75Z" fill="#C2D2DC"/>
<path d="M138.91 360.86L135.92 362.56V360.86L138.91 359.16V360.86Z" fill="#92A7B1"/>
<path d="M131.38 359.91L135.93 362.56V360.86L131.38 358.21V359.91Z" fill="#D8E5ED"/>
<path d="M134.37 356.52L131.38 358.22L135.93 360.87L138.92 359.17L134.37 356.52Z" fill="#C2D2DC"/>
<path d="M133.01 358.35C133.01 357.87 133.76 357.47 134.64 357.47C135.52 357.47 136.27 357.88 136.27 358.35C136.27 358.82 135.52 359.23 134.64 359.23C133.69 359.23 133.01 358.82 133.01 358.35Z" fill="#5A678B"/>
<path d="M133.55 358.28C133.55 358.01 134.02 357.74 134.57 357.74C135.12 357.74 135.59 358.01 135.59 358.28C135.59 358.55 135.12 358.82 134.57 358.82C134.02 358.82 133.55 358.62 133.55 358.28Z" fill="#3D94D3"/>
<path d="M145.23 357.26L142.31 358.96V357.26L145.23 355.56V357.26Z" fill="#92A7B1"/>
<path d="M137.76 356.31L142.31 358.96V357.26L137.76 354.61V356.31Z" fill="#D8E5ED"/>
<path d="M140.68 352.92L137.76 354.62L142.31 357.27L145.23 355.57L140.68 352.92Z" fill="#C2D2DC"/>
<path d="M139.32 354.75C139.32 354.27 140.07 353.87 140.95 353.87C141.83 353.87 142.58 354.28 142.58 354.75C142.58 355.22 141.83 355.63 140.95 355.63C140 355.63 139.32 355.22 139.32 354.75Z" fill="#5A678B"/>
<path d="M140.88 355.3C141.44 355.3 141.9 355.06 141.9 354.76C141.9 354.46 141.44 354.22 140.88 354.22C140.32 354.22 139.86 354.46 139.86 354.76C139.86 355.06 140.32 355.3 140.88 355.3Z" fill="#3D94D3"/>
<path d="M151.13 353.94L148.14 355.64V353.94L151.13 352.24V353.94Z" fill="#92A7B1"/>
<path d="M143.6 352.99L148.15 355.64V353.94L143.6 351.29V352.99Z" fill="#D8E5ED"/>
<path d="M146.59 349.6L143.6 351.3L148.15 353.95L151.14 352.25L146.59 349.6Z" fill="#C2D2DC"/>
<path d="M145.16 351.43C145.16 350.95 145.91 350.55 146.79 350.55C147.67 350.62 148.42 350.96 148.42 351.43C148.42 351.9 147.67 352.31 146.79 352.31C145.91 352.31 145.16 351.9 145.16 351.43Z" fill="#5A678B"/>
<path d="M146.79 351.9C147.35 351.9 147.81 351.66 147.81 351.36C147.81 351.06 147.35 350.82 146.79 350.82C146.23 350.82 145.77 351.06 145.77 351.36C145.77 351.66 146.23 351.9 146.79 351.9Z" fill="#3D94D3"/>
<path d="M195.05 358.96L182.83 365.88L188.33 369.07L200.55 362.15L195.05 358.96Z" fill="#D8E5ED"/>
<path d="M200.55 363.64L188.33 370.56V369.07L200.55 362.08V363.64Z" fill="#92A7B1"/>
<path d="M182.83 367.44L188.33 370.56V369.07L182.83 365.88V367.44Z" fill="#D8E5ED"/>
<path d="M176.79 369.14L164.57 376.06L170 379.25L182.22 372.33L176.79 369.14Z" fill="#D8E5ED"/>
<path d="M182.22 373.82L170 380.74V379.25L182.22 372.26V373.82Z" fill="#92A7B1"/>
<path d="M164.57 377.62L170 380.74V379.25L164.57 376.06V377.62Z" fill="#D8E5ED"/>
<path d="M139.09 372.67L150.48 364.66L151.03 364.51L179.82 373.98L177.27 394.29L150.48 385.4L138.81 378.39L139.09 372.66V372.67Z" fill="url(#paint15_linear_116_3487)"/>
<path d="M154.41 385.66L153.74 386.04C154.43 385.64 154.85 384.79 154.85 383.6L155.52 383.22C155.5 384.41 155.08 385.25 154.4 385.66H154.41Z" fill="#243F6D"/>
<path d="M136.64 356.54L137.31 356.16C138 355.76 138.96 355.81 140.02 356.43L139.35 356.81C138.29 356.2 137.33 356.14 136.64 356.54Z" fill="#243F6D"/>
<path d="M154.88 370.15L155.57 369.75L155.53 383.2L154.84 383.6L154.88 370.15Z" fill="#243F6D"/>
<path d="M139.35 356.81L140.04 356.41L151.76 363.17L151.07 363.57L139.35 356.81Z" fill="#243F6D"/>
<path d="M151.07 363.57C153.18 364.78 154.87 367.73 154.87 370.15L154.83 383.6C154.83 386.02 153.1 387 151.01 385.79L139.29 379.03C137.18 377.8 135.49 374.85 135.49 372.43L135.53 358.98C135.53 356.56 137.26 355.58 139.35 356.79L151.07 363.56V363.57Z" fill="#4D648D"/>
<path d="M151.07 363.57C153.18 364.78 154.87 367.73 154.87 370.15L154.83 383.6C154.83 386.02 153.1 387 151.01 385.79L139.29 379.03C137.18 377.8 135.49 374.85 135.49 372.43L135.53 358.98C135.53 356.56 137.26 355.58 139.35 356.79L151.07 363.56V363.57Z" fill="url(#paint16_linear_116_3487)"/>
<path d="M151.07 363.57L151.74 363.19C153.85 364.4 155.54 367.35 155.54 369.77L154.87 370.15C154.89 367.73 153.18 364.78 151.07 363.57Z" fill="#243F6D"/>
<path d="M144.39 363.48C148.02 365.59 150.95 370.71 150.95 374.93C150.93 379.13 147.98 380.84 144.35 378.73V377.83C145.01 378.21 145.65 378.45 146.24 378.55C147.89 378.85 149.19 378.11 149.81 376.56C150.03 375.98 150.17 375.27 150.17 374.47C150.17 373.73 150.07 372.96 149.89 372.2C149.33 369.89 148 367.54 146.3 365.89C145.7 365.31 145.06 364.81 144.41 364.42C143.75 364.04 143.09 363.78 142.5 363.66C140.81 363.36 139.45 364.14 138.89 365.79C138.69 366.33 138.59 367 138.59 367.72C138.59 364.04 141.2 362.54 144.39 364.4V363.48Z" fill="#7093FF"/>
<path d="M144.39 364.41L144.35 377.81C143.69 377.43 143.06 376.93 142.46 376.34L142.48 372.28L138.93 370.21C138.69 369.37 138.57 368.52 138.59 367.74C138.59 367 138.69 366.35 138.89 365.79L142.5 367.88L142.52 363.66C143.1 363.78 143.74 364.02 144.39 364.4V364.41Z" fill="#7093FF"/>
<path d="M144.39 363.48V364.38C141.2 362.53 138.59 364.04 138.59 367.74C138.59 368.54 138.71 369.39 138.93 370.21C139.51 372.44 140.82 374.71 142.46 376.34C143.06 376.92 143.7 377.42 144.35 377.81V378.71C140.72 376.6 137.77 371.48 137.79 367.28C137.81 363.06 140.76 361.37 144.39 363.48Z" fill="#70D4FF"/>
<path d="M144.4 364.41C145.06 364.79 145.69 365.29 146.29 365.88L146.27 370.1L149.88 372.19C150.06 372.97 150.18 373.74 150.16 374.46C150.16 375.26 150.04 375.97 149.8 376.55L146.27 374.5L146.25 378.56C145.65 378.46 145.01 378.22 144.36 377.84L144.4 364.42V364.41Z" fill="#70D4FF"/>
</g>
<path d="M424.08 320.9C424.08 320.9 424.24 320.53 424.18 319.78C424.16 319.61 424.18 319.41 424.24 319.27L424.28 319.11L424.65 319.04C424.65 319.04 425.95 320.49 425.56 321.78L424.08 320.91V320.9Z" fill="#F9F8F8"/>
<path opacity="0.24" d="M178.02 290.43L197.82 292.51" stroke="#F0FBFF" stroke-width="0.25" stroke-miterlimit="10" stroke-linecap="round"/>
<path d="M287.82 325.87C283.732 323.524 283.198 317.839 286.776 314.771L305.028 299.124C312.698 292.549 323.682 291.532 332.429 296.587L335.48 298.35" fill="black" fill-opacity="0.05"/>
<path d="M260.89 191.43L265.55 188.73L265.53 194.96L260.88 197.67L260.89 191.43Z" fill="#DB932D"/>
<path d="M232.26 131.2L236.92 128.49C235.25 129.46 234.22 131.52 234.21 134.44C234.15 154.36 248.21 178.71 265.55 188.72L260.89 191.43C243.55 181.42 229.49 157.07 229.55 137.15C229.55 134.23 230.59 132.17 232.26 131.2Z" fill="#BA943F"/>
<path d="M228.42 124.59L233.08 121.88C235.76 120.32 239.46 120.54 243.54 122.9L238.88 125.61C234.8 123.25 231.1 123.04 228.42 124.59Z" fill="#EDB927"/>
<path d="M238.88 125.61C245.45 129.4 250.77 138.63 250.75 146.17L245.32 143.04C245.33 138.93 242.43 133.91 238.86 131.84C233.74 128.89 229.57 131.27 229.55 137.15C229.49 157.07 243.55 181.42 260.89 191.43L260.87 197.67C240.54 185.93 224.05 157.38 224.12 134.02C224.15 124.7 230.77 120.93 238.88 125.61Z" fill="#E5BC55"/>
<path d="M238.88 125.61L243.54 122.9C250.11 126.69 255.43 135.92 255.41 143.46L250.75 146.17C250.77 138.62 245.45 129.4 238.88 125.61Z" fill="#EDB927"/>
<path d="M240.45 299.32L282.7 323.71L324.96 299.32V274.92H240.45V299.32Z" fill="#CFD3DE"/>
<path d="M240.45 274.92L282.7 299.32L324.96 274.92L282.7 250.53L240.45 274.92Z" fill="#E9ECF5"/>
<path d="M274.35 299.75V313.01L245.79 296.52V283.26L274.35 299.75Z" fill="#E9ECF5"/>
<path d="M309.31 272.37C309.31 280.52 297.4 287.12 282.71 287.12C268.02 287.12 256.11 280.52 256.11 272.37C256.11 271.02 256.44 269.71 257.05 268.47L257.12 268.33L262.77 256.29H302.67L308.31 268.33L308.38 268.47C309 269.71 309.32 271.02 309.32 272.37H309.31Z" fill="#E0BB55"/>
<path d="M282.7 269.79C293.933 269.79 303.04 264.74 303.04 258.51C303.04 252.28 293.933 247.23 282.7 247.23C271.466 247.23 262.36 252.28 262.36 258.51C262.36 264.74 271.466 269.79 282.7 269.79Z" fill="#FACC3A"/>
<path d="M296.79 257.06C296.79 261.38 290.48 264.87 282.71 264.87C274.94 264.87 268.63 261.37 268.63 257.06C268.63 255.48 269.47 254.01 270.93 252.78C275.53 248.89 278.02 243.04 278.02 237.01V227.31H287.41V237.01C287.41 243.04 289.9 248.89 294.5 252.78C295.95 254.01 296.8 255.48 296.8 257.06H296.79Z" fill="#BA943F"/>
<path d="M328.44 147.77C328.44 195.88 308.35 233.57 282.71 233.57C257.07 233.57 236.98 195.88 236.98 147.77H328.44Z" fill="#E0BB55"/>
<path d="M282.7 174.68C307.956 174.68 328.43 162.632 328.43 147.77C328.43 132.908 307.956 120.86 282.7 120.86C257.444 120.86 236.97 132.908 236.97 147.77C236.97 162.632 257.444 174.68 282.7 174.68Z" fill="#EAC468"/>
<path d="M282.7 171.2C306.034 171.2 324.95 160.71 324.95 147.77C324.95 134.83 306.034 124.34 282.7 124.34C259.366 124.34 240.45 134.83 240.45 147.77C240.45 160.71 259.366 171.2 282.7 171.2Z" fill="#BA943F"/>
<path d="M330.76 208.18L326.1 210.89C320.38 214.21 312.46 213.75 303.74 208.72L308.4 206.01C317.12 211.05 325.04 211.51 330.76 208.18Z" fill="#EDB927"/>
<path d="M321.43 174.27L326.09 171.56C324.93 172.24 324.2 173.68 324.2 175.72L319.54 178.43C319.54 176.39 320.27 174.95 321.43 174.27Z" fill="#EDB927"/>
<path d="M317.58 167.66L322.24 164.95C324.41 163.69 327.41 163.86 330.71 165.77L326.05 168.48C322.74 166.57 319.75 166.4 317.58 167.66Z" fill="#EDB927"/>
<path d="M334.61 214.8L329.95 217.51C336.57 213.66 340.68 205.49 340.72 193.88C340.75 184.56 334.17 173.17 326.06 168.49L330.72 165.78C338.83 170.46 345.41 181.85 345.38 191.17C345.35 202.77 341.24 210.95 334.61 214.8Z" fill="#BA943F"/>
<path d="M326.06 168.48C334.17 173.16 340.75 184.55 340.72 193.87C340.65 217.23 324.06 226.68 303.73 214.95L303.75 208.71C321.09 218.72 335.24 210.66 335.29 190.73C335.31 184.85 331.16 177.66 326.04 174.71C322.47 172.65 319.55 174.31 319.54 178.42L314.11 175.29C314.13 167.74 319.49 164.69 326.06 168.48Z" fill="#E5BC55"/>
<path d="M265.43 176.27C256.3 175 248.91 181.94 248.93 191.78C248.93 194.24 249.4 196.65 250.24 198.9C251.71 202.83 254.33 206.28 257.61 208.65C259.96 210.35 262.64 211.5 265.5 211.9C268.35 212.3 271.04 211.9 273.38 210.85C274.32 210.43 275.2 209.91 276.01 209.3C276.42 208.99 276.81 208.67 277.18 208.32C277.93 207.62 278.6 206.83 279.19 205.96C279.49 205.53 279.76 205.08 280.01 204.61C280.77 203.2 281.33 201.63 281.66 199.94C281.77 199.37 281.85 198.8 281.91 198.2C281.97 197.61 281.99 197 281.99 196.39L282.05 196.36C282.03 186.52 274.68 177.48 265.63 176.16C265.56 176.2 265.49 176.24 265.42 176.27H265.43Z" fill="#CCD6ED"/>
<path d="M263.55 177.78C254.42 176.51 247.03 183.45 247.05 193.29C247.05 195.75 247.52 198.16 248.36 200.41C249.83 204.34 252.44 207.79 255.73 210.17C258.08 211.87 260.76 213.02 263.62 213.42C266.47 213.82 269.16 213.42 271.5 212.37C272.44 211.95 273.32 211.43 274.13 210.82C274.54 210.51 274.93 210.18 275.3 209.83C276.05 209.13 276.72 208.34 277.31 207.47C277.6 207.04 277.88 206.59 278.13 206.12C278.89 204.71 279.45 203.14 279.78 201.45C279.89 200.88 279.97 200.31 280.03 199.71C280.09 199.12 280.11 198.51 280.11 197.9L280.17 197.87C280.15 188.03 272.8 178.99 263.75 177.67C263.68 177.71 263.61 177.74 263.54 177.78H263.55Z" fill="url(#paint17_linear_116_3487)"/>
<path d="M263.63 199.17L263.38 198.42V191.25C263.46 191.3 263.54 191.34 263.62 191.4L263.6 181.27C256.53 180.24 250.82 185.71 250.83 193.49C250.84 201.27 256.58 208.41 263.65 209.44L263.63 199.16V199.17Z" fill="#4D648D"/>
<path d="M263.55 181.41C263.5 181.41 263.44 181.4 263.39 181.39L263.41 190.58H263.38V201.2H263.43L263.45 209.56C263.5 209.56 263.56 209.57 263.61 209.58C270.83 210.59 276.67 205.1 276.66 197.32C276.65 189.54 270.78 182.42 263.56 181.41H263.55Z" fill="#243F6D"/>
<path d="M264.91 190.38C265.12 190.38 265.32 190.41 265.52 190.49C266.36 190.84 266.67 191.89 266.21 192.84L262.79 199.82L262.56 200.3C262.2 201.03 261.49 201.48 260.8 201.49C260.59 201.49 260.39 201.46 260.19 201.38C259.35 201.03 259.04 199.98 259.5 199.03L263.15 191.57C263.34 191.19 263.62 190.89 263.94 190.68C264.24 190.49 264.57 190.38 264.91 190.38Z" fill="white"/>
<path d="M259.74 191.51C259.95 191.51 260.15 191.54 260.35 191.62C261.19 191.97 261.5 193.02 261.04 193.97L257.95 200.26C257.59 200.99 256.88 201.44 256.19 201.45C255.98 201.45 255.78 201.42 255.58 201.34C254.74 200.99 254.43 199.94 254.89 198.99L257.98 192.69C258.34 191.96 259.05 191.51 259.74 191.5V191.51Z" fill="white"/>
<path d="M270.67 189.6C270.48 189.52 270.27 189.48 270.06 189.49C269.37 189.49 268.66 189.95 268.3 190.68L264.15 199.15C263.69 200.09 263.99 201.15 264.84 201.5C265.03 201.58 265.24 201.62 265.45 201.61C266.14 201.61 266.85 201.15 267.21 200.42L271.36 191.95C271.82 191.01 271.51 189.95 270.67 189.6Z" fill="white"/>
<path d="M293.5 317L283.5 300L326 277V295L371 280.5L376.5 314L343.5 341L293.5 317Z" fill="url(#paint18_linear_116_3487)" fill-opacity="0.15"/>
</g>
<defs>
<linearGradient id="paint0_linear_116_3487" x1="284.75" y1="470" x2="284.75" y2="94" gradientUnits="userSpaceOnUse">
<stop stop-color="#D9E2FF"/>
<stop offset="0.49" stop-color="#FDFDFD"/>
<stop offset="1" stop-color="white"/>
</linearGradient>
<linearGradient id="paint1_linear_116_3487" x1="146.39" y1="211.9" x2="114.41" y2="149.64" gradientUnits="userSpaceOnUse">
<stop stop-color="#F4F8FE"/>
<stop offset="1" stop-color="white"/>
</linearGradient>
<linearGradient id="paint2_linear_116_3487" x1="157.67" y1="224.69" x2="219.91" y2="237.53" gradientUnits="userSpaceOnUse">
<stop stop-color="#4D648D" stop-opacity="0.48"/>
<stop offset="1" stop-color="white" stop-opacity="0"/>
</linearGradient>
<linearGradient id="paint3_linear_116_3487" x1="122.76" y1="162.67" x2="155.13" y2="168.07" gradientUnits="userSpaceOnUse">
<stop offset="0.13" stop-color="#4D648D" stop-opacity="0.48"/>
<stop offset="1" stop-color="white" stop-opacity="0"/>
</linearGradient>
<linearGradient id="paint4_linear_116_3487" x1="117.96" y1="138.76" x2="123.51" y2="151.94" gradientUnits="userSpaceOnUse">
<stop stop-color="#7093FF"/>
<stop offset="1" stop-color="#243F6D"/>
</linearGradient>
<linearGradient id="paint5_linear_116_3487" x1="402.39" y1="405.9" x2="370.41" y2="343.64" gradientUnits="userSpaceOnUse">
<stop stop-color="#F4F8FE"/>
<stop offset="1" stop-color="white"/>
</linearGradient>
<linearGradient id="paint6_linear_116_3487" x1="413.67" y1="418.69" x2="475.91" y2="431.53" gradientUnits="userSpaceOnUse">
<stop stop-color="#4D648D" stop-opacity="0.48"/>
<stop offset="1" stop-color="white" stop-opacity="0"/>
</linearGradient>
<linearGradient id="paint7_linear_116_3487" x1="378.76" y1="379.67" x2="411.13" y2="385.07" gradientUnits="userSpaceOnUse">
<stop offset="0.13" stop-color="#4D648D" stop-opacity="0.48"/>
<stop offset="1" stop-color="white" stop-opacity="0"/>
</linearGradient>
<linearGradient id="paint8_linear_116_3487" x1="373.96" y1="355.76" x2="379.51" y2="368.94" gradientUnits="userSpaceOnUse">
<stop stop-color="#7093FF"/>
<stop offset="1" stop-color="#243F6D"/>
</linearGradient>
<linearGradient id="paint9_linear_116_3487" x1="417.39" y1="206.9" x2="385.41" y2="144.64" gradientUnits="userSpaceOnUse">
<stop stop-color="#F4F8FE"/>
<stop offset="1" stop-color="white"/>
</linearGradient>
<linearGradient id="paint10_linear_116_3487" x1="428.67" y1="219.69" x2="490.91" y2="232.53" gradientUnits="userSpaceOnUse">
<stop stop-color="#4D648D" stop-opacity="0.48"/>
<stop offset="1" stop-color="white" stop-opacity="0"/>
</linearGradient>
<linearGradient id="paint11_linear_116_3487" x1="393.76" y1="134.67" x2="426.13" y2="140.07" gradientUnits="userSpaceOnUse">
<stop offset="0.13" stop-color="#4D648D" stop-opacity="0.48"/>
<stop offset="1" stop-color="white" stop-opacity="0"/>
</linearGradient>
<linearGradient id="paint12_linear_116_3487" x1="388.96" y1="110.76" x2="394.51" y2="123.94" gradientUnits="userSpaceOnUse">
<stop stop-color="#7093FF"/>
<stop offset="1" stop-color="#243F6D"/>
</linearGradient>
<linearGradient id="paint13_linear_116_3487" x1="165.39" y1="401.9" x2="133.41" y2="339.64" gradientUnits="userSpaceOnUse">
<stop stop-color="#F4F8FE"/>
<stop offset="1" stop-color="white"/>
</linearGradient>
<linearGradient id="paint14_linear_116_3487" x1="176.67" y1="414.69" x2="238.91" y2="427.53" gradientUnits="userSpaceOnUse">
<stop stop-color="#4D648D" stop-opacity="0.48"/>
<stop offset="1" stop-color="white" stop-opacity="0"/>
</linearGradient>
<linearGradient id="paint15_linear_116_3487" x1="141.76" y1="375.67" x2="174.13" y2="381.07" gradientUnits="userSpaceOnUse">
<stop offset="0.13" stop-color="#4D648D" stop-opacity="0.48"/>
<stop offset="1" stop-color="white" stop-opacity="0"/>
</linearGradient>
<linearGradient id="paint16_linear_116_3487" x1="136.96" y1="351.76" x2="142.51" y2="364.94" gradientUnits="userSpaceOnUse">
<stop stop-color="#7093FF"/>
<stop offset="1" stop-color="#243F6D"/>
</linearGradient>
<linearGradient id="paint17_linear_116_3487" x1="280.17" y1="195.6" x2="247.04" y2="195.6" gradientUnits="userSpaceOnUse">
<stop stop-color="#E2E9FF"/>
<stop offset="1" stop-color="#F3F6FF"/>
</linearGradient>
<linearGradient id="paint18_linear_116_3487" x1="300.5" y1="290.5" x2="368.5" y2="318" gradientUnits="userSpaceOnUse">
<stop/>
<stop offset="1" stop-color="white" stop-opacity="0"/>
</linearGradient>
<clipPath id="clip0_116_3487">
<rect width="504" height="470" fill="white"/>
</clipPath>
</defs>
</svg>
