<svg width="600" height="544" viewBox="0 0 600 544" fill="none" xmlns="http://www.w3.org/2000/svg">
<mask id="mask0_158_478" style="mask-type:luminance" maskUnits="userSpaceOnUse" x="0" y="0" width="216" height="397">
<path d="M215.01 0H0V397H215.01V0Z" fill="white"/>
</mask>
<g mask="url(#mask0_158_478)">
<path d="M1.35 2.7C2.09 2.7 2.7 2.1 2.7 1.35C2.7 0.6 2.09 0 1.35 0C0.61 0 0 0.6 0 1.35C0 2.1 0.6 2.7 1.35 2.7Z" fill="#71869D"/>
<path d="M31.6801 2.7C32.4201 2.7 33.0301 2.1 33.0301 1.35C33.0301 0.6 32.4301 0 31.6801 0C30.9301 0 30.3301 0.6 30.3301 1.35C30.3301 2.1 30.9301 2.7 31.6801 2.7Z" fill="#71869D"/>
<path d="M62.0102 2.7C62.7502 2.7 63.3602 2.1 63.3602 1.35C63.3602 0.6 62.7602 0 62.0102 0C61.2602 0 60.6602 0.6 60.6602 1.35C60.6602 2.1 61.2602 2.7 62.0102 2.7Z" fill="#71869D"/>
<path d="M92.3402 2.7C93.0802 2.7 93.6902 2.1 93.6902 1.35C93.6902 0.6 93.0902 0 92.3402 0C91.5902 0 90.9902 0.6 90.9902 1.35C90.9902 2.1 91.5902 2.7 92.3402 2.7Z" fill="#71869D"/>
<path d="M122.67 2.7C123.42 2.7 124.02 2.1 124.02 1.35C124.02 0.6 123.42 0 122.67 0C121.92 0 121.32 0.6 121.32 1.35C121.32 2.1 121.92 2.7 122.67 2.7Z" fill="#71869D"/>
<path d="M153 2.7C153.74 2.7 154.35 2.1 154.35 1.35C154.35 0.6 153.75 0 153 0C152.25 0 151.65 0.6 151.65 1.35C151.65 2.1 152.25 2.7 153 2.7Z" fill="#71869D"/>
<path d="M1.35 33.0301C2.09 33.0301 2.7 32.4301 2.7 31.6801C2.7 30.9301 2.1 30.3301 1.35 30.3301C0.6 30.3301 0 30.9301 0 31.6801C0 32.4301 0.6 33.0301 1.35 33.0301Z" fill="#71869D"/>
<path d="M31.6801 33.0301C32.4201 33.0301 33.0301 32.4301 33.0301 31.6801C33.0301 30.9301 32.4301 30.3301 31.6801 30.3301C30.9301 30.3301 30.3301 30.9301 30.3301 31.6801C30.3301 32.4301 30.9301 33.0301 31.6801 33.0301Z" fill="#71869D"/>
<path d="M62.0102 33.0301C62.7502 33.0301 63.3602 32.4301 63.3602 31.6801C63.3602 30.9301 62.7602 30.3301 62.0102 30.3301C61.2602 30.3301 60.6602 30.9301 60.6602 31.6801C60.6602 32.4301 61.2602 33.0301 62.0102 33.0301Z" fill="#71869D"/>
<path d="M92.3402 33.0301C93.0802 33.0301 93.6902 32.4301 93.6902 31.6801C93.6902 30.9301 93.0902 30.3301 92.3402 30.3301C91.5902 30.3301 90.9902 30.9301 90.9902 31.6801C90.9902 32.4301 91.5902 33.0301 92.3402 33.0301Z" fill="#71869D"/>
<path d="M122.67 33.0301C123.42 33.0301 124.02 32.4301 124.02 31.6801C124.02 30.9301 123.42 30.3301 122.67 30.3301C121.92 30.3301 121.32 30.9301 121.32 31.6801C121.32 32.4301 121.92 33.0301 122.67 33.0301Z" fill="#71869D"/>
<path d="M153 33.0301C153.74 33.0301 154.35 32.4301 154.35 31.6801C154.35 30.9301 153.75 30.3301 153 30.3301C152.25 30.3301 151.65 30.9301 151.65 31.6801C151.65 32.4301 152.25 33.0301 153 33.0301Z" fill="#71869D"/>
<path d="M1.35 63.3599C2.09 63.3599 2.7 62.7599 2.7 62.0099C2.7 61.2599 2.1 60.6599 1.35 60.6599C0.6 60.6599 0 61.2599 0 62.0099C0 62.7599 0.6 63.3599 1.35 63.3599Z" fill="#71869D"/>
<path d="M31.6801 63.3599C32.4201 63.3599 33.0301 62.7599 33.0301 62.0099C33.0301 61.2599 32.4301 60.6599 31.6801 60.6599C30.9301 60.6599 30.3301 61.2599 30.3301 62.0099C30.3301 62.7599 30.9301 63.3599 31.6801 63.3599Z" fill="#71869D"/>
<path d="M62.0102 63.3599C62.7502 63.3599 63.3602 62.7599 63.3602 62.0099C63.3602 61.2599 62.7602 60.6599 62.0102 60.6599C61.2602 60.6599 60.6602 61.2599 60.6602 62.0099C60.6602 62.7599 61.2602 63.3599 62.0102 63.3599Z" fill="#71869D"/>
<path d="M92.3402 63.3599C93.0802 63.3599 93.6902 62.7599 93.6902 62.0099C93.6902 61.2599 93.0902 60.6599 92.3402 60.6599C91.5902 60.6599 90.9902 61.2599 90.9902 62.0099C90.9902 62.7599 91.5902 63.3599 92.3402 63.3599Z" fill="#71869D"/>
<path d="M122.67 63.3599C123.42 63.3599 124.02 62.7599 124.02 62.0099C124.02 61.2599 123.42 60.6599 122.67 60.6599C121.92 60.6599 121.32 61.2599 121.32 62.0099C121.32 62.7599 121.92 63.3599 122.67 63.3599Z" fill="#71869D"/>
<path d="M153 63.3599C153.74 63.3599 154.35 62.7599 154.35 62.0099C154.35 61.2599 153.75 60.6599 153 60.6599C152.25 60.6599 151.65 61.2599 151.65 62.0099C151.65 62.7599 152.25 63.3599 153 63.3599Z" fill="#71869D"/>
<path d="M1.35 93.69C2.09 93.69 2.7 93.09 2.7 92.34C2.7 91.59 2.1 90.99 1.35 90.99C0.6 90.99 0 91.59 0 92.34C0 93.09 0.6 93.69 1.35 93.69Z" fill="#71869D"/>
<path d="M31.6801 93.69C32.4201 93.69 33.0301 93.09 33.0301 92.34C33.0301 91.59 32.4301 90.99 31.6801 90.99C30.9301 90.99 30.3301 91.59 30.3301 92.34C30.3301 93.09 30.9301 93.69 31.6801 93.69Z" fill="#71869D"/>
<path d="M62.0102 93.69C62.7502 93.69 63.3602 93.09 63.3602 92.34C63.3602 91.59 62.7602 90.99 62.0102 90.99C61.2602 90.99 60.6602 91.59 60.6602 92.34C60.6602 93.09 61.2602 93.69 62.0102 93.69Z" fill="#71869D"/>
<path d="M92.3402 93.69C93.0802 93.69 93.6902 93.09 93.6902 92.34C93.6902 91.59 93.0902 90.99 92.3402 90.99C91.5902 90.99 90.9902 91.59 90.9902 92.34C90.9902 93.09 91.5902 93.69 92.3402 93.69Z" fill="#71869D"/>
<path d="M122.67 93.69C123.42 93.69 124.02 93.09 124.02 92.34C124.02 91.59 123.42 90.99 122.67 90.99C121.92 90.99 121.32 91.59 121.32 92.34C121.32 93.09 121.92 93.69 122.67 93.69Z" fill="#71869D"/>
<path d="M153 93.69C153.74 93.69 154.35 93.09 154.35 92.34C154.35 91.59 153.75 90.99 153 90.99C152.25 90.99 151.65 91.59 151.65 92.34C151.65 93.09 152.25 93.69 153 93.69Z" fill="#71869D"/>
<path d="M1.35 124.02C2.09 124.02 2.7 123.42 2.7 122.67C2.7 121.92 2.1 121.32 1.35 121.32C0.6 121.32 0 121.92 0 122.67C0 123.42 0.6 124.02 1.35 124.02Z" fill="#71869D"/>
<path d="M31.6801 124.02C32.4201 124.02 33.0301 123.42 33.0301 122.67C33.0301 121.92 32.4301 121.32 31.6801 121.32C30.9301 121.32 30.3301 121.92 30.3301 122.67C30.3301 123.42 30.9301 124.02 31.6801 124.02Z" fill="#71869D"/>
<path d="M62.0102 124.02C62.7502 124.02 63.3602 123.42 63.3602 122.67C63.3602 121.92 62.7602 121.32 62.0102 121.32C61.2602 121.32 60.6602 121.92 60.6602 122.67C60.6602 123.42 61.2602 124.02 62.0102 124.02Z" fill="#71869D"/>
<path d="M92.3402 124.02C93.0802 124.02 93.6902 123.42 93.6902 122.67C93.6902 121.92 93.0902 121.32 92.3402 121.32C91.5902 121.32 90.9902 121.92 90.9902 122.67C90.9902 123.42 91.5902 124.02 92.3402 124.02Z" fill="#71869D"/>
<path d="M122.67 124.02C123.42 124.02 124.02 123.42 124.02 122.67C124.02 121.92 123.42 121.32 122.67 121.32C121.92 121.32 121.32 121.92 121.32 122.67C121.32 123.42 121.92 124.02 122.67 124.02Z" fill="#71869D"/>
<path d="M153 124.02C153.74 124.02 154.35 123.42 154.35 122.67C154.35 121.92 153.75 121.32 153 121.32C152.25 121.32 151.65 121.92 151.65 122.67C151.65 123.42 152.25 124.02 153 124.02Z" fill="#71869D"/>
<path d="M1.35 154.35C2.09 154.35 2.7 153.75 2.7 153C2.7 152.25 2.1 151.65 1.35 151.65C0.6 151.65 0 152.25 0 153C0 153.75 0.6 154.35 1.35 154.35Z" fill="#71869D"/>
<path d="M31.6801 154.35C32.4201 154.35 33.0301 153.75 33.0301 153C33.0301 152.25 32.4301 151.65 31.6801 151.65C30.9301 151.65 30.3301 152.25 30.3301 153C30.3301 153.75 30.9301 154.35 31.6801 154.35Z" fill="#71869D"/>
<path d="M62.0102 154.35C62.7502 154.35 63.3602 153.75 63.3602 153C63.3602 152.25 62.7602 151.65 62.0102 151.65C61.2602 151.65 60.6602 152.25 60.6602 153C60.6602 153.75 61.2602 154.35 62.0102 154.35Z" fill="#71869D"/>
<path d="M92.3402 154.35C93.0802 154.35 93.6902 153.75 93.6902 153C93.6902 152.25 93.0902 151.65 92.3402 151.65C91.5902 151.65 90.9902 152.25 90.9902 153C90.9902 153.75 91.5902 154.35 92.3402 154.35Z" fill="#71869D"/>
<path d="M122.67 154.35C123.42 154.35 124.02 153.75 124.02 153C124.02 152.25 123.42 151.65 122.67 151.65C121.92 151.65 121.32 152.25 121.32 153C121.32 153.75 121.92 154.35 122.67 154.35Z" fill="#71869D"/>
<path d="M153 154.35C153.74 154.35 154.35 153.75 154.35 153C154.35 152.25 153.75 151.65 153 151.65C152.25 151.65 151.65 152.25 151.65 153C151.65 153.75 152.25 154.35 153 154.35Z" fill="#71869D"/>
<path d="M1.35 184.68C2.09 184.68 2.7 184.08 2.7 183.33C2.7 182.58 2.1 181.98 1.35 181.98C0.6 181.98 0 182.58 0 183.33C0 184.08 0.6 184.68 1.35 184.68Z" fill="#71869D"/>
<path d="M31.6801 184.68C32.4201 184.68 33.0301 184.08 33.0301 183.33C33.0301 182.58 32.4301 181.98 31.6801 181.98C30.9301 181.98 30.3301 182.58 30.3301 183.33C30.3301 184.08 30.9301 184.68 31.6801 184.68Z" fill="#71869D"/>
<path d="M62.0102 184.68C62.7502 184.68 63.3602 184.08 63.3602 183.33C63.3602 182.58 62.7602 181.98 62.0102 181.98C61.2602 181.98 60.6602 182.58 60.6602 183.33C60.6602 184.08 61.2602 184.68 62.0102 184.68Z" fill="#71869D"/>
<path d="M92.3402 184.68C93.0802 184.68 93.6902 184.08 93.6902 183.33C93.6902 182.58 93.0902 181.98 92.3402 181.98C91.5902 181.98 90.9902 182.58 90.9902 183.33C90.9902 184.08 91.5902 184.68 92.3402 184.68Z" fill="#71869D"/>
<path d="M122.67 184.68C123.42 184.68 124.02 184.08 124.02 183.33C124.02 182.58 123.42 181.98 122.67 181.98C121.92 181.98 121.32 182.58 121.32 183.33C121.32 184.08 121.92 184.68 122.67 184.68Z" fill="#71869D"/>
<path d="M153 184.68C153.74 184.68 154.35 184.08 154.35 183.33C154.35 182.58 153.75 181.98 153 181.98C152.25 181.98 151.65 182.58 151.65 183.33C151.65 184.08 152.25 184.68 153 184.68Z" fill="#71869D"/>
<path d="M1.35 215.01C2.09 215.01 2.7 214.41 2.7 213.66C2.7 212.91 2.1 212.31 1.35 212.31C0.6 212.31 0 212.91 0 213.66C0 214.41 0.6 215.01 1.35 215.01Z" fill="#71869D"/>
<path d="M31.6801 215.01C32.4201 215.01 33.0301 214.41 33.0301 213.66C33.0301 212.91 32.4301 212.31 31.6801 212.31C30.9301 212.31 30.3301 212.91 30.3301 213.66C30.3301 214.41 30.9301 215.01 31.6801 215.01Z" fill="#71869D"/>
<path d="M62.0102 215.01C62.7502 215.01 63.3602 214.41 63.3602 213.66C63.3602 212.91 62.7602 212.31 62.0102 212.31C61.2602 212.31 60.6602 212.91 60.6602 213.66C60.6602 214.41 61.2602 215.01 62.0102 215.01Z" fill="#71869D"/>
<path d="M92.3402 215.01C93.0802 215.01 93.6902 214.41 93.6902 213.66C93.6902 212.91 93.0902 212.31 92.3402 212.31C91.5902 212.31 90.9902 212.91 90.9902 213.66C90.9902 214.41 91.5902 215.01 92.3402 215.01Z" fill="#71869D"/>
<path d="M122.67 215.01C123.42 215.01 124.02 214.41 124.02 213.66C124.02 212.91 123.42 212.31 122.67 212.31C121.92 212.31 121.32 212.91 121.32 213.66C121.32 214.41 121.92 215.01 122.67 215.01Z" fill="#71869D"/>
<path d="M153 215.01C153.74 215.01 154.35 214.41 154.35 213.66C154.35 212.91 153.75 212.31 153 212.31C152.25 212.31 151.65 212.91 151.65 213.66C151.65 214.41 152.25 215.01 153 215.01Z" fill="#71869D"/>
<path d="M1.35 245.35C2.09 245.35 2.7 244.75 2.7 244C2.7 243.25 2.1 242.65 1.35 242.65C0.6 242.65 0 243.25 0 244C0 244.75 0.6 245.35 1.35 245.35Z" fill="#71869D"/>
<path d="M31.6801 245.35C32.4201 245.35 33.0301 244.75 33.0301 244C33.0301 243.25 32.4301 242.65 31.6801 242.65C30.9301 242.65 30.3301 243.25 30.3301 244C30.3301 244.75 30.9301 245.35 31.6801 245.35Z" fill="#71869D"/>
<path d="M62.0102 245.35C62.7502 245.35 63.3602 244.75 63.3602 244C63.3602 243.25 62.7602 242.65 62.0102 242.65C61.2602 242.65 60.6602 243.25 60.6602 244C60.6602 244.75 61.2602 245.35 62.0102 245.35Z" fill="#71869D"/>
<path d="M92.3402 245.35C93.0802 245.35 93.6902 244.75 93.6902 244C93.6902 243.25 93.0902 242.65 92.3402 242.65C91.5902 242.65 90.9902 243.25 90.9902 244C90.9902 244.75 91.5902 245.35 92.3402 245.35Z" fill="#71869D"/>
<path d="M122.67 245.35C123.42 245.35 124.02 244.75 124.02 244C124.02 243.25 123.42 242.65 122.67 242.65C121.92 242.65 121.32 243.25 121.32 244C121.32 244.75 121.92 245.35 122.67 245.35Z" fill="#71869D"/>
<path d="M153 245.35C153.74 245.35 154.35 244.75 154.35 244C154.35 243.25 153.75 242.65 153 242.65C152.25 242.65 151.65 243.25 151.65 244C151.65 244.75 152.25 245.35 153 245.35Z" fill="#71869D"/>
<path d="M1.35 275.68C2.09 275.68 2.7 275.08 2.7 274.33C2.7 273.58 2.1 272.98 1.35 272.98C0.6 272.98 0 273.58 0 274.33C0 275.08 0.6 275.68 1.35 275.68Z" fill="#71869D"/>
<path d="M31.6801 275.68C32.4201 275.68 33.0301 275.08 33.0301 274.33C33.0301 273.58 32.4301 272.98 31.6801 272.98C30.9301 272.98 30.3301 273.58 30.3301 274.33C30.3301 275.08 30.9301 275.68 31.6801 275.68Z" fill="#71869D"/>
<path d="M62.0102 275.68C62.7502 275.68 63.3602 275.08 63.3602 274.33C63.3602 273.58 62.7602 272.98 62.0102 272.98C61.2602 272.98 60.6602 273.58 60.6602 274.33C60.6602 275.08 61.2602 275.68 62.0102 275.68Z" fill="#71869D"/>
<path d="M92.3402 275.68C93.0802 275.68 93.6902 275.08 93.6902 274.33C93.6902 273.58 93.0902 272.98 92.3402 272.98C91.5902 272.98 90.9902 273.58 90.9902 274.33C90.9902 275.08 91.5902 275.68 92.3402 275.68Z" fill="#71869D"/>
<path d="M122.67 275.68C123.42 275.68 124.02 275.08 124.02 274.33C124.02 273.58 123.42 272.98 122.67 272.98C121.92 272.98 121.32 273.58 121.32 274.33C121.32 275.08 121.92 275.68 122.67 275.68Z" fill="#71869D"/>
<path d="M153 275.68C153.74 275.68 154.35 275.08 154.35 274.33C154.35 273.58 153.75 272.98 153 272.98C152.25 272.98 151.65 273.58 151.65 274.33C151.65 275.08 152.25 275.68 153 275.68Z" fill="#71869D"/>
<path d="M1.35 306.01C2.09 306.01 2.7 305.41 2.7 304.66C2.7 303.91 2.1 303.31 1.35 303.31C0.6 303.31 0 303.91 0 304.66C0 305.41 0.6 306.01 1.35 306.01Z" fill="#71869D"/>
<path d="M31.6801 306.01C32.4201 306.01 33.0301 305.41 33.0301 304.66C33.0301 303.91 32.4301 303.31 31.6801 303.31C30.9301 303.31 30.3301 303.91 30.3301 304.66C30.3301 305.41 30.9301 306.01 31.6801 306.01Z" fill="#71869D"/>
<path d="M62.0102 306.01C62.7502 306.01 63.3602 305.41 63.3602 304.66C63.3602 303.91 62.7602 303.31 62.0102 303.31C61.2602 303.31 60.6602 303.91 60.6602 304.66C60.6602 305.41 61.2602 306.01 62.0102 306.01Z" fill="#71869D"/>
<path d="M92.3402 306.01C93.0802 306.01 93.6902 305.41 93.6902 304.66C93.6902 303.91 93.0902 303.31 92.3402 303.31C91.5902 303.31 90.9902 303.91 90.9902 304.66C90.9902 305.41 91.5902 306.01 92.3402 306.01Z" fill="#71869D"/>
<path d="M122.67 306.01C123.42 306.01 124.02 305.41 124.02 304.66C124.02 303.91 123.42 303.31 122.67 303.31C121.92 303.31 121.32 303.91 121.32 304.66C121.32 305.41 121.92 306.01 122.67 306.01Z" fill="#71869D"/>
<path d="M153 306.01C153.74 306.01 154.35 305.41 154.35 304.66C154.35 303.91 153.75 303.31 153 303.31C152.25 303.31 151.65 303.91 151.65 304.66C151.65 305.41 152.25 306.01 153 306.01Z" fill="#71869D"/>
<path d="M183.33 2.7C184.07 2.7 184.68 2.1 184.68 1.35C184.68 0.6 184.08 0 183.33 0C182.58 0 181.98 0.6 181.98 1.35C181.98 2.1 182.58 2.7 183.33 2.7Z" fill="#71869D"/>
<path d="M213.67 2.7C214.41 2.7 215.02 2.1 215.02 1.35C215.02 0.6 214.42 0 213.67 0C212.92 0 212.32 0.6 212.32 1.35C212.32 2.1 212.92 2.7 213.67 2.7Z" fill="#71869D"/>
<path d="M183.33 33.0301C184.07 33.0301 184.68 32.4301 184.68 31.6801C184.68 30.9301 184.08 30.3301 183.33 30.3301C182.58 30.3301 181.98 30.9301 181.98 31.6801C181.98 32.4301 182.58 33.0301 183.33 33.0301Z" fill="#71869D"/>
<path d="M213.67 33.0301C214.41 33.0301 215.02 32.4301 215.02 31.6801C215.02 30.9301 214.42 30.3301 213.67 30.3301C212.92 30.3301 212.32 30.9301 212.32 31.6801C212.32 32.4301 212.92 33.0301 213.67 33.0301Z" fill="#71869D"/>
<path d="M183.33 63.3599C184.07 63.3599 184.68 62.7599 184.68 62.0099C184.68 61.2599 184.08 60.6599 183.33 60.6599C182.58 60.6599 181.98 61.2599 181.98 62.0099C181.98 62.7599 182.58 63.3599 183.33 63.3599Z" fill="#71869D"/>
<path d="M213.67 63.3599C214.41 63.3599 215.02 62.7599 215.02 62.0099C215.02 61.2599 214.42 60.6599 213.67 60.6599C212.92 60.6599 212.32 61.2599 212.32 62.0099C212.32 62.7599 212.92 63.3599 213.67 63.3599Z" fill="#71869D"/>
<path d="M183.33 93.69C184.07 93.69 184.68 93.09 184.68 92.34C184.68 91.59 184.08 90.99 183.33 90.99C182.58 90.99 181.98 91.59 181.98 92.34C181.98 93.09 182.58 93.69 183.33 93.69Z" fill="#71869D"/>
<path d="M213.67 93.69C214.41 93.69 215.02 93.09 215.02 92.34C215.02 91.59 214.42 90.99 213.67 90.99C212.92 90.99 212.32 91.59 212.32 92.34C212.32 93.09 212.92 93.69 213.67 93.69Z" fill="#71869D"/>
<path d="M183.33 124.02C184.07 124.02 184.68 123.42 184.68 122.67C184.68 121.92 184.08 121.32 183.33 121.32C182.58 121.32 181.98 121.92 181.98 122.67C181.98 123.42 182.58 124.02 183.33 124.02Z" fill="#71869D"/>
<path d="M213.67 124.02C214.41 124.02 215.02 123.42 215.02 122.67C215.02 121.92 214.42 121.32 213.67 121.32C212.92 121.32 212.32 121.92 212.32 122.67C212.32 123.42 212.92 124.02 213.67 124.02Z" fill="#71869D"/>
<path d="M183.33 154.35C184.07 154.35 184.68 153.75 184.68 153C184.68 152.25 184.08 151.65 183.33 151.65C182.58 151.65 181.98 152.25 181.98 153C181.98 153.75 182.58 154.35 183.33 154.35Z" fill="#71869D"/>
<path d="M213.67 154.35C214.41 154.35 215.02 153.75 215.02 153C215.02 152.25 214.42 151.65 213.67 151.65C212.92 151.65 212.32 152.25 212.32 153C212.32 153.75 212.92 154.35 213.67 154.35Z" fill="#71869D"/>
<path d="M183.33 184.68C184.07 184.68 184.68 184.08 184.68 183.33C184.68 182.58 184.08 181.98 183.33 181.98C182.58 181.98 181.98 182.58 181.98 183.33C181.98 184.08 182.58 184.68 183.33 184.68Z" fill="#71869D"/>
<path d="M213.67 184.68C214.41 184.68 215.02 184.08 215.02 183.33C215.02 182.58 214.42 181.98 213.67 181.98C212.92 181.98 212.32 182.58 212.32 183.33C212.32 184.08 212.92 184.68 213.67 184.68Z" fill="#71869D"/>
<path d="M183.33 215.01C184.07 215.01 184.68 214.41 184.68 213.66C184.68 212.91 184.08 212.31 183.33 212.31C182.58 212.31 181.98 212.91 181.98 213.66C181.98 214.41 182.58 215.01 183.33 215.01Z" fill="#71869D"/>
<path d="M213.67 215.01C214.41 215.01 215.02 214.41 215.02 213.66C215.02 212.91 214.42 212.31 213.67 212.31C212.92 212.31 212.32 212.91 212.32 213.66C212.32 214.41 212.92 215.01 213.67 215.01Z" fill="#71869D"/>
<path d="M183.33 245.35C184.07 245.35 184.68 244.75 184.68 244C184.68 243.25 184.08 242.65 183.33 242.65C182.58 242.65 181.98 243.25 181.98 244C181.98 244.75 182.58 245.35 183.33 245.35Z" fill="#71869D"/>
<path d="M213.67 245.35C214.41 245.35 215.02 244.75 215.02 244C215.02 243.25 214.42 242.65 213.67 242.65C212.92 242.65 212.32 243.25 212.32 244C212.32 244.75 212.92 245.35 213.67 245.35Z" fill="#71869D"/>
<path d="M183.33 275.68C184.07 275.68 184.68 275.08 184.68 274.33C184.68 273.58 184.08 272.98 183.33 272.98C182.58 272.98 181.98 273.58 181.98 274.33C181.98 275.08 182.58 275.68 183.33 275.68Z" fill="#71869D"/>
<path d="M213.67 275.68C214.41 275.68 215.02 275.08 215.02 274.33C215.02 273.58 214.42 272.98 213.67 272.98C212.92 272.98 212.32 273.58 212.32 274.33C212.32 275.08 212.92 275.68 213.67 275.68Z" fill="#71869D"/>
<path d="M183.33 306.01C184.07 306.01 184.68 305.41 184.68 304.66C184.68 303.91 184.08 303.31 183.33 303.31C182.58 303.31 181.98 303.91 181.98 304.66C181.98 305.41 182.58 306.01 183.33 306.01Z" fill="#71869D"/>
<path d="M213.67 306.01C214.41 306.01 215.02 305.41 215.02 304.66C215.02 303.91 214.42 303.31 213.67 303.31C212.92 303.31 212.32 303.91 212.32 304.66C212.32 305.41 212.92 306.01 213.67 306.01Z" fill="#71869D"/>
<path d="M1.35 336.34C2.09 336.34 2.7 335.74 2.7 334.99C2.7 334.24 2.1 333.64 1.35 333.64C0.6 333.64 0 334.24 0 334.99C0 335.74 0.6 336.34 1.35 336.34Z" fill="#71869D"/>
<path d="M31.6801 336.34C32.4201 336.34 33.0301 335.74 33.0301 334.99C33.0301 334.24 32.4301 333.64 31.6801 333.64C30.9301 333.64 30.3301 334.24 30.3301 334.99C30.3301 335.74 30.9301 336.34 31.6801 336.34Z" fill="#71869D"/>
<path d="M62.0102 336.34C62.7502 336.34 63.3602 335.74 63.3602 334.99C63.3602 334.24 62.7602 333.64 62.0102 333.64C61.2602 333.64 60.6602 334.24 60.6602 334.99C60.6602 335.74 61.2602 336.34 62.0102 336.34Z" fill="#71869D"/>
<path d="M92.3402 336.34C93.0802 336.34 93.6902 335.74 93.6902 334.99C93.6902 334.24 93.0902 333.64 92.3402 333.64C91.5902 333.64 90.9902 334.24 90.9902 334.99C90.9902 335.74 91.5902 336.34 92.3402 336.34Z" fill="#71869D"/>
<path d="M122.67 336.34C123.42 336.34 124.02 335.74 124.02 334.99C124.02 334.24 123.42 333.64 122.67 333.64C121.92 333.64 121.32 334.24 121.32 334.99C121.32 335.74 121.92 336.34 122.67 336.34Z" fill="#71869D"/>
<path d="M153 336.34C153.74 336.34 154.35 335.74 154.35 334.99C154.35 334.24 153.75 333.64 153 333.64C152.25 333.64 151.65 334.24 151.65 334.99C151.65 335.74 152.25 336.34 153 336.34Z" fill="#71869D"/>
<path d="M1.35 366.67C2.09 366.67 2.7 366.07 2.7 365.32C2.7 364.57 2.1 363.97 1.35 363.97C0.6 363.97 0 364.57 0 365.32C0 366.07 0.6 366.67 1.35 366.67Z" fill="#71869D"/>
<path d="M31.6801 366.67C32.4201 366.67 33.0301 366.07 33.0301 365.32C33.0301 364.57 32.4301 363.97 31.6801 363.97C30.9301 363.97 30.3301 364.57 30.3301 365.32C30.3301 366.07 30.9301 366.67 31.6801 366.67Z" fill="#71869D"/>
<path d="M62.0102 366.67C62.7502 366.67 63.3602 366.07 63.3602 365.32C63.3602 364.57 62.7602 363.97 62.0102 363.97C61.2602 363.97 60.6602 364.57 60.6602 365.32C60.6602 366.07 61.2602 366.67 62.0102 366.67Z" fill="#71869D"/>
<path d="M92.3402 366.67C93.0802 366.67 93.6902 366.07 93.6902 365.32C93.6902 364.57 93.0902 363.97 92.3402 363.97C91.5902 363.97 90.9902 364.57 90.9902 365.32C90.9902 366.07 91.5902 366.67 92.3402 366.67Z" fill="#71869D"/>
<path d="M122.67 366.67C123.42 366.67 124.02 366.07 124.02 365.32C124.02 364.57 123.42 363.97 122.67 363.97C121.92 363.97 121.32 364.57 121.32 365.32C121.32 366.07 121.92 366.67 122.67 366.67Z" fill="#71869D"/>
<path d="M153 366.67C153.74 366.67 154.35 366.07 154.35 365.32C154.35 364.57 153.75 363.97 153 363.97C152.25 363.97 151.65 364.57 151.65 365.32C151.65 366.07 152.25 366.67 153 366.67Z" fill="#71869D"/>
<path d="M1.35 397C2.09 397 2.7 396.4 2.7 395.65C2.7 394.9 2.1 394.3 1.35 394.3C0.6 394.3 0 394.9 0 395.65C0 396.4 0.6 397 1.35 397Z" fill="#71869D"/>
<path d="M31.6801 397C32.4201 397 33.0301 396.4 33.0301 395.65C33.0301 394.9 32.4301 394.3 31.6801 394.3C30.9301 394.3 30.3301 394.9 30.3301 395.65C30.3301 396.4 30.9301 397 31.6801 397Z" fill="#71869D"/>
<path d="M62.0102 397C62.7502 397 63.3602 396.4 63.3602 395.65C63.3602 394.9 62.7602 394.3 62.0102 394.3C61.2602 394.3 60.6602 394.9 60.6602 395.65C60.6602 396.4 61.2602 397 62.0102 397Z" fill="#71869D"/>
<path d="M92.3402 397C93.0802 397 93.6902 396.4 93.6902 395.65C93.6902 394.9 93.0902 394.3 92.3402 394.3C91.5902 394.3 90.9902 394.9 90.9902 395.65C90.9902 396.4 91.5902 397 92.3402 397Z" fill="#71869D"/>
<path d="M122.67 397C123.42 397 124.02 396.4 124.02 395.65C124.02 394.9 123.42 394.3 122.67 394.3C121.92 394.3 121.32 394.9 121.32 395.65C121.32 396.4 121.92 397 122.67 397Z" fill="#71869D"/>
<path d="M153 397C153.74 397 154.35 396.4 154.35 395.65C154.35 394.9 153.75 394.3 153 394.3C152.25 394.3 151.65 394.9 151.65 395.65C151.65 396.4 152.25 397 153 397Z" fill="#71869D"/>
<path d="M183.33 336.34C184.07 336.34 184.68 335.74 184.68 334.99C184.68 334.24 184.08 333.64 183.33 333.64C182.58 333.64 181.98 334.24 181.98 334.99C181.98 335.74 182.58 336.34 183.33 336.34Z" fill="#71869D"/>
<path d="M213.67 336.34C214.41 336.34 215.02 335.74 215.02 334.99C215.02 334.24 214.42 333.64 213.67 333.64C212.92 333.64 212.32 334.24 212.32 334.99C212.32 335.74 212.92 336.34 213.67 336.34Z" fill="#71869D"/>
<path d="M183.33 366.67C184.07 366.67 184.68 366.07 184.68 365.32C184.68 364.57 184.08 363.97 183.33 363.97C182.58 363.97 181.98 364.57 181.98 365.32C181.98 366.07 182.58 366.67 183.33 366.67Z" fill="#71869D"/>
<path d="M213.67 366.67C214.41 366.67 215.02 366.07 215.02 365.32C215.02 364.57 214.42 363.97 213.67 363.97C212.92 363.97 212.32 364.57 212.32 365.32C212.32 366.07 212.92 366.67 213.67 366.67Z" fill="#71869D"/>
<path d="M183.33 397C184.07 397 184.68 396.4 184.68 395.65C184.68 394.9 184.08 394.3 183.33 394.3C182.58 394.3 181.98 394.9 181.98 395.65C181.98 396.4 182.58 397 183.33 397Z" fill="#71869D"/>
<path d="M213.67 397C214.41 397 215.02 396.4 215.02 395.65C215.02 394.9 214.42 394.3 213.67 394.3C212.92 394.3 212.32 394.9 212.32 395.65C212.32 396.4 212.92 397 213.67 397Z" fill="#71869D"/>
</g>
<g filter="url(#filter0_d_158_478)">
<path d="M496 77.5801V456C496 463.73 489.73 470 482 470H100.43C98.0101 470 95.7201 469.38 93.7301 468.29C89.5501 466.01 86.6501 461.66 86.4401 456.58L81.2701 332.18L80.6501 317.12L73.5101 145.31C73.2201 138.27 78.2001 132.11 85.1501 130.93L479.65 63.7801C488.2 62.3301 496 68.9101 496 77.5801Z" fill="url(#paint0_linear_158_478)"/>
</g>
<mask id="mask1_158_478" style="mask-type:alpha" maskUnits="userSpaceOnUse" x="79" y="317" width="521" height="227">
<path d="M323 322.501L497.86 317L599.86 521.497C595.86 553.497 570.36 540.497 497.86 542.192L210.86 542.611C210.86 542.611 93.9995 549 86.9998 468C80 387 79.4999 317 79.4999 317L323 322.501Z" fill="#BDCDFF"/>
</mask>
<g mask="url(#mask1_158_478)">
<g filter="url(#filter1_d_158_478)">
<path d="M496 77.5801V456C496 463.73 489.73 470 482 470H100.43C98.0101 470 95.7201 469.38 93.7301 468.29C89.5501 466.01 86.6501 461.66 86.4401 456.58L81.2701 332.18L80.6501 317.12L73.5101 145.31C73.2201 138.27 78.2001 132.11 85.1501 130.93L479.65 63.7801C488.2 62.3301 496 68.9101 496 77.5801Z" fill="#BDCDFF"/>
</g>
</g>
<path d="M286.31 316.829C295.67 309.129 301.55 298.069 302.66 286.089L303.07 281.559L315.18 279.449L342.28 281.559L342.69 286.089C343.8 298.069 349.68 309.139 359.04 316.829L359.39 317.109H285.95L286.3 316.829H286.32H286.31Z" fill="#FFFFFB"/>
<path opacity="0.8" d="M343.22 286.089C343.62 290.309 344.63 294.409 346.2 298.289H299.12C300.68 294.409 301.7 290.309 302.1 286.089L302.52 281.559L314.96 279.449L342.79 281.559L343.21 286.089H343.23H343.22Z" fill="#CCCBCA"/>
<path d="M239.84 164.58H407.36C412.07 164.58 415.87 168.39 415.87 173.12V282.22C415.87 286.94 412.06 290.76 407.36 290.76H239.84C235.13 290.76 231.33 286.95 231.33 282.22V173.12C231.33 168.4 235.14 164.58 239.84 164.58Z" fill="#00325B"/>
<path d="M236.98 170.229H408.35V264.39H236.98V170.229Z" fill="white"/>
<path d="M415.88 271.919V282.249C415.88 286.949 412.07 290.749 407.37 290.749H239.84C235.13 290.749 231.33 286.949 231.33 282.249V271.919H415.88Z" fill="#FFFFFB"/>
<path opacity="0.8" d="M322.66 285.099C320.06 285.099 317.95 282.999 317.95 280.389C317.95 277.779 320.05 275.679 322.66 275.679C325.27 275.679 327.37 277.779 327.37 280.389C327.37 282.999 325.27 285.099 322.66 285.099Z" fill="#CCCBCA"/>
<path d="M265.42 183.69L266.08 184.33C266.08 184.33 266.2 184.37 266.24 184.33L266.34 184.23C266.34 184.23 266.38 184.11 266.34 184.06L265.89 183.61L266.34 183.16C266.34 183.16 266.38 183.04 266.34 182.99L266.24 182.89C266.24 182.89 266.12 182.85 266.08 182.89L265.42 183.53C265.42 183.53 265.38 183.65 265.42 183.69Z" fill="black"/>
<path d="M267.11 182.39V184.82H264.66V182.39H267.11Z" fill="white"/>
<path d="M241.39 173.219H405.04C405.33 173.219 405.58 173.449 405.58 173.739V261.919C405.58 262.209 405.35 262.439 405.04 262.439H241.39C241.1 262.439 240.85 262.209 240.85 261.919V173.739C240.85 173.449 241.08 173.219 241.39 173.219Z" fill="white"/>
<path d="M405.63 173.52C405.61 173.47 405.59 173.42 405.55 173.38C405.51 173.32 405.46 173.26 405.39 173.22C405.29 173.15 405.17 173.11 405.04 173.11H241.39C241.25 173.11 241.13 173.15 241.02 173.22L241 173.24C240.94 173.28 240.89 173.34 240.85 173.4C240.79 173.49 240.75 173.61 240.75 173.73V261.92C240.75 262.25 241.04 262.53 241.39 262.53H405.04C405.39 262.53 405.67 262.27 405.67 261.92V173.73C405.67 173.66 405.66 173.59 405.63 173.52ZM405.43 261.92C405.43 262.14 405.24 262.33 405.02 262.33H241.36C241.14 262.33 240.95 262.14 240.95 261.92V173.73C240.95 173.55 241.06 173.41 241.21 173.35C241.26 173.33 241.3 173.32 241.35 173.32H405.01C405.23 173.32 405.42 173.5 405.42 173.73V261.92H405.43Z" fill="#B8CDEB"/>
<g opacity="0.05">
<path d="M399.28 223.449H247.73V250.869H399.28V223.449Z" fill="#7093FF"/>
</g>
<path d="M339.03 223.449H247.73V227.539L247.8 227.559V223.509H339.15L339.03 223.449ZM339.03 223.449H247.73V227.539L247.8 227.559V223.509H339.15L339.03 223.449ZM339.03 223.449H247.73V227.539L247.8 227.559V223.509H339.15L339.03 223.449ZM247.69 223.409V250.929H399.35V223.409H247.69ZM399.24 250.829H247.8V223.509H399.24V250.829ZM339.03 223.449H247.73V227.539L247.8 227.559V223.509H339.15L339.03 223.449ZM339.03 223.449H247.73V227.539L247.8 227.559V223.509H339.15L339.03 223.449ZM339.03 223.449H247.73V227.539L247.8 227.559V223.509H339.15L339.03 223.449Z" fill="#B8CDEB"/>
<g opacity="0.05">
<path d="M399.28 192.61H247.73V220.03H399.28V192.61Z" fill="#7093FF"/>
</g>
<path d="M247.69 192.57V220.09H399.35V192.57H247.69ZM399.24 219.99H247.8V192.67H399.24V219.99Z" fill="#B8CDEB"/>
<path d="M241.9 173.219L240.85 175.999V173.219H241.9Z" fill="#98B8FF"/>
<path d="M243.49 173.219L241.29 179.089H240.86V175.999L241.91 173.219H243.5H243.49Z" fill="#97B7FF"/>
<path d="M245.1 173.219L242.87 179.089H241.28L243.48 173.219H245.09H245.1Z" fill="#96B6FF"/>
<path d="M246.68 173.219L244.45 179.089H242.86L245.09 173.219H246.68Z" fill="#95B5FF"/>
<path d="M248.27 173.219L246.04 179.089H244.45L246.68 173.219H248.27Z" fill="#94B4FF"/>
<path d="M249.86 173.219L247.65 179.089H246.04L248.27 173.219H249.86Z" fill="#93B3FF"/>
<path d="M251.46 173.219L249.23 179.089H247.64L249.85 173.219H251.46Z" fill="#92B2FF"/>
<path d="M253.05 173.219L250.82 179.089H249.23L251.46 173.219H253.05Z" fill="#91B1FF"/>
<path d="M254.64 173.219L252.41 179.089H250.82L253.05 173.219H254.64Z" fill="#90B0FF"/>
<path d="M256.23 173.219L254.03 179.089H252.42L254.65 173.219H256.24H256.23Z" fill="#8FAFFF"/>
<path d="M257.84 173.219L255.61 179.089H254.02L256.22 173.219H257.83H257.84Z" fill="#8EAEFF"/>
<path d="M259.42 173.219L257.19 179.089H255.6L257.83 173.219H259.42Z" fill="#8DADFF"/>
<path d="M261.01 173.219L258.78 179.089H257.19L259.42 173.219H261.01Z" fill="#8CACFF"/>
<path d="M262.6 173.219L260.4 179.089H258.79L261.02 173.219H262.61H262.6Z" fill="#8BABFF"/>
<path d="M264.2 173.219L261.97 179.089H260.38L262.58 173.219H264.19H264.2Z" fill="#8AAAFF"/>
<path d="M265.79 173.219L263.56 179.089H261.97L264.2 173.219H265.79Z" fill="#89AAFF"/>
<path d="M267.38 173.219L265.15 179.089H263.56L265.79 173.219H267.38Z" fill="#87A9FF"/>
<path d="M268.97 173.219L266.77 179.089H265.16L267.39 173.219H268.98H268.97Z" fill="#86A8FF"/>
<path d="M270.57 173.219L268.34 179.089H266.75L268.96 173.219H270.57Z" fill="#85A7FF"/>
<path d="M272.16 173.219L269.93 179.089H268.34L270.57 173.219H272.16Z" fill="#84A6FF"/>
<path d="M273.75 173.219L271.52 179.089H269.93L272.16 173.219H273.75Z" fill="#83A5FF"/>
<path d="M275.34 173.219L273.14 179.089H271.53L273.76 173.219H275.35H275.34Z" fill="#82A4FF"/>
<path d="M276.94 173.219L274.71 179.089H273.12L275.33 173.219H276.94Z" fill="#81A3FF"/>
<path d="M278.53 173.219L276.3 179.089H274.71L276.94 173.219H278.53Z" fill="#80A2FF"/>
<path d="M280.12 173.219L277.89 179.089H276.3L278.53 173.219H280.12Z" fill="#7FA1FF"/>
<path d="M281.71 173.219L279.5 179.089H277.89L280.12 173.219H281.71Z" fill="#7EA0FF"/>
<path d="M283.31 173.219L281.08 179.089H279.49L281.7 173.219H283.31Z" fill="#7D9FFF"/>
<path d="M284.9 173.219L282.67 179.089H281.08L283.31 173.219H284.9Z" fill="#7C9EFF"/>
<path d="M286.49 173.219L284.26 179.089H282.67L284.9 173.219H286.49Z" fill="#7B9DFF"/>
<path d="M288.07 173.219L285.87 179.089H284.26L286.49 173.219H288.08H288.07Z" fill="#7A9CFF"/>
<path d="M289.68 173.219L287.45 179.089H285.86L288.06 173.219H289.67H289.68Z" fill="#799BFF"/>
<path d="M291.27 173.219L289.04 179.089H287.45L289.68 173.219H291.27Z" fill="#789BFF"/>
<path d="M292.86 173.219L290.63 179.089H289.04L291.27 173.219H292.86Z" fill="#779AFF"/>
<path d="M294.44 173.219L292.23 179.089H290.62L292.85 173.219H294.44Z" fill="#7699FF"/>
<path d="M296.05 173.219L293.82 179.089H292.23L294.44 173.219H296.05Z" fill="#7598FF"/>
<path d="M297.64 173.219L295.41 179.089H293.82L296.05 173.219H297.64Z" fill="#7497FF"/>
<path d="M299.23 173.219L297 179.089H295.41L297.64 173.219H299.23Z" fill="#7396FF"/>
<path d="M300.83 173.219L298.6 179.089H296.99L299.22 173.219H300.83Z" fill="#7295FF"/>
<path d="M302.42 173.219L300.19 179.089H298.6L300.83 173.219H302.42Z" fill="#7194FF"/>
<path d="M304.01 173.219L301.78 179.089H300.19L302.42 173.219H304.01Z" fill="#7093FF"/>
<path d="M301.78 179.089L304.01 173.219H405.55V179.089H301.78Z" fill="#7093FF"/>
<path d="M405.41 173.11H240.97C240.97 173.11 240.88 173.13 240.85 173.16C240.79 173.22 240.75 173.3 240.75 173.3V179.19H405.63V173.3C405.63 173.22 405.55 173.11 405.41 173.11ZM405.45 178.99H240.95V173.32H405.45V178.99Z" fill="#7091F5"/>
<path d="M244.6 176.269H244.95V176.599C244.95 176.599 244.91 176.639 244.89 176.639C244.87 176.659 244.83 176.679 244.79 176.679H244.62C244.54 176.679 244.5 176.659 244.44 176.639C244.37 176.619 244.33 176.579 244.29 176.539C244.27 176.509 244.24 176.479 244.23 176.439C244.22 176.419 244.21 176.389 244.21 176.369C244.19 176.309 244.19 176.139 244.19 176.139V176.019C244.19 175.939 244.21 175.859 244.21 175.789C244.23 175.729 244.25 175.669 244.29 175.629H244.3C244.3 175.629 244.37 175.549 244.42 175.529C244.46 175.479 244.52 175.479 244.58 175.479C244.66 175.479 244.72 175.499 244.77 175.529C244.81 175.549 244.85 175.589 244.87 175.629C244.91 175.669 244.93 175.769 244.93 175.769H245.2C245.2 175.669 245.16 175.589 245.12 175.499C245.08 175.419 244.99 175.359 244.91 175.319C244.83 175.279 244.72 175.259 244.58 175.259C244.49 175.259 244.39 175.279 244.32 175.309C244.31 175.309 244.3 175.309 244.3 175.319H244.29C244.21 175.339 244.15 175.399 244.09 175.459C244.02 175.529 243.98 175.609 243.94 175.709C243.9 175.809 243.9 175.919 243.9 176.039V176.139C243.9 176.209 243.9 176.279 243.9 176.339C243.9 176.339 243.91 176.429 243.93 176.469C243.97 176.579 244.01 176.659 244.08 176.719C244.11 176.749 244.15 176.779 244.19 176.809C244.23 176.829 244.26 176.849 244.3 176.869C244.38 176.909 244.49 176.909 244.59 176.909C244.71 176.909 244.82 176.889 244.9 176.869C244.96 176.839 245.04 176.819 245.09 176.779L245.19 176.679V176.059H244.59V176.269H244.6ZM246.54 176.409V176.289C246.54 176.199 246.52 176.119 246.5 176.059V176.039C246.48 175.979 246.44 175.919 246.4 175.859C246.36 175.799 246.3 175.759 246.25 175.739C246.25 175.739 246.244 175.736 246.23 175.729C246.17 175.689 246.09 175.689 246 175.689C245.94 175.689 245.88 175.699 245.83 175.709C245.81 175.709 245.8 175.709 245.78 175.729C245.76 175.729 245.74 175.739 245.72 175.759C245.66 175.769 245.62 175.809 245.59 175.859C245.53 175.899 245.49 175.959 245.47 176.039C245.43 176.099 245.43 176.289 245.43 176.289V176.329C245.43 176.329 245.44 176.419 245.45 176.469C245.45 176.469 245.46 176.529 245.47 176.559L245.59 176.739C245.63 176.799 245.69 176.839 245.78 176.869C245.86 176.909 246.02 176.909 246.02 176.909L246.04 176.949H246.05C246.14 176.949 246.19 176.929 246.25 176.909C246.31 176.889 246.37 176.869 246.41 176.819C246.46 176.799 246.52 176.719 246.52 176.719L246.37 176.579C246.37 176.579 246.29 176.659 246.25 176.679C246.21 176.719 246.16 176.719 246.1 176.719C246.03 176.719 245.99 176.699 245.95 176.699C245.91 176.679 245.87 176.659 245.85 176.619C245.83 176.579 245.79 176.539 245.79 176.489C245.78 176.469 245.78 176.439 245.78 176.409H246.55H246.54ZM245.76 176.229V176.139L245.82 176.019C245.82 176.019 245.86 175.939 245.9 175.939C245.94 175.919 245.98 175.919 246.02 175.919C246.09 175.919 246.13 175.939 246.17 175.959C246.18 175.959 246.2 175.979 246.21 175.989C246.23 176.009 246.25 176.029 246.25 176.059C246.27 176.099 246.27 176.229 246.27 176.229H245.76ZM247.65 176.409C247.61 176.349 247.55 176.309 247.49 176.289C247.41 176.249 247.34 176.209 247.24 176.209C247.21 176.199 247.18 176.169 247.15 176.169C247.14 176.159 247.13 176.159 247.12 176.159C247.07 176.139 247.03 176.119 247.03 176.119L246.99 176.079V176.019C246.99 176.019 247.01 175.959 247.01 175.939C247.01 175.919 247.05 175.879 247.07 175.879C247.12 175.859 247.16 175.859 247.2 175.859C247.22 175.859 247.24 175.859 247.26 175.869C247.28 175.879 247.3 175.879 247.32 175.879C247.36 175.899 247.41 175.919 247.41 175.939C247.42 175.959 247.42 176.019 247.42 176.019H247.69C247.69 175.959 247.67 175.899 247.63 175.829C247.59 175.769 247.55 175.729 247.47 175.689C247.42 175.669 247.38 175.659 247.34 175.659C247.3 175.659 247.25 175.659 247.2 175.659C247.12 175.659 247.05 175.679 246.99 175.679C246.93 175.699 246.89 175.719 246.85 175.759C246.81 175.799 246.77 175.839 246.74 175.889C246.7 175.929 246.7 175.989 246.7 176.029C246.7 176.069 246.73 176.109 246.74 176.149C246.75 176.169 246.76 176.179 246.77 176.199C246.77 176.199 246.8 176.249 246.83 176.259C246.87 176.299 246.91 176.339 246.97 176.339C247.01 176.349 247.05 176.359 247.08 176.369H247.1C247.1 176.369 247.14 176.379 247.16 176.379C247.22 176.379 247.28 176.419 247.32 176.419C247.36 176.439 247.41 176.459 247.41 176.479V176.569L247.45 176.629C247.45 176.629 247.42 176.689 247.42 176.709C247.41 176.729 247.38 176.769 247.34 176.769H247.1C247.1 176.769 247.01 176.729 246.99 176.709C246.98 176.699 246.97 176.689 246.97 176.669V176.649L246.95 176.589H246.68C246.68 176.649 246.7 176.709 246.74 176.769C246.77 176.819 246.81 176.859 246.88 176.899C246.89 176.909 246.9 176.909 246.91 176.919C246.99 176.979 247.1 176.979 247.2 176.979C247.28 176.979 247.34 176.959 247.41 176.959C247.47 176.939 247.53 176.919 247.57 176.879C247.61 176.829 247.65 176.789 247.67 176.749C247.69 176.729 247.7 176.709 247.7 176.679C247.71 176.659 247.71 176.639 247.71 176.609C247.71 176.519 247.69 176.459 247.65 176.419V176.409ZM247.8 175.669V175.859H248.48V175.669H247.8ZM248.35 176.679H248.29L248.25 176.639V175.379H247.98L247.96 175.339V176.509C247.96 176.599 247.98 176.679 248 176.719C248.02 176.759 248.06 176.799 248.11 176.819C248.15 176.869 248.21 176.869 248.27 176.869H248.46V176.679H248.35ZM248.7 175.669V176.869H248.97V175.669H248.7ZM248.97 175.259C248.97 175.259 248.91 175.219 248.85 175.219C248.79 175.219 248.75 175.239 248.72 175.259C248.68 175.279 248.68 175.359 248.68 175.359C248.68 175.399 248.7 175.439 248.72 175.459C248.76 175.499 248.79 175.499 248.85 175.499C248.91 175.499 248.95 175.479 248.97 175.459C249.01 175.439 249.01 175.399 249.01 175.359C249.01 175.319 248.99 175.279 248.97 175.259ZM250.36 176.129C250.36 176.129 250.34 176.059 250.33 176.019C250.31 175.959 250.27 175.899 250.23 175.829C250.17 175.789 250.11 175.729 250.04 175.709C249.96 175.669 249.9 175.669 249.8 175.669C249.69 175.669 249.61 175.669 249.55 175.709C249.47 175.729 249.4 175.769 249.36 175.829C249.32 175.879 249.28 175.939 249.26 176.019C249.22 176.099 249.22 176.189 249.22 176.289C249.22 176.389 249.24 176.449 249.26 176.539C249.28 176.599 249.32 176.659 249.36 176.719C249.43 176.759 249.49 176.799 249.55 176.839C249.63 176.889 249.69 176.889 249.8 176.889C249.9 176.889 249.98 176.869 250.04 176.839C250.06 176.839 250.08 176.829 250.1 176.819C250.16 176.799 250.2 176.769 250.23 176.719C250.27 176.679 250.31 176.619 250.33 176.539C250.37 176.449 250.37 176.369 250.37 176.269C250.37 176.219 250.36 176.169 250.36 176.129ZM250.04 176.309V176.449C250.04 176.449 250 176.539 249.98 176.579C249.96 176.619 249.94 176.639 249.9 176.659C249.88 176.699 249.84 176.699 249.77 176.699C249.71 176.699 249.67 176.679 249.63 176.659C249.61 176.639 249.57 176.619 249.55 176.579C249.51 176.539 249.49 176.489 249.49 176.449V176.269H249.51V176.119L249.57 175.999C249.57 175.999 249.61 175.939 249.65 175.919C249.67 175.879 249.73 175.879 249.77 175.879C249.82 175.879 249.86 175.899 249.9 175.919C249.92 175.939 249.96 175.959 249.98 175.999C250.02 176.039 250.04 176.079 250.04 176.119V176.309ZM249.86 175.179L249.63 175.499H249.86L250.17 175.179H249.86ZM250.83 175.939V175.689H250.58V176.889H250.85V175.939H250.83ZM251.59 175.919C251.57 175.859 251.55 175.809 251.51 175.769C251.46 175.729 251.42 175.689 251.38 175.689C251.32 175.669 251.28 175.669 251.22 175.669C251.14 175.669 251.07 175.689 251.01 175.709C250.97 175.749 250.91 175.789 250.87 175.829C250.86 175.849 250.84 175.879 250.83 175.899C250.8 175.939 250.78 175.979 250.77 176.019C250.72 176.079 250.72 176.249 250.72 176.249H250.83V176.099C250.83 176.099 250.84 176.059 250.85 176.049C250.86 176.019 250.88 176.009 250.89 175.979C250.93 175.939 250.95 175.899 250.99 175.899C251.03 175.879 251.05 175.879 251.12 175.879C251.18 175.879 251.2 175.899 251.24 175.899C251.28 175.919 251.32 175.939 251.32 175.979C251.34 176.019 251.34 176.119 251.34 176.119V176.909H251.61V176.119C251.61 176.039 251.59 175.979 251.59 175.919ZM253.2 175.179V176.639H253.22V176.889H253.47V175.179H253.2ZM253.3 176.039C253.26 175.979 253.24 175.919 253.2 175.859C253.16 175.789 253.11 175.749 253.05 175.729C253.01 175.689 252.95 175.689 252.87 175.689C252.79 175.689 252.72 175.709 252.66 175.729C252.6 175.749 252.56 175.789 252.52 175.859C252.48 175.899 252.43 175.959 252.41 176.039C252.37 176.099 252.37 176.189 252.37 176.309V176.349C252.37 176.429 252.39 176.509 252.41 176.599C252.43 176.659 252.48 176.719 252.52 176.779C252.56 176.819 252.6 176.889 252.66 176.909C252.72 176.949 252.81 176.949 252.87 176.949C252.93 176.949 252.99 176.929 253.05 176.909C253.11 176.869 253.16 176.839 253.2 176.779C253.21 176.769 253.21 176.759 253.22 176.749C253.25 176.699 253.28 176.649 253.3 176.599C253.32 176.539 253.34 176.369 253.34 176.369V176.289C253.34 176.189 253.32 176.099 253.3 176.039ZM253.18 176.409C253.18 176.409 253.16 176.509 253.14 176.559C253.09 176.599 253.07 176.639 253.03 176.659C252.99 176.699 252.95 176.699 252.89 176.699C252.85 176.699 252.81 176.679 252.76 176.679C252.72 176.659 252.7 176.639 252.68 176.599C252.66 176.559 252.64 176.509 252.64 176.469V176.139C252.64 176.139 252.66 176.059 252.68 176.019C252.7 175.979 252.72 175.959 252.76 175.939C252.81 175.899 252.85 175.899 252.89 175.899C252.93 175.899 252.97 175.919 253.01 175.919C253.03 175.939 253.07 175.959 253.09 175.979C253.11 176.019 253.16 176.039 253.16 176.079C253.18 176.119 253.18 176.209 253.18 176.209V176.409ZM254.78 176.309C254.78 176.209 254.76 176.119 254.74 176.059C254.72 175.999 254.68 175.939 254.64 175.879C254.6 175.809 254.54 175.769 254.48 175.749C254.41 175.709 254.33 175.709 254.25 175.709C254.17 175.709 254.08 175.729 254.02 175.749C253.94 175.769 253.88 175.809 253.84 175.879C253.77 175.919 253.73 175.979 253.71 176.059C253.67 176.119 253.67 176.309 253.67 176.309V176.349C253.67 176.429 253.69 176.509 253.71 176.579C253.75 176.639 253.8 176.699 253.84 176.759C253.88 176.819 253.94 176.869 254.02 176.889C254.1 176.929 254.27 176.929 254.27 176.929L254.29 176.969C254.37 176.969 254.43 176.949 254.5 176.929C254.56 176.909 254.62 176.889 254.66 176.839C254.7 176.819 254.76 176.739 254.76 176.739L254.62 176.599C254.62 176.599 254.54 176.679 254.5 176.699C254.45 176.739 254.39 176.739 254.33 176.739C254.27 176.739 254.23 176.719 254.19 176.719C254.15 176.699 254.1 176.679 254.08 176.639C254.06 176.599 254.02 176.559 254.02 176.509C254.01 176.489 254.01 176.459 254.01 176.429H254.78V176.309ZM254 176.249V176.159L254.06 176.039C254.06 176.039 254.1 175.959 254.15 175.959C254.19 175.939 254.23 175.939 254.27 175.939C254.33 175.939 254.37 175.959 254.41 175.979C254.45 175.999 254.5 176.039 254.5 176.079C254.52 176.119 254.52 176.249 254.52 176.249H254ZM256.54 176.369H256.59C256.59 176.369 256.59 176.339 256.59 176.329L256.53 176.369H256.54ZM256.54 176.369H256.59C256.59 176.369 256.59 176.339 256.59 176.329L256.53 176.369H256.54ZM256.54 176.369H256.59C256.59 176.369 256.59 176.339 256.59 176.329L256.53 176.369H256.54ZM256.78 175.499C256.74 175.399 256.66 175.339 256.58 175.299C256.5 175.259 256.37 175.239 256.25 175.239C256.14 175.239 256.04 175.259 255.96 175.299C255.88 175.319 255.82 175.379 255.75 175.439C255.69 175.529 255.65 175.589 255.61 175.689C255.57 175.769 255.57 175.879 255.57 175.999V176.139C255.57 176.249 255.59 176.349 255.61 176.449C255.63 176.559 255.67 176.639 255.73 176.699C255.79 176.759 255.86 176.799 255.94 176.839C256.02 176.909 256.1 176.909 256.21 176.909C256.29 176.909 256.38 176.909 256.45 176.869C256.48 176.869 256.51 176.859 256.54 176.839C256.62 176.799 256.7 176.739 256.74 176.659C256.78 176.579 256.83 176.469 256.83 176.369H256.59C256.57 176.429 256.56 176.479 256.54 176.509C256.5 176.559 256.45 176.599 256.41 176.619C256.37 176.659 256.31 176.659 256.23 176.659C256.17 176.659 256.1 176.639 256.06 176.619C256 176.599 255.96 176.559 255.94 176.509C255.92 176.469 255.88 176.409 255.88 176.349C255.86 176.289 255.86 176.119 255.86 176.119V175.979C255.86 175.899 255.88 175.809 255.88 175.749C255.9 175.689 255.92 175.629 255.96 175.589C256 175.549 256.04 175.529 256.08 175.479C256.12 175.439 256.19 175.439 256.25 175.439C256.33 175.439 256.39 175.459 256.43 175.479C256.47 175.529 256.52 175.569 256.54 175.609C256.56 175.669 256.58 175.789 256.58 175.789H256.87C256.87 175.679 256.83 175.589 256.78 175.499ZM256.54 176.369H256.59C256.59 176.369 256.59 176.339 256.59 176.329L256.53 176.369H256.54ZM256.54 176.369H256.59C256.59 176.369 256.59 176.339 256.59 176.329L256.53 176.369H256.54ZM256.54 176.369H256.59C256.59 176.369 256.59 176.339 256.59 176.329L256.53 176.369H256.54ZM258 176.759V176.079C258 175.999 257.98 175.919 257.94 175.859C257.9 175.789 257.84 175.729 257.77 175.709C257.69 175.669 257.61 175.669 257.53 175.669C257.44 175.669 257.38 175.689 257.32 175.689C257.26 175.709 257.2 175.729 257.15 175.769C257.11 175.809 257.07 175.859 257.05 175.899C257.01 175.939 257.01 176.039 257.01 176.039H257.28C257.28 176.039 257.3 175.979 257.3 175.959C257.32 175.939 257.34 175.899 257.38 175.899C257.42 175.879 257.46 175.879 257.51 175.879C257.57 175.879 257.59 175.899 257.63 175.899C257.67 175.919 257.71 175.939 257.71 175.979C257.73 175.999 257.73 176.079 257.73 176.079V176.779L257.75 176.869H258.04C258.04 176.869 258 176.799 258 176.759ZM257.77 176.449C257.77 176.449 257.75 176.509 257.73 176.559C257.71 176.599 257.67 176.619 257.63 176.639C257.59 176.679 257.55 176.679 257.48 176.679C257.44 176.679 257.4 176.659 257.38 176.659C257.36 176.639 257.32 176.619 257.32 176.599C257.3 176.579 257.3 176.539 257.3 176.509V176.429C257.3 176.429 257.34 176.369 257.36 176.369C257.4 176.349 257.42 176.329 257.46 176.329H257.77V176.159L257.81 176.139H257.61C257.51 176.139 257.42 176.159 257.36 176.159C257.28 176.189 257.22 176.209 257.18 176.249C257.13 176.289 257.09 176.329 257.07 176.369C257.03 176.409 257.03 176.469 257.03 176.539C257.03 176.599 257.05 176.659 257.09 176.719C257.13 176.759 257.18 176.799 257.24 176.839C257.3 176.889 257.36 176.889 257.44 176.889C257.51 176.889 257.57 176.869 257.61 176.869C257.65 176.839 257.69 176.819 257.73 176.779C257.77 176.739 257.79 176.719 257.81 176.679C257.84 176.639 257.86 176.579 257.86 176.579L257.77 176.449ZM258.54 175.939V175.689H258.29V176.889H258.56V175.939H258.54ZM259.28 175.899C259.28 175.899 259.27 175.879 259.26 175.869C259.25 175.839 259.23 175.799 259.2 175.769C259.15 175.729 259.11 175.689 259.07 175.689C259.03 175.669 258.99 175.669 258.93 175.669C258.85 175.669 258.78 175.689 258.72 175.709C258.66 175.729 258.62 175.769 258.58 175.829C258.57 175.859 258.56 175.899 258.54 175.929C258.54 175.929 258.5 175.989 258.49 176.019C258.45 176.079 258.45 176.249 258.45 176.249H258.56V176.099C258.56 176.039 258.58 176.019 258.6 175.979C258.62 175.939 258.64 175.899 258.68 175.899C258.7 175.879 258.76 175.879 258.8 175.879C258.87 175.879 258.89 175.899 258.93 175.899C258.97 175.899 259.01 175.919 259.01 175.959C259.03 175.999 259.03 176.099 259.03 176.099V176.889H259.3V176.079C259.3 176.019 259.28 175.959 259.28 175.899ZM260 175.919C260 175.919 260 175.909 259.99 175.899C259.97 175.849 259.96 175.799 259.92 175.769C259.88 175.729 259.83 175.689 259.79 175.689C259.75 175.669 259.69 175.669 259.63 175.669C259.55 175.669 259.48 175.689 259.42 175.709C259.36 175.749 259.32 175.789 259.28 175.829C259.28 175.839 259.27 175.859 259.26 175.869C259.24 175.909 259.22 175.959 259.2 175.999C259.17 176.059 259.17 176.189 259.17 176.189H259.3V176.079C259.3 176.079 259.32 176.019 259.34 175.999C259.36 175.979 259.38 175.939 259.42 175.939C259.44 175.919 259.48 175.919 259.53 175.919H259.65C259.65 175.919 259.73 175.939 259.73 175.979C259.75 176.019 259.75 176.119 259.75 176.119V176.909H260.02V176.119C260.02 176.039 260 175.979 260 175.919ZM261.28 176.759V176.079C261.28 175.999 261.26 175.919 261.22 175.859C261.17 175.789 261.11 175.729 261.05 175.709C260.97 175.669 260.89 175.669 260.8 175.669C260.72 175.669 260.66 175.689 260.6 175.689C260.54 175.709 260.47 175.729 260.43 175.769C260.39 175.809 260.35 175.859 260.33 175.899C260.29 175.939 260.29 176.039 260.29 176.039H260.56C260.56 176.039 260.58 175.979 260.58 175.959C260.6 175.939 260.62 175.919 260.66 175.899C260.7 175.879 260.74 175.879 260.78 175.879C260.84 175.879 260.87 175.899 260.91 175.899C260.95 175.919 260.99 175.939 260.99 175.979C261.01 175.999 261.01 176.079 261.01 176.079V176.779L261.03 176.869H261.32C261.32 176.869 261.28 176.799 261.28 176.759ZM261.05 176.449C261.05 176.449 261.03 176.509 261.01 176.559C260.99 176.599 260.95 176.619 260.91 176.639C260.87 176.679 260.82 176.679 260.76 176.679C260.72 176.679 260.68 176.659 260.66 176.659C260.64 176.639 260.6 176.619 260.6 176.599C260.58 176.579 260.58 176.539 260.58 176.509V176.429C260.58 176.429 260.62 176.369 260.64 176.369C260.68 176.349 260.7 176.329 260.74 176.329H261.05V176.159L261.09 176.139H260.89C260.78 176.139 260.7 176.159 260.64 176.159C260.56 176.189 260.49 176.209 260.45 176.249C260.41 176.289 260.37 176.329 260.35 176.369C260.31 176.409 260.31 176.469 260.31 176.539C260.31 176.599 260.33 176.659 260.37 176.719C260.41 176.759 260.45 176.799 260.51 176.839C260.58 176.889 260.64 176.889 260.72 176.889C260.78 176.889 260.84 176.869 260.89 176.869C260.93 176.839 260.97 176.819 261.01 176.779C261.05 176.739 261.07 176.719 261.09 176.679C261.11 176.639 261.13 176.579 261.13 176.579L261.05 176.449ZM262.49 176.429C262.45 176.369 262.39 176.329 262.33 176.309C262.25 176.269 262.18 176.229 262.08 176.229C262.04 176.209 262 176.189 261.96 176.189C261.92 176.159 261.88 176.139 261.88 176.139C261.85 176.119 261.83 176.099 261.83 176.099V176.039C261.83 176.039 261.85 175.979 261.85 175.959C261.85 175.939 261.9 175.899 261.92 175.899C261.96 175.879 262 175.879 262.04 175.879C262.08 175.879 262.12 175.899 262.16 175.899C262.21 175.919 262.25 175.939 262.25 175.959C262.27 175.979 262.27 176.039 262.27 176.039H262.53C262.53 175.979 262.51 175.919 262.47 175.859C262.43 175.789 262.39 175.749 262.31 175.709C262.23 175.669 262.14 175.669 262.04 175.669C261.96 175.669 261.9 175.689 261.83 175.689C261.77 175.709 261.73 175.729 261.69 175.769C261.65 175.809 261.61 175.859 261.59 175.899C261.56 175.929 261.56 175.959 261.56 175.989C261.55 176.009 261.55 176.029 261.55 176.039C261.55 176.079 261.57 176.119 261.59 176.159C261.61 176.209 261.63 176.249 261.67 176.269C261.71 176.309 261.75 176.349 261.81 176.349C261.88 176.369 261.94 176.389 262 176.389C262.06 176.389 262.12 176.429 262.16 176.429C262.21 176.449 262.25 176.469 262.25 176.489V176.579L262.29 176.639C262.29 176.639 262.27 176.699 262.27 176.719C262.25 176.739 262.23 176.779 262.18 176.779H261.94C261.94 176.779 261.85 176.739 261.83 176.719C261.79 176.679 261.79 176.599 261.79 176.599H261.52C261.52 176.659 261.55 176.719 261.59 176.779C261.61 176.839 261.67 176.889 261.75 176.929C261.83 176.989 261.94 176.989 262.04 176.989C262.12 176.989 262.18 176.969 262.25 176.969C262.31 176.949 262.37 176.929 262.41 176.889C262.45 176.839 262.49 176.799 262.51 176.759C262.56 176.719 262.56 176.679 262.56 176.619C262.56 176.539 262.53 176.469 262.49 176.429Z" fill="white"/>
<path d="M348.99 176.62L349.49 176.13C349.49 176.13 349.53 176.05 349.49 176.01L349.41 175.93C349.41 175.93 349.33 175.89 349.29 175.93L348.94 176.28L348.59 175.93C348.59 175.93 348.51 175.89 348.47 175.93L348.39 176.01C348.39 176.01 348.35 176.09 348.39 176.13L348.88 176.62C348.88 176.62 348.96 176.66 349 176.62H348.99Z" fill="black"/>
<path d="M348 175.36H349.84V177.19H348V175.36Z" fill="white"/>
<path d="M375.74 176.62L376.23 176.13C376.23 176.13 376.27 176.05 376.23 176.01L376.15 175.93C376.15 175.93 376.07 175.89 376.03 175.93L375.68 176.28L375.33 175.93C375.33 175.93 375.25 175.89 375.21 175.93L375.13 176.01C375.13 176.01 375.09 176.09 375.13 176.13L375.63 176.62C375.63 176.62 375.71 176.66 375.75 176.62H375.74Z" fill="black"/>
<path d="M374.77 175.36H376.61V177.19H374.77V175.36Z" fill="white"/>
<path d="M252.79 201.29H265.3V207.19H252.79V201.29Z" fill="#4D648D"/>
<path d="M252.74 201.25V207.25H265.36V201.25H252.74ZM265.26 207.15H252.85V201.35H265.26V207.15Z" fill="#B8CDEB"/>
<path d="M252.78 232.75H265.29V238.65H252.78V232.75Z" fill="#6BBF59"/>
<path d="M252.74 232.709V238.699H265.36V232.709H252.74ZM265.26 238.599H252.85V232.809H265.26V238.599Z" fill="#B8CDEB"/>
<path d="M295.7 201.29H308.21V207.19H295.7V201.29Z" fill="#4D648D"/>
<path d="M295.66 201.25V207.25H308.28V201.25H295.66ZM308.17 207.15H295.76V201.35H308.17V207.15Z" fill="#B8CDEB"/>
<path d="M295.7 232.75H308.21V238.65H295.7V232.75Z" fill="#4D648D"/>
<path d="M295.66 232.709V238.699H308.28V232.709H295.66ZM308.17 238.599H295.76V232.809H308.17V238.599Z" fill="#B8CDEB"/>
<path d="M324.31 201.29H336.82V207.19H324.31V201.29Z" fill="#4D648D"/>
<path d="M324.25 201.25V207.25H336.87V201.25H324.25ZM336.76 207.15H324.35V201.35H336.76V207.15Z" fill="#B8CDEB"/>
<path d="M324.31 232.75H336.82V238.65H324.31V232.75Z" fill="#4D648D"/>
<path d="M324.25 232.709V238.699H336.87V232.709H324.25ZM336.76 238.599H324.35V232.809H336.76V238.599Z" fill="#B8CDEB"/>
<path d="M381.52 232.77H394.03V238.67H381.52V232.77Z" fill="#4D648D"/>
<path d="M381.47 232.729V238.729H394.09V232.729H381.47ZM393.99 238.619H381.58V232.829H393.99V238.619Z" fill="#B8CDEB"/>
<path d="M267.09 208.959H279.6V214.859H267.09V208.959Z" fill="#4D648D"/>
<path d="M267.05 208.899V214.899H279.66V208.899H267.05ZM279.56 214.789H267.15V208.999H279.56V214.789Z" fill="#B8CDEB"/>
<path d="M267.09 240.439H279.6V246.339H267.09V240.439Z" fill="#4D648D"/>
<path d="M267.05 240.37V246.37H279.66V240.37H267.05ZM279.56 246.27H267.15V240.48H279.56V246.27Z" fill="#B8CDEB"/>
<path d="M367.21 232.56H379.72V238.46H367.21V232.56Z" fill="#6BBF59"/>
<path d="M367.17 232.52V238.52H379.78V232.52H367.17ZM379.68 238.41H367.27V232.62H379.68V238.41Z" fill="#B8CDEB"/>
<path d="M391.14 174.51H387.99V177.62H391.14V174.51Z" fill="#4D648D"/>
<path d="M386.5 174.51H383.35V177.62H386.5V174.51Z" fill="#B1C5FF"/>
<path d="M267.09 201.29H279.6V207.19H267.09V201.29Z" fill="#6BBF59"/>
<path d="M267.05 201.25V207.25H279.66V201.25H267.05ZM279.56 207.15H267.15V201.35H279.56V207.15Z" fill="#6BBF59"/>
<path d="M267.09 232.75H279.6V238.65H267.09V232.75Z" fill="#4F6693"/>
<path d="M267.05 232.709V238.699H279.66V232.709H267.05ZM279.56 238.599H267.15V232.809H279.56V238.599Z" fill="#6BBF59"/>
<path d="M310.01 201.29H322.52V207.19H310.01V201.29Z" fill="#6BBF59"/>
<path d="M309.95 201.25V207.25H322.56V201.25H309.95ZM322.46 207.15H310.05V201.35H322.46V207.15Z" fill="#6BBF59"/>
<path d="M310.01 232.75H322.52V238.65H310.01V232.75Z" fill="#4D648D"/>
<path d="M309.95 232.709V238.699H322.56V232.709H309.95ZM322.46 238.599H310.05V232.809H322.46V238.599Z" fill="#6BBF59"/>
<path d="M338.6 201.29H351.11V207.19H338.6V201.29Z" fill="#6BBF59"/>
<path d="M338.56 201.25V207.25H351.17V201.25H338.56ZM351.07 207.15H338.66V201.35H351.07V207.15Z" fill="#6BBF59"/>
<path d="M338.6 232.75H351.11V238.65H338.6V232.75Z" fill="#6BBF59"/>
<path d="M338.56 232.709V238.699H351.17V232.709H338.56ZM351.07 238.599H338.66V232.809H351.07V238.599Z" fill="#6BBF59"/>
<path d="M352.9 201.29H365.41V207.19H352.9V201.29Z" fill="#4D648D"/>
<path d="M352.86 201.25V207.25H365.48V201.25H352.86ZM365.38 207.15H352.97V201.35H365.38V207.15Z" fill="#6BBF59"/>
<path d="M352.9 232.75H365.41V238.65H352.9V232.75Z" fill="#6BBF59"/>
<path d="M352.86 232.709V238.699H365.48V232.709H352.86ZM365.38 238.599H352.97V232.809H365.38V238.599Z" fill="#6BBF59"/>
<path d="M281.4 201.29H293.91V207.19H281.4V201.29Z" fill="#6BBF59"/>
<path d="M281.35 201.25V207.25H293.97V201.25H281.35ZM293.87 207.15H281.46V201.35H293.87V207.15Z" fill="#6BBF59"/>
<path d="M281.4 232.75H293.91V238.65H281.4V232.75Z" fill="#6BBF59"/>
<path d="M281.35 232.709V238.699H293.97V232.709H281.35ZM293.87 238.599H281.46V232.809H293.87V238.599Z" fill="#6BBF59"/>
<path d="M252.78 208.959H265.29V214.859H252.78V208.959Z" fill="#4D648D"/>
<path d="M252.74 208.899V214.899H265.36V208.899H252.74ZM265.26 214.789H252.85V208.999H265.26V214.789Z" fill="#6BBF59"/>
<path d="M252.79 240.409H265.3V246.309H252.79V240.409Z" fill="#6BBF59"/>
<path d="M252.74 240.37V246.37H265.36V240.37H252.74ZM265.26 246.27H252.85V240.48H265.26V246.27Z" fill="#6BBF59"/>
<path d="M281.4 208.959H293.91V214.859H281.4V208.959Z" fill="#4D648D"/>
<path d="M281.35 208.899V214.899H293.97V208.899H281.35ZM293.87 214.789H281.46V208.999H293.87V214.789Z" fill="#6BBF59"/>
<path d="M367.21 201.31H379.72V207.21H367.21V201.31Z" fill="#4D648D"/>
<path d="M367.17 201.27V207.27H379.78V201.27H367.17ZM379.68 207.17H367.27V201.37H379.68V207.17Z" fill="#6BBF59"/>
<path d="M295.7 208.959H308.21V214.859H295.7V208.959Z" fill="#6BBF59"/>
<path d="M295.66 208.899V214.899H308.28V208.899H295.66ZM308.17 214.789H295.76V208.999H308.17V214.789Z" fill="#6BBF59"/>
<path d="M381.52 201.31H394.03V207.21H381.52V201.31Z" fill="#6BBF59"/>
<path d="M381.47 201.27V207.27H394.09V201.27H381.47ZM393.99 207.17H381.58V201.37H393.99V207.17Z" fill="#6BBF59"/>
<path d="M343.81 182.939H357.27C357.43 182.939 357.58 183.079 357.58 183.249V186.549C357.58 186.719 357.44 186.859 357.27 186.859H343.81C343.65 186.859 343.5 186.719 343.5 186.549V183.249C343.5 183.089 343.64 182.939 343.81 182.939Z" fill="#EEF2F8"/>
<path d="M357.66 183.09L357.6 183C357.52 182.9 357.4 182.84 357.27 182.84H343.81C343.59 182.84 343.4 183.03 343.4 183.25V186.57C343.4 186.8 343.59 186.98 343.81 186.98H357.27C357.41 186.98 357.53 186.92 357.6 186.82C357.63 186.79 357.65 186.76 357.66 186.72C357.66 186.72 357.69 186.63 357.69 186.58V183.26C357.69 183.26 357.68 183.15 357.66 183.1V183.09ZM343.61 186.57V183.25C343.61 183.15 343.69 183.05 343.81 183.05H357.27C357.38 183.05 357.48 183.13 357.48 183.25V186.57C357.48 186.68 357.4 186.78 357.27 186.78H343.81C343.71 186.78 343.61 186.7 343.61 186.57Z" fill="#C1D3ED"/>
<path d="M357.91 182.939H371.17C371.33 182.939 371.48 183.079 371.48 183.249V186.549C371.48 186.719 371.34 186.859 371.17 186.859H357.91C357.75 186.859 357.6 186.719 357.6 186.549V183.249C357.6 183.089 357.74 182.939 357.91 182.939Z" fill="#EEF2F8"/>
<path d="M371.55 183.09C371.55 183.09 371.5 183.01 371.48 182.98C371.4 182.9 371.29 182.84 371.17 182.84H357.91C357.78 182.84 357.67 182.9 357.6 183C357.57 183.03 357.55 183.06 357.53 183.09C357.51 183.14 357.5 183.2 357.5 183.25V186.57C357.5 186.57 357.51 186.67 357.53 186.71C357.53 186.71 357.56 186.79 357.6 186.82C357.66 186.92 357.78 186.98 357.91 186.98H371.17C371.29 186.98 371.4 186.93 371.48 186.84C371.5 186.82 371.52 186.79 371.54 186.75C371.56 186.7 371.58 186.64 371.58 186.57V183.25C371.58 183.25 371.57 183.14 371.55 183.09ZM371.17 186.78H357.91C357.81 186.78 357.71 186.7 357.71 186.57V183.25C357.71 183.15 357.79 183.05 357.91 183.05H371.17C371.27 183.05 371.37 183.13 371.37 183.25V186.57C371.37 186.68 371.29 186.78 371.17 186.78Z" fill="#C1D3ED"/>
<path d="M371.79 182.939H385.04C385.21 182.939 385.35 183.079 385.35 183.249V186.569C385.35 186.729 385.21 186.879 385.04 186.879H371.79C371.62 186.879 371.48 186.739 371.48 186.569V183.269C371.48 183.109 371.62 182.959 371.79 182.959V182.939Z" fill="#4D648D"/>
<path d="M385.42 183.09C385.42 183.09 385.38 183.02 385.35 182.99C385.28 182.9 385.17 182.84 385.04 182.84H371.79C371.67 182.84 371.55 182.9 371.48 182.98C371.45 183.01 371.43 183.04 371.41 183.08C371.38 183.13 371.37 183.19 371.37 183.25V186.57C371.37 186.63 371.38 186.68 371.4 186.73C371.43 186.78 371.45 186.81 371.48 186.84C371.55 186.93 371.67 186.98 371.79 186.98H385.04C385.17 186.98 385.28 186.92 385.35 186.83C385.38 186.8 385.41 186.76 385.42 186.72C385.42 186.72 385.45 186.62 385.45 186.57V183.25C385.45 183.25 385.44 183.14 385.42 183.09ZM385.25 186.57C385.25 186.68 385.16 186.78 385.04 186.78H371.79C371.68 186.78 371.58 186.7 371.58 186.57V183.25C371.58 183.15 371.66 183.05 371.79 183.05H385.04C385.14 183.05 385.25 183.13 385.25 183.25V186.57Z" fill="#C1D3ED"/>
<path d="M385.68 182.939H398.94C399.1 182.939 399.25 183.079 399.25 183.249V186.549C399.25 186.719 399.11 186.859 398.94 186.859H385.68C385.52 186.859 385.37 186.719 385.37 186.549V183.249C385.37 183.089 385.51 182.939 385.68 182.939Z" fill="#EEF2F8"/>
<path d="M398.91 182.84H385.66C385.53 182.84 385.42 182.9 385.35 182.99C385.32 183.02 385.3 183.05 385.29 183.08C385.26 183.13 385.25 183.19 385.25 183.25V186.57C385.25 186.64 385.26 186.7 385.29 186.75C385.31 186.78 385.32 186.81 385.35 186.83C385.42 186.92 385.53 186.98 385.66 186.98H398.91C399.14 186.98 399.32 186.8 399.32 186.57V183.25C399.32 183.03 399.14 182.84 398.91 182.84ZM399.12 186.57C399.12 186.68 399.04 186.78 398.91 186.78H385.66C385.56 186.78 385.45 186.7 385.45 186.57V183.25C385.45 183.15 385.54 183.05 385.66 183.05H398.91C399.02 183.05 399.12 183.13 399.12 183.25V186.57Z" fill="#C1D3ED"/>
<path d="M393.04 174.409H403.35C403.51 174.409 403.66 174.549 403.66 174.719V177.399C403.66 177.559 403.52 177.709 403.35 177.709H393.04C392.88 177.709 392.73 177.569 392.73 177.399V174.719C392.73 174.549 392.87 174.409 393.04 174.409Z" fill="#EEF2F8"/>
<path d="M403.35 174.29H393.04C392.81 174.29 392.63 174.47 392.63 174.7V177.4C392.63 177.63 392.81 177.81 393.04 177.81H403.35C403.57 177.81 403.76 177.63 403.76 177.4V174.7C403.76 174.47 403.57 174.29 403.35 174.29ZM403.55 177.4C403.55 177.5 403.47 177.61 403.35 177.61H393.04C392.94 177.61 392.83 177.52 392.83 177.4V174.7C392.83 174.6 392.91 174.49 393.04 174.49H403.35C403.45 174.49 403.55 174.58 403.55 174.7V177.4Z" fill="#C1D3ED"/>
<path d="M350.29 174.14H326.58C326.35 174.14 326.17 174.33 326.17 174.56V177.83C326.17 178.06 326.35 178.25 326.58 178.25H350.29C350.51 178.25 350.7 178.06 350.7 177.83V174.56C350.7 174.33 350.51 174.14 350.29 174.14ZM350.49 177.83C350.49 177.94 350.41 178.04 350.29 178.04H326.58C326.48 178.04 326.37 177.96 326.37 177.83V174.56C326.37 174.45 326.46 174.35 326.58 174.35H350.29C350.39 174.35 350.49 174.43 350.49 174.56V177.83Z" fill="white"/>
<path d="M377.04 174.14H353.34C353.11 174.14 352.92 174.33 352.92 174.56V177.83C352.92 178.06 353.11 178.25 353.34 178.25H377.04C377.27 178.25 377.46 178.06 377.46 177.83V174.56C377.46 174.33 377.27 174.14 377.04 174.14ZM377.25 177.83C377.25 177.94 377.17 178.04 377.04 178.04H353.34C353.23 178.04 353.13 177.96 353.13 177.83V174.56C353.13 174.45 353.21 174.35 353.34 174.35H377.04C377.14 174.35 377.25 174.43 377.25 174.56V177.83Z" fill="white"/>
<path d="M328.72 175.09H343.67C344.29 175.09 344.78 175.58 344.78 176.18C344.78 176.78 344.28 177.27 343.67 177.27H328.72C328.1 177.27 327.61 176.78 327.61 176.18C327.61 175.58 328.11 175.09 328.72 175.09Z" fill="#B1C5FF"/>
<path d="M354.95 175.09H369.26C369.88 175.09 370.37 175.58 370.37 176.18C370.37 176.78 369.87 177.27 369.26 177.27H354.95C354.33 177.27 353.84 176.78 353.84 176.18C353.84 175.58 354.34 175.09 354.95 175.09Z" fill="#B1C5FF"/>
<path d="M250.97 227.389C250.97 227.389 250.87 227.329 250.81 227.279C250.72 227.259 250.64 227.219 250.56 227.199C250.5 227.179 250.44 227.139 250.39 227.139C250.35 227.119 250.31 227.099 250.29 227.079C250.27 227.059 250.23 227.039 250.23 227.019C250.21 226.999 250.21 226.949 250.21 226.929C250.21 226.889 250.23 226.849 250.25 226.809C250.27 226.769 250.31 226.729 250.35 226.729C250.39 226.709 250.45 226.709 250.52 226.709C250.58 226.709 250.64 226.729 250.68 226.749C250.72 226.769 250.77 226.809 250.79 226.849C250.83 226.889 250.83 226.999 250.83 226.999H251.12C251.12 226.909 251.07 226.829 251.03 226.749C250.99 226.669 250.91 226.599 250.83 226.559C250.74 226.519 250.64 226.499 250.52 226.499C250.41 226.499 250.33 226.519 250.27 226.539C250.21 226.559 250.15 226.579 250.08 226.619C250.02 226.669 249.98 226.709 249.96 226.769C249.92 226.829 249.92 226.869 249.92 226.949C249.92 227.039 249.94 227.099 249.96 227.139C250 227.199 250.04 227.239 250.08 227.279C250.13 227.329 250.19 227.369 250.25 227.389C250.33 227.429 250.39 227.449 250.48 227.469C250.56 227.489 250.62 227.509 250.66 227.529C250.7 227.549 250.74 227.569 250.77 227.589C250.81 227.609 250.83 227.629 250.83 227.659V227.729C250.83 227.729 250.82 227.749 250.81 227.759C250.79 227.799 250.74 227.839 250.7 227.839C250.66 227.859 250.6 227.859 250.54 227.859H250.39C250.33 227.859 250.31 227.839 250.27 227.819C250.23 227.799 250.19 227.779 250.19 227.739C250.17 227.699 250.17 227.589 250.17 227.589H249.88C249.88 227.679 249.9 227.759 249.94 227.819C249.98 227.879 250.02 227.939 250.08 227.989C250.15 228.029 250.21 228.069 250.29 228.089C250.35 228.129 250.44 228.129 250.52 228.129C250.62 228.129 250.7 228.109 250.77 228.109C250.85 228.089 250.91 228.069 250.95 228.029C251.01 227.989 251.05 227.939 251.07 227.879C251.12 227.819 251.12 227.759 251.12 227.699C251.12 227.629 251.09 227.569 251.07 227.529C251.05 227.469 251.01 227.429 250.97 227.389ZM252.29 228.029V227.349C252.29 227.259 252.27 227.179 252.23 227.119C252.19 227.059 252.13 226.999 252.06 226.979C251.98 226.929 251.9 226.929 251.82 226.929C251.73 226.929 251.67 226.949 251.61 226.949C251.55 226.979 251.49 226.999 251.45 227.039C251.4 227.079 251.36 227.119 251.34 227.159C251.3 227.199 251.3 227.309 251.3 227.309H251.57C251.57 227.309 251.59 227.239 251.59 227.219C251.61 227.199 251.63 227.159 251.67 227.159C251.71 227.139 251.75 227.139 251.8 227.139C251.86 227.139 251.88 227.159 251.92 227.159C251.96 227.179 252 227.199 252 227.239C252.02 227.259 252.02 227.349 252.02 227.349V228.049L252.04 228.129H252.33C252.33 228.129 252.29 228.069 252.29 228.029ZM252.06 227.719C252.06 227.719 252.04 227.779 252.02 227.819C252 227.859 251.96 227.879 251.92 227.899C251.88 227.939 251.84 227.939 251.78 227.939C251.73 227.939 251.69 227.919 251.67 227.919C251.65 227.899 251.61 227.879 251.61 227.859C251.59 227.839 251.59 227.799 251.59 227.779V227.699C251.59 227.699 251.63 227.629 251.65 227.629C251.69 227.609 251.71 227.589 251.75 227.589H252.06V227.429L252.1 227.409H251.9C251.8 227.409 251.71 227.429 251.65 227.429C251.57 227.449 251.51 227.469 251.46 227.509C251.42 227.549 251.38 227.589 251.36 227.629C251.32 227.679 251.32 227.739 251.32 227.799C251.32 227.859 251.34 227.919 251.38 227.989C251.42 228.029 251.46 228.069 251.53 228.109C251.59 228.149 251.65 228.149 251.73 228.149C251.8 228.149 251.86 228.129 251.9 228.129C251.94 228.109 251.98 228.089 252.02 228.049C252.06 228.009 252.08 227.989 252.1 227.939C252.13 227.899 252.15 227.839 252.15 227.839L252.06 227.719ZM252.6 226.459V228.169H252.87V226.459H252.6ZM254.12 228.029V227.349C254.12 227.259 254.1 227.179 254.06 227.119C254.02 227.059 253.96 226.999 253.9 226.979C253.82 226.929 253.73 226.929 253.65 226.929C253.57 226.929 253.51 226.949 253.44 226.949C253.38 226.979 253.32 226.999 253.28 227.039C253.24 227.079 253.2 227.119 253.18 227.159C253.14 227.199 253.14 227.309 253.14 227.309H253.4C253.4 227.309 253.42 227.239 253.42 227.219C253.44 227.199 253.47 227.159 253.51 227.159C253.55 227.139 253.59 227.139 253.63 227.139C253.69 227.139 253.71 227.159 253.75 227.159C253.8 227.179 253.84 227.199 253.84 227.239C253.86 227.259 253.86 227.349 253.86 227.349V228.049L253.88 228.129H254.17C254.17 228.129 254.12 228.069 254.12 228.029ZM253.9 227.719C253.9 227.719 253.88 227.779 253.86 227.819C253.84 227.859 253.8 227.879 253.75 227.899C253.71 227.939 253.67 227.939 253.61 227.939C253.57 227.939 253.53 227.919 253.51 227.919C253.49 227.899 253.44 227.879 253.44 227.859C253.42 227.839 253.42 227.799 253.42 227.779V227.699C253.42 227.699 253.47 227.629 253.49 227.629C253.53 227.609 253.55 227.589 253.59 227.589H253.9V227.429L253.94 227.409H253.73C253.63 227.409 253.55 227.429 253.49 227.429C253.4 227.449 253.34 227.469 253.3 227.509C253.26 227.549 253.22 227.589 253.2 227.629C253.16 227.679 253.16 227.739 253.16 227.799C253.16 227.859 253.18 227.919 253.22 227.989C253.26 228.029 253.3 228.069 253.36 228.109C253.42 228.149 253.49 228.149 253.57 228.149C253.63 228.149 253.69 228.129 253.73 228.129C253.77 228.109 253.82 228.089 253.86 228.049C253.9 228.009 253.92 227.989 253.94 227.939C253.96 227.899 253.98 227.839 253.98 227.839L253.9 227.719ZM255.34 227.919L255.69 227.529C255.75 227.489 255.79 227.429 255.84 227.389C255.88 227.349 255.92 227.279 255.94 227.239C255.96 227.199 256 227.139 256 227.099C256.02 227.059 256.02 226.999 256.02 226.949C256.02 226.869 256 226.789 255.96 226.729C255.94 226.669 255.88 226.619 255.79 226.579C255.71 226.519 255.61 226.519 255.51 226.519C255.38 226.519 255.28 226.539 255.2 226.579C255.11 226.619 255.05 226.689 255.01 226.769C254.97 226.849 254.95 227.039 254.95 227.039H255.22C255.22 226.979 255.24 226.909 255.26 226.869C255.28 226.829 255.32 226.789 255.36 226.769C255.4 226.729 255.44 226.729 255.51 226.729C255.57 226.729 255.61 226.749 255.65 226.769C255.69 226.789 255.73 226.809 255.73 226.849C255.75 226.889 255.75 226.949 255.75 226.999C255.75 227.019 255.73 227.059 255.73 227.099C255.73 227.139 255.71 227.179 255.67 227.219C255.63 227.259 255.53 227.389 255.53 227.389L254.99 227.959V228.149H256.08V227.939L256.1 227.919H255.34Z" fill="#4D648D"/>
<path d="M250.97 196.55C250.97 196.55 250.87 196.49 250.81 196.45C250.72 196.43 250.64 196.39 250.56 196.36C250.5 196.34 250.44 196.3 250.39 196.3C250.35 196.28 250.31 196.26 250.29 196.24C250.27 196.22 250.23 196.2 250.23 196.18C250.21 196.16 250.21 196.12 250.21 196.1C250.21 196.06 250.23 196.01 250.25 195.97C250.27 195.93 250.31 195.89 250.35 195.89C250.39 195.87 250.45 195.87 250.52 195.87C250.58 195.87 250.64 195.89 250.68 195.91C250.72 195.93 250.77 195.97 250.79 196.01C250.83 196.06 250.83 196.16 250.83 196.16H251.12C251.12 196.08 251.07 195.99 251.03 195.91C250.99 195.83 250.91 195.77 250.83 195.73C250.74 195.68 250.64 195.66 250.52 195.66C250.41 195.66 250.33 195.68 250.27 195.71C250.21 195.73 250.15 195.75 250.08 195.79C250.02 195.83 249.98 195.87 249.96 195.93C249.92 195.99 249.92 196.03 249.92 196.12C249.92 196.2 249.94 196.26 249.96 196.3C250 196.36 250.04 196.41 250.08 196.45C250.13 196.49 250.19 196.53 250.25 196.55C250.33 196.59 250.39 196.61 250.48 196.63C250.56 196.65 250.62 196.67 250.66 196.69C250.7 196.72 250.74 196.74 250.77 196.76C250.81 196.78 250.83 196.8 250.83 196.82V196.89C250.83 196.89 250.82 196.91 250.81 196.92C250.79 196.96 250.74 197 250.7 197C250.66 197.02 250.6 197.02 250.54 197.02H250.39C250.33 197.02 250.31 197 250.27 196.98C250.23 196.96 250.19 196.94 250.19 196.9C250.17 196.86 250.17 196.76 250.17 196.76H249.88C249.88 196.84 249.9 196.92 249.94 196.98C249.98 197.05 250.02 197.11 250.08 197.15C250.15 197.19 250.21 197.23 250.29 197.25C250.35 197.29 250.44 197.29 250.52 197.29C250.62 197.29 250.7 197.27 250.77 197.27C250.85 197.25 250.91 197.23 250.95 197.19C251.01 197.15 251.05 197.11 251.07 197.05C251.12 196.98 251.12 196.92 251.12 196.86C251.12 196.8 251.09 196.74 251.07 196.69C251.05 196.63 251.01 196.59 250.97 196.55ZM252.29 197.19V196.51C252.29 196.43 252.27 196.34 252.23 196.28C252.19 196.22 252.13 196.16 252.06 196.14C251.98 196.1 251.9 196.1 251.82 196.1C251.73 196.1 251.67 196.12 251.61 196.12C251.55 196.14 251.49 196.16 251.45 196.2C251.4 196.24 251.36 196.28 251.34 196.32C251.3 196.36 251.3 196.47 251.3 196.47H251.57C251.57 196.47 251.59 196.41 251.59 196.39C251.61 196.36 251.63 196.34 251.67 196.32C251.71 196.3 251.75 196.3 251.8 196.3C251.86 196.3 251.88 196.32 251.92 196.32C251.96 196.34 252 196.36 252 196.41C252.02 196.43 252.02 196.51 252.02 196.51V197.21L252.04 197.29H252.33C252.33 197.29 252.29 197.23 252.29 197.19ZM252.06 196.88C252.06 196.88 252.04 196.94 252.02 196.98C252 197.02 251.96 197.05 251.92 197.07C251.88 197.11 251.84 197.11 251.78 197.11C251.73 197.11 251.69 197.09 251.67 197.09C251.65 197.07 251.61 197.05 251.61 197.02C251.59 197 251.59 196.96 251.59 196.94V196.86C251.59 196.86 251.63 196.8 251.65 196.8C251.69 196.78 251.71 196.76 251.75 196.76H252.06V196.59L252.1 196.57H251.9C251.8 196.57 251.71 196.59 251.65 196.59C251.57 196.61 251.51 196.63 251.46 196.67C251.42 196.72 251.38 196.76 251.36 196.8C251.32 196.84 251.32 196.9 251.32 196.96C251.32 197.02 251.34 197.09 251.38 197.15C251.42 197.19 251.46 197.23 251.53 197.27C251.59 197.31 251.65 197.31 251.73 197.31C251.8 197.31 251.86 197.29 251.9 197.29C251.94 197.27 251.98 197.25 252.02 197.21C252.06 197.17 252.08 197.15 252.1 197.11C252.13 197.07 252.15 197 252.15 197L252.06 196.88ZM252.6 195.62V197.33H252.87V195.62H252.6ZM254.12 197.19V196.51C254.12 196.43 254.1 196.34 254.06 196.28C254.02 196.22 253.96 196.16 253.9 196.14C253.82 196.1 253.73 196.1 253.65 196.1C253.57 196.1 253.51 196.12 253.44 196.12C253.38 196.14 253.32 196.16 253.28 196.2C253.24 196.24 253.2 196.28 253.18 196.32C253.14 196.36 253.14 196.47 253.14 196.47H253.4C253.4 196.47 253.42 196.41 253.42 196.39C253.44 196.36 253.47 196.34 253.51 196.32C253.55 196.3 253.59 196.3 253.63 196.3C253.69 196.3 253.71 196.32 253.75 196.32C253.8 196.34 253.84 196.36 253.84 196.41C253.86 196.43 253.86 196.51 253.86 196.51V197.21L253.88 197.29H254.17C254.17 197.29 254.12 197.23 254.12 197.19ZM253.9 196.88C253.9 196.88 253.88 196.94 253.86 196.98C253.84 197.02 253.8 197.05 253.75 197.07C253.71 197.11 253.67 197.11 253.61 197.11C253.57 197.11 253.53 197.09 253.51 197.09C253.49 197.07 253.44 197.05 253.44 197.02C253.42 197 253.42 196.96 253.42 196.94V196.86C253.42 196.86 253.47 196.8 253.49 196.8C253.53 196.78 253.55 196.76 253.59 196.76H253.9V196.59L253.94 196.57H253.73C253.63 196.57 253.55 196.59 253.49 196.59C253.4 196.61 253.34 196.63 253.3 196.67C253.26 196.72 253.22 196.76 253.2 196.8C253.16 196.84 253.16 196.9 253.16 196.96C253.16 197.02 253.18 197.09 253.22 197.15C253.26 197.19 253.3 197.23 253.36 197.27C253.42 197.31 253.49 197.31 253.57 197.31C253.63 197.31 253.69 197.29 253.73 197.29C253.77 197.27 253.82 197.25 253.86 197.21C253.9 197.17 253.92 197.15 253.94 197.11C253.96 197.07 253.98 197 253.98 197L253.9 196.88ZM255.67 195.73L255.03 195.95V196.18L255.44 196.03V197.33H255.71V195.73H255.67Z" fill="#4D648D"/>
<g opacity="0.1">
<path d="M230.46 167.839C231.98 165.679 234.66 164.229 237.74 164.229H407.37C412.13 164.229 415.99 167.709 415.99 171.999V262.859L230.47 167.829L230.46 167.839Z" fill="#00325B"/>
</g>
<path d="M496 317.12H361.21H359.38H338.77H333.61H291.75H285.94H251.75H212.49H177.19H176.89H157.4H118.33H80.6502H67.4902V332.18H81.2702H93.7302H118.33H146.46H160.81H177.32H181.66H212.49H252.51H429.06H481.79H496V317.12Z" fill="#8E98AE"/>
<path d="M429.06 332.179V469.999H439.2V379.699H471.65V469.999H481.79V332.179H429.06ZM471.65 367.309H439.2V344.579H471.65V367.309Z" fill="#8E98AE"/>
<path d="M93.7305 332.179V468.289C95.7205 469.379 98.0105 469.999 100.43 469.999H103.87V379.699H136.32V469.999H146.46V332.179H93.7305ZM103.87 367.309V344.579H136.32V367.309H103.87ZM136.32 420.689V469.999H146.46V420.689H136.32Z" fill="#8E98AE"/>
<path d="M265.22 410.069C264.98 410.419 264.73 410.819 264.47 411.279C259.7 419.589 251.81 445.149 244.77 469.999H219.8C223.88 448.139 229.48 431.679 234.06 420.689C235.91 416.229 237.6 412.669 238.95 410.019C239.94 408.069 240.75 406.599 241.32 405.629C241.88 404.659 242.19 404.169 242.19 404.169C257 387.649 265.22 410.069 265.22 410.069Z" fill="#2F7569"/>
<path d="M118.33 405.63H259.57V420.69H118.33V405.63Z" fill="#556074"/>
<path d="M148.46 420.689H204.96V431.989H148.46V420.689Z" fill="#8E98AE"/>
<path d="M180.48 431.99H172.95V470H180.48V431.99Z" fill="#8E98AE"/>
<path d="M175.24 383.839C166.33 408.869 303.66 423.119 308.13 398.449C311.15 381.659 296.28 380.009 296.28 380.009C292.78 377.809 231.42 370.029 231.42 370.029C231.42 370.029 181.17 367.179 175.25 383.839H175.24Z" fill="#3B8B7F"/>
<path d="M308.54 398.2C306.56 408.66 302.25 440.05 298.27 470H270.72C270.48 460.82 270.64 450.99 272.03 439.88C273.65 426.96 276.07 417.52 278.53 410.7C283.08 398.05 287.79 394.44 287.79 394.44C297.52 377.13 306.59 394.14 308.26 397.61C308.45 397.98 308.54 398.2 308.54 398.2Z" fill="#3B8B7F"/>
<path d="M168 363.88L151.18 289.7C150.05 287.06 150.07 283.939 151.22 281.109L175.42 235.469C177.62 230.059 183.28 227.269 188.09 229.229C192.89 231.209 194.99 237.199 192.79 242.609L167.33 286.929L187.15 349.499C189.31 354.559 183.23 359.23 178.41 362.01C174.15 364.47 168.26 364.449 168.01 363.869L168 363.88Z" fill="#DADADA"/>
<path d="M210.35 221.14L183.66 227.28L175.52 272.6C177.55 330.29 179.65 337.08 171.45 390.03C171.45 390.03 165.35 396.21 201.97 396.21C238.59 396.21 257.25 380.94 265.04 375.61C266.99 374.27 253.16 370.34 252.83 361.19C252.1 340.92 253.64 336.26 250.8 305.56C254.03 301.73 254.99 272.84 254.99 272.84C254.99 272.84 250.37 239.92 250.51 228.34L225.4 221.07L210.36 221.11L210.34 221.13L210.35 221.14Z" fill="#EAEAEA"/>
<path d="M227.02 197.949L224.09 223.679H202.9L205.79 197.949H227.02Z" fill="#C6A595"/>
<path d="M243.84 179.889C245.05 191.679 238.06 204.449 231 206.009C215.44 204.809 205.13 193.279 204.96 173.399C207.32 154.859 211.42 146.539 226.98 147.739C242.54 148.939 246.2 161.339 243.86 179.899L243.84 179.879V179.889Z" fill="#FFD4BB"/>
<path d="M246.39 173.109V172.949C246.36 172.519 246.32 172.149 246.24 171.809L245.88 170.759C245.78 170.569 245.69 170.389 245.58 170.229C245.24 169.659 244.87 169.259 244.49 168.979C243.38 168.159 242.16 168.359 241.15 168.389C238.33 168.479 236.2 169.059 234.83 170.079C233.84 170.799 233.25 171.749 233.1 172.919C233.1 172.919 232.38 172.829 231.34 172.699C230.52 172.609 229.5 172.489 228.48 172.369C226.21 172.119 223.95 171.909 223.88 172.029C223.74 172.289 223.78 172.649 223.94 172.859L227.79 173.519L231.33 174.119L233.13 174.429C233.44 176.829 234.93 179.809 236.98 181.659C238.11 182.689 239.4 183.359 240.75 183.399C240.78 183.399 240.82 183.399 240.85 183.399H241.05C242.24 183.359 243.2 182.779 243.96 181.899C244.59 181.169 245.08 180.219 245.45 179.179C245.46 179.139 245.47 179.109 245.48 179.079C245.5 179.039 245.51 179.009 245.52 178.979C245.74 178.319 245.92 177.629 246.05 176.939C246.07 176.859 246.08 176.789 246.09 176.709C246.1 176.609 246.12 176.499 246.14 176.399L246.17 176.219L246.2 175.979C246.2 175.979 246.2 175.919 246.2 175.899C246.21 175.839 246.22 175.789 246.23 175.729C246.3 175.139 246.35 174.549 246.36 173.999C246.37 173.759 246.38 173.529 246.38 173.309V173.209C246.38 173.209 246.37 173.129 246.37 173.099L246.39 173.109ZM245.47 175.529C245.42 176.009 245.34 176.519 245.24 177.019V177.039C245.1 177.709 244.92 178.369 244.68 178.989C244.66 179.029 244.65 179.059 244.64 179.089C244.63 179.129 244.61 179.159 244.6 179.189C244.4 179.679 244.17 180.129 243.89 180.529C243.21 181.529 242.27 182.219 241.01 182.269H240.97L240.99 182.249H240.85C240.85 182.249 240.78 182.249 240.75 182.239C239.35 182.209 238.06 181.429 236.98 180.319C235.13 178.399 233.91 175.499 233.86 173.679C233.81 172.389 234.55 171.349 235.93 170.639C237.18 169.989 238.96 169.609 241.17 169.529C242.84 169.479 243.86 169.589 244.5 169.909C244.69 169.999 244.84 170.109 244.97 170.229C245.51 170.779 245.55 171.669 245.59 172.969V173.109C245.59 173.109 245.59 173.179 245.59 173.219V173.319C245.59 173.959 245.56 174.719 245.46 175.529H245.47Z" fill="#DD2450"/>
<path d="M183.69 152.25C187.81 137.81 200.23 123.83 214.58 127.5C228.93 131.17 238.76 132.14 235.17 150.18C232.97 161.21 231.48 171.15 222.77 179.73C223.06 180.58 223.35 181.46 223.59 182.41C226.56 194.04 222.33 209.11 222.33 209.11C221.31 217.68 235.85 223.68 220.57 227.7C220.57 237.35 217.35 241.37 213.33 258.26C208.51 264.69 203.37 267.12 194.83 270.32C185.01 274.01 174.73 259.94 173.92 259.06C175.99 241.36 183.24 230.03 183.66 214.03C184.16 195.35 177.99 172.11 183.66 152.24L183.69 152.25Z" fill="#292225"/>
<path d="M208.75 136.71C216.47 131.73 223.85 132.64 223.85 132.64C248.14 130.93 250.16 160.71 250.16 160.71C236.43 161.92 226.14 152.86 218.07 149.38L208.73 136.71H208.75Z" fill="#292225"/>
<path d="M192.51 279.449H138.3C127.27 279.449 118.34 288.159 118.34 298.859V405.619H212.5V298.859C212.5 288.139 203.55 279.449 192.54 279.449H192.52H192.51Z" fill="#556074"/>
<g clip-path="url(#clip0_158_478)">
<path d="M458.51 276.2C460.16 276.39 462.59 276.59 465.33 276.6C465.37 276.6 465.41 276.6 465.46 276.6C466.39 276.6 467.36 276.58 468.35 276.53C469.53 276.47 470.74 276.37 471.94 276.21C476.66 275.58 481.31 274.06 484.01 270.81C484.94 269.69 485.55 268.65 485.94 267.65C486.13 267.17 486.26 266.7 486.35 266.25C487.06 262.59 484.87 259.6 484.08 256.46C483.46 254.03 483.67 251.52 486.71 248.56C497.95 237.62 495.77 220.48 483.68 223.63C467.61 227.83 484.3 240.12 461.66 247.54C461.34 247.65 461.02 247.76 460.71 247.87C459.92 248.16 459.18 248.46 458.5 248.78V276.2H458.51Z" fill="#91A9ED"/>
<path d="M483 238.56C483 238.56 470.37 255.72 460.72 270.27C459.96 271.41 459.22 272.54 458.51 273.64V270.83C459.22 269.75 459.96 268.64 460.72 267.5C468.44 256 478.12 242.35 483 238.56Z" fill="#6183BA"/>
<path d="M448.46 213.81C437.22 227.84 458.93 228.03 445.64 248.21C445.35 248.65 445.04 249.11 444.71 249.57C444.41 250 444.12 250.42 443.86 250.84L457.05 277.83C457.31 277.92 457.55 277.99 457.76 278.05C458.33 278.22 458.66 278.3 458.66 278.3C458.66 278.3 458.95 278.15 459.46 277.87C459.49 277.86 459.52 277.84 459.55 277.82C459.69 277.75 459.83 277.66 459.99 277.57C464.57 274.99 479.35 265.86 479.91 255.46C480.29 248.32 476.13 246.36 472.51 244.08C469.38 242.12 466.65 239.91 467.61 233.93C470.36 216.81 457.09 203.03 448.46 213.81Z" fill="#8ED2DD"/>
<path d="M458.14 233.97C458.14 233.97 458.22 239.94 458.22 248.34C458.22 255.62 458.15 264.72 457.91 273.32C457.91 273.62 457.89 273.92 457.88 274.22C457.84 275.51 457.8 276.79 457.75 278.05C457.73 278.43 457.72 278.81 457.71 279.19L459.29 282.43C459.35 280.97 459.41 279.45 459.46 277.87C459.46 277.8 459.46 277.74 459.46 277.67C459.48 277.3 459.49 276.94 459.5 276.58C459.82 267.02 460.01 255.86 459.64 247.04C459.41 241.36 458.94 236.65 458.13 233.96L458.14 233.97Z" fill="#6183BA"/>
<path d="M457.43 279.56C449.77 283.85 441.87 278.1 440.03 275.88C439.4 275.12 438.98 274.4 438.71 273.72C438.58 273.39 438.49 273.07 438.43 272.76C437.95 270.26 439.44 268.22 439.98 266.08C440.41 264.42 440.26 262.71 438.18 260.69C430.51 253.23 432 241.53 440.24 243.69C451.2 246.55 445.28 255.8 455.26 260C465.24 264.2 465.08 275.26 457.42 279.55L457.43 279.56Z" fill="#9BDDB9"/>
<path d="M440.61 255.39C440.61 255.39 449.23 267.09 455.81 277.02C456.33 277.8 457.59 279.7 458.08 280.45L458.84 279.66C458.35 278.92 456.34 275.9 455.82 275.12C450.55 267.27 443.95 257.96 440.62 255.38L440.61 255.39Z" fill="#6183BA"/>
<path d="M459.12 280.45H483.2V314.57C483.2 316.17 481.91 317.46 480.31 317.46H437.93C436.33 317.46 435.04 316.17 435.04 314.57V280.45H459.12Z" fill="#BDCDFF"/>
<path d="M459.12 272.14H487.73C489.47 272.14 490.68 273.87 490.08 275.5L487.2 283.34C486.84 284.32 485.9 284.98 484.85 284.98H433.39C432.34 284.98 431.4 284.33 431.04 283.34L428.16 275.51C427.56 273.88 428.77 272.15 430.51 272.15H459.12V272.14Z" fill="#4D648D"/>
</g>
<g style="mix-blend-mode:lighten" opacity="0.2">
<path d="M252 352L410 264V170H267C267 170 252 147 242 148C232 149 216.5 166 216.5 190C216.5 214 224 231.5 224 231.5C224 231.5 232 223.5 247 238.5C262 253.5 249.5 263.501 242 291.5C234.5 319.5 252 352 252 352Z" fill="white"/>
</g>
<path d="M335.89 321.946C335.89 321.946 348.8 326.656 354.74 323.616C360.67 320.576 365.12 318.576 362.62 313.756C360.12 308.936 345.29 307.686 345.29 307.686C345.29 307.686 334.82 311.886 335.09 313.556C335.37 315.226 335.9 321.936 335.9 321.936L335.89 321.946Z" fill="#FFD4BB"/>
<path d="M313.37 322.976L283.23 314.606C280.57 313.596 239.98 271.406 239.98 271.406C237.57 266.116 235.86 250.836 237.92 242.606C239.16 237.666 251.99 224.976 254.4 230.266L295.59 300.216L337.12 304.936C342.23 306.866 341.48 314.416 340.21 319.746C339.1 324.456 327.69 324.686 313.37 322.986V322.976Z" fill="#DADADA"/>
<g style="mix-blend-mode:lighten" opacity="0.3">
<path d="M273 274.5L253.5 230C258 234.5 282.5 279 295.5 300.5C308 301.5 319.351 302.664 338.5 305.5L341 309.5L345.5 307.5C351.587 308.319 355.121 308.694 359 311L341 315C341 315 301 310.5 292 305.5C283 300.5 273 274.5 273 274.5Z" fill="white"/>
</g>
<circle cx="117" cy="238" r="13" fill="#BDCDFF" fill-opacity="0.3"/>
<circle cx="325" cy="123" r="10" fill="#BDCDFF" fill-opacity="0.3"/>
<circle cx="450" cy="96" r="5" fill="#BDCDFF" fill-opacity="0.3"/>
<circle cx="135" cy="168" r="5" fill="#BDCDFF" fill-opacity="0.3"/>
<circle cx="462" cy="177" r="7" fill="#BDCDFF" fill-opacity="0.3"/>
<defs>
<filter id="filter0_d_158_478" x="65.498" y="63.5791" width="430.502" height="414.421" filterUnits="userSpaceOnUse" color-interpolation-filters="sRGB">
<feFlood flood-opacity="0" result="BackgroundImageFix"/>
<feColorMatrix in="SourceAlpha" type="matrix" values="0 0 0 0 0 0 0 0 0 0 0 0 0 0 0 0 0 0 127 0" result="hardAlpha"/>
<feOffset dx="-4" dy="4"/>
<feGaussianBlur stdDeviation="2"/>
<feComposite in2="hardAlpha" operator="out"/>
<feColorMatrix type="matrix" values="0 0 0 0 0 0 0 0 0 0 0 0 0 0 0 0 0 0 0.15 0"/>
<feBlend mode="normal" in2="BackgroundImageFix" result="effect1_dropShadow_158_478"/>
<feBlend mode="normal" in="SourceGraphic" in2="effect1_dropShadow_158_478" result="shape"/>
</filter>
<filter id="filter1_d_158_478" x="65.498" y="63.5791" width="430.502" height="414.421" filterUnits="userSpaceOnUse" color-interpolation-filters="sRGB">
<feFlood flood-opacity="0" result="BackgroundImageFix"/>
<feColorMatrix in="SourceAlpha" type="matrix" values="0 0 0 0 0 0 0 0 0 0 0 0 0 0 0 0 0 0 127 0" result="hardAlpha"/>
<feOffset dx="-4" dy="4"/>
<feGaussianBlur stdDeviation="2"/>
<feComposite in2="hardAlpha" operator="out"/>
<feColorMatrix type="matrix" values="0 0 0 0 0 0 0 0 0 0 0 0 0 0 0 0 0 0 0.15 0"/>
<feBlend mode="normal" in2="BackgroundImageFix" result="effect1_dropShadow_158_478"/>
<feBlend mode="normal" in="SourceGraphic" in2="effect1_dropShadow_158_478" result="shape"/>
</filter>
<linearGradient id="paint0_linear_158_478" x1="94.5001" y1="470" x2="546" y2="27" gradientUnits="userSpaceOnUse">
<stop stop-color="#D9E2FF"/>
<stop offset="1" stop-color="#FDFDFD"/>
</linearGradient>
<clipPath id="clip0_158_478">
<rect width="66.05" height="107.47" fill="white" transform="translate(428 210)"/>
</clipPath>
</defs>
</svg>
