<svg width="505" height="480" viewBox="0 0 505 480" fill="none" xmlns="http://www.w3.org/2000/svg">
<mask id="mask0_158_482" style="mask-type:luminance" maskUnits="userSpaceOnUse" x="289" y="0" width="216" height="397">
<path d="M504.5 0H289.49V397H504.5V0Z" fill="white"/>
</mask>
<g mask="url(#mask0_158_482)">
<path d="M503.15 2.7C502.41 2.7 501.8 2.1 501.8 1.35C501.8 0.6 502.4 0 503.15 0C503.9 0 504.5 0.6 504.5 1.35C504.5 2.1 503.9 2.7 503.15 2.7Z" fill="#71869D"/>
<path d="M472.82 2.7C472.07 2.7 471.47 2.1 471.47 1.35C471.47 0.6 472.07 0 472.82 0C473.57 0 474.17 0.6 474.17 1.35C474.17 2.1 473.57 2.7 472.82 2.7Z" fill="#71869D"/>
<path d="M442.49 2.7C441.75 2.7 441.14 2.1 441.14 1.35C441.14 0.6 441.74 0 442.49 0C443.24 0 443.84 0.6 443.84 1.35C443.84 2.1 443.24 2.7 442.49 2.7Z" fill="#71869D"/>
<path d="M412.16 2.7C411.42 2.7 410.81 2.1 410.81 1.35C410.81 0.6 411.41 0 412.16 0C412.91 0 413.51 0.6 413.51 1.35C413.51 2.1 412.91 2.7 412.16 2.7Z" fill="#71869D"/>
<path d="M381.83 2.7C381.09 2.7 380.48 2.1 380.48 1.35C380.48 0.6 381.08 0 381.83 0C382.58 0 383.18 0.6 383.18 1.35C383.18 2.1 382.58 2.7 381.83 2.7Z" fill="#71869D"/>
<path d="M351.5 2.7C350.76 2.7 350.15 2.1 350.15 1.35C350.15 0.6 350.75 0 351.5 0C352.25 0 352.85 0.6 352.85 1.35C352.85 2.1 352.25 2.7 351.5 2.7Z" fill="#71869D"/>
<path d="M503.15 33.03C502.41 33.03 501.8 32.43 501.8 31.68C501.8 30.93 502.4 30.33 503.15 30.33C503.9 30.33 504.5 30.93 504.5 31.68C504.5 32.43 503.9 33.03 503.15 33.03Z" fill="#71869D"/>
<path d="M472.82 33.03C472.07 33.03 471.47 32.43 471.47 31.68C471.47 30.93 472.07 30.33 472.82 30.33C473.57 30.33 474.17 30.93 474.17 31.68C474.17 32.43 473.57 33.03 472.82 33.03Z" fill="#71869D"/>
<path d="M442.49 33.03C441.75 33.03 441.14 32.43 441.14 31.68C441.14 30.93 441.74 30.33 442.49 30.33C443.24 30.33 443.84 30.93 443.84 31.68C443.84 32.43 443.24 33.03 442.49 33.03Z" fill="#71869D"/>
<path d="M412.16 33.03C411.42 33.03 410.81 32.43 410.81 31.68C410.81 30.93 411.41 30.33 412.16 30.33C412.91 30.33 413.51 30.93 413.51 31.68C413.51 32.43 412.91 33.03 412.16 33.03Z" fill="#71869D"/>
<path d="M381.83 33.03C381.09 33.03 380.48 32.43 380.48 31.68C380.48 30.93 381.08 30.33 381.83 30.33C382.58 30.33 383.18 30.93 383.18 31.68C383.18 32.43 382.58 33.03 381.83 33.03Z" fill="#71869D"/>
<path d="M351.5 33.03C350.76 33.03 350.15 32.43 350.15 31.68C350.15 30.93 350.75 30.33 351.5 30.33C352.25 30.33 352.85 30.93 352.85 31.68C352.85 32.43 352.25 33.03 351.5 33.03Z" fill="#71869D"/>
<path d="M503.15 63.36C502.41 63.36 501.8 62.76 501.8 62.01C501.8 61.26 502.4 60.66 503.15 60.66C503.9 60.66 504.5 61.26 504.5 62.01C504.5 62.76 503.9 63.36 503.15 63.36Z" fill="#71869D"/>
<path d="M472.82 63.36C472.07 63.36 471.47 62.76 471.47 62.01C471.47 61.26 472.07 60.66 472.82 60.66C473.57 60.66 474.17 61.26 474.17 62.01C474.17 62.76 473.57 63.36 472.82 63.36Z" fill="#71869D"/>
<path d="M442.49 63.36C441.75 63.36 441.14 62.76 441.14 62.01C441.14 61.26 441.74 60.66 442.49 60.66C443.24 60.66 443.84 61.26 443.84 62.01C443.84 62.76 443.24 63.36 442.49 63.36Z" fill="#71869D"/>
<path d="M412.16 63.36C411.42 63.36 410.81 62.76 410.81 62.01C410.81 61.26 411.41 60.66 412.16 60.66C412.91 60.66 413.51 61.26 413.51 62.01C413.51 62.76 412.91 63.36 412.16 63.36Z" fill="#71869D"/>
<path d="M381.83 63.36C381.09 63.36 380.48 62.76 380.48 62.01C380.48 61.26 381.08 60.66 381.83 60.66C382.58 60.66 383.18 61.26 383.18 62.01C383.18 62.76 382.58 63.36 381.83 63.36Z" fill="#71869D"/>
<path d="M351.5 63.36C350.76 63.36 350.15 62.76 350.15 62.01C350.15 61.26 350.75 60.66 351.5 60.66C352.25 60.66 352.85 61.26 352.85 62.01C352.85 62.76 352.25 63.36 351.5 63.36Z" fill="#71869D"/>
<path d="M503.15 93.69C502.41 93.69 501.8 93.09 501.8 92.34C501.8 91.59 502.4 90.99 503.15 90.99C503.9 90.99 504.5 91.59 504.5 92.34C504.5 93.09 503.9 93.69 503.15 93.69Z" fill="#71869D"/>
<path d="M472.82 93.69C472.07 93.69 471.47 93.09 471.47 92.34C471.47 91.59 472.07 90.99 472.82 90.99C473.57 90.99 474.17 91.59 474.17 92.34C474.17 93.09 473.57 93.69 472.82 93.69Z" fill="#71869D"/>
<path d="M442.49 93.69C441.75 93.69 441.14 93.09 441.14 92.34C441.14 91.59 441.74 90.99 442.49 90.99C443.24 90.99 443.84 91.59 443.84 92.34C443.84 93.09 443.24 93.69 442.49 93.69Z" fill="#71869D"/>
<path d="M412.16 93.69C411.42 93.69 410.81 93.09 410.81 92.34C410.81 91.59 411.41 90.99 412.16 90.99C412.91 90.99 413.51 91.59 413.51 92.34C413.51 93.09 412.91 93.69 412.16 93.69Z" fill="#71869D"/>
<path d="M381.83 93.69C381.09 93.69 380.48 93.09 380.48 92.34C380.48 91.59 381.08 90.99 381.83 90.99C382.58 90.99 383.18 91.59 383.18 92.34C383.18 93.09 382.58 93.69 381.83 93.69Z" fill="#71869D"/>
<path d="M351.5 93.69C350.76 93.69 350.15 93.09 350.15 92.34C350.15 91.59 350.75 90.99 351.5 90.99C352.25 90.99 352.85 91.59 352.85 92.34C352.85 93.09 352.25 93.69 351.5 93.69Z" fill="#71869D"/>
<path d="M503.15 124.02C502.41 124.02 501.8 123.42 501.8 122.67C501.8 121.92 502.4 121.32 503.15 121.32C503.9 121.32 504.5 121.92 504.5 122.67C504.5 123.42 503.9 124.02 503.15 124.02Z" fill="#71869D"/>
<path d="M472.82 124.02C472.07 124.02 471.47 123.42 471.47 122.67C471.47 121.92 472.07 121.32 472.82 121.32C473.57 121.32 474.17 121.92 474.17 122.67C474.17 123.42 473.57 124.02 472.82 124.02Z" fill="#71869D"/>
<path d="M442.49 124.02C441.75 124.02 441.14 123.42 441.14 122.67C441.14 121.92 441.74 121.32 442.49 121.32C443.24 121.32 443.84 121.92 443.84 122.67C443.84 123.42 443.24 124.02 442.49 124.02Z" fill="#71869D"/>
<path d="M412.16 124.02C411.42 124.02 410.81 123.42 410.81 122.67C410.81 121.92 411.41 121.32 412.16 121.32C412.91 121.32 413.51 121.92 413.51 122.67C413.51 123.42 412.91 124.02 412.16 124.02Z" fill="#71869D"/>
<path d="M381.83 124.02C381.09 124.02 380.48 123.42 380.48 122.67C380.48 121.92 381.08 121.32 381.83 121.32C382.58 121.32 383.18 121.92 383.18 122.67C383.18 123.42 382.58 124.02 381.83 124.02Z" fill="#71869D"/>
<path d="M351.5 124.02C350.76 124.02 350.15 123.42 350.15 122.67C350.15 121.92 350.75 121.32 351.5 121.32C352.25 121.32 352.85 121.92 352.85 122.67C352.85 123.42 352.25 124.02 351.5 124.02Z" fill="#71869D"/>
<path d="M503.15 154.35C502.41 154.35 501.8 153.75 501.8 153C501.8 152.25 502.4 151.65 503.15 151.65C503.9 151.65 504.5 152.25 504.5 153C504.5 153.75 503.9 154.35 503.15 154.35Z" fill="#71869D"/>
<path d="M472.82 154.35C472.07 154.35 471.47 153.75 471.47 153C471.47 152.25 472.07 151.65 472.82 151.65C473.57 151.65 474.17 152.25 474.17 153C474.17 153.75 473.57 154.35 472.82 154.35Z" fill="#71869D"/>
<path d="M442.49 154.35C441.75 154.35 441.14 153.75 441.14 153C441.14 152.25 441.74 151.65 442.49 151.65C443.24 151.65 443.84 152.25 443.84 153C443.84 153.75 443.24 154.35 442.49 154.35Z" fill="#71869D"/>
<path d="M412.16 154.35C411.42 154.35 410.81 153.75 410.81 153C410.81 152.25 411.41 151.65 412.16 151.65C412.91 151.65 413.51 152.25 413.51 153C413.51 153.75 412.91 154.35 412.16 154.35Z" fill="#71869D"/>
<path d="M381.83 154.35C381.09 154.35 380.48 153.75 380.48 153C380.48 152.25 381.08 151.65 381.83 151.65C382.58 151.65 383.18 152.25 383.18 153C383.18 153.75 382.58 154.35 381.83 154.35Z" fill="#71869D"/>
<path d="M351.5 154.35C350.76 154.35 350.15 153.75 350.15 153C350.15 152.25 350.75 151.65 351.5 151.65C352.25 151.65 352.85 152.25 352.85 153C352.85 153.75 352.25 154.35 351.5 154.35Z" fill="#71869D"/>
<path d="M503.15 184.68C502.41 184.68 501.8 184.08 501.8 183.33C501.8 182.58 502.4 181.98 503.15 181.98C503.9 181.98 504.5 182.58 504.5 183.33C504.5 184.08 503.9 184.68 503.15 184.68Z" fill="#71869D"/>
<path d="M472.82 184.68C472.07 184.68 471.47 184.08 471.47 183.33C471.47 182.58 472.07 181.98 472.82 181.98C473.57 181.98 474.17 182.58 474.17 183.33C474.17 184.08 473.57 184.68 472.82 184.68Z" fill="#71869D"/>
<path d="M442.49 184.68C441.75 184.68 441.14 184.08 441.14 183.33C441.14 182.58 441.74 181.98 442.49 181.98C443.24 181.98 443.84 182.58 443.84 183.33C443.84 184.08 443.24 184.68 442.49 184.68Z" fill="#71869D"/>
<path d="M412.16 184.68C411.42 184.68 410.81 184.08 410.81 183.33C410.81 182.58 411.41 181.98 412.16 181.98C412.91 181.98 413.51 182.58 413.51 183.33C413.51 184.08 412.91 184.68 412.16 184.68Z" fill="#71869D"/>
<path d="M381.83 184.68C381.09 184.68 380.48 184.08 380.48 183.33C380.48 182.58 381.08 181.98 381.83 181.98C382.58 181.98 383.18 182.58 383.18 183.33C383.18 184.08 382.58 184.68 381.83 184.68Z" fill="#71869D"/>
<path d="M351.5 184.68C350.76 184.68 350.15 184.08 350.15 183.33C350.15 182.58 350.75 181.98 351.5 181.98C352.25 181.98 352.85 182.58 352.85 183.33C352.85 184.08 352.25 184.68 351.5 184.68Z" fill="#71869D"/>
<path d="M503.15 215.01C502.41 215.01 501.8 214.41 501.8 213.66C501.8 212.91 502.4 212.31 503.15 212.31C503.9 212.31 504.5 212.91 504.5 213.66C504.5 214.41 503.9 215.01 503.15 215.01Z" fill="#71869D"/>
<path d="M472.82 215.01C472.07 215.01 471.47 214.41 471.47 213.66C471.47 212.91 472.07 212.31 472.82 212.31C473.57 212.31 474.17 212.91 474.17 213.66C474.17 214.41 473.57 215.01 472.82 215.01Z" fill="#71869D"/>
<path d="M442.49 215.01C441.75 215.01 441.14 214.41 441.14 213.66C441.14 212.91 441.74 212.31 442.49 212.31C443.24 212.31 443.84 212.91 443.84 213.66C443.84 214.41 443.24 215.01 442.49 215.01Z" fill="#71869D"/>
<path d="M412.16 215.01C411.42 215.01 410.81 214.41 410.81 213.66C410.81 212.91 411.41 212.31 412.16 212.31C412.91 212.31 413.51 212.91 413.51 213.66C413.51 214.41 412.91 215.01 412.16 215.01Z" fill="#71869D"/>
<path d="M381.83 215.01C381.09 215.01 380.48 214.41 380.48 213.66C380.48 212.91 381.08 212.31 381.83 212.31C382.58 212.31 383.18 212.91 383.18 213.66C383.18 214.41 382.58 215.01 381.83 215.01Z" fill="#71869D"/>
<path d="M351.5 215.01C350.76 215.01 350.15 214.41 350.15 213.66C350.15 212.91 350.75 212.31 351.5 212.31C352.25 212.31 352.85 212.91 352.85 213.66C352.85 214.41 352.25 215.01 351.5 215.01Z" fill="#71869D"/>
<path d="M503.15 245.35C502.41 245.35 501.8 244.75 501.8 244C501.8 243.25 502.4 242.65 503.15 242.65C503.9 242.65 504.5 243.25 504.5 244C504.5 244.75 503.9 245.35 503.15 245.35Z" fill="#71869D"/>
<path d="M472.82 245.35C472.07 245.35 471.47 244.75 471.47 244C471.47 243.25 472.07 242.65 472.82 242.65C473.57 242.65 474.17 243.25 474.17 244C474.17 244.75 473.57 245.35 472.82 245.35Z" fill="#71869D"/>
<path d="M442.49 245.35C441.75 245.35 441.14 244.75 441.14 244C441.14 243.25 441.74 242.65 442.49 242.65C443.24 242.65 443.84 243.25 443.84 244C443.84 244.75 443.24 245.35 442.49 245.35Z" fill="#71869D"/>
<path d="M412.16 245.35C411.42 245.35 410.81 244.75 410.81 244C410.81 243.25 411.41 242.65 412.16 242.65C412.91 242.65 413.51 243.25 413.51 244C413.51 244.75 412.91 245.35 412.16 245.35Z" fill="#71869D"/>
<path d="M381.83 245.35C381.09 245.35 380.48 244.75 380.48 244C380.48 243.25 381.08 242.65 381.83 242.65C382.58 242.65 383.18 243.25 383.18 244C383.18 244.75 382.58 245.35 381.83 245.35Z" fill="#71869D"/>
<path d="M351.5 245.35C350.76 245.35 350.15 244.75 350.15 244C350.15 243.25 350.75 242.65 351.5 242.65C352.25 242.65 352.85 243.25 352.85 244C352.85 244.75 352.25 245.35 351.5 245.35Z" fill="#71869D"/>
<path d="M503.15 275.68C502.41 275.68 501.8 275.08 501.8 274.33C501.8 273.58 502.4 272.98 503.15 272.98C503.9 272.98 504.5 273.58 504.5 274.33C504.5 275.08 503.9 275.68 503.15 275.68Z" fill="#71869D"/>
<path d="M472.82 275.68C472.07 275.68 471.47 275.08 471.47 274.33C471.47 273.58 472.07 272.98 472.82 272.98C473.57 272.98 474.17 273.58 474.17 274.33C474.17 275.08 473.57 275.68 472.82 275.68Z" fill="#71869D"/>
<path d="M442.49 275.68C441.75 275.68 441.14 275.08 441.14 274.33C441.14 273.58 441.74 272.98 442.49 272.98C443.24 272.98 443.84 273.58 443.84 274.33C443.84 275.08 443.24 275.68 442.49 275.68Z" fill="#71869D"/>
<path d="M412.16 275.68C411.42 275.68 410.81 275.08 410.81 274.33C410.81 273.58 411.41 272.98 412.16 272.98C412.91 272.98 413.51 273.58 413.51 274.33C413.51 275.08 412.91 275.68 412.16 275.68Z" fill="#71869D"/>
<path d="M381.83 275.68C381.09 275.68 380.48 275.08 380.48 274.33C380.48 273.58 381.08 272.98 381.83 272.98C382.58 272.98 383.18 273.58 383.18 274.33C383.18 275.08 382.58 275.68 381.83 275.68Z" fill="#71869D"/>
<path d="M351.5 275.68C350.76 275.68 350.15 275.08 350.15 274.33C350.15 273.58 350.75 272.98 351.5 272.98C352.25 272.98 352.85 273.58 352.85 274.33C352.85 275.08 352.25 275.68 351.5 275.68Z" fill="#71869D"/>
<path d="M503.15 306.01C502.41 306.01 501.8 305.41 501.8 304.66C501.8 303.91 502.4 303.31 503.15 303.31C503.9 303.31 504.5 303.91 504.5 304.66C504.5 305.41 503.9 306.01 503.15 306.01Z" fill="#71869D"/>
<path d="M472.82 306.01C472.07 306.01 471.47 305.41 471.47 304.66C471.47 303.91 472.07 303.31 472.82 303.31C473.57 303.31 474.17 303.91 474.17 304.66C474.17 305.41 473.57 306.01 472.82 306.01Z" fill="#71869D"/>
<path d="M442.49 306.01C441.75 306.01 441.14 305.41 441.14 304.66C441.14 303.91 441.74 303.31 442.49 303.31C443.24 303.31 443.84 303.91 443.84 304.66C443.84 305.41 443.24 306.01 442.49 306.01Z" fill="#71869D"/>
<path d="M412.16 306.01C411.42 306.01 410.81 305.41 410.81 304.66C410.81 303.91 411.41 303.31 412.16 303.31C412.91 303.31 413.51 303.91 413.51 304.66C413.51 305.41 412.91 306.01 412.16 306.01Z" fill="#71869D"/>
<path d="M381.83 306.01C381.09 306.01 380.48 305.41 380.48 304.66C380.48 303.91 381.08 303.31 381.83 303.31C382.58 303.31 383.18 303.91 383.18 304.66C383.18 305.41 382.58 306.01 381.83 306.01Z" fill="#71869D"/>
<path d="M351.5 306.01C350.76 306.01 350.15 305.41 350.15 304.66C350.15 303.91 350.75 303.31 351.5 303.31C352.25 303.31 352.85 303.91 352.85 304.66C352.85 305.41 352.25 306.01 351.5 306.01Z" fill="#71869D"/>
<path d="M321.17 2.7C320.43 2.7 319.82 2.1 319.82 1.35C319.82 0.6 320.42 0 321.17 0C321.92 0 322.52 0.6 322.52 1.35C322.52 2.1 321.92 2.7 321.17 2.7Z" fill="#71869D"/>
<path d="M290.84 2.7C290.1 2.7 289.49 2.1 289.49 1.35C289.49 0.6 290.09 0 290.84 0C291.59 0 292.19 0.6 292.19 1.35C292.19 2.1 291.59 2.7 290.84 2.7Z" fill="#71869D"/>
<path d="M321.17 33.03C320.43 33.03 319.82 32.43 319.82 31.68C319.82 30.93 320.42 30.33 321.17 30.33C321.92 30.33 322.52 30.93 322.52 31.68C322.52 32.43 321.92 33.03 321.17 33.03Z" fill="#71869D"/>
<path d="M290.84 33.03C290.1 33.03 289.49 32.43 289.49 31.68C289.49 30.93 290.09 30.33 290.84 30.33C291.59 30.33 292.19 30.93 292.19 31.68C292.19 32.43 291.59 33.03 290.84 33.03Z" fill="#71869D"/>
<path d="M321.17 63.36C320.43 63.36 319.82 62.76 319.82 62.01C319.82 61.26 320.42 60.66 321.17 60.66C321.92 60.66 322.52 61.26 322.52 62.01C322.52 62.76 321.92 63.36 321.17 63.36Z" fill="#71869D"/>
<path d="M290.84 63.36C290.1 63.36 289.49 62.76 289.49 62.01C289.49 61.26 290.09 60.66 290.84 60.66C291.59 60.66 292.19 61.26 292.19 62.01C292.19 62.76 291.59 63.36 290.84 63.36Z" fill="#71869D"/>
<path d="M321.17 93.69C320.43 93.69 319.82 93.09 319.82 92.34C319.82 91.59 320.42 90.99 321.17 90.99C321.92 90.99 322.52 91.59 322.52 92.34C322.52 93.09 321.92 93.69 321.17 93.69Z" fill="#71869D"/>
<path d="M290.84 93.69C290.1 93.69 289.49 93.09 289.49 92.34C289.49 91.59 290.09 90.99 290.84 90.99C291.59 90.99 292.19 91.59 292.19 92.34C292.19 93.09 291.59 93.69 290.84 93.69Z" fill="#71869D"/>
<path d="M321.17 124.02C320.43 124.02 319.82 123.42 319.82 122.67C319.82 121.92 320.42 121.32 321.17 121.32C321.92 121.32 322.52 121.92 322.52 122.67C322.52 123.42 321.92 124.02 321.17 124.02Z" fill="#71869D"/>
<path d="M290.84 124.02C290.1 124.02 289.49 123.42 289.49 122.67C289.49 121.92 290.09 121.32 290.84 121.32C291.59 121.32 292.19 121.92 292.19 122.67C292.19 123.42 291.59 124.02 290.84 124.02Z" fill="#71869D"/>
<path d="M321.17 154.35C320.43 154.35 319.82 153.75 319.82 153C319.82 152.25 320.42 151.65 321.17 151.65C321.92 151.65 322.52 152.25 322.52 153C322.52 153.75 321.92 154.35 321.17 154.35Z" fill="#71869D"/>
<path d="M290.84 154.35C290.1 154.35 289.49 153.75 289.49 153C289.49 152.25 290.09 151.65 290.84 151.65C291.59 151.65 292.19 152.25 292.19 153C292.19 153.75 291.59 154.35 290.84 154.35Z" fill="#71869D"/>
<path d="M321.17 184.68C320.43 184.68 319.82 184.08 319.82 183.33C319.82 182.58 320.42 181.98 321.17 181.98C321.92 181.98 322.52 182.58 322.52 183.33C322.52 184.08 321.92 184.68 321.17 184.68Z" fill="#71869D"/>
<path d="M290.84 184.68C290.1 184.68 289.49 184.08 289.49 183.33C289.49 182.58 290.09 181.98 290.84 181.98C291.59 181.98 292.19 182.58 292.19 183.33C292.19 184.08 291.59 184.68 290.84 184.68Z" fill="#71869D"/>
<path d="M321.17 215.01C320.43 215.01 319.82 214.41 319.82 213.66C319.82 212.91 320.42 212.31 321.17 212.31C321.92 212.31 322.52 212.91 322.52 213.66C322.52 214.41 321.92 215.01 321.17 215.01Z" fill="#71869D"/>
<path d="M290.84 215.01C290.1 215.01 289.49 214.41 289.49 213.66C289.49 212.91 290.09 212.31 290.84 212.31C291.59 212.31 292.19 212.91 292.19 213.66C292.19 214.41 291.59 215.01 290.84 215.01Z" fill="#71869D"/>
<path d="M321.17 245.35C320.43 245.35 319.82 244.75 319.82 244C319.82 243.25 320.42 242.65 321.17 242.65C321.92 242.65 322.52 243.25 322.52 244C322.52 244.75 321.92 245.35 321.17 245.35Z" fill="#71869D"/>
<path d="M290.84 245.35C290.1 245.35 289.49 244.75 289.49 244C289.49 243.25 290.09 242.65 290.84 242.65C291.59 242.65 292.19 243.25 292.19 244C292.19 244.75 291.59 245.35 290.84 245.35Z" fill="#71869D"/>
<path d="M321.17 275.68C320.43 275.68 319.82 275.08 319.82 274.33C319.82 273.58 320.42 272.98 321.17 272.98C321.92 272.98 322.52 273.58 322.52 274.33C322.52 275.08 321.92 275.68 321.17 275.68Z" fill="#71869D"/>
<path d="M290.84 275.68C290.1 275.68 289.49 275.08 289.49 274.33C289.49 273.58 290.09 272.98 290.84 272.98C291.59 272.98 292.19 273.58 292.19 274.33C292.19 275.08 291.59 275.68 290.84 275.68Z" fill="#71869D"/>
<path d="M321.17 306.01C320.43 306.01 319.82 305.41 319.82 304.66C319.82 303.91 320.42 303.31 321.17 303.31C321.92 303.31 322.52 303.91 322.52 304.66C322.52 305.41 321.92 306.01 321.17 306.01Z" fill="#71869D"/>
<path d="M290.84 306.01C290.1 306.01 289.49 305.41 289.49 304.66C289.49 303.91 290.09 303.31 290.84 303.31C291.59 303.31 292.19 303.91 292.19 304.66C292.19 305.41 291.59 306.01 290.84 306.01Z" fill="#71869D"/>
<path d="M503.15 336.34C502.41 336.34 501.8 335.74 501.8 334.99C501.8 334.24 502.4 333.64 503.15 333.64C503.9 333.64 504.5 334.24 504.5 334.99C504.5 335.74 503.9 336.34 503.15 336.34Z" fill="#71869D"/>
<path d="M472.82 336.34C472.07 336.34 471.47 335.74 471.47 334.99C471.47 334.24 472.07 333.64 472.82 333.64C473.57 333.64 474.17 334.24 474.17 334.99C474.17 335.74 473.57 336.34 472.82 336.34Z" fill="#71869D"/>
<path d="M442.49 336.34C441.75 336.34 441.14 335.74 441.14 334.99C441.14 334.24 441.74 333.64 442.49 333.64C443.24 333.64 443.84 334.24 443.84 334.99C443.84 335.74 443.24 336.34 442.49 336.34Z" fill="#71869D"/>
<path d="M412.16 336.34C411.42 336.34 410.81 335.74 410.81 334.99C410.81 334.24 411.41 333.64 412.16 333.64C412.91 333.64 413.51 334.24 413.51 334.99C413.51 335.74 412.91 336.34 412.16 336.34Z" fill="#71869D"/>
<path d="M381.83 336.34C381.09 336.34 380.48 335.74 380.48 334.99C380.48 334.24 381.08 333.64 381.83 333.64C382.58 333.64 383.18 334.24 383.18 334.99C383.18 335.74 382.58 336.34 381.83 336.34Z" fill="#71869D"/>
<path d="M351.5 336.34C350.76 336.34 350.15 335.74 350.15 334.99C350.15 334.24 350.75 333.64 351.5 333.64C352.25 333.64 352.85 334.24 352.85 334.99C352.85 335.74 352.25 336.34 351.5 336.34Z" fill="#71869D"/>
<path d="M503.15 366.67C502.41 366.67 501.8 366.07 501.8 365.32C501.8 364.57 502.4 363.97 503.15 363.97C503.9 363.97 504.5 364.57 504.5 365.32C504.5 366.07 503.9 366.67 503.15 366.67Z" fill="#71869D"/>
<path d="M472.82 366.67C472.07 366.67 471.47 366.07 471.47 365.32C471.47 364.57 472.07 363.97 472.82 363.97C473.57 363.97 474.17 364.57 474.17 365.32C474.17 366.07 473.57 366.67 472.82 366.67Z" fill="#71869D"/>
<path d="M442.49 366.67C441.75 366.67 441.14 366.07 441.14 365.32C441.14 364.57 441.74 363.97 442.49 363.97C443.24 363.97 443.84 364.57 443.84 365.32C443.84 366.07 443.24 366.67 442.49 366.67Z" fill="#71869D"/>
<path d="M412.16 366.67C411.42 366.67 410.81 366.07 410.81 365.32C410.81 364.57 411.41 363.97 412.16 363.97C412.91 363.97 413.51 364.57 413.51 365.32C413.51 366.07 412.91 366.67 412.16 366.67Z" fill="#71869D"/>
<path d="M381.83 366.67C381.09 366.67 380.48 366.07 380.48 365.32C380.48 364.57 381.08 363.97 381.83 363.97C382.58 363.97 383.18 364.57 383.18 365.32C383.18 366.07 382.58 366.67 381.83 366.67Z" fill="#71869D"/>
<path d="M351.5 366.67C350.76 366.67 350.15 366.07 350.15 365.32C350.15 364.57 350.75 363.97 351.5 363.97C352.25 363.97 352.85 364.57 352.85 365.32C352.85 366.07 352.25 366.67 351.5 366.67Z" fill="#71869D"/>
<path d="M503.15 397C502.41 397 501.8 396.4 501.8 395.65C501.8 394.9 502.4 394.3 503.15 394.3C503.9 394.3 504.5 394.9 504.5 395.65C504.5 396.4 503.9 397 503.15 397Z" fill="#71869D"/>
<path d="M472.82 397C472.07 397 471.47 396.4 471.47 395.65C471.47 394.9 472.07 394.3 472.82 394.3C473.57 394.3 474.17 394.9 474.17 395.65C474.17 396.4 473.57 397 472.82 397Z" fill="#71869D"/>
<path d="M442.49 397C441.75 397 441.14 396.4 441.14 395.65C441.14 394.9 441.74 394.3 442.49 394.3C443.24 394.3 443.84 394.9 443.84 395.65C443.84 396.4 443.24 397 442.49 397Z" fill="#71869D"/>
<path d="M412.16 397C411.42 397 410.81 396.4 410.81 395.65C410.81 394.9 411.41 394.3 412.16 394.3C412.91 394.3 413.51 394.9 413.51 395.65C413.51 396.4 412.91 397 412.16 397Z" fill="#71869D"/>
<path d="M381.83 397C381.09 397 380.48 396.4 380.48 395.65C380.48 394.9 381.08 394.3 381.83 394.3C382.58 394.3 383.18 394.9 383.18 395.65C383.18 396.4 382.58 397 381.83 397Z" fill="#71869D"/>
<path d="M351.5 397C350.76 397 350.15 396.4 350.15 395.65C350.15 394.9 350.75 394.3 351.5 394.3C352.25 394.3 352.85 394.9 352.85 395.65C352.85 396.4 352.25 397 351.5 397Z" fill="#71869D"/>
<path d="M321.17 336.34C320.43 336.34 319.82 335.74 319.82 334.99C319.82 334.24 320.42 333.64 321.17 333.64C321.92 333.64 322.52 334.24 322.52 334.99C322.52 335.74 321.92 336.34 321.17 336.34Z" fill="#71869D"/>
<path d="M290.84 336.34C290.1 336.34 289.49 335.74 289.49 334.99C289.49 334.24 290.09 333.64 290.84 333.64C291.59 333.64 292.19 334.24 292.19 334.99C292.19 335.74 291.59 336.34 290.84 336.34Z" fill="#71869D"/>
<path d="M321.17 366.67C320.43 366.67 319.82 366.07 319.82 365.32C319.82 364.57 320.42 363.97 321.17 363.97C321.92 363.97 322.52 364.57 322.52 365.32C322.52 366.07 321.92 366.67 321.17 366.67Z" fill="#71869D"/>
<path d="M290.84 366.67C290.1 366.67 289.49 366.07 289.49 365.32C289.49 364.57 290.09 363.97 290.84 363.97C291.59 363.97 292.19 364.57 292.19 365.32C292.19 366.07 291.59 366.67 290.84 366.67Z" fill="#71869D"/>
<path d="M321.17 397C320.43 397 319.82 396.4 319.82 395.65C319.82 394.9 320.42 394.3 321.17 394.3C321.92 394.3 322.52 394.9 322.52 395.65C322.52 396.4 321.92 397 321.17 397Z" fill="#71869D"/>
<path d="M290.84 397C290.1 397 289.49 396.4 289.49 395.65C289.49 394.9 290.09 394.3 290.84 394.3C291.59 394.3 292.19 394.9 292.19 395.65C292.19 396.4 291.59 397 290.84 397Z" fill="#71869D"/>
</g>
<g filter="url(#filter0_d_158_482)">
<path d="M431.49 145.32L418.56 456.58C418.25 464.08 412.08 470 404.57 470H23C15.27 470 9 463.74 9 456V77.59C9 68.92 16.8 62.33 25.35 63.79L131.87 81.92L311.18 112.44L419.85 130.94C426.8 132.12 431.78 138.28 431.49 145.32Z" fill="url(#paint0_linear_158_482)"/>
</g>
<mask id="mask1_158_482" style="mask-type:alpha" maskUnits="userSpaceOnUse" x="8" y="65" width="423" height="407">
<path d="M430.49 146.731C430.78 139.691 425.8 133.531 418.85 132.351L24.3499 65.201C15.7999 63.751 7.99991 70.331 7.99991 79.001V457.421C7.99991 465.151 14.2699 471.421 21.9999 471.421H403.57C411.08 471.421 417.25 465.501 417.56 458.001L430.49 146.731Z" fill="url(#paint1_linear_158_482)"/>
</mask>
<g mask="url(#mask1_158_482)">
<path d="M237.612 280.237C305.376 140.352 411.67 110.135 469.306 108.373L426.5 504.5L338.854 610.862L-38.0311 451.389C-6.95127 442.168 145.912 469.531 237.612 280.237Z" fill="#BDCDFF"/>
</g>
<g filter="url(#filter1_d_158_482)">
<path d="M220 451C308.918 451 381 378.918 381 290C381 201.082 308.918 129 220 129C131.082 129 59 201.082 59 290C59 378.918 131.082 451 220 451Z" fill="#DCE9FF"/>
</g>
<path d="M366 290.006C366 294.056 365.829 298.072 365.5 302.034V302.063C365.013 308.184 364.125 314.208 362.896 320.099C362.725 320.928 362.538 321.774 362.355 322.603C360.667 329.969 358.434 337.135 355.676 344.03V344.047C355.659 344.105 355.647 344.134 355.605 344.188C354.918 345.947 354.189 347.692 353.418 349.409V349.421C352.889 350.609 352.347 351.767 351.772 352.942L351.385 353.758C350.839 354.887 350.268 356.016 349.697 357.15C349.027 358.408 348.352 359.666 347.652 360.912C347.023 362.057 346.381 363.186 345.719 364.303C344.86 365.749 343.973 367.178 343.073 368.578C342.086 370.123 341.069 371.652 340.011 373.156C339.423 374.027 338.811 374.885 338.178 375.744C337.29 376.973 336.39 378.177 335.461 379.364V379.376C335.403 379.447 335.349 379.518 335.291 379.589C333.357 382.064 331.358 384.48 329.283 386.826C307.014 411.927 276.234 429.322 241.446 434.425C234.451 435.471 227.285 436 220.006 436C212.728 436 205.574 435.471 198.579 434.425C193.242 433.654 187.993 432.579 182.872 431.234C149.976 422.61 121.624 402.812 102.118 376.123C84.6531 352.279 74.2583 322.928 74.0125 291.177C74 290.79 74 290.39 74 290.006C74 284.844 74.2708 279.736 74.7999 274.716C75.0582 272.154 75.3874 269.625 75.7873 267.109C75.7998 267.079 75.7998 267.038 75.7998 267.009C75.9998 265.763 76.2164 264.521 76.4456 263.276C76.6039 262.388 76.7747 261.501 76.9455 260.63C77.8621 256.168 78.9745 251.777 80.291 247.473C80.6202 246.356 80.9785 245.24 81.3493 244.128C82.1075 241.794 82.9366 239.495 83.824 237.203C84.1948 236.245 84.5823 235.299 84.9697 234.358C85.0406 234.17 85.1281 233.987 85.1989 233.799C85.6988 232.612 86.1988 231.441 86.7446 230.279C89.6609 223.742 93.0523 217.476 96.8727 211.497C100.347 206.06 104.18 200.869 108.33 195.949C109.605 194.42 110.934 192.916 112.275 191.458C112.534 191.158 112.804 190.858 113.104 190.57C113.534 190.083 113.992 189.6 114.463 189.125C118.037 185.363 121.829 181.8 125.803 178.455C126.332 177.997 126.849 177.567 127.378 177.138C129.136 175.68 130.94 174.264 132.786 172.918C133.473 172.376 134.173 171.86 134.89 171.36C135.835 170.672 136.794 170.002 137.764 169.356C138.206 169.039 138.652 168.739 139.093 168.456C140.423 167.556 141.785 166.681 143.156 165.839C155.842 157.957 169.845 151.978 184.735 148.291C185.193 148.179 185.635 148.062 186.093 147.962C196.979 145.371 208.332 144 220.006 144C265.947 144 306.927 165.227 333.674 198.395C337.095 202.615 340.282 207.048 343.198 211.639C353.339 227.529 360.476 245.523 363.821 264.817C363.921 265.346 364.009 265.875 364.092 266.404C365.35 274.087 365.996 281.965 365.996 290.006H366Z" fill="url(#paint2_linear_158_482)"/>
<mask id="mask2_158_482" style="mask-type:alpha" maskUnits="userSpaceOnUse" x="73" y="144" width="293" height="293">
<path d="M365.743 290.634C365.743 294.688 365.572 298.708 365.242 302.674V302.703C364.754 308.83 363.866 314.86 362.636 320.757C362.465 321.587 362.277 322.434 362.094 323.264C360.405 330.637 358.169 337.81 355.408 344.712V344.729C355.392 344.787 355.379 344.816 355.337 344.871C354.649 346.631 353.919 348.378 353.148 350.096V350.109C352.618 351.297 352.076 352.457 351.501 353.633L351.113 354.45C350.566 355.58 349.995 356.711 349.424 357.845C348.752 359.104 348.077 360.364 347.376 361.611C346.746 362.758 346.104 363.888 345.441 365.006C344.582 366.453 343.694 367.883 342.793 369.284C341.804 370.832 340.787 372.362 339.727 373.868C339.139 374.739 338.526 375.598 337.892 376.458C337.004 377.688 336.103 378.893 335.173 380.082V380.094C335.115 380.165 335.061 380.236 335.002 380.307C333.067 382.784 331.065 385.203 328.989 387.551C306.698 412.678 275.886 430.09 241.063 435.198C234.061 436.245 226.888 436.775 219.602 436.775C212.316 436.775 205.156 436.245 198.153 435.198C192.811 434.427 187.556 433.351 182.431 432.004C149.501 423.371 121.121 403.553 101.595 376.837C84.1126 352.97 73.7073 323.589 73.4612 291.806C73.4487 291.418 73.4487 291.018 73.4487 290.634C73.4487 285.467 73.7198 280.354 74.2495 275.328C74.508 272.764 74.8375 270.232 75.2379 267.713C75.2504 267.684 75.2504 267.642 75.2504 267.613C75.4505 266.366 75.6674 265.123 75.8968 263.876C76.0553 262.988 76.2262 262.1 76.3972 261.228C77.3147 256.762 78.4282 252.366 79.7461 248.058C80.0756 246.94 80.4342 245.823 80.8054 244.709C81.5644 242.374 82.3943 240.072 83.2826 237.778C83.6538 236.819 84.0417 235.872 84.4295 234.929C84.5004 234.742 84.588 234.558 84.6589 234.371C85.1593 233.182 85.6598 232.01 86.2061 230.847C89.1254 224.303 92.5202 218.031 96.3445 212.046C99.8226 206.604 103.659 201.407 107.813 196.482C109.089 194.951 110.42 193.446 111.763 191.986C112.021 191.686 112.292 191.386 112.593 191.098C113.022 190.61 113.481 190.126 113.952 189.651C117.53 185.885 121.325 182.319 125.304 178.97C125.834 178.512 126.351 178.082 126.88 177.652C128.64 176.193 130.446 174.775 132.294 173.428C132.982 172.886 133.682 172.369 134.4 171.868C135.346 171.18 136.306 170.509 137.277 169.862C137.719 169.545 138.166 169.245 138.608 168.961C139.938 168.06 141.302 167.185 142.674 166.342C155.373 158.452 169.39 152.467 184.295 148.776C184.754 148.664 185.196 148.547 185.655 148.447C196.552 145.853 207.916 144.481 219.602 144.481C265.589 144.481 306.61 165.729 333.384 198.93C336.808 203.155 339.999 207.592 342.918 212.188C353.069 228.094 360.213 246.106 363.562 265.419C363.662 265.949 363.749 266.479 363.833 267.008C365.092 274.699 365.738 282.585 365.738 290.634H365.743Z" fill="#141824"/>
</mask>
<g mask="url(#mask2_158_482)">
<path d="M182.792 149.647C176.355 135.024 151.397 131.857 127.035 142.582C102.674 153.299 88.1462 173.841 94.5827 188.465C95.6886 190.979 97.3514 193.143 99.4518 194.965C99.6586 195.665 99.8973 196.357 100.192 197.033C106.397 211.147 130.488 214.195 153.999 203.852C177.509 193.509 191.527 173.682 185.322 159.568C185.027 158.892 184.677 158.248 184.295 157.627C184.375 154.842 183.897 152.153 182.792 149.647Z" fill="#89A2E0"/>
<path d="M186.865 158.892C180.428 144.269 155.47 141.102 131.109 151.827C106.747 162.544 92.2194 183.086 98.6559 197.71C99.7618 200.224 101.425 202.388 103.525 204.21C103.732 204.91 103.971 205.602 104.265 206.278C110.479 220.392 134.562 223.44 158.072 213.097C181.582 202.754 195.601 182.927 189.395 168.821C189.1 168.145 188.742 167.5 188.369 166.872C188.44 164.087 187.971 161.398 186.865 158.892Z" fill="#89A2E0"/>
<path d="M188.576 166.975C182.362 152.861 158.279 149.806 134.769 160.157C111.259 170.5 97.2403 190.326 103.446 204.44C109.652 218.555 133.743 221.602 157.253 211.259C180.763 200.916 194.782 181.089 188.576 166.975Z" fill="#B7C9FF"/>
<g filter="url(#filter2_d_158_482)">
<path d="M143.37 179.697C136.759 182.609 132.773 188.107 134.475 191.981C136.178 195.856 142.925 196.628 149.536 193.716C156.155 190.804 160.133 185.306 158.431 181.432C156.728 177.565 149.989 176.785 143.37 179.697Z" fill="#F9F7EF"/>
</g>
<g filter="url(#filter3_d_158_482)">
<path d="M150.61 196.158C144.309 198.927 140.514 204.17 142.137 207.854C143.76 211.545 150.18 212.277 156.482 209.509C162.783 206.732 166.578 201.497 164.955 197.813C163.332 194.129 156.911 193.382 150.61 196.158Z" fill="#F9F7EF"/>
</g>
<g filter="url(#filter4_d_158_482)">
<path d="M171.781 173.141C166.729 175.361 162.863 179.307 162.521 182.999C162.099 187.582 167.278 190.016 174.097 188.449C175.433 188.139 176.722 187.701 177.955 187.16C183.007 184.94 186.874 180.986 187.224 177.302C187.646 172.72 182.459 170.285 175.64 171.86C174.304 172.163 173.007 172.608 171.781 173.149V173.141Z" fill="#F9F7EF"/>
</g>
<g filter="url(#filter5_d_158_482)">
<path d="M153.276 158.232C149.385 159.942 146.012 162.679 144.429 165.75C141.795 170.834 145.065 174.892 151.732 174.804C154.382 174.772 157.174 174.088 159.736 172.958C163.635 171.248 167.008 168.503 168.599 165.44C171.241 160.356 167.963 156.298 161.296 156.386C158.646 156.418 155.854 157.102 153.284 158.232H153.276Z" fill="#F9F7EF"/>
</g>
<g filter="url(#filter6_d_158_482)">
<path d="M120.855 172.505C118.293 173.635 115.906 175.226 114.092 177.159C109.517 182.028 110.297 187.176 115.834 188.664C119.168 189.563 123.472 188.926 127.355 187.216C129.917 186.086 132.303 184.495 134.117 182.561C138.692 177.692 137.905 172.545 132.375 171.057C129.041 170.158 124.745 170.786 120.855 172.505Z" fill="#F9F7EF"/>
</g>
<g filter="url(#filter7_d_158_482)">
<path d="M119.334 196.214C118.109 196.755 116.908 197.415 115.786 198.187C110.018 202.149 108.315 207.623 111.983 210.408C114.927 212.643 120.456 212.46 125.5 210.24C126.726 209.699 127.927 209.039 129.057 208.267C134.825 204.305 136.527 198.831 132.86 196.055C129.908 193.819 124.387 193.994 119.334 196.222V196.214Z" fill="#F9F7EF"/>
</g>
<path d="M259.314 303.577H232.231L211.975 276.893L218.316 272.079L236.177 295.621H259.314V303.577Z" fill="#C1C7D1"/>
<path d="M234.832 304.548C237.908 304.548 240.402 302.055 240.402 298.979C240.402 295.903 237.908 293.41 234.832 293.41C231.757 293.41 229.263 295.903 229.263 298.979C229.263 302.055 231.757 304.548 234.832 304.548Z" fill="#C1C7D1"/>
<path d="M234.833 302.957C237.03 302.957 238.811 301.176 238.811 298.979C238.811 296.782 237.03 295.001 234.833 295.001C232.636 295.001 230.854 296.782 230.854 298.979C230.854 301.176 232.636 302.957 234.833 302.957Z" fill="#89A2E0"/>
<path d="M400.574 296.894H262.337C257.732 296.894 253.999 300.627 253.999 305.232V408.732C253.999 413.337 257.732 417.07 262.337 417.07H400.574C405.179 417.07 408.912 413.337 408.912 408.732V305.232C408.912 300.627 405.179 296.894 400.574 296.894Z" fill="#B5C2DA"/>
<path d="M271.988 398.493H266.84L261.208 402.121V405.813L266.84 402.185H271.988L277.621 405.813V402.121L271.988 398.493Z" fill="#DCE9FF"/>
<path d="M276.873 408.51C276.873 404.285 273.452 400.864 269.227 400.864C265.003 400.864 261.582 404.285 261.582 408.51C261.582 412.735 265.003 416.156 269.227 416.156C273.452 416.156 276.873 412.735 276.873 408.51Z" fill="#6183BA"/>
<path d="M274.359 408.51C274.359 405.67 272.06 403.378 269.228 403.378C266.395 403.378 264.088 405.678 264.088 408.51C264.088 411.342 266.387 413.642 269.228 413.642C272.068 413.642 274.359 411.342 274.359 408.51Z" fill="#DCE9FF"/>
<path d="M397.796 304.961H261.883V327.135H397.796V304.961Z" fill="#89A2E0"/>
<path d="M325.556 336.221H260.277V410.125H325.556V336.221Z" fill="#89A2E0"/>
<path d="M399.881 336.221H334.601V410.125H399.881V336.221Z" fill="#89A2E0"/>
<path d="M360.34 294.146C360.34 296.397 359.051 298.227 357.46 298.227H305.451C303.86 298.227 302.571 296.397 302.571 294.146V245.701C302.571 243.442 303.86 241.62 305.451 241.62H357.46C359.051 241.62 360.34 243.449 360.34 245.701V294.146Z" fill="#89A2E0"/>
<path d="M356.162 291.281H306.834L312.396 285.728H350.601L356.162 291.281Z" fill="#D3DCEB"/>
<path d="M360.34 257.452H302.571V273.388H360.34V257.452Z" fill="#89A2E0"/>
<path d="M362.137 224.888V224.816H362.129C362.129 224.816 362.137 224.8 362.137 224.792C362.137 223.48 348.397 222.406 331.451 222.406C314.504 222.406 300.764 223.472 300.764 224.792C300.764 224.8 300.764 224.808 300.772 224.816H300.764V224.888C300.048 224.888 299.467 232.836 299.467 242.646C299.467 252.456 300.048 260.404 300.764 260.404C300.772 260.404 300.78 260.388 300.788 260.388C301.289 261.669 314.815 262.703 331.443 262.703C348.071 262.703 361.604 261.677 362.105 260.388C362.113 260.388 362.121 260.404 362.129 260.404C362.845 260.404 363.426 252.456 363.426 242.646C363.426 232.836 362.845 224.888 362.129 224.888H362.137Z" fill="#D3DCEB"/>
<path d="M356.855 227.689H305.729V257.452H356.855V227.689Z" fill="#89A2E0"/>
<path d="M356.011 228.397H306.572V256.744H356.011V228.397Z" fill="#B7C9FF"/>
<path d="M356.011 228.397H306.572V231.189H356.011V228.397Z" fill="#6183BA"/>
<path d="M357.181 267.819C357.181 265.583 355.367 263.769 353.132 263.769C350.896 263.769 349.082 265.583 349.082 267.819C349.082 270.055 350.896 271.869 353.132 271.869C355.367 271.869 357.181 270.055 357.181 267.819Z" fill="#6183BA"/>
<path d="M335.5 267.819C335.5 265.583 333.686 263.769 331.451 263.769C329.215 263.769 327.401 265.583 327.401 267.819C327.401 270.055 329.215 271.869 331.451 271.869C333.686 271.869 335.5 270.055 335.5 267.819Z" fill="#6183BA"/>
<path d="M312.953 265.424H304.75V266.673H312.953V265.424Z" fill="#6183BA"/>
<path d="M323.98 265.424H315.777V266.673H323.98V265.424Z" fill="#6183BA"/>
<path d="M363.196 279.347C363.196 280.779 362.034 281.941 360.602 281.941H302.3C300.868 281.941 299.707 280.779 299.707 279.347C299.707 277.915 300.868 276.754 302.3 276.754H360.602C362.034 276.754 363.196 277.915 363.196 279.347Z" fill="#DCE9FF"/>
<path d="M299.715 279.236C299.715 279.276 299.707 279.315 299.707 279.355C299.707 280.787 300.868 281.949 302.3 281.949H360.602C362.034 281.949 363.196 280.787 363.196 279.355C363.196 279.315 363.188 279.276 363.188 279.236H299.715Z" fill="#6183BA"/>
<g filter="url(#filter8_d_158_482)">
<path d="M169.204 419.561C168.591 420.715 148.534 420.158 148.534 420.158H146.712C146.712 420.158 145.495 417.85 145.503 416.116C145.503 414.382 148.542 412.066 148.542 412.066L158.265 414.366C158.265 414.366 164.948 416.092 166.77 416.673C168.591 417.246 169.809 418.407 169.196 419.561H169.204Z" fill="#F2FCF9"/>
<path d="M141.151 419.561C140.538 420.715 120.481 420.158 120.481 420.158H118.659C118.659 420.158 117.442 417.85 117.45 416.116C117.45 414.382 120.489 412.066 120.489 412.066L130.211 414.366C130.211 414.366 136.894 416.092 138.716 416.673C140.538 417.254 141.756 418.407 141.143 419.561H141.151Z" fill="#F2FCF9"/>
<path d="M184.233 306.569L182.061 307.07L178.664 304.198C178.664 304.198 178.329 304.731 176.929 304.596C175.529 304.461 170.493 296.489 168.997 295.916C167.493 295.351 173.603 292.113 173.603 292.113C173.603 292.113 181.806 297.992 182.005 298.86C182.204 299.727 184.471 305.598 184.233 306.569Z" fill="#FFD4BB"/>
<path d="M174.924 298.891C174.988 298.191 178.958 299.56 179.324 300.164C179.69 300.769 182.053 307.07 182.053 307.07L178.656 304.198C178.656 304.198 174.853 299.591 174.924 298.891Z" fill="#FEBCAC"/>
<path d="M123.727 286.249L147.054 287.005C147.054 287.005 152.385 294.794 153.355 312.083C154.318 329.371 155.694 349.723 153.451 356.247C151.207 362.771 144.667 361.036 142.344 354.369C140.021 347.694 136.703 316.872 136.703 316.872L134.181 316.283C134.181 316.283 131.532 351.226 130.45 353.223C130.45 353.223 126.504 365.277 119.781 353.39C113.058 341.496 111.992 295.773 123.727 286.257V286.249Z" fill="#041B3A"/>
<path d="M120.075 352.125C120.075 352.125 112.923 383.162 119.582 412.822C119.471 414.485 126.568 415.233 126.679 413.053C126.727 412.042 127.872 358.466 130.665 352.467C130.665 352.467 124.881 344.663 120.075 352.125Z" fill="#32456B"/>
<path d="M144.452 351.895C144.452 351.895 140.283 355.316 140.888 368.022C141.493 380.735 146.839 402.503 145.972 413.642C148.072 415.973 151.517 414.899 155.113 413.427C155.113 413.427 153.331 359.795 153.578 352.189C153.578 352.189 147.722 344.893 144.452 351.895Z" fill="#32456B"/>
<path d="M169.817 298.517L152.512 275.994C151.526 275.111 150.905 273.79 150.818 272.382L145.957 242.165C145.79 239.46 147.58 237.184 149.951 237.073C152.321 236.961 154.382 239.062 154.549 241.767L158.631 271.674L174.869 288.739C176.762 290.434 175.179 293.593 173.747 295.701C172.474 297.571 170.032 298.708 169.817 298.517Z" fill="#32456B"/>
<path d="M147.229 215.313C140.308 226.849 141.374 213.483 125.501 220.699C122.422 223.778 118.58 221.081 118.58 218.965C118.58 216.848 120.115 215.886 122.04 216.228C122.844 204.755 128.986 202.13 136.091 202.687C143.204 203.244 147.794 207.261 147.229 215.305V215.313Z" fill="#AD8D80"/>
<path d="M140.562 227.589L131.619 228.082L130.951 237.701C130.951 237.701 131.5 258.26 138.923 255.666C144.85 253.597 144.007 237.216 144.007 237.216C144.858 235.569 140.729 236.627 138.899 234.495L140.562 227.597V227.589Z" fill="#F4C3B0"/>
<path d="M122.852 283.083C118.198 289.137 115.851 300.713 114.666 310.38C113.592 319.195 127.093 319.466 138.391 319.545C149.68 319.617 154.669 312.234 154.669 312.234L152.68 293.322L150.452 269.732C150.452 269.732 152.68 265.723 152.234 260.83C150.898 253.263 150.898 249.699 150.38 236.961L140.173 235.394C140.173 235.394 142.536 239.778 141.661 243.589L133.004 243.971L131.079 235.505L116.846 239.157L116.615 253.255C117.952 266.16 122.845 275.063 122.845 283.075L122.852 283.083Z" fill="#40527C"/>
<path d="M144.421 222.211C145.073 227.191 141.883 232.538 138.597 233.142C131.309 232.53 126.416 227.605 126.186 219.203C127.156 211.391 129.018 207.914 136.306 208.526C143.593 209.139 145.392 214.398 144.421 222.211Z" fill="#FFD4BB"/>
<path d="M126.186 219.378C123.378 218.471 123.632 220.15 123.823 221.407C124.014 222.664 126.091 224.518 127.475 224.526C127.475 224.526 128.096 220.962 126.186 219.378Z" fill="#F9BEB6"/>
<path d="M146.625 210.181C147.445 211.033 142.544 219.729 129.082 219.434C129.082 219.434 127.515 207.015 137.285 205.4C137.285 205.4 141.82 205.193 146.617 210.181H146.625Z" fill="#AD8D80"/>
<path d="M117.06 309.64C117.06 309.64 114.872 315.893 116.129 318.813C117.386 321.733 120.306 321.248 122.43 320.078C124.554 318.901 123.178 314.35 123.178 314.35C123.178 314.35 123.631 314.438 124.308 315.647C124.992 316.848 126.328 314.987 126.328 314.987C126.328 314.987 121.451 309.202 120.727 309.322C119.995 309.441 117.068 309.64 117.068 309.64H117.06Z" fill="#FFD4BB"/>
<path d="M114.387 313.992L107.036 276.718C106.423 275.54 106.304 274.092 106.717 272.74L112.78 242.737C113.575 240.152 116.05 238.64 118.309 239.372C120.569 240.104 121.754 242.793 120.967 245.379L114.284 274.816L122.558 306.609C123.735 308.86 121.142 311.263 119.057 312.727C117.211 314.024 114.522 314.239 114.395 313.984L114.387 313.992Z" fill="#32456B"/>
<path d="M145.559 254.441H148.519V251.481H145.559V254.441Z" fill="#538BA6"/>
<path d="M142.941 260.201H151.279C152.022 260.201 152.624 259.599 152.624 258.856V254.799C152.624 254.056 152.022 253.454 151.279 253.454H142.941C142.198 253.454 141.596 254.056 141.596 254.799V258.856C141.596 259.599 142.198 260.201 142.941 260.201Z" fill="#F2F2F2"/>
<path d="M147.006 255.101H151.326C151.405 255.101 151.469 255.037 151.469 254.958V254.918C151.469 254.839 151.405 254.775 151.326 254.775H147.006C146.927 254.775 146.863 254.839 146.863 254.918V254.958C146.863 255.037 146.927 255.101 147.006 255.101Z" fill="#538BA6"/>
<path d="M147.006 256.088H151.326C151.405 256.088 151.469 256.024 151.469 255.945V255.905C151.469 255.826 151.405 255.762 151.326 255.762H147.006C146.927 255.762 146.863 255.826 146.863 255.905V255.945C146.863 256.024 146.927 256.088 147.006 256.088Z" fill="#538BA6"/>
<path d="M147.006 257.074H151.326C151.405 257.074 151.469 257.01 151.469 256.931V256.891C151.469 256.812 151.405 256.748 151.326 256.748H147.006C146.927 256.748 146.863 256.812 146.863 256.891V256.931C146.863 257.01 146.927 257.074 147.006 257.074Z" fill="#538BA6"/>
<path d="M143.22 259.047H151.184C151.347 259.047 151.479 258.916 151.479 258.753V258.355C151.479 258.193 151.347 258.061 151.184 258.061H143.22C143.058 258.061 142.926 258.193 142.926 258.355V258.753C142.926 258.916 143.058 259.047 143.22 259.047Z" fill="#538BA6"/>
<path d="M143.339 257.4H145.129C145.362 257.4 145.551 257.212 145.551 256.979V255.189C145.551 254.956 145.362 254.767 145.129 254.767H143.339C143.106 254.767 142.917 254.956 142.917 255.189V256.979C142.917 257.212 143.106 257.4 143.339 257.4Z" fill="#538BA6"/>
<path d="M128.19 216.467C128.19 216.467 127.331 222.083 127.761 224.367C127.761 224.367 125.111 221.845 124.92 219.156C124.729 216.467 128.19 216.467 128.19 216.467Z" fill="#AD8D80"/>
<path d="M144.293 222.442C142.678 219.49 132.359 222.879 131.428 223.197L126.846 218.583L126.36 219.004L126.885 219.442L130.975 223.714C130.593 224.271 130.044 225.266 129.925 226.531L127.045 224.351L127.426 225.505L129.909 227.366C129.933 227.78 130.004 228.218 130.139 228.671C131.102 231.822 136.107 234.63 139.265 234.543C142.424 234.455 145.988 225.528 144.293 222.442Z" fill="#FBFBFB"/>
<path d="M147.475 214.199C147.428 214.955 147.34 215.416 147.34 215.416C146.847 215.209 142.415 212.99 134.762 214.557C125.429 216.467 126.463 221.662 126.463 221.662C126.463 221.662 122.684 217.636 122.676 217.628C122.676 217.628 122.573 217.111 122.573 217.103C122.422 216.61 118.277 209.417 124.657 204.739C127.155 202.909 129.312 201.971 134.754 200.841C146.902 198.327 147.706 210.802 147.475 214.199Z" fill="#32456B"/>
</g>
<path d="M204.519 336.533L206.532 337.758L210.908 336.016C210.908 336.016 211.067 336.66 212.515 337.002C213.971 337.336 221.696 331.011 223.391 330.94C225.085 330.876 220.041 325.577 220.041 325.577C220.041 325.577 209.834 328.728 209.34 329.54C208.847 330.343 204.607 335.483 204.519 336.533Z" fill="#FFD4BB"/>
<path d="M216.437 331.942C216.604 331.218 212.157 331.266 211.592 331.743C211.019 332.221 206.532 337.766 206.532 337.766L210.908 336.024C210.908 336.024 216.27 332.674 216.437 331.942Z" fill="#FEBCAC"/>
<path d="M219.906 334.425L248.309 305.934C249.542 305.258 250.497 304.048 250.926 302.616L263.234 272.63C264.062 269.885 262.765 267.1 260.346 266.416C257.928 265.732 255.294 267.403 254.475 270.147L243.042 299.999L217.057 323.127C214.694 324.416 215.562 328.06 216.532 330.574C217.392 332.809 219.635 334.568 219.898 334.425H219.906Z" fill="#32456B"/>
<g filter="url(#filter9_d_158_482)">
<path d="M272.441 360.718H-47.5039V365.428H272.441V360.718Z" fill="#DCE9FF"/>
<path d="M200.702 365.436H3.81299V390.482H200.702V365.436Z" fill="#89A2E0"/>
<path d="M210.13 390.283H-6.65723V395.518H210.13V390.283Z" fill="#D3DCEB"/>
<path d="M204.497 392.972L217.847 412.934C218.507 414.541 220.345 415.304 221.944 414.644C223.551 413.984 224.315 412.146 223.655 410.547L210.305 390.585L204.497 392.972Z" fill="#D3DCEB"/>
<path d="M222.031 421.829C226.078 421.829 229.359 418.548 229.359 414.501C229.359 410.454 226.078 407.173 222.031 407.173C217.984 407.173 214.704 410.454 214.704 414.501C214.704 418.548 217.984 421.829 222.031 421.829Z" fill="#6183BA"/>
<path d="M-45.308 361.959C-45.308 361.959 -53.8846 353.39 -42.1574 350.773C-30.4222 348.155 200.495 345.013 205.292 350.773C210.09 356.533 207.13 360.726 207.13 360.726L-45.308 361.959Z" fill="#89A2E0"/>
<path d="M196.501 362.245C196.501 362.245 189.834 352.125 200.79 347.479C211.745 342.833 262.322 339.507 269.562 344.798C276.802 350.081 272.259 361.338 272.259 361.338L196.509 362.253L196.501 362.245Z" fill="#89A2E0"/>
<path d="M205.675 336.317C205.675 336.317 205.022 336.675 204.227 337.343C204.227 337.343 204.219 337.343 204.211 337.359C203.797 337.709 203.359 338.131 202.946 338.64L201.49 343.063C201.49 343.103 201.49 343.135 201.498 343.175C201.498 343.215 201.506 343.262 201.514 343.302L201.53 343.398L204.799 347.503C205.157 347.694 205.516 347.853 205.85 347.988C206.971 348.426 207.863 348.561 207.863 348.561L225.175 343.159L214.705 336.38L205.659 336.325L205.675 336.317Z" fill="#E5AB76"/>
<path d="M215.269 327.533C215.126 326.292 215.157 325.417 216.367 325.115C217.576 324.812 217.608 326.061 220.886 325.616C221.681 325.488 224.609 323.014 225.341 322.943C233.6 322.123 238.015 324.971 238.994 331.217C240.37 337.876 237.458 339.404 227.784 341.337C228.921 342.984 225.699 342.857 224.458 343C223.217 343.143 221.299 342.308 220.981 341.019C220.965 341.019 220.941 341.019 220.926 341.019C213.503 340.287 210.519 336.508 209.97 335.696C209.413 334.885 208.228 331.312 209.23 330.23C210.073 329.323 212.198 328.981 215.277 327.541L215.269 327.533Z" fill="#FCBF81"/>
<path d="M231.157 331.869C231.157 331.869 227.983 333.97 227.235 335.465C226.487 336.953 226.296 337.757 226.296 337.757C225.007 338.234 224.132 338.481 224.06 338.505C224.14 338.52 225.548 338.751 225.835 338.942C225.946 339.093 226.75 340.008 226.75 340.008C227.887 341.655 225.691 342.864 224.45 343C223.209 343.143 221.292 342.308 220.974 341.019C220.958 341.019 220.934 341.019 220.918 341.019C218.666 341.003 216.908 341.711 216.892 341.838C221.435 348.537 235.899 349.158 238.143 341.353C238.445 343.501 239.814 344.018 239.814 344.018C240.076 344.058 240.402 341.202 239.631 340.661C240.036 341.011 241.094 341.241 242.654 340.955C242.654 340.955 241.46 339.054 239.4 338.409C240.545 333.031 239.845 328.75 237.896 326.395C235.843 323.977 232.534 323.476 230.592 322.131C227.8 320.269 228.309 317.97 228.309 317.97C227.362 318.797 225.532 320.476 225.349 322.943C225.174 325.25 226.431 328.241 231.173 331.869H231.157Z" fill="#514D4A"/>
<path d="M179.18 333.381C183.731 334.55 181.655 346.341 180.549 350.661L180.151 352.213L206.557 349.93C208.753 349.739 210.145 347.487 209.326 345.434L205.674 336.309C199.572 331.066 189.619 331.837 179.18 333.373V333.381Z" fill="#E4EFF4"/>
<path d="M53.2199 329.427C69.6492 325.894 158.232 323.953 158.232 323.953L176.69 324.709C181.551 324.709 185.497 328.83 185.497 333.293V349.126C185.497 353.589 181.519 357.233 176.658 357.233H52.5118C47.6507 357.233 -41.0117 363.009 -41.0117 358.546V342.713C-41.0117 338.25 36.7907 332.951 53.2199 329.419V329.427Z" fill="#89A2E0"/>
</g>
<g filter="url(#filter10_d_158_482)">
<path d="M325.532 345.124H269.044V424.685H325.532V345.124Z" fill="#D3DCEB"/>
<path d="M324.736 344.328H269.839C267.642 344.328 265.861 346.109 265.861 348.306C265.861 350.503 267.642 352.284 269.839 352.284H324.736C326.933 352.284 328.714 350.503 328.714 348.306C328.714 346.109 326.933 344.328 324.736 344.328Z" fill="#89A2E0"/>
<path d="M271.406 403.263C271.319 402.436 270.674 401.736 269.783 401.497L263.944 399.914V399.946H263.816L259.56 413.773C259.409 414.267 259.051 414.696 258.573 414.967L250.204 419.685C249.901 419.955 250.036 420.56 250.275 421.149C250.609 421.976 251.516 422.501 252.495 422.469L268.845 421.976C271.327 421.905 273.22 419.963 272.982 417.751L271.406 403.263Z" fill="#F2FCF9"/>
<path d="M272.604 405.548C271.298 397.051 267.087 372.738 261.62 365.032C257.923 359.824 252.007 355.019 252.007 355.019C249.249 355.499 248.417 359.436 249.151 362.192L262.583 407.3C263.317 410.056 273.338 408.297 272.595 405.548H272.604Z" fill="#32456B"/>
<path d="M301.688 405.976L295.625 404.051C294.615 403.733 293.565 404.417 293.541 405.404L293.453 408.554C293.453 408.65 293.437 408.745 293.414 408.841C292.005 414.672 290.51 420.274 290.112 426.177C290.064 426.933 290.613 427.601 291.417 427.736C295.196 428.373 298.911 428.23 302.571 427.378C303.255 427.219 303.756 426.67 303.788 426.018C304.106 419.74 303.733 413.447 302.754 407.154C302.666 406.605 302.261 406.151 301.696 405.976H301.688Z" fill="#F2FCF9"/>
<path d="M303.574 406.1C303.574 406.1 297.838 362.185 295.104 356.814C292.369 351.45 289.102 346.178 285.701 346.815C282.3 347.452 280.404 354.903 281 357.527L292.181 407.175C292.776 409.799 304.169 408.725 303.574 406.1Z" fill="#32456B"/>
<path d="M314.035 337.367C314.035 337.478 314.035 337.59 314.027 337.701C313.049 339.969 311.855 342.172 310.638 344.066C309.492 345.848 308.323 347.352 307.264 348.378C301.25 354.178 291.965 368.905 284.16 363.606C279.76 360.615 280.278 353.263 282.37 348.792C283.985 345.339 286.197 342.403 286.953 341.432C289.427 338.258 292.944 329.451 292.944 329.451C295.649 328.456 305.45 323.189 311.457 322.855C313.383 326.905 314.035 336.643 314.035 337.367Z" fill="#32456B"/>
<path d="M292.761 320.683C290.08 315.106 282.172 323.913 279.618 326.833C279.618 326.833 253.482 353.717 250.745 355.459C248.009 357.201 249.576 364.258 257.11 368.3C259.815 369.756 282.426 352.316 289.539 346.325C294.925 341.79 295.443 326.26 292.761 320.683Z" fill="#32456B"/>
<path d="M314.036 335.235C314.036 335.354 314.036 335.473 314.028 335.593C313.924 338.242 312.651 340.533 310.639 342.435C306.263 346.58 298.378 348.895 291.417 349.102C291.178 349.11 290.939 349.118 290.701 349.118C289.961 349.118 289.221 349.078 288.505 349.015C286.277 348.808 284.216 348.291 282.371 347.511C276.483 345.052 272.68 340.016 272.33 334.033C273.293 329.729 274.407 325.489 274.749 324.136C275.083 322.775 276.634 316.204 276.634 316.204C276.634 316.204 286.174 317.095 290.701 317.095C294.75 317.095 306.859 315.368 306.859 315.368C306.859 315.368 308.825 315.154 311.06 318.869C311.195 319.1 311.331 319.354 311.458 319.641C313.383 323.993 314.036 334.455 314.036 335.235Z" fill="#32456B"/>
<path d="M270.635 259.199C270.635 259.199 271.279 259.031 271.431 259.994C271.399 261.45 270.277 274.395 262.814 271.952C259.473 270.862 259.592 267.656 259.592 267.656C259.99 265.03 260.753 263.344 262.313 260.853C262.321 260.837 262.337 260.814 262.353 260.798L261.454 258.554L259.56 253.82L263.482 251.235L265.074 254.417L270.643 259.191L270.635 259.199Z" fill="#FFD4BB"/>
<path d="M264.271 251.242L261.319 253.876L261.446 258.554L262.345 260.798C262.345 260.798 262.321 260.837 262.305 260.853L270.627 259.198L264.263 251.242H264.271Z" fill="#F7ACAC"/>
<path d="M265.567 271.18C270.388 270.202 270.611 259.23 270.611 259.23C270.611 259.23 277.199 256.104 280.397 260.814C283.596 265.524 288.138 271.141 290.525 275.914C292.912 280.688 299.5 297.213 312.007 322.059C312.007 322.059 297.932 335.473 273.818 328.424C272.624 328.074 257.905 294.213 257.11 287.848C256.314 281.483 254.612 270.703 255.67 267.306C256.72 263.909 262.417 261.363 262.417 261.363C262.417 261.363 260.332 272.246 265.575 271.18H265.567Z" fill="#40527C"/>
<path d="M242.176 323.897C242.176 323.897 240.943 330.803 238.262 332.84C235.58 334.877 233.138 332.911 231.793 330.724C230.441 328.536 234.085 325.059 234.085 325.059C234.085 325.059 233.623 324.908 232.366 325.663C231.109 326.419 230.854 324.001 230.854 324.001C230.854 324.001 238.357 321.208 238.97 321.693C239.582 322.187 242.184 323.897 242.184 323.897H242.176Z" fill="#FFD4BB"/>
<path d="M242.375 329.299L268.559 298.756C269.736 297.992 270.603 296.711 270.922 295.255L280.946 264.434C281.559 261.633 280.063 258.96 277.597 258.451C275.13 257.949 272.632 259.811 272.02 262.612L262.862 293.243L238.692 318.256C236.432 319.72 237.57 323.285 238.731 325.719C239.758 327.883 242.121 329.474 242.383 329.307L242.375 329.299Z" fill="#32456B"/>
<path d="M248.23 259.103C250.347 263.988 256.139 267.115 259.464 265.882C265.757 261.371 267.54 254.234 263.188 246.477C258.064 239.897 254.484 237.749 248.19 242.26C241.897 246.771 243.115 252.523 248.238 259.103H248.23Z" fill="#FFD4BB"/>
<path d="M248.994 260.026C249.113 256.923 259.949 253.94 260.928 253.677L262.885 248.195L263.593 247.774L263.315 248.386L261.564 253.828C262.161 254.043 263.1 254.504 263.792 255.396L264.699 251.895L265.51 250.972L264.19 256.008C264.357 256.334 264.492 256.708 264.572 257.13C265.129 260.042 261.898 264.863 259.01 266.494C256.122 268.125 248.874 263.264 249.002 260.018L248.994 260.026Z" fill="#FBFBFB"/>
<path d="M241.961 251.791C242.789 253.629 245.048 254.306 245.048 254.306C245.366 253.868 244.849 250.248 252.392 247.607C261.589 244.392 264.58 247.877 264.58 247.877C264.58 247.877 263.474 237.717 261.088 235.33C258.701 232.943 249.615 233.516 244.682 236.357C237.601 240.43 241.126 249.946 241.953 251.791H241.961Z" fill="#32456B"/>
<path d="M263.1 247.002C265.089 244.734 265.75 246.342 266.243 247.543C266.736 248.752 265.877 251.465 264.668 252.197C264.668 252.197 262.257 249.389 263.1 247.002Z" fill="#F9BEB6"/>
</g>
<rect x="119.891" y="421.071" width="211.571" height="26.8333" fill="#4D648D"/>
<g filter="url(#filter11_d_158_482)">
<path d="M245.381 297.161L245.373 297.16C244.539 297.128 243.837 297.779 243.805 298.613L243.766 299.622C243.734 300.457 244.384 301.159 245.218 301.191L245.226 301.191C246.061 301.223 246.763 300.573 246.795 299.739L246.834 298.729C246.866 297.895 246.216 297.193 245.381 297.161Z" fill="#6183BA"/>
<path d="M246.187 303.219L244.166 303.148L244.683 300.133L245.9 300.18L246.187 303.219Z" fill="#6183BA"/>
<path d="M227.808 301.716C227.664 305.487 230.632 308.693 234.403 308.836L242.884 309.163C246.656 309.306 249.862 306.338 250.005 302.567L227.816 301.716H227.808Z" fill="#C2C7D1"/>
<path d="M224.323 313.499L222.835 317.676L221.427 317.628L220.059 313.332L219.048 313.292L221.109 318.423L223.185 318.503L225.334 313.531L224.323 313.499Z" fill="#89A2E0"/>
<path d="M223.128 317.52L221.116 317.442C220.558 317.421 220.089 317.856 220.068 318.413C220.046 318.971 220.481 319.44 221.039 319.462L223.05 319.539C223.608 319.56 224.077 319.126 224.098 318.568C224.12 318.011 223.685 317.541 223.128 317.52Z" fill="#6183BA"/>
<path d="M214.231 257.819L200.912 257.035C197.078 256.809 193.787 259.734 193.561 263.568L191.65 296.036C191.424 299.87 194.349 303.161 198.182 303.386L211.502 304.171C215.335 304.396 218.626 301.471 218.852 297.638L220.764 265.17C220.99 261.336 218.065 258.045 214.231 257.819Z" fill="#C1C7D1"/>
<path d="M230.849 274.386L217.739 273.883L216.538 305.151L229.648 305.655L230.849 274.386Z" fill="#CDD7EA"/>
<path d="M230.307 288.5L217.197 287.996L217.158 289.006L230.268 289.509L230.307 288.5Z" fill="#6183BA"/>
<path d="M229.03 269.256L219.951 268.907L219.758 273.947L228.837 274.296L229.03 269.256Z" fill="#6183BA"/>
<path d="M218.01 266.821L231.12 267.325L231.009 270.203C230.985 270.839 230.448 271.344 229.804 271.319L219.008 270.904C218.372 270.88 217.867 270.343 217.891 269.699L218.002 266.821L218.01 266.821Z" fill="#CCD7EA"/>
<path d="M240.068 263.24C240.036 263.797 244.134 265.595 243.585 265.563L224.649 263.344C224.092 263.312 223.671 262.834 223.702 262.278C223.734 261.721 224.212 261.299 224.768 261.331L239.121 262.174C239.678 262.206 240.1 262.683 240.068 263.24Z" fill="#C2C7D1"/>
<path d="M243 255.467L237.835 261.685C237.301 262.327 237.389 263.28 238.031 263.813L238.038 263.819C238.68 264.352 239.633 264.264 240.166 263.622L245.332 257.404C245.865 256.762 245.777 255.809 245.135 255.276L245.129 255.27C244.487 254.737 243.534 254.825 243 255.467Z" fill="#C2C7D1"/>
<path d="M249.131 254.536L247.747 254.894L245.805 257.233L243.22 255.085L245.161 252.746L245.256 251.314C246.959 251.895 248.248 252.969 249.131 254.536Z" fill="#6183BA"/>
<path d="M218.038 266.789L231.15 267.29L231.341 262.254L220.361 258.801L219.319 259.771L219.518 261.713L218.189 262.755L218.603 264.831L218.078 265.786L218.038 266.789Z" fill="#6183BA"/>
<path d="M231.607 262.864L219.074 258.984L219.925 256.233C220.114 255.625 220.763 255.276 221.379 255.467L231.7 258.662C232.308 258.85 232.656 259.499 232.466 260.115L231.614 262.866L231.607 262.864Z" fill="#CCD7EA"/>
<path d="M227.172 307.575L217.838 307.217C217.074 307.187 216.431 307.783 216.402 308.547L216.276 311.83C216.246 312.594 216.842 313.238 217.606 313.267L226.94 313.625C227.704 313.655 228.347 313.059 228.376 312.295L228.502 309.012C228.531 308.248 227.936 307.605 227.172 307.575Z" fill="#CCD7EA"/>
<path d="M229.183 291.489L217.083 291.024C212.068 290.831 207.847 294.74 207.655 299.754C207.462 304.768 211.371 308.989 216.385 309.182L228.485 309.647C233.499 309.839 237.72 305.931 237.913 300.917C238.106 295.902 234.197 291.681 229.183 291.489Z" fill="#CDD7EA"/>
<path d="M223.957 286.456C225.75 286.456 227.203 285.003 227.203 283.21C227.203 281.417 225.75 279.964 223.957 279.964C222.164 279.964 220.711 281.417 220.711 283.21C220.711 285.003 222.164 286.456 223.957 286.456Z" fill="#6183BA"/>
<path d="M249.362 254.673L242.356 263.106C241.822 263.748 241.91 264.701 242.552 265.235L242.558 265.24C243.201 265.774 244.154 265.685 244.687 265.043L251.693 256.61C252.227 255.968 252.139 255.015 251.497 254.482L251.49 254.477C250.848 253.943 249.895 254.031 249.362 254.673Z" fill="#C2C7D1"/>
<path d="M255.495 253.741L254.111 254.099L252.17 256.438L249.584 254.29L251.525 251.951L251.621 250.518C253.323 251.099 254.612 252.173 255.495 253.741Z" fill="#6183BA"/>
</g>
<path d="M237.602 262.087L242.892 265.444L244.969 264.688L238.763 260.559L237.602 262.087Z" fill="#C2C7D1"/>
</g>
<circle cx="6" cy="6" r="6" transform="matrix(-1 0 0 1 71 120)" fill="#BDCDFF"/>
<circle cx="3.5" cy="3.5" r="3.5" transform="matrix(-1 0 0 1 327 135)" fill="#BDCDFF"/>
<circle cx="8.5" cy="8.5" r="8.5" transform="matrix(-1 0 0 1 59 397)" fill="#BDCDFF"/>
<circle cx="8.5" cy="8.5" r="8.5" transform="matrix(-1 0 0 1 389 428)" fill="#EEF1F8"/>
<circle cx="5.5" cy="5.5" r="5.5" transform="matrix(-1 0 0 1 372 408)" fill="#EEF1F8"/>
<circle cx="5.5" cy="5.5" r="5.5" transform="matrix(-1 0 0 1 42 314)" fill="#BDCDFF"/>
<defs>
<filter id="filter0_d_158_482" x="1" y="63.5867" width="430.502" height="414.413" filterUnits="userSpaceOnUse" color-interpolation-filters="sRGB">
<feFlood flood-opacity="0" result="BackgroundImageFix"/>
<feColorMatrix in="SourceAlpha" type="matrix" values="0 0 0 0 0 0 0 0 0 0 0 0 0 0 0 0 0 0 127 0" result="hardAlpha"/>
<feOffset dx="-4" dy="4"/>
<feGaussianBlur stdDeviation="2"/>
<feComposite in2="hardAlpha" operator="out"/>
<feColorMatrix type="matrix" values="0 0 0 0 0 0 0 0 0 0 0 0 0 0 0 0 0 0 0.15 0"/>
<feBlend mode="normal" in2="BackgroundImageFix" result="effect1_dropShadow_158_482"/>
<feBlend mode="normal" in="SourceGraphic" in2="effect1_dropShadow_158_482" result="shape"/>
</filter>
<filter id="filter1_d_158_482" x="51" y="129" width="330" height="330" filterUnits="userSpaceOnUse" color-interpolation-filters="sRGB">
<feFlood flood-opacity="0" result="BackgroundImageFix"/>
<feColorMatrix in="SourceAlpha" type="matrix" values="0 0 0 0 0 0 0 0 0 0 0 0 0 0 0 0 0 0 127 0" result="hardAlpha"/>
<feOffset dx="-4" dy="4"/>
<feGaussianBlur stdDeviation="2"/>
<feComposite in2="hardAlpha" operator="out"/>
<feColorMatrix type="matrix" values="0 0 0 0 0 0 0 0 0 0 0 0 0 0 0 0 0 0 0.15 0"/>
<feBlend mode="normal" in2="BackgroundImageFix" result="effect1_dropShadow_158_482"/>
<feBlend mode="normal" in="SourceGraphic" in2="effect1_dropShadow_158_482" result="shape"/>
</filter>
<filter id="filter2_d_158_482" x="130.082" y="177.935" width="32.7427" height="25.5443" filterUnits="userSpaceOnUse" color-interpolation-filters="sRGB">
<feFlood flood-opacity="0" result="BackgroundImageFix"/>
<feColorMatrix in="SourceAlpha" type="matrix" values="0 0 0 0 0 0 0 0 0 0 0 0 0 0 0 0 0 0 127 0" result="hardAlpha"/>
<feOffset dy="4"/>
<feGaussianBlur stdDeviation="2"/>
<feComposite in2="hardAlpha" operator="out"/>
<feColorMatrix type="matrix" values="0 0 0 0 0.940254 0 0 0 0 0.941667 0 0 0 0 0.871042 0 0 0 0.4 0"/>
<feBlend mode="normal" in2="BackgroundImageFix" result="effect1_dropShadow_158_482"/>
<feBlend mode="normal" in="SourceGraphic" in2="effect1_dropShadow_158_482" result="shape"/>
</filter>
<filter id="filter3_d_158_482" x="137.762" y="194.48" width="31.5684" height="24.7062" filterUnits="userSpaceOnUse" color-interpolation-filters="sRGB">
<feFlood flood-opacity="0" result="BackgroundImageFix"/>
<feColorMatrix in="SourceAlpha" type="matrix" values="0 0 0 0 0 0 0 0 0 0 0 0 0 0 0 0 0 0 127 0" result="hardAlpha"/>
<feOffset dy="4"/>
<feGaussianBlur stdDeviation="2"/>
<feComposite in2="hardAlpha" operator="out"/>
<feColorMatrix type="matrix" values="0 0 0 0 0.940254 0 0 0 0 0.941667 0 0 0 0 0.871042 0 0 0 0.4 0"/>
<feBlend mode="normal" in2="BackgroundImageFix" result="effect1_dropShadow_158_482"/>
<feBlend mode="normal" in="SourceGraphic" in2="effect1_dropShadow_158_482" result="shape"/>
</filter>
<filter id="filter4_d_158_482" x="158.497" y="171.381" width="32.7515" height="25.5431" filterUnits="userSpaceOnUse" color-interpolation-filters="sRGB">
<feFlood flood-opacity="0" result="BackgroundImageFix"/>
<feColorMatrix in="SourceAlpha" type="matrix" values="0 0 0 0 0 0 0 0 0 0 0 0 0 0 0 0 0 0 127 0" result="hardAlpha"/>
<feOffset dy="4"/>
<feGaussianBlur stdDeviation="2"/>
<feComposite in2="hardAlpha" operator="out"/>
<feColorMatrix type="matrix" values="0 0 0 0 0.940254 0 0 0 0 0.941667 0 0 0 0 0.871042 0 0 0 0.4 0"/>
<feBlend mode="normal" in2="BackgroundImageFix" result="effect1_dropShadow_158_482"/>
<feBlend mode="normal" in="SourceGraphic" in2="effect1_dropShadow_158_482" result="shape"/>
</filter>
<filter id="filter5_d_158_482" x="139.518" y="156.384" width="33.9961" height="26.4211" filterUnits="userSpaceOnUse" color-interpolation-filters="sRGB">
<feFlood flood-opacity="0" result="BackgroundImageFix"/>
<feColorMatrix in="SourceAlpha" type="matrix" values="0 0 0 0 0 0 0 0 0 0 0 0 0 0 0 0 0 0 127 0" result="hardAlpha"/>
<feOffset dy="4"/>
<feGaussianBlur stdDeviation="2"/>
<feComposite in2="hardAlpha" operator="out"/>
<feColorMatrix type="matrix" values="0 0 0 0 0.940254 0 0 0 0 0.941667 0 0 0 0 0.871042 0 0 0 0.4 0"/>
<feBlend mode="normal" in2="BackgroundImageFix" result="effect1_dropShadow_158_482"/>
<feBlend mode="normal" in="SourceGraphic" in2="effect1_dropShadow_158_482" result="shape"/>
</filter>
<filter id="filter6_d_158_482" x="107.112" y="170.648" width="33.9824" height="26.4227" filterUnits="userSpaceOnUse" color-interpolation-filters="sRGB">
<feFlood flood-opacity="0" result="BackgroundImageFix"/>
<feColorMatrix in="SourceAlpha" type="matrix" values="0 0 0 0 0 0 0 0 0 0 0 0 0 0 0 0 0 0 127 0" result="hardAlpha"/>
<feOffset dy="4"/>
<feGaussianBlur stdDeviation="2"/>
<feComposite in2="hardAlpha" operator="out"/>
<feColorMatrix type="matrix" values="0 0 0 0 0.940254 0 0 0 0 0.941667 0 0 0 0 0.871042 0 0 0 0.4 0"/>
<feBlend mode="normal" in2="BackgroundImageFix" result="effect1_dropShadow_158_482"/>
<feBlend mode="normal" in="SourceGraphic" in2="effect1_dropShadow_158_482" result="shape"/>
</filter>
<filter id="filter7_d_158_482" x="106.049" y="194.462" width="32.7451" height="25.5352" filterUnits="userSpaceOnUse" color-interpolation-filters="sRGB">
<feFlood flood-opacity="0" result="BackgroundImageFix"/>
<feColorMatrix in="SourceAlpha" type="matrix" values="0 0 0 0 0 0 0 0 0 0 0 0 0 0 0 0 0 0 127 0" result="hardAlpha"/>
<feOffset dy="4"/>
<feGaussianBlur stdDeviation="2"/>
<feComposite in2="hardAlpha" operator="out"/>
<feColorMatrix type="matrix" values="0 0 0 0 0.940254 0 0 0 0 0.941667 0 0 0 0 0.871042 0 0 0 0.4 0"/>
<feBlend mode="normal" in2="BackgroundImageFix" result="effect1_dropShadow_158_482"/>
<feBlend mode="normal" in="SourceGraphic" in2="effect1_dropShadow_158_482" result="shape"/>
</filter>
<filter id="filter8_d_158_482" x="98.4741" y="200.509" width="85.7764" height="227.783" filterUnits="userSpaceOnUse" color-interpolation-filters="sRGB">
<feFlood flood-opacity="0" result="BackgroundImageFix"/>
<feColorMatrix in="SourceAlpha" type="matrix" values="0 0 0 0 0 0 0 0 0 0 0 0 0 0 0 0 0 0 127 0" result="hardAlpha"/>
<feOffset dx="-4" dy="4"/>
<feGaussianBlur stdDeviation="2"/>
<feComposite in2="hardAlpha" operator="out"/>
<feColorMatrix type="matrix" values="0 0 0 0 0 0 0 0 0 0 0 0 0 0 0 0 0 0 0.15 0"/>
<feBlend mode="normal" in2="BackgroundImageFix" result="effect1_dropShadow_158_482"/>
<feBlend mode="normal" in="SourceGraphic" in2="effect1_dropShadow_158_482" result="shape"/>
</filter>
<filter id="filter9_d_158_482" x="-56.3335" y="317.97" width="330" height="111.859" filterUnits="userSpaceOnUse" color-interpolation-filters="sRGB">
<feFlood flood-opacity="0" result="BackgroundImageFix"/>
<feColorMatrix in="SourceAlpha" type="matrix" values="0 0 0 0 0 0 0 0 0 0 0 0 0 0 0 0 0 0 127 0" result="hardAlpha"/>
<feOffset dx="-4" dy="4"/>
<feGaussianBlur stdDeviation="2"/>
<feComposite in2="hardAlpha" operator="out"/>
<feColorMatrix type="matrix" values="0 0 0 0 0 0 0 0 0 0 0 0 0 0 0 0 0 0 0.15 0"/>
<feBlend mode="normal" in2="BackgroundImageFix" result="effect1_dropShadow_158_482"/>
<feBlend mode="normal" in="SourceGraphic" in2="effect1_dropShadow_158_482" result="shape"/>
</filter>
<filter id="filter10_d_158_482" x="230.854" y="233.838" width="105.86" height="202.293" filterUnits="userSpaceOnUse" color-interpolation-filters="sRGB">
<feFlood flood-opacity="0" result="BackgroundImageFix"/>
<feColorMatrix in="SourceAlpha" type="matrix" values="0 0 0 0 0 0 0 0 0 0 0 0 0 0 0 0 0 0 127 0" result="hardAlpha"/>
<feOffset dx="4" dy="4"/>
<feGaussianBlur stdDeviation="2"/>
<feComposite in2="hardAlpha" operator="out"/>
<feColorMatrix type="matrix" values="0 0 0 0 0 0 0 0 0 0 0 0 0 0 0 0 0 0 0.15 0"/>
<feBlend mode="normal" in2="BackgroundImageFix" result="effect1_dropShadow_158_482"/>
<feBlend mode="normal" in="SourceGraphic" in2="effect1_dropShadow_158_482" result="shape"/>
</filter>
<filter id="filter11_d_158_482" x="191.637" y="250.518" width="71.8579" height="77.0213" filterUnits="userSpaceOnUse" color-interpolation-filters="sRGB">
<feFlood flood-opacity="0" result="BackgroundImageFix"/>
<feColorMatrix in="SourceAlpha" type="matrix" values="0 0 0 0 0 0 0 0 0 0 0 0 0 0 0 0 0 0 127 0" result="hardAlpha"/>
<feOffset dx="4" dy="4"/>
<feGaussianBlur stdDeviation="2"/>
<feComposite in2="hardAlpha" operator="out"/>
<feColorMatrix type="matrix" values="0 0 0 0 0 0 0 0 0 0 0 0 0 0 0 0 0 0 0.15 0"/>
<feBlend mode="normal" in2="BackgroundImageFix" result="effect1_dropShadow_158_482"/>
<feBlend mode="normal" in="SourceGraphic" in2="effect1_dropShadow_158_482" result="shape"/>
</filter>
<linearGradient id="paint0_linear_158_482" x1="220.25" y1="63.58" x2="220.25" y2="439.58" gradientUnits="userSpaceOnUse">
<stop stop-color="#F5F5F5"/>
<stop offset="1" stop-color="#DFE7FF"/>
</linearGradient>
<linearGradient id="paint1_linear_158_482" x1="219.25" y1="471.421" x2="219.25" y2="95.421" gradientUnits="userSpaceOnUse">
<stop stop-color="#D9E2FF"/>
<stop offset="0.49" stop-color="#FDFDFD"/>
<stop offset="1" stop-color="white"/>
</linearGradient>
<linearGradient id="paint2_linear_158_482" x1="73.5942" y1="143.594" x2="366.402" y2="436.402" gradientUnits="userSpaceOnUse">
<stop stop-color="#B7C9FF"/>
<stop offset="1" stop-color="#A8D3F4"/>
</linearGradient>
</defs>
</svg>
