<svg width="583" height="486" viewBox="0 0 583 486" fill="none" xmlns="http://www.w3.org/2000/svg">
<g clip-path="url(#clip0_159_491)">
<path d="M274.666 2.6961C273.921 2.6961 273.318 2.09255 273.318 1.34805C273.318 0.603541 273.921 1.82937e-07 274.666 1.1785e-07C275.41 5.27632e-08 276.014 0.603541 276.014 1.34805C276.014 2.09255 275.41 2.6961 274.666 2.6961Z" fill="#71869D"/>
<path d="M244.335 2.6961C243.59 2.6961 242.987 2.09255 242.987 1.34805C242.987 0.603541 243.59 1.82936e-07 244.335 1.1785e-07C245.079 5.27644e-08 245.683 0.603541 245.683 1.34805C245.683 2.09255 245.079 2.6961 244.335 2.6961Z" fill="#71869D"/>
<path d="M214.004 2.6961C213.259 2.6961 212.655 2.09255 212.655 1.34805C212.655 0.603541 213.259 1.82933e-07 214.004 1.1785e-07C214.748 5.27674e-08 215.352 0.603541 215.352 1.34805C215.352 2.09255 214.748 2.6961 214.004 2.6961Z" fill="#71869D"/>
<path d="M183.672 2.6961C182.928 2.6961 182.324 2.09255 182.324 1.34805C182.324 0.603541 182.928 1.82933e-07 183.672 1.1785e-07C184.417 5.27674e-08 185.021 0.603541 185.021 1.34805C185.021 2.09255 184.417 2.6961 183.672 2.6961Z" fill="#71869D"/>
<path d="M153.341 2.6961C152.597 2.6961 151.993 2.09255 151.993 1.34805C151.993 0.603541 152.597 1.82933e-07 153.341 1.1785e-07C154.086 5.27674e-08 154.689 0.603541 154.689 1.34805C154.689 2.09255 154.086 2.6961 153.341 2.6961Z" fill="#71869D"/>
<path d="M123.01 2.6961C122.266 2.6961 121.662 2.09255 121.662 1.34805C121.662 0.603541 122.266 1.82933e-07 123.01 1.1785e-07C123.755 5.27674e-08 124.358 0.603541 124.358 1.34805C124.358 2.09255 123.755 2.6961 123.01 2.6961Z" fill="#71869D"/>
<path d="M274.666 33.0271C273.921 33.0271 273.318 32.4236 273.318 31.6791C273.318 30.9346 273.921 30.3311 274.666 30.3311C275.41 30.3311 276.014 30.9346 276.014 31.6791C276.014 32.4236 275.41 33.0271 274.666 33.0271Z" fill="#71869D"/>
<path d="M244.335 33.0271C243.59 33.0271 242.987 32.4236 242.987 31.6791C242.987 30.9346 243.59 30.3311 244.335 30.3311C245.079 30.3311 245.683 30.9346 245.683 31.6791C245.683 32.4236 245.079 33.0271 244.335 33.0271Z" fill="#71869D"/>
<path d="M214.004 33.0271C213.259 33.0271 212.655 32.4236 212.655 31.6791C212.655 30.9346 213.259 30.3311 214.004 30.3311C214.748 30.3311 215.352 30.9346 215.352 31.6791C215.352 32.4236 214.748 33.0271 214.004 33.0271Z" fill="#71869D"/>
<path d="M183.672 33.0271C182.928 33.0271 182.324 32.4236 182.324 31.6791C182.324 30.9346 182.928 30.3311 183.672 30.3311C184.417 30.3311 185.021 30.9346 185.021 31.6791C185.021 32.4236 184.417 33.0271 183.672 33.0271Z" fill="#71869D"/>
<path d="M153.341 33.0271C152.597 33.0271 151.993 32.4236 151.993 31.6791C151.993 30.9346 152.597 30.3311 153.341 30.3311C154.086 30.3311 154.689 30.9346 154.689 31.6791C154.689 32.4236 154.086 33.0271 153.341 33.0271Z" fill="#71869D"/>
<path d="M123.01 33.0271C122.266 33.0271 121.662 32.4236 121.662 31.6791C121.662 30.9346 122.266 30.3311 123.01 30.3311C123.755 30.3311 124.358 30.9346 124.358 31.6791C124.358 32.4236 123.755 33.0271 123.01 33.0271Z" fill="#71869D"/>
<path d="M274.666 63.3582C273.921 63.3582 273.318 62.7546 273.318 62.0102C273.318 61.2657 273.921 60.6621 274.666 60.6621C275.41 60.6621 276.014 61.2657 276.014 62.0102C276.014 62.7546 275.41 63.3582 274.666 63.3582Z" fill="#71869D"/>
<path d="M244.335 63.3582C243.59 63.3582 242.987 62.7546 242.987 62.0102C242.987 61.2657 243.59 60.6621 244.335 60.6621C245.079 60.6621 245.683 61.2657 245.683 62.0102C245.683 62.7546 245.079 63.3582 244.335 63.3582Z" fill="#71869D"/>
<path d="M214.004 63.3582C213.259 63.3582 212.655 62.7546 212.655 62.0102C212.655 61.2657 213.259 60.6621 214.004 60.6621C214.748 60.6621 215.352 61.2657 215.352 62.0102C215.352 62.7546 214.748 63.3582 214.004 63.3582Z" fill="#71869D"/>
<path d="M183.672 63.3582C182.928 63.3582 182.324 62.7546 182.324 62.0102C182.324 61.2657 182.928 60.6621 183.672 60.6621C184.417 60.6621 185.021 61.2657 185.021 62.0102C185.021 62.7546 184.417 63.3582 183.672 63.3582Z" fill="#71869D"/>
<path d="M153.341 63.3582C152.597 63.3582 151.993 62.7546 151.993 62.0102C151.993 61.2657 152.597 60.6621 153.341 60.6621C154.086 60.6621 154.689 61.2657 154.689 62.0102C154.689 62.7546 154.086 63.3582 153.341 63.3582Z" fill="#71869D"/>
<path d="M123.01 63.3582C122.266 63.3582 121.662 62.7546 121.662 62.0102C121.662 61.2657 122.266 60.6621 123.01 60.6621C123.755 60.6621 124.358 61.2657 124.358 62.0102C124.358 62.7546 123.755 63.3582 123.01 63.3582Z" fill="#71869D"/>
<path d="M274.666 93.6893C273.921 93.6893 273.318 93.0857 273.318 92.3412C273.318 91.5968 273.921 90.9932 274.666 90.9932C275.41 90.9932 276.014 91.5968 276.014 92.3412C276.014 93.0857 275.41 93.6893 274.666 93.6893Z" fill="#71869D"/>
<path d="M244.335 93.6893C243.59 93.6893 242.987 93.0857 242.987 92.3412C242.987 91.5968 243.59 90.9932 244.335 90.9932C245.079 90.9932 245.683 91.5968 245.683 92.3412C245.683 93.0857 245.079 93.6893 244.335 93.6893Z" fill="#71869D"/>
<path d="M214.004 93.6893C213.259 93.6893 212.655 93.0857 212.655 92.3412C212.655 91.5968 213.259 90.9932 214.004 90.9932C214.748 90.9932 215.352 91.5968 215.352 92.3412C215.352 93.0857 214.748 93.6893 214.004 93.6893Z" fill="#71869D"/>
<path d="M183.672 93.6893C182.928 93.6893 182.324 93.0857 182.324 92.3412C182.324 91.5968 182.928 90.9932 183.672 90.9932C184.417 90.9932 185.021 91.5968 185.021 92.3412C185.021 93.0857 184.417 93.6893 183.672 93.6893Z" fill="#71869D"/>
<path d="M153.341 93.6893C152.597 93.6893 151.993 93.0857 151.993 92.3412C151.993 91.5968 152.597 90.9932 153.341 90.9932C154.086 90.9932 154.689 91.5968 154.689 92.3412C154.689 93.0857 154.086 93.6893 153.341 93.6893Z" fill="#71869D"/>
<path d="M123.01 93.6893C122.266 93.6893 121.662 93.0857 121.662 92.3412C121.662 91.5968 122.266 90.9932 123.01 90.9932C123.755 90.9932 124.358 91.5968 124.358 92.3412C124.358 93.0857 123.755 93.6893 123.01 93.6893Z" fill="#71869D"/>
<path d="M274.666 124.02C273.921 124.02 273.318 123.417 273.318 122.672C273.318 121.928 273.921 121.324 274.666 121.324C275.41 121.324 276.014 121.928 276.014 122.672C276.014 123.417 275.41 124.02 274.666 124.02Z" fill="#71869D"/>
<path d="M244.335 124.02C243.59 124.02 242.987 123.417 242.987 122.672C242.987 121.928 243.59 121.324 244.335 121.324C245.079 121.324 245.683 121.928 245.683 122.672C245.683 123.417 245.079 124.02 244.335 124.02Z" fill="#71869D"/>
<path d="M214.004 124.02C213.259 124.02 212.655 123.417 212.655 122.672C212.655 121.928 213.259 121.324 214.004 121.324C214.748 121.324 215.352 121.928 215.352 122.672C215.352 123.417 214.748 124.02 214.004 124.02Z" fill="#71869D"/>
<path d="M183.672 124.02C182.928 124.02 182.324 123.417 182.324 122.672C182.324 121.928 182.928 121.324 183.672 121.324C184.417 121.324 185.021 121.928 185.021 122.672C185.021 123.417 184.417 124.02 183.672 124.02Z" fill="#71869D"/>
<path d="M153.341 124.02C152.597 124.02 151.993 123.417 151.993 122.672C151.993 121.928 152.597 121.324 153.341 121.324C154.086 121.324 154.689 121.928 154.689 122.672C154.689 123.417 154.086 124.02 153.341 124.02Z" fill="#71869D"/>
<path d="M123.01 124.02C122.266 124.02 121.662 123.417 121.662 122.672C121.662 121.928 122.266 121.324 123.01 121.324C123.755 121.324 124.358 121.928 124.358 122.672C124.358 123.417 123.755 124.02 123.01 124.02Z" fill="#71869D"/>
<path d="M274.666 154.351C273.921 154.351 273.318 153.748 273.318 153.003C273.318 152.259 273.921 151.655 274.666 151.655C275.41 151.655 276.014 152.259 276.014 153.003C276.014 153.748 275.41 154.351 274.666 154.351Z" fill="#71869D"/>
<path d="M244.335 154.351C243.59 154.351 242.987 153.748 242.987 153.003C242.987 152.259 243.59 151.655 244.335 151.655C245.079 151.655 245.683 152.259 245.683 153.003C245.683 153.748 245.079 154.351 244.335 154.351Z" fill="#71869D"/>
<path d="M214.004 154.351C213.259 154.351 212.655 153.748 212.655 153.003C212.655 152.259 213.259 151.655 214.004 151.655C214.748 151.655 215.352 152.259 215.352 153.003C215.352 153.748 214.748 154.351 214.004 154.351Z" fill="#71869D"/>
<path d="M183.672 154.351C182.928 154.351 182.324 153.748 182.324 153.003C182.324 152.259 182.928 151.655 183.672 151.655C184.417 151.655 185.021 152.259 185.021 153.003C185.021 153.748 184.417 154.351 183.672 154.351Z" fill="#71869D"/>
<path d="M153.341 154.351C152.597 154.351 151.993 153.748 151.993 153.003C151.993 152.259 152.597 151.655 153.341 151.655C154.086 151.655 154.689 152.259 154.689 153.003C154.689 153.748 154.086 154.351 153.341 154.351Z" fill="#71869D"/>
<path d="M123.01 154.351C122.266 154.351 121.662 153.748 121.662 153.003C121.662 152.259 122.266 151.655 123.01 151.655C123.755 151.655 124.358 152.259 124.358 153.003C124.358 153.748 123.755 154.351 123.01 154.351Z" fill="#71869D"/>
<path d="M274.666 184.682C273.921 184.682 273.318 184.079 273.318 183.334C273.318 182.59 273.921 181.986 274.666 181.986C275.41 181.986 276.014 182.59 276.014 183.334C276.014 184.079 275.41 184.682 274.666 184.682Z" fill="#71869D"/>
<path d="M244.335 184.682C243.59 184.682 242.987 184.079 242.987 183.334C242.987 182.59 243.59 181.986 244.335 181.986C245.079 181.986 245.683 182.59 245.683 183.334C245.683 184.079 245.079 184.682 244.335 184.682Z" fill="#71869D"/>
<path d="M214.004 184.682C213.259 184.682 212.655 184.079 212.655 183.334C212.655 182.59 213.259 181.986 214.004 181.986C214.748 181.986 215.352 182.59 215.352 183.334C215.352 184.079 214.748 184.682 214.004 184.682Z" fill="#71869D"/>
<path d="M183.672 184.682C182.928 184.682 182.324 184.079 182.324 183.334C182.324 182.59 182.928 181.986 183.672 181.986C184.417 181.986 185.021 182.59 185.021 183.334C185.021 184.079 184.417 184.682 183.672 184.682Z" fill="#71869D"/>
<path d="M153.341 184.682C152.597 184.682 151.993 184.079 151.993 183.334C151.993 182.59 152.597 181.986 153.341 181.986C154.086 181.986 154.689 182.59 154.689 183.334C154.689 184.079 154.086 184.682 153.341 184.682Z" fill="#71869D"/>
<path d="M123.01 184.682C122.266 184.682 121.662 184.079 121.662 183.334C121.662 182.59 122.266 181.986 123.01 181.986C123.755 181.986 124.358 182.59 124.358 183.334C124.358 184.079 123.755 184.682 123.01 184.682Z" fill="#71869D"/>
<path d="M274.666 215.013C273.921 215.013 273.318 214.41 273.318 213.665C273.318 212.921 273.921 212.317 274.666 212.317C275.41 212.317 276.014 212.921 276.014 213.665C276.014 214.41 275.41 215.013 274.666 215.013Z" fill="#71869D"/>
<path d="M244.335 215.013C243.59 215.013 242.987 214.41 242.987 213.665C242.987 212.921 243.59 212.317 244.335 212.317C245.079 212.317 245.683 212.921 245.683 213.665C245.683 214.41 245.079 215.013 244.335 215.013Z" fill="#71869D"/>
<path d="M214.004 215.013C213.259 215.013 212.655 214.41 212.655 213.665C212.655 212.921 213.259 212.317 214.004 212.317C214.748 212.317 215.352 212.921 215.352 213.665C215.352 214.41 214.748 215.013 214.004 215.013Z" fill="#71869D"/>
<path d="M183.672 215.013C182.928 215.013 182.324 214.41 182.324 213.665C182.324 212.921 182.928 212.317 183.672 212.317C184.417 212.317 185.021 212.921 185.021 213.665C185.021 214.41 184.417 215.013 183.672 215.013Z" fill="#71869D"/>
<path d="M153.341 215.013C152.597 215.013 151.993 214.41 151.993 213.665C151.993 212.921 152.597 212.317 153.341 212.317C154.086 212.317 154.689 212.921 154.689 213.665C154.689 214.41 154.086 215.013 153.341 215.013Z" fill="#71869D"/>
<path d="M123.01 215.013C122.266 215.013 121.662 214.41 121.662 213.665C121.662 212.921 122.266 212.317 123.01 212.317C123.755 212.317 124.358 212.921 124.358 213.665C124.358 214.41 123.755 215.013 123.01 215.013Z" fill="#71869D"/>
<path d="M274.666 245.345C273.921 245.345 273.318 244.741 273.318 243.996C273.318 243.252 273.921 242.648 274.666 242.648C275.41 242.648 276.014 243.252 276.014 243.996C276.014 244.741 275.41 245.345 274.666 245.345Z" fill="#71869D"/>
<path d="M244.335 245.345C243.59 245.345 242.987 244.741 242.987 243.996C242.987 243.252 243.59 242.648 244.335 242.648C245.079 242.648 245.683 243.252 245.683 243.996C245.683 244.741 245.079 245.345 244.335 245.345Z" fill="#71869D"/>
<path d="M214.004 245.345C213.259 245.345 212.655 244.741 212.655 243.996C212.655 243.252 213.259 242.648 214.004 242.648C214.748 242.648 215.352 243.252 215.352 243.996C215.352 244.741 214.748 245.345 214.004 245.345Z" fill="#71869D"/>
<path d="M183.672 245.345C182.928 245.345 182.324 244.741 182.324 243.996C182.324 243.252 182.928 242.648 183.672 242.648C184.417 242.648 185.021 243.252 185.021 243.996C185.021 244.741 184.417 245.345 183.672 245.345Z" fill="#71869D"/>
<path d="M153.341 245.345C152.597 245.345 151.993 244.741 151.993 243.996C151.993 243.252 152.597 242.648 153.341 242.648C154.086 242.648 154.689 243.252 154.689 243.996C154.689 244.741 154.086 245.345 153.341 245.345Z" fill="#71869D"/>
<path d="M123.01 245.345C122.266 245.345 121.662 244.741 121.662 243.996C121.662 243.252 122.266 242.648 123.01 242.648C123.755 242.648 124.358 243.252 124.358 243.996C124.358 244.741 123.755 245.345 123.01 245.345Z" fill="#71869D"/>
<path d="M274.666 275.676C273.921 275.676 273.318 275.072 273.318 274.328C273.318 273.583 273.921 272.979 274.666 272.979C275.41 272.979 276.014 273.583 276.014 274.328C276.014 275.072 275.41 275.676 274.666 275.676Z" fill="#71869D"/>
<path d="M244.335 275.676C243.59 275.676 242.987 275.072 242.987 274.328C242.987 273.583 243.59 272.979 244.335 272.979C245.079 272.979 245.683 273.583 245.683 274.328C245.683 275.072 245.079 275.676 244.335 275.676Z" fill="#71869D"/>
<path d="M214.004 275.676C213.259 275.676 212.655 275.072 212.655 274.328C212.655 273.583 213.259 272.979 214.004 272.979C214.748 272.979 215.352 273.583 215.352 274.328C215.352 275.072 214.748 275.676 214.004 275.676Z" fill="#71869D"/>
<path d="M183.672 275.676C182.928 275.676 182.324 275.072 182.324 274.328C182.324 273.583 182.928 272.979 183.672 272.979C184.417 272.979 185.021 273.583 185.021 274.328C185.021 275.072 184.417 275.676 183.672 275.676Z" fill="#71869D"/>
<path d="M153.341 275.676C152.597 275.676 151.993 275.072 151.993 274.328C151.993 273.583 152.597 272.979 153.341 272.979C154.086 272.979 154.689 273.583 154.689 274.328C154.689 275.072 154.086 275.676 153.341 275.676Z" fill="#71869D"/>
<path d="M123.01 275.676C122.266 275.676 121.662 275.072 121.662 274.328C121.662 273.583 122.266 272.979 123.01 272.979C123.755 272.979 124.358 273.583 124.358 274.328C124.358 275.072 123.755 275.676 123.01 275.676Z" fill="#71869D"/>
<path d="M274.666 306.007C273.921 306.007 273.318 305.403 273.318 304.659C273.318 303.914 273.921 303.311 274.666 303.311C275.41 303.311 276.014 303.914 276.014 304.659C276.014 305.403 275.41 306.007 274.666 306.007Z" fill="#71869D"/>
<path d="M244.335 306.007C243.59 306.007 242.987 305.403 242.987 304.659C242.987 303.914 243.59 303.311 244.335 303.311C245.079 303.311 245.683 303.914 245.683 304.659C245.683 305.403 245.079 306.007 244.335 306.007Z" fill="#71869D"/>
<path d="M214.004 306.007C213.259 306.007 212.655 305.403 212.655 304.659C212.655 303.914 213.259 303.311 214.004 303.311C214.748 303.311 215.352 303.914 215.352 304.659C215.352 305.403 214.748 306.007 214.004 306.007Z" fill="#71869D"/>
<path d="M183.672 306.007C182.928 306.007 182.324 305.403 182.324 304.659C182.324 303.914 182.928 303.311 183.672 303.311C184.417 303.311 185.021 303.914 185.021 304.659C185.021 305.403 184.417 306.007 183.672 306.007Z" fill="#71869D"/>
<path d="M153.341 306.007C152.597 306.007 151.993 305.403 151.993 304.659C151.993 303.914 152.597 303.311 153.341 303.311C154.086 303.311 154.689 303.914 154.689 304.659C154.689 305.403 154.086 306.007 153.341 306.007Z" fill="#71869D"/>
<path d="M123.01 306.007C122.266 306.007 121.662 305.403 121.662 304.659C121.662 303.914 122.266 303.311 123.01 303.311C123.755 303.311 124.358 303.914 124.358 304.659C124.358 305.403 123.755 306.007 123.01 306.007Z" fill="#71869D"/>
<path d="M92.6793 2.6961C91.9348 2.6961 91.3312 2.09255 91.3312 1.34805C91.3312 0.603541 91.9348 1.82933e-07 92.6793 1.1785e-07C93.4238 5.27674e-08 94.0273 0.603541 94.0273 1.34805C94.0273 2.09255 93.4238 2.6961 92.6793 2.6961Z" fill="#71869D"/>
<path d="M62.3482 2.6961C61.6038 2.6961 61.0002 2.09255 61.0002 1.34805C61.0002 0.603541 61.6038 1.82933e-07 62.3482 1.1785e-07C63.0927 5.27674e-08 63.6963 0.603541 63.6963 1.34805C63.6963 2.09255 63.0927 2.6961 62.3482 2.6961Z" fill="#71869D"/>
<path d="M92.6793 33.0271C91.9348 33.0271 91.3312 32.4236 91.3312 31.6791C91.3312 30.9346 91.9348 30.3311 92.6793 30.3311C93.4238 30.3311 94.0273 30.9346 94.0273 31.6791C94.0273 32.4236 93.4238 33.0271 92.6793 33.0271Z" fill="#71869D"/>
<path d="M62.3482 33.0271C61.6038 33.0271 61.0002 32.4236 61.0002 31.6791C61.0002 30.9346 61.6038 30.3311 62.3482 30.3311C63.0927 30.3311 63.6963 30.9346 63.6963 31.6791C63.6963 32.4236 63.0927 33.0271 62.3482 33.0271Z" fill="#71869D"/>
<path d="M92.6793 63.3582C91.9348 63.3582 91.3312 62.7546 91.3312 62.0102C91.3312 61.2657 91.9348 60.6621 92.6793 60.6621C93.4238 60.6621 94.0273 61.2657 94.0273 62.0102C94.0273 62.7546 93.4238 63.3582 92.6793 63.3582Z" fill="#71869D"/>
<path d="M62.3482 63.3582C61.6038 63.3582 61.0002 62.7546 61.0002 62.0102C61.0002 61.2657 61.6038 60.6621 62.3482 60.6621C63.0927 60.6621 63.6963 61.2657 63.6963 62.0102C63.6963 62.7546 63.0927 63.3582 62.3482 63.3582Z" fill="#71869D"/>
<path d="M92.6793 93.6893C91.9348 93.6893 91.3312 93.0857 91.3312 92.3412C91.3312 91.5968 91.9348 90.9932 92.6793 90.9932C93.4238 90.9932 94.0273 91.5968 94.0273 92.3412C94.0273 93.0857 93.4238 93.6893 92.6793 93.6893Z" fill="#71869D"/>
<path d="M62.3482 93.6893C61.6038 93.6893 61.0002 93.0857 61.0002 92.3412C61.0002 91.5968 61.6038 90.9932 62.3482 90.9932C63.0927 90.9932 63.6963 91.5968 63.6963 92.3412C63.6963 93.0857 63.0927 93.6893 62.3482 93.6893Z" fill="#71869D"/>
<path d="M92.6793 124.02C91.9348 124.02 91.3312 123.417 91.3312 122.672C91.3312 121.928 91.9348 121.324 92.6793 121.324C93.4238 121.324 94.0273 121.928 94.0273 122.672C94.0273 123.417 93.4238 124.02 92.6793 124.02Z" fill="#71869D"/>
<path d="M62.3482 124.02C61.6038 124.02 61.0002 123.417 61.0002 122.672C61.0002 121.928 61.6038 121.324 62.3482 121.324C63.0927 121.324 63.6963 121.928 63.6963 122.672C63.6963 123.417 63.0927 124.02 62.3482 124.02Z" fill="#71869D"/>
<path d="M92.6793 154.351C91.9348 154.351 91.3312 153.748 91.3312 153.003C91.3312 152.259 91.9348 151.655 92.6793 151.655C93.4238 151.655 94.0273 152.259 94.0273 153.003C94.0273 153.748 93.4238 154.351 92.6793 154.351Z" fill="#71869D"/>
<path d="M62.3482 154.351C61.6038 154.351 61.0002 153.748 61.0002 153.003C61.0002 152.259 61.6038 151.655 62.3482 151.655C63.0927 151.655 63.6963 152.259 63.6963 153.003C63.6963 153.748 63.0927 154.351 62.3482 154.351Z" fill="#71869D"/>
<path d="M92.6793 184.682C91.9348 184.682 91.3312 184.079 91.3312 183.334C91.3312 182.59 91.9348 181.986 92.6793 181.986C93.4238 181.986 94.0273 182.59 94.0273 183.334C94.0273 184.079 93.4238 184.682 92.6793 184.682Z" fill="#71869D"/>
<path d="M62.3482 184.682C61.6038 184.682 61.0002 184.079 61.0002 183.334C61.0002 182.59 61.6038 181.986 62.3482 181.986C63.0927 181.986 63.6963 182.59 63.6963 183.334C63.6963 184.079 63.0927 184.682 62.3482 184.682Z" fill="#71869D"/>
<path d="M92.6793 215.013C91.9348 215.013 91.3312 214.41 91.3312 213.665C91.3312 212.921 91.9348 212.317 92.6793 212.317C93.4238 212.317 94.0273 212.921 94.0273 213.665C94.0273 214.41 93.4238 215.013 92.6793 215.013Z" fill="#71869D"/>
<path d="M62.3482 215.013C61.6038 215.013 61.0002 214.41 61.0002 213.665C61.0002 212.921 61.6038 212.317 62.3482 212.317C63.0927 212.317 63.6963 212.921 63.6963 213.665C63.6963 214.41 63.0927 215.013 62.3482 215.013Z" fill="#71869D"/>
<path d="M92.6793 245.345C91.9348 245.345 91.3312 244.741 91.3312 243.996C91.3312 243.252 91.9348 242.648 92.6793 242.648C93.4238 242.648 94.0273 243.252 94.0273 243.996C94.0273 244.741 93.4238 245.345 92.6793 245.345Z" fill="#71869D"/>
<path d="M62.3482 245.345C61.6038 245.345 61.0002 244.741 61.0002 243.996C61.0002 243.252 61.6038 242.648 62.3482 242.648C63.0927 242.648 63.6963 243.252 63.6963 243.996C63.6963 244.741 63.0927 245.345 62.3482 245.345Z" fill="#71869D"/>
<path d="M92.6793 275.676C91.9348 275.676 91.3312 275.072 91.3312 274.328C91.3312 273.583 91.9348 272.979 92.6793 272.979C93.4238 272.979 94.0273 273.583 94.0273 274.328C94.0273 275.072 93.4238 275.676 92.6793 275.676Z" fill="#71869D"/>
<path d="M62.3482 275.676C61.6038 275.676 61.0002 275.072 61.0002 274.328C61.0002 273.583 61.6038 272.979 62.3482 272.979C63.0927 272.979 63.6963 273.583 63.6963 274.328C63.6963 275.072 63.0927 275.676 62.3482 275.676Z" fill="#71869D"/>
<path d="M92.6793 306.007C91.9348 306.007 91.3312 305.403 91.3312 304.659C91.3312 303.914 91.9348 303.311 92.6793 303.311C93.4238 303.311 94.0273 303.914 94.0273 304.659C94.0273 305.403 93.4238 306.007 92.6793 306.007Z" fill="#71869D"/>
<path d="M62.3482 306.007C61.6038 306.007 61.0002 305.403 61.0002 304.659C61.0002 303.914 61.6038 303.311 62.3482 303.311C63.0927 303.311 63.6963 303.914 63.6963 304.659C63.6963 305.403 63.0927 306.007 62.3482 306.007Z" fill="#71869D"/>
<path d="M274.666 336.338C273.921 336.338 273.318 335.734 273.318 334.99C273.318 334.245 273.921 333.642 274.666 333.642C275.41 333.642 276.014 334.245 276.014 334.99C276.014 335.734 275.41 336.338 274.666 336.338Z" fill="#71869D"/>
<path d="M244.335 336.338C243.59 336.338 242.987 335.734 242.987 334.99C242.987 334.245 243.59 333.642 244.335 333.642C245.079 333.642 245.683 334.245 245.683 334.99C245.683 335.734 245.079 336.338 244.335 336.338Z" fill="#71869D"/>
<path d="M214.004 336.338C213.259 336.338 212.655 335.734 212.655 334.99C212.655 334.245 213.259 333.642 214.004 333.642C214.748 333.642 215.352 334.245 215.352 334.99C215.352 335.734 214.748 336.338 214.004 336.338Z" fill="#71869D"/>
<path d="M183.672 336.338C182.928 336.338 182.324 335.734 182.324 334.99C182.324 334.245 182.928 333.642 183.672 333.642C184.417 333.642 185.021 334.245 185.021 334.99C185.021 335.734 184.417 336.338 183.672 336.338Z" fill="#71869D"/>
<path d="M153.341 336.338C152.597 336.338 151.993 335.734 151.993 334.99C151.993 334.245 152.597 333.642 153.341 333.642C154.086 333.642 154.689 334.245 154.689 334.99C154.689 335.734 154.086 336.338 153.341 336.338Z" fill="#71869D"/>
<path d="M123.01 336.338C122.266 336.338 121.662 335.734 121.662 334.99C121.662 334.245 122.266 333.642 123.01 333.642C123.755 333.642 124.358 334.245 124.358 334.99C124.358 335.734 123.755 336.338 123.01 336.338Z" fill="#71869D"/>
<path d="M274.666 366.669C273.921 366.669 273.318 366.066 273.318 365.321C273.318 364.576 273.921 363.973 274.666 363.973C275.41 363.973 276.014 364.576 276.014 365.321C276.014 366.066 275.41 366.669 274.666 366.669Z" fill="#71869D"/>
<path d="M244.335 366.669C243.59 366.669 242.987 366.066 242.987 365.321C242.987 364.576 243.59 363.973 244.335 363.973C245.079 363.973 245.683 364.576 245.683 365.321C245.683 366.066 245.079 366.669 244.335 366.669Z" fill="#71869D"/>
<path d="M214.004 366.669C213.259 366.669 212.655 366.066 212.655 365.321C212.655 364.576 213.259 363.973 214.004 363.973C214.748 363.973 215.352 364.576 215.352 365.321C215.352 366.066 214.748 366.669 214.004 366.669Z" fill="#71869D"/>
<path d="M183.672 366.669C182.928 366.669 182.324 366.066 182.324 365.321C182.324 364.576 182.928 363.973 183.672 363.973C184.417 363.973 185.021 364.576 185.021 365.321C185.021 366.066 184.417 366.669 183.672 366.669Z" fill="#71869D"/>
<path d="M153.341 366.669C152.597 366.669 151.993 366.066 151.993 365.321C151.993 364.576 152.597 363.973 153.341 363.973C154.086 363.973 154.689 364.576 154.689 365.321C154.689 366.066 154.086 366.669 153.341 366.669Z" fill="#71869D"/>
<path d="M123.01 366.669C122.266 366.669 121.662 366.066 121.662 365.321C121.662 364.576 122.266 363.973 123.01 363.973C123.755 363.973 124.358 364.576 124.358 365.321C124.358 366.066 123.755 366.669 123.01 366.669Z" fill="#71869D"/>
<path d="M274.666 397C273.921 397 273.318 396.397 273.318 395.652C273.318 394.907 273.921 394.304 274.666 394.304C275.41 394.304 276.014 394.907 276.014 395.652C276.014 396.397 275.41 397 274.666 397Z" fill="#71869D"/>
<path d="M244.335 397C243.59 397 242.987 396.397 242.987 395.652C242.987 394.907 243.59 394.304 244.335 394.304C245.079 394.304 245.683 394.907 245.683 395.652C245.683 396.397 245.079 397 244.335 397Z" fill="#71869D"/>
<path d="M214.004 397C213.259 397 212.655 396.397 212.655 395.652C212.655 394.907 213.259 394.304 214.004 394.304C214.748 394.304 215.352 394.907 215.352 395.652C215.352 396.397 214.748 397 214.004 397Z" fill="#71869D"/>
<path d="M183.672 397C182.928 397 182.324 396.397 182.324 395.652C182.324 394.907 182.928 394.304 183.672 394.304C184.417 394.304 185.021 394.907 185.021 395.652C185.021 396.397 184.417 397 183.672 397Z" fill="#71869D"/>
<path d="M153.341 397C152.597 397 151.993 396.397 151.993 395.652C151.993 394.907 152.597 394.304 153.341 394.304C154.086 394.304 154.689 394.907 154.689 395.652C154.689 396.397 154.086 397 153.341 397Z" fill="#71869D"/>
<path d="M123.01 397C122.266 397 121.662 396.397 121.662 395.652C121.662 394.907 122.266 394.304 123.01 394.304C123.755 394.304 124.358 394.907 124.358 395.652C124.358 396.397 123.755 397 123.01 397Z" fill="#71869D"/>
<path d="M92.6793 336.338C91.9348 336.338 91.3312 335.734 91.3312 334.99C91.3312 334.245 91.9348 333.642 92.6793 333.642C93.4238 333.642 94.0273 334.245 94.0273 334.99C94.0273 335.734 93.4238 336.338 92.6793 336.338Z" fill="#71869D"/>
<path d="M62.3482 336.338C61.6038 336.338 61.0002 335.734 61.0002 334.99C61.0002 334.245 61.6038 333.642 62.3482 333.642C63.0927 333.642 63.6963 334.245 63.6963 334.99C63.6963 335.734 63.0927 336.338 62.3482 336.338Z" fill="#71869D"/>
<path d="M92.6793 366.669C91.9348 366.669 91.3312 366.066 91.3312 365.321C91.3312 364.576 91.9348 363.973 92.6793 363.973C93.4238 363.973 94.0273 364.576 94.0273 365.321C94.0273 366.066 93.4238 366.669 92.6793 366.669Z" fill="#71869D"/>
<path d="M62.3482 366.669C61.6038 366.669 61.0002 366.066 61.0002 365.321C61.0002 364.576 61.6038 363.973 62.3482 363.973C63.0927 363.973 63.6963 364.576 63.6963 365.321C63.6963 366.066 63.0927 366.669 62.3482 366.669Z" fill="#71869D"/>
<path d="M92.6793 397C91.9348 397 91.3312 396.397 91.3312 395.652C91.3312 394.907 91.9348 394.304 92.6793 394.304C93.4238 394.304 94.0273 394.907 94.0273 395.652C94.0273 396.397 93.4238 397 92.6793 397Z" fill="#71869D"/>
<path d="M62.3482 397C61.6038 397 61.0002 396.397 61.0002 395.652C61.0002 394.907 61.6038 394.304 62.3482 394.304C63.0927 394.304 63.6963 394.907 63.6963 395.652C63.6963 396.397 63.0927 397 62.3482 397Z" fill="#71869D"/>
</g>
<g clip-path="url(#clip1_159_491)">
<path d="M580.304 475.666C580.304 474.921 580.907 474.318 581.652 474.318C582.396 474.318 583 474.921 583 475.666C583 476.41 582.396 477.014 581.652 477.014C580.907 477.014 580.304 476.41 580.304 475.666Z" fill="#71869D"/>
<path d="M580.304 445.335C580.304 444.59 580.907 443.987 581.652 443.987C582.396 443.987 583 444.59 583 445.335C583 446.079 582.396 446.683 581.652 446.683C580.907 446.683 580.304 446.079 580.304 445.335Z" fill="#71869D"/>
<path d="M580.304 415.004C580.304 414.259 580.907 413.655 581.652 413.655C582.396 413.655 583 414.259 583 415.004C583 415.748 582.396 416.352 581.652 416.352C580.907 416.352 580.304 415.748 580.304 415.004Z" fill="#71869D"/>
<path d="M580.304 384.672C580.304 383.928 580.907 383.324 581.652 383.324C582.396 383.324 583 383.928 583 384.672C583 385.417 582.396 386.021 581.652 386.021C580.907 386.021 580.304 385.417 580.304 384.672Z" fill="#71869D"/>
<path d="M580.304 354.341C580.304 353.597 580.907 352.993 581.652 352.993C582.396 352.993 583 353.597 583 354.341C583 355.086 582.396 355.689 581.652 355.689C580.907 355.689 580.304 355.086 580.304 354.341Z" fill="#71869D"/>
<path d="M580.304 324.01C580.304 323.266 580.907 322.662 581.652 322.662C582.396 322.662 583 323.266 583 324.01C583 324.755 582.396 325.358 581.652 325.358C580.907 325.358 580.304 324.755 580.304 324.01Z" fill="#71869D"/>
<path d="M549.973 475.666C549.973 474.921 550.576 474.318 551.321 474.318C552.065 474.318 552.669 474.921 552.669 475.666C552.669 476.41 552.065 477.014 551.321 477.014C550.576 477.014 549.973 476.41 549.973 475.666Z" fill="#71869D"/>
<path d="M549.973 445.335C549.973 444.59 550.576 443.987 551.321 443.987C552.065 443.987 552.669 444.59 552.669 445.335C552.669 446.079 552.065 446.683 551.321 446.683C550.576 446.683 549.973 446.079 549.973 445.335Z" fill="#71869D"/>
<path d="M549.973 415.004C549.973 414.259 550.576 413.655 551.321 413.655C552.065 413.655 552.669 414.259 552.669 415.004C552.669 415.748 552.065 416.352 551.321 416.352C550.576 416.352 549.973 415.748 549.973 415.004Z" fill="#71869D"/>
<path d="M549.973 384.672C549.973 383.928 550.576 383.324 551.321 383.324C552.065 383.324 552.669 383.928 552.669 384.672C552.669 385.417 552.065 386.021 551.321 386.021C550.576 386.021 549.973 385.417 549.973 384.672Z" fill="#71869D"/>
<path d="M549.973 354.341C549.973 353.597 550.576 352.993 551.321 352.993C552.065 352.993 552.669 353.597 552.669 354.341C552.669 355.086 552.065 355.689 551.321 355.689C550.576 355.689 549.973 355.086 549.973 354.341Z" fill="#71869D"/>
<path d="M549.973 324.01C549.973 323.266 550.576 322.662 551.321 322.662C552.065 322.662 552.669 323.266 552.669 324.01C552.669 324.755 552.065 325.358 551.321 325.358C550.576 325.358 549.973 324.755 549.973 324.01Z" fill="#71869D"/>
<path d="M519.642 475.666C519.642 474.921 520.245 474.318 520.99 474.318C521.734 474.318 522.338 474.921 522.338 475.666C522.338 476.41 521.734 477.014 520.99 477.014C520.245 477.014 519.642 476.41 519.642 475.666Z" fill="#71869D"/>
<path d="M519.642 445.335C519.642 444.59 520.245 443.987 520.99 443.987C521.734 443.987 522.338 444.59 522.338 445.335C522.338 446.079 521.734 446.683 520.99 446.683C520.245 446.683 519.642 446.079 519.642 445.335Z" fill="#71869D"/>
<path d="M519.642 415.004C519.642 414.259 520.245 413.655 520.99 413.655C521.734 413.655 522.338 414.259 522.338 415.004C522.338 415.748 521.734 416.352 520.99 416.352C520.245 416.352 519.642 415.748 519.642 415.004Z" fill="#71869D"/>
<path d="M519.642 384.672C519.642 383.928 520.245 383.324 520.99 383.324C521.734 383.324 522.338 383.928 522.338 384.672C522.338 385.417 521.734 386.021 520.99 386.021C520.245 386.021 519.642 385.417 519.642 384.672Z" fill="#71869D"/>
<path d="M519.642 354.341C519.642 353.597 520.245 352.993 520.99 352.993C521.734 352.993 522.338 353.597 522.338 354.341C522.338 355.086 521.734 355.689 520.99 355.689C520.245 355.689 519.642 355.086 519.642 354.341Z" fill="#71869D"/>
<path d="M519.642 324.01C519.642 323.266 520.245 322.662 520.99 322.662C521.734 322.662 522.338 323.266 522.338 324.01C522.338 324.755 521.734 325.358 520.99 325.358C520.245 325.358 519.642 324.755 519.642 324.01Z" fill="#71869D"/>
<path d="M489.311 475.666C489.311 474.921 489.914 474.318 490.659 474.318C491.403 474.318 492.007 474.921 492.007 475.666C492.007 476.41 491.403 477.014 490.659 477.014C489.914 477.014 489.311 476.41 489.311 475.666Z" fill="#71869D"/>
<path d="M489.311 445.335C489.311 444.59 489.914 443.987 490.659 443.987C491.403 443.987 492.007 444.59 492.007 445.335C492.007 446.079 491.403 446.683 490.659 446.683C489.914 446.683 489.311 446.079 489.311 445.335Z" fill="#71869D"/>
<path d="M489.311 415.004C489.311 414.259 489.914 413.655 490.659 413.655C491.403 413.655 492.007 414.259 492.007 415.004C492.007 415.748 491.403 416.352 490.659 416.352C489.914 416.352 489.311 415.748 489.311 415.004Z" fill="#71869D"/>
<path d="M489.311 384.672C489.311 383.928 489.914 383.324 490.659 383.324C491.403 383.324 492.007 383.928 492.007 384.672C492.007 385.417 491.403 386.021 490.659 386.021C489.914 386.021 489.311 385.417 489.311 384.672Z" fill="#71869D"/>
<path d="M489.311 354.341C489.311 353.597 489.914 352.993 490.659 352.993C491.403 352.993 492.007 353.597 492.007 354.341C492.007 355.086 491.403 355.689 490.659 355.689C489.914 355.689 489.311 355.086 489.311 354.341Z" fill="#71869D"/>
<path d="M489.311 324.01C489.311 323.266 489.914 322.662 490.659 322.662C491.403 322.662 492.007 323.266 492.007 324.01C492.007 324.755 491.403 325.358 490.659 325.358C489.914 325.358 489.311 324.755 489.311 324.01Z" fill="#71869D"/>
<path d="M458.98 475.666C458.98 474.921 459.583 474.318 460.328 474.318C461.072 474.318 461.676 474.921 461.676 475.666C461.676 476.41 461.072 477.014 460.328 477.014C459.583 477.014 458.98 476.41 458.98 475.666Z" fill="#71869D"/>
<path d="M458.98 445.335C458.98 444.59 459.583 443.987 460.328 443.987C461.072 443.987 461.676 444.59 461.676 445.335C461.676 446.079 461.072 446.683 460.328 446.683C459.583 446.683 458.98 446.079 458.98 445.335Z" fill="#71869D"/>
<path d="M458.98 415.004C458.98 414.259 459.583 413.655 460.328 413.655C461.072 413.655 461.676 414.259 461.676 415.004C461.676 415.748 461.072 416.352 460.328 416.352C459.583 416.352 458.98 415.748 458.98 415.004Z" fill="#71869D"/>
<path d="M458.98 384.672C458.98 383.928 459.583 383.324 460.328 383.324C461.072 383.324 461.676 383.928 461.676 384.672C461.676 385.417 461.072 386.021 460.328 386.021C459.583 386.021 458.98 385.417 458.98 384.672Z" fill="#71869D"/>
<path d="M458.98 354.341C458.98 353.597 459.583 352.993 460.328 352.993C461.072 352.993 461.676 353.597 461.676 354.341C461.676 355.086 461.072 355.689 460.328 355.689C459.583 355.689 458.98 355.086 458.98 354.341Z" fill="#71869D"/>
<path d="M458.98 324.01C458.98 323.266 459.583 322.662 460.328 322.662C461.072 322.662 461.676 323.266 461.676 324.01C461.676 324.755 461.072 325.358 460.328 325.358C459.583 325.358 458.98 324.755 458.98 324.01Z" fill="#71869D"/>
<path d="M428.649 475.666C428.649 474.921 429.252 474.318 429.997 474.318C430.741 474.318 431.345 474.921 431.345 475.666C431.345 476.41 430.741 477.014 429.997 477.014C429.252 477.014 428.649 476.41 428.649 475.666Z" fill="#71869D"/>
<path d="M428.649 445.335C428.649 444.59 429.252 443.987 429.997 443.987C430.741 443.987 431.345 444.59 431.345 445.335C431.345 446.079 430.741 446.683 429.997 446.683C429.252 446.683 428.649 446.079 428.649 445.335Z" fill="#71869D"/>
<path d="M428.649 415.004C428.649 414.259 429.252 413.655 429.997 413.655C430.741 413.655 431.345 414.259 431.345 415.004C431.345 415.748 430.741 416.352 429.997 416.352C429.252 416.352 428.649 415.748 428.649 415.004Z" fill="#71869D"/>
<path d="M428.649 384.672C428.649 383.928 429.252 383.324 429.997 383.324C430.741 383.324 431.345 383.928 431.345 384.672C431.345 385.417 430.741 386.021 429.997 386.021C429.252 386.021 428.649 385.417 428.649 384.672Z" fill="#71869D"/>
<path d="M428.649 354.341C428.649 353.597 429.252 352.993 429.997 352.993C430.741 352.993 431.345 353.597 431.345 354.341C431.345 355.086 430.741 355.689 429.997 355.689C429.252 355.689 428.649 355.086 428.649 354.341Z" fill="#71869D"/>
<path d="M428.649 324.01C428.649 323.266 429.252 322.662 429.997 322.662C430.741 322.662 431.345 323.266 431.345 324.01C431.345 324.755 430.741 325.358 429.997 325.358C429.252 325.358 428.649 324.755 428.649 324.01Z" fill="#71869D"/>
<path d="M398.318 475.666C398.318 474.921 398.921 474.318 399.666 474.318C400.41 474.318 401.014 474.921 401.014 475.666C401.014 476.41 400.41 477.014 399.666 477.014C398.921 477.014 398.318 476.41 398.318 475.666Z" fill="#71869D"/>
<path d="M398.318 445.335C398.318 444.59 398.921 443.987 399.666 443.987C400.41 443.987 401.014 444.59 401.014 445.335C401.014 446.079 400.41 446.683 399.666 446.683C398.921 446.683 398.318 446.079 398.318 445.335Z" fill="#71869D"/>
<path d="M398.318 415.004C398.318 414.259 398.921 413.655 399.666 413.655C400.41 413.655 401.014 414.259 401.014 415.004C401.014 415.748 400.41 416.352 399.666 416.352C398.921 416.352 398.318 415.748 398.318 415.004Z" fill="#71869D"/>
<path d="M398.318 384.672C398.318 383.928 398.921 383.324 399.666 383.324C400.41 383.324 401.014 383.928 401.014 384.672C401.014 385.417 400.41 386.021 399.666 386.021C398.921 386.021 398.318 385.417 398.318 384.672Z" fill="#71869D"/>
<path d="M398.318 354.341C398.318 353.597 398.921 352.993 399.666 352.993C400.41 352.993 401.014 353.597 401.014 354.341C401.014 355.086 400.41 355.689 399.666 355.689C398.921 355.689 398.318 355.086 398.318 354.341Z" fill="#71869D"/>
<path d="M398.318 324.01C398.318 323.266 398.921 322.662 399.666 322.662C400.41 322.662 401.014 323.266 401.014 324.01C401.014 324.755 400.41 325.358 399.666 325.358C398.921 325.358 398.318 324.755 398.318 324.01Z" fill="#71869D"/>
<path d="M367.987 475.666C367.987 474.921 368.59 474.318 369.335 474.318C370.079 474.318 370.683 474.921 370.683 475.666C370.683 476.41 370.079 477.014 369.335 477.014C368.59 477.014 367.987 476.41 367.987 475.666Z" fill="#71869D"/>
<path d="M367.987 445.335C367.987 444.59 368.59 443.987 369.335 443.987C370.079 443.987 370.683 444.59 370.683 445.335C370.683 446.079 370.079 446.683 369.335 446.683C368.59 446.683 367.987 446.079 367.987 445.335Z" fill="#71869D"/>
<path d="M367.987 415.004C367.987 414.259 368.59 413.655 369.335 413.655C370.079 413.655 370.683 414.259 370.683 415.004C370.683 415.748 370.079 416.352 369.335 416.352C368.59 416.352 367.987 415.748 367.987 415.004Z" fill="#71869D"/>
<path d="M367.987 384.672C367.987 383.928 368.59 383.324 369.335 383.324C370.079 383.324 370.683 383.928 370.683 384.672C370.683 385.417 370.079 386.021 369.335 386.021C368.59 386.021 367.987 385.417 367.987 384.672Z" fill="#71869D"/>
<path d="M367.987 354.341C367.987 353.597 368.59 352.993 369.335 352.993C370.079 352.993 370.683 353.597 370.683 354.341C370.683 355.086 370.079 355.689 369.335 355.689C368.59 355.689 367.987 355.086 367.987 354.341Z" fill="#71869D"/>
<path d="M367.987 324.01C367.987 323.266 368.59 322.662 369.335 322.662C370.079 322.662 370.683 323.266 370.683 324.01C370.683 324.755 370.079 325.358 369.335 325.358C368.59 325.358 367.987 324.755 367.987 324.01Z" fill="#71869D"/>
<path d="M337.655 475.666C337.655 474.921 338.259 474.318 339.004 474.318C339.748 474.318 340.352 474.921 340.352 475.666C340.352 476.41 339.748 477.014 339.004 477.014C338.259 477.014 337.655 476.41 337.655 475.666Z" fill="#71869D"/>
<path d="M337.655 445.335C337.655 444.59 338.259 443.987 339.004 443.987C339.748 443.987 340.352 444.59 340.352 445.335C340.352 446.079 339.748 446.683 339.004 446.683C338.259 446.683 337.655 446.079 337.655 445.335Z" fill="#71869D"/>
<path d="M337.655 415.004C337.655 414.259 338.259 413.655 339.004 413.655C339.748 413.655 340.352 414.259 340.352 415.004C340.352 415.748 339.748 416.352 339.004 416.352C338.259 416.352 337.655 415.748 337.655 415.004Z" fill="#71869D"/>
<path d="M337.655 384.672C337.655 383.928 338.259 383.324 339.004 383.324C339.748 383.324 340.352 383.928 340.352 384.672C340.352 385.417 339.748 386.021 339.004 386.021C338.259 386.021 337.655 385.417 337.655 384.672Z" fill="#71869D"/>
<path d="M337.655 354.341C337.655 353.597 338.259 352.993 339.004 352.993C339.748 352.993 340.352 353.597 340.352 354.341C340.352 355.086 339.748 355.689 339.004 355.689C338.259 355.689 337.655 355.086 337.655 354.341Z" fill="#71869D"/>
<path d="M337.655 324.01C337.655 323.266 338.259 322.662 339.004 322.662C339.748 322.662 340.352 323.266 340.352 324.01C340.352 324.755 339.748 325.358 339.004 325.358C338.259 325.358 337.655 324.755 337.655 324.01Z" fill="#71869D"/>
<path d="M307.324 475.666C307.324 474.921 307.928 474.318 308.672 474.318C309.417 474.318 310.021 474.921 310.021 475.666C310.021 476.41 309.417 477.014 308.672 477.014C307.928 477.014 307.324 476.41 307.324 475.666Z" fill="#71869D"/>
<path d="M307.324 445.335C307.324 444.59 307.928 443.987 308.672 443.987C309.417 443.987 310.021 444.59 310.021 445.335C310.021 446.079 309.417 446.683 308.672 446.683C307.928 446.683 307.324 446.079 307.324 445.335Z" fill="#71869D"/>
<path d="M307.324 415.004C307.324 414.259 307.928 413.655 308.672 413.655C309.417 413.655 310.021 414.259 310.021 415.004C310.021 415.748 309.417 416.352 308.672 416.352C307.928 416.352 307.324 415.748 307.324 415.004Z" fill="#71869D"/>
<path d="M307.324 384.672C307.324 383.928 307.928 383.324 308.672 383.324C309.417 383.324 310.021 383.928 310.021 384.672C310.021 385.417 309.417 386.021 308.672 386.021C307.928 386.021 307.324 385.417 307.324 384.672Z" fill="#71869D"/>
<path d="M307.324 354.341C307.324 353.597 307.928 352.993 308.672 352.993C309.417 352.993 310.021 353.597 310.021 354.341C310.021 355.086 309.417 355.689 308.672 355.689C307.928 355.689 307.324 355.086 307.324 354.341Z" fill="#71869D"/>
<path d="M307.324 324.01C307.324 323.266 307.928 322.662 308.672 322.662C309.417 322.662 310.021 323.266 310.021 324.01C310.021 324.755 309.417 325.358 308.672 325.358C307.928 325.358 307.324 324.755 307.324 324.01Z" fill="#71869D"/>
<path d="M276.993 475.666C276.993 474.921 277.597 474.318 278.341 474.318C279.086 474.318 279.689 474.921 279.689 475.666C279.689 476.41 279.086 477.014 278.341 477.014C277.597 477.014 276.993 476.41 276.993 475.666Z" fill="#71869D"/>
<path d="M276.993 445.335C276.993 444.59 277.597 443.987 278.341 443.987C279.086 443.987 279.689 444.59 279.689 445.335C279.689 446.079 279.086 446.683 278.341 446.683C277.597 446.683 276.993 446.079 276.993 445.335Z" fill="#71869D"/>
<path d="M276.993 415.004C276.993 414.259 277.597 413.655 278.341 413.655C279.086 413.655 279.689 414.259 279.689 415.004C279.689 415.748 279.086 416.352 278.341 416.352C277.597 416.352 276.993 415.748 276.993 415.004Z" fill="#71869D"/>
<path d="M276.993 384.672C276.993 383.928 277.597 383.324 278.341 383.324C279.086 383.324 279.689 383.928 279.689 384.672C279.689 385.417 279.086 386.021 278.341 386.021C277.597 386.021 276.993 385.417 276.993 384.672Z" fill="#71869D"/>
<path d="M276.993 354.341C276.993 353.597 277.597 352.993 278.341 352.993C279.086 352.993 279.689 353.597 279.689 354.341C279.689 355.086 279.086 355.689 278.341 355.689C277.597 355.689 276.993 355.086 276.993 354.341Z" fill="#71869D"/>
<path d="M276.993 324.01C276.993 323.266 277.597 322.662 278.341 322.662C279.086 322.662 279.689 323.266 279.689 324.01C279.689 324.755 279.086 325.358 278.341 325.358C277.597 325.358 276.993 324.755 276.993 324.01Z" fill="#71869D"/>
<path d="M580.304 293.679C580.304 292.935 580.907 292.331 581.652 292.331C582.396 292.331 583 292.935 583 293.679C583 294.424 582.396 295.027 581.652 295.027C580.907 295.027 580.304 294.424 580.304 293.679Z" fill="#71869D"/>
<path d="M580.304 263.348C580.304 262.604 580.907 262 581.652 262C582.396 262 583 262.604 583 263.348C583 264.093 582.396 264.696 581.652 264.696C580.907 264.696 580.304 264.093 580.304 263.348Z" fill="#71869D"/>
<path d="M549.973 293.679C549.973 292.935 550.576 292.331 551.321 292.331C552.065 292.331 552.669 292.935 552.669 293.679C552.669 294.424 552.065 295.027 551.321 295.027C550.576 295.027 549.973 294.424 549.973 293.679Z" fill="#71869D"/>
<path d="M549.973 263.348C549.973 262.604 550.576 262 551.321 262C552.065 262 552.669 262.604 552.669 263.348C552.669 264.093 552.065 264.696 551.321 264.696C550.576 264.696 549.973 264.093 549.973 263.348Z" fill="#71869D"/>
<path d="M519.642 293.679C519.642 292.935 520.245 292.331 520.99 292.331C521.734 292.331 522.338 292.935 522.338 293.679C522.338 294.424 521.734 295.027 520.99 295.027C520.245 295.027 519.642 294.424 519.642 293.679Z" fill="#71869D"/>
<path d="M519.642 263.348C519.642 262.604 520.245 262 520.99 262C521.734 262 522.338 262.604 522.338 263.348C522.338 264.093 521.734 264.696 520.99 264.696C520.245 264.696 519.642 264.093 519.642 263.348Z" fill="#71869D"/>
<path d="M489.311 293.679C489.311 292.935 489.914 292.331 490.659 292.331C491.403 292.331 492.007 292.935 492.007 293.679C492.007 294.424 491.403 295.027 490.659 295.027C489.914 295.027 489.311 294.424 489.311 293.679Z" fill="#71869D"/>
<path d="M489.311 263.348C489.311 262.604 489.914 262 490.659 262C491.403 262 492.007 262.604 492.007 263.348C492.007 264.093 491.403 264.696 490.659 264.696C489.914 264.696 489.311 264.093 489.311 263.348Z" fill="#71869D"/>
<path d="M458.98 293.679C458.98 292.935 459.583 292.331 460.328 292.331C461.072 292.331 461.676 292.935 461.676 293.679C461.676 294.424 461.072 295.027 460.328 295.027C459.583 295.027 458.98 294.424 458.98 293.679Z" fill="#71869D"/>
<path d="M458.98 263.348C458.98 262.604 459.583 262 460.328 262C461.072 262 461.676 262.604 461.676 263.348C461.676 264.093 461.072 264.696 460.328 264.696C459.583 264.696 458.98 264.093 458.98 263.348Z" fill="#71869D"/>
<path d="M428.649 293.679C428.649 292.935 429.252 292.331 429.997 292.331C430.741 292.331 431.345 292.935 431.345 293.679C431.345 294.424 430.741 295.027 429.997 295.027C429.252 295.027 428.649 294.424 428.649 293.679Z" fill="#71869D"/>
<path d="M428.649 263.348C428.649 262.604 429.252 262 429.997 262C430.741 262 431.345 262.604 431.345 263.348C431.345 264.093 430.741 264.696 429.997 264.696C429.252 264.696 428.649 264.093 428.649 263.348Z" fill="#71869D"/>
<path d="M398.318 293.679C398.318 292.935 398.921 292.331 399.666 292.331C400.41 292.331 401.014 292.935 401.014 293.679C401.014 294.424 400.41 295.027 399.666 295.027C398.921 295.027 398.318 294.424 398.318 293.679Z" fill="#71869D"/>
<path d="M398.318 263.348C398.318 262.604 398.921 262 399.666 262C400.41 262 401.014 262.604 401.014 263.348C401.014 264.093 400.41 264.696 399.666 264.696C398.921 264.696 398.318 264.093 398.318 263.348Z" fill="#71869D"/>
<path d="M367.987 293.679C367.987 292.935 368.59 292.331 369.335 292.331C370.079 292.331 370.683 292.935 370.683 293.679C370.683 294.424 370.079 295.027 369.335 295.027C368.59 295.027 367.987 294.424 367.987 293.679Z" fill="#71869D"/>
<path d="M367.987 263.348C367.987 262.604 368.59 262 369.335 262C370.079 262 370.683 262.604 370.683 263.348C370.683 264.093 370.079 264.696 369.335 264.696C368.59 264.696 367.987 264.093 367.987 263.348Z" fill="#71869D"/>
<path d="M337.655 293.679C337.655 292.935 338.259 292.331 339.004 292.331C339.748 292.331 340.352 292.935 340.352 293.679C340.352 294.424 339.748 295.027 339.004 295.027C338.259 295.027 337.655 294.424 337.655 293.679Z" fill="#71869D"/>
<path d="M337.655 263.348C337.655 262.604 338.259 262 339.004 262C339.748 262 340.352 262.604 340.352 263.348C340.352 264.093 339.748 264.696 339.004 264.696C338.259 264.696 337.655 264.093 337.655 263.348Z" fill="#71869D"/>
<path d="M307.324 293.679C307.324 292.935 307.928 292.331 308.672 292.331C309.417 292.331 310.021 292.935 310.021 293.679C310.021 294.424 309.417 295.027 308.672 295.027C307.928 295.027 307.324 294.424 307.324 293.679Z" fill="#71869D"/>
<path d="M307.324 263.348C307.324 262.604 307.928 262 308.672 262C309.417 262 310.021 262.604 310.021 263.348C310.021 264.093 309.417 264.696 308.672 264.696C307.928 264.696 307.324 264.093 307.324 263.348Z" fill="#71869D"/>
<path d="M276.993 293.679C276.993 292.935 277.597 292.331 278.341 292.331C279.086 292.331 279.689 292.935 279.689 293.679C279.689 294.424 279.086 295.027 278.341 295.027C277.597 295.027 276.993 294.424 276.993 293.679Z" fill="#71869D"/>
<path d="M276.993 263.348C276.993 262.604 277.597 262 278.341 262C279.086 262 279.689 262.604 279.689 263.348C279.689 264.093 279.086 264.696 278.341 264.696C277.597 264.696 276.993 264.093 276.993 263.348Z" fill="#71869D"/>
<path d="M246.662 475.666C246.662 474.921 247.266 474.318 248.01 474.318C248.755 474.318 249.358 474.921 249.358 475.666C249.358 476.41 248.755 477.014 248.01 477.014C247.266 477.014 246.662 476.41 246.662 475.666Z" fill="#71869D"/>
<path d="M246.662 445.335C246.662 444.59 247.266 443.987 248.01 443.987C248.755 443.987 249.358 444.59 249.358 445.335C249.358 446.079 248.755 446.683 248.01 446.683C247.266 446.683 246.662 446.079 246.662 445.335Z" fill="#71869D"/>
<path d="M246.662 415.004C246.662 414.259 247.266 413.655 248.01 413.655C248.755 413.655 249.358 414.259 249.358 415.004C249.358 415.748 248.755 416.352 248.01 416.352C247.266 416.352 246.662 415.748 246.662 415.004Z" fill="#71869D"/>
<path d="M246.662 384.672C246.662 383.928 247.266 383.324 248.01 383.324C248.755 383.324 249.358 383.928 249.358 384.672C249.358 385.417 248.755 386.021 248.01 386.021C247.266 386.021 246.662 385.417 246.662 384.672Z" fill="#71869D"/>
<path d="M246.662 354.341C246.662 353.597 247.266 352.993 248.01 352.993C248.755 352.993 249.358 353.597 249.358 354.341C249.358 355.086 248.755 355.689 248.01 355.689C247.266 355.689 246.662 355.086 246.662 354.341Z" fill="#71869D"/>
<path d="M246.662 324.01C246.662 323.266 247.266 322.662 248.01 322.662C248.755 322.662 249.358 323.266 249.358 324.01C249.358 324.755 248.755 325.358 248.01 325.358C247.266 325.358 246.662 324.755 246.662 324.01Z" fill="#71869D"/>
<path d="M216.331 475.666C216.331 474.921 216.935 474.318 217.679 474.318C218.424 474.318 219.027 474.921 219.027 475.666C219.027 476.41 218.424 477.014 217.679 477.014C216.934 477.014 216.331 476.41 216.331 475.666Z" fill="#71869D"/>
<path d="M216.331 445.335C216.331 444.59 216.935 443.987 217.679 443.987C218.424 443.987 219.027 444.59 219.027 445.335C219.027 446.079 218.424 446.683 217.679 446.683C216.934 446.683 216.331 446.079 216.331 445.335Z" fill="#71869D"/>
<path d="M216.331 415.004C216.331 414.259 216.935 413.655 217.679 413.655C218.424 413.655 219.027 414.259 219.027 415.004C219.027 415.748 218.424 416.352 217.679 416.352C216.934 416.352 216.331 415.748 216.331 415.004Z" fill="#71869D"/>
<path d="M216.331 384.672C216.331 383.928 216.935 383.324 217.679 383.324C218.424 383.324 219.027 383.928 219.027 384.672C219.027 385.417 218.424 386.021 217.679 386.021C216.934 386.021 216.331 385.417 216.331 384.672Z" fill="#71869D"/>
<path d="M216.331 354.341C216.331 353.597 216.935 352.993 217.679 352.993C218.424 352.993 219.027 353.597 219.027 354.341C219.027 355.086 218.424 355.689 217.679 355.689C216.934 355.689 216.331 355.086 216.331 354.341Z" fill="#71869D"/>
<path d="M216.331 324.01C216.331 323.266 216.935 322.662 217.679 322.662C218.424 322.662 219.027 323.266 219.027 324.01C219.027 324.755 218.424 325.358 217.679 325.358C216.934 325.358 216.331 324.755 216.331 324.01Z" fill="#71869D"/>
<path d="M186 475.666C186 474.921 186.603 474.318 187.348 474.318C188.093 474.318 188.696 474.921 188.696 475.666C188.696 476.41 188.093 477.014 187.348 477.014C186.603 477.014 186 476.41 186 475.666Z" fill="#71869D"/>
<path d="M186 445.335C186 444.59 186.603 443.987 187.348 443.987C188.093 443.987 188.696 444.59 188.696 445.335C188.696 446.079 188.093 446.683 187.348 446.683C186.603 446.683 186 446.079 186 445.335Z" fill="#71869D"/>
<path d="M186 415.004C186 414.259 186.603 413.655 187.348 413.655C188.093 413.655 188.696 414.259 188.696 415.004C188.696 415.748 188.093 416.352 187.348 416.352C186.603 416.352 186 415.748 186 415.004Z" fill="#71869D"/>
<path d="M186 384.672C186 383.928 186.603 383.324 187.348 383.324C188.093 383.324 188.696 383.928 188.696 384.672C188.696 385.417 188.093 386.021 187.348 386.021C186.603 386.021 186 385.417 186 384.672Z" fill="#71869D"/>
<path d="M186 354.341C186 353.597 186.603 352.993 187.348 352.993C188.093 352.993 188.696 353.597 188.696 354.341C188.696 355.086 188.093 355.689 187.348 355.689C186.603 355.689 186 355.086 186 354.341Z" fill="#71869D"/>
<path d="M186 324.01C186 323.266 186.603 322.662 187.348 322.662C188.093 322.662 188.696 323.266 188.696 324.01C188.696 324.755 188.093 325.358 187.348 325.358C186.603 325.358 186 324.755 186 324.01Z" fill="#71869D"/>
<path d="M246.662 293.679C246.662 292.935 247.266 292.331 248.01 292.331C248.755 292.331 249.358 292.935 249.358 293.679C249.358 294.424 248.755 295.027 248.01 295.027C247.266 295.027 246.662 294.424 246.662 293.679Z" fill="#71869D"/>
<path d="M246.662 263.348C246.662 262.604 247.266 262 248.01 262C248.755 262 249.358 262.604 249.358 263.348C249.358 264.093 248.755 264.696 248.01 264.696C247.266 264.696 246.662 264.093 246.662 263.348Z" fill="#71869D"/>
<path d="M216.331 293.679C216.331 292.935 216.935 292.331 217.679 292.331C218.424 292.331 219.027 292.935 219.027 293.679C219.027 294.424 218.424 295.027 217.679 295.027C216.934 295.027 216.331 294.424 216.331 293.679Z" fill="#71869D"/>
<path d="M216.331 263.348C216.331 262.604 216.935 262 217.679 262C218.424 262 219.027 262.604 219.027 263.348C219.027 264.093 218.424 264.696 217.679 264.696C216.934 264.696 216.331 264.093 216.331 263.348Z" fill="#71869D"/>
<path d="M186 293.679C186 292.935 186.603 292.331 187.348 292.331C188.093 292.331 188.696 292.935 188.696 293.679C188.696 294.424 188.093 295.027 187.348 295.027C186.603 295.027 186 294.424 186 293.679Z" fill="#71869D"/>
<path d="M186 263.348C186 262.604 186.603 262 187.348 262C188.093 262 188.696 262.604 188.696 263.348C188.696 264.093 188.093 264.696 187.348 264.696C186.603 264.696 186 264.093 186 263.348Z" fill="#71869D"/>
</g>
<g filter="url(#filter0_d_159_491)">
<path d="M528.654 151.306C530.677 137.991 520.371 126 506.904 126H42.5605C29.1054 126 18.8024 137.971 20.8057 151.276L67.1807 459.276C68.8014 470.04 78.0502 478 88.9355 478H460.091C470.965 478 480.207 470.056 481.841 459.306L528.654 151.306Z" fill="url(#paint0_linear_159_491)"/>
</g>
<circle cx="10" cy="10" r="10" transform="matrix(-1 0 0 1 242 195)" fill="#BDCDFF"/>
<path d="M307.5 207.999C385 160 454.5 148 523 186L482 457C478 489 452.5 476 380 477.694L93 478.114C93 478.114 81 426 149 352.5C217 279 68 301 93 256C118 217 230 255.999 307.5 207.999Z" fill="#BDCDFF"/>
<circle cx="5" cy="5" r="5" transform="matrix(-1 0 0 1 270 144)" fill="#BDCDFF"/>
<circle cx="5" cy="5" r="5" transform="matrix(-1 0 0 1 86 387)" fill="#BDCDFF"/>
<circle cx="10" cy="10" r="10" transform="matrix(-1 0 0 1 133 322)" fill="#BDCDFF"/>
<circle cx="6" cy="6" r="6" transform="matrix(-1 0 0 1 69 299)" fill="#BDCDFF"/>
<ellipse cx="151" cy="16.5" rx="151" ry="16.5" transform="matrix(-1 0 0 1 471 408)" fill="#A9BCF7"/>
<g filter="url(#filter1_d_159_491)">
<circle cx="100.5" cy="100.5" r="100.5" transform="matrix(-1 0 0 1 209 82)" fill="white"/>
</g>
<g filter="url(#filter2_d_159_491)">
<path d="M61.1475 136.239H72.588V190.697C72.588 193.578 76.1573 195.911 71.1227 195.911H47.6938C47.6938 195.911 48.9474 195.88 51.4076 194.623C53.8678 193.366 53.9182 191.181 53.9182 189.803V141.517C53.9182 139.234 57.1547 136.239 61.1441 136.239H61.1475Z" fill="#50777E"/>
<path d="M66.8311 136.239H164.23C167.551 136.239 170.243 138.932 170.243 142.253V190.559C170.243 193.517 167.846 195.914 164.889 195.914H53.3773C53.3773 195.914 54.631 195.884 57.0912 194.627C59.5513 193.369 59.6017 191.185 59.6017 189.806V141.517C59.6017 139.234 62.8383 136.239 66.8277 136.239H66.8311Z" fill="#427273"/>
<path d="M72.8572 234.476H82.5197V144.824C82.5197 140.085 85.5345 136.239 81.2829 136.239H61.4973C61.4973 136.239 62.556 136.29 64.633 138.357C66.7101 140.424 66.7538 144.021 66.7538 146.293V227.669C66.7538 231.427 69.4862 234.476 72.8572 234.476Z" fill="#E9F0F8"/>
<path d="M80.1637 234.476H157.122C164.368 234.476 170.243 228.6 170.243 221.353V142.168C170.243 138.894 167.588 136.242 164.317 136.242H68.8039C68.8039 136.242 69.8626 136.293 71.9396 138.36C74.0167 140.427 74.0604 144.024 74.0604 146.296V227.672C74.0604 231.43 76.7928 234.479 80.1637 234.479V234.476Z" fill="#D5DDE0"/>
<path d="M85.746 118.38H98.4301V223.958C98.4301 229.541 102.389 234.472 96.8068 234.472H72.857C72.857 234.472 73.0989 234.765 75.2062 231.83C77.3135 228.896 77.7336 224.902 77.7336 222.227V126.393C77.7303 121.97 81.3197 118.38 85.746 118.38Z" fill="#50777E"/>
<path d="M94.6728 118.38H159.283C165.151 118.38 170.243 123.14 170.243 129.009V227.118C170.243 230.956 166.798 234.476 162.96 234.476H79.7604C79.7604 234.476 81.1518 234.012 83.8775 231.578C86.6032 229.141 86.6604 224.906 86.6604 222.23V126.393C86.6604 121.97 90.2498 118.38 94.6728 118.38Z" fill="#427273"/>
<path d="M84.6304 118.38C84.6304 118.38 87.2922 118.787 90.0212 121.22C92.7503 123.657 93.1536 127.543 93.1536 130.215V243.404H170.239V128.488C170.243 122.911 165.332 118.38 159.757 118.38H84.6304Z" fill="#E9F0F8"/>
<path d="M147.54 166.277C140.368 166.277 134.553 160.462 134.553 153.288C134.553 146.115 140.368 140.3 147.54 140.3C154.712 140.3 160.526 146.115 160.526 153.288C160.526 160.462 154.712 166.277 147.54 166.277Z" fill="#243F6D"/>
<path d="M145.917 145.17H149.977V161.405H145.917V145.17Z" fill="white"/>
<path d="M139.83 151.262H156.063V155.322H139.83V151.262Z" fill="white"/>
<path d="M102.084 145.983H128.87V148.42H102.084V145.983Z" fill="#BEBEBE"/>
<path d="M102.084 152.478H122.377V154.915H102.084V152.478Z" fill="#BEBEBE"/>
<path d="M102.897 171.962H114.26V174.399H102.897V171.962Z" fill="#BEBEBE"/>
<path d="M102.897 177.645H114.26V180.082H102.897V177.645Z" fill="#BEBEBE"/>
<path d="M102.897 183.329H114.26V185.766H102.897V183.329Z" fill="#BEBEBE"/>
<path d="M102.897 197.13H114.26V199.567H102.897V197.13Z" fill="#BEBEBE"/>
<path d="M102.897 202.812H114.26V205.249H102.897V202.812Z" fill="#BEBEBE"/>
<path d="M137.8 197.13H160.53V199.567H137.8V197.13Z" fill="#BEBEBE"/>
<path d="M136.177 202.812H160.53V205.249H136.177V202.812Z" fill="#BEBEBE"/>
<path d="M123.919 214.989H101.596V225.544H123.919V214.989Z" fill="#BEBEBE"/>
<path d="M133.743 171.962H160.53V174.399H133.743V171.962Z" fill="#BEBEBE"/>
<path d="M143.483 177.645H160.53V180.082H143.483V177.645Z" fill="#BEBEBE"/>
<path d="M140.237 183.329H160.53V185.766H140.237V183.329Z" fill="#BEBEBE"/>
<path d="M136.247 224.246V225.345H135.625V224.246C134.671 224.195 133.767 223.866 133.259 223.399L133.619 222.639C134.076 223.059 134.836 223.369 135.625 223.419V221.16C134.553 220.898 133.424 220.555 133.424 219.231C133.424 218.266 134.116 217.429 135.625 217.305V216.195H136.247V217.294C136.976 217.325 137.706 217.537 138.223 217.889L137.901 218.669C137.376 218.337 136.792 218.152 136.247 218.125V220.394C137.336 220.666 138.506 220.989 138.506 222.323C138.506 223.288 137.786 224.125 136.247 224.249V224.246ZM135.625 220.236V218.131C134.758 218.239 134.378 218.676 134.378 219.194C134.378 219.799 134.923 220.051 135.625 220.236ZM137.555 222.377C137.555 221.755 136.97 221.51 136.25 221.315V223.409C137.155 223.321 137.555 222.901 137.555 222.377Z" fill="#243F6D"/>
<path d="M141.389 217.361V224.178H140.425V218.208H138.885V217.361H141.389Z" fill="#243F6D"/>
<path d="M147.661 222.135C147.661 223.311 146.824 224.256 145.08 224.256C144.115 224.256 143.161 223.943 142.579 223.429L143.026 222.659C143.483 223.086 144.243 223.388 145.07 223.388C146.101 223.388 146.686 222.911 146.686 222.171C146.686 221.432 146.199 220.924 144.623 220.924H143.073L143.433 217.361H147.278V218.208H144.249L144.065 220.077H144.824C146.858 220.077 147.657 220.924 147.657 222.131L147.661 222.135Z" fill="#243F6D"/>
<path d="M148.471 220.771C148.471 218.552 149.66 217.285 151.257 217.285C152.853 217.285 154.033 218.552 154.033 220.771C154.033 222.989 152.847 224.257 151.257 224.257C149.667 224.257 148.471 222.989 148.471 220.771ZM153.055 220.771C153.055 219.026 152.316 218.152 151.254 218.152C150.191 218.152 149.442 219.03 149.442 220.771C149.442 222.512 150.181 223.389 151.254 223.389C152.326 223.389 153.055 222.512 153.055 220.771Z" fill="#243F6D"/>
<path d="M154.967 220.771C154.967 218.552 156.157 217.285 157.753 217.285C159.35 217.285 160.53 218.552 160.53 220.771C160.53 222.989 159.343 224.257 157.753 224.257C156.164 224.257 154.967 222.989 154.967 220.771ZM159.552 220.771C159.552 219.026 158.812 218.152 157.75 218.152C156.688 218.152 155.939 219.03 155.939 220.771C155.939 222.512 156.678 223.389 157.75 223.389C158.822 223.389 159.552 222.512 159.552 220.771Z" fill="#243F6D"/>
<path d="M170.243 240.97V243.403L169.456 246.65L164.939 243.403L162.546 246.65L160.153 243.403L157.76 246.65L155.367 243.403L152.974 246.65L150.581 243.403L148.188 246.65L145.795 243.403L143.403 246.65L141.01 243.403L138.617 246.65L136.224 243.403L133.831 246.65L131.438 243.403L129.048 246.65L126.655 243.403L124.262 246.65L121.869 243.403L119.476 246.65L117.083 243.403L114.69 246.65L112.297 243.403L109.904 246.65L107.511 243.403L105.118 246.65L102.725 243.403L100.333 246.65L97.9396 243.403L93.967 246.65L93.1536 243.403V240.97H170.243Z" fill="#D5DDE0"/>
</g>
<circle cx="7" cy="7" r="7" transform="matrix(-1 0 0 1 352 157)" fill="#BDCDFF"/>
<path d="M450.399 343.536H184.688V347.45H450.399V343.536Z" fill="#DCE9FF"/>
<path d="M398.647 346.45H218.609V350.798H398.647V346.45Z" fill="#DCE9FF"/>
<path d="M223.489 347.516L209.428 423.009L204.604 421.022L218.661 345.533L223.489 347.516Z" fill="#DCE9FF"/>
<path d="M206.947 427.992C210.309 427.992 213.035 425.266 213.035 421.904C213.035 418.541 210.309 415.815 206.947 415.815C203.584 415.815 200.858 418.541 200.858 421.904C200.858 425.266 203.584 427.992 206.947 427.992Z" fill="#89A2E0"/>
<path d="M393.973 347.516L408.034 423.009L412.858 421.022L398.797 345.533L393.973 347.516Z" fill="#DCE9FF"/>
<path d="M410.514 427.992C413.877 427.992 416.603 425.266 416.603 421.904C416.603 418.541 413.877 415.815 410.514 415.815C407.152 415.815 404.426 418.541 404.426 421.904C404.426 425.266 407.152 427.992 410.514 427.992Z" fill="#89A2E0"/>
<path d="M186.512 344.561C186.512 344.561 179.388 337.447 189.134 335.273C198.88 333.099 390.65 330.491 394.634 335.273C398.618 340.055 396.16 343.535 396.16 343.535L186.512 344.561Z" fill="#89A2E0"/>
<path d="M396.416 339.878C396.416 339.878 387.464 335.278 393.491 327.45C399.519 319.621 434.741 296.575 442.136 297.443C449.53 298.311 450.832 308.304 450.832 308.304L396.416 339.878Z" fill="#89A2E0"/>
<path d="M453.458 306.687L389.433 343.652L391.672 347.531L455.698 310.566L453.458 306.687Z" fill="#DCE9FF"/>
<path d="M265.994 405.448C265.933 405.607 265.873 405.77 265.817 405.933C267.109 407.897 269.74 409.6 272.409 409.941C273.328 410.057 274.172 410.001 274.928 409.81C277.41 409.19 278.968 407.118 279.248 404.902C279.416 403.587 278.893 401.184 277.895 398.917C276.715 396.225 274.867 393.715 272.726 393.444C269.969 393.095 267.463 396.561 266.087 399.654C266.106 399.766 266.129 399.878 266.152 399.99C266.055 400.027 265.971 400.064 265.887 400.111C265.476 401.1 265.191 402.028 265.056 402.756C265.294 403.671 265.747 404.86 265.989 405.453L265.994 405.448Z" fill="#302824"/>
<path d="M259.379 354.065C259.379 354.065 262.192 371.984 263.083 380.125C263.624 385.15 264.553 391.187 265.85 398.199C265.92 398.684 266.004 399.164 266.092 399.654C266.111 399.766 266.134 399.878 266.158 399.99C266.181 400.135 266.214 400.275 266.242 400.424C266.466 400.503 266.722 400.601 266.951 400.685C267.282 400.783 267.585 400.881 267.916 400.956C269.176 401.259 270.422 401.371 271.639 401.273C272.47 401.212 273.3 401.058 274.112 400.806C274.779 400.606 275.437 400.34 276.09 400.004C276.701 399.701 277.303 399.332 277.9 398.917C278.096 398.782 278.287 398.637 278.483 398.488C278.992 398.073 279.519 397.62 280.051 397.116C280.289 396.878 280.531 396.64 280.797 396.379C280.181 391.532 279.673 386.89 279.258 382.421L276.934 353.174C276.636 348.411 272.586 344.735 267.795 344.94C262.948 345.145 259.197 349.223 259.384 354.065H259.379Z" fill="#193742"/>
<path d="M263.904 419.934C270.888 421.66 274.382 412.978 274.928 409.81C274.942 409.712 274.956 409.619 274.97 409.526C275.264 407.221 274.181 404.721 271.727 403.55C271.107 403.251 270.402 403.041 269.6 402.938C267.169 402.631 266.572 403.918 265.994 405.448C265.933 405.607 265.872 405.77 265.816 405.934C265.513 406.731 265.163 407.562 264.529 408.234C258.991 414.074 258.753 418.66 263.904 419.934Z" fill="#423933"/>
<path d="M264.915 401.739C264.887 401.958 264.948 402.327 265.06 402.751C265.298 403.665 265.751 404.855 265.993 405.448C266.082 405.676 266.142 405.821 266.142 405.821C266.142 405.821 270.798 405.158 271.055 405.485C271.055 405.485 271.498 404.599 271.727 403.549C271.899 402.784 271.955 401.935 271.638 401.268C271.419 400.801 271.013 400.428 270.341 400.246C268.214 399.663 266.931 399.691 266.156 399.989C266.058 400.027 265.974 400.064 265.891 400.111C265.093 400.535 264.971 401.291 264.915 401.739Z" fill="#423933"/>
<path d="M273.374 414.154C273.412 414.061 274.573 410.781 277.009 408.813C278.711 407.436 277.167 402.715 276.085 400C275.432 400.331 274.774 400.602 274.107 400.802C273.421 402.039 272.39 403.359 270.944 403.993C267.818 405.365 273.37 414.15 273.37 414.15L273.374 414.154Z" fill="#423933"/>
<path d="M307.376 405.448C307.437 405.607 307.497 405.77 307.553 405.933C306.261 407.897 303.63 409.6 300.961 409.941C300.042 410.057 299.198 410.001 298.442 409.81C295.96 409.19 294.402 407.118 294.122 404.902C293.954 403.587 294.476 401.184 295.475 398.917C296.655 396.225 298.503 393.715 300.644 393.444C303.401 393.095 305.906 396.561 307.283 399.654C307.264 399.766 307.241 399.878 307.217 399.99C307.315 400.027 307.399 400.064 307.483 400.111C307.894 401.1 308.178 402.028 308.314 402.756C308.076 403.671 307.623 404.86 307.381 405.453L307.376 405.448Z" fill="#302824"/>
<path d="M313.991 354.065C313.991 354.065 311.178 371.984 310.287 380.125C309.746 385.15 308.817 391.187 307.52 398.199C307.45 398.684 307.366 399.164 307.278 399.654C307.259 399.766 307.236 399.878 307.212 399.99C307.189 400.135 307.156 400.275 307.128 400.424C306.904 400.503 306.648 400.601 306.419 400.685C306.088 400.783 305.785 400.881 305.454 400.956C304.194 401.259 302.948 401.371 301.731 401.273C300.9 401.212 300.07 401.058 299.258 400.806C298.591 400.606 297.933 400.34 297.28 400.004C296.669 399.701 296.067 399.332 295.47 398.917C295.274 398.782 295.083 398.637 294.887 398.488C294.378 398.073 293.851 397.62 293.319 397.116C293.081 396.878 292.839 396.64 292.573 396.379C293.189 391.532 293.697 386.89 294.112 382.421L296.436 353.174C296.734 348.411 300.784 344.735 305.575 344.94C310.422 345.145 314.173 349.223 313.986 354.065H313.991Z" fill="#193742"/>
<path d="M309.466 419.934C302.482 421.66 298.987 412.978 298.442 409.81C298.428 409.712 298.414 409.619 298.4 409.526C298.106 407.221 299.188 404.721 301.642 403.55C302.262 403.251 302.967 403.041 303.769 402.938C306.2 402.631 306.797 403.918 307.376 405.448C307.436 405.607 307.497 405.77 307.553 405.934C307.856 406.731 308.206 407.562 308.84 408.234C314.378 414.074 314.616 418.66 309.466 419.934Z" fill="#423933"/>
<path d="M308.453 401.739C308.481 401.958 308.42 402.327 308.308 402.751C308.07 403.665 307.618 404.855 307.375 405.448C307.286 405.676 307.226 405.821 307.226 405.821C307.226 405.821 302.57 405.158 302.313 405.485C302.313 405.485 301.87 404.599 301.642 403.549C301.469 402.784 301.413 401.935 301.73 401.268C301.949 400.801 302.355 400.428 303.027 400.246C305.154 399.663 306.437 399.691 307.212 399.989C307.31 400.027 307.394 400.064 307.478 400.111C308.276 400.535 308.397 401.291 308.453 401.739Z" fill="#423933"/>
<path d="M299.996 414.154C299.959 414.061 298.797 410.781 296.362 408.813C294.659 407.436 296.203 402.715 297.286 400C297.939 400.331 298.596 400.602 299.264 400.802C299.949 402.039 300.98 403.359 302.427 403.993C305.552 405.365 300.001 414.15 300.001 414.15L299.996 414.154Z" fill="#423933"/>
<path d="M327.068 283.835L325.902 280.383C325.902 280.383 316.361 251.64 314.197 250.418C312.942 249.713 310.814 248.953 308.785 248.64C308.664 248.612 308.542 248.603 308.421 248.589C308.342 248.58 308.267 248.57 308.188 248.561C308.085 248.552 307.987 248.538 307.88 248.533C306.737 248.44 305.678 248.519 304.889 248.878C302.524 249.951 300.933 254.239 301.344 257.453C301.75 260.667 319.944 289.419 320.126 289.835C320.178 289.975 320.238 290.11 320.294 290.245C321.031 291.827 322.547 292.858 324.199 292.732C326.415 292.564 328.062 290.399 327.871 287.894C327.829 287.339 327.339 284.306 327.073 283.84L327.068 283.835Z" fill="#9288A3"/>
<path d="M276.889 242.291C283.313 240.575 289.868 240.425 296.605 242.291L294.118 246.047H279.693L276.894 242.291H276.889Z" fill="#D8CECE"/>
<path d="M246.027 283.835L247.194 280.383C247.194 280.383 256.734 251.64 258.899 250.418C260.154 249.713 262.281 248.953 264.311 248.64C264.432 248.612 264.553 248.603 264.675 248.589C264.754 248.58 264.829 248.57 264.908 248.561C265.01 248.552 265.108 248.538 265.216 248.533C266.359 248.44 267.418 248.519 268.206 248.878C270.571 249.951 272.162 254.239 271.752 257.453C271.346 260.667 253.151 289.419 252.969 289.835C252.918 289.975 252.857 290.11 252.801 290.245C252.064 291.827 250.548 292.858 248.897 292.732C246.681 292.564 245.034 290.399 245.225 287.894C245.267 287.339 245.757 284.306 246.023 283.84L246.027 283.835Z" fill="#9288A3"/>
<path d="M266.731 310.203C266.731 310.203 254.788 338.647 286.326 338.647C317.863 338.647 307.291 309.862 307.291 309.862L266.727 310.203H266.731Z" fill="#193742"/>
<path d="M311.463 328.664C309.657 323.033 309.494 313.739 299.73 315.204C294.117 316.049 291.355 338.279 291.355 338.279C291.355 338.279 297.91 360.574 308.402 359.263C318.895 357.952 313.889 336.235 311.463 328.664Z" fill="#1D4151"/>
<path d="M261.909 328.664C263.714 323.033 263.878 313.739 273.642 315.204C279.254 316.049 282.016 338.279 282.016 338.279C282.016 338.279 275.462 360.574 264.969 359.263C254.477 357.952 259.483 336.235 261.909 328.664Z" fill="#1D4151"/>
<path d="M286.742 316.859C300.421 316.859 309.289 313.719 310.087 313.299C310.036 312.73 308.407 300.516 307.904 296.252C307.395 291.988 312.853 254.139 308.776 249.021L286.742 246.077L264.708 249.021C260.63 254.134 266.089 291.988 265.58 296.252C265.072 300.516 263.448 312.734 263.397 313.299C264.195 313.724 273.063 316.859 286.742 316.859Z" fill="#B0A9BF"/>
<path d="M293.977 246.168C293.977 246.168 293.692 247.012 293.072 248.081C293.072 248.09 293.072 248.095 293.058 248.099C292.741 248.659 292.33 249.27 291.826 249.863L286.937 252.503C286.895 252.503 286.853 252.513 286.811 252.513C286.76 252.513 286.708 252.513 286.657 252.513H286.545L281.031 249.536C280.728 249.154 280.471 248.771 280.242 248.407C279.491 247.185 279.146 246.163 279.146 246.163L279.272 245.482L279.519 244.153L279.995 241.577L281.119 235.55H292.003L293.109 241.493L293.65 244.386L293.958 246.037L293.982 246.159L293.977 246.168Z" fill="#E5AB76"/>
<path d="M296.599 242.292L298.474 246.421L294.406 250.741L291.882 245.735C291.882 245.735 296.296 242.348 296.594 242.292H296.599Z" fill="white"/>
<path d="M276.888 242.292L275.013 246.421L279.081 250.741L281.586 245.735C281.586 245.735 277.191 242.348 276.893 242.292H276.888Z" fill="white"/>
<path d="M265.417 321.718C265.231 321.573 265.063 321.401 264.89 321.233C264.764 321.125 264.666 320.995 264.55 320.897C263.066 319.301 261.918 317.034 261.088 314.156C260.729 312.929 260.425 311.604 260.188 310.139C260.043 309.989 259.912 309.831 259.805 309.654C259.189 308.702 259.147 307.428 259.8 306.388C260.691 304.96 262.558 304.517 263.962 305.399C264.092 305.478 264.218 305.567 264.326 305.674C264.41 305.735 264.48 305.809 264.55 305.879L269.849 310.573L272.187 314.328C272.289 314.669 272.341 314.981 272.369 315.271C272.369 315.616 272.369 315.919 272.317 316.194C272.21 316.717 271.935 317.155 271.51 317.482L272.168 320.272C271.977 320.771 271.743 321.149 271.459 321.401C271.142 321.662 270.792 321.783 270.372 321.769C270.129 322.114 269.849 322.301 269.523 322.376C269.201 322.45 268.86 322.399 268.468 322.184C268.324 322.371 268.156 322.483 268.025 322.558C267.699 322.684 267.358 322.539 267.032 322.119C266.738 322.25 266.444 322.278 266.182 322.236C265.898 322.152 265.651 321.998 265.422 321.732L265.417 321.718Z" fill="#FCBF81"/>
<path d="M259.767 311.104C254.043 304.624 250.166 297.532 246.061 291.468C245.109 290.082 245.123 288.505 245.454 287.442C245.473 287.386 245.487 287.33 245.501 287.278C245.533 287.185 245.566 287.082 245.603 286.989C245.631 286.928 245.645 286.872 245.669 286.821C245.72 286.709 245.776 286.602 245.846 286.494C245.865 286.466 245.874 286.434 245.893 286.406C247.068 284.526 249.755 284.083 251.878 285.412C251.897 285.426 251.916 285.445 251.944 285.463C252.088 285.552 252.228 285.664 252.363 285.767C252.415 285.809 252.466 285.851 252.508 285.888C252.62 285.986 252.727 286.084 252.825 286.191C252.863 286.224 252.9 286.257 252.928 286.285C253.031 286.397 253.119 286.508 253.212 286.625C257.201 291.575 261.358 298.027 265.669 305.986C265.753 306.047 265.375 307.773 264.619 308.981C263.723 310.413 259.874 311.286 259.767 311.104Z" fill="#9288A3"/>
<path d="M307.675 321.718C307.861 321.573 308.029 321.401 308.202 321.233C308.328 321.125 308.426 320.995 308.543 320.897C310.026 319.301 311.174 317.034 312.004 314.156C312.363 312.929 312.667 311.604 312.905 310.139C313.049 309.989 313.18 309.831 313.287 309.654C313.903 308.702 313.945 307.428 313.292 306.388C312.401 304.96 310.535 304.517 309.13 305.399C309 305.478 308.874 305.567 308.767 305.674C308.683 305.735 308.613 305.809 308.543 305.879L303.243 310.573L300.906 314.328C300.803 314.669 300.752 314.981 300.724 315.271C300.724 315.616 300.724 315.919 300.775 316.194C300.882 316.717 301.158 317.155 301.582 317.482L300.924 320.272C301.116 320.771 301.349 321.149 301.633 321.401C301.951 321.662 302.3 321.783 302.72 321.769C302.963 322.114 303.243 322.301 303.569 322.376C303.891 322.45 304.232 322.399 304.624 322.184C304.768 322.371 304.936 322.483 305.067 322.558C305.394 322.684 305.734 322.539 306.061 322.119C306.355 322.25 306.649 322.278 306.91 322.236C307.194 322.152 307.442 321.998 307.67 321.732L307.675 321.718Z" fill="#FCBF81"/>
<path d="M313.329 311.104C319.053 304.624 322.93 297.532 327.035 291.468C327.987 290.082 327.973 288.505 327.642 287.442C327.623 287.386 327.609 287.33 327.595 287.278C327.562 287.185 327.53 287.082 327.492 286.989C327.464 286.928 327.45 286.872 327.427 286.821C327.376 286.709 327.32 286.602 327.25 286.494C327.231 286.466 327.222 286.434 327.203 286.406C326.027 284.526 323.34 284.083 321.218 285.412C321.199 285.426 321.18 285.445 321.152 285.463C321.008 285.552 320.868 285.664 320.732 285.767C320.681 285.809 320.63 285.851 320.588 285.888C320.476 285.986 320.368 286.084 320.271 286.191C320.233 286.224 320.196 286.257 320.168 286.285C320.065 286.397 319.977 286.508 319.883 286.625C315.895 291.575 311.738 298.027 307.427 305.986C307.343 306.047 307.721 307.773 308.477 308.981C309.372 310.413 313.221 311.286 313.329 311.104Z" fill="#9288A3"/>
<path d="M286.722 252.613L286.536 252.511L281.026 249.534L279.962 248.965L280.238 248.41L281.423 246.045L281.581 245.728L281.815 246.045L286.648 252.511L286.722 252.613Z" fill="#D8CECE"/>
<path d="M293.487 248.965L291.826 249.861L286.933 252.502H286.928L286.723 252.613L286.802 252.511L291.649 246.045L291.887 245.728L292.046 246.045L293.058 248.097V248.102L293.487 248.965Z" fill="#D8CECE"/>
<path d="M286.825 242.791C293.553 242.595 296.123 237.943 298.4 229.336C299.884 229.238 301.269 227.162 301.367 225.674C301.465 224.19 301.563 222.212 299.389 223.201C299.193 211.431 294.84 205.986 286.63 206.187C278.517 205.991 274.164 211.333 273.968 223.103C271.794 222.114 271.892 224.092 271.99 225.576C272.088 227.059 273.473 229.135 275.055 229.238C277.528 237.845 280.098 242.595 286.825 242.791Z" fill="#FCBF81"/>
<path d="M300.191 218.2C300.191 218.2 302.976 218.401 304.469 215.914C304.469 215.914 301.884 217.01 299.095 214.123C297.103 212.13 295.81 208.352 292.526 206.462C289.344 204.671 284.17 204.769 278.101 207.26C276.907 204.974 274.42 203.976 274.42 203.976C274.42 205.865 274.919 207.059 275.414 207.456C274.616 206.658 271.336 207.656 271.434 207.955C271.434 207.955 272.33 209.448 274.915 209.35C272.526 211.342 270.539 216.413 272.129 222.982C272.428 222.884 272.629 222.884 272.825 222.884C273.221 222.982 273.422 223.28 273.622 223.383C273.921 223.682 274.518 225.375 274.518 225.375C274.518 225.375 274.616 224.279 274.915 222.59C274.915 222.59 275.81 222.193 277.401 220.999C278.992 219.805 280.783 215.625 280.783 215.625C282.374 216.819 294.014 220.402 295.708 219.506C296.207 220.402 296.701 222.59 297.994 223.285C298.194 224.68 298.292 226.168 298.292 227.764L299.487 223.187C299.785 223.089 300.084 222.987 300.48 222.987C301.875 222.688 303.564 222.189 304.259 220.701C300.28 220.5 300.182 218.214 300.182 218.214L300.191 218.2Z" fill="#243F6D"/>
<path d="M380.186 405.522C381.082 411.782 381.399 418.029 381.059 424.271C377.583 425.368 374.038 425.526 370.413 424.617C370.609 418.827 371.877 413.397 373.062 407.719L373.174 402.951L380.182 405.526L380.186 405.522Z" fill="#32456B"/>
<path d="M379.832 419.264C377.154 418.252 374.672 418.35 372.381 419.507L373.067 407.713L373.179 402.945L380.186 405.521L379.832 419.264Z" fill="#FC9E83"/>
<path d="M343.512 404.949L338.861 420.834L332.819 423.428C332.306 423.979 333.435 426.074 333.435 426.074C333.435 426.074 344.627 426.246 345.677 425.677C346.722 425.112 349.078 415.446 349.078 415.446L350.141 415.413L350.468 425.528L352.064 425.476C352.064 425.476 353.813 413.697 353.486 411.844C353.16 409.992 351.424 405.784 351.424 405.784L343.507 404.959L343.512 404.949Z" fill="#32456B"/>
<path d="M335.45 422.299L342.859 420.975L351.424 405.78L343.409 404.973L338.856 420.835L335.45 422.299Z" fill="#E3A18C"/>
<path d="M375.857 287.777L351.374 288.566C351.374 288.566 345.775 296.739 344.763 314.887C343.751 333.035 342.309 354.393 344.66 361.241C347.012 368.09 353.879 366.27 356.319 359.268C358.759 352.261 362.239 319.916 362.239 319.916L364.884 319.301C364.884 319.301 367.665 355.974 368.798 358.069C368.798 358.069 372.937 370.721 379.99 358.242C387.044 345.762 388.159 297.775 375.852 287.782L375.857 287.777Z" fill="#40527C"/>
<path d="M379.686 356.916C379.686 356.916 387.188 374.788 380.204 405.915C380.204 405.915 372.786 407.221 372.754 406.158C372.721 405.094 371.499 363.573 368.569 357.275C368.569 357.275 374.638 349.088 379.686 356.916Z" fill="#40527C"/>
<path d="M354.102 356.677C354.102 356.677 358.478 360.265 357.844 373.607C357.209 386.945 351.597 394.587 352.507 406.278L342.91 406.054C342.91 406.054 344.781 364.967 344.524 356.985C344.524 356.985 350.668 349.329 354.107 356.677H354.102Z" fill="#40527C"/>
<path d="M355.81 210.827C355.81 210.827 356.412 209.246 354.565 208.634C352.717 208.023 351.737 210.155 350.8 212.357C349.867 214.564 350.566 231.07 350.566 231.07C350.566 231.07 350.744 236.561 355.866 238.777C359.281 240.254 361.48 240.968 362.463 240.918L364.054 236.369L355.805 210.827H355.81Z" fill="#AD8D80"/>
<path d="M350.272 216.444C350.864 224.888 348.382 224.744 365.046 232.316C375.324 236.986 375.791 229.045 375.791 229.045C375.791 229.045 378.473 226.33 377.629 214.284C376.784 202.239 370.342 199.486 362.877 200.074C355.417 200.662 349.679 207.996 350.272 216.44V216.444Z" fill="#AD8D80"/>
<path d="M358.189 226.212L367.576 226.73L368.275 236.821C368.275 236.821 367.697 258.393 359.91 255.673C353.687 253.499 354.573 236.312 354.573 236.312C353.682 234.586 358.012 235.692 359.934 233.452L358.189 226.212Z" fill="#F4C3B0"/>
<path d="M372.573 236.33L364.39 274.189L361.363 288.185C361.363 288.185 357.159 291.922 355.289 286.785C353.46 280.394 352.863 268.427 353.385 257.618C353.856 247.867 355.242 239.064 357.467 236.148C357.822 235.682 358.2 235.365 358.596 235.22C358.829 235.005 358.969 234.94 359.053 235.001C359.427 235.239 358.648 237.86 359.478 240.482L358.941 241.28L358.932 241.854C359.492 242.362 360.154 242.703 360.873 242.922C361.353 243.459 361.965 243.953 362.739 244.383C363.378 244.051 363.975 243.655 364.53 243.207C365.636 243.109 366.695 242.89 367.568 242.656L366.485 241.247C366.709 240.977 366.919 240.702 367.12 240.422C369.396 237.277 370.39 233.75 370.558 233.41L370.577 233.382L371.332 234.502L372.494 236.218L372.573 236.335V236.33Z" fill="#538BA6"/>
<path d="M369.769 241.939V243.339C369.298 243.497 368.845 243.632 368.411 243.758C362.589 245.41 359.813 244.248 358.903 243.693C358.665 243.548 358.558 243.446 358.558 243.446V241.468C358.605 241.524 358.656 241.575 358.707 241.626C358.782 241.701 358.857 241.776 358.936 241.846C359.496 242.354 360.158 242.695 360.877 242.914C361.157 243.003 361.441 243.068 361.73 243.119C362.547 243.269 363.405 243.283 364.25 243.222C364.343 243.217 364.436 243.208 364.53 243.199C365.635 243.101 366.694 242.881 367.567 242.648C367.842 242.573 368.103 242.499 368.337 242.429C369.214 242.163 369.769 241.934 369.769 241.934V241.939Z" fill="#41778C"/>
<path d="M376.776 284.448C386.121 296.597 386.61 329.916 386.61 329.972C386.61 329.972 377.779 334.768 360.928 335.151L359.062 324.416L356.496 335.151C341.698 334.432 341.745 330.7 341.745 330.7L345.482 295.197L347.819 270.439C347.819 270.439 345.482 266.235 345.948 261.094C347.348 253.154 347.348 249.417 347.893 236.046L358.605 234.399C358.605 234.399 353.562 243.585 354.485 247.583L358.082 289.006L373.431 239.345C374 236.881 373.184 235.458 372.475 234.726L375.74 235.701L384.973 239.345L383.326 253.158C381.927 266.706 376.785 276.051 376.785 284.458L376.776 284.448Z" fill="#DCE9FF"/>
<path d="M359.086 233.573L359.058 234.996L358.946 241.276L358.937 241.849L358.904 243.692L358.078 289.001L353.422 246.608L354.355 243.804L354.822 234.931L356.324 234.763L358.629 233.769L359.086 233.573Z" fill="#CFE8FC"/>
<path d="M367.567 242.652C366.695 242.885 365.636 243.104 364.53 243.202C364.437 243.212 364.343 243.221 364.25 243.226C364.376 243.118 364.507 242.997 364.633 242.871C365.566 241.938 365.631 240.128 365.631 240.128L366.48 241.238L367.562 242.647L367.567 242.652Z" fill="#6183BA"/>
<path d="M360.845 241.626C360.43 240.539 360.346 239.2 360.346 239.2L359.487 240.474L358.951 241.272L358.941 241.845C359.501 242.354 360.164 242.694 360.882 242.914C361.162 243.002 361.447 243.068 361.736 243.119C361.381 242.629 361.022 242.074 360.85 241.621L360.845 241.626Z" fill="#6183BA"/>
<path d="M360.345 239.201L359.482 240.479L358.946 241.277L358.708 241.631L358.558 241.855L358.031 242.634L355.82 245.923L356.487 238.706L357.471 236.145L358.32 233.92L358.628 233.77L359.291 233.453L360.345 239.201Z" fill="#89A2E0"/>
<path d="M372.607 244.284L373.973 246.146C366.5 263.431 363.229 273.708 358.074 289.001C359.73 269.505 370.703 242.409 371.17 238.667C371.496 236.059 371.17 234.464 371.17 234.464L372.467 234.716L375.732 235.691L372.602 244.28L372.607 244.284Z" fill="#CFE8FC"/>
<path d="M372.573 235.865L372.493 236.215L370.235 246.143L369.307 244.93L368.411 243.759L367.949 243.157L367.567 242.653L366.48 241.244L365.631 240.129L370.553 233.402L370.576 233.374L371.5 234.531L372.573 235.865Z" fill="#89A2E0"/>
<path d="M360.895 293.328C360.895 292.81 360.475 292.395 359.962 292.395C359.444 292.395 359.029 292.814 359.029 293.328C359.029 293.841 359.449 294.261 359.962 294.261C360.475 294.261 360.895 293.841 360.895 293.328Z" fill="#89A2E0"/>
<path d="M360.429 305.007C360.944 305.007 361.362 304.589 361.362 304.074C361.362 303.558 360.944 303.141 360.429 303.141C359.913 303.141 359.496 303.558 359.496 304.074C359.496 304.589 359.913 305.007 360.429 305.007Z" fill="#89A2E0"/>
<path d="M361.362 315.749C361.878 315.749 362.295 315.331 362.295 314.816C362.295 314.301 361.878 313.883 361.362 313.883C360.847 313.883 360.429 314.301 360.429 314.816C360.429 315.331 360.847 315.749 361.362 315.749Z" fill="#89A2E0"/>
<path d="M354.135 220.563C354.042 221.286 354.023 222.019 354.074 222.746C354.135 223.661 354.308 224.566 354.564 225.434C355.563 228.825 357.881 231.601 360.251 232.04C367.898 231.396 373.034 226.227 373.272 217.414C372.255 209.212 370.3 205.564 362.649 206.208C355.003 206.852 353.118 212.371 354.135 220.568V220.563Z" fill="#FFD4BB"/>
<path d="M372.129 221.23C372.61 221.272 373.099 221.304 373.603 221.323C373.603 221.323 373.832 220.899 374.112 220.185C375.39 216.914 377.709 207.584 363.657 205.573C363.657 205.573 358.917 205.069 353.575 210C352.693 210.808 359.01 220.091 372.129 221.23Z" fill="#AD8D80"/>
<path d="M382.855 312.324C382.855 312.324 385.15 318.888 383.83 321.953C382.51 325.018 379.449 324.515 377.215 323.278C374.985 322.042 376.436 317.269 376.436 317.269C376.436 317.269 375.964 317.363 375.246 318.627C374.527 319.891 373.128 317.932 373.128 317.932C373.128 317.932 378.246 311.862 379.011 311.988C379.776 312.114 382.855 312.324 382.855 312.324Z" fill="#FFD4BB"/>
<path d="M385.658 316.892L393.374 277.773C394.018 276.537 394.14 275.016 393.706 273.598L387.342 242.112C386.512 239.397 383.913 237.815 381.543 238.58C379.173 239.346 377.923 242.173 378.758 244.888L385.77 275.786L377.088 309.152C375.852 311.517 378.572 314.036 380.76 315.576C382.7 316.943 385.518 317.162 385.658 316.896V316.892Z" fill="#CFE8FC"/>
<path d="M377.279 250.386V255.766C376.952 255.826 376.64 255.896 376.346 255.971V250.386C376.346 250.13 376.556 249.92 376.812 249.92C377.069 249.92 377.279 250.13 377.279 250.386Z" fill="#CFE8FC"/>
<path d="M377.276 251.559C377.276 251.431 377.171 251.326 377.042 251.326C376.914 251.326 376.809 251.431 376.809 251.559V254.363C376.809 254.492 376.914 254.597 377.042 254.597C377.171 254.597 377.276 254.492 377.276 254.363V251.559Z" fill="#538BA6"/>
<path d="M378.875 255.521H370.342V257.355H378.875V255.521Z" fill="#538BA6"/>
<path d="M376.725 227.178C376.725 227.178 374.299 233.919 374.406 236.364C374.513 238.808 375.652 240.754 374.98 244.15C374.308 247.546 375.008 250.08 373.935 252.03C372.862 253.98 371.402 253.844 371.402 253.844C371.402 253.844 370.655 262.811 369.111 259.279C367.567 255.748 363.555 263.18 363.555 263.18C363.555 263.18 363.947 257.745 366.265 255.841C368.584 253.938 366.475 251.451 365.859 249.912C365.244 248.372 368.654 245.969 368.15 244.477C367.641 242.984 366.377 241.491 366.657 241.127C366.937 240.763 368.089 230.532 368.089 230.532L376.729 227.178H376.725Z" fill="#AD8D80"/>
<path d="M352.949 251.284H349.842V254.391H352.949V251.284Z" fill="#538BA6"/>
<path d="M355.683 253.354H346.931C346.153 253.354 345.522 253.985 345.522 254.763V259.027C345.522 259.806 346.153 260.436 346.931 260.436H355.683C356.462 260.436 357.092 259.806 357.092 259.027V254.763C357.092 253.985 356.462 253.354 355.683 253.354Z" fill="#F2F2F2"/>
<path d="M351.41 254.736H346.884C346.799 254.736 346.73 254.805 346.73 254.89V254.928C346.73 255.013 346.799 255.082 346.884 255.082H351.41C351.495 255.082 351.564 255.013 351.564 254.928V254.89C351.564 254.805 351.495 254.736 351.41 254.736Z" fill="#538BA6"/>
<path d="M351.41 255.771H346.884C346.799 255.771 346.73 255.84 346.73 255.925V255.963C346.73 256.048 346.799 256.117 346.884 256.117H351.41C351.495 256.117 351.564 256.048 351.564 255.963V255.925C351.564 255.84 351.495 255.771 351.41 255.771Z" fill="#538BA6"/>
<path d="M351.41 256.809H346.884C346.799 256.809 346.73 256.878 346.73 256.963V257C346.73 257.085 346.799 257.154 346.884 257.154H351.41C351.495 257.154 351.564 257.085 351.564 257V256.963C351.564 256.878 351.495 256.809 351.41 256.809Z" fill="#538BA6"/>
<path d="M355.399 258.188H347.043C346.87 258.188 346.73 258.327 346.73 258.5V258.911C346.73 259.083 346.87 259.223 347.043 259.223H355.399C355.571 259.223 355.711 259.083 355.711 258.911V258.5C355.711 258.327 355.571 258.188 355.399 258.188Z" fill="#538BA6"/>
<path d="M355.268 254.736H353.392C353.148 254.736 352.949 254.935 352.949 255.18V257.055C352.949 257.3 353.148 257.498 353.392 257.498H355.268C355.513 257.498 355.711 257.3 355.711 257.055V255.18C355.711 254.935 355.513 254.736 355.268 254.736Z" fill="#538BA6"/>
<path d="M354.466 232.754C356.365 235.184 358.459 236.696 358.553 236.756L358.739 236.887L358.968 236.864C365.91 236.094 370.986 233.939 374.06 230.468C376.794 227.379 376.827 224.44 376.827 224.319C376.827 222.896 374.639 221.184 374.195 220.853L373.477 221.809C374.513 222.583 375.628 223.764 375.628 224.314C375.628 224.412 375.436 233.738 359.066 235.646C358.534 235.24 356.948 233.897 355.436 232.04C353.636 229.824 353.939 227.897 354.559 225.662C354.303 224.799 354.135 223.89 354.069 222.975C353.29 226.096 351.905 229.474 354.466 232.754Z" fill="#4D648D"/>
<path d="M327.576 280.959C326.984 280.959 326.391 280.907 325.803 280.8C317.429 279.312 314.229 276.172 311.131 273.14C307.711 269.79 304.18 266.328 293.282 264.915L293.431 263.762C304.716 265.227 308.393 268.824 311.947 272.309C315.055 275.356 317.994 278.229 326.013 279.657C342.757 282.633 357.858 237.035 358.008 236.573L359.113 236.932C359.076 237.049 355.227 248.754 349.288 259.923C345.789 266.51 342.253 271.628 338.782 275.146C334.975 279.004 331.215 280.949 327.581 280.949L327.576 280.959Z" fill="#4D648D"/>
<path d="M354.765 233.585L356.001 232.283L359.187 235.311L363.778 234.499L364.091 236.263L360.764 236.851L359.495 238.063L357.167 236.776L357.387 236.071L354.765 233.585Z" fill="#EDEDED"/>
<path d="M291.468 267.559C293.781 267.559 295.657 265.832 295.657 263.701C295.657 261.57 293.781 259.843 291.468 259.843C289.154 259.843 287.278 261.57 287.278 263.701C287.278 265.832 289.154 267.559 291.468 267.559Z" fill="#4D648D"/>
<path d="M291.467 266.79C293.319 266.79 294.821 265.407 294.821 263.702C294.821 261.996 293.319 260.613 291.467 260.613C289.614 260.613 288.112 261.996 288.112 263.702C288.112 265.407 289.614 266.79 291.467 266.79Z" fill="#F3F4F7"/>
<path d="M293.707 262.19C292.97 262.129 285.944 262.88 285.944 262.88L285.389 260.613C286.186 259.937 292.76 259.293 293.67 259.074C294.579 258.854 303.952 263.776 303.952 263.776C303.952 263.776 303.798 271.026 302.557 269.888C301.316 268.749 291.463 267.784 290.679 266.533C289.895 265.283 290.236 264.718 290.236 264.718C290.236 264.718 296.347 266.113 296.973 265.722C297.598 265.33 294.444 262.251 293.707 262.19Z" fill="#FFD4BB"/>
<path d="M301.422 272.192L326.423 271.553C327.818 271.544 329.218 270.937 330.268 269.887L351.611 244.079C353.622 242.068 353.799 239.036 352.012 237.301C350.226 235.565 347.142 235.789 345.136 237.795L324.618 263.897L304.249 260.991C301.581 261.009 300.629 264.592 300.293 267.247C299.999 269.598 301.124 272.192 301.422 272.192Z" fill="#CFE8FC"/>
<path d="M291.467 266.023C292.722 266.023 293.739 265.087 293.739 263.933C293.739 262.779 292.722 261.843 291.467 261.843C290.213 261.843 289.195 262.779 289.195 263.933C289.195 265.087 290.213 266.023 291.467 266.023Z" fill="#A7B2C6"/>
<path d="M293.025 264.64C293.049 264.621 293.072 264.602 293.095 264.584C293.119 264.565 293.137 264.542 293.161 264.518C293.179 264.495 293.198 264.472 293.217 264.448C293.226 264.434 293.235 264.425 293.24 264.411C293.249 264.397 293.254 264.388 293.263 264.374C293.324 264.271 293.366 264.159 293.394 264.047C293.417 263.931 293.427 263.814 293.413 263.693C293.399 263.576 293.371 263.459 293.324 263.347C293.235 263.123 293.086 262.923 292.895 262.774C292.797 262.699 292.694 262.634 292.577 262.587C292.549 262.578 292.522 262.564 292.494 262.554C292.466 262.545 292.438 262.536 292.405 262.531C292.391 262.531 292.377 262.526 292.358 262.522C292.344 262.522 292.33 262.517 292.312 262.512C292.279 262.512 292.251 262.503 292.218 262.503C292.237 262.526 292.26 262.545 292.279 262.564C292.298 262.582 292.316 262.606 292.335 262.624L292.391 262.685C292.391 262.685 292.41 262.704 292.419 262.713L292.447 262.741C292.517 262.82 292.577 262.899 292.629 262.983C292.736 263.147 292.82 263.315 292.881 263.487C292.909 263.576 292.932 263.66 292.951 263.753C292.969 263.842 292.983 263.935 292.993 264.028C293.002 264.122 293.011 264.22 293.011 264.318C293.011 264.341 293.011 264.369 293.011 264.392C293.011 264.42 293.011 264.444 293.011 264.472C293.011 264.486 293.011 264.5 293.011 264.514C293.011 264.528 293.011 264.542 293.011 264.556C293.011 264.584 293.011 264.612 293.011 264.64H293.025Z" fill="#F2F2F2"/>
<defs>
<filter id="filter0_d_159_491" x="12.5562" y="126" width="516.352" height="360" filterUnits="userSpaceOnUse" color-interpolation-filters="sRGB">
<feFlood flood-opacity="0" result="BackgroundImageFix"/>
<feColorMatrix in="SourceAlpha" type="matrix" values="0 0 0 0 0 0 0 0 0 0 0 0 0 0 0 0 0 0 127 0" result="hardAlpha"/>
<feOffset dx="-4" dy="4"/>
<feGaussianBlur stdDeviation="2"/>
<feComposite in2="hardAlpha" operator="out"/>
<feColorMatrix type="matrix" values="0 0 0 0 0 0 0 0 0 0 0 0 0 0 0 0 0 0 0.1 0"/>
<feBlend mode="normal" in2="BackgroundImageFix" result="effect1_dropShadow_159_491"/>
<feBlend mode="normal" in="SourceGraphic" in2="effect1_dropShadow_159_491" result="shape"/>
</filter>
<filter id="filter1_d_159_491" x="0" y="82" width="209" height="209" filterUnits="userSpaceOnUse" color-interpolation-filters="sRGB">
<feFlood flood-opacity="0" result="BackgroundImageFix"/>
<feColorMatrix in="SourceAlpha" type="matrix" values="0 0 0 0 0 0 0 0 0 0 0 0 0 0 0 0 0 0 127 0" result="hardAlpha"/>
<feOffset dx="-4" dy="4"/>
<feGaussianBlur stdDeviation="2"/>
<feComposite in2="hardAlpha" operator="out"/>
<feColorMatrix type="matrix" values="0 0 0 0 0 0 0 0 0 0 0 0 0 0 0 0 0 0 0.15 0"/>
<feBlend mode="normal" in2="BackgroundImageFix" result="effect1_dropShadow_159_491"/>
<feBlend mode="normal" in="SourceGraphic" in2="effect1_dropShadow_159_491" result="shape"/>
</filter>
<filter id="filter2_d_159_491" x="39.6938" y="118.38" width="130.549" height="136.271" filterUnits="userSpaceOnUse" color-interpolation-filters="sRGB">
<feFlood flood-opacity="0" result="BackgroundImageFix"/>
<feColorMatrix in="SourceAlpha" type="matrix" values="0 0 0 0 0 0 0 0 0 0 0 0 0 0 0 0 0 0 127 0" result="hardAlpha"/>
<feOffset dx="-4" dy="4"/>
<feGaussianBlur stdDeviation="2"/>
<feComposite in2="hardAlpha" operator="out"/>
<feColorMatrix type="matrix" values="0 0 0 0 0 0 0 0 0 0 0 0 0 0 0 0 0 0 0.25 0"/>
<feBlend mode="normal" in2="BackgroundImageFix" result="effect1_dropShadow_159_491"/>
<feBlend mode="normal" in="SourceGraphic" in2="effect1_dropShadow_159_491" result="shape"/>
</filter>
<linearGradient id="paint0_linear_159_491" x1="275" y1="478" x2="275" y2="126" gradientUnits="userSpaceOnUse">
<stop stop-color="#D9E2FF"/>
<stop offset="0.5" stop-color="#FDFDFD"/>
<stop offset="1" stop-color="white"/>
</linearGradient>
<clipPath id="clip0_159_491">
<rect width="215.014" height="397" fill="white" transform="matrix(-1 8.74228e-08 8.74228e-08 1 276.014 0)"/>
</clipPath>
<clipPath id="clip1_159_491">
<rect width="215.014" height="397" fill="white" transform="matrix(1.19249e-08 -1 -1 -1.19249e-08 583 477.014)"/>
</clipPath>
</defs>
</svg>
