<svg width="64" height="64" viewBox="0 0 64 64" fill="none" xmlns="http://www.w3.org/2000/svg">
<path d="M31.8376 64C49.7706 64 64.0001 49.664 64.0001 32C64.0001 14.336 49.7706 0 31.8376 0V3.84C47.594 3.84 60.4265 16.48 60.4265 32C60.4265 47.52 47.594 60.16 31.8376 60.16V64Z" fill="#7093FF"/>
<path d="M32.1624 60.16C16.4061 60.16 3.5736 47.52 3.5736 32C3.5736 16.48 16.4061 3.84 32.1624 3.84V0C14.2294 0 0 14.336 0 32C0 49.664 14.2294 64 32.1624 64V60.16Z" fill="#70D4FF"/>
<path d="M32.1625 39.8081V45.9521H13.9047C12.1828 45.9521 10.7859 44.5761 10.7859 42.8801V32.9601C10.7859 32.8961 10.7859 32.8321 10.7859 32.7681H24.0407L28.1341 39.8081H32.1625Z" fill="#7093FF"/>
<path d="M53.474 32.9601V42.8801C53.474 44.5761 52.0771 45.9521 50.3552 45.9521H32.1624V39.8081H36.1908L40.2842 32.7681H53.5065C53.474 32.8641 53.474 32.8961 53.474 32.9601Z" fill="#70D4FF"/>
<path d="M42.396 18.912L48.1138 29.568H40.2844H38.4001L37.458 31.168L34.3067 36.576H32.1625H29.9859L26.8346 31.168L25.8925 29.568H24.0407H16.1788L21.8965 18.912H32.1625H42.396V18.912ZM44.3453 15.712H32.1625H19.9473L11.9554 30.624L10.8184 32.704L10.7859 32.8H24.0407L28.1341 39.84H32.1625H36.191L40.2844 32.8H53.5392L53.5067 32.704L52.3696 30.624L44.3453 15.712Z" fill="#70D4FF"/>
<path d="M42.396 18.9119L48.1137 29.5679H40.2843H38.4L37.4579 31.1679L34.3066 36.5759H32.1625C32.1625 36.5759 31.8376 39.3279 32.1625 39.7759H36.1909L40.2843 32.7359H53.5391L53.5066 32.6399L52.3696 30.5599L44.3777 15.6799H32.1625V18.8799H42.396" fill="#7093FF"/>
<path d="M28.5239 15.6479L24.4305 19.68C23.001 21.088 23.001 23.392 24.4305 24.8C25.8599 26.208 28.199 26.208 29.6285 24.8L33.7219 20.8L28.5239 15.6479Z" fill="#70D4FF"/>
<path d="M36.6782 27.0721C38.4544 27.0721 39.8944 25.6537 39.8944 23.9041C39.8944 22.1544 38.4544 20.7361 36.6782 20.7361C34.9019 20.7361 33.4619 22.1544 33.4619 23.9041C33.4619 25.6537 34.9019 27.0721 36.6782 27.0721Z" fill="#7093FF"/>
<path d="M34.3714 21.7281C33.1693 22.9761 33.1693 24.9281 34.4039 26.1441C35.6384 27.3601 37.6526 27.3601 38.8871 26.1761L34.3714 21.7281Z" fill="#70D4FF"/>
<path d="M28.5239 15.648L33.7219 20.768L37.9452 16.608C39.3747 15.2 39.3747 12.896 37.9452 11.488C36.5158 10.08 34.1767 10.08 32.7473 11.488" fill="#7093FF"/>
<path d="M23.3904 22.624C23.3904 22.496 23.3584 22.368 23.3584 22.24C23.3584 22.368 23.3584 22.496 23.3904 22.624Z" fill="#7093FF"/>
<path d="M23.6182 23.616C23.5533 23.488 23.5208 23.328 23.4883 23.2C23.5208 23.328 23.5857 23.456 23.6182 23.616Z" fill="#7093FF"/>
<path d="M27.0295 25.856C26.8995 25.856 26.7696 25.856 26.6396 25.824C26.7696 25.856 26.8995 25.856 27.0295 25.856Z" fill="#7093FF"/>
<path d="M26.0874 25.728C25.9574 25.696 25.795 25.632 25.665 25.6C25.795 25.664 25.9249 25.696 26.0874 25.728Z" fill="#7093FF"/>
</svg>
