<svg width="63" height="63" viewBox="0 0 63 63" fill="none" xmlns="http://www.w3.org/2000/svg">
<path d="M13.5136 19.656C14.6791 19.656 15.5926 18.774 15.5926 17.6715C15.5926 16.569 14.6476 15.687 13.5136 15.687C12.3481 15.687 11.4346 16.569 11.4346 17.6715C11.4346 18.774 12.3481 19.656 13.5136 19.656Z" fill="#7093FF"/>
<path d="M28.0036 19.656C29.1691 19.656 30.0826 18.774 30.0826 17.6715C30.0826 16.569 29.1376 15.687 28.0036 15.687C26.8381 15.687 25.9246 16.569 25.9246 17.6715C25.8931 18.774 26.8381 19.656 28.0036 19.656Z" fill="#7093FF"/>
<path d="M42.777 19.656C43.9425 19.656 44.856 18.774 44.856 17.6715C44.856 16.569 43.911 15.687 42.777 15.687C41.6115 15.687 40.698 16.569 40.698 17.6715C40.698 18.774 41.6115 19.656 42.777 19.656Z" fill="#7093FF"/>
<path d="M13.5136 29.8936C14.6791 29.8936 15.5926 29.0116 15.5926 27.9091C15.5926 26.8066 14.6476 25.9246 13.5136 25.9246C12.3481 25.9246 11.4346 26.8066 11.4346 27.9091C11.4346 29.0116 12.3481 29.8936 13.5136 29.8936Z" fill="#7093FF"/>
<path d="M13.5136 40.6349C14.6791 40.6349 15.5926 39.7529 15.5926 38.6504C15.5926 37.5479 14.6476 36.6659 13.5136 36.6659C12.3481 36.6659 11.4346 37.5479 11.4346 38.6504C11.4346 39.7529 12.3481 40.6349 13.5136 40.6349Z" fill="#7093FF"/>
<path d="M48.6675 3.62244H7.8435C3.528 3.62244 0 7.15044 0 11.4659V44.7929C0 49.1084 3.528 52.6364 7.8435 52.6364H29.484C28.6335 51.4709 27.909 50.2109 27.342 48.8564H7.8435C5.607 48.8564 3.78 47.0294 3.78 44.7929V11.4659C3.78 9.22944 5.607 7.40244 7.8435 7.40244H48.6675C50.904 7.40244 52.731 9.22944 52.731 11.4659V29.6414C54.2115 30.7754 55.4715 32.1299 56.511 33.7049V11.4659C56.511 7.15044 52.983 3.62244 48.6675 3.62244Z" fill="#7093FF"/>
<path d="M28.2555 3.62244H7.8435C3.528 3.62244 0 7.15044 0 11.4659V44.7929C0 49.1084 3.528 52.6364 7.8435 52.6364H29.484C28.6335 51.4709 27.909 50.2109 27.342 48.8564H7.8435C5.607 48.8564 3.78 47.0294 3.78 44.7929V11.4659C3.78 9.22944 5.607 7.40244 7.8435 7.40244H28.2555V3.62244V3.62244Z" fill="#70D4FF"/>
<path d="M28.098 9.26097C29.1375 9.26097 29.988 8.41047 29.988 7.37098V2.01598C29.988 0.976476 29.1375 0.125977 28.098 0.125977C27.0585 0.125977 26.208 0.976476 26.208 2.01598V7.37098C26.208 8.41047 27.0585 9.26097 28.098 9.26097Z" fill="#70D4FF"/>
<path d="M13.4505 9.41856C12.411 9.41856 11.5605 8.56806 11.5605 7.52856V2.20506C11.5605 1.16556 12.411 0.315063 13.4505 0.315063C14.49 0.315063 15.3405 1.16556 15.3405 2.20506V7.56006C15.3405 8.56806 14.49 9.41856 13.4505 9.41856Z" fill="#70D4FF"/>
<path d="M42.714 9.1035C43.7535 9.1035 44.604 8.253 44.604 7.2135V1.89C44.604 0.8505 43.7535 0 42.714 0C41.6745 0 40.824 0.8505 40.824 1.89V7.245C40.824 8.253 41.6745 9.1035 42.714 9.1035Z" fill="#70D4FF"/>
<path d="M51.1874 45.549H42.6824C41.8004 45.549 41.1074 44.856 41.1074 43.974V31.122C41.1074 30.24 41.8004 29.547 42.6824 29.547C43.5644 29.547 44.2574 30.24 44.2574 31.122V42.4305H51.1874C52.0694 42.4305 52.7624 43.1235 52.7624 44.0055C52.7624 44.856 52.0694 45.549 51.1874 45.549Z" fill="#7093FF"/>
<path d="M56.511 27.8775C55.377 26.8065 54.0855 25.893 52.731 25.1055C49.77 23.4045 46.3365 22.4595 42.6825 22.4595C31.4685 22.4595 22.3965 31.5315 22.3965 42.714C22.3965 44.856 22.7115 46.9035 23.3415 48.8565C23.751 50.1795 24.318 51.4395 24.9795 52.6365C28.4445 58.8105 35.091 63 42.6825 63C53.8965 63 62.9685 53.928 62.9685 42.7455C63 36.855 60.5115 31.5945 56.511 27.8775ZM42.714 59.22C37.3275 59.22 32.508 56.637 29.5155 52.6365C28.665 51.471 27.9405 50.211 27.3735 48.8565C26.6175 46.9665 26.1765 44.8875 26.1765 42.714C26.1765 33.6105 33.579 26.208 42.6825 26.208C46.4625 26.208 49.9275 27.468 52.731 29.61C54.2115 30.744 55.4715 32.0985 56.511 33.6735C58.212 36.2565 59.22 39.375 59.22 42.714C59.22 51.8175 51.8175 59.22 42.714 59.22Z" fill="#70D4FF"/>
</svg>
