<svg width="64" height="64" viewBox="0 0 64 64" fill="none" xmlns="http://www.w3.org/2000/svg">
<path d="M32.2273 27.392C36.4976 27.392 39.9593 23.9822 39.9593 19.776C39.9593 15.5698 36.4976 12.16 32.2273 12.16C27.9571 12.16 24.4954 15.5698 24.4954 19.776C24.4954 23.9822 27.9571 27.392 32.2273 27.392Z" fill="#7093FF"/>
<path d="M43.9228 29.2161V44.2881C43.9228 48.7041 40.2518 52.2881 35.801 52.2881H28.6538C24.1706 52.2881 20.532 48.6721 20.532 44.2881V29.2161H43.9228Z" fill="#7093FF"/>
<path d="M32.2275 12.16C36.4834 12.16 39.9595 15.552 39.9595 19.776C39.9595 24 36.5159 27.392 32.2275 27.392V12.16Z" fill="#70D3FF"/>
<path d="M32.2275 52.2881H35.8011C40.2844 52.2881 43.923 48.6721 43.923 44.2881V29.2161H32.2275V52.2881V52.2881Z" fill="#70D3FF"/>
<path d="M38.1402 38.272C38.1402 38.272 41.5838 35.872 41.0965 33.952C40.7067 32.512 38.4326 32.416 38.1402 34.144C37.8478 32.416 35.5737 32.512 35.1838 33.952C34.664 35.872 38.1402 38.272 38.1402 38.272Z" fill="#7093FF"/>
<path d="M31.8376 64C49.7706 64 64.0001 49.664 64.0001 32C64.0001 14.336 49.7706 0 31.8376 0V3.84C47.594 3.84 60.4265 16.48 60.4265 32C60.4265 47.52 47.594 60.16 31.8376 60.16V64Z" fill="#7093FF"/>
<path d="M32.1624 60.16C16.4061 60.16 3.5736 47.52 3.5736 32C3.5736 16.48 16.4061 3.84 32.1624 3.84V0C14.2294 0 0 14.336 0 32C0 49.664 14.2294 64 32.1624 64V60.16Z" fill="#70D4FF"/>
<path d="M20.2721 23.232H9.8112C9.09647 23.232 8.54419 22.656 8.54419 21.92C8.54419 21.184 9.12896 20.608 9.8112 20.608H20.2396C20.9543 20.608 21.5066 21.184 21.5066 21.92C21.5391 22.624 20.9868 23.232 20.2721 23.232Z" fill="#70CCFF"/>
<path d="M16.796 28.576H9.81119C9.09647 28.576 8.54419 28 8.54419 27.264C8.54419 26.528 9.12896 25.952 9.81119 25.952H16.796C17.5107 25.952 18.063 26.528 18.063 27.264C18.0955 27.968 17.5107 28.576 16.796 28.576Z" fill="#70CCFF"/>
</svg>
