<svg width="64" height="64" viewBox="0 0 64 64" fill="none" xmlns="http://www.w3.org/2000/svg">
<path d="M32 64C49.856 64 64 49.664 64 32C64 14.336 49.856 0 32 0V3.84C47.68 3.84 60.448 16.48 60.448 32C60.448 47.52 47.68 60.16 32 60.16V64Z" fill="#7093FF"/>
<path d="M32 60.16C16.32 60.16 3.552 47.52 3.552 32C3.552 16.48 16.32 3.84 32 3.84V0C14.144 0 0 14.336 0 32C0 49.664 14.144 64 32 64V60.16Z" fill="#70D4FF"/>
<path d="M33.0046 45.0881C32.0644 44.1601 30.9297 43.5841 29.7301 43.3281L40.656 32.5441L39.7482 26.0161L48.5667 17.3121L48.2425 13.4401L36.5709 24.9601L37.4787 31.4881L23.4728 45.3121C21.0412 47.8721 21.0737 51.9041 23.6025 54.3681C26.1638 56.8961 30.3785 56.8961 32.9722 54.3041C35.5334 51.7761 35.5659 47.6481 33.0046 45.0881ZM25.7099 52.2881C24.3158 50.9121 24.3482 48.6401 25.7747 47.2321C27.2012 45.8241 29.5031 45.7921 30.8972 47.1681C32.2913 48.5441 32.2589 50.8161 30.8324 52.2241C29.4059 53.6641 27.104 53.6641 25.7099 52.2881Z" fill="#70D4FF"/>
<path d="M12.6766 34.3361C10.083 36.8961 10.0505 41.0561 12.6118 43.5841C15.1082 46.0481 19.1933 46.1121 21.787 43.7121L35.7928 29.8881L42.4067 30.7841L54.0783 19.2641L50.1554 18.9441L41.3368 27.6481L34.723 26.7521L23.7971 37.5361C23.5377 36.3521 22.9541 35.2001 22.0139 34.3041C19.4851 31.7761 15.2703 31.7761 12.6766 34.3361ZM14.8164 36.4481C16.243 35.0401 18.5448 35.0081 19.939 36.3841C21.3331 37.7601 21.3006 40.0321 19.8741 41.4401C18.4476 42.8481 16.1457 42.8801 14.7516 41.5041C13.3575 40.1281 13.3899 37.8561 14.8164 36.4481Z" fill="#7093FF"/>
</svg>
