<svg width="64" height="64" viewBox="0 0 64 64" fill="none" xmlns="http://www.w3.org/2000/svg">
<path d="M35.1313 27.904C34.6252 27.392 33.866 26.976 32.8221 26.624C32.664 26.56 32.4425 26.496 32.2844 26.464C31.8099 26.272 31.5568 26.08 31.3354 25.856C31.0824 25.6 30.9875 25.312 30.9875 24.896C30.9875 24.448 31.114 24.096 31.3354 23.872C31.5568 23.648 31.8415 23.52 32.2844 23.52C32.7272 23.52 33.2017 23.68 33.4548 24C33.7078 24.32 33.8344 24.768 33.8344 25.344V25.6H35.7956V25.312C35.7956 24.32 35.5425 23.488 35.068 22.88C34.6252 22.336 34.0242 21.952 33.265 21.824V20.16H32.316H31.6201V21.824C30.8609 21.952 30.2599 22.272 29.8171 22.784C29.3109 23.328 29.0579 24.064 29.0579 24.928C29.0579 25.824 29.3426 26.56 29.8803 27.104C30.4181 27.616 31.0507 28 32.063 28.32C32.1262 28.352 32.2844 28.416 32.3476 28.448C32.8854 28.64 33.3915 28.896 33.6129 29.152C33.866 29.408 33.9925 29.696 33.9925 30.08C33.9925 30.528 33.866 30.88 33.5497 31.104C33.265 31.328 32.8221 31.456 32.316 31.488C32.2844 31.488 32.316 31.488 32.316 31.488C31.8415 31.488 31.3987 31.36 31.0507 31.072C30.7344 30.816 30.5762 30.336 30.5762 29.664V29.376H28.7416L28.6783 29.536V29.568L28.6467 29.6V29.664C28.615 30.752 28.8997 31.584 29.5007 32.16C30.0069 32.672 30.6711 32.992 31.4619 33.12V34.56H32.316H33.1385V33.12C33.9609 32.992 34.6252 32.672 35.0997 32.192C35.6374 31.648 35.9221 30.912 35.9221 29.984C35.9537 29.152 35.669 28.416 35.1313 27.904Z" fill="#7093FF"/>
<path d="M32.3161 39.8081V45.9521H14.5387C12.8621 45.9521 11.502 44.5761 11.502 42.8801V32.9601C11.502 32.8961 11.502 32.8321 11.502 32.7681H24.408L28.3936 39.8081H32.3161Z" fill="#7093FF"/>
<path d="M53.067 32.9601V42.8801C53.067 44.5761 51.7068 45.9521 50.0303 45.9521H32.3162V39.8081H36.2386L40.2243 32.7681H53.0986C53.067 32.8641 53.067 32.8961 53.067 32.9601Z" fill="#70D4FF"/>
<path d="M42.2803 18.912L47.8476 29.568H40.2242H38.3895L37.4721 31.168L34.4038 36.576H32.3161H30.1967L27.1284 31.168L26.211 29.568H24.408H16.7529L22.3202 18.912H32.3161H42.2803V18.912ZM44.1782 15.712H32.3161H20.4223L12.6407 30.624L11.5336 32.704L11.502 32.8H24.408L28.3936 39.84H32.3161H36.2385L40.2242 32.8H53.1302L53.0985 32.704L51.9914 30.624L44.1782 15.712Z" fill="#70D4FF"/>
<path d="M42.2803 18.9121L47.8476 29.5681H40.2242H38.3895L37.4722 31.1681L34.4039 36.5761H32.3161C32.3161 36.5761 31.9998 39.3281 32.3161 39.7761H36.2385L40.2242 32.7361H53.1302L53.0986 32.6401L51.9915 30.5601L44.2099 15.6801H32.3161V18.8801H42.2803" fill="#7093FF"/>
<path d="M31.8376 64C49.7706 64 64.0001 49.664 64.0001 32C64.0001 14.336 49.7706 0 31.8376 0V3.84C47.594 3.84 60.4265 16.48 60.4265 32C60.4265 47.52 47.594 60.16 31.8376 60.16V64Z" fill="#7093FF"/>
<path d="M32.1624 60.16C16.4061 60.16 3.5736 47.52 3.5736 32C3.5736 16.48 16.4061 3.84 32.1624 3.84V0C14.2294 0 0 14.336 0 32C0 49.664 14.2294 64 32.1624 64V60.16Z" fill="#70D4FF"/>
</svg>
