<svg width="52" height="53" viewBox="0 0 52 53" fill="none" xmlns="http://www.w3.org/2000/svg">
<path d="M51.6617 0.537321C51.7294 0.137577 51.4926 -0.0956069 51.0866 0.0376411L43.745 2.46942C43.339 2.60266 43.2714 2.93578 43.6097 3.23559L44.9291 4.3682C45.2675 4.6347 45.3013 5.13437 45.0306 5.46749L33.2909 19.9249C33.0202 20.258 32.5127 20.3246 32.1744 20.0581L18.9122 10.3977C18.5739 10.1312 17.9649 9.86468 17.5589 9.73143C17.153 9.63149 16.0027 10.2977 15.6982 10.5975L1.11652 24.3554C0.812034 24.6552 0.406048 25.2215 0.27072 25.5879C0.27072 25.5879 -0.0676016 26.4207 0.541377 27.0537C0.845866 27.3535 1.25185 27.52 1.65784 27.52C2.06382 27.52 2.09766 27.4867 2.09766 27.4867C2.46981 27.2535 3.01112 26.8205 3.31561 26.554L16.9161 13.6956C17.2206 13.3957 17.7619 13.3624 18.1003 13.6289L31.4978 23.4227C31.8361 23.6891 32.4789 23.9556 32.8849 24.0556L33.5954 23.9556C33.9675 23.7558 34.5088 23.3227 34.7795 22.9896L47.3651 7.46621C47.6357 7.13309 48.1094 7.09978 48.4477 7.36628L49.4288 8.19908C49.7671 8.46557 50.1055 8.36564 50.1731 7.93258L51.6617 0.537321Z" fill="#7093FF"/>
<path fill-rule="evenodd" clip-rule="evenodd" d="M52 50.1723C52 51.2049 51.1542 52.0377 50.1054 52.0377H49.4964H46.35H2.50358C1.75927 52.0377 1.08263 51.7046 0.608979 51.2049C0.236825 50.8718 0 50.3721 0 49.8392V49.5727V40.9449C0 39.9455 0.845804 39.1127 1.86077 39.1127H5.61614C6.6311 39.1127 7.4769 39.9455 7.4769 40.9449V49.5727H14.4802V23.7559C14.4802 22.7565 15.326 21.9237 16.3409 21.9237H20.0963C21.1113 21.9237 21.9571 22.7565 21.9571 23.7559V49.5393H29.434V31.4176C29.434 30.4183 30.2798 29.5855 31.2947 29.5855H35.0501C36.0651 29.5855 36.9109 30.4183 36.9109 31.4176V49.5393H44.3878V16.727C44.3878 15.6944 45.2336 14.8616 46.2824 14.8616H50.0716C51.1204 14.8616 51.9662 15.6944 51.9662 16.727V49.5393V50.1723H52Z" fill="#70D4FF"/>
</svg>
