<svg width="977" height="670" viewBox="0 0 977 670" fill="none" xmlns="http://www.w3.org/2000/svg">
<g filter="url(#filter0_d_164_478)">
<rect x="15" y="15" width="939" height="632" rx="36" fill="url(#paint0_linear_164_478)"/>
<rect x="15" y="15" width="939" height="632" rx="36" stroke="#B7C9DE"/>
</g>
<rect opacity="0.3" x="47" y="45" width="870" height="567" rx="28" fill="url(#paint1_linear_164_478)"/>
<path d="M917 73.3608C917 57.8969 904.464 45.3608 889 45.3608H75C59.536 45.3608 47 57.8969 47 73.3608V90.2158H917V73.3608Z" fill="#4D648D"/>
<path d="M639.46 55.3852C639.46 53.9777 640.655 52.8367 642.13 52.8367H805.93C807.405 52.8367 808.6 53.9777 808.6 55.3852V78.3225C808.6 79.73 807.405 80.871 805.93 80.871H642.13C640.655 80.871 639.46 79.73 639.46 78.3225V55.3852Z" fill="white"/>
<mask id="mask0_164_478" style="mask-type:alpha" maskUnits="userSpaceOnUse" x="787" y="60" width="15" height="14">
<path d="M800.931 71.9615L798.301 69.3317C798.182 69.213 798.021 69.147 797.852 69.147H797.422C798.15 68.2159 798.583 67.0448 798.583 65.7708C798.583 62.7401 796.127 60.2844 793.096 60.2844C790.064 60.2844 787.608 62.7401 787.608 65.7708C787.608 68.8015 790.064 71.2572 793.096 71.2572C794.37 71.2572 795.541 70.8246 796.472 70.0966V70.5266C796.472 70.6954 796.538 70.8563 796.657 70.975L799.287 73.6047C799.535 73.8527 799.936 73.8527 800.182 73.6047L800.928 72.8583C801.176 72.6103 801.176 72.2094 800.931 71.9615ZM793.096 69.147C791.23 69.147 789.719 67.6383 789.719 65.7708C789.719 63.906 791.228 62.3946 793.096 62.3946C794.961 62.3946 796.472 63.9033 796.472 65.7708C796.472 67.6357 794.963 69.147 793.096 69.147Z" fill="white"/>
</mask>
<g mask="url(#mask0_164_478)">
<path d="M800.931 71.9615L798.301 69.3317C798.182 69.213 798.021 69.147 797.852 69.147H797.422C798.15 68.2159 798.583 67.0448 798.583 65.7708C798.583 62.7401 796.127 60.2844 793.096 60.2844C790.064 60.2844 787.608 62.7401 787.608 65.7708C787.608 68.8015 790.064 71.2572 793.096 71.2572C794.37 71.2572 795.541 70.8246 796.472 70.0966V70.5266C796.472 70.6954 796.538 70.8563 796.657 70.975L799.287 73.6047C799.535 73.8527 799.936 73.8527 800.182 73.6047L800.928 72.8583C801.176 72.6103 801.176 72.2094 800.931 71.9615ZM793.096 69.147C791.23 69.147 789.719 67.6383 789.719 65.7708C789.719 63.906 791.228 62.3946 793.096 62.3946C794.961 62.3946 796.472 63.9033 796.472 65.7708C796.472 67.6357 794.963 69.147 793.096 69.147Z" fill="black"/>
<path d="M801.114 60.2844H787.608V73.7907H801.114V60.2844Z" fill="#4D648D"/>
</g>
<path fill-rule="evenodd" clip-rule="evenodd" d="M81.3633 63.7909L77.4011 75.0733C76.925 76.4288 75.4788 77.1277 74.1708 76.6343C72.8628 76.141 72.1885 74.6421 72.6645 73.2866L76.6268 62.0042C77.1029 60.6487 78.5491 59.9498 79.8571 60.4431C81.165 60.9365 81.8394 62.4354 81.3633 63.7909Z" fill="white"/>
<path fill-rule="evenodd" clip-rule="evenodd" d="M91.8562 60.9625L86.7914 74.9883C86.2777 76.4108 84.7173 77.1442 83.306 76.6265C81.8948 76.1087 81.1671 74.5359 81.6808 73.1135L86.7456 59.0876C87.2593 57.6652 88.8197 56.9318 90.2309 57.4495C91.6422 57.9672 92.3698 59.54 91.8562 60.9625Z" fill="white"/>
<path fill-rule="evenodd" clip-rule="evenodd" d="M102.349 59.3924L96.1786 75.0226C95.6276 76.4182 93.9539 77.1377 92.4402 76.6298C90.9265 76.1219 90.146 74.5788 90.697 73.1832L96.8675 57.553C97.4185 56.1575 99.0922 55.4379 100.606 55.9459C102.12 56.4538 102.9 57.9969 102.349 59.3924Z" fill="white"/>
<path d="M116.838 72.2905V61.7856H115.803L112.724 69.2364L109.564 61.7856H108.528V72.2905H109.564V64.3086L112.261 70.6381H113.147L115.803 64.3086V72.2905H116.838Z" fill="white"/>
<path d="M129.077 72.2905V71.2872H124.091V67.4955H128.342V66.4922H124.091V62.7889H129.077V61.7856H123.056V72.2905H129.077Z" fill="white"/>
<path d="M141.36 67.0381C141.36 65.4299 141.36 63.8955 140.502 62.8922C139.848 62.125 139.044 61.7856 137.954 61.7856H134.63V72.2905H137.954C139.044 72.2905 139.848 71.9512 140.502 71.184C141.36 70.1807 141.36 68.6463 141.36 67.0381ZM140.325 67.0381C140.325 68.4987 140.311 69.7971 139.684 70.52C139.194 71.1102 138.513 71.2872 137.777 71.2872H135.666V62.7889H137.777C138.513 62.7889 139.194 62.966 139.684 63.5561C140.311 64.2791 140.325 65.5774 140.325 67.0381Z" fill="white"/>
<path d="M148.238 72.2905V61.7856H147.202V72.2905H148.238Z" fill="white"/>
<path d="M161.618 72.2905V61.7856H160.583V70.1807L155.434 61.7856H154.453V72.2905H155.488V63.866L160.638 72.2905H161.618Z" fill="white"/>
<path d="M173.858 72.2905V71.2872H168.872V67.4955H173.122V66.4922H168.872V62.7889H173.858V61.7856H167.836V72.2905H173.858Z" fill="white"/>
<path d="M185.064 62.7889V61.7856H178.416V62.7889H181.222V72.2905H182.258V62.7889H185.064Z" fill="white"/>
<path d="M845.414 72.5472C844.648 71.7136 843.216 70.4596 843.216 66.3519C843.216 63.232 841.056 60.7344 838.145 60.1217V59.2849C838.145 58.5754 837.577 58 836.878 58C836.178 58 835.61 58.5754 835.61 59.2849V60.1217C832.699 60.7344 830.54 63.232 830.54 66.3519C830.54 70.4596 829.107 71.7136 828.341 72.5472C828.103 72.8062 827.998 73.1157 828 73.4189C828.004 74.0774 828.514 74.7038 829.272 74.7038H844.483C845.241 74.7038 845.751 74.0774 845.755 73.4189C845.757 73.1157 845.652 72.8058 845.414 72.5472ZM830.676 72.7765C831.517 71.6534 832.437 69.7918 832.441 66.3752C832.441 66.3672 832.439 66.3599 832.439 66.3519C832.439 63.868 834.426 61.8547 836.878 61.8547C839.329 61.8547 841.316 63.868 841.316 66.3519C841.316 66.3599 841.314 66.3672 841.314 66.3752C841.318 69.7923 842.238 71.6538 843.079 72.7765H830.676ZM836.878 78.5585C838.277 78.5585 839.413 77.4081 839.413 75.9887H834.342C834.342 77.4081 835.478 78.5585 836.878 78.5585Z" fill="white"/>
<g clip-path="url(#clip0_164_478)">
<path d="M881.115 70.6502C879.978 70.6502 879.431 71.2927 877.564 71.2927C875.697 71.2927 875.154 70.6502 874.013 70.6502C871.072 70.6502 868.687 73.0675 868.687 76.0469V77.0748C868.687 78.1388 869.539 79.0021 870.589 79.0021H884.539C885.59 79.0021 886.442 78.1388 886.442 77.0748V76.0469C886.442 73.0675 884.056 70.6502 881.115 70.6502ZM884.539 77.0748H870.589V76.0469C870.589 74.1356 872.127 72.5776 874.013 72.5776C874.592 72.5776 875.531 73.2201 877.564 73.2201C879.613 73.2201 880.533 72.5776 881.115 72.5776C883.002 72.5776 884.539 74.1356 884.539 76.0469V77.0748ZM877.564 70.0078C880.715 70.0078 883.271 67.4179 883.271 64.2257C883.271 61.0335 880.715 58.4436 877.564 58.4436C874.413 58.4436 871.857 61.0335 871.857 64.2257C871.857 67.4179 874.413 70.0078 877.564 70.0078ZM877.564 60.371C879.661 60.371 881.369 62.1016 881.369 64.2257C881.369 66.3498 879.661 68.0804 877.564 68.0804C875.468 68.0804 873.759 66.3498 873.759 64.2257C873.759 62.1016 875.468 60.371 877.564 60.371Z" fill="white"/>
</g>
<rect x="208.665" y="63.116" width="60.7411" height="11.2137" rx="5.60687" fill="white" fill-opacity="0.3"/>
<rect x="297.44" y="63.116" width="60.7411" height="11.2137" rx="5.60687" fill="white" fill-opacity="0.3"/>
<rect x="381.544" y="63.116" width="60.7411" height="11.2137" rx="5.60687" fill="#70CCFF"/>
<rect x="467.515" y="63.116" width="60.7411" height="11.2137" rx="5.60687" fill="white" fill-opacity="0.3"/>
<rect x="557.226" y="63.116" width="60.7411" height="11.2137" rx="5.60687" fill="white" fill-opacity="0.3"/>
<rect x="89.5" y="159.5" width="232" height="406" rx="2.5" fill="white" stroke="#B8CDEB"/>
<rect x="345.5" y="159.5" width="535" height="406" rx="2.5" fill="white" stroke="#B8CDEB"/>
<path d="M370.728 179.047V189H369.012V179.047H370.728ZM374.788 183.401V184.762H370.29V183.401H374.788ZM375.355 179.047V180.414H370.29V179.047H375.355ZM378.322 181.604V189H376.668V181.604H378.322ZM376.559 179.662C376.559 179.411 376.641 179.204 376.805 179.04C376.973 178.871 377.206 178.787 377.502 178.787C377.794 178.787 378.024 178.871 378.192 179.04C378.361 179.204 378.445 179.411 378.445 179.662C378.445 179.908 378.361 180.113 378.192 180.277C378.024 180.441 377.794 180.523 377.502 180.523C377.206 180.523 376.973 180.441 376.805 180.277C376.641 180.113 376.559 179.908 376.559 179.662ZM381.891 178.5V189H380.236V178.5H381.891ZM387.086 181.604V182.807H382.916V181.604H387.086ZM384.119 179.792H385.767V186.956C385.767 187.184 385.799 187.359 385.862 187.482C385.931 187.601 386.024 187.681 386.143 187.722C386.261 187.763 386.4 187.783 386.56 187.783C386.674 187.783 386.783 187.776 386.888 187.763C386.993 187.749 387.077 187.735 387.141 187.722L387.147 188.979C387.011 189.021 386.851 189.057 386.669 189.089C386.491 189.121 386.286 189.137 386.054 189.137C385.675 189.137 385.34 189.071 385.049 188.938C384.757 188.802 384.529 188.581 384.365 188.275C384.201 187.97 384.119 187.564 384.119 187.059V179.792ZM390.012 183.012V189H388.364V181.604H389.937L390.012 183.012ZM392.274 181.556L392.261 183.087C392.16 183.069 392.051 183.055 391.933 183.046C391.819 183.037 391.705 183.032 391.591 183.032C391.308 183.032 391.06 183.073 390.846 183.155C390.632 183.233 390.451 183.347 390.306 183.497C390.164 183.643 390.055 183.821 389.978 184.03C389.9 184.24 389.854 184.475 389.841 184.734L389.465 184.762C389.465 184.297 389.51 183.866 389.602 183.47C389.693 183.073 389.829 182.725 390.012 182.424C390.199 182.123 390.431 181.888 390.709 181.72C390.992 181.551 391.317 181.467 391.687 181.467C391.787 181.467 391.894 181.476 392.008 181.494C392.126 181.512 392.215 181.533 392.274 181.556ZM392.814 185.384V185.227C392.814 184.693 392.892 184.199 393.047 183.743C393.202 183.283 393.425 182.884 393.717 182.547C394.013 182.205 394.373 181.941 394.797 181.754C395.225 181.562 395.708 181.467 396.246 181.467C396.788 181.467 397.271 181.562 397.695 181.754C398.124 181.941 398.486 182.205 398.782 182.547C399.078 182.884 399.304 183.283 399.459 183.743C399.614 184.199 399.691 184.693 399.691 185.227V185.384C399.691 185.917 399.614 186.411 399.459 186.867C399.304 187.323 399.078 187.722 398.782 188.063C398.486 188.401 398.126 188.665 397.702 188.856C397.278 189.043 396.798 189.137 396.26 189.137C395.717 189.137 395.232 189.043 394.804 188.856C394.38 188.665 394.02 188.401 393.724 188.063C393.427 187.722 393.202 187.323 393.047 186.867C392.892 186.411 392.814 185.917 392.814 185.384ZM394.462 185.227V185.384C394.462 185.716 394.496 186.031 394.564 186.327C394.633 186.623 394.74 186.883 394.886 187.106C395.032 187.33 395.218 187.505 395.446 187.633C395.674 187.76 395.945 187.824 396.26 187.824C396.565 187.824 396.829 187.76 397.053 187.633C397.281 187.505 397.467 187.33 397.613 187.106C397.759 186.883 397.866 186.623 397.935 186.327C398.007 186.031 398.044 185.716 398.044 185.384V185.227C398.044 184.898 398.007 184.589 397.935 184.297C397.866 184.001 397.757 183.739 397.606 183.511C397.461 183.283 397.274 183.105 397.046 182.978C396.823 182.845 396.556 182.779 396.246 182.779C395.936 182.779 395.667 182.845 395.439 182.978C395.216 183.105 395.032 183.283 394.886 183.511C394.74 183.739 394.633 184.001 394.564 184.297C394.496 184.589 394.462 184.898 394.462 185.227ZM405.222 186.997C405.222 186.833 405.181 186.685 405.099 186.553C405.017 186.416 404.859 186.293 404.627 186.184C404.399 186.074 404.062 185.974 403.615 185.883C403.223 185.796 402.863 185.694 402.535 185.575C402.212 185.452 401.934 185.304 401.701 185.131C401.469 184.958 401.289 184.753 401.161 184.516C401.034 184.279 400.97 184.005 400.97 183.695C400.97 183.395 401.036 183.11 401.168 182.841C401.3 182.572 401.489 182.335 401.735 182.13C401.981 181.925 402.28 181.763 402.631 181.645C402.986 181.526 403.383 181.467 403.82 181.467C404.44 181.467 404.971 181.572 405.413 181.781C405.86 181.986 406.201 182.267 406.438 182.622C406.675 182.973 406.794 183.369 406.794 183.812H405.146C405.146 183.616 405.096 183.433 404.996 183.265C404.9 183.091 404.755 182.952 404.559 182.848C404.363 182.738 404.117 182.684 403.82 182.684C403.538 182.684 403.303 182.729 403.116 182.82C402.934 182.907 402.797 183.021 402.706 183.162C402.619 183.303 402.576 183.458 402.576 183.627C402.576 183.75 402.599 183.862 402.645 183.962C402.695 184.058 402.777 184.146 402.891 184.229C403.005 184.306 403.16 184.379 403.355 184.447C403.556 184.516 403.807 184.582 404.107 184.646C404.673 184.764 405.158 184.917 405.563 185.104C405.974 185.286 406.288 185.523 406.507 185.814C406.726 186.102 406.835 186.466 406.835 186.908C406.835 187.236 406.764 187.537 406.623 187.811C406.486 188.079 406.286 188.314 406.021 188.515C405.757 188.711 405.44 188.863 405.071 188.973C404.707 189.082 404.297 189.137 403.841 189.137C403.171 189.137 402.604 189.018 402.139 188.781C401.674 188.54 401.321 188.232 401.079 187.858C400.842 187.48 400.724 187.088 400.724 186.683H402.316C402.335 186.988 402.419 187.232 402.569 187.414C402.724 187.592 402.916 187.722 403.144 187.804C403.376 187.881 403.615 187.92 403.861 187.92C404.158 187.92 404.406 187.881 404.606 187.804C404.807 187.722 404.96 187.612 405.064 187.476C405.169 187.334 405.222 187.175 405.222 186.997Z" fill="#4D648D"/>
<path d="M691.888 180.373L688.914 189H687.116L690.862 179.047H692.011L691.888 180.373ZM694.376 189L691.396 180.373L691.266 179.047H692.421L696.181 189H694.376ZM694.232 185.309V186.669H688.818V185.309H694.232ZM700.152 187.824C700.421 187.824 700.663 187.772 700.877 187.667C701.096 187.558 701.271 187.407 701.403 187.216C701.54 187.024 701.615 186.803 701.629 186.553H703.181C703.172 187.031 703.03 187.466 702.757 187.858C702.483 188.25 702.121 188.562 701.67 188.795C701.219 189.023 700.72 189.137 700.173 189.137C699.608 189.137 699.116 189.041 698.696 188.85C698.277 188.654 697.928 188.385 697.65 188.043C697.372 187.701 697.163 187.307 697.021 186.86C696.885 186.414 696.816 185.935 696.816 185.425V185.186C696.816 184.675 696.885 184.197 697.021 183.75C697.163 183.299 697.372 182.902 697.65 182.561C697.928 182.219 698.277 181.952 698.696 181.761C699.116 181.565 699.605 181.467 700.166 181.467C700.758 181.467 701.278 181.585 701.725 181.822C702.171 182.055 702.522 182.381 702.777 182.8C703.037 183.215 703.172 183.698 703.181 184.249H701.629C701.615 183.976 701.547 183.729 701.424 183.511C701.305 183.287 701.137 183.11 700.918 182.978C700.704 182.845 700.446 182.779 700.146 182.779C699.813 182.779 699.537 182.848 699.318 182.984C699.1 183.117 698.929 183.299 698.806 183.531C698.683 183.759 698.594 184.017 698.539 184.304C698.489 184.586 698.464 184.88 698.464 185.186V185.425C698.464 185.73 698.489 186.026 698.539 186.313C698.589 186.601 698.676 186.858 698.799 187.086C698.926 187.309 699.1 187.489 699.318 187.626C699.537 187.758 699.815 187.824 700.152 187.824ZM707.467 187.824C707.736 187.824 707.977 187.772 708.191 187.667C708.41 187.558 708.586 187.407 708.718 187.216C708.854 187.024 708.93 186.803 708.943 186.553H710.495C710.486 187.031 710.345 187.466 710.071 187.858C709.798 188.25 709.436 188.562 708.984 188.795C708.533 189.023 708.034 189.137 707.487 189.137C706.922 189.137 706.43 189.041 706.011 188.85C705.591 188.654 705.243 188.385 704.965 188.043C704.687 187.701 704.477 187.307 704.336 186.86C704.199 186.414 704.131 185.935 704.131 185.425V185.186C704.131 184.675 704.199 184.197 704.336 183.75C704.477 183.299 704.687 182.902 704.965 182.561C705.243 182.219 705.591 181.952 706.011 181.761C706.43 181.565 706.92 181.467 707.48 181.467C708.073 181.467 708.592 181.585 709.039 181.822C709.486 182.055 709.837 182.381 710.092 182.8C710.352 183.215 710.486 183.698 710.495 184.249H708.943C708.93 183.976 708.861 183.729 708.738 183.511C708.62 183.287 708.451 183.11 708.232 182.978C708.018 182.845 707.761 182.779 707.46 182.779C707.127 182.779 706.852 182.848 706.633 182.984C706.414 183.117 706.243 183.299 706.12 183.531C705.997 183.759 705.908 184.017 705.854 184.304C705.803 184.586 705.778 184.88 705.778 185.186V185.425C705.778 185.73 705.803 186.026 705.854 186.313C705.904 186.601 705.99 186.858 706.113 187.086C706.241 187.309 706.414 187.489 706.633 187.626C706.852 187.758 707.13 187.824 707.467 187.824ZM713.523 181.604V189H711.869V181.604H713.523ZM711.76 179.662C711.76 179.411 711.842 179.204 712.006 179.04C712.174 178.871 712.407 178.787 712.703 178.787C712.995 178.787 713.225 178.871 713.394 179.04C713.562 179.204 713.646 179.411 713.646 179.662C713.646 179.908 713.562 180.113 713.394 180.277C713.225 180.441 712.995 180.523 712.703 180.523C712.407 180.523 712.174 180.441 712.006 180.277C711.842 180.113 711.76 179.908 711.76 179.662ZM715.014 185.384V185.227C715.014 184.693 715.091 184.199 715.246 183.743C715.401 183.283 715.624 182.884 715.916 182.547C716.212 182.205 716.572 181.941 716.996 181.754C717.424 181.562 717.908 181.467 718.445 181.467C718.988 181.467 719.471 181.562 719.895 181.754C720.323 181.941 720.685 182.205 720.981 182.547C721.278 182.884 721.503 183.283 721.658 183.743C721.813 184.199 721.891 184.693 721.891 185.227V185.384C721.891 185.917 721.813 186.411 721.658 186.867C721.503 187.323 721.278 187.722 720.981 188.063C720.685 188.401 720.325 188.665 719.901 188.856C719.478 189.043 718.997 189.137 718.459 189.137C717.917 189.137 717.431 189.043 717.003 188.856C716.579 188.665 716.219 188.401 715.923 188.063C715.627 187.722 715.401 187.323 715.246 186.867C715.091 186.411 715.014 185.917 715.014 185.384ZM716.661 185.227V185.384C716.661 185.716 716.695 186.031 716.764 186.327C716.832 186.623 716.939 186.883 717.085 187.106C717.231 187.33 717.418 187.505 717.646 187.633C717.873 187.76 718.145 187.824 718.459 187.824C718.764 187.824 719.029 187.76 719.252 187.633C719.48 187.505 719.667 187.33 719.812 187.106C719.958 186.883 720.065 186.623 720.134 186.327C720.207 186.031 720.243 185.716 720.243 185.384V185.227C720.243 184.898 720.207 184.589 720.134 184.297C720.065 184.001 719.956 183.739 719.806 183.511C719.66 183.283 719.473 183.105 719.245 182.978C719.022 182.845 718.755 182.779 718.445 182.779C718.135 182.779 717.867 182.845 717.639 182.978C717.415 183.105 717.231 183.283 717.085 183.511C716.939 183.739 716.832 184.001 716.764 184.297C716.695 184.589 716.661 184.898 716.661 185.227ZM724.905 183.183V189H723.258V181.604H724.81L724.905 183.183ZM724.611 185.028L724.078 185.021C724.083 184.497 724.156 184.017 724.297 183.579C724.443 183.142 724.643 182.766 724.898 182.451C725.158 182.137 725.468 181.895 725.828 181.727C726.188 181.553 726.589 181.467 727.031 181.467C727.387 181.467 727.708 181.517 727.995 181.617C728.287 181.713 728.535 181.87 728.74 182.089C728.95 182.308 729.109 182.592 729.219 182.943C729.328 183.29 729.383 183.716 729.383 184.222V189H727.729V184.215C727.729 183.859 727.676 183.579 727.571 183.374C727.471 183.164 727.323 183.016 727.127 182.93C726.936 182.839 726.696 182.793 726.409 182.793C726.127 182.793 725.874 182.852 725.65 182.971C725.427 183.089 725.238 183.251 725.083 183.456C724.933 183.661 724.816 183.898 724.734 184.167C724.652 184.436 724.611 184.723 724.611 185.028ZM734.325 189.137C733.778 189.137 733.284 189.048 732.842 188.87C732.404 188.688 732.031 188.435 731.721 188.111C731.415 187.788 731.181 187.407 731.017 186.97C730.853 186.532 730.771 186.061 730.771 185.555V185.281C730.771 184.702 730.855 184.178 731.023 183.709C731.192 183.24 731.427 182.839 731.728 182.506C732.028 182.169 732.384 181.911 732.794 181.733C733.204 181.556 733.648 181.467 734.127 181.467C734.656 181.467 735.118 181.556 735.515 181.733C735.911 181.911 736.239 182.162 736.499 182.485C736.763 182.804 736.959 183.185 737.087 183.627C737.219 184.069 737.285 184.557 737.285 185.09V185.794H731.57V184.611H735.658V184.481C735.649 184.185 735.59 183.907 735.48 183.647C735.376 183.388 735.214 183.178 734.995 183.019C734.776 182.859 734.485 182.779 734.12 182.779C733.847 182.779 733.603 182.839 733.389 182.957C733.179 183.071 733.004 183.237 732.862 183.456C732.721 183.675 732.612 183.939 732.534 184.249C732.461 184.554 732.425 184.898 732.425 185.281V185.555C732.425 185.878 732.468 186.179 732.555 186.457C732.646 186.73 732.778 186.97 732.951 187.175C733.124 187.38 733.334 187.542 733.58 187.66C733.826 187.774 734.106 187.831 734.421 187.831C734.817 187.831 735.171 187.751 735.48 187.592C735.79 187.432 736.059 187.207 736.287 186.915L737.155 187.756C736.996 187.988 736.788 188.212 736.533 188.426C736.278 188.635 735.966 188.806 735.597 188.938C735.232 189.071 734.808 189.137 734.325 189.137ZM742.72 186.997C742.72 186.833 742.679 186.685 742.597 186.553C742.515 186.416 742.357 186.293 742.125 186.184C741.897 186.074 741.56 185.974 741.113 185.883C740.721 185.796 740.361 185.694 740.033 185.575C739.71 185.452 739.432 185.304 739.199 185.131C738.967 184.958 738.787 184.753 738.659 184.516C738.532 184.279 738.468 184.005 738.468 183.695C738.468 183.395 738.534 183.11 738.666 182.841C738.798 182.572 738.987 182.335 739.233 182.13C739.479 181.925 739.778 181.763 740.129 181.645C740.484 181.526 740.881 181.467 741.318 181.467C741.938 181.467 742.469 181.572 742.911 181.781C743.358 181.986 743.7 182.267 743.937 182.622C744.174 182.973 744.292 183.369 744.292 183.812H742.645C742.645 183.616 742.594 183.433 742.494 183.265C742.398 183.091 742.253 182.952 742.057 182.848C741.861 182.738 741.615 182.684 741.318 182.684C741.036 182.684 740.801 182.729 740.614 182.82C740.432 182.907 740.295 183.021 740.204 183.162C740.118 183.303 740.074 183.458 740.074 183.627C740.074 183.75 740.097 183.862 740.143 183.962C740.193 184.058 740.275 184.146 740.389 184.229C740.503 184.306 740.658 184.379 740.854 184.447C741.054 184.516 741.305 184.582 741.605 184.646C742.171 184.764 742.656 184.917 743.062 185.104C743.472 185.286 743.786 185.523 744.005 185.814C744.224 186.102 744.333 186.466 744.333 186.908C744.333 187.236 744.262 187.537 744.121 187.811C743.984 188.079 743.784 188.314 743.52 188.515C743.255 188.711 742.938 188.863 742.569 188.973C742.205 189.082 741.795 189.137 741.339 189.137C740.669 189.137 740.102 189.018 739.637 188.781C739.172 188.54 738.819 188.232 738.577 187.858C738.34 187.48 738.222 187.088 738.222 186.683H739.814C739.833 186.988 739.917 187.232 740.067 187.414C740.222 187.592 740.414 187.722 740.642 187.804C740.874 187.881 741.113 187.92 741.359 187.92C741.656 187.92 741.904 187.881 742.104 187.804C742.305 187.722 742.458 187.612 742.562 187.476C742.667 187.334 742.72 187.175 742.72 186.997Z" fill="#4D648D"/>
<rect width="63" height="1" transform="matrix(1 0 0 -1 368 222)" fill="#4D648D"/>
<rect width="63" height="1" transform="matrix(1 0 0 -1 368 255)" fill="#4D648D"/>
<rect width="63" height="1" transform="matrix(1 0 0 -1 445 222)" fill="#4D648D"/>
<rect width="63" height="1" transform="matrix(1 0 0 -1 445 255)" fill="#4D648D"/>
<rect width="63" height="1" transform="matrix(1 0 0 -1 521 222)" fill="#4D648D"/>
<rect width="63" height="1" transform="matrix(1 0 0 -1 598 222)" fill="#4D648D"/>
<rect width="63" height="1" transform="matrix(1 0 0 -1 521 255)" fill="#4D648D"/>
<rect width="63" height="1" transform="matrix(1 0 0 -1 598 255)" fill="#4D648D"/>
<mask id="mask1_164_478" style="mask-type:alpha" maskUnits="userSpaceOnUse" x="144" y="151" width="7" height="11">
<path d="M144.226 156.868L148.168 160.843C148.441 161.117 148.882 161.117 149.151 160.843L149.807 160.182C150.079 159.907 150.079 159.463 149.807 159.191L147.012 156.374L149.807 153.556C150.079 153.281 150.079 152.837 149.807 152.565L149.151 151.905C148.879 151.63 148.438 151.63 148.168 151.905L144.226 155.88C143.953 156.149 143.953 156.593 144.226 156.868Z" fill="white"/>
</mask>
<g mask="url(#mask1_164_478)">
<path d="M144.226 156.868L148.168 160.843C148.441 161.117 148.882 161.117 149.151 160.843L149.807 160.182C150.079 159.907 150.079 159.463 149.807 159.191L147.012 156.374L149.807 153.556C150.079 153.281 150.079 152.837 149.807 152.565L149.151 151.905C148.879 151.63 148.438 151.63 148.168 151.905L144.226 155.88C143.953 156.149 143.953 156.593 144.226 156.868Z" fill="black"/>
<path d="M154.447 148.89L154.447 163.854L139.603 163.854L139.603 148.89L154.447 148.89Z" fill="white"/>
</g>
<path d="M321.5 131.145V166.911H89.5V131.145C89.5 130.878 89.5303 130.651 89.5706 130.5H321.429C321.47 130.651 321.5 130.878 321.5 131.145Z" fill="#F4F8FF" stroke="#D7E1F1"/>
<path d="M862 318H345V347H862V318Z" fill="white"/>
<path d="M862 347H345V376H862V347Z" fill="#F8FAFF"/>
<path d="M862 376H345V405H862V376Z" fill="white"/>
<path d="M862 405H345V434H862V405Z" fill="#F8FAFF"/>
<path d="M862 463H345V492H862V463Z" fill="#F8FAFF"/>
<path d="M862 521H345V550H862V521Z" fill="#F8FAFF"/>
<path d="M862 434H345V463H862V434Z" fill="white"/>
<path d="M862 492H345V521H862V492Z" fill="white"/>
<path d="M321.5 168.145V203.911H89.5V168.145C89.5 167.878 89.5303 167.651 89.5706 167.5H321.429C321.47 167.651 321.5 167.878 321.5 168.145Z" fill="#4D648D" stroke="#D7E1F1"/>
<path d="M861.5 286.949V316.5H345.5V286.949C345.5 286.789 345.551 286.662 345.611 286.585C345.67 286.508 345.719 286.5 345.738 286.5H861.262C861.281 286.5 861.33 286.508 861.389 286.585C861.449 286.662 861.5 286.789 861.5 286.949Z" fill="#4D648D" stroke="#D7E1F1"/>
<path d="M770.5 210.949V240.5H708.5V210.949C708.5 210.782 708.504 210.629 708.511 210.5H770.489C770.496 210.629 770.5 210.782 770.5 210.949ZM708.544 210.18C708.544 210.18 708.543 210.181 708.543 210.183C708.543 210.181 708.544 210.18 708.544 210.18ZM770.456 210.18C770.456 210.18 770.457 210.181 770.457 210.183C770.457 210.181 770.456 210.18 770.456 210.18Z" fill="#4D648D" stroke="#D7E1F1"/>
<path d="M869.5 210.949V240.5H807.5V210.949C807.5 210.782 807.504 210.629 807.511 210.5H869.489C869.496 210.629 869.5 210.782 869.5 210.949ZM807.544 210.18C807.544 210.18 807.543 210.181 807.543 210.183C807.543 210.181 807.544 210.18 807.544 210.18ZM869.456 210.18C869.456 210.18 869.457 210.181 869.457 210.183C869.457 210.181 869.456 210.18 869.456 210.18Z" stroke="#D7E1F1"/>
<path d="M321.5 205.145V240.911H89.5V205.145C89.5 204.878 89.5303 204.651 89.5706 204.5H321.429C321.47 204.651 321.5 204.878 321.5 205.145Z" fill="#F4F8FF" stroke="#D7E1F1"/>
<path d="M321.5 242.145V277.911H89.5V242.145C89.5 241.878 89.5303 241.651 89.5706 241.5H321.429C321.47 241.651 321.5 241.878 321.5 242.145Z" fill="#F4F8FF" stroke="#D7E1F1"/>
<path d="M321.5 279.145V314.911H89.5V279.145C89.5 278.878 89.5303 278.651 89.5706 278.5H321.429C321.47 278.651 321.5 278.878 321.5 279.145Z" fill="#F4F8FF" stroke="#D7E1F1"/>
<path d="M321.5 316.145V351.911H89.5V316.145C89.5 315.878 89.5303 315.651 89.5706 315.5H321.429C321.47 315.651 321.5 315.878 321.5 316.145Z" fill="#F4F8FF" stroke="#D7E1F1"/>
<path d="M321.5 353.145V388.911H89.5V353.145C89.5 352.878 89.5303 352.651 89.5706 352.5H321.429C321.47 352.651 321.5 352.878 321.5 353.145Z" fill="#F4F8FF" stroke="#D7E1F1"/>
<path d="M321.5 390.145V425.911H89.5V390.145C89.5 389.878 89.5303 389.651 89.5706 389.5H321.429C321.47 389.651 321.5 389.878 321.5 390.145Z" fill="#F4F8FF" stroke="#D7E1F1"/>
<path d="M321.5 427.145V462.911H89.5V427.145C89.5 426.878 89.5303 426.651 89.5706 426.5H321.429C321.47 426.651 321.5 426.878 321.5 427.145Z" fill="#F4F8FF" stroke="#D7E1F1"/>
<path d="M880.5 131.145V166.911H345.5V131.145C345.5 130.914 345.563 130.727 345.64 130.613C345.677 130.557 345.712 130.527 345.735 130.512C345.755 130.5 345.764 130.5 345.765 130.5C345.765 130.5 345.765 130.5 345.765 130.5H880.235C880.236 130.5 880.245 130.499 880.265 130.512C880.288 130.527 880.323 130.557 880.36 130.613C880.437 130.727 880.5 130.914 880.5 131.145Z" fill="url(#paint2_linear_164_478)" stroke="#7091F5"/>
<path d="M370.844 144.047V154H369.128V144.047H370.844ZM374.446 148.183V154H372.799V146.604H374.351L374.446 148.183ZM374.152 150.028L373.619 150.021C373.624 149.497 373.697 149.017 373.838 148.579C373.984 148.142 374.184 147.766 374.439 147.451C374.699 147.137 375.009 146.895 375.369 146.727C375.729 146.553 376.13 146.467 376.572 146.467C376.928 146.467 377.249 146.517 377.536 146.617C377.828 146.713 378.076 146.87 378.281 147.089C378.491 147.308 378.65 147.592 378.76 147.943C378.869 148.29 378.924 148.716 378.924 149.222V154H377.27V149.215C377.27 148.859 377.217 148.579 377.112 148.374C377.012 148.164 376.864 148.016 376.668 147.93C376.477 147.839 376.237 147.793 375.95 147.793C375.668 147.793 375.415 147.852 375.191 147.971C374.968 148.089 374.779 148.251 374.624 148.456C374.474 148.661 374.357 148.898 374.275 149.167C374.193 149.436 374.152 149.723 374.152 150.028ZM382.834 154H381.187V145.893C381.187 145.341 381.289 144.879 381.494 144.505C381.704 144.127 382.002 143.842 382.39 143.65C382.777 143.454 383.235 143.356 383.764 143.356C383.928 143.356 384.09 143.368 384.249 143.391C384.409 143.409 384.563 143.438 384.714 143.479L384.673 144.751C384.582 144.728 384.481 144.712 384.372 144.703C384.267 144.694 384.153 144.689 384.03 144.689C383.78 144.689 383.563 144.737 383.381 144.833C383.203 144.924 383.066 145.059 382.971 145.236C382.88 145.414 382.834 145.633 382.834 145.893V154ZM384.358 146.604V147.807H380.052V146.604H384.358ZM385.24 150.384V150.227C385.24 149.693 385.318 149.199 385.473 148.743C385.628 148.283 385.851 147.884 386.143 147.547C386.439 147.205 386.799 146.941 387.223 146.754C387.651 146.562 388.134 146.467 388.672 146.467C389.214 146.467 389.697 146.562 390.121 146.754C390.549 146.941 390.912 147.205 391.208 147.547C391.504 147.884 391.73 148.283 391.885 148.743C392.04 149.199 392.117 149.693 392.117 150.227V150.384C392.117 150.917 392.04 151.411 391.885 151.867C391.73 152.323 391.504 152.722 391.208 153.063C390.912 153.401 390.552 153.665 390.128 153.856C389.704 154.043 389.223 154.137 388.686 154.137C388.143 154.137 387.658 154.043 387.229 153.856C386.806 153.665 386.446 153.401 386.149 153.063C385.853 152.722 385.628 152.323 385.473 151.867C385.318 151.411 385.24 150.917 385.24 150.384ZM386.888 150.227V150.384C386.888 150.716 386.922 151.031 386.99 151.327C387.059 151.623 387.166 151.883 387.312 152.106C387.457 152.33 387.644 152.505 387.872 152.633C388.1 152.76 388.371 152.824 388.686 152.824C388.991 152.824 389.255 152.76 389.479 152.633C389.706 152.505 389.893 152.33 390.039 152.106C390.185 151.883 390.292 151.623 390.36 151.327C390.433 151.031 390.47 150.716 390.47 150.384V150.227C390.47 149.898 390.433 149.589 390.36 149.297C390.292 149.001 390.183 148.739 390.032 148.511C389.886 148.283 389.7 148.105 389.472 147.978C389.248 147.845 388.982 147.779 388.672 147.779C388.362 147.779 388.093 147.845 387.865 147.978C387.642 148.105 387.457 148.283 387.312 148.511C387.166 148.739 387.059 149.001 386.99 149.297C386.922 149.589 386.888 149.898 386.888 150.227ZM395.152 148.012V154H393.505V146.604H395.077L395.152 148.012ZM397.415 146.556L397.401 148.087C397.301 148.069 397.192 148.055 397.073 148.046C396.959 148.037 396.845 148.032 396.731 148.032C396.449 148.032 396.201 148.073 395.986 148.155C395.772 148.233 395.592 148.347 395.446 148.497C395.305 148.643 395.196 148.821 395.118 149.03C395.041 149.24 394.995 149.475 394.981 149.734L394.605 149.762C394.605 149.297 394.651 148.866 394.742 148.47C394.833 148.073 394.97 147.725 395.152 147.424C395.339 147.123 395.572 146.888 395.85 146.72C396.132 146.551 396.458 146.467 396.827 146.467C396.927 146.467 397.035 146.476 397.148 146.494C397.267 146.512 397.356 146.533 397.415 146.556ZM400.095 148.107V154H398.447V146.604H399.999L400.095 148.107ZM399.828 150.028L399.268 150.021C399.268 149.511 399.331 149.039 399.459 148.606C399.587 148.174 399.773 147.798 400.02 147.479C400.266 147.155 400.571 146.907 400.936 146.733C401.305 146.556 401.731 146.467 402.214 146.467C402.551 146.467 402.859 146.517 403.137 146.617C403.419 146.713 403.663 146.866 403.868 147.075C404.078 147.285 404.237 147.554 404.347 147.882C404.461 148.21 404.518 148.606 404.518 149.071V154H402.87V149.215C402.87 148.855 402.815 148.572 402.706 148.367C402.601 148.162 402.449 148.016 402.248 147.93C402.052 147.839 401.817 147.793 401.544 147.793C401.234 147.793 400.97 147.852 400.751 147.971C400.537 148.089 400.361 148.251 400.225 148.456C400.088 148.661 399.988 148.898 399.924 149.167C399.86 149.436 399.828 149.723 399.828 150.028ZM404.415 149.591L403.643 149.762C403.643 149.315 403.704 148.894 403.827 148.497C403.955 148.096 404.139 147.745 404.381 147.444C404.627 147.139 404.93 146.9 405.29 146.727C405.65 146.553 406.062 146.467 406.527 146.467C406.906 146.467 407.243 146.519 407.539 146.624C407.84 146.724 408.095 146.884 408.305 147.103C408.514 147.321 408.674 147.606 408.783 147.957C408.893 148.303 408.947 148.723 408.947 149.215V154H407.293V149.208C407.293 148.834 407.238 148.545 407.129 148.34C407.024 148.135 406.874 147.993 406.678 147.916C406.482 147.834 406.247 147.793 405.974 147.793C405.718 147.793 405.493 147.841 405.297 147.937C405.105 148.028 404.944 148.158 404.812 148.326C404.679 148.49 404.579 148.679 404.511 148.894C404.447 149.108 404.415 149.34 404.415 149.591ZM413.903 154.137C413.356 154.137 412.862 154.048 412.42 153.87C411.982 153.688 411.609 153.435 411.299 153.111C410.993 152.788 410.759 152.407 410.595 151.97C410.431 151.532 410.349 151.061 410.349 150.555V150.281C410.349 149.702 410.433 149.178 410.602 148.709C410.77 148.24 411.005 147.839 411.306 147.506C411.606 147.169 411.962 146.911 412.372 146.733C412.782 146.556 413.227 146.467 413.705 146.467C414.234 146.467 414.696 146.556 415.093 146.733C415.489 146.911 415.817 147.162 416.077 147.485C416.341 147.804 416.537 148.185 416.665 148.627C416.797 149.069 416.863 149.557 416.863 150.09V150.794H411.148V149.611H415.236V149.481C415.227 149.185 415.168 148.907 415.059 148.647C414.954 148.388 414.792 148.178 414.573 148.019C414.354 147.859 414.063 147.779 413.698 147.779C413.425 147.779 413.181 147.839 412.967 147.957C412.757 148.071 412.582 148.237 412.44 148.456C412.299 148.675 412.19 148.939 412.112 149.249C412.039 149.554 412.003 149.898 412.003 150.281V150.555C412.003 150.878 412.046 151.179 412.133 151.457C412.224 151.73 412.356 151.97 412.529 152.175C412.702 152.38 412.912 152.542 413.158 152.66C413.404 152.774 413.685 152.831 413.999 152.831C414.396 152.831 414.749 152.751 415.059 152.592C415.368 152.432 415.637 152.207 415.865 151.915L416.733 152.756C416.574 152.988 416.367 153.212 416.111 153.426C415.856 153.635 415.544 153.806 415.175 153.938C414.81 154.071 414.386 154.137 413.903 154.137ZM422.298 151.997C422.298 151.833 422.257 151.685 422.175 151.553C422.093 151.416 421.936 151.293 421.703 151.184C421.475 151.074 421.138 150.974 420.691 150.883C420.299 150.796 419.939 150.694 419.611 150.575C419.288 150.452 419.01 150.304 418.777 150.131C418.545 149.958 418.365 149.753 418.237 149.516C418.11 149.279 418.046 149.005 418.046 148.695C418.046 148.395 418.112 148.11 418.244 147.841C418.376 147.572 418.565 147.335 418.812 147.13C419.058 146.925 419.356 146.763 419.707 146.645C420.062 146.526 420.459 146.467 420.896 146.467C421.516 146.467 422.047 146.572 422.489 146.781C422.936 146.986 423.278 147.267 423.515 147.622C423.752 147.973 423.87 148.369 423.87 148.812H422.223C422.223 148.616 422.173 148.433 422.072 148.265C421.977 148.091 421.831 147.952 421.635 147.848C421.439 147.738 421.193 147.684 420.896 147.684C420.614 147.684 420.379 147.729 420.192 147.82C420.01 147.907 419.873 148.021 419.782 148.162C419.696 148.303 419.652 148.458 419.652 148.627C419.652 148.75 419.675 148.862 419.721 148.962C419.771 149.058 419.853 149.146 419.967 149.229C420.081 149.306 420.236 149.379 420.432 149.447C420.632 149.516 420.883 149.582 421.184 149.646C421.749 149.764 422.234 149.917 422.64 150.104C423.05 150.286 423.364 150.523 423.583 150.814C423.802 151.102 423.911 151.466 423.911 151.908C423.911 152.236 423.84 152.537 423.699 152.811C423.562 153.079 423.362 153.314 423.098 153.515C422.833 153.711 422.517 153.863 422.147 153.973C421.783 154.082 421.373 154.137 420.917 154.137C420.247 154.137 419.68 154.018 419.215 153.781C418.75 153.54 418.397 153.232 418.155 152.858C417.918 152.48 417.8 152.088 417.8 151.683H419.393C419.411 151.988 419.495 152.232 419.646 152.414C419.8 152.592 419.992 152.722 420.22 152.804C420.452 152.881 420.691 152.92 420.938 152.92C421.234 152.92 421.482 152.881 421.683 152.804C421.883 152.722 422.036 152.612 422.141 152.476C422.245 152.334 422.298 152.175 422.298 151.997Z" fill="white"/>
<rect x="108" y="143" width="85" height="12" rx="6" fill="#4D648D"/>
<rect x="138" y="180" width="85" height="9" rx="4.5" fill="#70CCFF"/>
<rect x="138" y="218" width="85" height="9" rx="4.5" fill="#4D648D"/>
<rect x="138" y="256" width="85" height="9" rx="4.5" fill="#4D648D"/>
<rect x="108" y="291" width="85" height="12" rx="6" fill="#4D648D"/>
<rect x="108" y="328" width="85" height="12" rx="6" fill="#4D648D"/>
<rect x="108" y="365" width="85" height="12" rx="6" fill="#4D648D"/>
<rect x="108" y="402" width="85" height="12" rx="6" fill="#4D648D"/>
<rect x="108" y="439" width="85" height="12" rx="6" fill="#4D648D"/>
<path fill-rule="evenodd" clip-rule="evenodd" d="M292.649 153.434C293.463 154.18 294.728 154.125 295.474 153.311L299.5 148.919L303.526 153.311C304.272 154.125 305.537 154.18 306.351 153.434C307.166 152.688 307.221 151.422 306.474 150.608L299.5 143L292.526 150.608C291.779 151.422 291.834 152.688 292.649 153.434Z" fill="#4D648D"/>
<path fill-rule="evenodd" clip-rule="evenodd" d="M292.649 292.526C293.463 291.779 294.728 291.834 295.474 292.649L299.5 297.04L303.526 292.649C304.272 291.834 305.537 291.779 306.351 292.526C307.166 293.272 307.221 294.537 306.474 295.351L299.5 302.96L292.526 295.351C291.779 294.537 291.834 293.272 292.649 292.526Z" fill="#4D648D"/>
<path fill-rule="evenodd" clip-rule="evenodd" d="M292.649 329.526C293.463 328.779 294.728 328.834 295.474 329.649L299.5 334.04L303.526 329.649C304.272 328.834 305.537 328.779 306.351 329.526C307.166 330.272 307.221 331.537 306.474 332.351L299.5 339.96L292.526 332.351C291.779 331.537 291.834 330.272 292.649 329.526Z" fill="#4D648D"/>
<path fill-rule="evenodd" clip-rule="evenodd" d="M292.649 366.526C293.463 365.779 294.728 365.834 295.474 366.649L299.5 371.04L303.526 366.649C304.272 365.834 305.537 365.779 306.351 366.526C307.166 367.272 307.221 368.537 306.474 369.351L299.5 376.96L292.526 369.351C291.779 368.537 291.834 367.272 292.649 366.526Z" fill="#4D648D"/>
<path fill-rule="evenodd" clip-rule="evenodd" d="M292.649 403.526C293.463 402.779 294.728 402.834 295.474 403.649L299.5 408.04L303.526 403.649C304.272 402.834 305.537 402.779 306.351 403.526C307.166 404.272 307.221 405.537 306.474 406.351L299.5 413.96L292.526 406.351C291.779 405.537 291.834 404.272 292.649 403.526Z" fill="#4D648D"/>
<path fill-rule="evenodd" clip-rule="evenodd" d="M292.649 440.526C293.463 439.779 294.728 439.834 295.474 440.649L299.5 445.04L303.526 440.649C304.272 439.834 305.537 439.779 306.351 440.526C307.166 441.272 307.221 442.537 306.474 443.351L299.5 450.96L292.526 443.351C291.779 442.537 291.834 441.272 292.649 440.526Z" fill="#4D648D"/>
<path fill-rule="evenodd" clip-rule="evenodd" d="M297.329 182.011C296.623 181.364 296.575 180.268 297.222 179.562C297.869 178.856 298.966 178.809 299.671 179.456L306.265 185.5L299.671 191.544C298.966 192.191 297.869 192.144 297.222 191.438C296.575 190.732 296.623 189.636 297.329 188.989L299.244 187.233L292 187.233L292 183.767L299.244 183.767L297.329 182.011Z" fill="#70CCFF"/>
<path fill-rule="evenodd" clip-rule="evenodd" d="M297.329 219.011C296.623 218.364 296.575 217.268 297.222 216.562C297.869 215.856 298.966 215.809 299.671 216.456L306.265 222.5L299.671 228.544C298.966 229.191 297.869 229.144 297.222 228.438C296.575 227.732 296.623 226.636 297.329 225.989L299.244 224.233L292 224.233V220.767L299.244 220.767L297.329 219.011Z" fill="#4D648D"/>
<path fill-rule="evenodd" clip-rule="evenodd" d="M297.329 256.011C296.623 255.364 296.575 254.268 297.222 253.562C297.869 252.856 298.966 252.809 299.671 253.456L306.265 259.5L299.671 265.544C298.966 266.191 297.869 266.144 297.222 265.438C296.575 264.732 296.623 263.636 297.329 262.989L299.244 261.233L292 261.233V257.767L299.244 257.767L297.329 256.011Z" fill="#4D648D"/>
<rect x="459" y="326" width="103" height="13" rx="6.5" fill="#E2E9FF"/>
<rect x="603" y="326" width="68" height="13" rx="6.5" fill="#E2E9FF"/>
<rect x="705" y="326" width="58" height="13" rx="6.5" fill="#E2E9FF"/>
<rect x="815" y="326" width="32" height="13" rx="6.5" fill="#E2E9FF"/>
<rect x="359" y="326" width="41" height="13" rx="6.5" fill="#E2E9FF"/>
<rect x="459" y="384" width="103" height="13" rx="6.5" fill="#E2E9FF"/>
<rect x="603" y="384" width="71" height="13" rx="6.5" fill="#E2E9FF"/>
<rect x="705" y="384" width="76" height="13" rx="6.5" fill="#E2E9FF"/>
<rect x="815" y="384" width="32" height="13" rx="6.5" fill="#E2E9FF"/>
<rect x="459" y="413" width="89" height="13" rx="6.5" fill="#E2E9FF"/>
<rect x="603" y="413" width="64" height="13" rx="6.5" fill="#E2E9FF"/>
<rect x="705" y="413" width="70" height="13" rx="6.5" fill="#E2E9FF"/>
<rect x="815" y="413" width="32" height="13" rx="6.5" fill="#E2E9FF"/>
<rect x="359" y="384" width="69" height="13" rx="6.5" fill="#E2E9FF"/>
<rect x="459" y="355" width="110" height="13" rx="6.5" fill="#E2E9FF"/>
<rect x="603" y="355" width="64" height="13" rx="6.5" fill="#E2E9FF"/>
<rect x="705" y="355" width="68" height="13" rx="6.5" fill="#E2E9FF"/>
<rect x="815" y="355" width="32" height="13" rx="6.5" fill="#E2E9FF"/>
<rect x="359" y="413" width="52" height="13" rx="6.5" fill="#E2E9FF"/>
<rect x="359" y="355" width="63" height="13" rx="6.5" fill="#E2E9FF"/>
<rect x="459" y="442" width="99" height="13" rx="6.5" fill="#E2E9FF"/>
<rect x="603" y="442" width="71" height="13" rx="6.5" fill="#E2E9FF"/>
<rect x="705" y="442" width="58" height="13" rx="6.5" fill="#E2E9FF"/>
<rect x="815" y="442" width="32" height="13" rx="6.5" fill="#E2E9FF"/>
<rect x="359" y="442" width="69" height="13" rx="6.5" fill="#E2E9FF"/>
<defs>
<filter id="filter0_d_164_478" x="0.5" y="0.5" width="976" height="669" filterUnits="userSpaceOnUse" color-interpolation-filters="sRGB">
<feFlood flood-opacity="0" result="BackgroundImageFix"/>
<feColorMatrix in="SourceAlpha" type="matrix" values="0 0 0 0 0 0 0 0 0 0 0 0 0 0 0 0 0 0 127 0" result="hardAlpha"/>
<feOffset dx="4" dy="4"/>
<feGaussianBlur stdDeviation="9"/>
<feColorMatrix type="matrix" values="0 0 0 0 0.321569 0 0 0 0 0.392157 0 0 0 0 0.541176 0 0 0 0.3 0"/>
<feBlend mode="normal" in2="BackgroundImageFix" result="effect1_dropShadow_164_478"/>
<feBlend mode="normal" in="SourceGraphic" in2="effect1_dropShadow_164_478" result="shape"/>
</filter>
<linearGradient id="paint0_linear_164_478" x1="484.5" y1="331" x2="811.266" y2="964.378" gradientUnits="userSpaceOnUse">
<stop stop-color="white"/>
<stop offset="1" stop-color="#EDF3FC"/>
</linearGradient>
<linearGradient id="paint1_linear_164_478" x1="48.3942" y1="46.6116" x2="570.241" y2="845.337" gradientUnits="userSpaceOnUse">
<stop stop-color="#7DB8FF"/>
<stop offset="0.0621" stop-color="#7CB6FF"/>
<stop offset="1" stop-color="#7194FF"/>
</linearGradient>
<linearGradient id="paint2_linear_164_478" x1="293.412" y1="148.581" x2="537.303" y2="197.31" gradientUnits="userSpaceOnUse">
<stop stop-color="#A1C0FF"/>
<stop offset="1" stop-color="#7093FF"/>
</linearGradient>
<clipPath id="clip0_164_478">
<rect width="17.7551" height="20.5585" fill="white" transform="translate(868.687 58.4436)"/>
</clipPath>
</defs>
</svg>
