<svg width="977" height="670" viewBox="0 0 977 670" fill="none" xmlns="http://www.w3.org/2000/svg">
<g filter="url(#filter0_d_101_412)">
<rect x="15" y="15" width="939" height="632" rx="36" fill="url(#paint0_linear_101_412)"/>
<rect x="15" y="15" width="939" height="632" rx="36" stroke="#B7C9DE"/>
</g>
<rect opacity="0.3" x="47" y="45" width="870" height="567" rx="28" fill="url(#paint1_linear_101_412)"/>
<path d="M917 73.3608C917 57.8969 904.464 45.3608 889 45.3608H75C59.536 45.3608 47 57.8969 47 73.3608V90.2158H917V73.3608Z" fill="#4D648D"/>
<path d="M639.46 55.3852C639.46 53.9777 640.655 52.8367 642.13 52.8367H805.93C807.405 52.8367 808.6 53.9777 808.6 55.3852V78.3225C808.6 79.73 807.405 80.871 805.93 80.871H642.13C640.655 80.871 639.46 79.73 639.46 78.3225V55.3852Z" fill="white"/>
<mask id="mask0_101_412" style="mask-type:alpha" maskUnits="userSpaceOnUse" x="787" y="60" width="15" height="14">
<path d="M800.931 71.9615L798.301 69.3317C798.182 69.213 798.021 69.147 797.852 69.147H797.422C798.15 68.2159 798.583 67.0448 798.583 65.7708C798.583 62.7401 796.127 60.2844 793.096 60.2844C790.064 60.2844 787.608 62.7401 787.608 65.7708C787.608 68.8015 790.064 71.2572 793.096 71.2572C794.37 71.2572 795.541 70.8246 796.472 70.0966V70.5266C796.472 70.6954 796.538 70.8563 796.657 70.975L799.287 73.6047C799.535 73.8527 799.936 73.8527 800.182 73.6047L800.928 72.8583C801.176 72.6103 801.176 72.2094 800.931 71.9615ZM793.096 69.147C791.23 69.147 789.719 67.6383 789.719 65.7708C789.719 63.906 791.228 62.3946 793.096 62.3946C794.961 62.3946 796.472 63.9033 796.472 65.7708C796.472 67.6357 794.963 69.147 793.096 69.147Z" fill="white"/>
</mask>
<g mask="url(#mask0_101_412)">
<path d="M800.931 71.9615L798.301 69.3317C798.182 69.213 798.021 69.147 797.852 69.147H797.422C798.15 68.2159 798.583 67.0448 798.583 65.7708C798.583 62.7401 796.127 60.2844 793.096 60.2844C790.064 60.2844 787.608 62.7401 787.608 65.7708C787.608 68.8015 790.064 71.2572 793.096 71.2572C794.37 71.2572 795.541 70.8246 796.472 70.0966V70.5266C796.472 70.6954 796.538 70.8563 796.657 70.975L799.287 73.6047C799.535 73.8527 799.936 73.8527 800.182 73.6047L800.928 72.8583C801.176 72.6103 801.176 72.2094 800.931 71.9615ZM793.096 69.147C791.23 69.147 789.719 67.6383 789.719 65.7708C789.719 63.906 791.228 62.3946 793.096 62.3946C794.961 62.3946 796.472 63.9033 796.472 65.7708C796.472 67.6357 794.963 69.147 793.096 69.147Z" fill="black"/>
<path d="M801.114 60.2844H787.608V73.7907H801.114V60.2844Z" fill="#4D648D"/>
</g>
<path fill-rule="evenodd" clip-rule="evenodd" d="M81.3633 63.7909L77.4011 75.0733C76.925 76.4288 75.4788 77.1277 74.1708 76.6343C72.8628 76.141 72.1885 74.6421 72.6645 73.2866L76.6268 62.0042C77.1029 60.6487 78.5491 59.9498 79.8571 60.4431C81.165 60.9365 81.8394 62.4354 81.3633 63.7909Z" fill="white"/>
<path fill-rule="evenodd" clip-rule="evenodd" d="M91.8562 60.9625L86.7914 74.9883C86.2777 76.4108 84.7173 77.1442 83.306 76.6265C81.8948 76.1087 81.1671 74.5359 81.6808 73.1135L86.7456 59.0876C87.2593 57.6652 88.8197 56.9318 90.2309 57.4495C91.6422 57.9672 92.3698 59.54 91.8562 60.9625Z" fill="white"/>
<path fill-rule="evenodd" clip-rule="evenodd" d="M102.349 59.3924L96.1786 75.0226C95.6276 76.4182 93.9539 77.1377 92.4402 76.6298C90.9265 76.1219 90.146 74.5788 90.697 73.1832L96.8675 57.553C97.4185 56.1575 99.0922 55.4379 100.606 55.9459C102.12 56.4538 102.9 57.9969 102.349 59.3924Z" fill="white"/>
<path d="M116.838 72.2905V61.7856H115.803L112.724 69.2364L109.564 61.7856H108.528V72.2905H109.564V64.3086L112.261 70.6381H113.147L115.803 64.3086V72.2905H116.838Z" fill="white"/>
<path d="M129.077 72.2905V71.2872H124.091V67.4955H128.342V66.4922H124.091V62.7889H129.077V61.7856H123.056V72.2905H129.077Z" fill="white"/>
<path d="M141.36 67.0381C141.36 65.4299 141.36 63.8955 140.502 62.8922C139.848 62.125 139.044 61.7856 137.954 61.7856H134.63V72.2905H137.954C139.044 72.2905 139.848 71.9512 140.502 71.184C141.36 70.1807 141.36 68.6463 141.36 67.0381ZM140.325 67.0381C140.325 68.4987 140.311 69.7971 139.684 70.52C139.194 71.1102 138.513 71.2872 137.777 71.2872H135.666V62.7889H137.777C138.513 62.7889 139.194 62.966 139.684 63.5561C140.311 64.2791 140.325 65.5774 140.325 67.0381Z" fill="white"/>
<path d="M148.238 72.2905V61.7856H147.202V72.2905H148.238Z" fill="white"/>
<path d="M161.618 72.2905V61.7856H160.583V70.1807L155.434 61.7856H154.453V72.2905H155.488V63.866L160.638 72.2905H161.618Z" fill="white"/>
<path d="M173.858 72.2905V71.2872H168.872V67.4955H173.122V66.4922H168.872V62.7889H173.858V61.7856H167.836V72.2905H173.858Z" fill="white"/>
<path d="M185.064 62.7889V61.7856H178.416V62.7889H181.222V72.2905H182.258V62.7889H185.064Z" fill="white"/>
<path d="M845.414 72.5472C844.648 71.7136 843.216 70.4596 843.216 66.3519C843.216 63.232 841.056 60.7344 838.145 60.1217V59.2849C838.145 58.5754 837.577 58 836.878 58C836.178 58 835.61 58.5754 835.61 59.2849V60.1217C832.699 60.7344 830.54 63.232 830.54 66.3519C830.54 70.4596 829.107 71.7136 828.341 72.5472C828.103 72.8062 827.998 73.1157 828 73.4189C828.004 74.0774 828.514 74.7038 829.272 74.7038H844.483C845.241 74.7038 845.751 74.0774 845.755 73.4189C845.757 73.1157 845.652 72.8058 845.414 72.5472ZM830.676 72.7765C831.517 71.6534 832.437 69.7918 832.441 66.3752C832.441 66.3672 832.439 66.3599 832.439 66.3519C832.439 63.868 834.426 61.8547 836.878 61.8547C839.329 61.8547 841.316 63.868 841.316 66.3519C841.316 66.3599 841.314 66.3672 841.314 66.3752C841.318 69.7923 842.238 71.6538 843.079 72.7765H830.676ZM836.878 78.5585C838.277 78.5585 839.413 77.4081 839.413 75.9887H834.342C834.342 77.4081 835.478 78.5585 836.878 78.5585Z" fill="white"/>
<g clip-path="url(#clip0_101_412)">
<path d="M881.115 70.6502C879.978 70.6502 879.431 71.2927 877.564 71.2927C875.697 71.2927 875.154 70.6502 874.013 70.6502C871.072 70.6502 868.687 73.0675 868.687 76.0469V77.0748C868.687 78.1388 869.539 79.0021 870.589 79.0021H884.539C885.59 79.0021 886.442 78.1388 886.442 77.0748V76.0469C886.442 73.0675 884.056 70.6502 881.115 70.6502ZM884.539 77.0748H870.589V76.0469C870.589 74.1356 872.127 72.5776 874.013 72.5776C874.592 72.5776 875.531 73.2201 877.564 73.2201C879.613 73.2201 880.533 72.5776 881.115 72.5776C883.002 72.5776 884.539 74.1356 884.539 76.0469V77.0748ZM877.564 70.0078C880.715 70.0078 883.271 67.4179 883.271 64.2257C883.271 61.0335 880.715 58.4436 877.564 58.4436C874.413 58.4436 871.857 61.0335 871.857 64.2257C871.857 67.4179 874.413 70.0078 877.564 70.0078ZM877.564 60.371C879.661 60.371 881.369 62.1016 881.369 64.2257C881.369 66.3498 879.661 68.0804 877.564 68.0804C875.468 68.0804 873.759 66.3498 873.759 64.2257C873.759 62.1016 875.468 60.371 877.564 60.371Z" fill="white"/>
</g>
<rect x="208.665" y="63.116" width="60.7411" height="11.2137" rx="5.60687" fill="white" fill-opacity="0.3"/>
<rect x="297.44" y="63.116" width="60.7411" height="11.2137" rx="5.60687" fill="white" fill-opacity="0.3"/>
<rect x="381.544" y="63.116" width="60.7411" height="11.2137" rx="5.60687" fill="#70CCFF"/>
<rect x="467.515" y="63.116" width="60.7411" height="11.2137" rx="5.60687" fill="white" fill-opacity="0.3"/>
<rect x="557.226" y="63.116" width="60.7411" height="11.2137" rx="5.60687" fill="white" fill-opacity="0.3"/>
<rect x="88.5" y="159.567" width="791.067" height="405.933" rx="2.5" fill="white" stroke="#B8CDEB"/>
<mask id="mask1_101_412" style="mask-type:alpha" maskUnits="userSpaceOnUse" x="143" y="151" width="7" height="11">
<path d="M143.226 156.868L147.168 160.843C147.441 161.117 147.882 161.117 148.151 160.843L148.807 160.182C149.079 159.907 149.079 159.463 148.807 159.191L146.012 156.374L148.807 153.556C149.079 153.281 149.079 152.837 148.807 152.565L148.151 151.905C147.879 151.63 147.438 151.63 147.168 151.905L143.226 155.88C142.953 156.149 142.953 156.593 143.226 156.868Z" fill="white"/>
</mask>
<g mask="url(#mask1_101_412)">
<path d="M143.226 156.868L147.168 160.843C147.441 161.117 147.882 161.117 148.151 160.843L148.807 160.182C149.079 159.907 149.079 159.463 148.807 159.191L146.012 156.374L148.807 153.556C149.079 153.281 149.079 152.837 148.807 152.565L148.151 151.905C147.879 151.63 147.438 151.63 147.168 151.905L143.226 155.88C142.953 156.149 142.953 156.593 143.226 156.868Z" fill="black"/>
<path d="M153.447 148.89L153.447 163.854L138.603 163.854L138.603 148.89L153.447 148.89Z" fill="white"/>
</g>
<path d="M879.567 131.145V166.911H88.5V131.145C88.5 130.783 88.7884 130.5 89.1303 130.5H878.936C879.278 130.5 879.567 130.783 879.567 131.145Z" fill="url(#paint2_linear_101_412)" stroke="#7091F5"/>
<path d="M122.455 147.504V151.305C122.314 151.492 122.093 151.697 121.792 151.92C121.496 152.139 121.102 152.328 120.61 152.488C120.118 152.647 119.505 152.727 118.771 152.727C118.147 152.727 117.575 152.622 117.055 152.413C116.536 152.198 116.087 151.886 115.708 151.476C115.335 151.066 115.045 150.567 114.84 149.979C114.635 149.387 114.533 148.712 114.533 147.956V147.265C114.533 146.513 114.626 145.843 114.813 145.255C115.004 144.663 115.278 144.162 115.633 143.751C115.989 143.341 116.417 143.031 116.918 142.822C117.424 142.608 117.996 142.5 118.634 142.5C119.45 142.5 120.124 142.637 120.658 142.911C121.195 143.18 121.61 143.553 121.902 144.032C122.193 144.51 122.378 145.057 122.455 145.672H120.774C120.719 145.326 120.612 145.016 120.453 144.743C120.298 144.469 120.074 144.255 119.783 144.1C119.495 143.941 119.122 143.861 118.661 143.861C118.265 143.861 117.916 143.936 117.616 144.086C117.315 144.237 117.064 144.458 116.864 144.75C116.668 145.041 116.52 145.397 116.419 145.816C116.319 146.235 116.269 146.714 116.269 147.251V147.956C116.269 148.502 116.326 148.988 116.44 149.412C116.558 149.835 116.727 150.193 116.946 150.485C117.169 150.777 117.44 150.998 117.759 151.148C118.078 151.294 118.438 151.367 118.839 151.367C119.231 151.367 119.552 151.335 119.803 151.271C120.054 151.203 120.252 151.123 120.398 151.032C120.548 150.936 120.664 150.845 120.746 150.758V148.783H118.675V147.504H122.455ZM127.453 152.727C126.906 152.727 126.411 152.638 125.969 152.46C125.532 152.278 125.158 152.025 124.848 151.702C124.543 151.378 124.308 150.998 124.144 150.56C123.98 150.123 123.898 149.651 123.898 149.145V148.872C123.898 148.293 123.982 147.769 124.151 147.299C124.319 146.83 124.554 146.429 124.855 146.096C125.156 145.759 125.511 145.501 125.921 145.324C126.331 145.146 126.776 145.057 127.254 145.057C127.783 145.057 128.245 145.146 128.642 145.324C129.038 145.501 129.367 145.752 129.626 146.076C129.891 146.395 130.087 146.775 130.214 147.217C130.346 147.659 130.412 148.147 130.412 148.68V149.384H124.698V148.202H128.786V148.072C128.776 147.776 128.717 147.498 128.608 147.238C128.503 146.978 128.341 146.768 128.122 146.609C127.904 146.449 127.612 146.37 127.247 146.37C126.974 146.37 126.73 146.429 126.516 146.547C126.306 146.661 126.131 146.828 125.99 147.046C125.848 147.265 125.739 147.529 125.661 147.839C125.589 148.145 125.552 148.489 125.552 148.872V149.145C125.552 149.469 125.595 149.769 125.682 150.047C125.773 150.321 125.905 150.56 126.078 150.765C126.252 150.97 126.461 151.132 126.707 151.25C126.953 151.364 127.234 151.421 127.548 151.421C127.945 151.421 128.298 151.342 128.608 151.182C128.918 151.023 129.187 150.797 129.414 150.505L130.283 151.346C130.123 151.579 129.916 151.802 129.661 152.016C129.405 152.226 129.093 152.397 128.724 152.529C128.359 152.661 127.936 152.727 127.453 152.727ZM135.847 150.587C135.847 150.423 135.806 150.275 135.724 150.143C135.642 150.006 135.485 149.883 135.252 149.774C135.024 149.665 134.687 149.564 134.241 149.473C133.849 149.387 133.489 149.284 133.161 149.166C132.837 149.042 132.559 148.894 132.327 148.721C132.094 148.548 131.914 148.343 131.786 148.106C131.659 147.869 131.595 147.596 131.595 147.286C131.595 146.985 131.661 146.7 131.793 146.431C131.925 146.162 132.115 145.925 132.361 145.72C132.607 145.515 132.905 145.353 133.256 145.235C133.612 145.116 134.008 145.057 134.446 145.057C135.065 145.057 135.596 145.162 136.038 145.372C136.485 145.577 136.827 145.857 137.064 146.212C137.301 146.563 137.419 146.96 137.419 147.402H135.772C135.772 147.206 135.722 147.024 135.621 146.855C135.526 146.682 135.38 146.543 135.184 146.438C134.988 146.329 134.742 146.274 134.446 146.274C134.163 146.274 133.928 146.319 133.742 146.411C133.559 146.497 133.423 146.611 133.331 146.752C133.245 146.894 133.202 147.049 133.202 147.217C133.202 147.34 133.224 147.452 133.27 147.552C133.32 147.648 133.402 147.737 133.516 147.819C133.63 147.896 133.785 147.969 133.981 148.038C134.181 148.106 134.432 148.172 134.733 148.236C135.298 148.354 135.783 148.507 136.189 148.694C136.599 148.876 136.913 149.113 137.132 149.405C137.351 149.692 137.46 150.056 137.46 150.499C137.46 150.827 137.39 151.127 137.248 151.401C137.112 151.67 136.911 151.904 136.647 152.105C136.383 152.301 136.066 152.454 135.697 152.563C135.332 152.672 134.922 152.727 134.466 152.727C133.796 152.727 133.229 152.609 132.764 152.372C132.299 152.13 131.946 151.822 131.704 151.449C131.467 151.07 131.349 150.679 131.349 150.273H132.942C132.96 150.578 133.044 150.822 133.195 151.004C133.35 151.182 133.541 151.312 133.769 151.394C134.001 151.472 134.241 151.51 134.487 151.51C134.783 151.51 135.031 151.472 135.232 151.394C135.432 151.312 135.585 151.203 135.69 151.066C135.795 150.925 135.847 150.765 135.847 150.587ZM142.293 145.194V146.397H138.123V145.194H142.293ZM139.327 143.382H140.974V150.546C140.974 150.774 141.006 150.95 141.07 151.073C141.138 151.191 141.231 151.271 141.35 151.312C141.468 151.353 141.607 151.374 141.767 151.374C141.881 151.374 141.99 151.367 142.095 151.353C142.2 151.339 142.284 151.326 142.348 151.312L142.355 152.57C142.218 152.611 142.059 152.647 141.876 152.679C141.699 152.711 141.494 152.727 141.261 152.727C140.883 152.727 140.548 152.661 140.256 152.529C139.965 152.392 139.737 152.171 139.573 151.866C139.409 151.56 139.327 151.155 139.327 150.649V143.382ZM145.328 145.194V152.59H143.674V145.194H145.328ZM143.565 143.252C143.565 143.002 143.647 142.794 143.811 142.63C143.98 142.462 144.212 142.377 144.508 142.377C144.8 142.377 145.03 142.462 145.199 142.63C145.367 142.794 145.452 143.002 145.452 143.252C145.452 143.499 145.367 143.704 145.199 143.868C145.03 144.032 144.8 144.114 144.508 144.114C144.212 144.114 143.98 144.032 143.811 143.868C143.647 143.704 143.565 143.499 143.565 143.252ZM146.819 148.974V148.817C146.819 148.284 146.896 147.789 147.051 147.333C147.206 146.873 147.429 146.474 147.721 146.137C148.017 145.795 148.377 145.531 148.801 145.344C149.23 145.153 149.713 145.057 150.25 145.057C150.793 145.057 151.276 145.153 151.7 145.344C152.128 145.531 152.49 145.795 152.786 146.137C153.083 146.474 153.308 146.873 153.463 147.333C153.618 147.789 153.696 148.284 153.696 148.817V148.974C153.696 149.507 153.618 150.002 153.463 150.458C153.308 150.913 153.083 151.312 152.786 151.654C152.49 151.991 152.13 152.255 151.706 152.447C151.283 152.634 150.802 152.727 150.264 152.727C149.722 152.727 149.236 152.634 148.808 152.447C148.384 152.255 148.024 151.991 147.728 151.654C147.432 151.312 147.206 150.913 147.051 150.458C146.896 150.002 146.819 149.507 146.819 148.974ZM148.466 148.817V148.974C148.466 149.307 148.5 149.621 148.569 149.917C148.637 150.214 148.744 150.473 148.89 150.697C149.036 150.92 149.223 151.096 149.451 151.223C149.678 151.351 149.95 151.415 150.264 151.415C150.569 151.415 150.834 151.351 151.057 151.223C151.285 151.096 151.472 150.92 151.618 150.697C151.763 150.473 151.87 150.214 151.939 149.917C152.012 149.621 152.048 149.307 152.048 148.974V148.817C152.048 148.489 152.012 148.179 151.939 147.887C151.87 147.591 151.761 147.329 151.611 147.101C151.465 146.873 151.278 146.695 151.05 146.568C150.827 146.436 150.56 146.37 150.25 146.37C149.94 146.37 149.672 146.436 149.444 146.568C149.22 146.695 149.036 146.873 148.89 147.101C148.744 147.329 148.637 147.591 148.569 147.887C148.5 148.179 148.466 148.489 148.466 148.817ZM149.389 144.148L150.722 142.09H152.581L150.722 144.148H149.389ZM156.71 146.773V152.59H155.063V145.194H156.615L156.71 146.773ZM156.416 148.619L155.883 148.612C155.888 148.088 155.961 147.607 156.102 147.169C156.248 146.732 156.448 146.356 156.703 146.042C156.963 145.727 157.273 145.486 157.633 145.317C157.993 145.144 158.394 145.057 158.836 145.057C159.192 145.057 159.513 145.107 159.8 145.208C160.092 145.303 160.34 145.46 160.545 145.679C160.755 145.898 160.914 146.183 161.024 146.534C161.133 146.88 161.188 147.306 161.188 147.812V152.59H159.534V147.805C159.534 147.45 159.481 147.169 159.376 146.964C159.276 146.755 159.128 146.607 158.932 146.52C158.741 146.429 158.501 146.383 158.214 146.383C157.932 146.383 157.679 146.443 157.455 146.561C157.232 146.68 157.043 146.841 156.888 147.046C156.738 147.251 156.621 147.488 156.539 147.757C156.457 148.026 156.416 148.313 156.416 148.619ZM170.868 151.059V142.09H172.522V152.59H171.025L170.868 151.059ZM166.055 148.974V148.831C166.055 148.27 166.121 147.76 166.253 147.299C166.385 146.834 166.577 146.436 166.828 146.103C167.078 145.766 167.384 145.508 167.744 145.331C168.104 145.148 168.509 145.057 168.96 145.057C169.407 145.057 169.799 145.144 170.136 145.317C170.473 145.49 170.76 145.738 170.997 146.062C171.234 146.381 171.424 146.764 171.565 147.21C171.706 147.653 171.806 148.145 171.866 148.687V149.145C171.806 149.674 171.706 150.157 171.565 150.594C171.424 151.032 171.234 151.41 170.997 151.729C170.76 152.048 170.471 152.294 170.129 152.467C169.792 152.64 169.398 152.727 168.947 152.727C168.5 152.727 168.097 152.634 167.737 152.447C167.381 152.26 167.078 151.998 166.828 151.661C166.577 151.323 166.385 150.927 166.253 150.471C166.121 150.011 166.055 149.512 166.055 148.974ZM167.703 148.831V148.974C167.703 149.311 167.732 149.626 167.791 149.917C167.855 150.209 167.953 150.467 168.085 150.69C168.217 150.909 168.388 151.082 168.598 151.209C168.812 151.333 169.067 151.394 169.364 151.394C169.737 151.394 170.045 151.312 170.286 151.148C170.528 150.984 170.717 150.763 170.854 150.485C170.995 150.202 171.091 149.888 171.141 149.542V148.304C171.114 148.035 171.057 147.785 170.97 147.552C170.888 147.32 170.776 147.117 170.635 146.944C170.494 146.766 170.318 146.629 170.109 146.534C169.904 146.433 169.66 146.383 169.377 146.383C169.077 146.383 168.821 146.447 168.612 146.575C168.402 146.702 168.229 146.878 168.092 147.101C167.96 147.324 167.862 147.584 167.798 147.88C167.734 148.177 167.703 148.493 167.703 148.831ZM177.505 152.727C176.958 152.727 176.464 152.638 176.022 152.46C175.584 152.278 175.211 152.025 174.901 151.702C174.595 151.378 174.361 150.998 174.197 150.56C174.033 150.123 173.951 149.651 173.951 149.145V148.872C173.951 148.293 174.035 147.769 174.203 147.299C174.372 146.83 174.607 146.429 174.908 146.096C175.208 145.759 175.564 145.501 175.974 145.324C176.384 145.146 176.828 145.057 177.307 145.057C177.836 145.057 178.298 145.146 178.695 145.324C179.091 145.501 179.419 145.752 179.679 146.076C179.943 146.395 180.139 146.775 180.267 147.217C180.399 147.659 180.465 148.147 180.465 148.68V149.384H174.75V148.202H178.838V148.072C178.829 147.776 178.77 147.498 178.661 147.238C178.556 146.978 178.394 146.768 178.175 146.609C177.956 146.449 177.665 146.37 177.3 146.37C177.027 146.37 176.783 146.429 176.569 146.547C176.359 146.661 176.184 146.828 176.042 147.046C175.901 147.265 175.792 147.529 175.714 147.839C175.641 148.145 175.605 148.489 175.605 148.872V149.145C175.605 149.469 175.648 149.769 175.735 150.047C175.826 150.321 175.958 150.56 176.131 150.765C176.304 150.97 176.514 151.132 176.76 151.25C177.006 151.364 177.286 151.421 177.601 151.421C177.997 151.421 178.351 151.342 178.661 151.182C178.97 151.023 179.239 150.797 179.467 150.505L180.335 151.346C180.176 151.579 179.968 151.802 179.713 152.016C179.458 152.226 179.146 152.397 178.777 152.529C178.412 152.661 177.988 152.727 177.505 152.727ZM187 145.194V152.59H185.346V145.194H187ZM185.237 143.252C185.237 143.002 185.319 142.794 185.483 142.63C185.651 142.462 185.884 142.377 186.18 142.377C186.472 142.377 186.702 142.462 186.87 142.63C187.039 142.794 187.123 143.002 187.123 143.252C187.123 143.499 187.039 143.704 186.87 143.868C186.702 144.032 186.472 144.114 186.18 144.114C185.884 144.114 185.651 144.032 185.483 143.868C185.319 143.704 185.237 143.499 185.237 143.252ZM190.439 146.773V152.59H188.791V145.194H190.343L190.439 146.773ZM190.145 148.619L189.612 148.612C189.616 148.088 189.689 147.607 189.83 147.169C189.976 146.732 190.177 146.356 190.432 146.042C190.692 145.727 191.002 145.486 191.362 145.317C191.722 145.144 192.123 145.057 192.565 145.057C192.92 145.057 193.242 145.107 193.529 145.208C193.82 145.303 194.069 145.46 194.274 145.679C194.483 145.898 194.643 146.183 194.752 146.534C194.862 146.88 194.916 147.306 194.916 147.812V152.59H193.262V147.805C193.262 147.45 193.21 147.169 193.105 146.964C193.005 146.755 192.856 146.607 192.661 146.52C192.469 146.429 192.23 146.383 191.943 146.383C191.66 146.383 191.407 146.443 191.184 146.561C190.961 146.68 190.772 146.841 190.617 147.046C190.466 147.251 190.35 147.488 190.268 147.757C190.186 148.026 190.145 148.313 190.145 148.619ZM199.004 151.285L200.816 145.194H202.525L199.954 152.59H198.888L199.004 151.285ZM197.617 145.194L199.462 151.312L199.551 152.59H198.485L195.901 145.194H197.617ZM206.708 152.727C206.161 152.727 205.667 152.638 205.225 152.46C204.787 152.278 204.414 152.025 204.104 151.702C203.799 151.378 203.564 150.998 203.4 150.56C203.236 150.123 203.154 149.651 203.154 149.145V148.872C203.154 148.293 203.238 147.769 203.407 147.299C203.575 146.83 203.81 146.429 204.111 146.096C204.411 145.759 204.767 145.501 205.177 145.324C205.587 145.146 206.032 145.057 206.51 145.057C207.039 145.057 207.501 145.146 207.898 145.324C208.294 145.501 208.622 145.752 208.882 146.076C209.147 146.395 209.342 146.775 209.47 147.217C209.602 147.659 209.668 148.147 209.668 148.68V149.384H203.953V148.202H208.041V148.072C208.032 147.776 207.973 147.498 207.864 147.238C207.759 146.978 207.597 146.768 207.378 146.609C207.16 146.449 206.868 146.37 206.503 146.37C206.23 146.37 205.986 146.429 205.772 146.547C205.562 146.661 205.387 146.828 205.245 147.046C205.104 147.265 204.995 147.529 204.917 147.839C204.844 148.145 204.808 148.489 204.808 148.872V149.145C204.808 149.469 204.851 149.769 204.938 150.047C205.029 150.321 205.161 150.56 205.334 150.765C205.508 150.97 205.717 151.132 205.963 151.25C206.209 151.364 206.49 151.421 206.804 151.421C207.201 151.421 207.554 151.342 207.864 151.182C208.174 151.023 208.442 150.797 208.67 150.505L209.538 151.346C209.379 151.579 209.172 151.802 208.916 152.016C208.661 152.226 208.349 152.397 207.98 152.529C207.615 152.661 207.191 152.727 206.708 152.727ZM212.587 146.773V152.59H210.94V145.194H212.492L212.587 146.773ZM212.293 148.619L211.76 148.612C211.765 148.088 211.838 147.607 211.979 147.169C212.125 146.732 212.325 146.356 212.58 146.042C212.84 145.727 213.15 145.486 213.51 145.317C213.87 145.144 214.271 145.057 214.713 145.057C215.069 145.057 215.39 145.107 215.677 145.208C215.969 145.303 216.217 145.46 216.422 145.679C216.632 145.898 216.791 146.183 216.901 146.534C217.01 146.88 217.065 147.306 217.065 147.812V152.59H215.411V147.805C215.411 147.45 215.358 147.169 215.253 146.964C215.153 146.755 215.005 146.607 214.809 146.52C214.618 146.429 214.378 146.383 214.091 146.383C213.809 146.383 213.556 146.443 213.332 146.561C213.109 146.68 212.92 146.841 212.765 147.046C212.615 147.251 212.498 147.488 212.416 147.757C212.334 148.026 212.293 148.313 212.293 148.619ZM222.137 145.194V146.397H217.967V145.194H222.137ZM219.17 143.382H220.818V150.546C220.818 150.774 220.85 150.95 220.913 151.073C220.982 151.191 221.075 151.271 221.194 151.312C221.312 151.353 221.451 151.374 221.611 151.374C221.725 151.374 221.834 151.367 221.939 151.353C222.044 151.339 222.128 151.326 222.192 151.312L222.199 152.57C222.062 152.611 221.902 152.647 221.72 152.679C221.542 152.711 221.337 152.727 221.105 152.727C220.727 152.727 220.392 152.661 220.1 152.529C219.808 152.392 219.58 152.171 219.416 151.866C219.252 151.56 219.17 151.155 219.17 150.649V143.382ZM227.578 151.107V147.58C227.578 147.315 227.531 147.087 227.435 146.896C227.339 146.705 227.193 146.556 226.997 146.452C226.806 146.347 226.564 146.294 226.273 146.294C226.004 146.294 225.772 146.34 225.576 146.431C225.38 146.522 225.227 146.645 225.118 146.8C225.008 146.955 224.953 147.131 224.953 147.327H223.313C223.313 147.035 223.384 146.752 223.525 146.479C223.666 146.206 223.871 145.962 224.14 145.748C224.409 145.533 224.73 145.365 225.104 145.242C225.478 145.119 225.897 145.057 226.362 145.057C226.918 145.057 227.41 145.151 227.838 145.337C228.271 145.524 228.611 145.807 228.857 146.185C229.107 146.559 229.233 147.028 229.233 147.593V150.881C229.233 151.219 229.256 151.522 229.301 151.791C229.351 152.055 229.422 152.285 229.513 152.481V152.59H227.825C227.747 152.413 227.686 152.187 227.64 151.914C227.599 151.636 227.578 151.367 227.578 151.107ZM227.818 148.092L227.831 149.111H226.649C226.343 149.111 226.075 149.14 225.842 149.2C225.61 149.254 225.416 149.336 225.261 149.446C225.106 149.555 224.99 149.687 224.912 149.842C224.835 149.997 224.796 150.173 224.796 150.369C224.796 150.565 224.842 150.745 224.933 150.909C225.024 151.068 225.156 151.194 225.329 151.285C225.507 151.376 225.721 151.421 225.972 151.421C226.309 151.421 226.603 151.353 226.854 151.216C227.109 151.075 227.31 150.904 227.455 150.704C227.601 150.499 227.679 150.305 227.688 150.123L228.221 150.854C228.166 151.041 228.073 151.241 227.941 151.456C227.809 151.67 227.635 151.875 227.421 152.071C227.212 152.262 226.959 152.419 226.662 152.542C226.371 152.666 226.034 152.727 225.651 152.727C225.168 152.727 224.737 152.631 224.359 152.44C223.981 152.244 223.684 151.982 223.47 151.654C223.256 151.321 223.149 150.945 223.149 150.526C223.149 150.134 223.222 149.788 223.368 149.487C223.518 149.181 223.737 148.926 224.024 148.721C224.315 148.516 224.671 148.361 225.09 148.256C225.509 148.147 225.988 148.092 226.526 148.092H227.818ZM232.61 146.602V152.59H230.962V145.194H232.535L232.61 146.602ZM234.872 145.146L234.859 146.677C234.759 146.659 234.649 146.645 234.531 146.636C234.417 146.627 234.303 146.623 234.189 146.623C233.906 146.623 233.658 146.664 233.444 146.746C233.23 146.823 233.05 146.937 232.904 147.087C232.762 147.233 232.653 147.411 232.576 147.621C232.498 147.83 232.453 148.065 232.439 148.325L232.063 148.352C232.063 147.887 232.108 147.457 232.2 147.06C232.291 146.664 232.427 146.315 232.61 146.014C232.797 145.713 233.029 145.479 233.307 145.31C233.59 145.141 233.915 145.057 234.285 145.057C234.385 145.057 234.492 145.066 234.606 145.084C234.724 145.103 234.813 145.123 234.872 145.146ZM237.668 145.194V152.59H236.014V145.194H237.668ZM235.905 143.252C235.905 143.002 235.987 142.794 236.151 142.63C236.319 142.462 236.552 142.377 236.848 142.377C237.14 142.377 237.37 142.462 237.538 142.63C237.707 142.794 237.791 143.002 237.791 143.252C237.791 143.499 237.707 143.704 237.538 143.868C237.37 144.032 237.14 144.114 236.848 144.114C236.552 144.114 236.319 144.032 236.151 143.868C235.987 143.704 235.905 143.499 235.905 143.252ZM239.159 148.974V148.817C239.159 148.284 239.236 147.789 239.391 147.333C239.546 146.873 239.769 146.474 240.061 146.137C240.357 145.795 240.717 145.531 241.141 145.344C241.569 145.153 242.052 145.057 242.59 145.057C243.133 145.057 243.616 145.153 244.039 145.344C244.468 145.531 244.83 145.795 245.126 146.137C245.423 146.474 245.648 146.873 245.803 147.333C245.958 147.789 246.036 148.284 246.036 148.817V148.974C246.036 149.507 245.958 150.002 245.803 150.458C245.648 150.913 245.423 151.312 245.126 151.654C244.83 151.991 244.47 152.255 244.046 152.447C243.622 152.634 243.142 152.727 242.604 152.727C242.062 152.727 241.576 152.634 241.148 152.447C240.724 152.255 240.364 151.991 240.068 151.654C239.772 151.312 239.546 150.913 239.391 150.458C239.236 150.002 239.159 149.507 239.159 148.974ZM240.806 148.817V148.974C240.806 149.307 240.84 149.621 240.909 149.917C240.977 150.214 241.084 150.473 241.23 150.697C241.376 150.92 241.563 151.096 241.79 151.223C242.018 151.351 242.289 151.415 242.604 151.415C242.909 151.415 243.174 151.351 243.397 151.223C243.625 151.096 243.812 150.92 243.957 150.697C244.103 150.473 244.21 150.214 244.279 149.917C244.352 149.621 244.388 149.307 244.388 148.974V148.817C244.388 148.489 244.352 148.179 244.279 147.887C244.21 147.591 244.101 147.329 243.951 147.101C243.805 146.873 243.618 146.695 243.39 146.568C243.167 146.436 242.9 146.37 242.59 146.37C242.28 146.37 242.011 146.436 241.784 146.568C241.56 146.695 241.376 146.873 241.23 147.101C241.084 147.329 240.977 147.591 240.909 147.887C240.84 148.179 240.806 148.489 240.806 148.817Z" fill="white"/>
<path d="M116.529 187.047V197H114.813V187.047H116.529ZM120.589 191.401V192.762H116.091V191.401H120.589ZM121.157 187.047V188.414H116.091V187.047H121.157ZM124.123 189.604V197H122.469V189.604H124.123ZM122.36 187.662C122.36 187.411 122.442 187.204 122.606 187.04C122.774 186.871 123.007 186.787 123.303 186.787C123.595 186.787 123.825 186.871 123.994 187.04C124.162 187.204 124.246 187.411 124.246 187.662C124.246 187.908 124.162 188.113 123.994 188.277C123.825 188.441 123.595 188.523 123.303 188.523C123.007 188.523 122.774 188.441 122.606 188.277C122.442 188.113 122.36 187.908 122.36 187.662ZM127.692 186.5V197H126.037V186.5H127.692ZM132.887 189.604V190.807H128.717V189.604H132.887ZM129.92 187.792H131.568V194.956C131.568 195.184 131.6 195.359 131.663 195.482C131.732 195.601 131.825 195.681 131.944 195.722C132.062 195.763 132.201 195.783 132.361 195.783C132.475 195.783 132.584 195.776 132.689 195.763C132.794 195.749 132.878 195.735 132.942 195.722L132.949 196.979C132.812 197.021 132.652 197.057 132.47 197.089C132.292 197.121 132.087 197.137 131.855 197.137C131.477 197.137 131.142 197.071 130.85 196.938C130.558 196.802 130.33 196.581 130.166 196.275C130.002 195.97 129.92 195.564 129.92 195.059V187.792ZM135.813 191.012V197H134.165V189.604H135.738L135.813 191.012ZM138.076 189.556L138.062 191.087C137.962 191.069 137.852 191.055 137.734 191.046C137.62 191.037 137.506 191.032 137.392 191.032C137.109 191.032 136.861 191.073 136.647 191.155C136.433 191.233 136.253 191.347 136.107 191.497C135.966 191.643 135.856 191.821 135.779 192.03C135.701 192.24 135.656 192.475 135.642 192.734L135.266 192.762C135.266 192.297 135.312 191.866 135.403 191.47C135.494 191.073 135.631 190.725 135.813 190.424C136 190.123 136.232 189.888 136.51 189.72C136.793 189.551 137.119 189.467 137.488 189.467C137.588 189.467 137.695 189.476 137.809 189.494C137.927 189.512 138.016 189.533 138.076 189.556ZM138.616 193.384V193.227C138.616 192.693 138.693 192.199 138.848 191.743C139.003 191.283 139.226 190.884 139.518 190.547C139.814 190.205 140.174 189.941 140.598 189.754C141.026 189.562 141.509 189.467 142.047 189.467C142.59 189.467 143.073 189.562 143.496 189.754C143.925 189.941 144.287 190.205 144.583 190.547C144.88 190.884 145.105 191.283 145.26 191.743C145.415 192.199 145.493 192.693 145.493 193.227V193.384C145.493 193.917 145.415 194.411 145.26 194.867C145.105 195.323 144.88 195.722 144.583 196.063C144.287 196.401 143.927 196.665 143.503 196.856C143.079 197.043 142.599 197.137 142.061 197.137C141.519 197.137 141.033 197.043 140.605 196.856C140.181 196.665 139.821 196.401 139.525 196.063C139.229 195.722 139.003 195.323 138.848 194.867C138.693 194.411 138.616 193.917 138.616 193.384ZM140.263 193.227V193.384C140.263 193.716 140.297 194.031 140.366 194.327C140.434 194.623 140.541 194.883 140.687 195.106C140.833 195.33 141.02 195.505 141.247 195.633C141.475 195.76 141.746 195.824 142.061 195.824C142.366 195.824 142.631 195.76 142.854 195.633C143.082 195.505 143.269 195.33 143.414 195.106C143.56 194.883 143.667 194.623 143.736 194.327C143.809 194.031 143.845 193.716 143.845 193.384V193.227C143.845 192.898 143.809 192.589 143.736 192.297C143.667 192.001 143.558 191.739 143.408 191.511C143.262 191.283 143.075 191.105 142.847 190.978C142.624 190.845 142.357 190.779 142.047 190.779C141.737 190.779 141.468 190.845 141.241 190.978C141.017 191.105 140.833 191.283 140.687 191.511C140.541 191.739 140.434 192.001 140.366 192.297C140.297 192.589 140.263 192.898 140.263 193.227ZM151.023 194.997C151.023 194.833 150.982 194.685 150.9 194.553C150.818 194.416 150.661 194.293 150.428 194.184C150.2 194.074 149.863 193.974 149.416 193.883C149.024 193.796 148.664 193.694 148.336 193.575C148.013 193.452 147.735 193.304 147.502 193.131C147.27 192.958 147.09 192.753 146.962 192.516C146.835 192.279 146.771 192.005 146.771 191.695C146.771 191.395 146.837 191.11 146.969 190.841C147.101 190.572 147.29 190.335 147.536 190.13C147.783 189.925 148.081 189.763 148.432 189.645C148.787 189.526 149.184 189.467 149.621 189.467C150.241 189.467 150.772 189.572 151.214 189.781C151.661 189.986 152.003 190.267 152.24 190.622C152.477 190.973 152.595 191.369 152.595 191.812H150.948C150.948 191.616 150.898 191.433 150.797 191.265C150.702 191.091 150.556 190.952 150.36 190.848C150.164 190.738 149.918 190.684 149.621 190.684C149.339 190.684 149.104 190.729 148.917 190.82C148.735 190.907 148.598 191.021 148.507 191.162C148.421 191.303 148.377 191.458 148.377 191.627C148.377 191.75 148.4 191.862 148.446 191.962C148.496 192.058 148.578 192.146 148.692 192.229C148.806 192.306 148.961 192.379 149.157 192.447C149.357 192.516 149.608 192.582 149.909 192.646C150.474 192.764 150.959 192.917 151.365 193.104C151.775 193.286 152.089 193.523 152.308 193.814C152.527 194.102 152.636 194.466 152.636 194.908C152.636 195.236 152.565 195.537 152.424 195.811C152.287 196.079 152.087 196.314 151.823 196.515C151.558 196.711 151.242 196.863 150.872 196.973C150.508 197.082 150.098 197.137 149.642 197.137C148.972 197.137 148.405 197.018 147.94 196.781C147.475 196.54 147.122 196.232 146.88 195.858C146.643 195.48 146.525 195.088 146.525 194.683H148.118C148.136 194.988 148.22 195.232 148.37 195.414C148.525 195.592 148.717 195.722 148.945 195.804C149.177 195.881 149.416 195.92 149.662 195.92C149.959 195.92 150.207 195.881 150.408 195.804C150.608 195.722 150.761 195.612 150.866 195.476C150.97 195.334 151.023 195.175 151.023 194.997Z" fill="#4D648D"/>
<rect x="112" y="273" width="149" height="19" fill="#ECF0F1"/>
<rect x="261" y="273" width="149" height="19" fill="#DADBDB"/>
<rect x="112" y="292" width="745" height="4" fill="#DADBDB"/>
<rect x="112" y="296" width="745" height="255" fill="#ECF0F1"/>
<rect x="410" y="273" width="149" height="19" fill="#ECF0F1"/>
<rect x="559" y="273" width="149" height="19" fill="#ECF0F1"/>
<path d="M708 273H854C855.657 273 857 274.343 857 276V292H708V273Z" fill="#ECF0F1"/>
<path d="M568 185.25H659C660.519 185.25 661.75 186.481 661.75 188V209.75H565.25V188C565.25 186.481 566.481 185.25 568 185.25Z" stroke="#B8CDEB" stroke-width="0.5"/>
<path d="M115 248.25H193C194.519 248.25 195.75 249.481 195.75 251V272.75H112.25V251C112.25 249.481 113.481 248.25 115 248.25Z" fill="#4D648D" stroke="#B8CDEB" stroke-width="0.5"/>
<path d="M201 248.25H279C280.519 248.25 281.75 249.481 281.75 251V272.75H198.25V251C198.25 249.481 199.481 248.25 201 248.25Z" fill="#4D648D" stroke="#B8CDEB" stroke-width="0.5"/>
<path d="M287 248.25H365C366.519 248.25 367.75 249.481 367.75 251V272.75H284.25V251C284.25 249.481 285.481 248.25 287 248.25Z" fill="#4D648D" stroke="#B8CDEB" stroke-width="0.5"/>
<path d="M373 248.25H451C452.519 248.25 453.75 249.481 453.75 251V272.75H370.25V251C370.25 249.481 371.481 248.25 373 248.25Z" fill="#4D648D" stroke="#B8CDEB" stroke-width="0.5"/>
<path d="M131 316.25H838C839.519 316.25 840.75 317.481 840.75 319V340.75H128.25V319C128.25 317.481 129.481 316.25 131 316.25Z" fill="#4D648D" stroke="#B8CDEB" stroke-width="0.5"/>
<path d="M841 341H128V370H841V341Z" fill="#E8675B"/>
<mask id="mask2_101_412" style="mask-type:alpha" maskUnits="userSpaceOnUse" x="811" y="348" width="14" height="14">
<path d="M824.114 359.497L821.525 356.907C821.408 356.791 821.25 356.726 821.084 356.726H820.661C821.377 355.809 821.803 354.656 821.803 353.402C821.803 350.418 819.385 348 816.402 348C813.418 348 811 350.418 811 353.402C811 356.385 813.418 358.803 816.402 358.803C817.656 358.803 818.809 358.377 819.726 357.661V358.084C819.726 358.25 819.791 358.408 819.907 358.525L822.497 361.114C822.741 361.359 823.135 361.359 823.377 361.114L824.112 360.38C824.356 360.135 824.356 359.741 824.114 359.497ZM816.402 356.726C814.566 356.726 813.078 355.24 813.078 353.402C813.078 351.566 814.563 350.078 816.402 350.078C818.238 350.078 819.726 351.563 819.726 353.402C819.726 355.238 818.24 356.726 816.402 356.726Z" fill="white"/>
</mask>
<g mask="url(#mask2_101_412)">
<path d="M824.309 348H810.987V361.322H824.309V348Z" fill="#4D648D"/>
</g>
<path d="M841 370H128V399H841V370Z" fill="white"/>
<rect x="277" y="378" width="137" height="13" rx="6.5" fill="#E2E9FF"/>
<rect x="470" y="378" width="89" height="13" rx="6.5" fill="#E2E9FF"/>
<rect x="604" y="378" width="78" height="13" rx="6.5" fill="#E2E9FF"/>
<rect x="749" y="378" width="43" height="13" rx="6.5" fill="#E2E9FF"/>
<rect x="277" y="348" width="157" height="13" rx="6.5" fill="#E4A7AD"/>
<rect x="470" y="348" width="104" height="13" rx="6.5" fill="#E4A7AD"/>
<rect x="604" y="348" width="93" height="13" rx="6.5" fill="#E4A7AD"/>
<rect x="749" y="348" width="43" height="13" rx="6.5" fill="#E4A7AD"/>
<rect x="143" y="378" width="55" height="13" rx="6.5" fill="#E2E9FF"/>
<rect x="143" y="348" width="79" height="13" rx="6.5" fill="#E4A7AD"/>
<path d="M841 399H128V428H841V399Z" fill="#F8FAFF"/>
<path d="M841 428H128V457H841V428Z" fill="white"/>
<path d="M841 457H128V486H841V457Z" fill="#F8FAFF"/>
<path d="M841 486H128V515H841V486Z" fill="white"/>
<path d="M841 515H128V551H841V515Z" fill="white"/>
<path d="M471 185.25H561C562.519 185.25 563.75 186.481 563.75 188V209.75H468.25V188C468.25 186.481 469.481 185.25 471 185.25Z" fill="#4D648D" stroke="#B8CDEB" stroke-width="0.5"/>
<path d="M665 185.25H756C757.519 185.25 758.75 186.481 758.75 188V209.75H662.25V188C662.25 186.481 663.481 185.25 665 185.25Z" stroke="#B8CDEB" stroke-width="0.5"/>
<path d="M763 185.25H853C854.519 185.25 855.75 186.481 855.75 188V209.75H760.25V188C760.25 186.481 761.481 185.25 763 185.25Z" stroke="#B8CDEB" stroke-width="0.5"/>
<path d="M115 273.25H854C855.519 273.25 856.75 274.481 856.75 276V550.75H112.25V276C112.25 274.481 113.481 273.25 115 273.25Z" stroke="#B8CDEB" stroke-width="0.5"/>
<rect width="75" height="11" rx="5.5" transform="matrix(1 0 0 -1 479 204)" fill="white"/>
<rect width="76" height="11" rx="5.5" transform="matrix(1 0 0 -1 576 204)" fill="#CAD1DD"/>
<rect width="66" height="8" rx="4" transform="matrix(1 0 0 -1 121 265)" fill="white"/>
<rect width="67" height="8" rx="4" transform="matrix(1 0 0 -1 207 265)" fill="white"/>
<rect width="119" height="7" rx="3.5" transform="matrix(1 0 0 -1 129 286)" fill="#DADBDB"/>
<rect width="119" height="7" rx="3.5" transform="matrix(1 0 0 -1 425 286)" fill="#DADBDB"/>
<rect width="119" height="7" rx="3.5" transform="matrix(1 0 0 -1 574 286)" fill="#DADBDB"/>
<rect width="119" height="7" rx="3.5" transform="matrix(1 0 0 -1 723 286)" fill="#DADBDB"/>
<rect width="119" height="7" rx="3.5" transform="matrix(1 0 0 -1 276 286)" fill="#ECF0F1"/>
<rect width="66" height="8" rx="4" transform="matrix(1 0 0 -1 294 265)" fill="white"/>
<rect width="66" height="8" rx="4" transform="matrix(1 0 0 -1 379 265)" fill="white"/>
<rect width="76" height="11" rx="5.5" transform="matrix(1 0 0 -1 673 204)" fill="#4D648D" fill-opacity="0.3"/>
<rect width="76" height="11" rx="5.5" transform="matrix(1 0 0 -1 770 204)" fill="#4D648D" fill-opacity="0.3"/>
<rect width="80" height="1" transform="matrix(1 0 0 -1 114 225)" fill="#4D648D"/>
<rect width="80" height="1" transform="matrix(1 0 0 -1 198 225)" fill="#4D648D"/>
<rect width="80" height="1" transform="matrix(1 0 0 -1 281 225)" fill="#4D648D"/>
<rect width="80" height="1" transform="matrix(1 0 0 -1 365 225)" fill="#4D648D"/>
<rect x="277" y="436" width="137" height="13" rx="6.5" fill="#E2E9FF"/>
<rect x="470" y="436" width="94" height="13" rx="6.5" fill="#E2E9FF"/>
<rect x="604" y="436" width="101" height="13" rx="6.5" fill="#E2E9FF"/>
<rect x="749" y="436" width="43" height="13" rx="6.5" fill="#E2E9FF"/>
<rect x="277" y="465" width="118" height="13" rx="6.5" fill="#E2E9FF"/>
<rect x="470" y="465" width="84" height="13" rx="6.5" fill="#E2E9FF"/>
<rect x="604" y="465" width="93" height="13" rx="6.5" fill="#E2E9FF"/>
<rect x="749" y="465" width="43" height="13" rx="6.5" fill="#E2E9FF"/>
<rect x="143" y="436" width="92" height="13" rx="6.5" fill="#E2E9FF"/>
<rect x="279" y="407" width="146" height="13" rx="6.5" fill="#E2E9FF"/>
<rect x="472" y="407" width="84" height="13" rx="6.5" fill="#E2E9FF"/>
<rect x="606" y="407" width="91" height="13" rx="6.5" fill="#E2E9FF"/>
<rect x="751" y="407" width="43" height="13" rx="6.5" fill="#E2E9FF"/>
<rect x="143" y="465" width="70" height="13" rx="6.5" fill="#E2E9FF"/>
<rect x="145" y="407" width="84" height="13" rx="6.5" fill="#E2E9FF"/>
<rect x="277" y="494" width="133" height="13" rx="6.5" fill="#E2E9FF"/>
<rect x="470" y="494" width="94" height="13" rx="6.5" fill="#E2E9FF"/>
<rect x="604" y="494" width="78" height="13" rx="6.5" fill="#E2E9FF"/>
<rect x="749" y="494" width="43" height="13" rx="6.5" fill="#E2E9FF"/>
<rect x="143" y="494" width="92" height="13" rx="6.5" fill="#E2E9FF"/>
<mask id="mask3_101_412" style="mask-type:alpha" maskUnits="userSpaceOnUse" x="811" y="378" width="14" height="14">
<path d="M824.114 389.497L821.525 386.907C821.408 386.791 821.25 386.726 821.084 386.726H820.661C821.377 385.809 821.803 384.656 821.803 383.402C821.803 380.418 819.385 378 816.402 378C813.418 378 811 380.418 811 383.402C811 386.385 813.418 388.803 816.402 388.803C817.656 388.803 818.809 388.377 819.726 387.661V388.084C819.726 388.25 819.791 388.408 819.907 388.525L822.497 391.114C822.741 391.359 823.135 391.359 823.377 391.114L824.112 390.38C824.356 390.135 824.356 389.741 824.114 389.497ZM816.402 386.726C814.566 386.726 813.078 385.24 813.078 383.402C813.078 381.566 814.563 380.078 816.402 380.078C818.238 380.078 819.726 381.563 819.726 383.402C819.726 385.238 818.24 386.726 816.402 386.726Z" fill="white"/>
</mask>
<g mask="url(#mask3_101_412)">
<path d="M824.309 378H810.987V391.322H824.309V378Z" fill="#4D648D"/>
</g>
<mask id="mask4_101_412" style="mask-type:alpha" maskUnits="userSpaceOnUse" x="811" y="407" width="14" height="14">
<path d="M824.114 418.497L821.525 415.907C821.408 415.791 821.25 415.726 821.084 415.726H820.661C821.377 414.809 821.803 413.656 821.803 412.402C821.803 409.418 819.385 407 816.402 407C813.418 407 811 409.418 811 412.402C811 415.385 813.418 417.803 816.402 417.803C817.656 417.803 818.809 417.377 819.726 416.661V417.084C819.726 417.25 819.791 417.408 819.907 417.525L822.497 420.114C822.741 420.359 823.135 420.359 823.377 420.114L824.112 419.38C824.356 419.135 824.356 418.741 824.114 418.497ZM816.402 415.726C814.566 415.726 813.078 414.24 813.078 412.402C813.078 410.566 814.563 409.078 816.402 409.078C818.238 409.078 819.726 410.563 819.726 412.402C819.726 414.238 818.24 415.726 816.402 415.726Z" fill="white"/>
</mask>
<g mask="url(#mask4_101_412)">
<path d="M824.309 407H810.987V420.322H824.309V407Z" fill="#4D648D"/>
</g>
<mask id="mask5_101_412" style="mask-type:alpha" maskUnits="userSpaceOnUse" x="811" y="436" width="14" height="14">
<path d="M824.114 447.497L821.525 444.907C821.408 444.791 821.25 444.726 821.084 444.726H820.661C821.377 443.809 821.803 442.656 821.803 441.402C821.803 438.418 819.385 436 816.402 436C813.418 436 811 438.418 811 441.402C811 444.385 813.418 446.803 816.402 446.803C817.656 446.803 818.809 446.377 819.726 445.661V446.084C819.726 446.25 819.791 446.408 819.907 446.525L822.497 449.114C822.741 449.359 823.135 449.359 823.377 449.114L824.112 448.38C824.356 448.135 824.356 447.741 824.114 447.497ZM816.402 444.726C814.566 444.726 813.078 443.24 813.078 441.402C813.078 439.566 814.563 438.078 816.402 438.078C818.238 438.078 819.726 439.563 819.726 441.402C819.726 443.238 818.24 444.726 816.402 444.726Z" fill="white"/>
</mask>
<g mask="url(#mask5_101_412)">
<path d="M824.309 436H810.987V449.322H824.309V436Z" fill="#4D648D"/>
</g>
<mask id="mask6_101_412" style="mask-type:alpha" maskUnits="userSpaceOnUse" x="811" y="465" width="14" height="14">
<path d="M824.114 476.497L821.525 473.907C821.408 473.791 821.25 473.726 821.084 473.726H820.661C821.377 472.809 821.803 471.656 821.803 470.402C821.803 467.418 819.385 465 816.402 465C813.418 465 811 467.418 811 470.402C811 473.385 813.418 475.803 816.402 475.803C817.656 475.803 818.809 475.377 819.726 474.661V475.084C819.726 475.25 819.791 475.408 819.907 475.525L822.497 478.114C822.741 478.359 823.135 478.359 823.377 478.114L824.112 477.38C824.356 477.135 824.356 476.741 824.114 476.497ZM816.402 473.726C814.566 473.726 813.078 472.24 813.078 470.402C813.078 468.566 814.563 467.078 816.402 467.078C818.238 467.078 819.726 468.563 819.726 470.402C819.726 472.238 818.24 473.726 816.402 473.726Z" fill="white"/>
</mask>
<g mask="url(#mask6_101_412)">
<path d="M824.309 465H810.987V478.322H824.309V465Z" fill="#4D648D"/>
</g>
<mask id="mask7_101_412" style="mask-type:alpha" maskUnits="userSpaceOnUse" x="811" y="494" width="14" height="14">
<path d="M824.114 505.497L821.525 502.907C821.408 502.791 821.25 502.726 821.084 502.726H820.661C821.377 501.809 821.803 500.656 821.803 499.402C821.803 496.418 819.385 494 816.402 494C813.418 494 811 496.418 811 499.402C811 502.385 813.418 504.803 816.402 504.803C817.656 504.803 818.809 504.377 819.726 503.661V504.084C819.726 504.25 819.791 504.408 819.907 504.525L822.497 507.114C822.741 507.359 823.135 507.359 823.377 507.114L824.112 506.38C824.356 506.135 824.356 505.741 824.114 505.497ZM816.402 502.726C814.566 502.726 813.078 501.24 813.078 499.402C813.078 497.566 814.563 496.078 816.402 496.078C818.238 496.078 819.726 497.563 819.726 499.402C819.726 501.238 818.24 502.726 816.402 502.726Z" fill="white"/>
</mask>
<g mask="url(#mask7_101_412)">
<path d="M824.309 494H810.987V507.322H824.309V494Z" fill="#4D648D"/>
</g>
<defs>
<filter id="filter0_d_101_412" x="0.5" y="0.5" width="976" height="669" filterUnits="userSpaceOnUse" color-interpolation-filters="sRGB">
<feFlood flood-opacity="0" result="BackgroundImageFix"/>
<feColorMatrix in="SourceAlpha" type="matrix" values="0 0 0 0 0 0 0 0 0 0 0 0 0 0 0 0 0 0 127 0" result="hardAlpha"/>
<feOffset dx="4" dy="4"/>
<feGaussianBlur stdDeviation="9"/>
<feColorMatrix type="matrix" values="0 0 0 0 0.321569 0 0 0 0 0.392157 0 0 0 0 0.541176 0 0 0 0.3 0"/>
<feBlend mode="normal" in2="BackgroundImageFix" result="effect1_dropShadow_101_412"/>
<feBlend mode="normal" in="SourceGraphic" in2="effect1_dropShadow_101_412" result="shape"/>
</filter>
<linearGradient id="paint0_linear_101_412" x1="484.5" y1="331" x2="811.266" y2="964.378" gradientUnits="userSpaceOnUse">
<stop stop-color="white"/>
<stop offset="1" stop-color="#EDF3FC"/>
</linearGradient>
<linearGradient id="paint1_linear_101_412" x1="48.3942" y1="46.6116" x2="570.241" y2="845.337" gradientUnits="userSpaceOnUse">
<stop stop-color="#7DB8FF"/>
<stop offset="0.0621" stop-color="#7CB6FF"/>
<stop offset="1" stop-color="#7194FF"/>
</linearGradient>
<linearGradient id="paint2_linear_101_412" x1="11.7667" y1="148.581" x2="356.508" y2="250.366" gradientUnits="userSpaceOnUse">
<stop stop-color="#A1C0FF"/>
<stop offset="1" stop-color="#7093FF"/>
</linearGradient>
<clipPath id="clip0_101_412">
<rect width="17.7551" height="20.5585" fill="white" transform="translate(868.687 58.4436)"/>
</clipPath>
</defs>
</svg>
